<?xml version="1.0" encoding="utf-8" ?>
<svg baseProfile="full" height="100" version="1.1" width="100" xmlns="http://www.w3.org/2000/svg" xmlns:ev="http://www.w3.org/2001/xml-events" xmlns:xlink="http://www.w3.org/1999/xlink"><defs /><polygon fill="none" id="1" points="62,33 62,38 61,39 61,40 60,41 58,41 57,42 53,42 52,43 50,43 49,44 47,44 46,43 46,41 45,40 45,36 43,36 42,37 41,37 41,39 42,40 42,42 43,43 43,45 44,46 37,53 37,54 36,55 36,57 35,58 35,63 36,64 36,66 38,68 39,68 40,69 44,69 45,68 46,68 47,67 48,67 52,63 53,63 55,65 56,65 57,64 58,64 58,63 55,60 55,59 58,56 58,55 59,54 59,53 60,52 60,51 61,50 61,49 62,48 62,47 63,46 63,44 64,43 66,43 67,44 70,44 71,45 73,45 75,47 76,47 77,48 77,49 78,50 78,51 79,52 79,59 78,60 78,61 75,64 74,64 73,65 72,65 71,66 70,66 69,67 67,67 66,68 60,68 59,69 61,71 66,71 67,70 70,70 71,69 72,69 73,68 75,68 77,66 78,66 82,62 82,61 83,60 83,51 82,50 82,49 77,44 76,44 75,43 74,43 73,42 70,42 69,41 66,41 65,40 65,37 66,36 66,33" stroke="black" stroke-width="1" /><polygon fill="none" id="2" points="45,49 46,50 46,51 47,52 47,54 48,55 48,56 51,59 51,60 45,66 44,66 43,67 41,67 39,65 39,64 38,63 38,60 39,59 39,57 40,56 40,55 41,54 41,53" stroke="black" stroke-width="1" /><polygon fill="none" id="3" points="57,44 58,43 59,43 60,44 60,45 59,46 59,47 58,48 58,49 57,50 57,51 56,52 56,53 55,54 55,55 53,57 52,56 52,55 51,54 51,53 49,51 49,50 48,49 48,47 49,46 51,46 52,45 53,45 54,44" stroke="black" stroke-width="1" /></svg>