<?xml version="1.0" encoding="utf-8" ?>
<svg baseProfile="full" height="100" version="1.1" width="100" xmlns="http://www.w3.org/2000/svg" xmlns:ev="http://www.w3.org/2001/xml-events" xmlns:xlink="http://www.w3.org/1999/xlink"><defs /><polygon fill="none" id="1" points="41,33 41,40 40,41 39,41 38,42 36,42 35,43 34,43 33,44 32,44 31,43 31,38 30,37 30,36 28,36 27,37 27,40 28,41 28,44 29,45 29,47 26,50 26,51 25,52 25,54 24,55 24,57 23,58 23,64 24,65 24,67 25,68 25,69 26,70 30,70 31,69 32,69 34,67 34,66 35,65 36,66 38,66 39,65 39,62 38,61 38,59 39,58 39,56 40,55 40,54 41,53 41,51 42,50 42,47 43,46 43,45 44,44 45,45 47,45 52,50 52,53 53,54 53,58 52,59 52,61 50,63 50,64 49,65 48,65 46,67 45,67 44,68 40,68 39,69 39,70 41,72 41,73 42,73 43,72 45,72 46,71 47,71 48,70 49,70 51,68 52,68 53,67 53,66 55,64 55,62 56,61 56,51 55,50 55,48 54,47 54,46 51,43 50,43 49,42 47,42 46,41 45,41 44,40 44,38 45,37 45,33" stroke="black" stroke-width="1" /><polygon fill="none" id="2" points="29,52 30,51 31,52 31,54 32,55 32,57 33,58 33,59 34,60 33,61 33,62 31,64 31,65 29,67 28,67 27,66 27,65 26,64 26,60 27,59 27,56 28,55 28,54 29,53" stroke="black" stroke-width="1" /><polygon fill="none" id="3" points="36,46 37,45 39,45 40,46 39,47 39,48 38,49 38,52 37,53 37,55 36,56 35,55 35,54 34,53 34,51 33,50 33,48 35,46" stroke="black" stroke-width="1" /></svg>