<?xml version="1.0" encoding="utf-8" ?>
<svg baseProfile="full" height="100" version="1.1" width="100" xmlns="http://www.w3.org/2000/svg" xmlns:ev="http://www.w3.org/2001/xml-events" xmlns:xlink="http://www.w3.org/1999/xlink"><defs /><polygon fill="none" id="1" points="47,33 47,36 46,37 46,40 45,41 44,41 43,42 40,42 39,43 38,43 37,44 36,44 35,43 35,40 34,39 34,36 32,36 31,37 30,37 30,38 31,39 31,42 32,43 32,45 33,46 31,48 31,49 29,51 29,52 28,53 28,54 27,55 27,57 26,58 26,64 27,65 27,67 30,70 34,70 35,69 36,69 38,67 38,66 40,64 41,65 41,66 43,66 44,65 44,63 42,61 42,60 43,59 43,58 44,57 44,56 45,55 45,54 46,53 46,52 47,51 47,49 48,48 48,45 49,44 50,44 51,45 52,45 53,46 54,46 58,50 58,51 59,52 59,60 58,61 58,62 55,65 54,65 52,67 50,67 49,68 45,68 44,69 44,70 46,72 46,73 47,73 48,72 50,72 51,71 53,71 54,70 55,70 56,69 57,69 61,65 61,64 62,63 62,62 63,61 63,51 62,50 62,48 57,43 56,43 55,42 53,42 52,41 50,41 49,40 50,39 50,36 51,35 51,33" stroke="black" stroke-width="1" /><polygon fill="none" id="2" points="34,51 35,52 35,54 36,55 36,57 37,58 37,59 38,60 38,61 35,64 35,65 34,66 33,66 32,67 30,65 30,57 31,56 31,55 32,54 32,53" stroke="black" stroke-width="1" /><polygon fill="none" id="3" points="41,46 42,45 43,45 44,46 44,48 43,49 43,50 42,51 42,53 41,54 41,55 40,56 39,55 39,53 38,52 38,50 37,49 37,48 38,47 39,47 40,46" stroke="black" stroke-width="1" /><polygon fill="none" id="4" points="43,45 44,44 45,45 44,46" stroke="black" stroke-width="1" /></svg>