<?xml version="1.0" encoding="utf-8" ?>
<svg baseProfile="full" height="100" version="1.1" width="100" xmlns="http://www.w3.org/2000/svg" xmlns:ev="http://www.w3.org/2001/xml-events" xmlns:xlink="http://www.w3.org/1999/xlink"><defs /><polygon fill="none" id="1" points="52,33 52,37 51,38 51,40 50,41 48,41 47,42 44,42 43,43 42,43 41,44 40,44 39,43 39,40 38,39 38,36 36,36 35,37 34,37 34,40 35,41 35,43 36,44 36,47 32,51 32,52 31,53 31,54 30,55 30,57 29,58 29,64 30,65 30,67 33,70 38,70 39,69 40,69 43,66 43,65 44,64 46,66 48,66 49,65 49,63 47,61 47,60 48,59 48,58 49,57 49,56 50,55 50,54 51,53 51,52 52,51 52,49 53,48 53,46 55,44 56,45 58,45 59,46 60,46 61,47 62,47 64,49 64,50 65,51 65,52 66,53 66,59 65,60 65,61 61,65 60,65 59,66 58,66 57,67 56,67 55,68 50,68 49,69 49,70 51,72 56,72 57,71 59,71 60,70 61,70 62,69 63,69 65,67 66,67 68,65 68,64 69,63 69,62 70,61 70,51 69,50 69,49 68,48 68,47 65,44 64,44 63,43 62,43 61,42 59,42 58,41 56,41 55,40 55,38 56,37 56,33" stroke="black" stroke-width="1" /><polygon fill="none" id="2" points="37,52 38,52 39,53 39,54 40,55 40,57 42,59 42,61 36,67 35,67 33,65 33,58 34,57 34,56 35,55 35,54" stroke="black" stroke-width="1" /><polygon fill="none" id="3" points="45,46 46,45 48,45 49,46 49,48 48,49 48,50 47,51 47,52 46,53 46,55 45,56 43,54 43,52 42,51 42,50 41,49 41,48 42,47 43,47 44,46" stroke="black" stroke-width="1" /><polygon fill="none" id="4" points="48,45 49,44 50,45 49,46" stroke="black" stroke-width="1" /></svg>