<?xml version="1.0" encoding="utf-8" ?>
<svg baseProfile="full" height="100" version="1.1" width="100" xmlns="http://www.w3.org/2000/svg" xmlns:ev="http://www.w3.org/2001/xml-events" xmlns:xlink="http://www.w3.org/1999/xlink"><defs /><polygon fill="none" id="1" points="57,33 57,37 56,38 56,40 55,41 53,41 52,42 49,42 48,43 46,43 45,44 44,44 43,43 43,41 42,40 42,36 39,36 38,37 37,37 37,39 38,40 38,42 39,43 39,44 40,45 40,47 39,48 38,48 36,50 36,51 34,53 34,54 33,55 33,57 32,58 32,64 33,65 33,67 36,70 42,70 44,68 45,68 49,64 50,65 50,66 52,66 53,65 54,65 54,63 52,61 52,59 54,57 54,56 55,55 55,54 56,53 56,52 57,51 57,50 58,49 58,46 60,44 61,44 62,45 64,45 65,46 66,46 67,47 68,47 72,51 72,53 73,54 73,58 72,59 72,60 67,65 66,65 65,66 64,66 63,67 61,67 60,68 55,68 54,69 54,70 56,72 61,72 62,71 65,71 66,70 67,70 68,69 69,69 70,68 71,68 73,66 74,66 74,65 76,63 76,62 77,61 77,51 76,50 76,49 75,48 75,47 73,45 72,45 70,43 68,43 67,42 65,42 64,41 61,41 60,40 61,39 61,37 62,36 62,33" stroke="black" stroke-width="1" /><polygon fill="none" id="2" points="41,51 43,53 43,54 44,55 44,57 46,59 46,61 40,67 38,67 37,66 37,65 36,64 36,59 37,58 37,56 39,54 39,53" stroke="black" stroke-width="1" /><polygon fill="none" id="3" points="50,46 51,45 53,45 54,46 54,48 53,49 53,50 52,51 52,52 51,53 51,54 50,55 50,56 49,57 48,56 48,54 47,53 47,52 46,51 46,50 45,49 45,48 46,47 47,47 48,46" stroke="black" stroke-width="1" /><polygon fill="none" id="4" points="53,45 54,44 55,45 54,46" stroke="black" stroke-width="1" /></svg>