<?xml version="1.0" encoding="utf-8" ?>
<svg baseProfile="full" height="100" version="1.1" width="100" xmlns="http://www.w3.org/2000/svg" xmlns:ev="http://www.w3.org/2001/xml-events" xmlns:xlink="http://www.w3.org/1999/xlink"><defs /><polygon fill="none" id="1" points="62,33 62,38 61,39 61,40 60,41 58,41 57,42 53,42 52,43 50,43 49,44 48,44 47,43 47,41 46,40 46,36 43,36 42,37 41,37 41,40 42,41 42,43 43,44 43,47 37,53 37,54 36,55 36,57 35,58 35,64 36,65 36,67 38,69 39,69 40,70 45,70 46,69 47,69 48,68 49,68 53,64 55,66 57,66 58,65 59,65 59,63 56,60 59,57 59,56 60,55 60,54 61,53 61,52 62,51 62,50 63,49 63,48 64,47 64,45 65,44 66,44 67,45 70,45 71,46 73,46 75,48 76,48 77,49 77,50 78,51 78,52 79,53 79,59 78,60 78,61 75,64 74,64 73,65 72,65 71,66 70,66 69,67 67,67 66,68 60,68 59,69 59,70 61,72 67,72 68,71 71,71 72,70 73,70 74,69 76,69 78,67 79,67 83,63 83,62 84,61 84,51 83,50 83,49 78,44 77,44 76,43 75,43 74,42 71,42 70,41 67,41 66,40 66,38 67,37 67,33" stroke="black" stroke-width="1" /><polygon fill="none" id="2" points="45,51 47,53 47,55 48,56 48,57 51,60 45,66 44,66 43,67 42,67 40,65 40,64 39,63 39,61 40,60 40,58 41,57 41,56 42,55 42,54" stroke="black" stroke-width="1" /><polygon fill="none" id="3" points="54,46 55,45 58,45 59,46 59,47 58,48 58,49 57,50 57,51 56,52 56,53 55,54 55,55 54,56 52,54 52,53 50,51 50,50 49,49 49,48 50,47 52,47 53,46" stroke="black" stroke-width="1" /><polygon fill="none" id="4" points="58,45 59,44 60,45 59,46" stroke="black" stroke-width="1" /></svg>