<?xml version="1.0" encoding="utf-8" ?>
<svg baseProfile="full" height="100" version="1.1" width="100" xmlns="http://www.w3.org/2000/svg" xmlns:ev="http://www.w3.org/2001/xml-events" xmlns:xlink="http://www.w3.org/1999/xlink"><defs /><polygon fill="none" id="1" points="42,34 42,41 41,42 40,42 39,43 37,43 36,44 35,44 34,45 31,45 30,44 30,39 29,38 29,37 28,38 28,39 29,40 29,43 30,44 30,48 27,51 27,52 26,53 26,55 25,56 25,58 24,59 24,63 25,64 25,66 26,67 26,68 27,69 29,69 30,68 31,68 33,66 33,65 35,63 36,63 37,64 37,65 38,64 38,63 36,61 36,60 37,59 37,58 38,57 38,55 39,54 39,53 40,52 40,50 41,49 41,46 42,45 42,44 43,43 45,43 46,44 48,44 53,49 53,52 54,53 54,59 53,60 53,62 51,64 51,65 50,66 49,66 47,68 46,68 45,69 41,69 41,70 42,71 44,71 45,70 46,70 47,69 48,69 50,67 51,67 52,66 52,65 54,63 54,61 55,60 55,52 54,51 54,49 53,48 53,47 50,44 49,44 48,43 46,43 45,42 44,42 43,41 43,37 44,36 44,34" stroke="black" stroke-width="1" /><polygon fill="none" id="2" points="28,51 29,50 31,50 32,51 32,53 33,54 33,56 34,57 34,58 35,59 35,61 34,62 34,63 32,65 32,66 30,68 27,68 26,67 26,66 25,65 25,59 26,58 26,55 27,54 27,53 28,52" stroke="black" stroke-width="1" /><polygon fill="none" id="3" points="38,44 39,43 40,43 41,44 41,47 40,48 40,49 39,50 39,53 38,54 38,56 36,58 35,58 34,57 34,55 33,54 33,52 32,51 32,47 34,45 35,45 36,44" stroke="black" stroke-width="1" /></svg>