<?xml version="1.0" encoding="utf-8" ?>
<svg baseProfile="full" height="100" version="1.1" width="100" xmlns="http://www.w3.org/2000/svg" xmlns:ev="http://www.w3.org/2001/xml-events" xmlns:xlink="http://www.w3.org/1999/xlink"><defs /><polygon fill="none" id="1" points="48,34 48,37 47,38 47,41 46,42 45,42 44,43 41,43 40,44 39,44 38,45 35,45 34,44 34,41 33,40 33,37 32,38 32,41 33,42 33,44 34,45 34,47 32,49 32,50 30,52 30,53 29,54 29,55 28,56 28,58 27,59 27,63 28,64 28,66 31,69 33,69 34,68 35,68 37,66 37,65 39,63 41,63 42,64 42,65 43,64 41,62 41,59 42,58 42,57 43,56 43,55 44,54 44,53 45,52 45,51 46,50 46,48 47,47 47,44 48,43 51,43 52,44 53,44 54,45 55,45 59,49 59,50 60,51 60,61 59,62 59,63 56,66 55,66 53,68 51,68 50,69 46,69 46,70 47,71 49,71 50,70 52,70 53,69 54,69 55,68 56,68 60,64 60,63 61,62 61,61 62,60 62,52 61,51 61,49 56,44 55,44 54,43 52,43 51,42 49,42 48,41 48,39 49,38 49,35 50,34" stroke="black" stroke-width="1" /><polygon fill="none" id="2" points="32,50 33,49 34,49 36,51 36,53 37,54 37,56 38,57 38,58 39,59 39,62 36,65 36,66 35,67 34,67 33,68 31,68 29,66 29,56 30,55 30,54 31,53 31,52 32,51" stroke="black" stroke-width="1" /><polygon fill="none" id="3" points="42,44 43,43 45,43 46,44 46,46 45,47 45,49 44,50 44,51 43,52 43,54 42,55 42,56 41,57 39,57 38,56 38,54 37,53 37,51 36,50 36,47 37,46 38,46 39,45 40,45 41,44" stroke="black" stroke-width="1" /></svg>