<?xml version="1.0" encoding="utf-8" ?>
<svg baseProfile="full" height="100" version="1.1" width="100" xmlns="http://www.w3.org/2000/svg" xmlns:ev="http://www.w3.org/2001/xml-events" xmlns:xlink="http://www.w3.org/1999/xlink"><defs /><polygon fill="none" id="1" points="58,34 58,38 57,39 57,41 56,42 54,42 53,43 50,43 49,44 47,44 46,45 43,45 42,44 42,42 41,41 41,37 40,37 39,38 38,38 39,39 39,41 40,42 40,43 41,44 41,48 40,49 39,49 37,51 37,52 35,54 35,55 34,56 34,58 33,59 33,63 34,64 34,66 37,69 41,69 43,67 44,67 48,63 50,63 51,64 51,65 52,64 53,64 50,61 50,60 51,59 51,58 53,56 53,55 54,54 54,53 55,52 55,51 56,50 56,49 57,48 57,45 59,43 62,43 63,44 65,44 66,45 67,45 68,46 69,46 73,50 73,52 74,53 74,59 73,60 73,61 68,66 67,66 66,67 65,67 64,68 62,68 61,69 56,69 56,70 57,71 60,71 61,70 64,70 65,69 66,69 67,68 68,68 69,67 70,67 72,65 73,65 73,64 75,62 75,61 76,60 76,52 75,51 75,50 74,49 74,48 72,46 71,46 69,44 67,44 66,43 64,43 63,42 60,42 59,41 59,39 60,38 60,36 61,35 61,34" stroke="black" stroke-width="1" /><polygon fill="none" id="2" points="41,49 42,49 43,50 43,51 44,52 44,53 45,54 45,56 47,58 47,59 48,60 48,61 41,68 37,68 36,67 36,66 35,65 35,58 36,57 36,55 38,53 38,52" stroke="black" stroke-width="1" /><polygon fill="none" id="3" points="52,44 53,43 55,43 56,44 56,46 55,47 55,49 54,50 54,51 53,52 53,53 52,54 52,55 51,56 51,57 50,58 48,58 47,57 47,55 46,54 46,53 45,52 45,51 44,50 44,47 45,46 46,46 47,45 49,45 50,44" stroke="black" stroke-width="1" /></svg>