<?xml version="1.0" encoding="utf-8" ?>
<svg baseProfile="full" height="100" version="1.1" width="100" xmlns="http://www.w3.org/2000/svg" xmlns:ev="http://www.w3.org/2001/xml-events" xmlns:xlink="http://www.w3.org/1999/xlink"><defs /><polygon fill="none" id="1" points="42,43 41,44 35,44 34,45 28,45 28,49 34,49 35,48 38,48 39,47 40,47 41,48 40,49 40,50 37,53 37,54 35,56 35,57 31,61 31,62 28,65 28,66 25,69 25,72 26,73 28,73 28,72 30,70 30,69 33,66 33,65 37,61 38,61 39,60 40,60 41,61 41,62 42,63 42,70 43,71 44,71 45,72 55,72 55,68 52,68 51,69 46,69 45,68 45,61 44,60 44,58 43,57 40,57 39,56 43,52 43,51 47,47 47,45 45,43" stroke="black" stroke-width="1" /><polygon fill="none" id="2" points="33,32 33,35 34,35 35,36 36,36 37,37 39,37 41,39 42,39 43,40 44,40 45,39 45,38 46,37 46,36 45,36 44,35 43,35 42,34 41,34 40,33 38,33 37,32" stroke="black" stroke-width="1" /></svg>