<?xml version="1.0" encoding="utf-8" ?>
<svg baseProfile="full" height="100" version="1.1" width="100" xmlns="http://www.w3.org/2000/svg" xmlns:ev="http://www.w3.org/2001/xml-events" xmlns:xlink="http://www.w3.org/1999/xlink"><defs /><polygon fill="none" id="1" points="63,34 63,39 62,40 62,41 61,42 59,42 58,43 54,43 53,44 51,44 50,45 47,45 46,44 46,42 45,41 45,37 44,37 43,38 42,38 42,39 43,40 43,42 44,43 44,45 45,46 45,47 38,54 38,55 37,56 37,58 36,59 36,63 37,64 37,66 39,68 40,68 41,69 44,69 45,68 46,68 47,67 48,67 52,63 54,63 56,65 57,64 58,64 55,61 55,59 58,56 58,55 59,54 59,53 60,52 60,51 61,50 61,49 62,48 62,47 63,46 63,44 64,43 67,43 68,44 71,44 72,45 74,45 76,47 77,47 78,48 78,49 79,50 79,51 80,52 80,60 79,61 79,62 76,65 75,65 74,66 73,66 72,67 71,67 70,68 68,68 67,69 61,69 61,70 62,71 66,71 67,70 70,70 71,69 72,69 73,68 75,68 77,66 78,66 82,62 82,61 83,60 83,52 82,51 82,50 77,45 76,45 75,44 74,44 73,43 70,43 69,42 66,42 65,41 65,37 66,36 66,34" stroke="black" stroke-width="1" /><polygon fill="none" id="2" points="45,49 46,49 47,50 47,51 48,52 48,54 49,55 49,56 52,59 52,61 46,67 45,67 44,68 41,68 39,66 39,65 38,64 38,60 39,59 39,57 40,56 40,55 41,54 41,53" stroke="black" stroke-width="1" /><polygon fill="none" id="3" points="57,44 58,43 60,43 61,44 61,46 60,47 60,48 59,49 59,50 58,51 58,52 57,53 57,54 56,55 56,56 54,58 53,58 52,57 52,56 51,55 51,54 49,52 49,51 48,50 48,47 49,46 51,46 52,45 53,45 54,44" stroke="black" stroke-width="1" /></svg>