<?xml version="1.0" encoding="utf-8" ?>
<svg baseProfile="full" height="100" version="1.1" width="100" xmlns="http://www.w3.org/2000/svg" xmlns:ev="http://www.w3.org/2001/xml-events" xmlns:xlink="http://www.w3.org/1999/xlink"><defs /><polygon fill="none" id="1" points="40,32 40,39 39,40 38,40 37,41 35,41 34,42 33,42 32,43 31,42 31,37 30,36 30,35 27,35 26,36 26,40 27,41 27,44 28,45 28,46 25,49 25,50 24,51 24,53 23,54 23,56 22,57 22,64 23,65 23,67 24,68 24,69 25,70 30,70 31,69 32,69 35,66 38,66 39,67 38,68 38,70 40,72 40,73 42,73 43,72 45,72 46,71 47,71 48,70 49,70 51,68 52,68 53,67 53,66 55,64 55,62 56,61 56,50 55,49 55,47 54,46 54,45 51,42 50,42 49,41 47,41 46,40 45,40 44,39 44,38 45,37 45,32" stroke="black" stroke-width="1" /><polygon fill="none" id="2" points="28,54 29,53 31,55 31,57 32,58 32,61 30,63 30,64 28,66 27,65 27,64 26,63 26,60 27,59 27,56 28,55" stroke="black" stroke-width="1" /><polygon fill="none" id="3" points="44,45 46,45 51,50 51,53 52,54 52,57 51,58 51,60 49,62 49,63 48,64 47,64 45,66 44,66 43,67 39,67 38,66 39,65 39,61 38,60 38,59 39,58 39,56 40,55 40,54 41,53 41,51 42,50 42,47" stroke="black" stroke-width="1" /><polygon fill="none" id="4" points="36,46 37,45 38,46 38,47 37,48 37,51 35,53 34,52 34,50 33,49 33,48 35,46" stroke="black" stroke-width="1" /></svg>