<?xml version="1.0" encoding="utf-8" ?>
<svg baseProfile="full" height="100" version="1.1" width="100" xmlns="http://www.w3.org/2000/svg" xmlns:ev="http://www.w3.org/2001/xml-events" xmlns:xlink="http://www.w3.org/1999/xlink"><defs /><polygon fill="none" id="1" points="46,32 46,35 45,36 45,39 44,40 43,40 42,41 39,41 38,42 37,42 36,43 35,42 35,39 34,38 34,35 31,35 30,36 29,36 29,38 30,39 30,42 31,43 31,46 30,47 30,48 28,50 28,51 27,52 27,53 26,54 26,56 25,57 25,64 26,65 26,67 29,70 34,70 35,69 36,69 38,67 38,66 39,65 40,66 43,66 44,67 43,68 43,70 45,72 45,73 47,73 48,72 50,72 51,71 53,71 54,70 55,70 56,69 57,69 61,65 61,64 62,63 62,62 63,61 63,50 62,49 62,47 57,42 56,42 55,41 53,41 52,40 51,40 50,39 50,36 51,35 51,32" stroke="black" stroke-width="1" /><polygon fill="none" id="2" points="32,53 33,52 34,53 34,54 35,55 35,57 36,58 36,59 37,60 34,63 34,64 33,65 31,65 30,64 30,57 31,56 31,55 32,54" stroke="black" stroke-width="1" /><polygon fill="none" id="3" points="41,46 42,45 43,46 43,47 42,48 42,49 41,50 41,52 40,53 38,51 38,49 37,48 38,47 39,47 40,46" stroke="black" stroke-width="1" /><polygon fill="none" id="4" points="48,45 49,44 50,45 51,45 52,46 53,46 57,50 57,51 58,52 58,59 57,60 57,61 54,64 53,64 51,66 49,66 48,67 44,67 43,66 44,65 44,62 42,60 43,59 43,58 44,57 44,56 45,55 45,54 46,53 46,52 47,51 47,49 48,48" stroke="black" stroke-width="1" /></svg>