<?xml version="1.0" encoding="utf-8" ?>
<svg baseProfile="full" height="100" version="1.1" width="100" xmlns="http://www.w3.org/2000/svg" xmlns:ev="http://www.w3.org/2001/xml-events" xmlns:xlink="http://www.w3.org/1999/xlink"><defs /><polygon fill="none" id="1" points="51,32 51,36 50,37 50,39 49,40 47,40 46,41 43,41 42,42 41,42 40,43 39,42 39,39 38,38 38,35 35,35 34,36 33,36 33,40 34,41 34,43 35,44 35,46 31,50 31,51 30,52 30,53 29,54 29,56 28,57 28,64 29,65 29,67 32,70 38,70 39,69 40,69 44,65 45,66 48,66 49,67 48,68 48,70 50,72 56,72 57,71 59,71 60,70 61,70 62,69 63,69 65,67 66,67 68,65 68,64 69,63 69,62 70,61 70,50 69,49 69,48 68,47 68,46 65,43 64,43 63,42 62,42 61,41 59,41 58,40 56,40 55,39 55,38 56,37 56,32" stroke="black" stroke-width="1" /><polygon fill="none" id="2" points="37,52 38,53 38,54 39,55 39,57 41,59 41,60 35,66 33,64 33,58 34,57 34,56 35,55 35,54" stroke="black" stroke-width="1" /><polygon fill="none" id="3" points="53,46 54,45 57,45 58,46 59,46 60,47 61,47 63,49 63,50 64,51 64,52 65,53 65,58 64,59 64,60 60,64 59,64 58,65 57,65 56,66 55,66 54,67 49,67 48,66 49,65 49,62 47,60 48,59 48,58 49,57 49,56 50,55 50,54 51,53 51,52 52,51 52,49 53,48" stroke="black" stroke-width="1" /><polygon fill="none" id="4" points="45,46 46,45 47,45 48,46 48,47 47,48 47,49 46,50 46,51 45,52 45,53 44,54 43,53 43,51 42,50 42,49 41,48 42,47 43,47 44,46" stroke="black" stroke-width="1" /></svg>