<?xml version="1.0" encoding="utf-8" ?>
<svg baseProfile="full" height="100" version="1.1" width="100" xmlns="http://www.w3.org/2000/svg" xmlns:ev="http://www.w3.org/2001/xml-events" xmlns:xlink="http://www.w3.org/1999/xlink"><defs /><polygon fill="none" id="1" points="56,32 56,36 55,37 55,39 54,40 52,40 51,41 48,41 47,42 45,42 44,43 43,42 43,40 42,39 42,35 38,35 37,36 36,36 36,39 37,40 37,42 38,43 38,44 39,45 39,46 38,47 37,47 35,49 35,50 33,52 33,53 32,54 32,56 31,57 31,64 32,65 32,67 35,70 42,70 44,68 45,68 48,65 49,66 52,66 53,65 54,65 54,62 52,60 52,59 54,57 54,56 55,55 55,54 56,53 56,52 57,51 57,50 58,49 58,46 60,44 61,45 63,45 64,46 65,46 66,47 67,47 71,51 71,53 72,54 72,57 71,58 71,59 66,64 65,64 64,65 63,65 62,66 60,66 59,67 54,67 53,68 53,70 55,72 61,72 62,71 65,71 66,70 67,70 68,69 69,69 70,68 71,68 73,66 74,66 74,65 76,63 76,62 77,61 77,50 76,49 76,48 75,47 75,46 73,44 72,44 70,42 68,42 67,41 65,41 64,40 62,40 61,39 61,37 62,36 62,32" stroke="black" stroke-width="1" /><polygon fill="none" id="2" points="39,53 40,52 41,52 42,53 42,54 43,55 43,57 45,59 45,60 39,66 38,66 37,65 37,64 36,63 36,59 37,58 37,56 39,54" stroke="black" stroke-width="1" /><polygon fill="none" id="3" points="50,46 51,45 52,45 53,46 53,47 52,48 52,49 51,50 51,51 50,52 50,53 49,54 47,52 47,51 46,50 46,49 45,48 46,47 47,47 48,46" stroke="black" stroke-width="1" /></svg>