<?xml version="1.0" encoding="utf-8" ?>
<svg baseProfile="full" height="100" version="1.1" width="100" xmlns="http://www.w3.org/2000/svg" xmlns:ev="http://www.w3.org/2001/xml-events" xmlns:xlink="http://www.w3.org/1999/xlink"><defs /><polygon fill="none" id="1" points="61,32 61,37 60,38 60,39 59,40 57,40 56,41 52,41 51,42 49,42 48,43 47,42 47,40 46,39 46,35 42,35 41,36 40,36 40,40 41,41 41,43 42,44 42,46 36,52 36,53 35,54 35,56 34,57 34,64 35,65 35,67 37,69 38,69 39,70 45,70 46,69 47,69 48,68 49,68 52,65 53,65 54,66 57,66 58,65 59,65 59,62 57,60 57,59 59,57 59,56 60,55 60,54 61,53 61,52 62,51 62,50 63,49 63,48 64,47 64,45 65,44 66,45 69,45 70,46 72,46 74,48 75,48 76,49 76,50 77,51 77,52 78,53 78,58 77,59 77,60 74,63 73,63 72,64 71,64 70,65 69,65 68,66 66,66 65,67 59,67 58,68 58,70 60,72 67,72 68,71 71,71 72,70 73,70 74,69 76,69 78,67 79,67 83,63 83,62 84,61 84,50 83,49 83,48 78,43 77,43 76,42 75,42 74,41 71,41 70,40 67,40 66,39 66,38 67,37 67,32" stroke="black" stroke-width="1" /><polygon fill="none" id="2" points="44,52 45,52 46,53 46,55 47,56 47,57 49,59 49,60 44,65 43,65 42,66 40,64 40,63 39,62 39,61 40,60 40,58 41,57 41,56 42,55 42,54" stroke="black" stroke-width="1" /><polygon fill="none" id="3" points="54,46 55,45 57,45 58,46 57,47 57,48 56,49 56,50 55,51 55,52 53,54 52,53 52,52 50,50 50,49 49,48 50,47 52,47 53,46" stroke="black" stroke-width="1" /></svg>