<?xml version="1.0" encoding="utf-8" ?>
<svg baseProfile="full" height="100" version="1.1" width="100" xmlns="http://www.w3.org/2000/svg" xmlns:ev="http://www.w3.org/2001/xml-events" xmlns:xlink="http://www.w3.org/1999/xlink"><defs /><polygon fill="none" id="1" points="27,68 28,68" stroke="black" stroke-width="1" /><polygon fill="none" id="2" points="32,65" stroke="black" stroke-width="1" /><polygon fill="none" id="3" points="24,59 24,62" stroke="black" stroke-width="1" /><polygon fill="none" id="4" points="35,58 35,61 34,62 36,62 37,63 35,61 35,59 36,58" stroke="black" stroke-width="1" /><polygon fill="none" id="5" points="25,56 25,57" stroke="black" stroke-width="1" /><polygon fill="none" id="6" points="33,55" stroke="black" stroke-width="1" /><polygon fill="none" id="7" points="26,53" stroke="black" stroke-width="1" /><polygon fill="none" id="8" points="32,52" stroke="black" stroke-width="1" /><polygon fill="none" id="9" points="27,51" stroke="black" stroke-width="1" /><polygon fill="none" id="10" points="39,50 39,51" stroke="black" stroke-width="1" /><polygon fill="none" id="11" points="53,49 53,51 54,52 54,59 53,60 53,62 51,64 51,65 50,66 49,66 47,68 46,68 45,69 41,69 42,70 43,70 44,69 45,69 46,68 47,68 49,66 50,66 51,65 51,64 53,62 53,60 54,59 54,52 53,51" stroke="black" stroke-width="1" /><polygon fill="none" id="12" points="40,48" stroke="black" stroke-width="1" /><polygon fill="none" id="13" points="30,45 30,48 29,49 31,49 31,46 32,45" stroke="black" stroke-width="1" /><polygon fill="none" id="14" points="49,44 52,47" stroke="black" stroke-width="1" /><polygon fill="none" id="15" points="46,43 47,43" stroke="black" stroke-width="1" /><polygon fill="none" id="16" points="37,43" stroke="black" stroke-width="1" /><polygon fill="none" id="17" points="28,38 29,39 29,42 29,39" stroke="black" stroke-width="1" /><polygon fill="none" id="18" points="42,34 42,41 41,42 40,42 41,43 41,44 41,43 42,42 44,42 43,42 42,41 42,36 43,35 43,34" stroke="black" stroke-width="1" /></svg>