<?xml version="1.0" encoding="utf-8" ?>
<svg baseProfile="full" height="100" version="1.1" width="100" xmlns="http://www.w3.org/2000/svg" xmlns:ev="http://www.w3.org/2001/xml-events" xmlns:xlink="http://www.w3.org/1999/xlink"><defs /><polygon fill="none" id="1" points="31,68 32,68" stroke="black" stroke-width="1" /><polygon fill="none" id="2" points="34,67" stroke="black" stroke-width="1" /><polygon fill="none" id="3" points="36,65" stroke="black" stroke-width="1" /><polygon fill="none" id="4" points="38,57 39,58 39,62 40,62 40,58 41,57" stroke="black" stroke-width="1" /><polygon fill="none" id="5" points="28,56 28,58 27,59 27,62 28,63 28,65" stroke="black" stroke-width="1" /><polygon fill="none" id="6" points="42,55" stroke="black" stroke-width="1" /><polygon fill="none" id="7" points="37,54 37,55" stroke="black" stroke-width="1" /><polygon fill="none" id="8" points="29,54" stroke="black" stroke-width="1" /><polygon fill="none" id="9" points="30,52" stroke="black" stroke-width="1" /><polygon fill="none" id="10" points="36,51 36,52" stroke="black" stroke-width="1" /><polygon fill="none" id="11" points="34,45 34,47 33,48 34,48 35,49 35,46 36,45 37,45" stroke="black" stroke-width="1" /><polygon fill="none" id="12" points="39,44" stroke="black" stroke-width="1" /><polygon fill="none" id="13" points="52,43 53,43 54,44 55,44 59,48 59,49 60,50 60,61 59,62 59,63 56,66 55,66 53,68 51,68 50,69 46,69 47,70 48,70 49,69 51,69 52,68 53,68 54,67 55,67 59,63 59,62 60,61 60,60 61,59 61,52 60,51 60,49 55,44 54,44 53,43" stroke="black" stroke-width="1" /><polygon fill="none" id="14" points="41,43" stroke="black" stroke-width="1" /><polygon fill="none" id="15" points="32,38 32,40 33,41 33,43 33,41 32,40" stroke="black" stroke-width="1" /><polygon fill="none" id="16" points="48,34 48,37 47,38 47,41 46,42 45,42 46,43 46,46 45,47 45,49 44,50 44,51 43,52 43,53 43,52 44,51 44,50 45,49 45,47 46,46 46,43 47,42 50,42 48,42 47,41 47,38 48,37" stroke="black" stroke-width="1" /></svg>