<?xml version="1.0" encoding="utf-8" ?>
<svg baseProfile="full" height="100" version="1.1" width="100" xmlns="http://www.w3.org/2000/svg" xmlns:ev="http://www.w3.org/2001/xml-events" xmlns:xlink="http://www.w3.org/1999/xlink"><defs /><polygon fill="none" id="1" points="34,68 36,68" stroke="black" stroke-width="1" /><polygon fill="none" id="2" points="41,64 38,67" stroke="black" stroke-width="1" /><polygon fill="none" id="3" points="46,57 45,58 43,58 43,62 45,62 46,63 45,62 45,58" stroke="black" stroke-width="1" /><polygon fill="none" id="4" points="35,50 33,52 33,53 32,54 32,55 31,56 31,58 30,59 30,62 31,63 31,65 31,56 32,55 32,54 33,53 33,52" stroke="black" stroke-width="1" /><polygon fill="none" id="5" points="43,44" stroke="black" stroke-width="1" /><polygon fill="none" id="6" points="45,43 46,43" stroke="black" stroke-width="1" /><polygon fill="none" id="7" points="35,38 36,39 36,41 37,42 37,44 38,45 38,47 37,48 38,48 39,49 39,50 40,51 40,52 41,53 41,55 42,56 41,55 41,53 40,52 40,51 39,50 39,46 40,45 41,45 38,45 37,44 37,41 36,40 36,38" stroke="black" stroke-width="1" /><polygon fill="none" id="8" points="53,34 53,38 52,39 52,41 51,42 49,42 50,42 51,43 51,46 50,47 50,49 49,50 49,51 48,52 48,53 47,54 47,55 47,54 48,53 48,52 49,51 49,50 50,49 50,47 51,46 51,44 53,42 56,42 57,43 59,43 60,44 61,44 62,45 63,45 65,47 65,48 66,49 66,50 67,51 67,60 66,61 66,62 62,66 61,66 60,67 59,67 58,68 57,68 56,69 51,69 52,70 54,70 55,69 57,69 58,68 59,68 60,67 61,67 63,65 64,65 66,63 66,62 67,61 67,60 68,59 68,52 67,51 67,50 66,49 66,48 63,45 62,45 61,44 60,44 59,43 57,43 56,42 54,42 53,41 53,36 54,35 54,34" stroke="black" stroke-width="1" /></svg>