<?xml version="1.0" encoding="utf-8" ?>
<svg baseProfile="full" height="100" version="1.1" width="100" xmlns="http://www.w3.org/2000/svg" xmlns:ev="http://www.w3.org/2001/xml-events" xmlns:xlink="http://www.w3.org/1999/xlink"><defs /><polygon fill="none" id="1" points="37,68 40,68" stroke="black" stroke-width="1" /><polygon fill="none" id="2" points="47,58 48,59 48,61 43,66 47,62 50,62 51,63 49,61 49,59 50,58" stroke="black" stroke-width="1" /><polygon fill="none" id="3" points="39,49 37,51 37,52 35,54 35,55 34,56 34,58 33,59 33,62 34,63 34,65 35,66 34,65 34,57 35,56 35,54 37,52 37,51" stroke="black" stroke-width="1" /><polygon fill="none" id="4" points="47,44 48,44" stroke="black" stroke-width="1" /><polygon fill="none" id="5" points="50,43 51,43" stroke="black" stroke-width="1" /><polygon fill="none" id="6" points="40,37 39,38 39,40 40,41 40,42 41,43 41,48 42,48 43,49 43,50 44,51 44,52 45,53 45,55 46,56 46,55 45,54 45,53 44,52 44,51 43,50 43,46 44,45 45,45 42,45 41,44 41,42 40,41" stroke="black" stroke-width="1" /><polygon fill="none" id="7" points="58,34 58,38 57,39 57,41 56,42 54,42 55,42 56,43 56,46 55,47 55,49 54,50 54,51 53,52 53,53 52,54 52,55 51,56 52,55 52,54 53,53 53,52 54,51 54,50 55,49 55,48 56,47 56,44 58,42 62,42 63,43 65,43 66,44 67,44 68,45 69,45 73,49 73,51 74,52 74,59 73,60 73,61 68,66 67,66 66,67 65,67 64,68 62,68 61,69 56,69 57,70 59,70 60,69 63,69 64,68 65,68 66,67 67,67 68,66 69,66 71,64 72,64 72,63 74,61 74,60 75,59 75,52 74,51 74,50 73,49 73,48 71,46 70,46 68,44 66,44 65,43 63,43 62,42 59,42 58,41 58,38 59,37 59,35 60,34" stroke="black" stroke-width="1" /></svg>