<?xml version="1.0" encoding="utf-8" ?>
<svg baseProfile="full" height="100" version="1.1" width="100" xmlns="http://www.w3.org/2000/svg" xmlns:ev="http://www.w3.org/2001/xml-events" xmlns:xlink="http://www.w3.org/1999/xlink"><defs /><polygon fill="none" id="1" points="47,43 46,44 40,44 39,45 31,45 31,47 32,48 32,49 38,49 39,48 43,48 44,47 45,47 46,48 46,49 41,54 41,55 34,62 34,63 28,69 28,71 30,73 31,73 32,72 32,71 42,61 43,61 44,60 45,60 47,62 47,69 48,70 48,71 49,71 50,72 62,72 62,68 58,68 57,69 52,69 50,67 50,59 48,57 45,57 44,56 50,50 50,49 52,47 52,44 51,43" stroke="black" stroke-width="1" /><polygon fill="none" id="2" points="38,32 37,33 37,35 38,35 39,36 41,36 42,37 44,37 45,38 46,38 48,40 50,40 50,39 51,38 51,36 50,36 49,35 48,35 47,34 46,34 45,33 43,33 42,32" stroke="black" stroke-width="1" /></svg>