<?xml version="1.0" encoding="utf-8" ?>
<svg baseProfile="full" height="100" version="1.1" width="100" xmlns="http://www.w3.org/2000/svg" xmlns:ev="http://www.w3.org/2001/xml-events" xmlns:xlink="http://www.w3.org/1999/xlink"><defs /><polygon fill="none" id="1" points="41,68 43,68" stroke="black" stroke-width="1" /><polygon fill="none" id="2" points="45,67" stroke="black" stroke-width="1" /><polygon fill="none" id="3" points="54,43 56,43" stroke="black" stroke-width="1" /><polygon fill="none" id="4" points="63,34 63,39 62,40 62,41 61,42 59,42 60,42 61,43 61,46 60,47 60,48 59,49 59,50 58,51 58,52 57,53 57,54 56,55 56,56 54,58 52,58 51,57 51,56 50,55 50,54 48,52 48,51 47,50 47,46 48,45 50,45 51,44 52,44 51,44 50,45 46,45 45,44 45,42 44,41 44,37 43,38 42,38 43,39 43,41 44,42 44,44 45,45 45,47 38,54 38,55 37,56 37,58 36,59 36,62 37,63 37,65 39,67 38,66 38,65 37,64 37,59 38,58 38,56 39,55 39,54 40,53 40,52 44,48 46,48 47,49 47,50 48,51 48,53 49,54 49,55 52,58 52,61 47,66 51,62 54,62 55,63 56,63 54,61 54,58 57,55 57,54 58,53 58,52 59,51 59,50 60,49 60,48 61,47 61,46 62,45 62,43 63,42 67,42 68,43 71,43 72,44 74,44 76,46 77,46 78,47 78,48 79,49 79,50 80,51 80,60 79,61 79,62 76,65 75,65 74,66 73,66 72,67 71,67 70,68 68,68 67,69 61,69 62,70 65,70 66,69 69,69 70,68 71,68 72,67 74,67 76,65 77,65 81,61 81,60 82,59 82,52 81,51 81,50 76,45 75,45 74,44 73,44 72,43 69,43 68,42 65,42 64,41 64,36 65,35 65,34" stroke="black" stroke-width="1" /></svg>