<?xml version="1.0" encoding="utf-8" ?>
<svg baseProfile="full" height="100" version="1.1" width="100" xmlns="http://www.w3.org/2000/svg" xmlns:ev="http://www.w3.org/2001/xml-events" xmlns:xlink="http://www.w3.org/1999/xlink"><defs /><polygon fill="none" id="1" points="35,31 35,40 34,41 29,41 28,40 26,40 26,43 33,43 34,44 34,51 33,52 29,52 28,51 26,51 26,54 31,54 33,56 33,60 32,61 32,62 33,63 33,67 34,68 34,69 36,71 38,71 39,72 46,72 47,71 48,71 51,68 51,67 52,66 52,57 51,56 51,54 48,54 48,55 49,56 49,57 50,58 50,65 49,66 49,67 47,69 46,69 45,70 40,70 39,69 38,69 35,66 35,56 36,55 41,55 42,54 44,54 44,53 45,52 44,51 43,52 36,52 35,51 35,50 36,49 36,45 37,44 40,44 41,43 46,43 46,40 44,40 43,41 37,41 36,40 37,39 37,34 38,33 38,32 37,32 36,31" stroke="black" stroke-width="1" /></svg>