<?xml version="1.0" encoding="utf-8" ?>
<svg baseProfile="full" height="100" version="1.1" width="100" xmlns="http://www.w3.org/2000/svg" xmlns:ev="http://www.w3.org/2001/xml-events" xmlns:xlink="http://www.w3.org/1999/xlink"><defs /><polygon fill="none" id="1" points="49,31 48,32 48,40 47,41 39,41 38,40 36,40 35,41 35,43 45,43 47,45 47,46 46,47 46,51 45,52 39,52 38,51 36,51 36,54 44,54 45,55 45,66 46,67 46,68 48,70 49,70 50,71 52,71 53,72 63,72 64,71 66,71 67,70 68,70 72,66 72,63 73,62 73,61 72,60 72,57 71,56 71,55 70,54 66,54 67,55 67,56 68,57 68,58 69,59 69,64 68,65 68,66 65,69 63,69 62,70 55,70 54,69 52,69 48,65 48,56 49,55 56,55 57,54 62,54 62,52 61,51 60,51 59,52 50,52 49,51 49,48 50,47 50,45 51,44 55,44 56,43 63,43 63,40 61,40 60,41 51,41 50,40 51,39 51,36 52,35 52,32 50,32" stroke="black" stroke-width="1" /></svg>