<?xml version="1.0" encoding="utf-8" ?>
<svg baseProfile="full" height="100" version="1.1" width="100" xmlns="http://www.w3.org/2000/svg" xmlns:ev="http://www.w3.org/2001/xml-events" xmlns:xlink="http://www.w3.org/1999/xlink"><defs /><polygon fill="none" id="1" points="40,31 40,34 39,35 39,40 38,41 32,41 31,40 29,40 29,43 37,43 38,44 38,51 37,52 32,52 31,51 30,51 30,54 36,54 37,55 37,66 38,67 38,68 41,71 42,71 43,72 51,72 52,71 54,71 58,67 58,66 59,65 59,58 58,57 58,55 57,54 54,54 55,55 55,56 56,57 56,61 57,62 56,63 56,66 53,69 51,69 50,70 45,70 44,69 43,69 42,68 41,68 40,67 40,66 39,65 39,56 40,55 46,55 47,54 50,54 50,51 49,51 48,52 41,52 40,51 40,45 41,44 45,44 46,43 51,43 52,42 52,41 51,40 50,40 49,41 42,41 41,40 41,38 42,37 42,33 43,32 41,32" stroke="black" stroke-width="1" /></svg>