<?xml version="1.0" encoding="utf-8" ?>
<svg baseProfile="full" height="100" version="1.1" width="100" xmlns="http://www.w3.org/2000/svg" xmlns:ev="http://www.w3.org/2001/xml-events" xmlns:xlink="http://www.w3.org/1999/xlink"><defs /><polygon fill="none" id="1" points="53,43 52,44 44,44 43,45 35,45 35,49 42,49 43,48 48,48 49,47 51,47 52,48 31,69 31,71 33,73 34,73 46,61 47,61 48,60 50,60 52,62 52,69 54,71 55,71 56,72 69,72 69,68 65,68 64,69 58,69 56,67 56,60 55,59 55,58 54,57 50,57 49,56 58,47 58,45 56,43" stroke="black" stroke-width="1" /><polygon fill="none" id="2" points="42,32 41,33 41,35 42,35 43,36 46,36 47,37 49,37 50,38 51,38 52,39 53,39 54,40 55,40 56,39 56,38 57,37 57,36 56,36 55,35 53,35 52,34 51,34 50,33 47,33 46,32" stroke="black" stroke-width="1" /></svg>