<?xml version="1.0" encoding="utf-8" ?>
<svg baseProfile="full" height="100" version="1.1" width="100" xmlns="http://www.w3.org/2000/svg" xmlns:ev="http://www.w3.org/2001/xml-events" xmlns:xlink="http://www.w3.org/1999/xlink"><defs /><polygon fill="none" id="1" points="53,31 53,36 52,37 52,40 51,41 43,41 42,40 39,40 39,41 38,42 39,43 50,43 51,44 51,47 50,48 50,51 49,52 43,52 42,51 39,51 39,54 48,54 49,55 49,66 53,70 54,70 55,71 57,71 58,72 69,72 70,71 72,71 73,70 74,70 75,69 76,69 77,68 77,67 78,66 78,65 79,64 79,59 78,58 78,57 77,56 77,54 72,54 73,55 73,56 74,57 74,58 75,59 75,65 71,69 69,69 68,70 59,70 58,69 57,69 56,68 55,68 53,66 53,64 52,63 52,56 53,55 62,55 63,54 67,54 67,51 66,51 65,52 54,52 53,51 53,50 54,49 54,45 55,44 60,44 61,43 69,43 69,40 66,40 65,41 56,41 55,40 55,38 56,37 56,35 57,34 57,32 55,32 54,31" stroke="black" stroke-width="1" /></svg>