<?xml version="1.0" encoding="utf-8" ?>
<svg baseProfile="full" height="100" version="1.1" width="100" xmlns="http://www.w3.org/2000/svg" xmlns:ev="http://www.w3.org/2001/xml-events" xmlns:xlink="http://www.w3.org/1999/xlink"><defs /><polygon fill="none" id="1" points="35,31 35,40 34,41 30,41 29,40 26,40 26,44 33,44 34,45 34,51 33,52 30,52 29,51 26,51 26,55 31,55 33,57 33,60 32,61 32,63 33,64 33,68 34,69 34,70 36,72 38,72 39,73 47,73 48,72 49,72 52,69 52,68 53,67 53,57 52,56 52,54 48,54 48,56 49,57 49,58 50,59 50,65 49,66 49,67 47,69 46,69 45,70 41,70 40,69 39,69 36,66 36,57 37,56 42,56 43,55 45,55 45,54 46,53 46,52 45,51 44,51 43,52 37,52 36,51 37,50 37,46 38,45 41,45 42,44 47,44 47,40 44,40 43,41 39,41 38,40 38,35 39,34 39,32 38,32 37,31" stroke="black" stroke-width="1" /></svg>