<?xml version="1.0" encoding="utf-8" ?>
<svg baseProfile="full" height="100" version="1.1" width="100" xmlns="http://www.w3.org/2000/svg" xmlns:ev="http://www.w3.org/2001/xml-events" xmlns:xlink="http://www.w3.org/1999/xlink"><defs /><polygon fill="none" id="1" points="40,31 40,34 39,35 39,40 38,41 33,41 32,40 29,40 29,44 37,44 38,45 38,51 37,52 33,52 32,51 30,51 30,55 36,55 37,56 37,67 38,68 38,69 41,72 42,72 43,73 52,73 53,72 55,72 59,68 59,67 60,66 60,58 59,57 59,55 58,54 54,54 54,55 55,56 55,57 56,58 56,66 53,69 51,69 50,70 46,70 45,69 44,69 43,68 42,68 41,67 41,66 40,65 40,57 41,56 47,56 48,55 51,55 51,51 49,51 48,52 42,52 41,51 41,46 42,45 46,45 47,44 52,44 53,43 53,41 52,40 50,40 49,41 43,41 42,40 42,39 43,38 43,34 44,33 44,32 42,32 41,31" stroke="black" stroke-width="1" /></svg>