<?xml version="1.0" encoding="utf-8" ?>
<svg baseProfile="full" height="100" version="1.1" width="100" xmlns="http://www.w3.org/2000/svg" xmlns:ev="http://www.w3.org/2001/xml-events" xmlns:xlink="http://www.w3.org/1999/xlink"><defs /><polygon fill="none" id="1" points="44,31 44,37 43,38 43,40 42,41 37,41 36,40 33,40 32,41 32,44 41,44 42,45 42,51 41,52 37,52 36,51 33,51 33,55 40,55 41,56 41,67 42,68 42,69 44,71 45,71 46,72 47,72 48,73 58,73 59,72 61,72 62,71 63,71 65,69 65,68 66,67 66,65 67,64 67,60 66,59 66,57 65,56 65,54 60,54 60,55 61,56 61,57 62,58 62,60 63,61 63,63 62,64 62,66 59,69 57,69 56,70 51,70 50,69 48,69 45,66 45,64 44,63 44,59 45,58 45,57 46,56 52,56 53,55 57,55 57,51 55,51 54,52 46,52 45,51 46,50 46,46 47,45 51,45 52,44 58,44 58,40 55,40 54,41 48,41 47,40 47,38 48,37 48,32 47,32 46,31" stroke="black" stroke-width="1" /></svg>