<?xml version="1.0" encoding="utf-8" ?>
<svg baseProfile="full" height="100" version="1.1" width="100" xmlns="http://www.w3.org/2000/svg" xmlns:ev="http://www.w3.org/2001/xml-events" xmlns:xlink="http://www.w3.org/1999/xlink"><defs /><polygon fill="none" id="1" points="49,31 48,32 48,40 47,41 40,41 39,40 36,40 35,41 35,44 45,44 47,46 46,47 46,51 45,52 40,52 39,51 36,51 36,55 44,55 45,56 45,67 46,68 46,69 48,71 49,71 50,72 52,72 53,73 64,73 65,72 67,72 68,71 69,71 73,67 73,64 74,63 74,61 73,60 73,57 72,56 72,55 71,54 66,54 66,55 67,56 67,57 68,58 68,59 69,60 69,64 68,65 68,66 65,69 63,69 62,70 56,70 55,69 53,69 49,65 49,57 50,56 57,56 58,55 63,55 63,52 62,51 60,51 59,52 51,52 50,51 50,49 51,48 51,46 52,45 56,45 57,44 64,44 64,40 61,40 60,41 53,41 52,40 52,37 53,36 53,32 51,32 50,31" stroke="black" stroke-width="1" /></svg>