<?xml version="1.0" encoding="utf-8" ?>
<svg baseProfile="full" height="100" version="1.1" width="100" xmlns="http://www.w3.org/2000/svg" xmlns:ev="http://www.w3.org/2001/xml-events" xmlns:xlink="http://www.w3.org/1999/xlink"><defs /><polygon fill="none" id="1" points="53,31 53,36 52,37 52,40 51,41 44,41 43,40 39,40 39,41 38,42 38,43 39,44 50,44 51,45 51,47 50,48 50,51 49,52 44,52 43,51 39,51 39,55 48,55 49,56 49,67 53,71 54,71 55,72 57,72 58,73 70,73 71,72 73,72 74,71 75,71 76,70 77,70 78,69 78,68 79,67 79,66 80,65 80,59 79,58 79,57 78,56 78,54 72,54 72,55 73,56 73,57 74,58 74,59 75,60 75,65 71,69 69,69 68,70 60,70 59,69 58,69 57,68 56,68 54,66 54,64 53,63 53,57 54,56 63,56 64,55 68,55 68,51 66,51 65,52 55,52 54,51 55,50 55,46 56,45 61,45 62,44 70,44 70,40 66,40 65,41 57,41 56,40 56,39 57,38 57,36 58,35 58,32 56,32 55,31" stroke="black" stroke-width="1" /></svg>