<?xml version="1.0" encoding="utf-8" ?>
<svg baseProfile="full" height="100" version="1.1" width="100" xmlns="http://www.w3.org/2000/svg" xmlns:ev="http://www.w3.org/2001/xml-events" xmlns:xlink="http://www.w3.org/1999/xlink"><defs /><polygon fill="none" id="1" points="36,32 36,41 35,42 29,42 28,41 27,41 27,43 34,43 35,44 35,52 34,53 29,53 28,52 27,52 27,54 32,54 34,56 34,61 33,62 34,63 34,67 35,68 35,69 37,71 39,71 40,72 46,72 47,71 48,71 51,68 51,67 52,66 52,58 51,57 51,55 49,55 50,56 50,57 51,58 51,66 50,67 50,68 48,70 47,70 46,71 40,71 39,70 38,70 35,67 35,56 36,55 41,55 42,54 44,54 44,53 36,53 35,52 35,50 36,49 36,45 37,44 40,44 41,43 46,43 46,41 45,41 44,42 37,42 36,41 36,40 37,39 37,34 38,33 37,33" stroke="black" stroke-width="1" /></svg>