<?xml version="1.0" encoding="utf-8" ?>
<svg baseProfile="full" height="100" version="1.1" width="100" xmlns="http://www.w3.org/2000/svg" xmlns:ev="http://www.w3.org/2001/xml-events" xmlns:xlink="http://www.w3.org/1999/xlink"><defs /><polygon fill="none" id="1" points="41,33 41,35 40,36 40,41 39,42 32,42 31,41 30,41 30,43 38,43 39,44 39,52 38,53 32,53 31,52 31,54 37,54 38,55 38,66 39,67 39,68 42,71 43,71 44,72 51,72 52,71 54,71 58,67 58,66 59,65 59,59 58,58 58,56 57,55 56,55 56,56 57,57 57,61 58,62 58,63 57,64 57,67 54,70 52,70 51,71 45,71 44,70 43,70 42,69 41,69 40,68 40,67 39,66 39,56 40,55 46,55 47,54 50,54 50,52 49,53 41,53 40,52 40,45 41,44 45,44 46,43 51,43 52,42 51,41 50,42 42,42 41,41 41,38 42,37 42,33" stroke="black" stroke-width="1" /></svg>