<?xml version="1.0" encoding="utf-8" ?>
<svg baseProfile="full" height="100" version="1.1" width="100" xmlns="http://www.w3.org/2000/svg" xmlns:ev="http://www.w3.org/2001/xml-events" xmlns:xlink="http://www.w3.org/1999/xlink"><defs /><polygon fill="none" id="1" points="45,32 45,38 44,39 44,41 43,42 36,42 35,41 34,41 33,42 33,43 42,43 44,45 44,46 43,47 43,52 42,53 36,53 35,52 34,52 34,54 41,54 42,55 42,66 43,67 43,68 45,70 46,70 47,71 48,71 49,72 57,72 58,71 60,71 61,70 62,70 64,68 64,67 65,66 65,64 66,63 66,61 65,60 65,58 64,57 64,55 62,55 62,56 63,57 63,59 64,60 64,64 63,65 63,67 60,70 58,70 57,71 50,71 49,70 47,70 44,67 44,65 43,64 43,58 44,57 44,56 45,55 51,55 52,54 56,54 56,52 55,53 45,53 44,52 44,50 45,49 45,45 46,44 50,44 51,43 57,43 57,41 56,41 55,42 47,42 46,41 46,37 47,36 47,33 46,33" stroke="black" stroke-width="1" /></svg>