<?xml version="1.0" encoding="utf-8" ?>
<svg baseProfile="full" height="100" version="1.1" width="100" xmlns="http://www.w3.org/2000/svg" xmlns:ev="http://www.w3.org/2001/xml-events" xmlns:xlink="http://www.w3.org/1999/xlink"><defs /><polygon fill="none" id="1" points="49,33 49,41 48,42 39,42 38,41 37,41 36,42 36,43 46,43 48,45 48,47 47,48 47,52 46,53 39,53 38,52 37,52 37,54 45,54 46,55 46,66 47,67 47,68 49,70 50,70 51,71 53,71 54,72 63,72 64,71 66,71 67,70 68,70 72,66 72,63 73,62 72,61 72,58 71,57 71,56 70,55 68,55 68,56 69,57 69,58 70,59 70,65 69,66 69,67 66,70 64,70 63,71 55,71 54,70 52,70 48,66 48,56 49,55 56,55 57,54 62,54 62,53 61,52 60,53 50,53 49,52 49,48 50,47 50,45 51,44 55,44 56,43 63,43 63,41 62,41 61,42 51,42 50,41 50,40 51,39 51,36 52,35 52,33" stroke="black" stroke-width="1" /></svg>