<?xml version="1.0" encoding="utf-8" ?>
<svg baseProfile="full" height="100" version="1.1" width="100" xmlns="http://www.w3.org/2000/svg" xmlns:ev="http://www.w3.org/2001/xml-events" xmlns:xlink="http://www.w3.org/1999/xlink"><defs /><polygon fill="none" id="1" points="58,43 57,44 49,44 48,45 38,45 38,47 39,48 39,49 46,49 47,48 53,48 54,47 56,47 57,48 49,56 48,56 36,68 35,68 34,69 34,71 36,73 38,73 49,62 50,62 51,61 52,61 53,60 55,60 57,62 57,69 59,71 60,71 61,72 76,72 76,68 71,68 70,69 63,69 61,67 61,59 59,57 55,57 54,56 60,50 61,50 64,47 64,45 62,43" stroke="black" stroke-width="1" /><polygon fill="none" id="2" points="46,32 45,33 45,35 47,35 48,36 50,36 51,37 53,37 54,38 56,38 57,39 58,39 59,40 61,40 62,39 62,38 63,37 63,36 61,36 60,35 59,35 58,34 55,34 54,33 52,33 51,32" stroke="black" stroke-width="1" /></svg>