<?xml version="1.0" encoding="utf-8" ?>
<svg baseProfile="full" height="100" version="1.1" width="100" xmlns="http://www.w3.org/2000/svg" xmlns:ev="http://www.w3.org/2001/xml-events" xmlns:xlink="http://www.w3.org/1999/xlink"><defs /><polygon fill="none" id="1" points="54,32 54,37 53,38 53,41 52,42 43,42 42,41 40,41 40,43 51,43 52,44 52,48 51,49 51,52 50,53 43,53 42,52 40,52 40,54 49,54 50,55 50,66 54,70 55,70 56,71 58,71 59,72 69,72 70,71 72,71 73,70 74,70 75,69 76,69 77,68 77,67 78,66 78,65 79,64 79,60 78,59 78,58 77,57 77,55 74,55 74,56 75,57 75,58 76,59 76,66 72,70 70,70 69,71 59,71 58,70 57,70 56,69 55,69 53,67 53,65 52,64 52,56 53,55 62,55 63,54 67,54 67,52 66,53 54,53 53,52 53,50 54,49 54,45 55,44 60,44 61,43 69,43 69,41 67,41 66,42 56,42 55,41 55,38 56,37 56,35 57,34 57,33 55,33" stroke="black" stroke-width="1" /></svg>