<?xml version="1.0" encoding="utf-8" ?>
<svg baseProfile="full" height="100" version="1.1" width="100" xmlns="http://www.w3.org/2000/svg" xmlns:ev="http://www.w3.org/2001/xml-events" xmlns:xlink="http://www.w3.org/1999/xlink"><defs /><polygon fill="none" id="1" points="34,30 34,39 33,40 30,40 29,39 25,39 25,44 32,44 33,45 33,50 32,51 30,51 29,50 25,50 25,55 30,55 32,57 32,59 31,60 31,63 32,64 32,68 33,69 33,70 35,72 37,72 38,73 47,73 48,72 49,72 52,69 52,68 53,67 53,56 52,55 52,53 47,53 46,52 46,51 45,50 43,50 42,51 38,51 37,50 37,46 38,45 41,45 42,44 47,44 47,39 43,39 42,40 39,40 38,39 38,35 39,34 39,31 38,31 37,30" stroke="black" stroke-width="1" /><polygon fill="none" id="2" points="45,54 46,53 47,54 47,56 48,57 48,58 49,59 49,64 48,65 48,66 46,68 45,68 44,69 41,69 40,68 39,68 36,65 36,57 37,56 42,56 43,55 45,55" stroke="black" stroke-width="1" /></svg>