<?xml version="1.0" encoding="utf-8" ?>
<svg baseProfile="full" height="100" version="1.1" width="100" xmlns="http://www.w3.org/2000/svg" xmlns:ev="http://www.w3.org/2001/xml-events" xmlns:xlink="http://www.w3.org/1999/xlink"><defs /><polygon fill="none" id="1" points="39,30 39,33 38,34 38,39 37,40 33,40 32,39 28,39 28,44 36,44 37,45 37,50 36,51 33,51 32,50 29,50 29,55 35,55 36,56 36,67 37,68 37,69 40,72 41,72 42,73 52,73 53,72 55,72 59,68 59,67 60,66 60,57 59,56 59,54 58,53 53,53 53,55 54,56 54,57 55,58 55,65 52,68 50,68 49,69 46,69 45,68 44,68 43,67 42,67 41,66 41,65 40,64 40,57 41,56 47,56 48,55 51,55 51,50 48,50 47,51 42,51 41,50 41,46 42,45 46,45 47,44 52,44 53,43 53,40 52,39 49,39 48,40 43,40 42,39 43,38 43,34 44,33 44,31 42,31 41,30" stroke="black" stroke-width="1" /></svg>