<?xml version="1.0" encoding="utf-8" ?>
<svg baseProfile="full" height="100" version="1.1" width="100" xmlns="http://www.w3.org/2000/svg" xmlns:ev="http://www.w3.org/2001/xml-events" xmlns:xlink="http://www.w3.org/1999/xlink"><defs /><polygon fill="none" id="1" points="43,30 43,36 42,37 42,39 41,40 37,40 36,39 32,39 31,40 31,44 40,44 41,45 41,50 40,51 37,51 36,50 32,50 32,55 39,55 40,56 40,67 41,68 41,69 43,71 44,71 45,72 46,72 47,73 58,73 59,72 61,72 62,71 63,71 65,69 65,68 66,67 66,65 67,64 67,59 66,58 66,56 65,55 65,53 59,53 59,55 60,56 60,57 61,58 61,60 62,61 62,62 61,63 61,65 58,68 56,68 55,69 51,69 50,68 48,68 45,65 45,63 44,62 44,59 45,58 45,57 46,56 52,56 53,55 57,55 57,50 54,50 53,51 47,51 46,50 46,46 47,45 51,45 52,44 58,44 58,39 54,39 53,40 48,40 47,39 47,38 48,37 48,31 47,31 46,30" stroke="black" stroke-width="1" /></svg>