<?xml version="1.0" encoding="utf-8" ?>
<svg baseProfile="full" height="100" version="1.1" width="100" xmlns="http://www.w3.org/2000/svg" xmlns:ev="http://www.w3.org/2001/xml-events" xmlns:xlink="http://www.w3.org/1999/xlink"><defs /><polygon fill="none" id="1" points="48,30 47,31 47,39 46,40 40,40 39,39 35,39 34,40 34,44 44,44 45,45 45,50 44,51 40,51 39,50 35,50 35,55 43,55 44,56 44,67 45,68 45,69 47,71 48,71 49,72 51,72 52,73 64,73 65,72 67,72 68,71 69,71 73,67 73,64 74,63 74,60 73,59 73,56 72,55 72,54 71,53 65,53 65,55 66,56 66,57 67,58 67,59 68,60 68,63 67,64 67,65 64,68 62,68 61,69 56,69 55,68 53,68 49,64 49,57 50,56 57,56 58,55 63,55 63,51 62,50 59,50 58,51 51,51 50,50 50,49 51,48 51,46 52,45 56,45 57,44 64,44 64,39 60,39 59,40 53,40 52,39 52,37 53,36 53,31 51,31 50,30" stroke="black" stroke-width="1" /></svg>