<?xml version="1.0" encoding="utf-8" ?>
<svg baseProfile="full" height="100" version="1.1" width="100" xmlns="http://www.w3.org/2000/svg" xmlns:ev="http://www.w3.org/2001/xml-events" xmlns:xlink="http://www.w3.org/1999/xlink"><defs /><polygon fill="none" id="1" points="52,30 52,35 51,36 51,39 50,40 44,40 43,39 38,39 38,40 37,41 37,43 38,44 49,44 50,45 50,46 49,47 49,50 48,51 44,51 43,50 38,50 38,55 47,55 48,56 48,67 52,71 53,71 54,72 56,72 57,73 70,73 71,72 73,72 74,71 75,71 76,70 77,70 78,69 78,68 79,67 79,66 80,65 80,58 79,57 79,56 78,55 78,53 71,53 71,55 72,56 72,57 73,58 73,59 74,60 74,64 70,68 68,68 67,69 60,69 59,68 58,68 57,67 56,67 54,65 54,63 53,62 53,57 54,56 63,56 64,55 68,55 68,50 65,50 64,51 56,51 55,50 55,46 56,45 61,45 62,44 70,44 70,39 65,39 64,40 57,40 56,39 57,38 57,36 58,35 58,31 56,31 55,30" stroke="black" stroke-width="1" /></svg>