<?xml version="1.0" encoding="utf-8" ?>
<svg baseProfile="full" height="100" version="1.1" width="100" xmlns="http://www.w3.org/2000/svg" xmlns:ev="http://www.w3.org/2001/xml-events" xmlns:xlink="http://www.w3.org/1999/xlink"><defs /><polygon fill="none" id="1" points="40,71 45,71" stroke="black" stroke-width="1" /><polygon fill="none" id="2" points="47,70" stroke="black" stroke-width="1" /><polygon fill="none" id="3" points="35,68 37,70 38,70 37,70" stroke="black" stroke-width="1" /><polygon fill="none" id="4" points="50,67" stroke="black" stroke-width="1" /><polygon fill="none" id="5" points="51,58 51,65" stroke="black" stroke-width="1" /><polygon fill="none" id="6" points="50,55 50,56" stroke="black" stroke-width="1" /><polygon fill="none" id="7" points="27,52 27,53 32,53 34,55 34,66 34,55 35,54 40,54 41,53 43,53 28,53" stroke="black" stroke-width="1" /><polygon fill="none" id="8" points="27,41 27,42 34,42 35,43 35,48 35,44 36,43 39,43 40,42 45,42 45,41 44,42 28,42" stroke="black" stroke-width="1" /><polygon fill="none" id="9" points="36,33 36,38" stroke="black" stroke-width="1" /></svg>