<?xml version="1.0" encoding="utf-8" ?>
<svg baseProfile="full" height="100" version="1.1" width="100" xmlns="http://www.w3.org/2000/svg" xmlns:ev="http://www.w3.org/2001/xml-events" xmlns:xlink="http://www.w3.org/1999/xlink"><defs /><polygon fill="none" id="1" points="52,70 53,70" stroke="black" stroke-width="1" /><polygon fill="none" id="2" points="41,69 42,70 43,70 44,71 50,71 44,71 43,70 42,70" stroke="black" stroke-width="1" /><polygon fill="none" id="3" points="39,67" stroke="black" stroke-width="1" /><polygon fill="none" id="4" points="56,55 57,56 57,60 58,61 58,63 57,64 57,66 57,65 58,64 58,59 57,58 57,56" stroke="black" stroke-width="1" /><polygon fill="none" id="5" points="41,33 41,35 40,36 40,41 39,42 31,42 30,41 30,42 38,42 39,43 39,52 38,53 31,53 37,53 38,54 38,65 38,55 39,54 45,54 46,53 49,53 40,53 39,52 39,44 40,43 44,43 45,42 50,42 41,42 40,41 40,37 41,36" stroke="black" stroke-width="1" /></svg>