<?xml version="1.0" encoding="utf-8" ?>
<svg baseProfile="full" height="100" version="1.1" width="100" xmlns="http://www.w3.org/2000/svg" xmlns:ev="http://www.w3.org/2001/xml-events" xmlns:xlink="http://www.w3.org/1999/xlink"><defs /><polygon fill="none" id="1" points="58,70 59,70" stroke="black" stroke-width="1" /><polygon fill="none" id="2" points="47,70 48,70 49,71 56,71 49,71 48,70" stroke="black" stroke-width="1" /><polygon fill="none" id="3" points="62,55 63,56 63,58 64,59 64,64 63,65 63,67 61,69 63,67 63,66 64,65 64,63 65,62 65,61 64,60 64,58 63,57 63,55" stroke="black" stroke-width="1" /><polygon fill="none" id="4" points="45,33 45,38 44,39 44,41 43,42 35,42 34,41 33,42 42,42 44,44 44,46 43,47 43,52 42,53 35,53 34,52 34,53 41,53 42,54 42,65 43,66 43,67 45,69 43,67 43,65 42,64 42,57 43,56 43,55 44,54 50,54 51,53 55,53 44,53 43,52 43,49 44,48 44,44 45,43 49,43 50,42 56,42 56,41 55,42 46,42 45,41 45,36 46,35 46,33" stroke="black" stroke-width="1" /></svg>