<?xml version="1.0" encoding="utf-8" ?>
<svg baseProfile="full" height="100" version="1.1" width="100" xmlns="http://www.w3.org/2000/svg" xmlns:ev="http://www.w3.org/2001/xml-events" xmlns:xlink="http://www.w3.org/1999/xlink"><defs /><polygon fill="none" id="1" points="64,70 65,70" stroke="black" stroke-width="1" /><polygon fill="none" id="2" points="68,55 69,56 69,57 70,58 70,65 69,66 69,67 67,69 71,65 71,58 70,57 70,56 69,55" stroke="black" stroke-width="1" /><polygon fill="none" id="3" points="49,33 49,41 48,42 38,42 37,41 36,42 46,42 48,44 48,47 47,48 47,52 46,53 38,53 37,52 37,53 45,53 46,54 46,65 47,66 47,67 49,69 50,69 51,70 53,70 54,71 62,71 54,71 53,70 51,70 47,66 47,55 48,54 55,54 56,53 61,53 49,53 48,52 48,47 49,46 49,44 50,43 54,43 55,42 62,42 62,41 61,42 50,42 49,41 49,39 50,38 50,35 51,34 51,33" stroke="black" stroke-width="1" /></svg>