<?xml version="1.0" encoding="utf-8" ?>
<svg baseProfile="full" height="100" version="1.1" width="100" xmlns="http://www.w3.org/2000/svg" xmlns:ev="http://www.w3.org/2001/xml-events" xmlns:xlink="http://www.w3.org/1999/xlink"><defs /><polygon fill="none" id="1" points="63,43 62,44 53,44 52,45 42,45 42,49 50,49 51,48 58,48 59,47 61,47 62,48 58,52 57,52 50,59 49,59 42,66 41,66 38,69 37,69 37,71 39,73 41,73 46,68 47,68 52,63 53,63 54,62 55,62 56,61 57,61 58,60 60,60 62,62 62,68 63,69 63,70 64,70 65,71 66,71 67,72 83,72 83,69 82,68 78,68 77,69 69,69 67,67 67,60 66,59 66,58 65,58 64,57 60,57 59,56 62,53 63,53 68,48 69,48 70,47 70,45 68,43" stroke="black" stroke-width="1" /><polygon fill="none" id="2" points="50,32 49,33 49,35 51,35 52,36 55,36 56,37 58,37 59,38 61,38 62,39 63,39 64,40 66,40 68,38 68,36 67,36 66,35 64,35 63,34 60,34 59,33 57,33 56,32" stroke="black" stroke-width="1" /></svg>