<?xml version="1.0" encoding="utf-8" ?>
<svg baseProfile="full" height="100" version="1.1" width="100" xmlns="http://www.w3.org/2000/svg" xmlns:ev="http://www.w3.org/2001/xml-events" xmlns:xlink="http://www.w3.org/1999/xlink"><defs /><polygon fill="none" id="1" points="59,71 68,71" stroke="black" stroke-width="1" /><polygon fill="none" id="2" points="70,70 71,70" stroke="black" stroke-width="1" /><polygon fill="none" id="3" points="74,55 75,56 75,57 76,58 76,66 73,69 74,68 75,68 76,67 76,66 77,65 77,64 78,63 78,60 77,59 77,58 76,57 76,55" stroke="black" stroke-width="1" /><polygon fill="none" id="4" points="54,33 54,37 53,38 53,41 52,42 42,42 41,41 40,41 40,42 51,42 52,43 52,48 51,49 51,52 50,53 42,53 41,52 40,52 40,53 49,53 50,54 50,65 54,69 55,69 56,70 57,70 56,70 55,69 54,69 52,67 52,65 51,64 51,55 52,54 61,54 62,53 66,53 53,53 52,52 52,49 53,48 53,44 54,43 59,43 60,42 68,42 68,41 67,41 66,42 55,42 54,41 54,37 55,36 55,34 56,33" stroke="black" stroke-width="1" /></svg>