<?xml version="1.0" encoding="utf-8" ?>
<svg baseProfile="full" height="100" version="1.1" width="100" xmlns="http://www.w3.org/2000/svg" xmlns:ev="http://www.w3.org/2001/xml-events" xmlns:xlink="http://www.w3.org/1999/xlink"><defs /><polygon fill="none" id="1" points="29,34 28,35 28,36 29,37 29,39 30,40 30,42 31,43 31,45 30,46 28,46 27,47 26,47 25,48 23,48 23,49 24,50 24,51 25,51 26,50 27,50 28,49 29,49 30,48 31,48 32,47 33,48 33,51 34,52 34,55 35,56 35,58 36,59 36,62 37,63 37,65 38,66 38,71 41,71 41,68 40,67 40,65 39,64 39,61 38,60 38,58 37,57 37,54 36,53 36,51 35,50 35,48 34,47 36,45 38,45 39,44 41,44 42,43 44,43 45,42 50,42 53,45 53,50 50,53 49,53 48,54 45,54 44,55 42,55 42,57 47,57 48,56 50,56 51,55 52,55 54,53 54,52 55,51 55,44 54,43 54,42 53,42 51,40 44,40 43,41 41,41 40,42 38,42 37,43 36,43 35,44 34,44 33,43 33,42 32,41 32,39 31,38 31,36 30,35 30,34" stroke="black" stroke-width="1" /><polygon fill="none" id="2" points="38,30 36,32 37,33 38,33 42,37 43,37 44,36 44,35 40,31 39,31" stroke="black" stroke-width="1" /></svg>