<?xml version="1.0" encoding="utf-8" ?>
<svg baseProfile="full" height="100" version="1.1" width="100" xmlns="http://www.w3.org/2000/svg" xmlns:ev="http://www.w3.org/2001/xml-events" xmlns:xlink="http://www.w3.org/1999/xlink"><defs /><polygon fill="none" id="1" points="32,34 31,35 32,36 32,38 33,39 33,40 34,41 34,42 35,43 35,45 34,46 32,46 31,47 29,47 28,48 26,48 26,49 27,50 27,51 28,51 29,50 30,50 31,49 33,49 35,47 36,47 37,48 37,50 38,51 38,53 39,54 39,56 40,57 40,60 41,61 41,63 42,64 42,67 43,68 43,71 46,71 46,68 45,67 45,65 44,64 44,61 43,60 43,58 42,57 42,55 41,54 41,52 40,51 40,49 39,48 39,47 41,45 43,45 44,44 46,44 47,43 50,43 51,42 56,42 60,46 60,48 59,49 59,50 56,53 55,53 54,54 50,54 49,55 47,55 47,56 48,57 53,57 54,56 56,56 57,55 58,55 62,51 62,44 59,41 58,41 57,40 50,40 49,41 46,41 45,42 43,42 42,43 40,43 39,44 38,44 37,43 37,41 36,40 36,38 35,37 35,36 34,35 34,34" stroke="black" stroke-width="1" /><polygon fill="none" id="2" points="42,30 41,31 41,32 42,33 43,33 47,37 49,37 49,36 50,35 49,34 48,34 45,31 44,31 43,30" stroke="black" stroke-width="1" /></svg>