<?xml version="1.0" encoding="utf-8" ?>
<svg baseProfile="full" height="100" version="1.1" width="100" xmlns="http://www.w3.org/2000/svg" xmlns:ev="http://www.w3.org/2001/xml-events" xmlns:xlink="http://www.w3.org/1999/xlink"><defs /><polygon fill="none" id="1" points="40,34 39,35 38,35 38,36 40,38 40,39 41,40 41,41 42,42 42,43 43,44 43,45 42,46 39,46 38,47 35,47 34,48 32,48 32,49 33,50 33,51 35,51 36,50 37,50 38,49 40,49 41,48 42,48 43,47 44,47 45,48 45,50 46,51 46,52 47,53 47,55 48,56 48,57 49,58 49,60 50,61 50,62 51,63 51,65 52,66 52,68 53,69 53,71 56,71 57,70 56,69 56,67 55,66 55,65 54,64 54,62 53,61 53,59 52,58 52,56 51,55 51,54 50,53 50,51 48,49 48,48 47,47 48,46 49,46 50,45 52,45 53,44 56,44 57,43 61,43 62,42 68,42 69,43 71,43 73,45 73,49 69,53 67,53 66,54 62,54 61,55 57,55 58,56 58,57 65,57 66,56 69,56 70,55 71,55 72,54 73,54 76,51 76,44 74,42 73,42 72,41 71,41 70,40 61,40 60,41 56,41 55,42 52,42 51,43 49,43 48,44 47,44 45,42 45,41 44,40 44,38 43,37 43,36 42,35 42,34" stroke="black" stroke-width="1" /><polygon fill="none" id="2" points="52,30 50,32 51,33 52,33 53,34 54,34 56,36 57,36 58,37 59,37 60,36 61,36 61,35 60,34 59,34 58,33 57,33 55,31 54,31 53,30" stroke="black" stroke-width="1" /></svg>