<?xml version="1.0" encoding="utf-8" ?>
<svg baseProfile="full" height="100" version="1.1" width="100" xmlns="http://www.w3.org/2000/svg" xmlns:ev="http://www.w3.org/2001/xml-events" xmlns:xlink="http://www.w3.org/1999/xlink"><defs /><polygon fill="none" id="1" points="43,34 42,35 42,36 43,37 43,38 44,39 44,40 46,42 46,43 47,44 45,46 42,46 41,47 39,47 38,48 35,48 35,49 36,50 36,51 38,51 39,50 41,50 42,49 44,49 45,48 46,48 47,47 48,47 49,48 49,49 50,50 50,52 52,54 52,56 53,57 53,58 54,59 54,61 55,62 55,64 56,65 56,66 57,67 57,68 58,69 58,71 61,71 62,70 62,69 61,68 61,67 60,66 60,64 59,63 59,62 58,61 58,59 57,58 57,57 56,56 56,55 55,54 55,53 54,52 54,51 53,50 53,49 52,48 52,47 54,45 57,45 58,44 61,44 62,43 66,43 67,42 75,42 76,43 77,43 79,45 79,46 80,47 80,48 79,49 79,50 77,52 76,52 75,53 73,53 72,54 67,54 66,55 62,55 63,56 63,57 71,57 72,56 75,56 76,55 78,55 79,54 80,54 83,51 83,44 81,42 80,42 79,41 77,41 76,40 67,40 66,41 61,41 60,42 57,42 56,43 53,43 52,44 51,44 49,42 49,41 48,40 48,38 47,37 47,36 46,35 46,34" stroke="black" stroke-width="1" /><polygon fill="none" id="2" points="56,30 54,32 55,32 56,33 57,33 58,34 59,34 61,36 62,36 63,37 65,37 67,35 66,35 65,34 64,34 62,32 61,32 60,31 59,31 58,30" stroke="black" stroke-width="1" /></svg>