<?xml version="1.0" encoding="utf-8" ?>
<svg baseProfile="full" height="100" version="1.1" width="100" xmlns="http://www.w3.org/2000/svg" xmlns:ev="http://www.w3.org/2001/xml-events" xmlns:xlink="http://www.w3.org/1999/xlink"><defs /><polygon fill="none" id="1" points="36,34 35,35 35,36 36,37 36,38 37,39 37,40 38,41 38,42 39,43 39,45 38,46 35,46 34,47 32,47 31,48 29,48 29,49 30,50 30,51 32,51 33,50 34,50 35,49 36,49 37,48 38,48 39,47 40,47 41,48 41,50 42,51 42,53 43,54 43,55 44,56 44,58 45,59 45,61 46,62 46,64 47,65 47,67 48,68 48,71 51,71 52,70 51,69 51,68 50,67 50,65 49,64 49,62 48,61 48,59 47,58 47,56 46,55 46,53 45,52 45,51 44,50 44,48 43,47 45,45 48,45 49,44 51,44 52,43 55,43 56,42 62,42 63,43 64,43 66,45 66,50 64,52 63,52 62,53 61,53 60,54 56,54 55,55 52,55 53,56 53,57 59,57 60,56 63,56 64,55 65,55 69,51 69,44 66,41 64,41 63,40 56,40 55,41 51,41 50,42 47,42 46,43 44,43 43,44 42,44 41,43 41,41 40,40 40,38 39,37 39,36 38,35 38,34" stroke="black" stroke-width="1" /><polygon fill="none" id="2" points="47,30 45,32 46,32 48,34 49,34 53,38 55,36 55,35 53,33 52,33 50,31 49,31 48,30" stroke="black" stroke-width="1" /></svg>