<?xml version="1.0" encoding="utf-8" ?>
<svg baseProfile="full" height="100" version="1.1" width="100" xmlns="http://www.w3.org/2000/svg" xmlns:ev="http://www.w3.org/2001/xml-events" xmlns:xlink="http://www.w3.org/1999/xlink"><defs /><polygon fill="none" id="1" points="43,44 42,45 36,45 35,46 29,46 29,48 33,48 34,47 37,47 38,46 42,46 43,47 43,48 41,50 41,51 38,54 38,55 36,57 36,58 32,62 32,63 29,66 29,67 26,70 26,71 27,72 27,71 29,69 29,68 32,65 32,64 36,60 37,60 38,59 41,59 42,60 42,61 43,62 43,69 44,70 45,70 46,71 54,71 54,69 53,69 52,70 45,70 44,69 44,62 43,61 43,59 42,58 40,58 39,59 38,59 37,58 37,57 38,56 38,55 42,51 42,50 46,46 44,44" stroke="black" stroke-width="1" /><polygon fill="none" id="2" points="34,33 34,34 35,34 36,35 37,35 38,36 40,36 42,38 44,38 44,37 43,36 42,36 41,35 40,35 39,34 37,34 36,33" stroke="black" stroke-width="1" /></svg>