<?xml version="1.0" encoding="utf-8" ?>
<svg baseProfile="full" height="100" version="1.1" width="100" xmlns="http://www.w3.org/2000/svg" xmlns:ev="http://www.w3.org/2001/xml-events" xmlns:xlink="http://www.w3.org/1999/xlink"><defs /><polygon fill="none" id="1" points="29,34 28,35 28,37 29,38 29,40 30,41 30,43 31,44 31,45 30,46 28,46 27,47 26,47 25,48 23,48 23,50 24,51 24,52 26,52 27,51 28,51 29,50 30,50 31,49 32,49 33,50 33,52 34,53 34,56 35,57 35,59 36,60 36,63 37,64 37,66 38,67 38,72 42,72 42,68 41,67 41,65 40,64 40,61 39,60 39,58 38,57 38,54 37,53 37,51 36,50 36,47 37,46 39,46 40,45 42,45 43,44 45,44 46,43 50,43 53,46 53,50 50,53 49,53 48,54 45,54 44,55 42,55 42,58 48,58 49,57 51,57 52,56 53,56 55,54 55,53 56,52 56,44 55,43 55,42 54,42 52,40 44,40 43,41 41,41 40,42 38,42 37,43 36,43 35,44 34,43 34,42 33,41 33,39 32,38 32,36 31,35 31,34" stroke="black" stroke-width="1" /><polygon fill="none" id="2" points="38,30 36,32 36,33 37,34 38,34 42,38 44,38 45,37 45,35 41,31 40,31 39,30" stroke="black" stroke-width="1" /></svg>