<?xml version="1.0" encoding="utf-8" ?>
<svg baseProfile="full" height="100" version="1.1" width="100" xmlns="http://www.w3.org/2000/svg" xmlns:ev="http://www.w3.org/2001/xml-events" xmlns:xlink="http://www.w3.org/1999/xlink"><defs /><polygon fill="none" id="1" points="32,34 31,35 31,36 32,37 32,39 33,40 33,41 34,42 34,43 35,44 35,45 34,46 32,46 31,47 29,47 28,48 26,48 26,50 27,51 27,52 29,52 30,51 31,51 32,50 34,50 36,48 37,49 37,51 38,52 38,54 39,55 39,57 40,58 40,61 41,62 41,64 42,65 42,68 43,69 43,72 47,72 47,68 46,67 46,65 45,64 45,61 44,60 44,58 43,57 43,55 42,54 42,52 41,51 41,49 40,48 42,46 44,46 45,45 47,45 48,44 51,44 52,43 56,43 60,47 60,48 59,49 59,50 56,53 55,53 54,54 50,54 49,55 47,55 47,57 48,58 54,58 55,57 57,57 58,56 59,56 63,52 63,44 60,41 59,41 58,40 50,40 49,41 46,41 45,42 43,42 42,43 40,43 39,44 38,43 38,41 37,40 37,38 36,37 36,36 35,35 35,34" stroke="black" stroke-width="1" /><polygon fill="none" id="2" points="42,30 41,31 41,33 42,34 43,34 47,38 50,38 50,37 51,36 51,35 50,34 49,34 46,31 45,31 44,30" stroke="black" stroke-width="1" /></svg>