<?xml version="1.0" encoding="utf-8" ?>
<svg baseProfile="full" height="100" version="1.1" width="100" xmlns="http://www.w3.org/2000/svg" xmlns:ev="http://www.w3.org/2001/xml-events" xmlns:xlink="http://www.w3.org/1999/xlink"><defs /><polygon fill="none" id="1" points="36,34 35,35 35,37 36,38 36,39 37,40 37,41 38,42 38,43 39,44 39,45 38,46 35,46 34,47 32,47 31,48 29,48 29,50 30,51 30,52 33,52 34,51 35,51 36,50 37,50 38,49 39,49 40,48 41,49 41,51 42,52 42,54 43,55 43,56 44,57 44,59 45,60 45,62 46,63 46,65 47,66 47,68 48,69 48,72 52,72 53,71 53,70 52,69 52,68 51,67 51,65 50,64 50,62 49,61 49,59 48,58 48,56 47,55 47,53 46,52 46,51 45,50 45,47 46,46 49,46 50,45 52,45 53,44 56,44 57,43 62,43 63,44 64,44 66,46 66,50 64,52 63,52 62,53 61,53 60,54 56,54 55,55 52,55 52,56 53,57 53,58 60,58 61,57 64,57 65,56 66,56 70,52 70,44 67,41 65,41 64,40 56,40 55,41 51,41 50,42 47,42 46,43 44,43 43,44 42,43 42,41 41,40 41,38 40,37 40,36 39,35 39,34" stroke="black" stroke-width="1" /><polygon fill="none" id="2" points="47,30 45,32 45,33 46,33 48,35 49,35 53,39 54,39 56,37 56,35 54,33 53,33 51,31 50,31 49,30" stroke="black" stroke-width="1" /></svg>