<?xml version="1.0" encoding="utf-8" ?>
<svg baseProfile="full" height="100" version="1.1" width="100" xmlns="http://www.w3.org/2000/svg" xmlns:ev="http://www.w3.org/2001/xml-events" xmlns:xlink="http://www.w3.org/1999/xlink"><defs /><polygon fill="none" id="1" points="40,34 39,35 38,35 38,37 40,39 40,40 41,41 41,42 42,43 42,44 43,45 42,46 39,46 38,47 35,47 34,48 32,48 32,50 33,51 33,52 36,52 37,51 38,51 39,50 41,50 42,49 43,49 44,48 45,49 45,51 46,52 46,53 47,54 47,56 48,57 48,58 49,59 49,61 50,62 50,63 51,64 51,66 52,67 52,69 53,70 53,72 57,72 58,71 58,70 57,69 57,67 56,66 56,65 55,64 55,62 54,61 54,59 53,58 53,56 52,55 52,54 51,53 51,51 49,49 49,48 51,46 53,46 54,45 57,45 58,44 62,44 63,43 68,43 69,44 71,44 73,46 73,49 69,53 67,53 66,54 62,54 61,55 57,55 57,56 58,57 58,58 66,58 67,57 70,57 71,56 72,56 73,55 74,55 77,52 77,44 75,42 74,42 73,41 72,41 71,40 61,40 60,41 56,41 55,42 52,42 51,43 49,43 48,44 46,42 46,41 45,40 45,38 44,37 44,36 43,35 43,34" stroke="black" stroke-width="1" /><polygon fill="none" id="2" points="52,30 50,32 50,33 51,34 52,34 53,35 54,35 56,37 57,37 58,38 60,38 61,37 62,37 62,35 61,34 60,34 59,33 58,33 56,31 55,31 54,30" stroke="black" stroke-width="1" /></svg>