<?xml version="1.0" encoding="utf-8" ?>
<svg baseProfile="full" height="100" version="1.1" width="100" xmlns="http://www.w3.org/2000/svg" xmlns:ev="http://www.w3.org/2001/xml-events" xmlns:xlink="http://www.w3.org/1999/xlink"><defs /><polygon fill="none" id="1" points="43,34 42,35 42,37 43,38 43,39 44,40 44,41 46,43 46,45 45,46 42,46 41,47 39,47 38,48 35,48 35,50 36,51 36,52 39,52 40,51 42,51 43,50 45,50 46,49 47,49 48,48 49,49 49,50 50,51 50,53 52,55 52,57 53,58 53,59 54,60 54,62 55,63 55,65 56,66 56,67 57,68 57,69 58,70 58,72 62,72 63,71 63,69 62,68 62,67 61,66 61,64 60,63 60,62 59,61 59,59 58,58 58,57 57,56 57,55 56,54 56,53 55,52 55,51 54,50 54,49 53,48 55,46 58,46 59,45 62,45 63,44 67,44 68,43 75,43 76,44 77,44 79,46 79,47 80,48 79,49 79,50 77,52 76,52 75,53 73,53 72,54 67,54 66,55 62,55 62,56 63,57 63,58 72,58 73,57 76,57 77,56 79,56 80,55 81,55 84,52 84,44 82,42 81,42 80,41 78,41 77,40 67,40 66,41 61,41 60,42 57,42 56,43 53,43 52,44 50,42 50,41 49,40 49,38 48,37 48,36 47,35 47,34" stroke="black" stroke-width="1" /><polygon fill="none" id="2" points="56,30 54,32 54,33 55,33 56,34 57,34 58,35 59,35 61,37 62,37 63,38 66,38 68,36 68,35 67,35 66,34 65,34 63,32 62,32 61,31 60,31 59,30" stroke="black" stroke-width="1" /></svg>