<?xml version="1.0" encoding="utf-8" ?>
<svg baseProfile="full" height="100" version="1.1" width="100" xmlns="http://www.w3.org/2000/svg" xmlns:ev="http://www.w3.org/2001/xml-events" xmlns:xlink="http://www.w3.org/1999/xlink"><defs /><polygon fill="none" id="1" points="30,35 29,36 30,37 30,39 31,40 31,42 32,43 32,46 31,47 29,47 28,48 27,48 26,49 24,49 25,50 25,51 26,50 27,50 28,49 29,49 30,48 31,48 32,47 33,47 34,48 34,51 35,52 35,55 36,56 36,58 37,59 37,62 38,63 38,65 39,66 39,71 41,71 41,69 40,68 40,66 39,65 39,62 38,61 38,59 37,58 37,55 36,54 36,52 35,51 35,49 34,48 34,47 36,45 38,45 39,44 41,44 42,43 44,43 45,42 51,42 54,45 54,51 51,54 50,54 49,55 46,55 45,56 43,56 43,57 47,57 48,56 50,56 51,55 52,55 54,53 54,52 55,51 55,45 54,44 54,43 53,43 51,41 45,41 44,42 42,42 41,43 39,43 38,44 37,44 36,45 34,45 33,44 33,43 32,42 32,40 31,39 31,37 30,36" stroke="black" stroke-width="1" /><polygon fill="none" id="2" points="38,32 38,33 39,33 43,37 44,36 40,32" stroke="black" stroke-width="1" /></svg>