<?xml version="1.0" encoding="utf-8" ?>
<svg baseProfile="full" height="100" version="1.1" width="100" xmlns="http://www.w3.org/2000/svg" xmlns:ev="http://www.w3.org/2001/xml-events" xmlns:xlink="http://www.w3.org/1999/xlink"><defs /><polygon fill="none" id="1" points="33,35 33,38 34,39 34,40 35,41 35,42 36,43 36,46 35,47 33,47 32,48 30,48 29,49 27,49 28,50 28,51 29,50 30,50 31,49 33,49 35,47 37,47 38,48 38,50 39,51 39,53 40,54 40,56 41,57 41,60 42,61 42,63 43,64 43,67 44,68 44,71 46,71 46,69 45,68 45,66 44,65 44,62 43,61 43,59 42,58 42,56 41,55 41,53 40,52 40,50 39,49 39,47 41,45 43,45 44,44 46,44 47,43 50,43 51,42 57,42 61,46 61,49 60,50 60,51 57,54 56,54 55,55 51,55 50,56 48,56 49,57 53,57 54,56 56,56 57,55 58,55 62,51 62,45 59,42 58,42 57,41 51,41 50,42 47,42 46,43 44,43 43,44 41,44 40,45 38,45 37,44 37,42 36,41 36,39 35,38 35,37 34,36 34,35" stroke="black" stroke-width="1" /><polygon fill="none" id="2" points="43,31 42,32 43,33 44,33 48,37 49,37 49,35 48,35 45,32 44,32" stroke="black" stroke-width="1" /></svg>