<?xml version="1.0" encoding="utf-8" ?>
<svg baseProfile="full" height="100" version="1.1" width="100" xmlns="http://www.w3.org/2000/svg" xmlns:ev="http://www.w3.org/2001/xml-events" xmlns:xlink="http://www.w3.org/1999/xlink"><defs /><polygon fill="none" id="1" points="37,35 36,36 37,37 37,38 38,39 38,40 39,41 39,42 40,43 40,46 39,47 36,47 35,48 33,48 32,49 30,49 31,50 31,51 32,51 33,50 34,50 35,49 36,49 37,48 38,48 39,47 41,47 42,48 42,50 43,51 43,53 44,54 44,55 45,56 45,58 46,59 46,61 47,62 47,64 48,65 48,67 49,68 49,71 51,71 51,69 50,68 50,66 49,65 49,63 48,62 48,60 47,59 47,57 46,56 46,54 45,53 45,52 44,51 44,49 43,48 43,47 45,45 48,45 49,44 51,44 52,43 55,43 56,42 63,42 64,43 65,43 67,45 67,51 65,53 64,53 63,54 62,54 61,55 57,55 56,56 54,56 54,57 59,57 60,56 63,56 64,55 65,55 69,51 69,45 66,42 64,42 63,41 57,41 56,42 52,42 51,43 48,43 47,44 45,44 44,45 42,45 41,44 41,42 40,41 40,39 39,38 39,37 38,36 38,35" stroke="black" stroke-width="1" /><polygon fill="none" id="2" points="48,31 47,32 49,34 50,34 53,37 54,37 55,36 53,34 52,34 50,32 49,32" stroke="black" stroke-width="1" /></svg>