<?xml version="1.0" encoding="utf-8" ?>
<svg baseProfile="full" height="100" version="1.1" width="100" xmlns="http://www.w3.org/2000/svg" xmlns:ev="http://www.w3.org/2001/xml-events" xmlns:xlink="http://www.w3.org/1999/xlink"><defs /><polygon fill="none" id="1" points="41,35 40,36 39,36 41,38 41,39 42,40 42,41 43,42 43,43 44,44 44,46 43,47 40,47 39,48 36,48 35,49 33,49 34,50 34,51 35,51 36,50 37,50 38,49 40,49 41,48 42,48 43,47 45,47 46,48 46,50 47,51 47,52 48,53 48,55 49,56 49,57 50,58 50,60 51,61 51,62 52,63 52,65 53,66 53,68 54,69 54,71 56,71 56,68 55,67 55,66 54,65 54,63 53,62 53,60 52,59 52,57 51,56 51,55 50,54 50,52 48,50 48,49 47,48 47,47 48,46 49,46 50,45 52,45 53,44 56,44 57,43 61,43 62,42 69,42 70,43 72,43 74,45 74,50 70,54 68,54 67,55 63,55 62,56 59,56 59,57 65,57 66,56 69,56 70,55 71,55 72,54 73,54 76,51 76,45 74,43 73,43 72,42 71,42 70,41 62,41 61,42 57,42 56,43 53,43 52,44 50,44 49,45 47,45 45,43 45,42 44,41 44,39 43,38 43,37 42,36 42,35" stroke="black" stroke-width="1" /><polygon fill="none" id="2" points="53,31 52,32 52,33 53,33 54,34 55,34 57,36 58,36 59,37 60,36 61,36 60,35 59,35 58,34 57,34 55,32 54,32" stroke="black" stroke-width="1" /></svg>