<?xml version="1.0" encoding="utf-8" ?>
<svg baseProfile="full" height="100" version="1.1" width="100" xmlns="http://www.w3.org/2000/svg" xmlns:ev="http://www.w3.org/2001/xml-events" xmlns:xlink="http://www.w3.org/1999/xlink"><defs /><polygon fill="none" id="1" points="48,44 47,45 41,45 40,46 32,46 33,47 33,48 37,48 38,47 42,47 43,46 47,46 48,47 48,48 47,49 47,50 42,55 42,56 35,63 35,64 29,70 30,71 31,71 31,70 41,60 42,60 43,59 46,59 48,61 48,68 49,69 49,70 50,70 51,71 61,71 61,69 59,69 58,70 51,70 49,68 49,60 47,58 45,58 44,59 43,59 42,58 42,56 49,49 49,48 51,46 51,45 50,44" stroke="black" stroke-width="1" /><polygon fill="none" id="2" points="39,33 38,34 39,34 40,35 42,35 43,36 45,36 46,37 47,37 49,39 49,38 50,37 49,37 48,36 47,36 46,35 45,35 44,34 42,34 41,33" stroke="black" stroke-width="1" /></svg>