<?xml version="1.0" encoding="utf-8" ?>
<svg baseProfile="full" height="100" version="1.1" width="100" xmlns="http://www.w3.org/2000/svg" xmlns:ev="http://www.w3.org/2001/xml-events" xmlns:xlink="http://www.w3.org/1999/xlink"><defs /><polygon fill="none" id="1" points="44,35 43,36 44,37 44,38 45,39 45,40 47,42 47,43 48,44 48,45 46,47 43,47 42,48 40,48 39,49 36,49 37,50 37,51 38,51 39,50 41,50 42,49 44,49 45,48 46,48 47,47 49,47 50,48 50,49 51,50 51,52 53,54 53,56 54,57 54,58 55,59 55,61 56,62 56,64 57,65 57,66 58,67 58,68 59,69 59,71 61,71 62,70 61,69 61,68 60,67 60,65 59,64 59,63 58,62 58,60 57,59 57,58 56,57 56,56 55,55 55,54 54,53 54,52 53,51 53,50 52,49 52,47 54,45 57,45 58,44 61,44 62,43 66,43 67,42 76,42 77,43 78,43 80,45 80,46 81,47 81,49 80,50 80,51 78,53 77,53 76,54 74,54 73,55 68,55 67,56 64,56 64,57 71,57 72,56 75,56 76,55 78,55 79,54 80,54 83,51 83,45 81,43 80,43 79,42 77,42 76,41 68,41 67,42 62,42 61,43 58,43 57,44 54,44 53,45 51,45 49,43 49,42 48,41 48,39 47,38 47,37 46,36 46,35" stroke="black" stroke-width="1" /><polygon fill="none" id="2" points="57,31 56,32 57,33 58,33 59,34 60,34 62,36 63,36 64,37 65,37 66,36 65,35 64,35 62,33 61,33 60,32 59,32 58,31" stroke="black" stroke-width="1" /></svg>