<?xml version="1.0" encoding="utf-8" ?>
<svg baseProfile="full" height="100" version="1.1" width="100" xmlns="http://www.w3.org/2000/svg" xmlns:ev="http://www.w3.org/2001/xml-events" xmlns:xlink="http://www.w3.org/1999/xlink"><defs /><polygon fill="none" id="1" points="37,29 35,31 35,33 36,34 37,34 41,38 42,38 43,39 42,40 40,40 39,41 37,41 36,42 35,42 33,40 33,38 32,37 32,35 31,34 31,33 28,33 27,34 27,37 28,38 28,40 29,41 29,43 30,44 29,45 27,45 26,46 25,46 24,47 22,47 22,50 23,51 23,52 26,52 27,51 28,51 29,50 30,50 31,49 32,50 32,52 33,53 33,56 34,57 34,59 35,60 35,63 36,64 36,66 37,67 37,72 42,72 42,67 41,66 41,64 40,63 40,60 39,59 39,57 38,56 38,53 37,52 37,50 36,49 36,47 37,46 39,46 40,45 42,45 43,44 45,44 46,43 49,43 52,46 52,49 49,52 48,52 47,53 44,53 43,54 41,54 41,58 48,58 49,57 51,57 52,56 53,56 55,54 55,53 56,52 56,43 55,42 55,41 54,41 52,39 45,39 44,38 45,37 45,34 41,30 40,30 39,29" stroke="black" stroke-width="1" /></svg>