<?xml version="1.0" encoding="utf-8" ?>
<svg baseProfile="full" height="100" version="1.1" width="100" xmlns="http://www.w3.org/2000/svg" xmlns:ev="http://www.w3.org/2001/xml-events" xmlns:xlink="http://www.w3.org/1999/xlink"><defs /><polygon fill="none" id="1" points="41,29 40,30 40,33 41,34 42,34 46,38 48,38 49,39 48,40 45,40 44,41 42,41 41,42 39,42 38,41 38,40 37,39 37,37 36,36 36,35 35,34 35,33 31,33 30,34 30,36 31,37 31,39 32,40 32,41 33,42 33,43 34,44 33,45 31,45 30,46 28,46 27,47 25,47 25,50 26,51 26,52 29,52 30,51 31,51 32,50 34,50 35,49 36,50 36,51 37,52 37,54 38,55 38,57 39,58 39,61 40,62 40,64 41,65 41,68 42,69 42,72 47,72 47,67 46,66 46,64 45,63 45,60 44,59 44,57 43,56 43,54 42,53 42,51 41,50 41,47 42,46 44,46 45,45 47,45 48,44 51,44 52,43 55,43 59,47 58,48 58,49 55,52 54,52 53,53 49,53 48,54 46,54 46,57 47,58 54,58 55,57 57,57 58,56 59,56 63,52 63,43 60,40 59,40 58,39 51,39 50,38 50,37 51,36 51,34 50,33 49,33 46,30 45,30 44,29" stroke="black" stroke-width="1" /></svg>