<?xml version="1.0" encoding="utf-8" ?>
<svg baseProfile="full" height="100" version="1.1" width="100" xmlns="http://www.w3.org/2000/svg" xmlns:ev="http://www.w3.org/2001/xml-events" xmlns:xlink="http://www.w3.org/1999/xlink"><defs /><polygon fill="none" id="1" points="46,29 44,31 44,33 45,33 47,35 48,35 52,39 51,40 50,40 49,41 46,41 45,42 43,42 42,41 42,40 41,39 41,37 40,36 40,35 39,34 39,33 35,33 34,34 34,37 35,38 35,39 36,40 36,41 37,42 37,43 38,44 37,45 34,45 33,46 31,46 30,47 28,47 28,50 29,51 29,52 33,52 34,51 35,51 36,50 37,50 38,49 39,49 40,50 40,51 41,52 41,54 42,55 42,56 43,57 43,59 44,60 44,62 45,63 45,65 46,66 46,68 47,69 47,72 52,72 53,71 53,69 52,68 52,67 51,66 51,64 50,63 50,61 49,60 49,58 48,57 48,55 47,54 47,52 46,51 46,50 45,49 45,47 46,46 49,46 50,45 52,45 53,44 56,44 57,43 61,43 62,44 63,44 65,46 65,49 63,51 62,51 61,52 60,52 59,53 55,53 54,54 51,54 51,56 52,57 52,58 60,58 61,57 64,57 65,56 66,56 70,52 70,43 67,40 65,40 64,39 56,39 55,38 56,37 56,34 54,32 53,32 51,30 50,30 49,29" stroke="black" stroke-width="1" /></svg>