<?xml version="1.0" encoding="utf-8" ?>
<svg baseProfile="full" height="100" version="1.1" width="100" xmlns="http://www.w3.org/2000/svg" xmlns:ev="http://www.w3.org/2001/xml-events" xmlns:xlink="http://www.w3.org/1999/xlink"><defs /><polygon fill="none" id="1" points="51,29 49,31 49,33 50,34 51,34 52,35 53,35 55,37 56,37 57,38 59,38 60,39 59,40 55,40 54,41 51,41 50,42 47,42 46,41 46,40 45,39 45,37 44,36 44,35 43,34 43,33 39,33 38,34 37,34 37,37 39,39 39,40 40,41 40,42 41,43 41,44 40,45 38,45 37,46 34,46 33,47 31,47 31,50 32,51 32,52 36,52 37,51 38,51 39,50 41,50 42,49 43,49 44,50 44,51 45,52 45,53 46,54 46,56 47,57 47,58 48,59 48,61 49,62 49,63 50,64 50,66 51,67 51,69 52,70 52,72 57,72 58,71 58,69 57,68 57,66 56,65 56,64 55,63 55,61 54,60 54,58 53,57 53,55 52,54 52,53 51,52 51,50 49,48 51,46 53,46 54,45 57,45 58,44 62,44 63,43 67,43 68,44 70,44 72,46 72,48 68,52 66,52 65,53 61,53 60,54 56,54 56,56 57,57 57,58 66,58 67,57 70,57 71,56 72,56 73,55 74,55 77,52 77,43 75,41 74,41 73,40 72,40 71,39 61,39 60,38 61,37 62,37 62,34 61,33 60,33 59,32 58,32 56,30 55,30 54,29" stroke="black" stroke-width="1" /></svg>