<?xml version="1.0" encoding="utf-8" ?>
<svg baseProfile="full" height="100" version="1.1" width="100" xmlns="http://www.w3.org/2000/svg" xmlns:ev="http://www.w3.org/2001/xml-events" xmlns:xlink="http://www.w3.org/1999/xlink"><defs /><polygon fill="none" id="1" points="55,29 53,31 53,33 54,33 55,34 56,34 57,35 58,35 60,37 61,37 62,38 65,38 66,39 65,40 60,40 59,41 56,41 55,42 51,42 50,41 50,40 49,39 49,37 48,36 48,35 47,34 47,33 42,33 41,34 41,37 42,38 42,39 43,40 43,41 45,43 45,44 44,45 41,45 40,46 38,46 37,47 34,47 34,50 35,51 35,52 39,52 40,51 42,51 43,50 45,50 46,49 47,49 49,51 49,53 51,55 51,57 52,58 52,59 53,60 53,62 54,63 54,65 55,66 55,67 56,68 56,69 57,70 57,72 62,72 63,71 63,68 62,67 62,66 61,65 61,63 60,62 60,61 59,60 59,58 58,57 58,56 57,55 57,54 56,53 56,52 55,51 55,50 54,49 54,47 55,46 58,46 59,45 62,45 63,44 67,44 68,43 74,43 75,44 76,44 78,46 78,49 76,51 75,51 74,52 72,52 71,53 66,53 65,54 61,54 61,56 62,57 62,58 72,58 73,57 76,57 77,56 79,56 80,55 81,55 84,52 84,43 82,41 81,41 80,40 78,40 77,39 67,39 66,38 68,36 68,34 67,34 66,33 65,33 63,31 62,31 61,30 60,30 59,29" stroke="black" stroke-width="1" /></svg>