<?xml version="1.0" encoding="utf-8" ?>
<svg baseProfile="full" height="100" version="1.1" width="100" xmlns="http://www.w3.org/2000/svg" xmlns:ev="http://www.w3.org/2001/xml-events" xmlns:xlink="http://www.w3.org/1999/xlink"><defs /><polygon fill="none" id="1" points="39,66 39,70 40,70 40,69 39,68" stroke="black" stroke-width="1" /><polygon fill="none" id="2" points="37,59 37,61 38,62 38,64 38,62 37,61" stroke="black" stroke-width="1" /><polygon fill="none" id="3" points="53,52 51,54 50,54 49,55 46,55 45,56 43,56 46,56 47,55 49,55 50,54 51,54" stroke="black" stroke-width="1" /><polygon fill="none" id="4" points="35,52 35,54 36,55 36,57 36,55 35,54" stroke="black" stroke-width="1" /><polygon fill="none" id="5" points="34,49 34,50" stroke="black" stroke-width="1" /><polygon fill="none" id="6" points="29,47 28,48 27,48 26,49 25,49 26,49 27,48 28,48 29,47 30,47" stroke="black" stroke-width="1" /><polygon fill="none" id="7" points="54,45 54,50" stroke="black" stroke-width="1" /><polygon fill="none" id="8" points="37,44" stroke="black" stroke-width="1" /><polygon fill="none" id="9" points="53,43" stroke="black" stroke-width="1" /><polygon fill="none" id="10" points="39,43 40,43" stroke="black" stroke-width="1" /><polygon fill="none" id="11" points="32,43 32,46 33,46 34,45 33,45 32,44" stroke="black" stroke-width="1" /><polygon fill="none" id="12" points="42,42 43,42" stroke="black" stroke-width="1" /><polygon fill="none" id="13" points="45,41 50,41" stroke="black" stroke-width="1" /><polygon fill="none" id="14" points="31,40 31,41" stroke="black" stroke-width="1" /><polygon fill="none" id="15" points="30,37 30,38" stroke="black" stroke-width="1" /><polygon fill="none" id="16" points="38,32 39,32 42,35 39,32" stroke="black" stroke-width="1" /></svg>