<?xml version="1.0" encoding="utf-8" ?>
<svg baseProfile="full" height="100" version="1.1" width="100" xmlns="http://www.w3.org/2000/svg" xmlns:ev="http://www.w3.org/2001/xml-events" xmlns:xlink="http://www.w3.org/1999/xlink"><defs /><polygon fill="none" id="1" points="33,47 32,48 30,48 29,49 28,49 29,49 30,48 32,48" stroke="black" stroke-width="1" /><polygon fill="none" id="2" points="41,44 42,44" stroke="black" stroke-width="1" /><polygon fill="none" id="3" points="44,43 45,43" stroke="black" stroke-width="1" /><polygon fill="none" id="4" points="58,42 61,45 61,49 60,50 60,51 57,54 56,54 55,55 51,55 50,56 49,56 52,56 53,55 55,55 56,54 57,54 61,50 61,45" stroke="black" stroke-width="1" /><polygon fill="none" id="5" points="47,42 49,42" stroke="black" stroke-width="1" /><polygon fill="none" id="6" points="51,41 56,41" stroke="black" stroke-width="1" /><polygon fill="none" id="7" points="33,35 33,37 34,38 34,39 35,40 35,41 36,42 36,46 37,46 38,47 38,49 39,50 39,52 40,53 40,55 41,56 41,59 42,60 42,62 43,63 43,66 44,67 44,70 45,70 45,69 44,68 44,66 43,65 43,62 42,61 42,59 41,58 41,56 40,55 40,53 39,52 39,50 38,49 38,46 39,45 37,45 36,44 36,42 35,41 35,39 34,38 34,37 33,36" stroke="black" stroke-width="1" /><polygon fill="none" id="8" points="43,32 44,32 48,36 48,35 47,35 44,32" stroke="black" stroke-width="1" /></svg>