<?xml version="1.0" encoding="utf-8" ?>
<svg baseProfile="full" height="100" version="1.1" width="100" xmlns="http://www.w3.org/2000/svg" xmlns:ev="http://www.w3.org/2001/xml-events" xmlns:xlink="http://www.w3.org/1999/xlink"><defs /><polygon fill="none" id="1" points="36,47 35,48 33,48 32,49 31,49 31,50 32,49 33,49 34,48 35,48 36,47 37,47" stroke="black" stroke-width="1" /><polygon fill="none" id="2" points="48,43 47,44 45,44 47,44 48,43 50,43" stroke="black" stroke-width="1" /><polygon fill="none" id="3" points="64,42 65,42 67,44 67,51 65,53 64,53 63,54 62,54 61,55 57,55 56,56 54,56 58,56 59,55 62,55 63,54 64,54 68,50 68,45 65,42" stroke="black" stroke-width="1" /><polygon fill="none" id="4" points="52,42 54,42" stroke="black" stroke-width="1" /><polygon fill="none" id="5" points="57,41 62,41" stroke="black" stroke-width="1" /><polygon fill="none" id="6" points="37,35 37,37 38,38 38,39 39,40 39,41 40,42 40,46 41,46 42,47 42,49 43,50 43,52 44,53 44,54 45,55 45,57 46,58 46,60 47,61 47,63 48,64 48,66 49,67 49,70 50,70 50,69 49,68 49,66 48,65 48,63 47,62 47,60 46,59 46,57 45,56 45,54 44,53 44,52 43,51 43,49 42,48 42,46 43,45 41,45 40,44 40,42 39,41 39,39 38,38 38,37 37,36" stroke="black" stroke-width="1" /><polygon fill="none" id="7" points="48,32 49,33 50,33 53,36 53,35 52,34 51,34 49,32" stroke="black" stroke-width="1" /></svg>