<?xml version="1.0" encoding="utf-8" ?>
<svg baseProfile="full" height="100" version="1.1" width="100" xmlns="http://www.w3.org/2000/svg" xmlns:ev="http://www.w3.org/2001/xml-events" xmlns:xlink="http://www.w3.org/1999/xlink"><defs /><polygon fill="none" id="1" points="40,47 39,48 36,48 35,49 34,49 34,50 35,49 36,49 37,48 39,48 40,47 41,47" stroke="black" stroke-width="1" /><polygon fill="none" id="2" points="50,44 51,44" stroke="black" stroke-width="1" /><polygon fill="none" id="3" points="73,43 74,44 74,50 70,54 68,54 67,55 63,55 62,56 59,56 64,56 65,55 68,55 69,54 70,54 71,53 72,53 75,50 75,45" stroke="black" stroke-width="1" /><polygon fill="none" id="4" points="53,43 55,43" stroke="black" stroke-width="1" /><polygon fill="none" id="5" points="57,42 60,42" stroke="black" stroke-width="1" /><polygon fill="none" id="6" points="62,41 69,41 70,42 71,42 70,42 69,41" stroke="black" stroke-width="1" /><polygon fill="none" id="7" points="41,35 40,36 41,37 41,38 42,39 42,40 43,41 43,42 44,43 44,46 45,46 46,47 46,49 47,50 47,51 48,52 48,54 49,55 49,56 50,57 50,59 51,60 51,61 52,62 52,64 53,65 53,67 54,68 54,70 55,70 55,68 54,67 54,66 53,65 53,63 52,62 52,60 51,59 51,57 50,56 50,55 49,54 49,52 47,50 47,49 46,48 46,46 47,45 48,45 46,45 44,43 44,42 43,41 43,39 42,38 42,37 41,36" stroke="black" stroke-width="1" /><polygon fill="none" id="8" points="52,32 53,32 54,33 55,33 57,35 59,35 58,35 57,34 56,34 54,32" stroke="black" stroke-width="1" /></svg>