<?xml version="1.0" encoding="utf-8" ?>
<svg baseProfile="full" height="100" version="1.1" width="100" xmlns="http://www.w3.org/2000/svg" xmlns:ev="http://www.w3.org/2001/xml-events" xmlns:xlink="http://www.w3.org/1999/xlink"><defs /><polygon fill="none" id="1" points="54,44 53,45 45,45 44,46 36,46 36,48 41,48 42,47 47,47 48,46 51,46 52,45 53,45 54,46 54,48 32,70 33,71 34,71 45,60 46,60 47,59 51,59 53,61 53,68 55,70 56,70 57,71 68,71 68,69 66,69 65,70 57,70 55,68 55,61 54,60 54,59 53,58 50,58 49,59 48,59 47,58 47,56 57,46 55,44" stroke="black" stroke-width="1" /><polygon fill="none" id="2" points="43,33 42,34 43,34 44,35 47,35 48,36 50,36 51,37 52,37 53,38 55,38 55,37 54,36 52,36 51,35 50,35 49,34 46,34 45,33" stroke="black" stroke-width="1" /></svg>