<?xml version="1.0" encoding="utf-8" ?>
<svg baseProfile="full" height="100" version="1.1" width="100" xmlns="http://www.w3.org/2000/svg" xmlns:ev="http://www.w3.org/2001/xml-events" xmlns:xlink="http://www.w3.org/1999/xlink"><defs /><polygon fill="none" id="1" points="43,47 42,48 40,48 39,49 37,49 37,50 38,49 40,49 41,48 43,48 44,47 45,47" stroke="black" stroke-width="1" /><polygon fill="none" id="2" points="54,44 56,44" stroke="black" stroke-width="1" /><polygon fill="none" id="3" points="58,43 60,43" stroke="black" stroke-width="1" /><polygon fill="none" id="4" points="77,42 78,42 80,44 80,45 81,46 81,49 80,50 80,51 78,53 77,53 76,54 74,54 73,55 68,55 67,56 64,56 70,56 71,55 74,55 75,54 77,54 78,53 79,53 82,50 82,45 80,43 79,43 78,42" stroke="black" stroke-width="1" /><polygon fill="none" id="5" points="62,42 65,42" stroke="black" stroke-width="1" /><polygon fill="none" id="6" points="68,41 75,41" stroke="black" stroke-width="1" /><polygon fill="none" id="7" points="44,35 44,37 45,38 45,39 47,41 47,42 48,43 48,45 47,46 49,46 50,47 50,48 51,49 51,51 53,53 53,55 54,56 54,57 55,58 55,60 56,61 56,63 57,64 57,65 58,66 58,67 59,68 59,70 60,70 60,68 59,67 59,65 58,64 58,63 57,62 57,60 56,59 56,58 55,57 55,56 54,55 54,54 53,53 53,52 52,51 52,50 51,49 51,46 52,45 50,45 48,43 48,42 47,41 47,39 46,38 46,37 45,36 45,35" stroke="black" stroke-width="1" /><polygon fill="none" id="8" points="57,31 57,32 58,32 59,33 60,33 62,35 63,35 64,36 64,35 63,35 61,33 60,33 59,32 58,32" stroke="black" stroke-width="1" /></svg>