<?xml version="1.0" encoding="utf-8" ?>
<svg baseProfile="full" height="100" version="1.1" width="100" xmlns="http://www.w3.org/2000/svg" xmlns:ev="http://www.w3.org/2001/xml-events" xmlns:xlink="http://www.w3.org/1999/xlink"><defs /><polygon fill="none" id="1" points="52,31 52,37 51,38 50,38 49,39 47,39 45,41 44,41 37,48 37,49 36,50 36,51 35,52 34,51 34,42 35,41 35,37 36,36 36,35 35,34 33,34 33,35 32,36 32,42 31,43 31,57 32,58 32,64 35,64 35,56 36,55 36,54 38,52 38,51 40,49 40,48 44,44 45,44 47,42 48,42 49,41 50,41 51,40 52,40 53,41 53,58 52,59 50,59 48,57 47,57 44,54 42,56 44,58 45,58 47,60 48,60 49,61 50,61 51,62 51,63 50,64 50,65 46,69 45,69 44,70 45,70 47,72 48,71 49,71 50,70 50,69 53,66 53,64 55,62 59,62 60,61 62,61 63,60 64,60 67,57 67,56 68,55 68,52 69,51 69,49 68,48 68,45 67,44 67,43 64,40 63,40 62,39 61,39 60,38 56,38 55,37 55,31" stroke="black" stroke-width="1" /><polygon fill="none" id="2" points="55,41 56,40 58,40 59,41 60,41 61,42 62,42 64,44 64,45 65,46 65,54 60,59 58,59 57,60 56,60 55,59 55,55 56,54 56,45 55,44" stroke="black" stroke-width="1" /></svg>