<?xml version="1.0" encoding="utf-8" ?>
<svg baseProfile="full" height="100" version="1.1" width="100" xmlns="http://www.w3.org/2000/svg" xmlns:ev="http://www.w3.org/2001/xml-events" xmlns:xlink="http://www.w3.org/1999/xlink"><defs /><polygon fill="none" id="1" points="46,31 47,32 47,37 46,38 45,38 44,39 43,39 42,40 41,40 39,42 38,42 37,43 37,44 34,47 34,48 33,49 33,50 31,52 30,51 30,47 31,46 31,38 32,37 32,34 29,34 29,41 28,42 28,58 29,59 29,64 32,64 32,63 31,62 31,57 32,56 32,55 33,54 33,53 34,52 34,51 36,49 36,48 42,42 43,42 44,41 45,41 46,40 47,40 48,41 48,43 47,44 47,46 48,47 48,53 47,54 47,58 46,59 45,59 40,54 39,54 38,55 38,56 42,60 43,60 44,61 45,61 46,62 46,63 45,64 45,65 40,70 42,72 43,72 45,70 45,69 47,67 47,66 48,65 48,63 49,62 53,62 54,61 56,61 60,57 60,56 61,55 61,52 62,51 62,48 61,47 61,45 60,44 60,43 56,39 54,39 53,38 50,38 49,37 49,32 50,31" stroke="black" stroke-width="1" /><polygon fill="none" id="2" points="49,41 50,40 52,40 53,41 54,41 58,45 58,46 59,47 59,52 58,53 58,55 54,59 53,59 52,60 50,60 49,59 49,57 50,56 50,42" stroke="black" stroke-width="1" /></svg>