<?xml version="1.0" encoding="utf-8" ?>
<svg baseProfile="full" height="100" version="1.1" width="100" xmlns="http://www.w3.org/2000/svg" xmlns:ev="http://www.w3.org/2001/xml-events" xmlns:xlink="http://www.w3.org/1999/xlink"><defs /><polygon fill="none" id="1" points="57,31 57,35 58,36 58,37 57,38 55,38 54,39 52,39 51,40 50,40 49,41 48,41 41,48 41,49 40,50 40,51 39,52 38,52 37,51 37,46 38,45 38,40 39,39 39,36 40,35 39,34 36,34 36,36 35,37 35,43 34,44 34,56 35,57 35,64 39,64 39,62 38,61 38,59 39,58 39,56 40,55 40,54 41,53 41,52 45,48 45,47 46,46 47,46 50,43 51,43 52,42 53,42 54,41 55,41 56,40 57,40 58,41 58,58 57,59 55,59 53,57 52,57 49,54 48,54 46,56 47,57 48,57 50,59 51,59 52,60 53,60 54,61 55,61 56,62 56,63 55,64 55,65 51,69 50,69 49,70 50,71 51,71 52,72 53,71 54,71 56,69 56,68 58,66 58,65 59,64 59,63 60,62 65,62 66,61 68,61 69,60 70,60 71,59 72,59 74,57 74,56 75,55 75,52 76,51 76,49 75,48 75,45 74,44 74,43 72,41 71,41 70,40 69,40 68,39 67,39 66,38 62,38 61,37 61,31" stroke="black" stroke-width="1" /><polygon fill="none" id="2" points="61,41 62,40 64,40 65,41 66,41 67,42 68,42 71,45 71,46 72,47 72,53 70,55 70,56 68,58 67,58 66,59 64,59 63,60 61,60 60,59 60,58 61,57" stroke="black" stroke-width="1" /></svg>