<?xml version="1.0" encoding="utf-8" ?>
<svg baseProfile="full" height="100" version="1.1" width="100" xmlns="http://www.w3.org/2000/svg" xmlns:ev="http://www.w3.org/2001/xml-events" xmlns:xlink="http://www.w3.org/1999/xlink"><defs /><polygon fill="none" id="1" points="59,44 58,45 50,45 49,46 39,46 40,47 40,48 45,48 46,47 52,47 53,46 58,46 59,47 59,48 50,57 49,57 37,69 36,69 35,70 37,72 48,61 49,61 50,60 51,60 52,59 56,59 58,61 58,68 60,70 61,70 62,71 75,71 75,69 72,69 71,70 62,70 60,68 60,60 58,58 55,58 54,59 53,59 52,58 52,56 59,49 60,49 63,46 61,44" stroke="black" stroke-width="1" /><polygon fill="none" id="2" points="47,33 46,34 48,34 49,35 51,35 52,36 54,36 55,37 57,37 58,38 59,38 60,39 61,38 61,37 60,37 59,36 58,36 57,35 54,35 53,34 51,34 50,33" stroke="black" stroke-width="1" /></svg>