<?xml version="1.0" encoding="utf-8" ?>
<svg baseProfile="full" height="100" version="1.1" width="100" xmlns="http://www.w3.org/2000/svg" xmlns:ev="http://www.w3.org/2001/xml-events" xmlns:xlink="http://www.w3.org/1999/xlink"><defs /><polygon fill="none" id="1" points="62,31 62,34 63,35 63,37 62,38 60,38 59,39 57,39 56,40 55,40 54,41 53,41 52,42 51,42 44,49 44,50 42,52 41,51 41,42 42,41 42,37 43,36 43,35 42,34 39,34 39,37 38,38 38,44 37,45 37,54 38,55 38,64 42,64 42,57 43,56 43,55 45,53 45,52 53,44 54,44 56,42 58,42 59,41 60,41 61,40 62,40 64,42 63,43 63,58 62,59 60,59 58,57 57,57 56,56 55,56 53,54 52,54 50,56 51,56 53,58 54,58 56,60 58,60 59,61 61,61 62,62 60,64 60,65 57,68 56,68 55,69 54,69 53,70 54,70 56,72 57,72 58,71 59,71 63,67 63,66 64,65 64,64 66,62 71,62 72,61 75,61 76,60 77,60 82,55 82,52 83,51 83,49 82,48 82,45 77,40 76,40 75,39 73,39 72,38 67,38 66,37 66,31" stroke="black" stroke-width="1" /><polygon fill="none" id="2" points="66,41 67,40 69,40 70,41 72,41 73,42 74,42 75,43 76,43 77,44 77,45 78,46 78,49 79,50 78,51 78,54 74,58 73,58 72,59 70,59 69,60 67,60 66,59 66,56 67,55 67,44 66,43" stroke="black" stroke-width="1" /></svg>