<?xml version="1.0" encoding="utf-8" ?>
<svg baseProfile="full" height="100" version="1.1" width="100" xmlns="http://www.w3.org/2000/svg" xmlns:ev="http://www.w3.org/2001/xml-events" xmlns:xlink="http://www.w3.org/1999/xlink"><defs /><polygon fill="none" id="1" points="41,31 41,33 42,34 42,37 41,38 40,38 39,39 38,39 37,40 36,40 32,44 32,45 30,47 30,49 29,50 28,49 28,43 29,42 29,37 30,36 30,35 29,34 26,34 26,39 25,40 25,62 26,63 25,64 25,65 29,65 29,57 30,56 30,54 31,53 31,52 33,50 33,49 40,42 41,42 42,43 42,58 41,59 36,54 35,54 34,55 34,58 36,60 37,60 39,62 40,62 41,63 40,64 40,65 38,67 38,68 37,69 36,69 36,71 37,72 37,73 39,73 41,71 41,70 42,69 42,68 43,67 43,66 44,65 44,64 45,63 48,63 49,62 50,62 51,61 52,61 54,59 54,58 55,57 55,54 56,53 56,48 55,47 55,44 54,43 54,42 52,40 51,40 50,39 49,39 48,38 46,38 45,37 45,31" stroke="black" stroke-width="1" /><polygon fill="none" id="2" points="45,42 46,41 47,42 48,42 51,45 51,46 52,47 52,54 51,55 51,56 48,59 47,59 46,60 45,59" stroke="black" stroke-width="1" /></svg>