<?xml version="1.0" encoding="utf-8" ?>
<svg baseProfile="full" height="100" version="1.1" width="100" xmlns="http://www.w3.org/2000/svg" xmlns:ev="http://www.w3.org/2001/xml-events" xmlns:xlink="http://www.w3.org/1999/xlink"><defs /><polygon fill="none" id="1" points="46,31 46,32 47,33 47,37 46,38 45,38 44,39 43,39 42,40 41,40 39,42 38,42 37,43 37,44 34,47 34,48 33,49 33,50 32,51 31,50 31,48 32,47 32,39 33,38 33,34 29,34 29,41 28,42 28,59 29,60 29,65 33,65 33,63 32,62 32,58 33,57 33,56 34,55 34,54 35,53 35,52 37,50 37,49 43,43 44,43 45,42 46,42 47,41 48,42 48,43 47,44 47,47 48,48 48,53 47,54 47,58 46,59 41,54 39,54 38,55 38,57 42,61 43,61 44,62 45,62 46,63 45,64 45,65 40,70 40,71 42,73 44,73 46,71 46,70 48,68 48,67 49,66 49,64 50,63 54,63 55,62 57,62 61,58 61,57 62,56 62,53 63,52 63,48 62,47 62,45 61,44 61,43 57,39 55,39 54,38 51,38 50,37 50,33 51,32 51,31" stroke="black" stroke-width="1" /><polygon fill="none" id="2" points="51,42 52,41 53,42 54,42 58,46 58,47 59,48 59,52 58,53 58,55 54,59 53,59 52,60 51,60 50,59 50,58 51,57" stroke="black" stroke-width="1" /></svg>