<?xml version="1.0" encoding="utf-8" ?>
<svg baseProfile="full" height="100" version="1.1" width="100" xmlns="http://www.w3.org/2000/svg" xmlns:ev="http://www.w3.org/2001/xml-events" xmlns:xlink="http://www.w3.org/1999/xlink"><defs /><polygon fill="none" id="1" points="52,31 52,37 51,38 50,38 49,39 47,39 45,41 44,41 37,48 37,49 36,50 35,49 35,43 36,42 36,38 37,37 37,35 36,34 33,34 33,35 32,36 32,42 31,43 31,58 32,59 32,65 36,65 36,57 37,56 37,55 39,53 39,52 41,50 41,49 45,45 46,45 48,43 49,43 50,42 51,42 52,41 53,42 53,58 52,59 51,59 49,57 48,57 45,54 44,54 42,56 42,57 44,59 45,59 47,61 48,61 49,62 50,62 51,63 50,64 50,65 46,69 45,69 44,70 44,71 45,71 47,73 48,73 49,72 50,72 51,71 51,70 54,67 54,65 56,63 60,63 61,62 63,62 64,61 65,61 68,58 68,57 69,56 69,53 70,52 70,49 69,48 69,45 68,44 68,43 65,40 64,40 63,39 62,39 61,38 57,38 56,37 56,31" stroke="black" stroke-width="1" /><polygon fill="none" id="2" points="56,42 57,41 58,41 59,42 60,42 61,43 62,43 64,45 64,46 65,47 65,54 60,59 58,59 57,60 56,59 56,56 57,55 57,45 56,44" stroke="black" stroke-width="1" /></svg>