<?xml version="1.0" encoding="utf-8" ?>
<svg baseProfile="full" height="100" version="1.1" width="100" xmlns="http://www.w3.org/2000/svg" xmlns:ev="http://www.w3.org/2001/xml-events" xmlns:xlink="http://www.w3.org/1999/xlink"><defs /><polygon fill="none" id="1" points="57,31 57,36 58,37 57,38 55,38 54,39 52,39 51,40 50,40 49,41 48,41 41,48 41,49 40,50 40,51 39,52 38,51 38,47 39,46 39,41 40,40 40,37 41,36 41,35 40,34 36,34 36,36 35,37 35,43 34,44 34,57 35,58 35,65 40,65 40,62 39,61 39,60 40,59 40,57 41,56 41,55 42,54 42,53 46,49 46,48 47,47 48,47 51,44 52,44 53,43 54,43 55,42 56,42 57,41 58,42 58,58 57,59 56,59 54,57 53,57 50,54 48,54 46,56 46,57 47,58 48,58 50,60 51,60 52,61 53,61 54,62 55,62 56,63 55,64 55,65 51,69 50,69 49,70 49,71 50,72 51,72 52,73 53,73 54,72 55,72 57,70 57,69 59,67 59,66 60,65 60,64 61,63 66,63 67,62 69,62 70,61 71,61 72,60 73,60 75,58 75,57 76,56 76,53 77,52 77,49 76,48 76,45 75,44 75,43 73,41 72,41 71,40 70,40 69,39 68,39 67,38 63,38 62,37 62,31" stroke="black" stroke-width="1" /><polygon fill="none" id="2" points="62,42 63,41 64,41 65,42 66,42 67,43 68,43 71,46 71,47 72,48 72,53 70,55 70,56 68,58 67,58 66,59 64,59 63,60 62,60 61,59 62,58" stroke="black" stroke-width="1" /></svg>