<?xml version="1.0" encoding="utf-8" ?>
<svg baseProfile="full" height="100" version="1.1" width="100" xmlns="http://www.w3.org/2000/svg" xmlns:ev="http://www.w3.org/2001/xml-events" xmlns:xlink="http://www.w3.org/1999/xlink"><defs /><polygon fill="none" id="1" points="62,31 62,35 63,36 63,37 62,38 60,38 59,39 57,39 56,40 55,40 54,41 53,41 52,42 51,42 44,49 44,50 43,51 42,50 42,43 43,42 43,38 44,37 44,35 43,34 39,34 39,37 38,38 38,44 37,45 37,55 38,56 38,65 43,65 43,58 44,57 44,56 46,54 46,53 54,45 55,45 57,43 59,43 60,42 61,42 62,41 63,42 63,58 62,59 61,59 59,57 58,57 57,56 56,56 54,54 52,54 50,56 50,57 51,57 53,59 54,59 56,61 58,61 59,62 60,62 61,63 60,64 60,65 57,68 56,68 55,69 54,69 53,70 53,71 54,71 56,73 58,73 59,72 60,72 64,68 64,67 65,66 65,65 67,63 72,63 73,62 76,62 77,61 78,61 83,56 83,53 84,52 84,49 83,48 83,45 78,40 77,40 76,39 74,39 73,38 68,38 67,37 67,31" stroke="black" stroke-width="1" /><polygon fill="none" id="2" points="67,42 68,41 69,41 70,42 72,42 73,43 74,43 75,44 76,44 77,45 77,46 78,47 78,54 74,58 73,58 72,59 70,59 69,60 68,60 67,59 67,57 68,56 68,44 67,43" stroke="black" stroke-width="1" /></svg>