<?xml version="1.0" encoding="utf-8" ?>
<svg baseProfile="full" height="100" version="1.1" width="100" xmlns="http://www.w3.org/2000/svg" xmlns:ev="http://www.w3.org/2001/xml-events" xmlns:xlink="http://www.w3.org/1999/xlink"><defs /><polygon fill="none" id="1" points="42,32 43,33 43,38 42,39 41,39 40,40 39,40 38,41 37,41 33,45 33,46 31,48 31,50 30,51 30,52 29,53 28,53 27,52 27,42 28,41 28,35 27,35 27,40 26,41 26,61 27,62 27,64 28,64 28,56 29,55 29,53 30,52 30,51 32,49 32,48 39,41 40,41 41,40 42,40 43,41 43,59 42,60 40,60 36,56 35,56 35,57 37,59 38,59 40,61 41,61 42,62 42,64 41,65 41,66 39,68 39,69 38,70 37,70 38,71 38,72 40,70 40,69 41,68 41,67 42,66 42,65 43,64 43,63 44,62 47,62 48,61 49,61 50,60 51,60 53,58 53,57 54,56 54,53 55,52 55,49 54,48 54,45 53,44 53,43 51,41 50,41 49,40 48,40 47,39 45,39 44,38 44,32" stroke="black" stroke-width="1" /><polygon fill="none" id="2" points="44,41 45,40 47,40 48,41 49,41 52,44 52,45 53,46 53,55 52,56 52,57 49,60 48,60 47,61 45,61 44,60" stroke="black" stroke-width="1" /></svg>