<?xml version="1.0" encoding="utf-8" ?>
<svg baseProfile="full" height="100" version="1.1" width="100" xmlns="http://www.w3.org/2000/svg" xmlns:ev="http://www.w3.org/2001/xml-events" xmlns:xlink="http://www.w3.org/1999/xlink"><defs /><polygon fill="none" id="1" points="48,32 48,38 47,39 46,39 45,40 44,40 43,41 42,41 40,43 39,43 38,44 38,45 35,48 35,49 34,50 34,51 32,53 31,53 30,52 30,47 31,46 31,38 32,37 32,35 30,35 30,42 29,43 29,58 30,59 30,64 32,64 31,63 31,57 32,56 32,55 33,54 33,53 34,52 34,51 36,49 36,48 42,42 43,42 44,41 45,41 46,40 48,40 49,41 49,44 48,45 48,46 49,47 49,54 48,55 48,59 47,60 45,60 40,55 39,56 43,60 44,60 45,61 46,61 47,62 47,64 46,65 46,66 42,70 42,71 43,72 45,70 45,69 47,67 47,66 48,65 48,63 49,62 53,62 54,61 56,61 60,57 60,56 61,55 61,52 62,51 62,49 61,48 61,46 60,45 60,44 56,40 54,40 53,39 50,39 49,38 49,32" stroke="black" stroke-width="1" /><polygon fill="none" id="2" points="49,41 50,40 53,40 54,41 55,41 59,45 59,46 60,47 60,53 59,54 59,56 55,60 54,60 53,61 50,61 49,60 49,57 50,56 50,43 49,42" stroke="black" stroke-width="1" /></svg>