<?xml version="1.0" encoding="utf-8" ?>
<svg baseProfile="full" height="100" version="1.1" width="100" xmlns="http://www.w3.org/2000/svg" xmlns:ev="http://www.w3.org/2001/xml-events" xmlns:xlink="http://www.w3.org/1999/xlink"><defs /><polygon fill="none" id="1" points="53,32 53,38 52,39 51,39 50,40 48,40 46,42 45,42 38,49 38,50 37,51 37,52 36,53 35,53 34,52 34,42 35,41 35,37 36,36 35,35 34,35 34,36 33,37 33,43 32,44 32,57 33,58 33,64 35,64 35,56 36,55 36,54 38,52 38,51 40,49 40,48 44,44 45,44 47,42 48,42 49,41 50,41 51,40 53,40 54,41 54,59 53,60 50,60 48,58 47,58 45,56 44,56 44,57 45,58 46,58 48,60 49,60 50,61 51,61 52,62 52,64 51,65 51,66 47,70 46,70 47,71 49,71 50,70 50,69 53,66 53,64 55,62 59,62 60,61 62,61 63,60 64,60 67,57 67,56 68,55 68,52 69,51 69,50 68,49 68,46 67,45 67,44 64,41 63,41 62,40 61,40 60,39 56,39 55,38 55,32" stroke="black" stroke-width="1" /><polygon fill="none" id="2" points="55,41 56,40 59,40 60,41 61,41 62,42 63,42 65,44 65,45 66,46 66,55 61,60 59,60 58,61 56,61 55,60 55,55 56,54 56,46 55,45" stroke="black" stroke-width="1" /></svg>