<?xml version="1.0" encoding="utf-8" ?>
<svg baseProfile="full" height="100" version="1.1" width="100" xmlns="http://www.w3.org/2000/svg" xmlns:ev="http://www.w3.org/2001/xml-events" xmlns:xlink="http://www.w3.org/1999/xlink"><defs /><polygon fill="none" id="1" points="58,32 58,35 59,36 59,38 58,39 56,39 55,40 53,40 52,41 51,41 50,42 49,42 42,49 42,50 41,51 41,52 40,53 38,53 37,52 37,46 38,45 38,40 39,39 39,35 37,35 37,37 36,38 36,44 35,45 35,56 36,57 36,64 39,64 39,63 38,62 38,59 39,58 39,56 40,55 40,54 41,53 41,52 45,48 45,47 46,46 47,46 50,43 51,43 52,42 53,42 54,41 55,41 56,40 58,40 59,41 59,59 58,60 55,60 53,58 52,58 49,55 48,56 48,57 49,57 51,59 52,59 53,60 54,60 55,61 56,61 57,62 57,64 56,65 56,66 52,70 51,70 51,71 54,71 56,69 56,68 58,66 58,65 59,64 59,63 60,62 65,62 66,61 68,61 69,60 70,60 71,59 72,59 74,57 74,56 75,55 75,52 76,51 76,50 75,49 75,46 74,45 74,44 72,42 71,42 70,41 69,41 68,40 67,40 66,39 62,39 61,38 61,32" stroke="black" stroke-width="1" /><polygon fill="none" id="2" points="61,41 62,40 65,40 66,41 67,41 68,42 69,42 72,45 72,46 73,47 73,54 71,56 71,57 69,59 68,59 67,60 65,60 64,61 61,61 60,60 60,58 61,57" stroke="black" stroke-width="1" /></svg>