<?xml version="1.0" encoding="utf-8" ?>
<svg baseProfile="full" height="100" version="1.1" width="100" xmlns="http://www.w3.org/2000/svg" xmlns:ev="http://www.w3.org/2001/xml-events" xmlns:xlink="http://www.w3.org/1999/xlink"><defs /><polygon fill="none" id="1" points="35,31 35,32 34,33 34,37 32,39 29,39 28,38 26,38 26,42 33,42 34,43 34,48 30,52 29,52 29,53 26,56 26,57 25,58 25,60 24,61 24,68 26,70 30,70 31,69 32,69 34,67 35,68 35,70 36,70 37,69 38,69 38,66 37,65 38,64 38,63 41,60 41,59 42,58 42,57 43,56 43,55 44,54 44,52 45,51 45,50 46,49 47,49 52,54 52,62 47,67 46,67 45,68 42,68 41,69 41,70 42,71 42,72 46,72 47,71 48,71 49,70 50,70 54,66 54,65 55,64 55,62 56,61 56,56 55,55 55,52 54,51 54,50 52,48 51,48 50,47 49,47 48,46 47,46 46,45 46,43 43,43 43,45 42,46 40,46 39,47 38,47 37,46 37,42 38,41 41,41 42,40 46,40 47,39 49,39 49,35 47,35 46,36 44,36 43,37 40,37 39,38 38,38 37,37 37,36 38,35 38,31" stroke="black" stroke-width="1" /><polygon fill="none" id="2" points="32,54 33,53 34,54 34,63 31,66 30,66 29,67 27,65 27,63 28,62 28,60 30,58 30,57 32,55" stroke="black" stroke-width="1" /><polygon fill="none" id="3" points="39,50 40,49 41,49 42,50 41,51 41,52 40,53 40,55 39,56 39,57 38,58 38,59 37,60 36,59 36,57 37,56 37,54 36,53 36,52 38,50" stroke="black" stroke-width="1" /></svg>