<?xml version="1.0" encoding="utf-8" ?>
<svg baseProfile="full" height="100" version="1.1" width="100" xmlns="http://www.w3.org/2000/svg" xmlns:ev="http://www.w3.org/2001/xml-events" xmlns:xlink="http://www.w3.org/1999/xlink"><defs /><polygon fill="none" id="1" points="64,44 63,45 54,45 53,46 43,46 43,48 49,48 50,47 57,47 58,46 63,46 64,47 64,48 59,53 58,53 51,60 50,60 43,67 42,67 39,70 38,70 40,72 45,67 46,67 51,62 52,62 53,61 54,61 55,60 56,60 57,59 61,59 63,61 63,67 64,68 64,69 65,69 66,70 67,70 68,71 82,71 82,70 81,69 79,69 78,70 68,70 66,68 66,61 65,60 65,59 64,59 63,58 60,58 59,59 57,59 56,58 56,57 61,52 62,52 67,47 68,47 69,46 67,44" stroke="black" stroke-width="1" /><polygon fill="none" id="2" points="51,33 50,34 52,34 53,35 56,35 57,36 59,36 60,37 62,37 63,38 64,38 65,39 67,37 66,37 65,36 63,36 62,35 59,35 58,34 56,34 55,33" stroke="black" stroke-width="1" /></svg>