<?xml version="1.0" encoding="utf-8" ?>
<svg baseProfile="full" height="100" version="1.1" width="100" xmlns="http://www.w3.org/2000/svg" xmlns:ev="http://www.w3.org/2001/xml-events" xmlns:xlink="http://www.w3.org/1999/xlink"><defs /><polygon fill="none" id="1" points="63,32 63,34 64,35 64,38 63,39 61,39 60,40 58,40 57,41 56,41 55,42 54,42 53,43 52,43 45,50 45,51 43,53 42,53 41,52 41,42 42,41 42,37 43,36 42,35 40,35 40,38 39,39 39,45 38,46 38,54 39,55 39,64 42,64 42,57 43,56 43,55 45,53 45,52 53,44 54,44 56,42 58,42 59,41 60,41 61,40 63,40 65,42 65,43 64,44 64,59 63,60 60,60 58,58 57,58 56,57 55,57 53,55 52,56 54,58 55,58 57,60 59,60 60,61 62,61 63,62 63,63 61,65 61,66 58,69 57,69 56,70 55,70 57,72 58,71 59,71 63,67 63,66 64,65 64,64 66,62 71,62 72,61 75,61 76,60 77,60 82,55 82,52 83,51 83,50 82,49 82,46 77,41 76,41 75,40 73,40 72,39 67,39 66,38 66,32" stroke="black" stroke-width="1" /><polygon fill="none" id="2" points="66,41 67,40 70,40 71,41 73,41 74,42 75,42 76,43 77,43 78,44 78,45 79,46 79,49 80,50 80,51 79,52 79,55 75,59 74,59 73,60 71,60 70,61 67,61 66,60 66,56 67,55 67,45 66,44" stroke="black" stroke-width="1" /></svg>