<?xml version="1.0" encoding="utf-8" ?>
<svg baseProfile="full" height="100" version="1.1" width="100" xmlns="http://www.w3.org/2000/svg" xmlns:ev="http://www.w3.org/2001/xml-events" xmlns:xlink="http://www.w3.org/1999/xlink"><defs /><polygon fill="none" id="1" points="40,30 40,33 41,34 41,36 40,37 39,37 38,38 37,38 36,39 35,39 31,43 31,44 29,46 28,45 28,43 29,42 29,37 30,36 30,34 29,33 25,33 25,38 24,39 24,65 29,65 29,57 30,56 30,54 31,53 31,52 33,50 33,49 40,42 41,43 41,56 40,57 36,53 34,53 33,54 33,58 35,60 36,60 39,63 39,64 37,66 37,67 36,68 35,68 35,71 36,72 36,73 39,73 41,71 41,70 42,69 42,68 43,67 43,66 44,65 44,64 45,63 48,63 49,62 50,62 51,61 52,61 54,59 54,58 55,57 55,54 56,53 56,47 55,46 55,43 54,42 54,41 52,39 51,39 50,38 49,38 48,37 46,37 45,36 45,30" stroke="black" stroke-width="1" /><polygon fill="none" id="2" points="45,43 46,42 47,42 50,45 50,46 51,47 51,53 50,54 50,55 47,58 46,58 45,57" stroke="black" stroke-width="1" /></svg>