<?xml version="1.0" encoding="utf-8" ?>
<svg baseProfile="full" height="100" version="1.1" width="100" xmlns="http://www.w3.org/2000/svg" xmlns:ev="http://www.w3.org/2001/xml-events" xmlns:xlink="http://www.w3.org/1999/xlink"><defs /><polygon fill="none" id="1" points="45,30 45,32 46,33 46,36 45,37 44,37 43,38 42,38 41,39 40,39 38,41 37,41 36,42 36,43 33,46 32,45 32,39 33,38 33,33 28,33 28,40 27,41 27,59 28,60 28,65 33,65 33,62 32,61 32,58 33,57 33,56 34,55 34,54 35,53 35,52 37,50 37,49 43,43 44,43 45,42 46,43 46,47 47,48 47,52 46,53 46,56 45,57 41,53 38,53 37,54 37,57 41,61 42,61 44,63 44,64 39,69 39,71 41,73 44,73 46,71 46,70 48,68 48,67 49,66 49,64 50,63 54,63 55,62 57,62 61,58 61,57 62,56 62,53 63,52 63,47 62,46 62,44 61,43 61,42 57,38 55,38 54,37 51,37 50,36 50,33 51,32 51,30" stroke="black" stroke-width="1" /><polygon fill="none" id="2" points="50,58 51,57 52,58 51,59" stroke="black" stroke-width="1" /><polygon fill="none" id="3" points="51,43 52,42 53,42 57,46 57,47 58,48 58,51 57,52 57,54 53,58 52,58 51,57" stroke="black" stroke-width="1" /></svg>