<?xml version="1.0" encoding="utf-8" ?>
<svg baseProfile="full" height="100" version="1.1" width="100" xmlns="http://www.w3.org/2000/svg" xmlns:ev="http://www.w3.org/2001/xml-events" xmlns:xlink="http://www.w3.org/1999/xlink"><defs /><polygon fill="none" id="1" points="51,30 51,36 50,37 49,37 48,38 46,38 44,40 43,40 36,47 35,46 35,43 36,42 36,38 37,37 37,34 36,33 32,33 32,34 31,35 31,41 30,42 30,58 31,59 31,65 36,65 36,57 37,56 37,55 39,53 39,52 41,50 41,49 45,45 46,45 48,43 49,43 50,42 51,42 52,43 52,57 51,58 49,56 48,56 45,53 43,53 41,55 41,57 43,59 44,59 46,61 47,61 49,63 49,64 45,68 44,68 43,69 43,71 44,71 46,73 48,73 49,72 50,72 51,71 51,70 54,67 54,65 56,63 60,63 61,62 63,62 64,61 65,61 68,58 68,57 69,56 69,53 70,52 70,48 69,47 69,44 68,43 68,42 65,39 64,39 63,38 62,38 61,37 57,37 56,36 56,30" stroke="black" stroke-width="1" /><polygon fill="none" id="2" points="56,42 57,41 58,42 59,42 60,43 61,43 63,45 63,46 64,47 64,53 59,58 57,58 56,57 56,56 57,55 57,44 56,43" stroke="black" stroke-width="1" /></svg>