<?xml version="1.0" encoding="utf-8" ?>
<svg baseProfile="full" height="100" version="1.1" width="100" xmlns="http://www.w3.org/2000/svg" xmlns:ev="http://www.w3.org/2001/xml-events" xmlns:xlink="http://www.w3.org/1999/xlink"><defs /><polygon fill="none" id="1" points="56,30 56,36 55,37 54,37 53,38 51,38 50,39 49,39 48,40 47,40 40,47 39,46 39,41 40,40 40,37 41,36 41,34 40,33 35,33 35,35 34,36 34,42 33,43 33,57 34,58 34,65 40,65 40,61 39,60 40,59 40,57 41,56 41,55 42,54 42,53 46,49 46,48 47,47 48,47 51,44 52,44 53,43 54,43 55,42 56,42 57,43 57,57 56,58 54,56 53,56 50,53 47,53 45,55 45,57 46,58 47,58 49,60 50,60 51,61 52,61 54,63 54,64 50,68 49,68 48,69 48,71 49,72 50,72 51,73 53,73 54,72 55,72 57,70 57,69 59,67 59,66 60,65 60,64 61,63 66,63 67,62 69,62 70,61 71,61 72,60 73,60 75,58 75,57 76,56 76,53 77,52 77,48 76,47 76,44 75,43 75,42 73,40 72,40 71,39 70,39 69,38 68,38 67,37 63,37 62,36 62,30" stroke="black" stroke-width="1" /><polygon fill="none" id="2" points="38,47 39,46 40,47 40,48 39,49 38,48" stroke="black" stroke-width="1" /><polygon fill="none" id="3" points="62,42 63,41 64,42 65,42 66,43 67,43 70,46 70,47 71,48 71,52 69,54 69,55 67,57 66,57 65,58 63,58 62,57" stroke="black" stroke-width="1" /></svg>