<?xml version="1.0" encoding="utf-8" ?>
<svg baseProfile="full" height="100" version="1.1" width="100" xmlns="http://www.w3.org/2000/svg" xmlns:ev="http://www.w3.org/2001/xml-events" xmlns:xlink="http://www.w3.org/1999/xlink"><defs /><polygon fill="none" id="1" points="61,30 61,35 62,36 61,37 59,37 58,38 56,38 55,39 54,39 53,40 52,40 51,41 50,41 43,48 42,47 42,43 43,42 43,38 44,37 44,34 43,33 38,33 38,36 37,37 37,43 36,44 36,55 37,56 37,65 43,65 43,58 44,57 44,56 46,54 46,53 54,45 55,45 57,43 59,43 60,42 61,42 62,43 62,57 61,58 59,56 58,56 57,55 56,55 54,53 51,53 49,55 49,57 50,57 52,59 53,59 55,61 57,61 59,63 59,64 56,67 55,67 54,68 53,68 52,69 52,71 53,71 55,73 58,73 59,72 60,72 64,68 64,67 65,66 65,65 67,63 72,63 73,62 76,62 77,61 78,61 83,56 83,53 84,52 84,48 83,47 83,44 78,39 77,39 76,38 74,38 73,37 68,37 67,36 67,30" stroke="black" stroke-width="1" /><polygon fill="none" id="2" points="68,43 69,42 71,42 72,43 73,43 74,44 75,44 76,45 76,46 77,47 77,53 73,57 72,57 71,58 69,58 68,59 67,58 67,57 68,56" stroke="black" stroke-width="1" /><polygon fill="none" id="3" points="67,42 68,41 69,42 68,43" stroke="black" stroke-width="1" /></svg>