<?xml version="1.0" encoding="utf-8" ?>
<svg baseProfile="full" height="100" version="1.1" width="100" xmlns="http://www.w3.org/2000/svg" xmlns:ev="http://www.w3.org/2001/xml-events" xmlns:xlink="http://www.w3.org/1999/xlink"><defs /><polygon fill="none" id="1" points="40,67 39,68 39,69 38,70 39,69 39,68" stroke="black" stroke-width="1" /><polygon fill="none" id="2" points="41,65" stroke="black" stroke-width="1" /><polygon fill="none" id="3" points="48,60" stroke="black" stroke-width="1" /><polygon fill="none" id="4" points="35,56 37,58" stroke="black" stroke-width="1" /><polygon fill="none" id="5" points="31,48" stroke="black" stroke-width="1" /><polygon fill="none" id="6" points="50,41 52,43 52,44 53,45 53,55 52,56 52,57 50,59 52,57 52,56 53,55 53,52 54,51 54,49 53,48 53,45 52,44 52,43" stroke="black" stroke-width="1" /><polygon fill="none" id="7" points="37,41 33,45" stroke="black" stroke-width="1" /><polygon fill="none" id="8" points="48,40" stroke="black" stroke-width="1" /><polygon fill="none" id="9" points="39,40" stroke="black" stroke-width="1" /><polygon fill="none" id="10" points="27,35 27,40 26,41 26,60 27,61 27,63 27,55 28,54 28,53 27,53 26,52 26,41 27,40" stroke="black" stroke-width="1" /><polygon fill="none" id="11" points="43,32 43,38 42,39 41,39 42,39 43,40 43,59 42,60 40,60 41,60 42,61 42,63 42,62 43,61 46,61 44,61 43,60 43,40 44,39 46,39 44,39 43,38" stroke="black" stroke-width="1" /></svg>