<?xml version="1.0" encoding="utf-8" ?>
<svg baseProfile="full" height="100" version="1.1" width="100" xmlns="http://www.w3.org/2000/svg" xmlns:ev="http://www.w3.org/2001/xml-events" xmlns:xlink="http://www.w3.org/1999/xlink"><defs /><polygon fill="none" id="1" points="40,56 43,59" stroke="black" stroke-width="1" /><polygon fill="none" id="2" points="35,48" stroke="black" stroke-width="1" /><polygon fill="none" id="3" points="49,43 49,44 48,45 49,46 49,54 48,55 48,59 47,60 45,60 46,60 47,61 47,64 46,65 46,66 42,70 43,70 44,69 44,68 46,66 46,65 47,64 47,62 48,61 52,61 49,61 48,60 48,56 49,55" stroke="black" stroke-width="1" /><polygon fill="none" id="4" points="39,43 38,44" stroke="black" stroke-width="1" /><polygon fill="none" id="5" points="42,41" stroke="black" stroke-width="1" /><polygon fill="none" id="6" points="54,40 55,40 59,44 59,45 60,46 60,53 59,54 59,56 55,60 54,60 55,60 59,56 59,55 60,54 60,51 61,50 61,49 60,48 60,46 59,45 59,44 55,40" stroke="black" stroke-width="1" /><polygon fill="none" id="7" points="44,40" stroke="black" stroke-width="1" /><polygon fill="none" id="8" points="30,35 30,42 29,43 29,57 30,58 30,63 30,56 31,55 31,54 32,53 30,53 29,52 29,46 30,45 30,37 31,36 31,35" stroke="black" stroke-width="1" /><polygon fill="none" id="9" points="48,32 48,38 47,39 46,39 52,39 49,39 48,38" stroke="black" stroke-width="1" /></svg>