<?xml version="1.0" encoding="utf-8" ?>
<svg baseProfile="full" height="100" version="1.1" width="100" xmlns="http://www.w3.org/2000/svg" xmlns:ev="http://www.w3.org/2001/xml-events" xmlns:xlink="http://www.w3.org/1999/xlink"><defs /><polygon fill="none" id="1" points="47,58 48,59" stroke="black" stroke-width="1" /><polygon fill="none" id="2" points="44,56 45,57" stroke="black" stroke-width="1" /><polygon fill="none" id="3" points="37,51" stroke="black" stroke-width="1" /><polygon fill="none" id="4" points="39,48 38,49" stroke="black" stroke-width="1" /><polygon fill="none" id="5" points="45,42 44,43" stroke="black" stroke-width="1" /><polygon fill="none" id="6" points="48,40 47,41 48,40 49,40" stroke="black" stroke-width="1" /><polygon fill="none" id="7" points="34,35 34,36 33,37 33,43 32,44 32,56 33,57 33,63 34,63 34,55 35,54 35,53 34,53 33,52 33,41 34,40" stroke="black" stroke-width="1" /><polygon fill="none" id="8" points="53,32 53,38 52,39 51,39 53,39 54,40 54,59 53,60 50,60 51,60 52,61 52,64 51,65 51,66 47,70 48,70 49,69 49,68 52,65 52,63 54,61 58,61 59,60 61,60 62,59 63,59 66,56 66,55 67,54 67,51 68,50 67,49 67,46 66,45 66,44 63,41 62,41 61,40 60,40 59,39 55,39 54,38 54,32" stroke="black" stroke-width="1" /><polygon fill="none" id="9" points="54,40 55,39 59,39 60,40 61,40 62,41 63,41 65,43 65,44 66,45 66,55 61,60 59,60 58,61 55,61 54,60 54,54 55,53 55,46 54,45" stroke="black" stroke-width="1" /></svg>