<?xml version="1.0" encoding="utf-8" ?>
<svg baseProfile="full" height="100" version="1.1" width="100" xmlns="http://www.w3.org/2000/svg" xmlns:ev="http://www.w3.org/2001/xml-events" xmlns:xlink="http://www.w3.org/1999/xlink"><defs /><polygon fill="none" id="1" points="48,56 49,56 51,58 52,58 53,59 52,58 51,58 49,56" stroke="black" stroke-width="1" /><polygon fill="none" id="2" points="44,47 42,49" stroke="black" stroke-width="1" /><polygon fill="none" id="3" points="53,40 52,41 51,41 50,42 49,42 46,45 49,42 50,42 51,41 52,41 53,40 54,40" stroke="black" stroke-width="1" /><polygon fill="none" id="4" points="37,35 37,37 36,38 36,44 35,45 35,55 36,56 36,63 38,63 37,62 37,58 38,57 38,55 39,54 39,53 37,53 36,52 36,45 37,44 37,39 38,38 38,35" stroke="black" stroke-width="1" /><polygon fill="none" id="5" points="58,32 58,34 59,35 59,38 58,39 56,39 58,39 59,40 59,59 58,60 55,60 56,60 57,61 57,64 56,65 56,66 52,70 51,70 53,70 55,68 55,67 57,65 57,64 58,63 58,62 59,61 64,61 65,60 67,60 68,59 69,59 70,58 71,58 73,56 73,55 74,54 74,51 75,50 74,49 74,46 73,45 73,44 71,42 70,42 69,41 68,41 67,40 66,40 65,39 61,39 60,38 60,32" stroke="black" stroke-width="1" /><polygon fill="none" id="6" points="60,40 61,39 65,39 66,40 67,40 68,41 69,41 72,44 72,45 73,46 73,54 71,56 71,57 69,59 68,59 67,60 65,60 64,61 60,61 59,60 59,57 60,56" stroke="black" stroke-width="1" /></svg>