<?xml version="1.0" encoding="utf-8" ?>
<svg baseProfile="full" height="100" version="1.1" width="100" xmlns="http://www.w3.org/2000/svg" xmlns:ev="http://www.w3.org/2001/xml-events" xmlns:xlink="http://www.w3.org/1999/xlink"><defs /><polygon fill="none" id="1" points="41,42 40,43 34,43 33,44 27,44 27,49 34,49 35,48 38,48 39,49 36,52 36,53 34,55 34,56 30,60 30,61 27,64 27,65 24,68 24,72 25,73 28,73 28,72 30,70 30,69 33,66 33,65 37,61 38,61 39,60 40,61 40,62 41,63 41,70 42,71 43,71 44,72 55,72 55,67 51,67 50,68 46,68 45,67 45,60 44,59 44,57 43,56 41,56 40,55 43,52 43,51 47,47 47,44 45,42" stroke="black" stroke-width="1" /><polygon fill="none" id="2" points="32,31 32,35 33,35 34,36 35,36 36,37 38,37 40,39 41,39 42,40 44,40 45,39 45,38 46,37 46,35 45,35 44,34 43,34 42,33 41,33 40,32 38,32 37,31" stroke="black" stroke-width="1" /></svg>