<?xml version="1.0" encoding="utf-8" ?>
<svg baseProfile="full" height="100" version="1.1" width="100" xmlns="http://www.w3.org/2000/svg" xmlns:ev="http://www.w3.org/2001/xml-events" xmlns:xlink="http://www.w3.org/1999/xlink"><defs /><polygon fill="none" id="1" points="53,56 54,57 55,57 57,59 58,59 57,58 56,58 55,57 54,57" stroke="black" stroke-width="1" /><polygon fill="none" id="2" points="54,42 53,43 52,43 45,50 52,43 53,43" stroke="black" stroke-width="1" /><polygon fill="none" id="3" points="58,40 57,41 56,41 57,41 58,40 59,40" stroke="black" stroke-width="1" /><polygon fill="none" id="4" points="40,35 40,38 39,39 39,45 38,46 38,53 39,54 39,63 41,63 41,56 42,55 42,54 44,52 43,53 41,53 40,52 40,41 41,40 41,35" stroke="black" stroke-width="1" /><polygon fill="none" id="5" points="63,32 63,33 64,34 64,38 63,39 61,39 63,39 65,41 65,43 64,44 64,59 63,60 60,60 62,60 63,61 63,63 61,65 61,66 58,69 57,69 56,70 58,70 62,66 62,65 63,64 63,63 65,61 70,61 71,60 74,60 75,59 76,59 81,54 81,51 82,50 81,49 81,46 76,41 75,41 74,40 72,40 71,39 66,39 65,38 65,32" stroke="black" stroke-width="1" /><polygon fill="none" id="6" points="65,40 66,39 70,39 71,40 73,40 74,41 75,41 76,42 77,42 78,43 78,44 79,45 79,48 80,49 80,51 79,52 79,55 75,59 74,59 73,60 71,60 70,61 66,61 65,60 65,55 66,54 66,45 65,44" stroke="black" stroke-width="1" /></svg>