<?xml version="1.0" encoding="utf-8" ?>
<svg baseProfile="full" height="100" version="1.1" width="100" xmlns="http://www.w3.org/2000/svg" xmlns:ev="http://www.w3.org/2001/xml-events" xmlns:xlink="http://www.w3.org/1999/xlink"><defs /><polygon fill="none" id="1" points="47,32 47,55 48,56 48,58 47,59 46,59 45,58 38,58 37,59 36,59 35,60 34,60 33,61 33,62 32,63 32,66 33,67 33,68 34,69 35,69 36,70 37,70 38,71 46,71 47,70 48,70 50,68 50,67 51,66 51,65 50,64 52,62 53,63 54,63 55,64 56,64 57,65 58,65 59,66 60,66 62,68 63,68 64,69 64,68 66,66 65,66 64,65 63,65 62,64 61,64 60,63 59,63 58,62 57,62 56,61 55,61 54,60 52,60 50,58 50,48 49,47 51,45 59,45 60,44 63,44 63,42 62,41 60,41 59,42 55,42 54,43 50,43 49,42 49,40 50,39 49,38 49,37 50,36 50,32" stroke="black" stroke-width="1" /><polygon fill="none" id="2" points="38,61 39,60 45,60 46,61 47,61 48,62 48,66 45,69 39,69 38,68 37,68 35,66 35,63 37,61" stroke="black" stroke-width="1" /></svg>