<?xml version="1.0" encoding="utf-8" ?>
<svg baseProfile="full" height="100" version="1.1" width="100" xmlns="http://www.w3.org/2000/svg" xmlns:ev="http://www.w3.org/2001/xml-events" xmlns:xlink="http://www.w3.org/1999/xlink"><defs /><polygon fill="none" id="1" points="56,32 56,50 57,51 57,56 58,57 58,58 57,59 55,59 54,58 46,58 45,59 43,59 42,60 41,60 39,62 39,64 38,65 39,66 39,67 41,69 42,69 43,70 45,70 46,71 56,71 57,70 58,70 60,68 60,67 61,66 61,63 62,62 63,63 65,63 66,64 67,64 68,65 70,65 71,66 72,66 73,67 74,67 76,69 77,69 77,68 79,66 78,66 77,65 76,65 75,64 74,64 73,63 71,63 70,62 69,62 68,61 66,61 65,60 62,60 60,58 60,48 59,47 61,45 71,45 72,44 76,44 76,43 75,42 75,41 73,41 72,42 66,42 65,43 60,43 59,42 59,40 60,39 60,32" stroke="black" stroke-width="1" /><polygon fill="none" id="2" points="46,61 47,60 54,60 55,61 57,61 58,62 58,65 54,69 47,69 46,68 45,68 42,65 42,63 44,61" stroke="black" stroke-width="1" /></svg>