<?xml version="1.0" encoding="utf-8" ?>
<svg baseProfile="full" height="100" version="1.1" width="100" xmlns="http://www.w3.org/2000/svg" xmlns:ev="http://www.w3.org/2001/xml-events" xmlns:xlink="http://www.w3.org/1999/xlink"><defs /><polygon fill="none" id="1" points="37,32 37,41 38,42 38,58 37,59 36,58 31,58 30,59 29,59 28,60 27,60 27,61 26,62 26,67 27,68 27,69 28,70 29,70 30,71 37,71 40,68 40,63 41,62 42,63 43,63 45,65 46,65 48,67 49,67 51,69 51,68 53,66 52,66 50,64 49,64 47,62 46,62 45,61 44,61 43,60 41,60 40,59 40,48 39,47 41,45 47,45 48,44 50,44 50,41 48,41 47,42 44,42 43,43 40,43 39,42 39,36 40,35 40,32" stroke="black" stroke-width="1" /><polygon fill="none" id="2" points="31,60 36,60 38,62 38,67 37,68 36,68 35,69 31,69 28,66 28,63" stroke="black" stroke-width="1" /></svg>