<?xml version="1.0" encoding="utf-8" ?>
<svg baseProfile="full" height="100" version="1.1" width="100" xmlns="http://www.w3.org/2000/svg" xmlns:ev="http://www.w3.org/2001/xml-events" xmlns:xlink="http://www.w3.org/1999/xlink"><defs /><polygon fill="none" id="1" points="42,32 42,53 43,54 43,58 42,59 41,59 40,58 34,58 33,59 32,59 30,61 30,62 29,63 29,67 32,70 33,70 34,71 42,71 45,68 45,63 46,62 47,63 48,63 49,64 50,64 51,65 52,65 53,66 54,66 57,69 59,67 59,66 58,65 57,65 56,64 55,64 54,63 53,63 51,61 49,61 48,60 46,60 45,59 45,48 44,47 46,45 53,45 54,44 57,44 57,43 56,42 56,41 54,41 53,42 50,42 49,43 45,43 44,42 44,37 45,36 45,32" stroke="black" stroke-width="1" /><polygon fill="none" id="2" points="34,61 35,60 41,60 43,62 43,66 40,69 35,69 34,68 33,68 32,67 32,66 31,65 31,64 32,63 32,62 33,61" stroke="black" stroke-width="1" /></svg>