<?xml version="1.0" encoding="utf-8" ?>
<svg baseProfile="full" height="100" version="1.1" width="100" xmlns="http://www.w3.org/2000/svg" xmlns:ev="http://www.w3.org/2001/xml-events" xmlns:xlink="http://www.w3.org/1999/xlink"><defs /><polygon fill="none" id="1" points="51,32 51,34 52,35 52,56 53,57 53,58 52,59 51,59 50,58 42,58 41,59 39,59 36,62 36,63 35,64 35,66 36,67 36,68 37,68 39,70 41,70 42,71 51,71 52,70 53,70 55,68 55,67 56,66 56,63 57,62 58,63 59,63 60,64 61,64 62,65 64,65 65,66 66,66 68,68 69,68 70,69 73,66 72,66 71,65 70,65 69,64 68,64 67,63 65,63 64,62 63,62 62,61 60,61 59,60 57,60 55,58 55,48 54,47 56,45 65,45 66,44 70,44 69,43 69,41 67,41 66,42 60,42 59,43 55,43 54,42 54,40 55,39 55,32" stroke="black" stroke-width="1" /><polygon fill="none" id="2" points="42,61 43,60 50,60 51,61 52,61 53,62 53,66 51,68 50,68 49,69 43,69 42,68 41,68 39,66 39,63 41,61" stroke="black" stroke-width="1" /></svg>