<?xml version="1.0" encoding="utf-8" ?>
<svg baseProfile="full" height="100" version="1.1" width="100" xmlns="http://www.w3.org/2000/svg" xmlns:ev="http://www.w3.org/2001/xml-events" xmlns:xlink="http://www.w3.org/1999/xlink"><defs /><polygon fill="none" id="1" points="46,42 45,43 39,43 38,44 30,44 30,47 31,48 31,49 38,49 39,48 43,48 44,49 40,53 40,54 33,61 33,62 27,68 27,71 29,73 31,73 32,72 32,71 42,61 43,61 44,60 46,62 46,69 47,70 47,71 48,71 49,72 62,72 62,67 57,67 56,68 52,68 50,66 50,58 48,56 46,56 45,55 50,50 50,49 52,47 52,43 51,42" stroke="black" stroke-width="1" /><polygon fill="none" id="2" points="43,48 44,47 45,48 44,49" stroke="black" stroke-width="1" /><polygon fill="none" id="3" points="37,31 36,32 36,35 37,35 38,36 40,36 41,37 43,37 44,38 45,38 47,40 50,40 50,39 51,38 51,35 50,35 49,34 48,34 47,33 46,33 45,32 43,32 42,31" stroke="black" stroke-width="1" /></svg>