<?xml version="1.0" encoding="utf-8" ?>
<svg baseProfile="full" height="100" version="1.1" width="100" xmlns="http://www.w3.org/2000/svg" xmlns:ev="http://www.w3.org/2001/xml-events" xmlns:xlink="http://www.w3.org/1999/xlink"><defs /><polygon fill="none" id="1" points="37,32 37,42 38,43 38,57 37,58 31,58 30,59 29,59 28,60 27,60 27,61 26,62 26,68 27,69 27,70 28,71 29,71 30,72 38,72 41,69 41,65 42,64 43,64 45,66 46,66 48,68 49,68 51,70 52,70 52,69 54,67 54,66 53,66 51,64 50,64 48,62 47,62 46,61 45,61 44,60 42,60 41,59 41,47 42,46 48,46 49,45 51,45 51,41 48,41 47,42 44,42 43,43 41,43 40,42 40,37 41,36 41,32" stroke="black" stroke-width="1" /><polygon fill="none" id="2" points="32,61 36,61 38,63 38,67 37,68 36,68 35,69 32,69 29,66 29,64" stroke="black" stroke-width="1" /></svg>