<?xml version="1.0" encoding="utf-8" ?>
<svg baseProfile="full" height="100" version="1.1" width="100" xmlns="http://www.w3.org/2000/svg" xmlns:ev="http://www.w3.org/2001/xml-events" xmlns:xlink="http://www.w3.org/1999/xlink"><defs /><polygon fill="none" id="1" points="42,32 42,54 43,55 43,58 42,59 41,58 34,58 33,59 32,59 30,61 30,62 29,63 29,68 32,71 33,71 34,72 43,72 46,69 46,65 47,64 48,64 49,65 50,65 51,66 52,66 53,67 54,67 57,70 58,70 60,68 60,66 59,65 58,65 57,64 56,64 55,63 54,63 52,61 50,61 49,60 47,60 46,59 46,47 47,46 54,46 55,45 58,45 58,43 57,42 57,41 54,41 53,42 50,42 49,43 46,43 45,42 45,38 46,37 46,32" stroke="black" stroke-width="1" /><polygon fill="none" id="2" points="35,62 36,61 41,61 43,63 43,66 40,69 36,69 35,68 34,68 33,67 33,66 32,65 33,64 33,63 34,62" stroke="black" stroke-width="1" /></svg>