<?xml version="1.0" encoding="utf-8" ?>
<svg baseProfile="full" height="100" version="1.1" width="100" xmlns="http://www.w3.org/2000/svg" xmlns:ev="http://www.w3.org/2001/xml-events" xmlns:xlink="http://www.w3.org/1999/xlink"><defs /><polygon fill="none" id="1" points="47,32 47,56 48,57 48,58 47,59 46,58 38,58 37,59 36,59 35,60 34,60 33,61 33,62 32,63 32,67 33,68 33,69 34,70 35,70 36,71 37,71 38,72 47,72 48,71 49,71 51,69 51,68 52,67 52,65 53,64 54,64 55,65 56,65 57,66 58,66 59,67 60,67 62,69 63,69 64,70 65,70 65,69 67,67 67,66 66,66 65,65 64,65 63,64 62,64 61,63 60,63 59,62 58,62 57,61 56,61 55,60 53,60 51,58 51,47 52,46 60,46 61,45 64,45 64,42 63,41 60,41 59,42 55,42 54,43 51,43 50,42 50,41 51,40 51,39 50,38 51,37 51,32" stroke="black" stroke-width="1" /><polygon fill="none" id="2" points="39,62 40,61 45,61 46,62 47,62 48,63 48,66 45,69 40,69 39,68 38,68 36,66 36,64 38,62" stroke="black" stroke-width="1" /></svg>