<?xml version="1.0" encoding="utf-8" ?>
<svg baseProfile="full" height="100" version="1.1" width="100" xmlns="http://www.w3.org/2000/svg" xmlns:ev="http://www.w3.org/2001/xml-events" xmlns:xlink="http://www.w3.org/1999/xlink"><defs /><polygon fill="none" id="1" points="51,32 51,35 52,36 52,57 51,58 42,58 41,59 39,59 36,62 36,63 35,64 35,67 36,68 36,69 37,69 39,71 41,71 42,72 52,72 53,71 54,71 56,69 56,68 57,67 57,65 58,64 59,64 60,65 61,65 62,66 64,66 65,67 66,67 68,69 69,69 70,70 71,70 74,67 74,66 73,66 72,65 71,65 70,64 69,64 68,63 66,63 65,62 64,62 63,61 61,61 60,60 58,60 56,58 56,47 57,46 66,46 67,45 71,45 71,44 70,43 70,41 67,41 66,42 60,42 59,43 56,43 55,42 55,41 56,40 56,32" stroke="black" stroke-width="1" /><polygon fill="none" id="2" points="43,62 44,61 50,61 51,62 52,62 53,63 53,66 51,68 50,68 49,69 44,69 43,68 42,68 40,66 40,64 42,62" stroke="black" stroke-width="1" /><polygon fill="none" id="3" points="51,58 52,57 53,58 52,59" stroke="black" stroke-width="1" /></svg>