<?xml version="1.0" encoding="utf-8" ?>
<svg baseProfile="full" height="100" version="1.1" width="100" xmlns="http://www.w3.org/2000/svg" xmlns:ev="http://www.w3.org/2001/xml-events" xmlns:xlink="http://www.w3.org/1999/xlink"><defs /><polygon fill="none" id="1" points="56,32 56,51 57,52 57,57 58,58 57,59 56,59 55,58 46,58 45,59 43,59 42,60 41,60 39,62 39,64 38,65 38,66 39,67 39,68 41,70 42,70 43,71 45,71 46,72 57,72 58,71 59,71 61,69 61,68 62,67 62,65 63,64 65,64 66,65 67,65 68,66 70,66 71,67 72,67 73,68 74,68 76,70 78,70 78,69 80,67 80,66 79,66 78,65 77,65 76,64 75,64 74,63 72,63 71,62 70,62 69,61 67,61 66,60 63,60 61,58 61,47 62,46 72,46 73,45 77,45 77,43 76,42 76,41 73,41 72,42 66,42 65,43 61,43 60,42 60,41 61,40 61,32" stroke="black" stroke-width="1" /><polygon fill="none" id="2" points="47,62 48,61 54,61 55,62 57,62 58,63 58,65 54,69 48,69 47,68 46,68 43,65 43,64 45,62" stroke="black" stroke-width="1" /></svg>