<?xml version="1.0" encoding="utf-8" ?>
<svg baseProfile="full" height="100" version="1.1" width="100" xmlns="http://www.w3.org/2000/svg" xmlns:ev="http://www.w3.org/2001/xml-events" xmlns:xlink="http://www.w3.org/1999/xlink"><defs /><polygon fill="none" id="1" points="38,33 38,41 39,42 39,59 38,60 37,60 36,59 32,59 31,60 30,60 29,61 28,61 28,62 27,63 27,67 28,68 28,69 29,70 30,70 31,71 37,71 40,68 40,63 41,62 42,62 43,63 44,63 46,65 47,65 49,67 50,67 51,68 52,67 50,65 49,65 47,63 46,63 45,62 44,62 43,61 41,61 40,60 40,49 39,48 39,47 41,45 47,45 48,44 50,44 50,42 49,42 48,43 45,43 44,44 40,44 39,43 39,36 40,35 40,33" stroke="black" stroke-width="1" /><polygon fill="none" id="2" points="31,60 37,60 39,62 39,68 38,69 37,69 36,70 31,70 28,67 28,63" stroke="black" stroke-width="1" /></svg>