<?xml version="1.0" encoding="utf-8" ?>
<svg baseProfile="full" height="100" version="1.1" width="100" xmlns="http://www.w3.org/2000/svg" xmlns:ev="http://www.w3.org/2001/xml-events" xmlns:xlink="http://www.w3.org/1999/xlink"><defs /><polygon fill="none" id="1" points="43,33 43,53 44,54 44,59 43,60 41,60 40,59 35,59 34,60 33,60 31,62 31,63 30,64 30,67 33,70 34,70 35,71 42,71 45,68 45,63 46,62 47,62 48,63 49,63 50,64 51,64 52,65 53,65 54,66 55,66 57,68 58,68 59,67 58,66 57,66 56,65 55,65 54,64 53,64 51,62 49,62 48,61 46,61 45,60 45,49 44,48 44,47 46,45 53,45 54,44 57,44 56,43 56,42 55,42 54,43 51,43 50,44 45,44 44,43 44,37 45,36 45,33" stroke="black" stroke-width="1" /><polygon fill="none" id="2" points="34,61 35,60 42,60 44,62 44,67 41,70 35,70 34,69 33,69 32,68 32,67 31,66 31,64 32,63 32,62 33,61" stroke="black" stroke-width="1" /></svg>