<?xml version="1.0" encoding="utf-8" ?>
<svg baseProfile="full" height="100" version="1.1" width="100" xmlns="http://www.w3.org/2000/svg" xmlns:ev="http://www.w3.org/2001/xml-events" xmlns:xlink="http://www.w3.org/1999/xlink"><defs /><polygon fill="none" id="1" points="48,33 48,55 49,56 49,59 48,60 46,60 45,59 39,59 38,60 37,60 36,61 35,61 34,62 34,63 33,64 33,66 34,67 34,68 35,69 36,69 37,70 38,70 39,71 46,71 47,70 48,70 50,68 50,67 51,66 50,65 50,64 52,62 53,62 54,63 55,63 56,64 57,64 58,65 59,65 60,66 61,66 63,68 64,68 65,67 64,66 63,66 62,65 61,65 60,64 59,64 58,63 57,63 56,62 55,62 54,61 52,61 50,59 50,49 49,48 49,47 51,45 59,45 60,44 63,44 63,43 62,42 61,42 60,43 56,43 55,44 50,44 49,43 49,37 50,36 50,33" stroke="black" stroke-width="1" /><polygon fill="none" id="2" points="38,61 39,60 46,60 47,61 48,61 49,62 49,67 46,70 39,70 38,69 37,69 35,67 35,63 37,61" stroke="black" stroke-width="1" /></svg>