<?xml version="1.0" encoding="utf-8" ?>
<svg baseProfile="full" height="100" version="1.1" width="100" xmlns="http://www.w3.org/2000/svg" xmlns:ev="http://www.w3.org/2001/xml-events" xmlns:xlink="http://www.w3.org/1999/xlink"><defs /><polygon fill="none" id="1" points="52,33 52,34 53,35 53,56 54,57 54,59 53,60 51,60 50,59 43,59 42,60 40,60 37,63 37,64 36,65 36,66 37,67 37,68 38,68 40,70 42,70 43,71 51,71 52,70 53,70 55,68 55,67 56,66 56,63 57,62 58,62 59,63 60,63 61,64 62,64 63,65 65,65 66,66 67,66 69,68 71,68 72,67 71,66 70,66 69,65 68,65 67,64 65,64 64,63 63,63 62,62 60,62 59,61 57,61 55,59 55,49 54,48 54,47 56,45 65,45 66,44 69,44 69,42 68,42 67,43 61,43 60,44 55,44 54,43 54,40 55,39 55,33" stroke="black" stroke-width="1" /><polygon fill="none" id="2" points="42,61 43,60 51,60 52,61 53,61 54,62 54,67 52,69 51,69 50,70 43,70 42,69 41,69 39,67 39,63 41,61" stroke="black" stroke-width="1" /></svg>