<?xml version="1.0" encoding="utf-8" ?>
<svg baseProfile="full" height="100" version="1.1" width="100" xmlns="http://www.w3.org/2000/svg" xmlns:ev="http://www.w3.org/2001/xml-events" xmlns:xlink="http://www.w3.org/1999/xlink"><defs /><polygon fill="none" id="1" points="52,42 51,43 43,43 42,44 34,44 34,49 42,49 43,48 48,48 49,49 30,68 30,71 32,73 34,73 46,61 47,61 48,60 49,60 51,62 51,69 53,71 54,71 55,72 69,72 69,67 64,67 63,68 58,68 56,66 56,59 55,58 55,57 54,56 51,56 50,55 58,47 58,44 56,42" stroke="black" stroke-width="1" /><polygon fill="none" id="2" points="48,48 49,47 50,48 49,49" stroke="black" stroke-width="1" /><polygon fill="none" id="3" points="41,31 40,32 40,35 41,35 42,36 45,36 46,37 48,37 49,38 50,38 51,39 52,39 53,40 55,40 56,39 56,38 57,37 57,35 56,35 55,34 53,34 52,33 51,33 50,32 47,32 46,31" stroke="black" stroke-width="1" /></svg>