<?xml version="1.0" encoding="utf-8" ?>
<svg baseProfile="full" height="100" version="1.1" width="100" xmlns="http://www.w3.org/2000/svg" xmlns:ev="http://www.w3.org/2001/xml-events" xmlns:xlink="http://www.w3.org/1999/xlink"><defs /><polygon fill="none" id="1" points="36,31 36,42 37,43 37,56 36,57 30,57 29,58 28,58 27,59 26,59 26,60 25,61 25,68 26,69 26,70 27,71 28,71 29,72 38,72 41,69 41,65 42,64 44,66 45,66 47,68 48,68 50,70 52,70 52,69 54,67 54,65 53,65 51,63 50,63 48,61 47,61 46,60 45,60 44,59 42,59 41,58 41,47 42,46 48,46 49,45 51,45 51,40 47,40 46,41 43,41 42,42 41,42 40,41 40,37 41,36 41,31" stroke="black" stroke-width="1" /><polygon fill="none" id="2" points="32,61 35,61 37,63 37,66 36,67 35,67 34,68 32,68 29,65 29,64" stroke="black" stroke-width="1" /></svg>