<?xml version="1.0" encoding="utf-8" ?>
<svg baseProfile="full" height="100" version="1.1" width="100" xmlns="http://www.w3.org/2000/svg" xmlns:ev="http://www.w3.org/2001/xml-events" xmlns:xlink="http://www.w3.org/1999/xlink"><defs /><polygon fill="none" id="1" points="41,31 41,54 42,55 42,56 41,57 33,57 32,58 31,58 29,60 29,61 28,62 28,68 31,71 32,71 33,72 43,72 46,69 46,65 47,64 48,65 49,65 50,66 51,66 52,67 53,67 56,70 58,70 60,68 60,65 59,64 58,64 57,63 56,63 55,62 54,62 52,60 50,60 49,59 47,59 46,58 46,47 47,46 54,46 55,45 58,45 58,42 57,41 57,40 53,40 52,41 49,41 48,42 46,42 45,41 45,38 46,37 46,31" stroke="black" stroke-width="1" /><polygon fill="none" id="2" points="35,62 36,61 40,61 42,63 42,65 39,68 36,68 35,67 34,67 33,66 33,63 34,62" stroke="black" stroke-width="1" /></svg>