<?xml version="1.0" encoding="utf-8" ?>
<svg baseProfile="full" height="100" version="1.1" width="100" xmlns="http://www.w3.org/2000/svg" xmlns:ev="http://www.w3.org/2001/xml-events" xmlns:xlink="http://www.w3.org/1999/xlink"><defs /><polygon fill="none" id="1" points="46,31 46,56 45,57 37,57 36,58 35,58 34,59 33,59 32,60 32,61 31,62 31,67 32,68 32,69 33,70 34,70 35,71 36,71 37,72 47,72 48,71 49,71 51,69 51,68 52,67 52,65 53,64 54,65 55,65 56,66 57,66 58,67 59,67 61,69 62,69 63,70 65,70 65,69 67,67 67,65 66,65 65,64 64,64 63,63 62,63 61,62 60,62 59,61 58,61 57,60 56,60 55,59 53,59 51,57 51,47 52,46 60,46 61,45 64,45 64,41 63,40 59,40 58,41 54,41 53,42 51,42 50,41 51,40 51,31" stroke="black" stroke-width="1" /><polygon fill="none" id="2" points="39,62 40,61 44,61 45,62 46,62 47,63 47,65 44,68 40,68 39,67 38,67 36,65 36,64 38,62" stroke="black" stroke-width="1" /></svg>