<?xml version="1.0" encoding="utf-8" ?>
<svg baseProfile="full" height="100" version="1.1" width="100" xmlns="http://www.w3.org/2000/svg" xmlns:ev="http://www.w3.org/2001/xml-events" xmlns:xlink="http://www.w3.org/1999/xlink"><defs /><polygon fill="none" id="1" points="50,31 50,35 51,36 51,56 50,57 41,57 40,58 38,58 35,61 35,62 34,63 34,67 35,68 35,69 36,69 38,71 40,71 41,72 52,72 53,71 54,71 56,69 56,68 57,67 57,65 58,64 59,65 60,65 61,66 63,66 64,67 65,67 67,69 68,69 69,70 71,70 74,67 74,65 73,65 72,64 71,64 70,63 69,63 68,62 66,62 65,61 64,61 63,60 61,60 60,59 58,59 56,57 56,47 57,46 66,46 67,45 71,45 71,43 70,42 70,40 66,40 65,41 59,41 58,42 56,42 55,41 56,40 56,31" stroke="black" stroke-width="1" /><polygon fill="none" id="2" points="43,62 44,61 49,61 50,62 51,62 52,63 52,65 50,67 49,67 48,68 44,68 43,67 42,67 40,65 40,64 42,62" stroke="black" stroke-width="1" /></svg>