<?xml version="1.0" encoding="utf-8" ?>
<svg baseProfile="full" height="100" version="1.1" width="100" xmlns="http://www.w3.org/2000/svg" xmlns:ev="http://www.w3.org/2001/xml-events" xmlns:xlink="http://www.w3.org/1999/xlink"><defs /><polygon fill="none" id="1" points="55,31 55,51 56,52 56,56 55,57 45,57 44,58 42,58 41,59 40,59 38,61 38,63 37,64 37,66 38,67 38,68 40,70 41,70 42,71 44,71 45,72 57,72 58,71 59,71 61,69 61,68 62,67 62,65 63,64 64,64 65,65 66,65 67,66 69,66 70,67 71,67 72,68 73,68 75,70 78,70 78,69 80,67 80,65 79,65 78,64 77,64 76,63 75,63 74,62 72,62 71,61 70,61 69,60 67,60 66,59 63,59 61,57 61,47 62,46 72,46 73,45 77,45 77,42 76,41 76,40 72,40 71,41 65,41 64,42 61,42 60,41 61,40 61,31" stroke="black" stroke-width="1" /><polygon fill="none" id="2" points="47,62 48,61 53,61 54,62 56,62 57,63 57,64 53,68 48,68 47,67 46,67 43,64 45,62" stroke="black" stroke-width="1" /></svg>