<?xml version="1.0" encoding="utf-8" ?>
<svg baseProfile="full" height="100" version="1.1" width="100" xmlns="http://www.w3.org/2000/svg" xmlns:ev="http://www.w3.org/2001/xml-events" xmlns:xlink="http://www.w3.org/1999/xlink"><defs /><polygon fill="none" id="1" points="37,69 36,70 31,70 36,70" stroke="black" stroke-width="1" /><polygon fill="none" id="2" points="28,68 29,69" stroke="black" stroke-width="1" /><polygon fill="none" id="3" points="27,63 27,66" stroke="black" stroke-width="1" /><polygon fill="none" id="4" points="28,61" stroke="black" stroke-width="1" /><polygon fill="none" id="5" points="32,59 35,59" stroke="black" stroke-width="1" /><polygon fill="none" id="6" points="39,49 39,59 38,60 39,61 39,67 39,62 40,61 42,61 43,62 44,62 46,64 47,64 49,66 50,66 49,65 48,65 46,63 45,63 44,62 43,62 42,61 40,61 39,60" stroke="black" stroke-width="1" /><polygon fill="none" id="7" points="49,42 48,43 45,43 44,44 39,44 39,45 40,44 46,44 47,43 49,43" stroke="black" stroke-width="1" /><polygon fill="none" id="8" points="38,33 38,40 38,35 39,34 39,33" stroke="black" stroke-width="1" /></svg>