<?xml version="1.0" encoding="utf-8" ?>
<svg baseProfile="full" height="100" version="1.1" width="100" xmlns="http://www.w3.org/2000/svg" xmlns:ev="http://www.w3.org/2001/xml-events" xmlns:xlink="http://www.w3.org/1999/xlink"><defs /><polygon fill="none" id="1" points="33,69" stroke="black" stroke-width="1" /><polygon fill="none" id="2" points="30,64 30,66 31,67 30,66" stroke="black" stroke-width="1" /><polygon fill="none" id="3" points="31,62" stroke="black" stroke-width="1" /><polygon fill="none" id="4" points="33,60" stroke="black" stroke-width="1" /><polygon fill="none" id="5" points="35,59 39,59" stroke="black" stroke-width="1" /><polygon fill="none" id="6" points="43,33 43,52 44,53 44,59 43,60 44,61 44,67 41,70 35,70 41,70 44,67 44,62 45,61 47,61 48,62 49,62 50,63 51,63 52,64 53,64 54,65 55,65 57,67 57,66 56,66 55,65 54,65 53,64 52,64 50,62 48,62 47,61 45,61 44,60 44,49 43,48 43,46 45,44 52,44 53,43 55,43 55,42 54,43 51,43 50,44 44,44 43,43 43,36 44,35 44,33" stroke="black" stroke-width="1" /></svg>