<?xml version="1.0" encoding="utf-8" ?>
<svg baseProfile="full" height="100" version="1.1" width="100" xmlns="http://www.w3.org/2000/svg" xmlns:ev="http://www.w3.org/2001/xml-events" xmlns:xlink="http://www.w3.org/1999/xlink"><defs /><polygon fill="none" id="1" points="39,70 45,70" stroke="black" stroke-width="1" /><polygon fill="none" id="2" points="37,69" stroke="black" stroke-width="1" /><polygon fill="none" id="3" points="35,61 34,62 34,63 33,64 33,65 34,66 34,67 35,68 34,67 34,62" stroke="black" stroke-width="1" /><polygon fill="none" id="4" points="37,60" stroke="black" stroke-width="1" /><polygon fill="none" id="5" points="39,59 44,59" stroke="black" stroke-width="1" /><polygon fill="none" id="6" points="48,33 48,54 49,55 49,59 48,60 47,60 48,60 49,61 49,67 47,69 49,67 49,63 51,61 53,61 54,62 55,62 56,63 57,63 58,64 59,64 60,65 61,65 63,67 63,66 62,66 61,65 60,65 59,64 58,64 57,63 56,63 55,62 54,62 53,61 51,61 49,59 49,49 48,48 48,46 50,44 58,44 59,43 62,43 61,42 60,43 56,43 55,44 49,44 48,43 48,36 49,35 49,33" stroke="black" stroke-width="1" /></svg>