<?xml version="1.0" encoding="utf-8" ?>
<svg baseProfile="full" height="100" version="1.1" width="100" xmlns="http://www.w3.org/2000/svg" xmlns:ev="http://www.w3.org/2001/xml-events" xmlns:xlink="http://www.w3.org/1999/xlink"><defs /><polygon fill="none" id="1" points="40,60 37,63 37,64 36,65 37,66 37,67 38,67 40,69 41,69 40,69 38,67 38,62 40,60 41,60" stroke="black" stroke-width="1" /><polygon fill="none" id="2" points="43,59 49,59" stroke="black" stroke-width="1" /><polygon fill="none" id="3" points="52,33 53,34 53,55 54,56 54,59 53,60 52,60 53,60 54,61 54,67 52,69 51,69 50,70 43,70 50,70 51,69 52,69 54,67 54,66 55,65 55,62 56,61 58,61 59,62 60,62 61,63 62,63 63,64 65,64 66,65 67,65 69,67 70,67 70,66 69,66 68,65 67,65 66,64 64,64 63,63 62,63 61,62 59,62 58,61 56,61 54,59 54,49 53,48 53,46 55,44 64,44 65,43 68,43 68,42 67,43 61,43 60,44 54,44 53,43 53,39 54,38 54,33" stroke="black" stroke-width="1" /></svg>