<?xml version="1.0" encoding="utf-8" ?>
<svg baseProfile="full" height="100" version="1.1" width="100" xmlns="http://www.w3.org/2000/svg" xmlns:ev="http://www.w3.org/2001/xml-events" xmlns:xlink="http://www.w3.org/1999/xlink"><defs /><polygon fill="none" id="1" points="57,42 56,43 48,43 47,44 37,44 37,47 38,48 38,49 46,49 47,48 53,48 54,49 48,55 47,55 35,67 34,67 33,68 33,71 35,73 38,73 49,62 50,62 51,61 52,61 53,60 54,60 56,62 56,69 58,71 59,71 60,72 76,72 76,67 70,67 69,68 63,68 61,66 61,58 59,56 56,56 55,55 60,50 61,50 64,47 64,44 62,42" stroke="black" stroke-width="1" /><polygon fill="none" id="2" points="53,48 54,47 55,48 54,49" stroke="black" stroke-width="1" /><polygon fill="none" id="3" points="45,31 44,32 44,35 46,35 47,36 49,36 50,37 52,37 53,38 55,38 56,39 57,39 58,40 61,40 62,39 62,38 63,37 63,35 61,35 60,34 59,34 58,33 55,33 54,32 52,32 51,31" stroke="black" stroke-width="1" /></svg>