<?xml version="1.0" encoding="utf-8" ?>
<svg baseProfile="full" height="100" version="1.1" width="100" xmlns="http://www.w3.org/2000/svg" xmlns:ev="http://www.w3.org/2001/xml-events" xmlns:xlink="http://www.w3.org/1999/xlink"><defs /><polygon fill="none" id="1" points="42,61 40,63 40,66 42,68 43,68 44,69 45,69 44,69 41,66 41,62" stroke="black" stroke-width="1" /><polygon fill="none" id="2" points="44,60 45,60" stroke="black" stroke-width="1" /><polygon fill="none" id="3" points="47,59 53,59" stroke="black" stroke-width="1" /><polygon fill="none" id="4" points="57,33 57,49 58,50 58,55 59,56 59,59 58,60 56,60 58,60 59,61 59,66 55,70 47,70 55,70 56,69 57,69 59,67 59,66 60,65 60,62 61,61 63,61 64,62 66,62 67,63 68,63 69,64 71,64 72,65 73,65 74,66 75,66 76,67 76,66 75,66 74,65 73,65 72,64 70,64 69,63 68,63 67,62 65,62 64,61 61,61 59,59 59,49 58,48 58,46 60,44 70,44 71,43 74,43 74,42 73,43 67,43 66,44 59,44 58,43 58,39 59,38 59,33" stroke="black" stroke-width="1" /></svg>