<?xml version="1.0" encoding="utf-8" ?>
<svg baseProfile="full" height="100" version="1.1" width="100" xmlns="http://www.w3.org/2000/svg" xmlns:ev="http://www.w3.org/2001/xml-events" xmlns:xlink="http://www.w3.org/1999/xlink"><defs /><polygon fill="none" id="1" points="31,39 30,40 30,48 29,49 29,58 28,59 28,60 29,61 31,61 31,60 36,55 37,55 39,53 41,53 42,52 46,52 47,53 48,53 50,55 50,57 51,58 51,60 50,61 50,62 49,63 49,64 47,66 46,66 45,67 44,67 43,68 40,68 39,69 35,69 35,71 36,72 39,72 40,71 43,71 44,70 46,70 48,68 49,68 51,66 51,65 52,64 52,63 53,62 53,55 49,51 48,51 47,50 41,50 40,51 38,51 36,53 35,53 32,56 31,55 31,51 32,50 32,44 33,43 33,40 32,40" stroke="black" stroke-width="1" /><polygon fill="none" id="2" points="34,31 34,32 33,33 34,34 35,34 36,35 37,35 39,37 40,37 42,39 43,39 43,38 44,37 44,36 43,36 41,34 40,34 38,32 37,32 36,31" stroke="black" stroke-width="1" /></svg>