<?xml version="1.0" encoding="utf-8" ?>
<svg baseProfile="full" height="100" version="1.1" width="100" xmlns="http://www.w3.org/2000/svg" xmlns:ev="http://www.w3.org/2001/xml-events" xmlns:xlink="http://www.w3.org/1999/xlink"><defs /><polygon fill="none" id="1" points="35,39 34,40 34,45 33,46 33,53 32,54 32,60 33,61 35,61 35,60 38,57 39,57 42,54 43,54 44,53 46,53 47,52 52,52 53,53 54,53 57,56 57,61 56,62 56,63 53,66 52,66 51,67 49,67 48,68 45,68 44,69 39,69 39,70 40,71 40,72 44,72 45,71 49,71 50,70 51,70 52,69 53,69 54,68 55,68 59,64 59,62 60,61 60,57 59,56 59,54 56,51 54,51 53,50 46,50 45,51 43,51 42,52 41,52 39,54 38,54 36,56 35,55 35,51 36,50 36,45 37,44 37,40 36,40" stroke="black" stroke-width="1" /><polygon fill="none" id="2" points="39,31 38,32 38,33 39,34 40,34 41,35 42,35 44,37 45,37 47,39 48,39 49,38 49,36 48,35 47,35 46,34 45,34 44,33 43,33 42,32 41,32 40,31" stroke="black" stroke-width="1" /></svg>