<?xml version="1.0" encoding="utf-8" ?>
<svg baseProfile="full" height="100" version="1.1" width="100" xmlns="http://www.w3.org/2000/svg" xmlns:ev="http://www.w3.org/2001/xml-events" xmlns:xlink="http://www.w3.org/1999/xlink"><defs /><polygon fill="none" id="1" points="39,39 38,40 38,44 37,45 37,51 36,52 36,59 35,60 36,60 37,61 39,61 39,60 41,58 42,58 45,55 46,55 47,54 48,54 49,53 51,53 52,52 58,52 59,53 60,53 63,56 63,61 62,62 62,63 59,66 58,66 57,67 55,67 54,68 50,68 49,69 43,69 44,70 44,71 45,72 49,72 50,71 54,71 55,70 57,70 58,69 59,69 60,68 61,68 62,67 63,67 64,66 64,65 66,63 66,60 67,59 67,58 66,57 66,55 62,51 60,51 59,50 51,50 50,51 48,51 47,52 46,52 45,53 44,53 42,55 41,55 40,56 39,55 39,51 40,50 40,45 41,44 41,41 42,40 40,40" stroke="black" stroke-width="1" /><polygon fill="none" id="2" points="43,31 42,32 42,33 43,34 45,34 46,35 47,35 49,37 50,37 52,39 54,39 54,38 55,37 55,36 54,36 53,35 52,35 51,34 50,34 49,33 48,33 47,32 46,32 45,31" stroke="black" stroke-width="1" /></svg>