<?xml version="1.0" encoding="utf-8" ?>
<svg baseProfile="full" height="100" version="1.1" width="100" xmlns="http://www.w3.org/2000/svg" xmlns:ev="http://www.w3.org/2001/xml-events" xmlns:xlink="http://www.w3.org/1999/xlink"><defs /><polygon fill="none" id="1" points="43,39 42,40 42,44 41,45 41,50 40,51 40,57 39,58 39,60 40,61 42,61 44,59 45,59 48,56 49,56 50,55 51,55 52,54 53,54 54,53 56,53 57,52 64,52 65,53 66,53 69,56 69,57 70,58 70,59 69,60 69,62 66,65 65,65 64,66 63,66 62,67 60,67 59,68 56,68 55,69 47,69 49,71 49,72 54,72 55,71 60,71 61,70 63,70 64,69 65,69 66,68 67,68 68,67 69,67 72,64 72,63 73,62 73,55 70,52 69,52 68,51 66,51 65,50 56,50 55,51 53,51 52,52 50,52 49,53 48,53 46,55 45,55 44,56 43,55 43,51 44,50 44,45 45,44 45,42 46,41 46,40 44,40" stroke="black" stroke-width="1" /><polygon fill="none" id="2" points="47,31 46,32 46,33 47,34 49,34 50,35 51,35 52,36 53,36 54,37 55,37 56,38 57,38 58,39 59,39 61,37 61,36 59,36 58,35 57,35 56,34 55,34 54,33 53,33 52,32 51,32 50,31" stroke="black" stroke-width="1" /></svg>