<?xml version="1.0" encoding="utf-8" ?>
<svg baseProfile="full" height="100" version="1.1" width="100" xmlns="http://www.w3.org/2000/svg" xmlns:ev="http://www.w3.org/2001/xml-events" xmlns:xlink="http://www.w3.org/1999/xlink"><defs /><polygon fill="none" id="1" points="47,39 46,40 46,43 45,44 45,46 44,47 44,52 43,53 43,59 42,60 43,60 44,61 46,61 48,59 49,59 51,57 52,57 54,55 55,55 56,54 58,54 59,53 61,53 62,52 70,52 71,53 72,53 73,54 74,54 76,56 76,61 72,65 71,65 70,66 69,66 68,67 66,67 65,68 61,68 60,69 52,69 53,70 53,71 54,72 59,72 60,71 65,71 66,70 69,70 70,69 72,69 73,68 74,68 76,66 77,66 77,65 79,63 79,62 80,61 80,56 76,52 75,52 74,51 72,51 71,50 61,50 60,51 58,51 57,52 55,52 54,53 53,53 52,54 51,54 49,56 48,56 47,55 47,51 48,50 48,46 49,45 49,42 50,41 50,40 48,40" stroke="black" stroke-width="1" /><polygon fill="none" id="2" points="51,31 51,32 50,33 51,33 52,34 54,34 55,35 56,35 57,36 58,36 59,37 60,37 61,38 62,38 63,39 65,39 65,38 66,37 66,36 65,36 64,35 62,35 61,34 60,34 59,33 58,33 57,32 55,32 54,31" stroke="black" stroke-width="1" /></svg>