<?xml version="1.0" encoding="utf-8" ?>
<svg baseProfile="full" height="100" version="1.1" width="100" xmlns="http://www.w3.org/2000/svg" xmlns:ev="http://www.w3.org/2001/xml-events" xmlns:xlink="http://www.w3.org/1999/xlink"><defs /><polygon fill="none" id="1" points="62,42 61,43 52,43 51,44 41,44 41,49 50,49 51,48 58,48 59,49 57,51 56,51 49,58 48,58 41,65 40,65 37,68 36,68 36,71 38,73 41,73 46,68 47,68 52,63 53,63 54,62 55,62 56,61 57,61 58,60 59,60 61,62 61,68 62,69 62,70 63,70 64,71 65,71 66,72 83,72 83,68 82,67 77,67 76,68 69,68 67,66 67,59 66,58 66,57 65,57 64,56 61,56 60,55 62,53 63,53 68,48 69,48 70,47 70,44 68,42" stroke="black" stroke-width="1" /><polygon fill="none" id="2" points="58,48 59,47 60,48 59,49" stroke="black" stroke-width="1" /><polygon fill="none" id="3" points="49,31 48,32 48,35 50,35 51,36 54,36 55,37 57,37 58,38 60,38 61,39 62,39 63,40 66,40 68,38 68,35 67,35 66,34 64,34 63,33 60,33 59,32 57,32 56,31" stroke="black" stroke-width="1" /></svg>