<?xml version="1.0" encoding="utf-8" ?>
<svg baseProfile="full" height="100" version="1.1" width="100" xmlns="http://www.w3.org/2000/svg" xmlns:ev="http://www.w3.org/2001/xml-events" xmlns:xlink="http://www.w3.org/1999/xlink"><defs /><polygon fill="none" id="1" points="31,39 30,40 30,48 29,49 29,58 28,59 28,61 29,62 32,62 32,61 37,56 38,56 40,54 42,54 43,53 46,53 47,54 48,54 50,56 50,58 51,59 51,60 50,61 50,62 49,63 49,64 47,66 46,66 45,67 44,67 43,68 40,68 39,69 35,69 35,72 36,73 40,73 41,72 44,72 45,71 47,71 49,69 50,69 52,67 52,66 53,65 53,64 54,63 54,55 50,51 49,51 48,50 41,50 40,51 38,51 36,53 35,53 33,55 32,54 32,52 33,51 33,45 34,44 34,40 33,40 32,39" stroke="black" stroke-width="1" /><polygon fill="none" id="2" points="34,31 34,32 33,33 33,34 34,35 35,35 36,36 37,36 39,38 40,38 42,40 44,40 44,39 45,38 45,36 44,36 42,34 41,34 39,32 38,32 37,31" stroke="black" stroke-width="1" /></svg>