<?xml version="1.0" encoding="utf-8" ?>
<svg baseProfile="full" height="100" version="1.1" width="100" xmlns="http://www.w3.org/2000/svg" xmlns:ev="http://www.w3.org/2001/xml-events" xmlns:xlink="http://www.w3.org/1999/xlink"><defs /><polygon fill="none" id="1" points="35,39 34,40 34,45 33,46 33,53 32,54 32,61 33,62 36,62 36,61 39,58 40,58 43,55 44,55 45,54 47,54 48,53 52,53 53,54 54,54 57,57 57,61 56,62 56,63 53,66 52,66 51,67 49,67 48,68 45,68 44,69 39,69 39,71 40,72 40,73 45,73 46,72 50,72 51,71 52,71 53,70 54,70 55,69 56,69 60,65 60,63 61,62 61,57 60,56 60,54 57,51 55,51 54,50 46,50 45,51 43,51 42,52 41,52 39,54 38,54 37,55 36,54 36,52 37,51 37,46 38,45 38,40 37,40 36,39" stroke="black" stroke-width="1" /><polygon fill="none" id="2" points="39,31 38,32 38,34 39,35 40,35 41,36 42,36 44,38 45,38 47,40 49,40 50,39 50,36 49,35 48,35 47,34 46,34 45,33 44,33 43,32 42,32 41,31" stroke="black" stroke-width="1" /></svg>