<?xml version="1.0" encoding="utf-8" ?>
<svg baseProfile="full" height="100" version="1.1" width="100" xmlns="http://www.w3.org/2000/svg" xmlns:ev="http://www.w3.org/2001/xml-events" xmlns:xlink="http://www.w3.org/1999/xlink"><defs /><polygon fill="none" id="1" points="39,39 38,40 38,44 37,45 37,51 36,52 36,59 35,60 35,61 36,61 37,62 40,62 40,61 42,59 43,59 46,56 47,56 48,55 49,55 50,54 52,54 53,53 58,53 59,54 60,54 63,57 63,61 62,62 62,63 59,66 58,66 57,67 55,67 54,68 50,68 49,69 43,69 43,70 44,71 44,72 45,73 50,73 51,72 55,72 56,71 58,71 59,70 60,70 61,69 62,69 63,68 64,68 65,67 65,66 67,64 67,61 68,60 68,58 67,57 67,55 63,51 61,51 60,50 51,50 50,51 48,51 47,52 46,52 45,53 44,53 42,55 41,55 40,54 40,52 41,51 41,46 42,45 42,42 43,41 43,40 41,40 40,39" stroke="black" stroke-width="1" /><polygon fill="none" id="2" points="43,31 42,32 42,34 43,35 45,35 46,36 47,36 49,38 50,38 52,40 55,40 55,39 56,38 56,36 55,36 54,35 53,35 52,34 51,34 50,33 49,33 48,32 47,32 46,31" stroke="black" stroke-width="1" /></svg>