<?xml version="1.0" encoding="utf-8" ?>
<svg baseProfile="full" height="100" version="1.1" width="100" xmlns="http://www.w3.org/2000/svg" xmlns:ev="http://www.w3.org/2001/xml-events" xmlns:xlink="http://www.w3.org/1999/xlink"><defs /><polygon fill="none" id="1" points="43,39 42,40 42,44 41,45 41,50 40,51 40,57 39,58 39,61 40,62 43,62 45,60 46,60 49,57 50,57 51,56 52,56 53,55 54,55 55,54 57,54 58,53 64,53 65,54 66,54 69,57 69,58 70,59 69,60 69,62 66,65 65,65 64,66 63,66 62,67 60,67 59,68 56,68 55,69 47,69 47,70 49,72 49,73 55,73 56,72 61,72 62,71 64,71 65,70 66,70 67,69 68,69 69,68 70,68 73,65 73,64 74,63 74,55 71,52 70,52 69,51 67,51 66,50 56,50 55,51 53,51 52,52 50,52 49,53 48,53 46,55 45,55 44,54 44,52 45,51 45,46 46,45 46,43 47,42 47,40 45,40 44,39" stroke="black" stroke-width="1" /><polygon fill="none" id="2" points="47,31 46,32 46,34 47,35 49,35 50,36 51,36 52,37 53,37 54,38 55,38 56,39 57,39 58,40 60,40 62,38 62,36 60,36 59,35 58,35 57,34 56,34 55,33 54,33 53,32 52,32 51,31" stroke="black" stroke-width="1" /></svg>