<?xml version="1.0" encoding="utf-8" ?>
<svg baseProfile="full" height="100" version="1.1" width="100" xmlns="http://www.w3.org/2000/svg" xmlns:ev="http://www.w3.org/2001/xml-events" xmlns:xlink="http://www.w3.org/1999/xlink"><defs /><polygon fill="none" id="1" points="47,39 46,40 46,43 45,44 45,46 44,47 44,52 43,53 43,59 42,60 42,61 43,61 44,62 47,62 49,60 50,60 52,58 53,58 55,56 56,56 57,55 59,55 60,54 62,54 63,53 70,53 71,54 72,54 73,55 74,55 76,57 76,61 72,65 71,65 70,66 69,66 68,67 66,67 65,68 61,68 60,69 52,69 52,70 53,71 53,72 54,73 60,73 61,72 66,72 67,71 70,71 71,70 73,70 74,69 75,69 77,67 78,67 78,66 80,64 80,63 81,62 81,56 77,52 76,52 75,51 73,51 72,50 61,50 60,51 58,51 57,52 55,52 54,53 53,53 52,54 51,54 49,56 48,55 48,52 49,51 49,47 50,46 50,43 51,42 51,40 49,40 48,39" stroke="black" stroke-width="1" /><polygon fill="none" id="2" points="51,31 51,32 50,33 50,34 51,34 52,35 54,35 55,36 56,36 57,37 58,37 59,38 60,38 61,39 62,39 63,40 66,40 66,39 67,38 67,36 66,36 65,35 63,35 62,34 61,34 60,33 59,33 58,32 56,32 55,31" stroke="black" stroke-width="1" /></svg>