<?xml version="1.0" encoding="utf-8" ?>
<svg baseProfile="full" height="100" version="1.1" width="100" xmlns="http://www.w3.org/2000/svg" xmlns:ev="http://www.w3.org/2001/xml-events" xmlns:xlink="http://www.w3.org/1999/xlink"><defs /><polygon fill="none" id="1" points="31,41 31,49 30,50 30,59 29,60 30,61 31,61 31,60 36,55 37,55 39,53 41,53 42,52 47,52 48,53 49,53 51,55 51,57 52,58 52,61 51,62 51,63 50,64 50,65 48,67 47,67 46,68 45,68 44,69 41,69 40,70 36,70 36,71 37,72 39,72 40,71 43,71 44,70 46,70 48,68 49,68 51,66 51,65 52,64 52,63 53,62 53,56 49,52 48,52 47,51 42,51 41,52 39,52 37,54 36,54 33,57 32,57 31,56 31,51 32,50 32,44 33,43 33,41" stroke="black" stroke-width="1" /><polygon fill="none" id="2" points="35,32 35,34 36,34 37,35 38,35 40,37 41,37 43,39 43,38 44,37 43,37 41,35 40,35 38,33 37,33 36,32" stroke="black" stroke-width="1" /></svg>