<?xml version="1.0" encoding="utf-8" ?>
<svg baseProfile="full" height="100" version="1.1" width="100" xmlns="http://www.w3.org/2000/svg" xmlns:ev="http://www.w3.org/2001/xml-events" xmlns:xlink="http://www.w3.org/1999/xlink"><defs /><polygon fill="none" id="1" points="35,41 35,46 34,47 34,54 33,55 33,60 34,61 35,61 35,60 38,57 39,57 42,54 43,54 44,53 46,53 47,52 53,52 54,53 55,53 58,56 58,62 57,63 57,64 54,67 53,67 52,68 50,68 49,69 46,69 45,70 40,70 41,71 41,72 44,72 45,71 49,71 50,70 51,70 52,69 53,69 54,68 55,68 59,64 59,62 60,61 60,58 59,57 59,55 56,52 54,52 53,51 47,51 46,52 44,52 43,53 42,53 40,55 39,55 37,57 36,57 35,56 35,51 36,50 36,45 37,44 37,41" stroke="black" stroke-width="1" /><polygon fill="none" id="2" points="40,32 39,33 40,34 41,34 42,35 43,35 45,37 46,37 48,39 49,38 49,37 48,36 47,36 46,35 45,35 44,34 43,34 42,33 41,33" stroke="black" stroke-width="1" /></svg>