<?xml version="1.0" encoding="utf-8" ?>
<svg baseProfile="full" height="100" version="1.1" width="100" xmlns="http://www.w3.org/2000/svg" xmlns:ev="http://www.w3.org/2001/xml-events" xmlns:xlink="http://www.w3.org/1999/xlink"><defs /><polygon fill="none" id="1" points="39,41 39,45 38,46 38,52 37,53 37,60 38,61 39,61 39,60 41,58 42,58 45,55 46,55 47,54 48,54 49,53 51,53 52,52 59,52 60,53 61,53 64,56 64,62 63,63 63,64 60,67 59,67 58,68 56,68 55,69 51,69 50,70 45,70 45,71 46,72 49,72 50,71 54,71 55,70 57,70 58,69 59,69 60,68 61,68 62,67 63,67 64,66 64,65 66,63 66,60 67,59 66,58 66,56 62,52 60,52 59,51 52,51 51,52 49,52 48,53 47,53 46,54 45,54 43,56 42,56 41,57 40,57 39,56 39,51 40,50 40,45 41,44 41,41" stroke="black" stroke-width="1" /><polygon fill="none" id="2" points="44,32 43,33 44,34 46,34 47,35 48,35 50,37 51,37 53,39 54,39 54,38 55,37 54,37 53,36 52,36 51,35 50,35 49,34 48,34 47,33 46,33 45,32" stroke="black" stroke-width="1" /></svg>