<?xml version="1.0" encoding="utf-8" ?>
<svg baseProfile="full" height="100" version="1.1" width="100" xmlns="http://www.w3.org/2000/svg" xmlns:ev="http://www.w3.org/2001/xml-events" xmlns:xlink="http://www.w3.org/1999/xlink"><defs /><polygon fill="none" id="1" points="43,41 43,45 42,46 42,51 41,52 41,58 40,59 40,60 41,61 42,61 44,59 45,59 48,56 49,56 50,55 51,55 52,54 53,54 54,53 56,53 57,52 65,52 66,53 67,53 70,56 70,57 71,58 71,60 70,61 70,63 67,66 66,66 65,67 64,67 63,68 61,68 60,69 57,69 56,70 49,70 50,71 50,72 54,72 55,71 60,71 61,70 63,70 64,69 65,69 66,68 67,68 68,67 69,67 72,64 72,63 73,62 73,56 70,53 69,53 68,52 66,52 65,51 57,51 56,52 54,52 53,53 51,53 50,54 49,54 47,56 46,56 45,57 44,57 43,56 43,51 44,50 44,45 45,44 45,42 46,41" stroke="black" stroke-width="1" /><polygon fill="none" id="2" points="48,32 47,33 48,34 50,34 51,35 52,35 53,36 54,36 55,37 56,37 57,38 58,38 59,39 61,37 59,37 58,36 57,36 56,35 55,35 54,34 53,34 52,33 51,33 50,32" stroke="black" stroke-width="1" /></svg>