<?xml version="1.0" encoding="utf-8" ?>
<svg baseProfile="full" height="100" version="1.1" width="100" xmlns="http://www.w3.org/2000/svg" xmlns:ev="http://www.w3.org/2001/xml-events" xmlns:xlink="http://www.w3.org/1999/xlink"><defs /><polygon fill="none" id="1" points="53,69 52,70 46,70 53,70" stroke="black" stroke-width="1" /><polygon fill="none" id="2" points="28,68 26,70" stroke="black" stroke-width="1" /><polygon fill="none" id="3" points="31,64 29,66" stroke="black" stroke-width="1" /><polygon fill="none" id="4" points="43,62 43,68" stroke="black" stroke-width="1" /><polygon fill="none" id="5" points="40,58 41,58 42,59 42,60 42,59 41,58" stroke="black" stroke-width="1" /><polygon fill="none" id="6" points="36,57 36,58 32,62 35,59 36,59" stroke="black" stroke-width="1" /><polygon fill="none" id="7" points="41,50" stroke="black" stroke-width="1" /><polygon fill="none" id="8" points="43,44 42,45 36,45 35,46 29,46 29,47 32,47 33,46 36,46 37,45 42,45 43,46 43,47 44,46 44,45" stroke="black" stroke-width="1" /><polygon fill="none" id="9" points="34,33 35,33 36,34 37,34 38,35 40,35 42,37 43,37 42,36 41,36 40,35 39,35 38,34 36,34 35,33" stroke="black" stroke-width="1" /></svg>