<?xml version="1.0" encoding="utf-8" ?>
<svg baseProfile="full" height="100" version="1.1" width="100" xmlns="http://www.w3.org/2000/svg" xmlns:ev="http://www.w3.org/2001/xml-events" xmlns:xlink="http://www.w3.org/1999/xlink"><defs /><polygon fill="none" id="1" points="47,41 47,44 46,45 46,47 45,48 45,53 44,54 44,60 45,61 46,61 48,59 49,59 51,57 52,57 54,55 55,55 56,54 58,54 59,53 61,53 62,52 71,52 72,53 73,53 74,54 75,54 77,56 77,62 73,66 72,66 71,67 70,67 69,68 67,68 66,69 62,69 61,70 54,70 54,71 55,72 59,72 60,71 65,71 66,70 69,70 70,69 72,69 73,68 74,68 76,66 77,66 77,65 79,63 79,62 80,61 80,57 76,53 75,53 74,52 72,52 71,51 62,51 61,52 59,52 58,53 56,53 55,54 54,54 53,55 52,55 50,57 48,57 47,56 47,51 48,50 48,46 49,45 49,42 50,41" stroke="black" stroke-width="1" /><polygon fill="none" id="2" points="52,32 52,33 53,34 55,34 56,35 57,35 58,36 59,36 60,37 61,37 62,38 63,38 64,39 65,39 65,38 66,37 65,37 64,36 62,36 61,35 60,35 59,34 58,34 57,33 55,33 54,32" stroke="black" stroke-width="1" /></svg>