<?xml version="1.0" encoding="utf-8" ?>
<svg baseProfile="full" height="100" version="1.1" width="100" xmlns="http://www.w3.org/2000/svg" xmlns:ev="http://www.w3.org/2001/xml-events" xmlns:xlink="http://www.w3.org/1999/xlink"><defs /><polygon fill="none" id="1" points="30,38 29,39 29,47 28,48 28,57 27,58 27,61 28,62 32,62 32,61 37,56 38,56 40,54 42,54 43,53 45,53 46,54 47,54 49,56 49,58 50,59 49,60 49,61 48,62 48,63 46,65 45,65 44,66 43,66 42,67 39,67 38,68 34,68 34,72 35,73 40,73 41,72 44,72 45,71 47,71 49,69 50,69 52,67 52,66 53,65 53,64 54,63 54,54 50,50 49,50 48,49 40,49 39,50 37,50 35,52 34,52 33,51 33,45 34,44 34,39 33,39 32,38" stroke="black" stroke-width="1" /><polygon fill="none" id="2" points="32,52 33,51 34,52 33,53" stroke="black" stroke-width="1" /><polygon fill="none" id="3" points="33,30 33,31 32,32 32,34 33,35 34,35 35,36 36,36 38,38 39,38 41,40 44,40 44,39 45,38 45,35 44,35 42,33 41,33 39,31 38,31 37,30" stroke="black" stroke-width="1" /></svg>