<?xml version="1.0" encoding="utf-8" ?>
<svg baseProfile="full" height="100" version="1.1" width="100" xmlns="http://www.w3.org/2000/svg" xmlns:ev="http://www.w3.org/2001/xml-events" xmlns:xlink="http://www.w3.org/1999/xlink"><defs /><polygon fill="none" id="1" points="34,38 33,39 33,44 32,45 32,52 31,53 31,61 32,62 36,62 36,61 39,58 40,58 43,55 44,55 45,54 47,54 48,53 51,53 52,54 53,54 56,57 56,60 55,61 55,62 52,65 51,65 50,66 48,66 47,67 44,67 43,68 38,68 38,71 39,72 39,73 45,73 46,72 50,72 51,71 52,71 53,70 54,70 55,69 56,69 60,65 60,63 61,62 61,56 60,55 60,53 57,50 55,50 54,49 45,49 44,50 42,50 41,51 40,51 38,53 37,53 36,52 37,51 37,46 38,45 38,39 37,39 36,38" stroke="black" stroke-width="1" /><polygon fill="none" id="2" points="38,30 37,31 37,34 38,35 39,35 40,36 41,36 43,38 44,38 46,40 49,40 50,39 50,35 49,34 48,34 47,33 46,33 45,32 44,32 43,31 42,31 41,30" stroke="black" stroke-width="1" /></svg>