<?xml version="1.0" encoding="utf-8" ?>
<svg baseProfile="full" height="100" version="1.1" width="100" xmlns="http://www.w3.org/2000/svg" xmlns:ev="http://www.w3.org/2001/xml-events" xmlns:xlink="http://www.w3.org/1999/xlink"><defs /><polygon fill="none" id="1" points="38,38 37,39 37,43 36,44 36,50 35,51 35,58 34,59 34,61 35,61 36,62 40,62 40,61 42,59 43,59 46,56 47,56 48,55 49,55 50,54 52,54 53,53 57,53 58,54 59,54 62,57 62,60 61,61 61,62 58,65 57,65 56,66 54,66 53,67 49,67 48,68 42,68 42,70 43,71 43,72 44,73 50,73 51,72 55,72 56,71 58,71 59,70 60,70 61,69 62,69 63,68 64,68 65,67 65,66 67,64 67,61 68,60 68,57 67,56 67,54 63,50 61,50 60,49 50,49 49,50 47,50 46,51 45,51 44,52 43,52 41,54 40,53 40,52 41,51 41,46 42,45 42,42 43,41 43,39 41,39 40,38" stroke="black" stroke-width="1" /><polygon fill="none" id="2" points="42,30 41,31 41,34 42,35 44,35 45,36 46,36 48,38 49,38 51,40 55,40 55,39 56,38 56,35 55,35 54,34 53,34 52,33 51,33 50,32 49,32 48,31 47,31 46,30" stroke="black" stroke-width="1" /></svg>