<?xml version="1.0" encoding="utf-8" ?>
<svg baseProfile="full" height="100" version="1.1" width="100" xmlns="http://www.w3.org/2000/svg" xmlns:ev="http://www.w3.org/2001/xml-events" xmlns:xlink="http://www.w3.org/1999/xlink"><defs /><polygon fill="none" id="1" points="42,38 41,39 41,43 40,44 40,49 39,50 39,56 38,57 38,61 39,62 43,62 45,60 46,60 49,57 50,57 51,56 52,56 53,55 54,55 55,54 57,54 58,53 63,53 64,54 65,54 68,57 68,61 65,64 64,64 63,65 62,65 61,66 59,66 58,67 55,67 54,68 46,68 46,70 48,72 48,73 55,73 56,72 61,72 62,71 64,71 65,70 66,70 67,69 68,69 69,68 70,68 73,65 73,64 74,63 74,54 71,51 70,51 69,50 67,50 66,49 55,49 54,50 52,50 51,51 49,51 48,52 47,52 45,54 44,53 44,52 45,51 45,46 46,45 46,43 47,42 47,39 45,39 44,38" stroke="black" stroke-width="1" /><polygon fill="none" id="2" points="46,30 45,31 45,34 46,35 48,35 49,36 50,36 51,37 52,37 53,38 54,38 55,39 56,39 57,40 60,40 62,38 62,35 60,35 59,34 58,34 57,33 56,33 55,32 54,32 53,31 52,31 51,30" stroke="black" stroke-width="1" /></svg>