<?xml version="1.0" encoding="utf-8" ?>
<svg baseProfile="full" height="100" version="1.1" width="100" xmlns="http://www.w3.org/2000/svg" xmlns:ev="http://www.w3.org/2001/xml-events" xmlns:xlink="http://www.w3.org/1999/xlink"><defs /><polygon fill="none" id="1" points="46,38 45,39 45,42 44,43 44,45 43,46 43,51 42,52 42,58 41,59 41,61 42,61 43,62 47,62 49,60 50,60 52,58 53,58 55,56 56,56 57,55 59,55 60,54 62,54 63,53 69,53 70,54 71,54 72,55 73,55 75,57 75,60 71,64 70,64 69,65 68,65 67,66 65,66 64,67 60,67 59,68 51,68 51,70 52,71 52,72 53,73 60,73 61,72 66,72 67,71 70,71 71,70 73,70 74,69 75,69 77,67 78,67 78,66 80,64 80,63 81,62 81,55 77,51 76,51 75,50 73,50 72,49 60,49 59,50 57,50 56,51 54,51 53,52 52,52 51,53 50,53 49,54 48,53 48,52 49,51 49,47 50,46 50,43 51,42 51,39 49,39 48,38" stroke="black" stroke-width="1" /><polygon fill="none" id="2" points="50,30 50,31 49,32 49,34 50,34 51,35 53,35 54,36 55,36 56,37 57,37 58,38 59,38 60,39 61,39 62,40 66,40 66,39 67,38 67,35 66,35 65,34 63,34 62,33 61,33 60,32 59,32 58,31 56,31 55,30" stroke="black" stroke-width="1" /></svg>