<?xml version="1.0" encoding="utf-8" ?>
<svg baseProfile="full" height="100" version="1.1" width="100" xmlns="http://www.w3.org/2000/svg" xmlns:ev="http://www.w3.org/2001/xml-events" xmlns:xlink="http://www.w3.org/1999/xlink"><defs /><polygon fill="none" id="1" points="51,55 51,56 52,57 52,61 51,62 51,63 50,64 50,65 48,67 47,67 46,68 45,68 44,69 41,69 40,70 36,70 37,71 38,71 39,70 42,70 43,69 45,69 47,67 48,67 50,65 50,64 51,63 51,62 52,61 52,56" stroke="black" stroke-width="1" /><polygon fill="none" id="2" points="36,54" stroke="black" stroke-width="1" /><polygon fill="none" id="3" points="48,52" stroke="black" stroke-width="1" /><polygon fill="none" id="4" points="39,52 40,52" stroke="black" stroke-width="1" /><polygon fill="none" id="5" points="42,51 46,51" stroke="black" stroke-width="1" /><polygon fill="none" id="6" points="31,41 31,49 30,50 30,60 30,59 32,57 31,57 30,56 30,50 31,49 31,43 32,42 32,41" stroke="black" stroke-width="1" /><polygon fill="none" id="7" points="35,32 35,33 36,33 37,34 38,34 40,36 41,36 42,37 40,35 39,35 37,33 36,33" stroke="black" stroke-width="1" /></svg>