<?xml version="1.0" encoding="utf-8" ?>
<svg baseProfile="full" height="100" version="1.1" width="100" xmlns="http://www.w3.org/2000/svg" xmlns:ev="http://www.w3.org/2001/xml-events" xmlns:xlink="http://www.w3.org/1999/xlink"><defs /><polygon fill="none" id="1" points="39,55 38,56" stroke="black" stroke-width="1" /><polygon fill="none" id="2" points="42,53" stroke="black" stroke-width="1" /><polygon fill="none" id="3" points="54,52 55,52 58,55 58,62 57,63 57,64 54,67 53,67 52,68 50,68 49,69 46,69 45,70 41,70 41,71 43,71 44,70 48,70 49,69 50,69 51,68 52,68 53,67 54,67 58,63 58,61 59,60 59,58 58,57 58,55 55,52" stroke="black" stroke-width="1" /><polygon fill="none" id="4" points="44,52 45,52" stroke="black" stroke-width="1" /><polygon fill="none" id="5" points="47,51 52,51" stroke="black" stroke-width="1" /><polygon fill="none" id="6" points="35,41 35,46 34,47 34,54 33,55 33,59 34,60 34,59 36,57 35,57 34,56 34,50 35,49 35,44 36,43 36,41" stroke="black" stroke-width="1" /><polygon fill="none" id="7" points="40,33 41,33 42,34 43,34 45,36 46,36 47,37 48,37 47,36 46,36 45,35 44,35 43,34 42,34 41,33" stroke="black" stroke-width="1" /></svg>