<?xml version="1.0" encoding="utf-8" ?>
<svg baseProfile="full" height="100" version="1.1" width="100" xmlns="http://www.w3.org/2000/svg" xmlns:ev="http://www.w3.org/2001/xml-events" xmlns:xlink="http://www.w3.org/1999/xlink"><defs /><polygon fill="none" id="1" points="45,54" stroke="black" stroke-width="1" /><polygon fill="none" id="2" points="47,53" stroke="black" stroke-width="1" /><polygon fill="none" id="3" points="60,52 61,52 64,55 64,62 63,63 63,64 60,67 59,67 58,68 56,68 55,69 51,69 50,70 45,70 46,71 48,71 49,70 53,70 54,69 56,69 57,68 58,68 59,67 60,67 61,66 62,66 63,65 63,64 65,62 65,56 61,52" stroke="black" stroke-width="1" /><polygon fill="none" id="4" points="49,52 50,52" stroke="black" stroke-width="1" /><polygon fill="none" id="5" points="52,51 58,51" stroke="black" stroke-width="1" /><polygon fill="none" id="6" points="39,41 39,45 38,46 38,52 37,53 37,59 38,60 38,59 40,57 41,57 42,56 41,57 39,57 38,56 38,50 39,49 39,44 40,43 40,41" stroke="black" stroke-width="1" /><polygon fill="none" id="7" points="44,32 44,33 46,33 47,34 48,34 50,36 51,36 53,38 53,37 52,36 51,36 50,35 49,35 48,34 47,34 46,33 45,33" stroke="black" stroke-width="1" /></svg>