<?xml version="1.0" encoding="utf-8" ?>
<svg baseProfile="full" height="100" version="1.1" width="100" xmlns="http://www.w3.org/2000/svg" xmlns:ev="http://www.w3.org/2001/xml-events" xmlns:xlink="http://www.w3.org/1999/xlink"><defs /><polygon fill="none" id="1" points="51,53 50,54 49,54 48,55 49,54 50,54 51,53 52,53" stroke="black" stroke-width="1" /><polygon fill="none" id="2" points="66,52 67,52 70,55 70,56 71,57 71,60 70,61 70,63 67,66 66,66 65,67 64,67 63,68 61,68 60,69 57,69 56,70 50,70 50,71 53,71 54,70 59,70 60,69 62,69 63,68 64,68 65,67 66,67 67,66 68,66 71,63 71,62 72,61 72,56 69,53 68,53 67,52" stroke="black" stroke-width="1" /><polygon fill="none" id="3" points="54,52 55,52" stroke="black" stroke-width="1" /><polygon fill="none" id="4" points="57,51 64,51" stroke="black" stroke-width="1" /><polygon fill="none" id="5" points="43,41 43,45 42,46 42,51 41,52 41,58 40,59 41,60 43,58 44,58 46,56 45,57 43,57 42,56 42,50 43,49 43,44 44,43 44,41" stroke="black" stroke-width="1" /><polygon fill="none" id="6" points="48,32 48,33 50,33 51,34 52,34 53,35 54,35 55,36 56,36 57,37 59,37 58,37 57,36 56,36 55,35 54,35 53,34 52,34 51,33 50,33 49,32" stroke="black" stroke-width="1" /></svg>