<?xml version="1.0" encoding="utf-8" ?>
<svg baseProfile="full" height="100" version="1.1" width="100" xmlns="http://www.w3.org/2000/svg" xmlns:ev="http://www.w3.org/2001/xml-events" xmlns:xlink="http://www.w3.org/1999/xlink"><defs /><polygon fill="none" id="1" points="59,69 58,70 51,70 60,70 60,69" stroke="black" stroke-width="1" /><polygon fill="none" id="2" points="49,69" stroke="black" stroke-width="1" /><polygon fill="none" id="3" points="45,58 46,58 48,60 48,67 48,60 46,58" stroke="black" stroke-width="1" /><polygon fill="none" id="4" points="41,57 35,63 35,64 30,69 30,70 30,69 40,59 41,59" stroke="black" stroke-width="1" /><polygon fill="none" id="5" points="48,44 47,45 41,45 40,46 33,46 33,47 36,47 37,46 41,46 42,45 47,45 48,46 48,48 47,49 48,48 48,47 50,45 49,44" stroke="black" stroke-width="1" /><polygon fill="none" id="6" points="39,33 40,34 42,34 43,35 45,35 46,36 47,36 48,37 47,36 46,36 45,35 44,35 43,34 41,34 40,33" stroke="black" stroke-width="1" /></svg>