<?xml version="1.0" encoding="utf-8" ?>
<svg baseProfile="full" height="100" version="1.1" width="100" xmlns="http://www.w3.org/2000/svg" xmlns:ev="http://www.w3.org/2001/xml-events" xmlns:xlink="http://www.w3.org/1999/xlink"><defs /><polygon fill="none" id="1" points="52,55 51,56" stroke="black" stroke-width="1" /><polygon fill="none" id="2" points="54,54" stroke="black" stroke-width="1" /><polygon fill="none" id="3" points="56,53 57,53" stroke="black" stroke-width="1" /><polygon fill="none" id="4" points="72,52 73,52 74,53 75,53 77,55 77,62 73,66 72,66 71,67 70,67 69,68 67,68 66,69 62,69 61,70 54,70 55,71 58,71 59,70 64,70 65,69 68,69 69,68 71,68 72,67 73,67 75,65 76,65 76,64 78,62 78,61 79,60 79,57 75,53 74,53 73,52" stroke="black" stroke-width="1" /><polygon fill="none" id="5" points="59,52 60,52" stroke="black" stroke-width="1" /><polygon fill="none" id="6" points="62,51 70,51" stroke="black" stroke-width="1" /><polygon fill="none" id="7" points="47,41 47,44 46,45 46,47 45,48 45,53 44,54 44,59 45,60 47,58 48,58 49,57 47,57 46,56 46,50 47,49 47,45 48,44 48,41" stroke="black" stroke-width="1" /><polygon fill="none" id="8" points="52,32 53,33 55,33 56,34 57,34 58,35 59,35 60,36 61,36 62,37 63,37 64,38 64,37 63,36 61,36 60,35 59,35 58,34 57,34 56,33 54,33 53,32" stroke="black" stroke-width="1" /></svg>