<?xml version="1.0" encoding="utf-8" ?>
<svg baseProfile="full" height="100" version="1.1" width="100" xmlns="http://www.w3.org/2000/svg" xmlns:ev="http://www.w3.org/2001/xml-events" xmlns:xlink="http://www.w3.org/1999/xlink"><defs /><polygon fill="none" id="1" points="34,32 34,36 33,37 33,52 34,53 34,57 35,58 37,58 37,56 38,55 38,54 39,53 39,52 40,51 40,50 41,49 41,48 42,47 41,46 41,45 40,45 40,46 39,47 39,48 38,49 38,51 37,52 35,50 35,49 36,48 36,36 37,35 37,32" stroke="black" stroke-width="1" /><polygon fill="none" id="2" points="51,31 51,33 52,34 52,55 51,56 51,59 50,60 50,61 44,67 43,67 42,68 41,68 40,69 42,71 43,71 44,70 45,70 46,69 47,69 51,65 51,64 53,62 53,60 54,59 54,56 55,55 55,32 54,31" stroke="black" stroke-width="1" /></svg>