<?xml version="1.0" encoding="utf-8" ?>
<svg baseProfile="full" height="100" version="1.1" width="100" xmlns="http://www.w3.org/2000/svg" xmlns:ev="http://www.w3.org/2001/xml-events" xmlns:xlink="http://www.w3.org/1999/xlink"><defs /><polygon fill="none" id="1" points="38,32 38,34 37,35 37,54 38,55 38,57 39,58 41,58 41,57 42,56 42,54 43,53 43,52 45,50 45,49 46,48 46,46 45,45 44,45 44,47 43,48 43,49 42,50 42,51 41,52 40,52 39,51 39,50 40,49 40,37 41,36 41,32" stroke="black" stroke-width="1" /><polygon fill="none" id="2" points="57,31 57,34 58,35 58,54 57,55 57,58 56,59 56,60 54,62 54,63 52,65 51,65 49,67 48,67 47,68 45,68 45,69 46,70 46,71 48,71 49,70 50,70 51,69 52,69 54,67 55,67 57,65 57,64 59,62 59,60 60,59 60,56 61,55 61,32 60,31" stroke="black" stroke-width="1" /></svg>