<?xml version="1.0" encoding="utf-8" ?>
<svg baseProfile="full" height="100" version="1.1" width="100" xmlns="http://www.w3.org/2000/svg" xmlns:ev="http://www.w3.org/2001/xml-events" xmlns:xlink="http://www.w3.org/1999/xlink"><defs /><polygon fill="none" id="1" points="30,32 30,41 29,42 29,49 30,50 30,57 31,58 33,58 33,55 34,54 34,53 35,52 35,51 36,50 36,49 37,48 37,46 36,45 35,46 35,47 34,48 34,50 33,51 32,51 31,50 31,47 32,46 32,35 33,34 33,32" stroke="black" stroke-width="1" /><polygon fill="none" id="2" points="46,31 46,57 45,58 45,60 44,61 44,62 39,67 38,67 37,68 36,68 36,70 37,71 39,71 42,68 43,68 44,67 44,66 46,64 46,63 47,62 47,60 48,59 48,54 49,53 49,35 48,34 48,33 49,32 48,31" stroke="black" stroke-width="1" /></svg>