<?xml version="1.0" encoding="utf-8" ?>
<svg baseProfile="full" height="100" version="1.1" width="100" xmlns="http://www.w3.org/2000/svg" xmlns:ev="http://www.w3.org/2001/xml-events" xmlns:xlink="http://www.w3.org/1999/xlink"><defs /><polygon fill="none" id="1" points="42,32 42,33 41,34 41,54 42,55 42,57 43,58 45,58 45,57 46,56 46,55 47,54 47,53 49,51 49,50 51,48 51,46 50,45 49,45 48,46 48,47 47,48 47,49 46,50 46,51 45,52 44,52 43,51 44,50 44,37 45,36 45,32" stroke="black" stroke-width="1" /><polygon fill="none" id="2" points="63,31 63,35 64,36 64,53 63,54 63,58 62,59 62,60 57,65 56,65 54,67 53,67 52,68 50,68 49,69 51,71 53,71 54,70 55,70 56,69 57,69 58,68 59,68 65,62 65,60 66,59 66,56 67,55 67,32 66,31" stroke="black" stroke-width="1" /></svg>