<?xml version="1.0" encoding="utf-8" ?>
<svg baseProfile="full" height="100" version="1.1" width="100" xmlns="http://www.w3.org/2000/svg" xmlns:ev="http://www.w3.org/2001/xml-events" xmlns:xlink="http://www.w3.org/1999/xlink"><defs /><polygon fill="none" id="1" points="66,69 65,70 57,70 67,70 67,69" stroke="black" stroke-width="1" /><polygon fill="none" id="2" points="50,58 51,58 53,60 53,67 55,69 54,68 54,61 53,60 53,59 52,58" stroke="black" stroke-width="1" /><polygon fill="none" id="3" points="46,56 33,69 33,70 44,59 45,59 46,58" stroke="black" stroke-width="1" /><polygon fill="none" id="4" points="45,45 44,46 36,46 36,47 40,47 41,46 46,46 47,45 50,45" stroke="black" stroke-width="1" /><polygon fill="none" id="5" points="54,44 54,47 55,46 55,45" stroke="black" stroke-width="1" /><polygon fill="none" id="6" points="43,33 44,34 47,34 48,35 50,35 51,36 52,36 53,37 54,37 53,36 51,36 50,35 49,35 48,34 45,34 44,33" stroke="black" stroke-width="1" /></svg>