<?xml version="1.0" encoding="utf-8" ?>
<svg baseProfile="full" height="100" version="1.1" width="100" xmlns="http://www.w3.org/2000/svg" xmlns:ev="http://www.w3.org/2001/xml-events" xmlns:xlink="http://www.w3.org/1999/xlink"><defs /><polygon fill="none" id="1" points="45,32 45,38 44,39 44,52 45,53 45,56 46,57 47,57 48,58 49,58 50,57 50,56 51,55 51,54 52,53 52,52 54,50 54,49 56,47 56,46 55,46 54,45 53,45 53,46 52,47 52,48 51,49 51,50 49,52 48,52 47,51 48,50 48,38 49,37 49,34 50,33 49,32" stroke="black" stroke-width="1" /><polygon fill="none" id="2" points="68,31 68,32 69,33 69,38 70,39 70,52 69,53 69,56 68,57 68,58 67,59 67,60 62,65 61,65 59,67 57,67 56,68 54,68 53,69 54,69 56,71 58,71 59,70 60,70 61,69 63,69 65,67 66,67 71,62 71,60 72,59 72,57 73,56 73,48 74,47 74,45 73,44 73,31" stroke="black" stroke-width="1" /></svg>