<?xml version="1.0" encoding="utf-8" ?>
<svg baseProfile="full" height="100" version="1.1" width="100" xmlns="http://www.w3.org/2000/svg" xmlns:ev="http://www.w3.org/2001/xml-events" xmlns:xlink="http://www.w3.org/1999/xlink"><defs /><polygon fill="none" id="1" points="30,32 30,41 29,42 29,50 30,51 30,58 31,59 34,59 34,56 35,55 35,54 36,53 36,52 37,51 37,50 38,49 38,46 37,45 36,45 35,46 35,47 34,48 33,47 33,36 34,35 34,32" stroke="black" stroke-width="1" /><polygon fill="none" id="2" points="32,48 33,47 34,48 34,50 33,51 32,50" stroke="black" stroke-width="1" /><polygon fill="none" id="3" points="46,31 46,57 45,58 45,60 44,61 44,62 39,67 38,67 37,68 36,68 36,71 37,72 40,72 43,69 44,69 45,68 45,67 47,65 47,64 48,63 48,61 49,60 49,55 50,54 50,35 49,34 50,33 50,32 49,31" stroke="black" stroke-width="1" /></svg>