<?xml version="1.0" encoding="utf-8" ?>
<svg baseProfile="full" height="100" version="1.1" width="100" xmlns="http://www.w3.org/2000/svg" xmlns:ev="http://www.w3.org/2001/xml-events" xmlns:xlink="http://www.w3.org/1999/xlink"><defs /><polygon fill="none" id="1" points="34,32 34,36 33,37 33,53 34,54 34,58 35,59 38,59 38,57 39,56 39,55 40,54 40,53 41,52 41,51 42,50 42,49 43,48 43,47 42,46 42,45 40,45 40,46 39,47 39,48 38,49 37,48 37,37 38,36 38,32" stroke="black" stroke-width="1" /><polygon fill="none" id="2" points="36,50 37,49 38,50 37,51" stroke="black" stroke-width="1" /><polygon fill="none" id="3" points="51,31 51,34 52,35 52,55 51,56 51,59 50,60 50,61 44,67 43,67 42,68 41,68 40,69 40,70 42,72 44,72 45,71 46,71 47,70 48,70 52,66 52,65 54,63 54,61 55,60 55,57 56,56 56,32 55,31" stroke="black" stroke-width="1" /></svg>