<?xml version="1.0" encoding="utf-8" ?>
<svg baseProfile="full" height="100" version="1.1" width="100" xmlns="http://www.w3.org/2000/svg" xmlns:ev="http://www.w3.org/2001/xml-events" xmlns:xlink="http://www.w3.org/1999/xlink"><defs /><polygon fill="none" id="1" points="38,32 38,34 37,35 37,55 38,56 38,58 39,59 42,59 42,58 43,57 43,55 44,54 44,53 46,51 46,50 47,49 47,46 46,45 44,45 44,47 43,48 43,49 42,50 41,49 41,38 42,37 42,32" stroke="black" stroke-width="1" /><polygon fill="none" id="2" points="40,51 41,50 42,51 41,52" stroke="black" stroke-width="1" /><polygon fill="none" id="3" points="57,31 57,35 58,36 58,54 57,55 57,58 56,59 56,60 54,62 54,63 52,65 51,65 49,67 48,67 47,68 45,68 45,70 46,71 46,72 49,72 50,71 51,71 52,70 53,70 55,68 56,68 58,66 58,65 60,63 60,61 61,60 61,57 62,56 62,32 61,31" stroke="black" stroke-width="1" /></svg>