<?xml version="1.0" encoding="utf-8" ?>
<svg baseProfile="full" height="100" version="1.1" width="100" xmlns="http://www.w3.org/2000/svg" xmlns:ev="http://www.w3.org/2001/xml-events" xmlns:xlink="http://www.w3.org/1999/xlink"><defs /><polygon fill="none" id="1" points="42,32 42,33 41,34 41,55 42,56 42,58 43,59 46,59 46,58 47,57 47,56 48,55 48,54 50,52 50,51 52,49 52,46 51,45 49,45 48,46 48,47 47,48 47,49 46,50 45,49 45,38 46,37 46,32" stroke="black" stroke-width="1" /><polygon fill="none" id="2" points="63,31 63,36 64,37 64,53 63,54 63,58 62,59 62,60 57,65 56,65 54,67 53,67 52,68 50,68 49,69 49,70 51,72 54,72 55,71 56,71 57,70 58,70 59,69 60,69 66,63 66,61 67,60 67,57 68,56 68,32 67,31" stroke="black" stroke-width="1" /></svg>