<?xml version="1.0" encoding="utf-8" ?>
<svg baseProfile="full" height="100" version="1.1" width="100" xmlns="http://www.w3.org/2000/svg" xmlns:ev="http://www.w3.org/2001/xml-events" xmlns:xlink="http://www.w3.org/1999/xlink"><defs /><polygon fill="none" id="1" points="45,32 45,38 44,39 44,53 45,54 45,57 46,58 47,58 48,59 50,59 51,58 51,57 52,56 52,55 53,54 53,53 55,51 55,50 57,48 57,46 56,46 55,45 53,45 53,46 52,47 52,48 51,49 51,50 50,51 49,50 49,39 50,38 50,35 51,34 51,33 50,32" stroke="black" stroke-width="1" /><polygon fill="none" id="2" points="68,31 68,33 69,34 69,39 70,40 70,52 69,53 69,56 68,57 68,58 67,59 67,60 62,65 61,65 59,67 57,67 56,68 54,68 53,69 53,70 54,70 56,72 59,72 60,71 61,71 62,70 64,70 66,68 67,68 72,63 72,61 73,60 73,58 74,57 74,49 75,48 75,45 74,44 74,31" stroke="black" stroke-width="1" /></svg>