<?xml version="1.0" encoding="utf-8" ?>
<svg baseProfile="full" height="100" version="1.1" width="100" xmlns="http://www.w3.org/2000/svg" xmlns:ev="http://www.w3.org/2001/xml-events" xmlns:xlink="http://www.w3.org/1999/xlink"><defs /><polygon fill="none" id="1" points="31,33 31,42 30,43 30,49 31,50 31,57 32,58 33,58 33,55 34,54 34,53 35,52 35,51 36,50 36,49 37,48 37,47 36,47 36,48 35,49 35,51 34,52 32,52 31,51 31,47 32,46 32,35 33,34 33,33" stroke="black" stroke-width="1" /><polygon fill="none" id="2" points="47,32 47,58 46,59 46,61 45,62 45,63 40,68 39,68 38,69 37,69 37,70 38,71 39,71 42,68 43,68 44,67 44,66 46,64 46,63 47,62 47,60 48,59 48,54 49,53 49,36 48,35 48,32" stroke="black" stroke-width="1" /></svg>