<?xml version="1.0" encoding="utf-8" ?>
<svg baseProfile="full" height="100" version="1.1" width="100" xmlns="http://www.w3.org/2000/svg" xmlns:ev="http://www.w3.org/2001/xml-events" xmlns:xlink="http://www.w3.org/1999/xlink"><defs /><polygon fill="none" id="1" points="35,33 35,37 34,38 34,52 35,53 35,57 36,58 37,58 37,56 38,55 38,54 39,53 39,52 40,51 40,50 41,49 41,46 41,47 40,48 40,49 39,50 39,52 38,53 37,53 35,51 35,49 36,48 36,36 37,35 37,33" stroke="black" stroke-width="1" /><polygon fill="none" id="2" points="52,32 52,33 53,34 53,56 52,57 52,60 51,61 51,62 45,68 44,68 43,69 42,69 42,70 43,71 44,70 45,70 46,69 47,69 51,65 51,64 53,62 53,60 54,59 54,56 55,55 55,33 54,32" stroke="black" stroke-width="1" /></svg>