<?xml version="1.0" encoding="utf-8" ?>
<svg baseProfile="full" height="100" version="1.1" width="100" xmlns="http://www.w3.org/2000/svg" xmlns:ev="http://www.w3.org/2001/xml-events" xmlns:xlink="http://www.w3.org/1999/xlink"><defs /><polygon fill="none" id="1" points="39,33 39,35 38,36 38,54 39,55 39,57 40,58 41,58 41,57 42,56 42,54 43,53 43,52 45,50 45,49 46,48 46,47 45,46 45,48 44,49 44,50 43,51 43,52 42,53 40,53 39,52 39,50 40,49 40,37 41,36 41,33" stroke="black" stroke-width="1" /><polygon fill="none" id="2" points="58,32 58,34 59,35 59,55 58,56 58,59 57,60 57,61 55,63 55,64 53,66 52,66 50,68 49,68 48,69 46,69 47,70 47,71 48,71 49,70 50,70 51,69 52,69 54,67 55,67 57,65 57,64 59,62 59,60 60,59 60,56 61,55 61,33 60,32" stroke="black" stroke-width="1" /></svg>