<?xml version="1.0" encoding="utf-8" ?>
<svg baseProfile="full" height="100" version="1.1" width="100" xmlns="http://www.w3.org/2000/svg" xmlns:ev="http://www.w3.org/2001/xml-events" xmlns:xlink="http://www.w3.org/1999/xlink"><defs /><polygon fill="none" id="1" points="43,33 43,34 42,35 42,54 43,55 43,57 44,58 45,58 45,57 46,56 46,55 47,54 47,53 49,51 49,50 51,48 51,47 50,46 49,47 49,48 48,49 48,50 47,51 47,52 46,53 44,53 43,52 43,51 44,50 44,37 45,36 45,33" stroke="black" stroke-width="1" /><polygon fill="none" id="2" points="64,32 64,35 65,36 65,54 64,55 64,59 63,60 63,61 58,66 57,66 55,68 54,68 53,69 51,69 51,70 52,71 53,71 54,70 55,70 56,69 57,69 58,68 59,68 65,62 65,60 66,59 66,56 67,55 67,33 66,32" stroke="black" stroke-width="1" /></svg>