<?xml version="1.0" encoding="utf-8" ?>
<svg baseProfile="full" height="100" version="1.1" width="100" xmlns="http://www.w3.org/2000/svg" xmlns:ev="http://www.w3.org/2001/xml-events" xmlns:xlink="http://www.w3.org/1999/xlink"><defs /><polygon fill="none" id="1" points="72,69 71,70 62,70 74,70 74,69" stroke="black" stroke-width="1" /><polygon fill="none" id="2" points="55,58 56,58 58,60 58,67 60,69 59,68 59,60 57,58" stroke="black" stroke-width="1" /><polygon fill="none" id="3" points="51,56 50,57 49,57 37,69 36,69 36,70 37,70 47,60 48,60 49,59 50,59 51,58" stroke="black" stroke-width="1" /><polygon fill="none" id="4" points="59,44 58,45 50,45 49,46 40,46 40,47 44,47 45,46 51,46 52,45 58,45 59,46 59,48 61,46 61,45 60,44" stroke="black" stroke-width="1" /><polygon fill="none" id="5" points="47,33 48,33 49,34 51,34 52,35 54,35 55,36 57,36 58,37 60,37 59,37 58,36 57,36 56,35 53,35 52,34 50,34 49,33" stroke="black" stroke-width="1" /></svg>