<?xml version="1.0" encoding="utf-8" ?>
<svg baseProfile="full" height="100" version="1.1" width="100" xmlns="http://www.w3.org/2000/svg" xmlns:ev="http://www.w3.org/2001/xml-events" xmlns:xlink="http://www.w3.org/1999/xlink"><defs /><polygon fill="none" id="1" points="46,33 46,39 45,40 45,52 46,53 46,56 47,57 48,57 49,58 50,57 50,56 51,55 51,54 52,53 52,52 54,50 54,49 56,47 55,47 54,46 54,47 53,48 53,49 52,50 52,51 50,53 48,53 47,52 47,51 48,50 48,38 49,37 49,33" stroke="black" stroke-width="1" /><polygon fill="none" id="2" points="69,32 70,33 70,38 71,39 71,53 70,54 70,57 69,58 69,59 68,60 68,61 63,66 62,66 60,68 58,68 57,69 55,69 57,71 58,71 59,70 60,70 61,69 63,69 65,67 66,67 71,62 71,60 72,59 72,57 73,56 73,48 74,47 74,46 73,45 73,32" stroke="black" stroke-width="1" /></svg>