<?xml version="1.0" encoding="utf-8" ?>
<svg baseProfile="full" height="100" version="1.1" width="100" xmlns="http://www.w3.org/2000/svg" xmlns:ev="http://www.w3.org/2001/xml-events" xmlns:xlink="http://www.w3.org/1999/xlink"><defs /><polygon fill="none" id="1" points="29,31 29,40 28,41 28,50 29,51 29,58 30,59 34,59 34,56 35,55 35,54 36,53 36,52 37,51 37,50 38,49 38,45 37,44 35,44 34,45 33,44 33,36 34,35 34,31" stroke="black" stroke-width="1" /><polygon fill="none" id="2" points="45,30 45,56 44,57 44,59 43,60 43,61 38,66 37,66 36,67 35,67 35,71 36,72 40,72 43,69 44,69 45,68 45,67 47,65 47,64 48,63 48,61 49,60 49,55 50,54 50,31 49,30" stroke="black" stroke-width="1" /></svg>