<?xml version="1.0" encoding="utf-8" ?>
<svg baseProfile="full" height="100" version="1.1" width="100" xmlns="http://www.w3.org/2000/svg" xmlns:ev="http://www.w3.org/2001/xml-events" xmlns:xlink="http://www.w3.org/1999/xlink"><defs /><polygon fill="none" id="1" points="33,31 33,35 32,36 32,53 33,54 33,58 34,59 38,59 38,57 39,56 39,55 40,54 40,53 41,52 41,51 42,50 42,49 43,48 43,46 42,45 42,44 39,44 39,45 38,46 37,45 37,37 38,36 38,31" stroke="black" stroke-width="1" /><polygon fill="none" id="2" points="50,30 50,34 51,35 51,54 50,55 50,58 49,59 49,60 43,66 42,66 41,67 40,67 39,68 39,70 41,72 44,72 45,71 46,71 47,70 48,70 52,66 52,65 54,63 54,61 55,60 55,57 56,56 56,31 55,30" stroke="black" stroke-width="1" /></svg>