<?xml version="1.0" encoding="utf-8" ?>
<svg baseProfile="full" height="100" version="1.1" width="100" xmlns="http://www.w3.org/2000/svg" xmlns:ev="http://www.w3.org/2001/xml-events" xmlns:xlink="http://www.w3.org/1999/xlink"><defs /><polygon fill="none" id="1" points="37,31 37,33 36,34 36,55 37,56 37,58 38,59 42,59 42,58 43,57 43,55 44,54 44,53 46,51 46,50 47,49 47,45 46,44 43,44 43,46 42,47 41,46 41,38 42,37 42,31" stroke="black" stroke-width="1" /><polygon fill="none" id="2" points="56,30 56,35 57,36 57,53 56,54 56,57 55,58 55,59 53,61 53,62 51,64 50,64 48,66 47,66 46,67 44,67 44,70 45,71 45,72 49,72 50,71 51,71 52,70 53,70 55,68 56,68 58,66 58,65 60,63 60,61 61,60 61,57 62,56 62,31 61,30" stroke="black" stroke-width="1" /></svg>