<?xml version="1.0" encoding="utf-8" ?>
<svg baseProfile="full" height="100" version="1.1" width="100" xmlns="http://www.w3.org/2000/svg" xmlns:ev="http://www.w3.org/2001/xml-events" xmlns:xlink="http://www.w3.org/1999/xlink"><defs /><polygon fill="none" id="1" points="41,31 41,32 40,33 40,55 41,56 41,58 42,59 46,59 46,58 47,57 47,56 48,55 48,54 50,52 50,51 52,49 52,45 51,44 48,44 47,45 47,46 46,47 45,46 45,38 46,37 46,31" stroke="black" stroke-width="1" /><polygon fill="none" id="2" points="62,30 62,36 63,37 63,52 62,53 62,57 61,58 61,59 56,64 55,64 53,66 52,66 51,67 49,67 48,68 48,70 50,72 54,72 55,71 56,71 57,70 58,70 59,69 60,69 66,63 66,61 67,60 67,57 68,56 68,31 67,30" stroke="black" stroke-width="1" /></svg>