<?xml version="1.0" encoding="utf-8" ?>
<svg baseProfile="full" height="100" version="1.1" width="100" xmlns="http://www.w3.org/2000/svg" xmlns:ev="http://www.w3.org/2001/xml-events" xmlns:xlink="http://www.w3.org/1999/xlink"><defs /><polygon fill="none" id="1" points="44,31 44,37 43,38 43,53 44,54 44,57 45,58 46,58 47,59 50,59 51,58 51,57 52,56 52,55 53,54 53,53 55,51 55,50 57,48 57,45 56,45 55,44 52,44 52,45 51,46 51,47 50,48 49,47 49,39 50,38 50,35 51,34 51,32 50,31" stroke="black" stroke-width="1" /><polygon fill="none" id="2" points="67,30 67,33 68,34 68,39 69,40 69,51 68,52 68,55 67,56 67,57 66,58 66,59 61,64 60,64 58,66 56,66 55,67 53,67 52,68 52,70 53,70 55,72 59,72 60,71 61,71 62,70 64,70 66,68 67,68 72,63 72,61 73,60 73,58 74,57 74,49 75,48 75,44 74,43 74,30" stroke="black" stroke-width="1" /></svg>