<?xml version="1.0" encoding="utf-8" ?>
<svg baseProfile="full" height="100" version="1.1" width="100" xmlns="http://www.w3.org/2000/svg" xmlns:ev="http://www.w3.org/2001/xml-events" xmlns:xlink="http://www.w3.org/1999/xlink"><defs /><polygon fill="none" id="1" points="31,52 31,56 32,57 32,54 33,53 33,52" stroke="black" stroke-width="1" /><polygon fill="none" id="2" points="35,49" stroke="black" stroke-width="1" /><polygon fill="none" id="3" points="36,47" stroke="black" stroke-width="1" /><polygon fill="none" id="4" points="31,33 31,42 30,43 30,48 30,46 31,45 31,34 32,33" stroke="black" stroke-width="1" /><polygon fill="none" id="5" points="47,32 47,58 46,59 46,61 45,62 45,63 40,68 39,68 38,69 37,69 38,70 41,67 42,67 43,66 43,65 45,63 45,62 46,61 46,59 47,58 47,53 48,52 48,36 47,35" stroke="black" stroke-width="1" /></svg>