<?xml version="1.0" encoding="utf-8" ?>
<svg baseProfile="full" height="100" version="1.1" width="100" xmlns="http://www.w3.org/2000/svg" xmlns:ev="http://www.w3.org/2001/xml-events" xmlns:xlink="http://www.w3.org/1999/xlink"><defs /><polygon fill="none" id="1" points="39,50" stroke="black" stroke-width="1" /><polygon fill="none" id="2" points="40,48" stroke="black" stroke-width="1" /><polygon fill="none" id="3" points="35,33 35,37 34,38 34,51 35,52 35,56 36,57 36,55 37,54 37,53 36,53 34,51 34,48 35,47 35,35 36,34 36,33" stroke="black" stroke-width="1" /><polygon fill="none" id="4" points="52,32 53,33 53,56 52,57 52,60 51,61 51,62 45,68 44,68 43,69 42,69 44,69 45,68 46,68 50,64 50,63 52,61 52,59 53,58 53,55 54,54 54,33 53,32" stroke="black" stroke-width="1" /></svg>