<?xml version="1.0" encoding="utf-8" ?>
<svg baseProfile="full" height="100" version="1.1" width="100" xmlns="http://www.w3.org/2000/svg" xmlns:ev="http://www.w3.org/2001/xml-events" xmlns:xlink="http://www.w3.org/1999/xlink"><defs /><polygon fill="none" id="1" points="44,49" stroke="black" stroke-width="1" /><polygon fill="none" id="2" points="45,47" stroke="black" stroke-width="1" /><polygon fill="none" id="3" points="39,33 39,35 38,36 38,53 39,54 39,56 40,57 40,56 41,55 41,53 39,53 38,52 38,49 39,48 39,36 40,35 40,33" stroke="black" stroke-width="1" /><polygon fill="none" id="4" points="58,32 58,33 59,34 59,55 58,56 58,59 57,60 57,61 55,63 55,64 53,66 52,66 50,68 49,68 48,69 47,69 47,70 48,69 49,69 50,68 51,68 53,66 54,66 56,64 56,63 58,61 58,59 59,58 59,55 60,54 60,33 59,32" stroke="black" stroke-width="1" /></svg>