<?xml version="1.0" encoding="utf-8" ?>
<svg baseProfile="full" height="100" version="1.1" width="100" xmlns="http://www.w3.org/2000/svg" xmlns:ev="http://www.w3.org/2001/xml-events" xmlns:xlink="http://www.w3.org/1999/xlink"><defs /><polygon fill="none" id="1" points="49,47 49,48 48,49 48,50 47,51 48,50 48,49 50,47" stroke="black" stroke-width="1" /><polygon fill="none" id="2" points="43,33 43,34 42,35 42,53 43,54 43,56 44,57 44,56 45,55 45,54 46,53 43,53 42,52 42,50 43,49 43,36 44,35 44,33" stroke="black" stroke-width="1" /><polygon fill="none" id="3" points="64,32 64,34 65,35 65,54 64,55 64,59 63,60 63,61 58,66 57,66 55,68 54,68 53,69 51,69 52,70 53,69 54,69 55,68 56,68 57,67 58,67 64,61 64,59 65,58 65,55 66,54 66,33 65,32" stroke="black" stroke-width="1" /></svg>