<?xml version="1.0" encoding="utf-8" ?>
<svg baseProfile="full" height="100" version="1.1" width="100" xmlns="http://www.w3.org/2000/svg" xmlns:ev="http://www.w3.org/2001/xml-events" xmlns:xlink="http://www.w3.org/1999/xlink"><defs /><polygon fill="none" id="1" points="39,31 39,37 38,38 37,38 36,39 32,39 31,38 29,38 29,42 37,42 38,43 38,49 37,50 36,50 35,51 34,51 30,55 30,56 29,57 29,58 28,59 28,61 27,62 27,67 28,68 28,69 29,70 34,70 35,69 36,69 38,67 39,68 39,70 40,70 41,69 42,69 42,64 46,60 46,59 48,57 48,56 49,55 49,53 50,52 50,50 51,49 52,49 53,50 54,50 55,51 56,51 57,52 57,53 58,54 58,55 59,56 59,60 58,61 58,62 57,63 57,64 56,65 55,65 53,67 52,67 51,68 47,68 47,71 48,72 52,72 53,71 54,71 55,70 56,70 57,69 58,69 60,67 60,66 62,64 62,61 63,60 63,56 62,55 62,53 61,52 61,51 57,47 55,47 54,46 53,46 52,45 52,43 49,43 49,45 48,46 45,46 44,47 42,47 41,46 41,42 42,41 46,41 47,40 52,40 53,39 55,39 55,35 53,35 52,36 49,36 48,37 45,37 44,38 43,38 42,37 42,34 43,33 43,31" stroke="black" stroke-width="1" /><polygon fill="none" id="2" points="36,54 37,53 38,54 38,63 35,66 34,66 33,67 32,67 31,66 31,61 32,60 32,59 36,55" stroke="black" stroke-width="1" /><polygon fill="none" id="3" points="44,50 45,49 46,49 47,50 47,51 46,52 46,53 44,55 44,56 43,57 43,58 42,59 41,58 41,51 42,50" stroke="black" stroke-width="1" /></svg>