<?xml version="1.0" encoding="utf-8" ?>
<svg baseProfile="full" height="100" version="1.1" width="100" xmlns="http://www.w3.org/2000/svg" xmlns:ev="http://www.w3.org/2001/xml-events" xmlns:xlink="http://www.w3.org/1999/xlink"><defs /><polygon fill="none" id="1" points="79,69 78,70 68,70 81,70 80,69" stroke="black" stroke-width="1" /><polygon fill="none" id="2" points="60,58 61,58 63,60 63,66 64,67 64,68 65,68 66,69 65,68 65,61 64,60 64,59 63,59 62,58" stroke="black" stroke-width="1" /><polygon fill="none" id="3" points="58,53 51,60 50,60 43,67 42,67 39,70 40,70 44,66 45,66 50,61 51,61 52,60 53,60 54,59 55,59 55,56" stroke="black" stroke-width="1" /><polygon fill="none" id="4" points="64,44 63,45 54,45 53,46 43,46 43,47 48,47 49,46 56,46 57,45 63,45 64,46 64,48 61,51 66,46 67,46 67,45 66,44" stroke="black" stroke-width="1" /><polygon fill="none" id="5" points="51,33 52,33 53,34 56,34 57,35 59,35 60,36 62,36 63,37 65,37 64,36 62,36 61,35 58,35 57,34 55,34 54,33" stroke="black" stroke-width="1" /></svg>