<?xml version="1.0" encoding="utf-8" ?>
<svg baseProfile="full" height="100" version="1.1" width="100" xmlns="http://www.w3.org/2000/svg" xmlns:ev="http://www.w3.org/2001/xml-events" xmlns:xlink="http://www.w3.org/1999/xlink"><defs /><polygon fill="none" id="1" points="54,47 53,48 53,49 52,50 53,49 53,48" stroke="black" stroke-width="1" /><polygon fill="none" id="2" points="46,33 46,39 45,40 45,51 46,52 46,55 47,56 49,56 49,55 50,54 50,53 51,52 50,53 47,53 46,52 46,50 47,49 47,37 48,36 48,33" stroke="black" stroke-width="1" /><polygon fill="none" id="3" points="70,32 70,37 71,38 71,53 70,54 70,57 69,58 69,59 68,60 68,61 63,66 62,66 60,68 58,68 57,69 56,69 57,70 58,69 59,69 60,68 62,68 64,66 65,66 70,61 70,59 71,58 71,56 72,55 72,47 73,46 72,45 72,32" stroke="black" stroke-width="1" /></svg>