<?xml version="1.0" encoding="utf-8" ?>
<svg baseProfile="full" height="100" version="1.1" width="100" xmlns="http://www.w3.org/2000/svg" xmlns:ev="http://www.w3.org/2001/xml-events" xmlns:xlink="http://www.w3.org/1999/xlink"><defs /><polygon fill="none" id="1" points="40,34 39,35 29,35 29,38 36,38 37,37 40,37 41,36 42,37 42,38 40,40 40,41 37,44 37,45 33,49 33,50 25,58 27,60 28,60 29,59 29,58 32,55 33,55 35,53 36,53 37,52 39,52 40,51 45,51 46,52 47,52 50,55 50,62 49,63 49,64 45,68 44,67 44,66 43,65 43,64 39,60 35,60 34,61 33,61 32,62 32,68 34,70 35,70 36,71 43,71 44,70 45,70 46,69 47,69 48,68 49,68 50,67 50,66 52,64 52,62 53,61 53,56 52,55 52,54 51,53 51,52 50,51 49,51 48,50 47,50 46,49 40,49 39,50 38,50 37,51 36,50 36,49 40,45 40,44 43,41 43,40 46,37 46,35 45,34" stroke="black" stroke-width="1" /><polygon fill="none" id="2" points="36,62 38,62 42,66 42,68 41,69 36,69 34,67 34,66 33,65" stroke="black" stroke-width="1" /></svg>