<?xml version="1.0" encoding="utf-8" ?>
<svg baseProfile="full" height="100" version="1.1" width="100" xmlns="http://www.w3.org/2000/svg" xmlns:ev="http://www.w3.org/2001/xml-events" xmlns:xlink="http://www.w3.org/1999/xlink"><defs /><polygon fill="none" id="1" points="55,34 54,35 40,35 40,36 41,37 41,38 50,38 51,37 56,37 57,36 58,37 58,38 56,40 55,40 42,53 41,53 37,57 36,57 35,58 37,60 39,60 43,56 44,56 46,54 47,54 48,53 50,53 51,52 54,52 55,51 62,51 63,52 65,52 69,56 69,62 64,67 63,67 62,68 60,66 60,65 57,62 56,62 55,61 54,61 53,60 48,60 47,61 46,61 44,63 44,64 43,65 44,66 44,68 46,70 48,70 49,71 59,71 60,70 63,70 64,69 65,69 66,68 67,68 69,66 70,66 71,65 71,64 72,63 72,62 73,61 73,56 72,55 72,54 70,52 69,52 67,50 65,50 64,49 55,49 54,50 52,50 51,51 50,51 49,50 53,46 54,46 63,37 64,37 64,35 63,34" stroke="black" stroke-width="1" /><polygon fill="none" id="2" points="48,63 49,62 52,62 53,63 54,63 58,67 58,68 57,69 50,69 49,68 48,68 46,66 46,64 47,63" stroke="black" stroke-width="1" /></svg>