<?xml version="1.0" encoding="utf-8" ?>
<svg baseProfile="full" height="100" version="1.1" width="100" xmlns="http://www.w3.org/2000/svg" xmlns:ev="http://www.w3.org/2001/xml-events" xmlns:xlink="http://www.w3.org/1999/xlink"><defs /><polygon fill="none" id="1" points="45,34 44,35 33,35 33,38 40,38 41,37 45,37 46,36 47,37 47,38 44,41 44,42 39,47 39,48 29,58 29,59 30,60 31,60 35,56 36,56 38,54 39,54 40,53 41,53 42,52 44,52 45,51 51,51 52,52 53,52 56,55 56,56 57,57 57,61 56,62 56,63 52,67 50,67 49,66 49,65 44,60 39,60 36,63 36,64 35,65 36,66 36,68 38,70 39,70 40,71 48,71 49,70 51,70 52,69 53,69 54,68 55,68 58,65 58,64 59,63 59,55 58,54 58,53 56,51 55,51 54,50 53,50 52,49 45,49 44,50 42,50 41,49 46,44 46,43 52,37 52,35 51,34" stroke="black" stroke-width="1" /><polygon fill="none" id="2" points="40,62 43,62 47,66 47,67 48,68 47,69 41,69 40,68 39,68 38,67 38,64" stroke="black" stroke-width="1" /><polygon fill="none" id="3" points="40,50 41,49 42,50 41,51" stroke="black" stroke-width="1" /></svg>