<?xml version="1.0" encoding="utf-8" ?>
<svg baseProfile="full" height="100" version="1.1" width="100" xmlns="http://www.w3.org/2000/svg" xmlns:ev="http://www.w3.org/2001/xml-events" xmlns:xlink="http://www.w3.org/1999/xlink"><defs /><polygon fill="none" id="1" points="50,34 49,35 37,35 37,38 45,38 46,37 51,37 52,38 49,41 49,42 36,55 35,55 32,58 33,59 33,60 34,61 39,56 40,56 42,54 43,54 44,53 45,53 46,52 49,52 50,51 57,51 58,52 59,52 63,56 63,61 62,62 62,63 58,67 57,67 56,68 55,67 55,66 53,64 53,63 52,62 51,62 49,60 43,60 40,63 40,64 39,65 40,66 40,68 42,70 44,70 45,71 53,71 54,70 57,70 58,69 59,69 60,68 61,68 65,64 65,63 66,62 66,56 65,55 65,54 61,50 59,50 58,49 50,49 49,50 47,50 46,51 45,50 45,49 47,47 48,47 58,37 58,35 57,34" stroke="black" stroke-width="1" /><polygon fill="none" id="2" points="44,62 48,62 53,67 53,68 52,69 45,69 42,66 42,64" stroke="black" stroke-width="1" /><polygon fill="none" id="3" points="51,37 52,36 53,37 52,38" stroke="black" stroke-width="1" /></svg>