<?xml version="1.0" encoding="utf-8" ?>
<svg baseProfile="full" height="100" version="1.1" width="100" xmlns="http://www.w3.org/2000/svg" xmlns:ev="http://www.w3.org/2001/xml-events" xmlns:xlink="http://www.w3.org/1999/xlink"><defs /><polygon fill="none" id="1" points="60,34 59,35 44,35 44,38 54,38 55,37 61,37 62,36 63,36 64,37 61,40 60,40 52,48 51,48 46,53 45,53 43,55 42,55 39,58 38,58 40,60 42,60 44,58 45,58 47,56 48,56 49,55 50,55 51,54 52,54 53,53 54,53 55,52 59,52 60,51 68,51 69,52 71,52 76,57 76,61 71,66 70,66 69,67 68,67 67,68 66,67 66,66 61,61 59,61 58,60 52,60 51,61 50,61 48,63 48,64 47,65 48,66 48,68 49,69 50,69 51,70 52,70 53,71 64,71 65,70 69,70 70,69 71,69 72,68 73,68 74,67 75,67 78,64 78,63 79,62 79,55 75,51 74,51 73,50 71,50 70,49 60,49 59,50 56,50 55,51 54,50 54,49 55,48 56,48 58,46 59,46 64,41 65,41 69,37 70,37 70,36 69,35 69,34" stroke="black" stroke-width="1" /><polygon fill="none" id="2" points="53,62 57,62 58,63 59,63 64,68 63,69 54,69 51,66 51,64" stroke="black" stroke-width="1" /></svg>