<?xml version="1.0" encoding="utf-8" ?>
<svg baseProfile="full" height="100" version="1.1" width="100" xmlns="http://www.w3.org/2000/svg" xmlns:ev="http://www.w3.org/2001/xml-events" xmlns:xlink="http://www.w3.org/1999/xlink"><defs /><polygon fill="none" id="1" points="40,34 39,35 29,35 29,39 37,39 38,38 40,38 41,39 40,40 40,41 37,44 37,45 33,49 33,50 25,58 25,59 27,61 29,61 30,60 30,59 33,56 34,56 36,54 37,54 38,53 40,53 41,52 45,52 46,53 47,53 50,56 50,62 49,63 49,64 46,67 44,65 44,64 40,60 35,60 34,61 33,61 32,62 32,69 34,71 35,71 36,72 44,72 45,71 46,71 47,70 48,70 49,69 50,69 51,68 51,67 53,65 53,63 54,62 54,56 53,55 53,54 52,53 52,52 51,51 50,51 49,50 48,50 47,49 40,49 39,48 41,46 41,45 44,42 44,41 47,38 47,35 46,34" stroke="black" stroke-width="1" /><polygon fill="none" id="2" points="37,63 38,63 42,67 42,68 41,69 37,69 35,67 35,65" stroke="black" stroke-width="1" /><polygon fill="none" id="3" points="38,49 39,48 40,49 39,50" stroke="black" stroke-width="1" /></svg>