<?xml version="1.0" encoding="utf-8" ?>
<svg baseProfile="full" height="100" version="1.1" width="100" xmlns="http://www.w3.org/2000/svg" xmlns:ev="http://www.w3.org/2001/xml-events" xmlns:xlink="http://www.w3.org/1999/xlink"><defs /><polygon fill="none" id="1" points="45,34 44,35 33,35 33,39 41,39 42,38 45,38 46,39 44,41 44,42 39,47 39,48 29,58 29,60 30,61 32,61 36,57 37,57 39,55 40,55 41,54 42,54 43,53 45,53 46,52 51,52 52,53 53,53 56,56 56,57 57,58 57,61 56,62 56,63 52,67 51,67 50,66 50,65 45,60 39,60 36,63 36,64 35,65 35,66 36,67 36,69 38,71 39,71 40,72 49,72 50,71 52,71 53,70 54,70 55,69 56,69 59,66 59,65 60,64 60,55 59,54 59,53 57,51 56,51 55,50 54,50 53,49 45,49 44,48 47,45 47,44 53,38 53,35 52,34" stroke="black" stroke-width="1" /><polygon fill="none" id="2" points="41,63 43,63 47,67 47,68 46,69 42,69 41,68 40,68 39,67 39,65" stroke="black" stroke-width="1" /><polygon fill="none" id="3" points="43,49 44,48 45,49 44,50" stroke="black" stroke-width="1" /></svg>