<?xml version="1.0" encoding="utf-8" ?>
<svg baseProfile="full" height="100" version="1.1" width="100" xmlns="http://www.w3.org/2000/svg" xmlns:ev="http://www.w3.org/2001/xml-events" xmlns:xlink="http://www.w3.org/1999/xlink"><defs /><polygon fill="none" id="1" points="50,34 49,35 37,35 37,39 46,39 47,38 50,38 51,39 49,41 49,42 36,55 35,55 32,58 32,59 33,60 33,61 34,62 35,62 40,57 41,57 43,55 44,55 45,54 46,54 47,53 50,53 51,52 57,52 58,53 59,53 63,57 63,61 62,62 62,63 58,67 57,67 54,64 54,63 53,62 52,62 50,60 43,60 40,63 40,64 39,65 39,66 40,67 40,69 42,71 44,71 45,72 54,72 55,71 58,71 59,70 60,70 61,69 62,69 66,65 66,64 67,63 67,56 66,55 66,54 62,50 60,50 59,49 50,49 49,48 59,38 59,35 58,34" stroke="black" stroke-width="1" /><polygon fill="none" id="2" points="45,63 48,63 53,68 52,69 46,69 43,66 43,65" stroke="black" stroke-width="1" /><polygon fill="none" id="3" points="47,49 48,48 49,48 50,49 49,50 48,50" stroke="black" stroke-width="1" /></svg>