<?xml version="1.0" encoding="utf-8" ?>
<svg baseProfile="full" height="100" version="1.1" width="100" xmlns="http://www.w3.org/2000/svg" xmlns:ev="http://www.w3.org/2001/xml-events" xmlns:xlink="http://www.w3.org/1999/xlink"><defs /><polygon fill="none" id="1" points="60,34 59,35 44,35 44,39 55,39 56,38 61,38 62,39 61,40 60,40 52,48 51,48 46,53 45,53 43,55 42,55 39,58 38,58 38,59 40,61 43,61 45,59 46,59 48,57 49,57 50,56 51,56 52,55 53,55 54,54 55,54 56,53 60,53 61,52 68,52 69,53 71,53 76,58 76,61 71,66 70,66 69,67 68,67 62,61 60,61 59,60 52,60 51,61 50,61 48,63 48,64 47,65 47,66 48,67 48,69 49,70 50,70 51,71 52,71 53,72 65,72 66,71 70,71 71,70 72,70 73,69 74,69 75,68 76,68 79,65 79,64 80,63 80,55 76,51 75,51 74,50 72,50 71,49 60,49 59,50 58,50 57,49 59,47 60,47 65,42 66,42 70,38 71,38 71,36 70,35 70,34" stroke="black" stroke-width="1" /><polygon fill="none" id="2" points="54,63 57,63 58,64 59,64 63,68 62,69 55,69 52,66 52,65" stroke="black" stroke-width="1" /></svg>