<?xml version="1.0" encoding="utf-8" ?>
<svg baseProfile="full" height="100" version="1.1" width="100" xmlns="http://www.w3.org/2000/svg" xmlns:ev="http://www.w3.org/2001/xml-events" xmlns:xlink="http://www.w3.org/1999/xlink"><defs /><polygon fill="none" id="1" points="41,35 40,36 30,36 30,38 36,38 37,37 40,37 41,36 42,36 43,37 43,39 41,41 41,42 38,45 38,46 34,50 34,51 27,58 27,59 28,60 29,59 29,58 32,55 33,55 35,53 36,53 37,52 39,52 40,51 46,51 47,52 48,52 51,55 51,63 50,64 50,65 46,69 45,69 44,68 44,67 43,66 43,65 39,61 36,61 35,62 34,62 33,63 33,68 35,70 36,70 37,71 43,71 44,70 45,70 46,69 47,69 48,68 49,68 50,67 50,66 52,64 52,62 53,61 53,57 52,56 52,55 51,54 51,53 50,52 49,52 48,51 47,51 46,50 41,50 40,51 39,51 38,52 37,52 36,51 36,49 40,45 40,44 43,41 43,40 46,37 46,36 45,35" stroke="black" stroke-width="1" /><polygon fill="none" id="2" points="36,62 39,62 43,66 43,69 42,70 36,70 34,68 34,67 33,66 33,65" stroke="black" stroke-width="1" /></svg>