<?xml version="1.0" encoding="utf-8" ?>
<svg baseProfile="full" height="100" version="1.1" width="100" xmlns="http://www.w3.org/2000/svg" xmlns:ev="http://www.w3.org/2001/xml-events" xmlns:xlink="http://www.w3.org/1999/xlink"><defs /><polygon fill="none" id="1" points="46,35 45,36 34,36 34,38 40,38 41,37 45,37 46,36 47,36 48,37 48,39 45,42 45,43 40,48 40,49 30,59 31,60 35,56 36,56 38,54 39,54 40,53 41,53 42,52 44,52 45,51 52,51 53,52 54,52 57,55 57,56 58,57 58,62 57,63 57,64 53,68 50,68 49,67 49,66 44,61 40,61 37,64 37,68 39,70 40,70 41,71 48,71 49,70 51,70 52,69 53,69 54,68 55,68 58,65 58,64 59,63 59,56 58,55 58,54 56,52 55,52 54,51 53,51 52,50 46,50 45,51 43,51 42,52 41,52 40,51 40,50 46,44 46,43 52,37 52,36 51,35" stroke="black" stroke-width="1" /><polygon fill="none" id="2" points="40,62 44,62 48,66 48,67 49,68 49,69 48,70 41,70 40,69 39,69 38,68 38,64" stroke="black" stroke-width="1" /></svg>