<?xml version="1.0" encoding="utf-8" ?>
<svg baseProfile="full" height="100" version="1.1" width="100" xmlns="http://www.w3.org/2000/svg" xmlns:ev="http://www.w3.org/2001/xml-events" xmlns:xlink="http://www.w3.org/1999/xlink"><defs /><polygon fill="none" id="1" points="51,35 50,36 38,36 38,38 45,38 46,37 51,37 52,36 53,36 54,37 54,38 50,42 50,43 37,56 36,56 34,58 34,60 35,60 39,56 40,56 42,54 43,54 44,53 45,53 46,52 49,52 50,51 58,51 59,52 60,52 64,56 64,62 63,63 63,64 59,68 58,68 57,69 56,69 55,68 55,67 53,65 53,64 52,63 51,63 49,61 44,61 41,64 41,68 43,70 45,70 46,71 53,71 54,70 57,70 58,69 59,69 60,68 61,68 65,64 65,63 66,62 66,57 65,56 65,55 61,51 59,51 58,50 51,50 50,51 48,51 47,52 46,52 45,51 45,49 47,47 48,47 58,37 58,36 57,35" stroke="black" stroke-width="1" /><polygon fill="none" id="2" points="44,62 49,62 54,67 54,69 53,70 45,70 42,67 42,64" stroke="black" stroke-width="1" /></svg>