<?xml version="1.0" encoding="utf-8" ?>
<svg baseProfile="full" height="100" version="1.1" width="100" xmlns="http://www.w3.org/2000/svg" xmlns:ev="http://www.w3.org/2001/xml-events" xmlns:xlink="http://www.w3.org/1999/xlink"><defs /><polygon fill="none" id="1" points="56,35 55,36 41,36 42,37 42,38 50,38 51,37 56,37 57,36 58,36 59,37 59,39 57,41 56,41 43,54 42,54 38,58 37,58 37,59 38,60 39,60 43,56 44,56 46,54 47,54 48,53 50,53 51,52 54,52 55,51 63,51 64,52 66,52 70,56 70,63 65,68 64,68 63,69 62,69 60,67 60,66 57,63 56,63 55,62 54,62 53,61 49,61 48,62 47,62 45,64 45,68 47,70 49,70 50,71 59,71 60,70 63,70 64,69 65,69 66,68 67,68 69,66 70,66 71,65 71,64 72,63 72,62 73,61 73,57 72,56 72,55 70,53 69,53 67,51 65,51 64,50 56,50 55,51 53,51 52,52 50,52 49,51 49,50 53,46 54,46 63,37 64,37 64,36 63,35" stroke="black" stroke-width="1" /><polygon fill="none" id="2" points="48,63 49,62 53,62 54,63 55,63 59,67 59,69 58,70 50,70 49,69 48,69 46,67 46,64 47,63" stroke="black" stroke-width="1" /></svg>