<?xml version="1.0" encoding="utf-8" ?>
<svg baseProfile="full" height="100" version="1.1" width="100" xmlns="http://www.w3.org/2000/svg" xmlns:ev="http://www.w3.org/2001/xml-events" xmlns:xlink="http://www.w3.org/1999/xlink"><defs /><polygon fill="none" id="1" points="53,36 51,38 51,39 52,39 55,42 56,42 58,44 58,45 60,47 62,45 62,44 58,40 57,40" stroke="black" stroke-width="1" /><polygon fill="none" id="2" points="37,33 37,39 38,40 38,41 37,42 29,42 29,45 34,45 35,44 37,44 38,45 38,46 37,47 37,53 35,55 34,55 32,57 31,57 30,58 30,59 28,61 28,66 29,67 29,68 30,69 31,69 32,70 33,70 34,71 38,71 40,69 40,57 39,56 41,54 44,54 45,53 52,53 53,54 54,54 57,57 57,59 58,60 57,61 57,63 53,67 52,67 51,68 44,68 44,69 45,70 45,71 50,71 51,70 53,70 54,69 55,69 56,68 57,68 58,67 58,66 59,65 59,64 60,63 60,57 59,56 59,55 57,53 56,53 55,52 54,52 53,51 44,51 43,52 40,52 39,51 40,50 40,46 39,45 40,44 41,44 42,43 47,43 48,42 48,40 45,40 44,41 40,41 39,40 40,39 40,33" stroke="black" stroke-width="1" /><polygon fill="none" id="3" points="36,56 37,56 38,57 38,58 37,59 37,68 36,69 34,69 30,65 30,63 31,62 31,61" stroke="black" stroke-width="1" /></svg>