<?xml version="1.0" encoding="utf-8" ?>
<svg baseProfile="full" height="100" version="1.1" width="100" xmlns="http://www.w3.org/2000/svg" xmlns:ev="http://www.w3.org/2001/xml-events" xmlns:xlink="http://www.w3.org/1999/xlink"><defs /><polygon fill="none" id="1" points="61,35 60,36 45,36 45,38 54,38 55,37 61,37 62,36 64,36 65,37 65,38 62,41 61,41 53,49 52,49 47,54 46,54 44,56 43,56 40,59 41,60 42,60 44,58 45,58 47,56 48,56 49,55 50,55 51,54 52,54 53,53 54,53 55,52 59,52 60,51 69,51 70,52 72,52 77,57 77,62 72,67 71,67 70,68 69,68 68,69 67,69 66,68 66,67 61,62 59,62 58,61 53,61 52,62 51,62 49,64 49,68 50,69 51,69 52,70 53,70 54,71 64,71 65,70 69,70 70,69 71,69 72,68 73,68 74,67 75,67 78,64 78,63 79,62 79,56 75,52 74,52 73,51 71,51 70,50 61,50 60,51 57,51 56,52 55,52 54,51 54,49 55,48 56,48 58,46 59,46 64,41 65,41 69,37 70,37 69,36 69,35" stroke="black" stroke-width="1" /><polygon fill="none" id="2" points="53,62 58,62 59,63 60,63 65,68 65,69 64,70 54,70 51,67 51,64" stroke="black" stroke-width="1" /></svg>