<?xml version="1.0" encoding="utf-8" ?>
<svg baseProfile="full" height="100" version="1.1" width="100" xmlns="http://www.w3.org/2000/svg" xmlns:ev="http://www.w3.org/2001/xml-events" xmlns:xlink="http://www.w3.org/1999/xlink"><defs /><polygon fill="none" id="1" points="39,33 38,34 28,34 28,39 37,39 38,38 39,39 39,40 36,43 36,44 32,48 32,49 24,57 24,59 26,61 29,61 30,60 31,61 31,69 33,71 34,71 35,72 44,72 45,71 46,71 47,70 48,70 49,69 50,69 51,68 51,67 53,65 53,63 54,62 54,55 53,54 53,53 52,52 52,51 51,50 50,50 49,49 48,49 47,48 41,48 40,47 41,46 41,45 44,42 44,41 47,38 47,34 46,33" stroke="black" stroke-width="1" /><polygon fill="none" id="2" points="37,63 41,67 40,68 37,68 35,66 35,65" stroke="black" stroke-width="1" /><polygon fill="none" id="3" points="40,53 41,52 44,52 45,53 46,53 49,56 49,61 48,62 48,63 46,65 45,65 44,64 44,63 40,59 34,59 33,60 32,60 31,61 30,60 30,59 33,56 34,56 36,54 37,54 38,53" stroke="black" stroke-width="1" /></svg>