<?xml version="1.0" encoding="utf-8" ?>
<svg baseProfile="full" height="100" version="1.1" width="100" xmlns="http://www.w3.org/2000/svg" xmlns:ev="http://www.w3.org/2001/xml-events" xmlns:xlink="http://www.w3.org/1999/xlink"><defs /><polygon fill="none" id="1" points="44,33 43,34 32,34 32,39 41,39 42,38 43,38 44,39 43,40 43,41 38,46 38,47 28,57 28,60 29,61 32,61 36,57 37,57 39,55 40,55 41,54 42,54 43,53 45,53 46,52 50,52 51,53 52,53 55,56 55,57 56,58 56,60 55,61 55,62 51,66 50,65 50,64 45,59 38,59 35,62 35,63 34,64 34,66 35,67 35,69 37,71 38,71 39,72 49,72 50,71 52,71 53,70 54,70 55,69 56,69 59,66 59,65 60,64 60,54 59,53 59,52 57,50 56,50 55,49 54,49 53,48 46,48 45,47 47,45 47,44 53,38 53,34 52,33" stroke="black" stroke-width="1" /><polygon fill="none" id="2" points="41,63 42,63 46,67 45,68 42,68 41,67 40,67 39,66 39,65" stroke="black" stroke-width="1" /></svg>