<?xml version="1.0" encoding="utf-8" ?>
<svg baseProfile="full" height="100" version="1.1" width="100" xmlns="http://www.w3.org/2000/svg" xmlns:ev="http://www.w3.org/2001/xml-events" xmlns:xlink="http://www.w3.org/1999/xlink"><defs /><polygon fill="none" id="1" points="49,33 48,34 36,34 36,39 46,39 47,38 48,38 49,39 48,40 48,41 35,54 34,54 31,57 31,59 32,60 32,61 33,62 35,62 40,57 41,57 43,55 44,55 45,54 46,54 47,53 50,53 51,52 56,52 57,53 58,53 62,57 62,60 61,61 61,62 57,66 54,63 54,62 53,61 52,61 50,59 42,59 39,62 39,63 38,64 38,66 39,67 39,69 41,71 43,71 44,72 54,72 55,71 58,71 59,70 60,70 61,69 62,69 66,65 66,64 67,63 67,55 66,54 66,53 62,49 60,49 59,48 51,48 50,47 59,38 59,34 58,33" stroke="black" stroke-width="1" /><polygon fill="none" id="2" points="45,63 47,63 51,67 50,68 46,68 43,65" stroke="black" stroke-width="1" /></svg>