<?xml version="1.0" encoding="utf-8" ?>
<svg baseProfile="full" height="100" version="1.1" width="100" xmlns="http://www.w3.org/2000/svg" xmlns:ev="http://www.w3.org/2001/xml-events" xmlns:xlink="http://www.w3.org/1999/xlink"><defs /><polygon fill="none" id="1" points="54,33 53,34 39,34 39,37 40,38 40,39 51,39 52,38 53,38 54,39 41,52 40,52 36,56 35,56 34,57 34,59 36,61 40,61 44,57 45,57 47,55 48,55 49,54 51,54 52,53 55,53 56,52 61,52 62,53 64,53 68,57 68,61 63,66 62,66 61,65 61,64 58,61 57,61 56,60 55,60 54,59 47,59 46,60 45,60 43,62 43,63 42,64 42,66 43,67 43,69 45,71 47,71 48,72 60,72 61,71 64,71 65,70 66,70 67,69 68,69 70,67 71,67 72,66 72,65 73,64 73,63 74,62 74,55 73,54 73,53 71,51 70,51 68,49 66,49 65,48 56,48 55,47 64,38 65,38 65,34 64,33" stroke="black" stroke-width="1" /><polygon fill="none" id="2" points="49,64 50,63 51,63 52,64 53,64 56,67 55,68 51,68 50,67 49,67 47,65 48,64" stroke="black" stroke-width="1" /></svg>