<?xml version="1.0" encoding="utf-8" ?>
<svg baseProfile="full" height="100" version="1.1" width="100" xmlns="http://www.w3.org/2000/svg" xmlns:ev="http://www.w3.org/2001/xml-events" xmlns:xlink="http://www.w3.org/1999/xlink"><defs /><polygon fill="none" id="1" points="59,33 58,34 43,34 43,39 55,39 56,38 58,38 59,39 51,47 50,47 45,52 44,52 42,54 41,54 38,57 37,57 37,59 39,61 43,61 45,59 46,59 48,57 49,57 50,56 51,56 52,55 53,55 54,54 55,54 56,53 60,53 61,52 67,52 68,53 70,53 75,58 75,60 70,65 69,65 68,66 62,60 60,60 59,59 51,59 50,60 49,60 47,62 47,63 46,64 46,66 47,67 47,69 48,70 49,70 50,71 51,71 52,72 65,72 66,71 70,71 71,70 72,70 73,69 74,69 75,68 76,68 79,65 79,64 80,63 80,54 76,50 75,50 74,49 72,49 71,48 61,48 60,47 65,42 66,42 70,38 71,38 71,35 70,34 70,33" stroke="black" stroke-width="1" /><polygon fill="none" id="2" points="54,63 56,63 57,64 58,64 61,67 60,68 55,68 52,65" stroke="black" stroke-width="1" /></svg>