<?xml version="1.0" encoding="utf-8" ?>
<svg baseProfile="full" height="100" version="1.1" width="100" xmlns="http://www.w3.org/2000/svg" xmlns:ev="http://www.w3.org/2001/xml-events" xmlns:xlink="http://www.w3.org/1999/xlink"><defs /><polygon fill="none" id="1" points="43,67 43,69 42,70 37,70 42,70 43,69 44,69 43,68" stroke="black" stroke-width="1" /><polygon fill="none" id="2" points="33,67" stroke="black" stroke-width="1" /><polygon fill="none" id="3" points="49,66 48,67" stroke="black" stroke-width="1" /><polygon fill="none" id="4" points="34,62 33,63" stroke="black" stroke-width="1" /><polygon fill="none" id="5" points="36,61 38,61" stroke="black" stroke-width="1" /><polygon fill="none" id="6" points="51,55 51,63 50,64 51,63 51,61 52,60 52,57 51,56" stroke="black" stroke-width="1" /><polygon fill="none" id="7" points="49,52 50,53" stroke="black" stroke-width="1" /><polygon fill="none" id="8" points="47,51" stroke="black" stroke-width="1" /><polygon fill="none" id="9" points="41,50 45,50" stroke="black" stroke-width="1" /><polygon fill="none" id="10" points="35,49 34,50 34,51 27,58 28,58 28,57 31,54 32,54 34,52 35,52" stroke="black" stroke-width="1" /><polygon fill="none" id="11" points="39,44 38,45" stroke="black" stroke-width="1" /><polygon fill="none" id="12" points="42,40 41,41" stroke="black" stroke-width="1" /><polygon fill="none" id="13" points="30,36 30,37 35,37 36,36 39,36" stroke="black" stroke-width="1" /><polygon fill="none" id="14" points="41,35 42,35 43,36 43,38 45,36 44,35" stroke="black" stroke-width="1" /></svg>