<?xml version="1.0" encoding="utf-8" ?>
<svg baseProfile="full" height="100" version="1.1" width="100" xmlns="http://www.w3.org/2000/svg" xmlns:ev="http://www.w3.org/2001/xml-events" xmlns:xlink="http://www.w3.org/1999/xlink"><defs /><polygon fill="none" id="1" points="41,70 47,70" stroke="black" stroke-width="1" /><polygon fill="none" id="2" points="39,69" stroke="black" stroke-width="1" /><polygon fill="none" id="3" points="49,68 49,69 50,69 51,68 52,68" stroke="black" stroke-width="1" /><polygon fill="none" id="4" points="48,66" stroke="black" stroke-width="1" /><polygon fill="none" id="5" points="37,64 37,67" stroke="black" stroke-width="1" /><polygon fill="none" id="6" points="40,61 43,61" stroke="black" stroke-width="1" /><polygon fill="none" id="7" points="55,52 57,54 57,55 58,56 58,62 57,63 57,64 54,67 57,64 57,63 58,62 58,56 57,55 57,54" stroke="black" stroke-width="1" /><polygon fill="none" id="8" points="53,51" stroke="black" stroke-width="1" /><polygon fill="none" id="9" points="43,51" stroke="black" stroke-width="1" /><polygon fill="none" id="10" points="46,50 51,50" stroke="black" stroke-width="1" /><polygon fill="none" id="11" points="39,50 31,58 34,55 35,55 37,53 38,53 39,52 40,52 39,51" stroke="black" stroke-width="1" /><polygon fill="none" id="12" points="34,36 34,37 39,37 40,36 44,36" stroke="black" stroke-width="1" /><polygon fill="none" id="13" points="46,35 47,35 48,36 48,39 45,42 45,43 40,48 45,43 45,42 51,36 50,35" stroke="black" stroke-width="1" /></svg>