<?xml version="1.0" encoding="utf-8" ?>
<svg baseProfile="full" height="100" version="1.1" width="100" xmlns="http://www.w3.org/2000/svg" xmlns:ev="http://www.w3.org/2001/xml-events" xmlns:xlink="http://www.w3.org/1999/xlink"><defs /><polygon fill="none" id="1" points="46,70 52,70" stroke="black" stroke-width="1" /><polygon fill="none" id="2" points="58,68" stroke="black" stroke-width="1" /><polygon fill="none" id="3" points="54,67 54,69 56,69 55,69 54,68" stroke="black" stroke-width="1" /><polygon fill="none" id="4" points="41,64 41,67 43,69 41,67" stroke="black" stroke-width="1" /><polygon fill="none" id="5" points="51,63 52,64" stroke="black" stroke-width="1" /><polygon fill="none" id="6" points="44,61 48,61" stroke="black" stroke-width="1" /><polygon fill="none" id="7" points="59,51 60,51 64,55 64,62 63,63 63,64 60,67 64,63 64,62 65,61 65,57 64,56 64,55 60,51" stroke="black" stroke-width="1" /><polygon fill="none" id="8" points="48,51" stroke="black" stroke-width="1" /><polygon fill="none" id="9" points="51,50 57,50" stroke="black" stroke-width="1" /><polygon fill="none" id="10" points="44,49 37,56 36,56 34,58 34,59 38,55 39,55 41,53 42,53 43,52 44,52" stroke="black" stroke-width="1" /><polygon fill="none" id="11" points="51,35 50,36 38,36 38,37 44,37 45,36 50,36 51,35 53,35 54,36 54,38 50,42 50,43 47,46 57,36 56,35" stroke="black" stroke-width="1" /></svg>