<?xml version="1.0" encoding="utf-8" ?>
<svg baseProfile="full" height="100" version="1.1" width="100" xmlns="http://www.w3.org/2000/svg" xmlns:ev="http://www.w3.org/2001/xml-events" xmlns:xlink="http://www.w3.org/1999/xlink"><defs /><polygon fill="none" id="1" points="64,68" stroke="black" stroke-width="1" /><polygon fill="none" id="2" points="45,64 45,67 47,69 48,69 47,69 45,67" stroke="black" stroke-width="1" /><polygon fill="none" id="3" points="56,63 59,66 59,69 58,70 50,70 58,70 59,69 62,69 61,69 59,67 59,66" stroke="black" stroke-width="1" /><polygon fill="none" id="4" points="54,62" stroke="black" stroke-width="1" /><polygon fill="none" id="5" points="47,62" stroke="black" stroke-width="1" /><polygon fill="none" id="6" points="49,61 52,61" stroke="black" stroke-width="1" /><polygon fill="none" id="7" points="53,51" stroke="black" stroke-width="1" /><polygon fill="none" id="8" points="56,50 63,50 64,51 66,51 70,55 70,63 66,67 68,65 69,65 70,64 70,63 71,62 71,61 72,60 72,57 71,56 71,55 69,53 68,53 66,51 64,51 63,50" stroke="black" stroke-width="1" /><polygon fill="none" id="9" points="56,35 55,36 42,36 42,37 49,37 50,36 55,36 56,35 58,35 59,36 59,39 57,41 56,41 43,54 42,54 38,58 37,58 38,59 42,55 43,55 45,53 46,53 47,52 49,52 48,51 48,49 52,45 53,45 62,36 63,36 62,35" stroke="black" stroke-width="1" /></svg>