<?xml version="1.0" encoding="utf-8" ?>
<svg baseProfile="full" height="100" version="1.1" width="100" xmlns="http://www.w3.org/2000/svg" xmlns:ev="http://www.w3.org/2001/xml-events" xmlns:xlink="http://www.w3.org/1999/xlink"><defs /><polygon fill="none" id="1" points="59,36 57,38 57,39 58,39 60,41 61,41 67,47 69,45 69,44 67,42 66,42 63,39 62,39" stroke="black" stroke-width="1" /><polygon fill="none" id="2" points="41,33 41,38 42,39 42,41 41,42 32,42 32,45 37,45 38,44 41,44 42,45 42,48 41,49 41,50 42,51 42,53 41,54 40,54 39,55 38,55 37,56 36,56 32,60 32,61 31,62 31,66 35,70 36,70 37,71 43,71 44,70 44,55 45,54 49,54 50,53 58,53 59,54 60,54 61,55 62,55 63,56 63,57 64,58 64,62 59,67 57,67 56,68 49,68 49,69 50,70 50,71 56,71 57,70 59,70 60,69 61,69 62,68 63,68 66,65 66,64 67,63 67,57 65,55 65,54 64,54 62,52 60,52 59,51 49,51 48,52 45,52 44,51 44,45 45,44 46,44 47,43 52,43 53,42 53,39 52,40 50,40 49,41 45,41 44,40 44,33" stroke="black" stroke-width="1" /><polygon fill="none" id="3" points="40,56 41,56 42,57 42,61 41,62 41,64 42,65 42,67 40,69 38,69 37,68 36,68 34,66 34,62" stroke="black" stroke-width="1" /></svg>