<?xml version="1.0" encoding="utf-8" ?>
<svg baseProfile="full" height="100" version="1.1" width="100" xmlns="http://www.w3.org/2000/svg" xmlns:ev="http://www.w3.org/2001/xml-events" xmlns:xlink="http://www.w3.org/1999/xlink"><defs /><polygon fill="none" id="1" points="54,70 63,70" stroke="black" stroke-width="1" /><polygon fill="none" id="2" points="51,62 49,64 49,67 50,68 51,68 52,69 50,67 50,63" stroke="black" stroke-width="1" /><polygon fill="none" id="3" points="53,61 57,61" stroke="black" stroke-width="1" /><polygon fill="none" id="4" points="57,51 58,51" stroke="black" stroke-width="1" /><polygon fill="none" id="5" points="61,50 69,50 70,51 72,51 77,56 77,62 72,67 71,67 70,68 69,68 68,69 66,69 65,68 65,67 60,62 59,62 60,62 65,67 65,69 68,69 69,68 70,68 71,67 72,67 73,66 74,66 77,63 77,62 78,61 78,56 74,52 73,52 72,51 70,51 69,50" stroke="black" stroke-width="1" /><polygon fill="none" id="6" points="52,49 47,54 46,54 44,56 43,56 41,58 41,59 43,57 44,57 46,55 47,55 48,54 49,54 50,53 51,53 52,52 53,52 53,49" stroke="black" stroke-width="1" /><polygon fill="none" id="7" points="61,35 60,36 45,36 45,37 53,37 54,36 60,36 61,35 64,35 65,36 65,38 62,41 61,41 55,47 57,45 58,45 63,40 64,40 68,36 68,35" stroke="black" stroke-width="1" /></svg>