<?xml version="1.0" encoding="utf-8" ?>
<svg baseProfile="full" height="100" version="1.1" width="100" xmlns="http://www.w3.org/2000/svg" xmlns:ev="http://www.w3.org/2001/xml-events" xmlns:xlink="http://www.w3.org/1999/xlink"><defs /><polygon fill="none" id="1" points="35,32 35,40 34,41 30,41 29,42 26,42 26,43 27,44 27,45 29,45 30,44 32,44 33,43 34,43 35,44 35,51 33,53 33,54 31,56 31,57 27,61 27,62 26,63 28,65 29,65 29,64 30,63 30,62 32,60 32,59 34,57 35,58 35,70 34,71 38,71 37,70 37,53 38,52 38,51 47,42 48,42 49,41 52,41 53,42 53,54 52,55 52,65 53,66 53,67 55,69 58,69 59,68 60,68 65,63 65,62 64,61 64,60 63,59 63,60 62,61 62,62 57,67 56,67 55,66 55,50 56,49 56,42 53,39 49,39 48,40 47,40 46,41 45,41 40,46 40,47 39,48 38,48 37,47 37,46 38,45 38,44 40,42 37,39 37,38 38,37 38,32" stroke="black" stroke-width="1" /></svg>