<?xml version="1.0" encoding="utf-8" ?>
<svg baseProfile="full" height="100" version="1.1" width="100" xmlns="http://www.w3.org/2000/svg" xmlns:ev="http://www.w3.org/2001/xml-events" xmlns:xlink="http://www.w3.org/1999/xlink"><defs /><polygon fill="none" id="1" points="47,32 47,40 46,41 40,41 39,42 35,42 35,43 36,44 36,45 39,45 40,44 43,44 44,43 46,43 47,44 47,51 35,63 36,64 37,64 38,65 39,65 39,64 42,61 42,60 45,57 46,57 47,58 47,65 46,66 46,71 50,71 50,52 51,51 52,51 57,46 58,46 61,43 62,43 63,42 65,42 66,41 69,41 71,43 71,51 70,52 70,66 73,69 78,69 79,68 80,68 81,67 82,67 86,63 87,63 87,62 84,59 84,60 77,67 75,67 73,65 73,56 74,55 74,48 75,47 75,43 74,42 74,41 73,40 72,40 71,39 65,39 64,40 62,40 61,41 60,41 58,43 57,43 52,48 50,48 49,47 49,46 51,44 52,44 53,43 53,41 52,41 50,39 50,36 51,35 51,32" stroke="black" stroke-width="1" /></svg>