<?xml version="1.0" encoding="utf-8" ?>
<svg baseProfile="full" height="100" version="1.1" width="100" xmlns="http://www.w3.org/2000/svg" xmlns:ev="http://www.w3.org/2001/xml-events" xmlns:xlink="http://www.w3.org/1999/xlink"><defs /><polygon fill="none" id="1" points="39,32 39,40 38,41 33,41 32,42 29,42 29,43 30,44 30,45 32,45 33,44 36,44 37,43 38,43 39,44 39,51 36,54 36,55 31,60 31,61 29,63 31,65 32,65 32,64 35,61 35,60 38,57 39,58 39,70 38,71 42,71 42,69 41,68 41,53 51,43 52,43 53,42 54,42 55,41 57,41 59,43 59,53 58,54 58,65 59,66 59,67 61,69 65,69 66,68 67,68 72,63 72,62 71,61 71,60 70,59 70,60 69,61 69,62 64,67 62,67 61,66 61,52 62,51 62,42 61,41 61,40 60,40 59,39 54,39 53,40 52,40 51,41 50,41 43,48 42,48 41,47 41,46 44,43 44,41 43,41 42,40 42,32" stroke="black" stroke-width="1" /></svg>