<?xml version="1.0" encoding="utf-8" ?>
<svg baseProfile="full" height="100" version="1.1" width="100" xmlns="http://www.w3.org/2000/svg" xmlns:ev="http://www.w3.org/2001/xml-events" xmlns:xlink="http://www.w3.org/1999/xlink"><defs /><polygon fill="none" id="1" points="43,32 43,40 42,41 37,41 36,42 32,42 32,43 33,44 33,45 35,45 36,44 39,44 40,43 42,43 43,44 43,51 34,60 34,61 32,63 33,64 34,64 35,65 36,64 36,63 40,59 40,58 41,57 42,57 43,58 43,69 42,70 42,71 46,71 46,61 45,60 45,53 51,47 52,47 56,43 57,43 58,42 59,42 60,41 63,41 65,43 65,52 64,53 64,65 65,66 65,67 67,69 71,69 72,68 74,68 79,63 79,62 78,61 78,60 77,59 77,60 76,61 76,62 74,64 73,64 70,67 69,67 67,65 67,53 68,52 68,42 67,41 67,40 66,40 65,39 60,39 59,40 57,40 56,41 55,41 52,44 51,44 47,48 46,48 45,47 45,46 49,42 46,39 46,33 47,32" stroke="black" stroke-width="1" /></svg>