<?xml version="1.0" encoding="utf-8" ?>
<svg baseProfile="full" height="100" version="1.1" width="100" xmlns="http://www.w3.org/2000/svg" xmlns:ev="http://www.w3.org/2001/xml-events" xmlns:xlink="http://www.w3.org/1999/xlink"><defs /><polygon fill="none" id="1" points="64,37 63,38 63,39 64,39 66,41 67,41 71,45 72,45 74,47 76,45 76,44 75,43 74,43 71,40 70,40 68,38 67,38 66,37" stroke="black" stroke-width="1" /><polygon fill="none" id="2" points="45,33 45,35 46,36 46,41 45,42 35,42 35,45 41,45 42,44 45,44 46,45 46,53 45,54 44,54 43,55 42,55 41,56 40,56 39,57 38,57 35,60 35,61 34,62 34,66 37,69 38,69 39,70 40,70 41,71 47,71 49,69 49,57 48,56 50,54 54,54 55,53 64,53 65,54 66,54 67,55 68,55 69,56 69,57 70,58 70,62 69,63 69,64 68,65 67,65 65,67 63,67 62,68 54,68 54,69 55,70 55,71 61,71 62,70 65,70 66,69 68,69 70,67 71,67 73,65 73,63 74,62 74,58 73,57 73,56 70,53 69,53 68,52 66,52 65,51 53,51 52,52 49,52 48,51 49,50 49,46 48,45 49,44 50,44 51,43 57,43 58,42 59,42 59,40 55,40 54,41 49,41 48,40 49,39 49,33" stroke="black" stroke-width="1" /><polygon fill="none" id="3" points="44,56 45,56 46,57 46,67 44,69 42,69 41,68 40,68 37,65 37,63 38,62 38,61 41,58 42,58" stroke="black" stroke-width="1" /></svg>