<?xml version="1.0" encoding="utf-8" ?>
<svg baseProfile="full" height="100" version="1.1" width="100" xmlns="http://www.w3.org/2000/svg" xmlns:ev="http://www.w3.org/2001/xml-events" xmlns:xlink="http://www.w3.org/1999/xlink"><defs /><polygon fill="none" id="1" points="31,32 31,40 30,41 27,41 26,42 23,42 23,44 24,45 24,46 26,46 27,45 29,45 30,44 31,45 31,51 30,52 30,53 28,55 28,56 26,58 26,59 24,61 24,62 23,63 23,64 25,66 26,66 27,65 27,64 28,63 28,62 29,61 29,60 30,59 31,60 31,72 32,73 33,73 34,72 34,53 37,50 37,49 43,43 44,43 45,42 46,42 47,43 47,57 46,58 46,65 47,66 47,68 49,70 53,70 58,65 58,61 57,60 57,59 56,59 56,60 55,61 55,62 53,64 53,65 51,67 50,66 50,41 48,39 43,39 41,41 40,41 37,44 36,43 36,41 34,39 34,35 35,34 35,32" stroke="black" stroke-width="1" /><polygon fill="none" id="2" points="34,46 35,45 36,46 35,47" stroke="black" stroke-width="1" /><polygon fill="none" id="3" points="35,45 36,44 37,45 36,46" stroke="black" stroke-width="1" /></svg>