<?xml version="1.0" encoding="utf-8" ?>
<svg baseProfile="full" height="100" version="1.1" width="100" xmlns="http://www.w3.org/2000/svg" xmlns:ev="http://www.w3.org/2001/xml-events" xmlns:xlink="http://www.w3.org/1999/xlink"><defs /><polygon fill="none" id="1" points="35,32 35,40 34,41 30,41 29,42 26,42 26,44 27,45 27,46 30,46 31,45 33,45 34,44 35,45 35,51 33,53 33,54 31,56 31,57 27,61 27,62 26,63 26,64 28,66 30,66 30,65 31,64 31,63 33,61 33,60 34,59 35,60 35,70 34,71 34,72 39,72 39,71 38,70 38,54 39,53 39,52 48,43 49,43 50,42 52,42 53,43 53,54 52,55 52,66 53,67 53,68 55,70 59,70 60,69 61,69 66,64 66,62 65,61 65,60 64,59 63,59 63,60 62,61 62,62 57,67 56,66 56,51 57,50 57,42 54,39 49,39 48,40 47,40 46,41 45,41 42,44 41,43 41,42 38,39 39,38 39,32" stroke="black" stroke-width="1" /><polygon fill="none" id="2" points="38,47 39,46 40,47 39,48" stroke="black" stroke-width="1" /><polygon fill="none" id="3" points="39,45 40,44 41,45 40,46" stroke="black" stroke-width="1" /><polygon fill="none" id="4" points="40,44 41,43 42,44 41,45" stroke="black" stroke-width="1" /></svg>