<?xml version="1.0" encoding="utf-8" ?>
<svg baseProfile="full" height="100" version="1.1" width="100" xmlns="http://www.w3.org/2000/svg" xmlns:ev="http://www.w3.org/2001/xml-events" xmlns:xlink="http://www.w3.org/1999/xlink"><defs /><polygon fill="none" id="1" points="39,32 39,40 38,41 33,41 32,42 29,42 29,44 30,45 30,46 33,46 34,45 37,45 38,44 39,45 39,51 36,54 36,55 31,60 31,61 29,63 29,64 31,66 33,66 33,65 36,62 36,61 38,59 39,60 39,70 38,71 38,72 43,72 43,69 42,68 42,54 52,44 53,44 54,43 55,43 56,42 57,42 59,44 59,53 58,54 58,66 59,67 59,68 61,70 66,70 67,69 68,69 73,64 73,62 72,61 72,60 71,59 70,59 70,60 69,61 69,62 64,67 63,67 62,66 62,53 63,52 63,42 62,41 62,40 61,40 60,39 54,39 53,40 52,40 51,41 50,41 46,45 45,44 45,41 44,41 43,40 43,32" stroke="black" stroke-width="1" /><polygon fill="none" id="2" points="42,47 43,46 44,47 43,48" stroke="black" stroke-width="1" /><polygon fill="none" id="3" points="43,46 44,45 45,46 44,47" stroke="black" stroke-width="1" /><polygon fill="none" id="4" points="44,45 45,44 46,45 45,46" stroke="black" stroke-width="1" /></svg>