<?xml version="1.0" encoding="utf-8" ?>
<svg baseProfile="full" height="100" version="1.1" width="100" xmlns="http://www.w3.org/2000/svg" xmlns:ev="http://www.w3.org/2001/xml-events" xmlns:xlink="http://www.w3.org/1999/xlink"><defs /><polygon fill="none" id="1" points="43,32 43,40 42,41 37,41 36,42 32,42 32,44 33,45 33,46 36,46 37,45 40,45 41,44 42,44 43,45 43,51 34,60 34,61 32,63 32,64 33,65 34,65 35,66 36,66 37,65 37,64 41,60 41,59 42,58 43,59 43,69 42,70 42,72 47,72 47,61 46,60 46,54 52,48 53,48 57,44 58,44 59,43 60,43 61,42 63,42 65,44 65,52 64,53 64,66 65,67 65,68 67,70 72,70 73,69 75,69 80,64 80,62 79,61 79,60 78,59 77,59 77,60 76,61 76,62 74,64 73,64 70,67 68,65 68,54 69,53 69,42 68,41 68,40 67,40 66,39 60,39 59,40 57,40 56,41 55,41 52,44 51,44 50,43 50,42 47,39 47,34 48,33 48,32" stroke="black" stroke-width="1" /><polygon fill="none" id="2" points="46,47 47,46 48,47 47,48" stroke="black" stroke-width="1" /><polygon fill="none" id="3" points="47,46 48,45 49,46 48,47" stroke="black" stroke-width="1" /><polygon fill="none" id="4" points="48,45 49,44 50,45 49,46" stroke="black" stroke-width="1" /><polygon fill="none" id="5" points="49,44 50,43 51,44 50,45" stroke="black" stroke-width="1" /></svg>