<?xml version="1.0" encoding="utf-8" ?>
<svg baseProfile="full" height="100" version="1.1" width="100" xmlns="http://www.w3.org/2000/svg" xmlns:ev="http://www.w3.org/2001/xml-events" xmlns:xlink="http://www.w3.org/1999/xlink"><defs /><polygon fill="none" id="1" points="47,32 47,40 46,41 40,41 39,42 35,42 35,44 36,45 36,46 40,46 41,45 44,45 45,44 46,44 47,45 47,51 35,63 35,64 36,65 37,65 38,66 40,66 40,65 43,62 43,61 46,58 47,59 47,65 46,66 46,72 51,72 51,53 52,52 53,52 58,47 59,47 62,44 63,44 64,43 66,43 67,42 69,42 71,44 71,51 70,52 70,67 73,70 79,70 80,69 81,69 82,68 83,68 87,64 88,64 88,62 85,59 84,59 84,60 77,67 76,67 74,65 74,57 75,56 75,49 76,48 76,43 75,42 75,41 74,40 73,40 72,39 65,39 64,40 62,40 61,41 60,41 58,43 57,43 55,45 54,44 54,41 53,41 51,39 51,37 52,36 52,32" stroke="black" stroke-width="1" /><polygon fill="none" id="2" points="52,45 53,45 54,46 52,48 51,48 50,47" stroke="black" stroke-width="1" /><polygon fill="none" id="3" points="53,45 54,44 55,45 54,46" stroke="black" stroke-width="1" /></svg>