<?xml version="1.0" encoding="utf-8" ?>
<svg baseProfile="full" height="100" version="1.1" width="100" xmlns="http://www.w3.org/2000/svg" xmlns:ev="http://www.w3.org/2001/xml-events" xmlns:xlink="http://www.w3.org/1999/xlink"><defs /><polygon fill="none" id="1" points="32,33 32,41 31,42 28,42 27,43 24,43 25,44 25,45 26,44 28,44 29,43 31,43 32,44 32,52 31,53 31,54 29,56 29,57 27,59 27,60 25,62 25,64 26,64 26,63 27,62 27,61 28,60 28,59 30,57 31,57 32,58 32,71 33,71 33,52 36,49 36,48 42,42 43,42 44,41 47,41 48,42 48,58 47,59 47,64 48,65 48,67 50,69 52,69 57,64 57,62 56,62 56,63 54,65 54,66 52,68 50,68 49,67 49,42 47,40 44,40 42,42 41,42 38,45 38,46 35,49 34,49 33,48 33,45 35,43 35,42 33,40 33,34 34,33" stroke="black" stroke-width="1" /></svg>