<?xml version="1.0" encoding="utf-8" ?>
<svg baseProfile="full" height="100" version="1.1" width="100" xmlns="http://www.w3.org/2000/svg" xmlns:ev="http://www.w3.org/2001/xml-events" xmlns:xlink="http://www.w3.org/1999/xlink"><defs /><polygon fill="none" id="1" points="36,33 36,41 35,42 31,42 30,43 27,43 28,44 28,45 29,45 30,44 32,44 33,43 35,43 36,44 36,52 34,54 34,55 32,57 32,58 28,62 28,64 29,65 29,64 30,63 30,62 32,60 32,59 34,57 35,57 36,58 36,71 37,71 37,53 38,52 38,51 47,42 48,42 49,41 53,41 54,42 54,55 53,56 53,65 54,66 54,67 56,69 58,69 59,68 60,68 65,63 64,62 64,61 63,62 63,63 58,68 56,68 55,67 55,50 56,49 56,43 53,40 50,40 49,41 48,41 47,42 46,42 41,47 41,48 40,49 38,49 37,48 37,46 38,45 38,44 39,43 39,42 37,40 37,38 38,37 38,33" stroke="black" stroke-width="1" /></svg>