<?xml version="1.0" encoding="utf-8" ?>
<svg baseProfile="full" height="100" version="1.1" width="100" xmlns="http://www.w3.org/2000/svg" xmlns:ev="http://www.w3.org/2001/xml-events" xmlns:xlink="http://www.w3.org/1999/xlink"><defs /><polygon fill="none" id="1" points="40,33 40,41 39,42 34,42 33,43 30,43 31,44 31,45 32,45 33,44 36,44 37,43 39,43 40,44 40,52 37,55 37,56 32,61 32,62 31,63 31,64 32,65 32,64 35,61 35,60 38,57 39,57 40,58 40,71 42,71 42,70 41,69 41,53 51,43 52,43 53,42 54,42 55,41 58,41 60,43 60,54 59,55 59,65 60,66 60,67 62,69 65,69 66,68 67,68 72,63 71,62 71,61 70,62 70,63 65,68 62,68 61,67 61,52 62,51 62,43 61,42 61,41 60,41 59,40 55,40 54,41 53,41 52,42 51,42 44,49 42,49 41,48 41,46 44,43 44,42 43,42 42,41 42,33" stroke="black" stroke-width="1" /></svg>