<?xml version="1.0" encoding="utf-8" ?>
<svg baseProfile="full" height="100" version="1.1" width="100" xmlns="http://www.w3.org/2000/svg" xmlns:ev="http://www.w3.org/2001/xml-events" xmlns:xlink="http://www.w3.org/1999/xlink"><defs /><polygon fill="none" id="1" points="44,33 44,41 43,42 38,42 37,43 33,43 34,44 34,45 35,45 36,44 39,44 40,43 43,43 44,44 44,52 35,61 35,62 34,63 34,64 36,64 36,63 40,59 40,58 41,57 43,57 44,58 44,70 43,71 46,71 46,62 45,61 45,53 51,47 52,47 56,43 57,43 58,42 59,42 60,41 64,41 66,43 66,53 65,54 65,65 66,66 66,67 68,69 71,69 72,68 74,68 79,63 78,62 78,61 77,62 77,63 75,65 74,65 71,68 69,68 67,66 67,53 68,52 68,43 67,42 67,41 66,41 65,40 61,40 60,41 58,41 57,42 56,42 53,45 52,45 48,49 46,49 45,48 45,46 48,43 48,42 46,40 46,33" stroke="black" stroke-width="1" /></svg>