<?xml version="1.0" encoding="utf-8" ?>
<svg baseProfile="full" height="100" version="1.1" width="100" xmlns="http://www.w3.org/2000/svg" xmlns:ev="http://www.w3.org/2001/xml-events" xmlns:xlink="http://www.w3.org/1999/xlink"><defs /><polygon fill="none" id="1" points="48,33 48,41 47,42 41,42 40,43 36,43 37,44 37,45 39,45 40,44 43,44 44,43 47,43 48,44 48,52 37,63 37,64 38,64 39,65 39,64 42,61 42,60 45,57 47,57 48,58 48,66 47,67 47,71 50,71 50,52 51,51 52,51 57,46 58,46 61,43 62,43 63,42 65,42 66,41 70,41 72,43 72,52 71,53 71,66 74,69 78,69 79,68 80,68 81,67 82,67 86,63 87,63 85,61 78,68 75,68 73,66 73,56 74,55 74,48 75,47 75,44 74,43 74,42 73,41 72,41 71,40 66,40 65,41 63,41 62,42 61,42 59,44 58,44 53,49 50,49 49,48 49,46 51,44 52,44 53,43 53,42 52,42 50,40 50,36 51,35 51,33" stroke="black" stroke-width="1" /></svg>