<?xml version="1.0" encoding="utf-8" ?>
<svg baseProfile="full" height="100" version="1.1" width="100" xmlns="http://www.w3.org/2000/svg" xmlns:ev="http://www.w3.org/2001/xml-events" xmlns:xlink="http://www.w3.org/1999/xlink"><defs /><polygon fill="none" id="1" points="30,31 30,39 29,40 26,40 25,41 22,41 22,44 23,45 23,46 26,46 27,45 29,45 30,46 30,50 29,51 29,52 27,54 27,55 25,57 25,58 23,60 23,61 22,62 22,64 24,66 26,66 27,65 27,64 28,63 28,62 29,61 30,62 30,72 31,73 33,73 34,72 34,53 37,50 37,49 43,43 44,43 45,42 46,43 46,56 45,57 45,65 46,66 46,68 48,70 53,70 58,65 58,60 57,59 57,58 55,58 55,59 54,60 54,61 52,63 52,64 51,65 50,64 50,40 48,38 42,38 40,40 39,40 37,42 36,41 36,40 34,38 34,35 35,34 35,31" stroke="black" stroke-width="1" /></svg>