<?xml version="1.0" encoding="utf-8" ?>
<svg baseProfile="full" height="100" version="1.1" width="100" xmlns="http://www.w3.org/2000/svg" xmlns:ev="http://www.w3.org/2001/xml-events" xmlns:xlink="http://www.w3.org/1999/xlink"><defs /><polygon fill="none" id="1" points="34,31 34,39 33,40 29,40 28,41 25,41 25,44 26,45 26,46 30,46 31,45 33,45 34,46 34,50 32,52 32,53 30,55 30,56 26,60 26,61 25,62 25,64 27,66 30,66 30,65 31,64 31,63 33,61 34,62 34,69 33,70 33,72 39,72 39,70 38,69 38,54 39,53 39,52 48,43 49,43 50,42 51,42 52,43 52,53 51,54 51,66 52,67 52,68 54,70 59,70 60,69 61,69 66,64 66,61 65,60 65,59 64,58 62,58 62,59 61,60 61,61 57,65 56,64 56,51 57,50 57,41 54,38 48,38 47,39 46,39 45,40 44,40 42,42 39,39 39,31" stroke="black" stroke-width="1" /></svg>