<?xml version="1.0" encoding="utf-8" ?>
<svg baseProfile="full" height="100" version="1.1" width="100" xmlns="http://www.w3.org/2000/svg" xmlns:ev="http://www.w3.org/2001/xml-events" xmlns:xlink="http://www.w3.org/1999/xlink"><defs /><polygon fill="none" id="1" points="38,31 38,39 37,40 32,40 31,41 28,41 28,44 29,45 29,46 33,46 34,45 37,45 38,46 38,50 35,53 35,54 30,59 30,60 28,62 28,64 30,66 33,66 33,65 36,62 36,61 37,60 38,61 38,69 37,70 37,72 43,72 43,68 42,67 42,54 52,44 53,44 54,43 55,43 56,42 58,44 58,52 57,53 57,66 58,67 58,68 60,70 66,70 67,69 68,69 73,64 73,61 72,60 72,59 71,58 69,58 69,59 68,60 68,61 63,66 62,65 62,53 63,52 63,41 62,40 62,39 61,39 60,38 53,38 52,39 51,39 50,40 49,40 46,43 45,42 45,40 44,40 43,39 43,31" stroke="black" stroke-width="1" /></svg>