<?xml version="1.0" encoding="utf-8" ?>
<svg baseProfile="full" height="100" version="1.1" width="100" xmlns="http://www.w3.org/2000/svg" xmlns:ev="http://www.w3.org/2001/xml-events" xmlns:xlink="http://www.w3.org/1999/xlink"><defs /><polygon fill="none" id="1" points="42,31 42,39 41,40 36,40 35,41 31,41 31,44 32,45 32,46 36,46 37,45 40,45 41,44 42,45 42,50 33,59 33,60 31,62 31,64 32,65 33,65 34,66 36,66 37,65 37,64 41,60 42,61 42,68 41,69 41,72 47,72 47,60 46,59 46,54 52,48 53,48 57,44 58,44 59,43 60,43 61,42 62,42 64,44 64,51 63,52 63,66 64,67 64,68 66,70 72,70 73,69 75,69 80,64 80,61 79,60 79,59 78,58 76,58 76,59 75,60 75,61 73,63 72,63 70,65 69,65 68,64 68,54 69,53 69,41 68,40 68,39 67,39 66,38 59,38 58,39 56,39 55,40 54,40 51,43 50,42 50,41 47,38 47,34 48,33 48,31" stroke="black" stroke-width="1" /></svg>