<?xml version="1.0" encoding="utf-8" ?>
<svg baseProfile="full" height="100" version="1.1" width="100" xmlns="http://www.w3.org/2000/svg" xmlns:ev="http://www.w3.org/2001/xml-events" xmlns:xlink="http://www.w3.org/1999/xlink"><defs /><polygon fill="none" id="1" points="46,31 46,39 45,40 39,40 38,41 34,41 34,44 35,45 35,46 40,46 41,45 44,45 45,44 46,45 46,50 34,62 34,64 35,65 36,65 37,66 40,66 40,65 43,62 43,61 45,59 46,60 46,64 45,65 45,72 51,72 51,53 52,52 53,52 58,47 59,47 62,44 63,44 64,43 66,43 67,42 68,42 70,44 70,50 69,51 69,67 72,70 79,70 80,69 81,69 82,68 83,68 87,64 88,64 88,61 85,58 83,58 83,59 76,66 74,64 74,57 75,56 75,49 76,48 76,42 75,41 75,40 74,39 73,39 72,38 64,38 63,39 61,39 60,40 59,40 57,42 56,42 55,43 54,42 54,40 53,40 51,38 51,37 52,36 52,31" stroke="black" stroke-width="1" /></svg>