<?xml version="1.0" encoding="utf-8" ?>
<svg baseProfile="full" height="100" version="1.1" width="100" xmlns="http://www.w3.org/2000/svg" xmlns:ev="http://www.w3.org/2001/xml-events" xmlns:xlink="http://www.w3.org/1999/xlink"><defs /><polygon fill="none" id="1" points="50,68 51,68" stroke="black" stroke-width="1" /><polygon fill="none" id="2" points="56,62 56,63 54,65 56,63" stroke="black" stroke-width="1" /><polygon fill="none" id="3" points="26,61 25,62 25,63 25,62" stroke="black" stroke-width="1" /><polygon fill="none" id="4" points="27,59" stroke="black" stroke-width="1" /><polygon fill="none" id="5" points="48,42 48,58 47,59 47,63 48,64 48,66" stroke="black" stroke-width="1" /><polygon fill="none" id="6" points="44,40 46,40" stroke="black" stroke-width="1" /><polygon fill="none" id="7" points="32,33 32,41 31,42 28,42 27,43 25,43 27,43 28,42 31,42 32,43 32,52 31,53 31,54 29,56 31,56 32,57 32,70 32,51 34,49 33,49 32,48 32,44 34,42 32,40" stroke="black" stroke-width="1" /></svg>