<?xml version="1.0" encoding="utf-8" ?>
<svg baseProfile="full" height="100" version="1.1" width="100" xmlns="http://www.w3.org/2000/svg" xmlns:ev="http://www.w3.org/2001/xml-events" xmlns:xlink="http://www.w3.org/1999/xlink"><defs /><polygon fill="none" id="1" points="56,68 57,68" stroke="black" stroke-width="1" /><polygon fill="none" id="2" points="63,62 63,63 59,67 63,63" stroke="black" stroke-width="1" /><polygon fill="none" id="3" points="31,59 28,62 28,63 29,62 29,61" stroke="black" stroke-width="1" /><polygon fill="none" id="4" points="54,42 54,55 53,56 53,64 54,65 54,66 54,49 55,48 55,43" stroke="black" stroke-width="1" /><polygon fill="none" id="5" points="50,40 52,40" stroke="black" stroke-width="1" /><polygon fill="none" id="6" points="36,33 36,41 35,42 31,42 30,43 28,43 28,44 29,43 31,43 32,42 35,42 36,43 36,52 34,54 34,55 32,57 33,56 35,56 36,57 36,70 36,52 37,51 37,50 38,49 37,49 36,48 36,45 37,44 37,43 38,42 36,40 36,37 37,36 37,33" stroke="black" stroke-width="1" /></svg>