<?xml version="1.0" encoding="utf-8" ?>
<svg baseProfile="full" height="100" version="1.1" width="100" xmlns="http://www.w3.org/2000/svg" xmlns:ev="http://www.w3.org/2001/xml-events" xmlns:xlink="http://www.w3.org/1999/xlink"><defs /><polygon fill="none" id="1" points="62,68 64,68" stroke="black" stroke-width="1" /><polygon fill="none" id="2" points="70,62 70,63 66,67 70,63" stroke="black" stroke-width="1" /><polygon fill="none" id="3" points="51,42" stroke="black" stroke-width="1" /><polygon fill="none" id="4" points="53,41" stroke="black" stroke-width="1" /><polygon fill="none" id="5" points="55,40 58,40 60,42 60,54 59,55 59,64 60,65 60,66 60,51 61,50 61,43 60,42 60,41 59,41 58,40" stroke="black" stroke-width="1" /><polygon fill="none" id="6" points="40,33 40,41 39,42 34,42 33,43 31,43 31,44 32,43 35,43 36,42 39,42 40,43 40,52 37,55 37,56 32,61 32,62 31,63 34,60 34,59 37,56 39,56 40,57 40,70 41,70 40,69 40,52 43,49 41,49 40,48 40,45 43,42 42,42 41,41 41,33" stroke="black" stroke-width="1" /></svg>