<?xml version="1.0" encoding="utf-8" ?>
<svg baseProfile="full" height="100" version="1.1" width="100" xmlns="http://www.w3.org/2000/svg" xmlns:ev="http://www.w3.org/2001/xml-events" xmlns:xlink="http://www.w3.org/1999/xlink"><defs /><polygon fill="none" id="1" points="77,62 77,63 75,65 74,65 72,67 73,67 77,63" stroke="black" stroke-width="1" /><polygon fill="none" id="2" points="52,45 51,46" stroke="black" stroke-width="1" /><polygon fill="none" id="3" points="56,42" stroke="black" stroke-width="1" /><polygon fill="none" id="4" points="58,41" stroke="black" stroke-width="1" /><polygon fill="none" id="5" points="61,40 64,40 66,42 66,53 65,54 65,64 66,65 66,66 68,68 70,68 68,68 66,66 66,52 67,51 67,43 66,42 66,41 65,41 64,40" stroke="black" stroke-width="1" /><polygon fill="none" id="6" points="44,33 44,41 43,42 38,42 37,43 34,43 34,44 35,43 38,43 39,42 43,42 44,43 44,52 35,61 35,62 34,63 35,63 35,62 39,58 39,57 40,56 43,56 44,57 44,70 45,70 45,62 44,61 44,52 47,49 45,49 44,48 44,45 47,42 45,40 45,33" stroke="black" stroke-width="1" /></svg>