<?xml version="1.0" encoding="utf-8" ?>
<svg baseProfile="full" height="100" version="1.1" width="100" xmlns="http://www.w3.org/2000/svg" xmlns:ev="http://www.w3.org/2001/xml-events" xmlns:xlink="http://www.w3.org/1999/xlink"><defs /><polygon fill="none" id="1" points="46,37 46,39 53,46 53,47 54,47 54,46 55,45 55,44 48,37" stroke="black" stroke-width="1" /><polygon fill="none" id="2" points="33,33 33,41 32,42 26,42 26,45 30,45 31,44 32,44 33,45 33,53 31,55 30,55 26,59 26,60 25,61 25,67 28,70 29,70 30,71 34,71 35,70 35,55 36,54 39,54 40,53 46,53 47,54 48,54 51,57 51,62 50,63 50,64 47,67 46,67 45,68 39,68 39,69 40,70 40,71 44,71 45,70 47,70 48,69 49,69 52,66 52,65 53,64 53,56 52,55 52,54 51,53 50,53 49,52 48,52 47,51 39,51 38,52 36,52 35,51 35,45 37,43 42,43 42,40 40,40 39,41 36,41 35,40 35,33" stroke="black" stroke-width="1" /><polygon fill="none" id="3" points="32,56 33,57 33,68 32,69 30,69 27,66 27,62 28,61 28,60" stroke="black" stroke-width="1" /></svg>