<?xml version="1.0" encoding="utf-8" ?>
<svg baseProfile="full" height="100" version="1.1" width="100" xmlns="http://www.w3.org/2000/svg" xmlns:ev="http://www.w3.org/2001/xml-events" xmlns:xlink="http://www.w3.org/1999/xlink"><defs /><polygon fill="none" id="1" points="84,62 79,67 80,66 81,66 85,62" stroke="black" stroke-width="1" /><polygon fill="none" id="2" points="58,44 57,45" stroke="black" stroke-width="1" /><polygon fill="none" id="3" points="61,42" stroke="black" stroke-width="1" /><polygon fill="none" id="4" points="63,41 64,41" stroke="black" stroke-width="1" /><polygon fill="none" id="5" points="66,40 70,40 72,42 72,52 71,53 71,65 74,68 77,68 74,68 72,66 72,55 73,54 73,47 74,46 74,44 73,43 73,42 72,41 71,41 70,40" stroke="black" stroke-width="1" /><polygon fill="none" id="6" points="48,33 48,41 47,42 41,42 40,43 37,43 37,44 38,44 39,43 42,43 43,42 47,42 48,43 48,52 37,63 38,63 41,60 41,59 44,56 47,56 48,57 48,66 47,67 47,70 49,70 49,51 50,50 51,50 52,49 49,49 48,48 48,45 50,43 51,43 52,42 51,42 49,40 49,35 50,34 50,33" stroke="black" stroke-width="1" /></svg>