<?xml version="1.0" encoding="utf-8" ?>
<svg baseProfile="full" height="100" version="1.1" width="100" xmlns="http://www.w3.org/2000/svg" xmlns:ev="http://www.w3.org/2001/xml-events" xmlns:xlink="http://www.w3.org/1999/xlink"><defs /><polygon fill="none" id="1" points="41,34 40,35 29,35 29,38 30,39 31,39 32,38 37,38 38,37 42,37 43,38 40,41 40,42 37,45 37,46 35,48 35,49 31,53 31,54 27,58 27,60 28,61 29,61 29,60 34,55 35,55 37,53 38,53 39,52 41,52 42,51 46,51 47,52 48,52 50,54 50,55 51,56 51,61 50,62 50,63 46,67 45,67 44,68 41,68 40,69 33,69 34,70 34,71 35,72 37,72 38,71 43,71 44,70 46,70 47,69 48,69 52,65 52,64 53,63 53,54 49,50 48,50 47,49 42,49 41,50 40,50 39,51 38,51 37,52 36,52 35,51 39,47 39,46 42,43 42,42 45,39 45,38 47,36 45,34" stroke="black" stroke-width="1" /></svg>