<?xml version="1.0" encoding="utf-8" ?>
<svg baseProfile="full" height="100" version="1.1" width="100" xmlns="http://www.w3.org/2000/svg" xmlns:ev="http://www.w3.org/2001/xml-events" xmlns:xlink="http://www.w3.org/1999/xlink"><defs /><polygon fill="none" id="1" points="52,34 51,35 36,35 36,36 37,37 37,39 38,39 39,38 47,38 48,37 52,37 53,38 50,41 50,42 34,58 33,58 34,59 34,60 35,61 36,61 41,56 42,56 43,55 44,55 45,54 46,54 47,53 48,53 49,52 51,52 52,51 58,51 59,52 60,52 63,55 63,56 64,57 64,60 63,61 63,62 62,63 62,64 61,65 60,65 58,67 56,67 55,68 52,68 51,69 42,69 42,70 43,71 43,72 46,72 47,71 54,71 55,70 58,70 59,69 60,69 61,68 62,68 65,65 65,64 66,63 66,62 67,61 67,56 66,55 66,54 62,50 60,50 59,49 52,49 51,50 49,50 48,51 47,51 46,52 45,52 44,51 47,48 48,48 51,45 51,44 59,36 57,34" stroke="black" stroke-width="1" /></svg>