<?xml version="1.0" encoding="utf-8" ?>
<svg baseProfile="full" height="100" version="1.1" width="100" xmlns="http://www.w3.org/2000/svg" xmlns:ev="http://www.w3.org/2001/xml-events" xmlns:xlink="http://www.w3.org/1999/xlink"><defs /><polygon fill="none" id="1" points="57,34 56,35 40,35 40,37 41,38 41,39 42,39 43,38 52,38 53,37 58,37 59,38 58,39 57,39 55,41 55,42 49,48 48,48 39,57 38,57 37,58 37,59 39,61 40,61 44,57 45,57 47,55 48,55 49,54 50,54 51,53 53,53 54,52 56,52 57,51 64,51 65,52 66,52 70,56 70,61 69,62 69,63 67,65 66,65 64,67 62,67 61,68 57,68 56,69 46,69 46,70 48,72 50,72 51,71 59,71 60,70 63,70 64,69 66,69 67,68 68,68 70,66 71,66 72,65 72,64 73,63 73,61 74,60 74,57 73,56 73,54 70,51 69,51 68,50 66,50 65,49 57,49 56,50 54,50 53,51 52,51 51,52 50,52 49,51 53,47 54,47 65,36 63,34" stroke="black" stroke-width="1" /></svg>