<?xml version="1.0" encoding="utf-8" ?>
<svg baseProfile="full" height="100" version="1.1" width="100" xmlns="http://www.w3.org/2000/svg" xmlns:ev="http://www.w3.org/2001/xml-events" xmlns:xlink="http://www.w3.org/1999/xlink"><defs /><polygon fill="none" id="1" points="62,34 61,35 43,35 43,36 44,37 44,39 46,39 47,38 56,38 57,37 63,37 64,38 61,41 60,41 60,42 58,44 57,44 50,51 49,51 45,55 44,55 41,58 40,58 40,59 42,61 43,61 45,59 46,59 48,57 49,57 50,56 51,56 52,55 53,55 54,54 55,54 56,53 58,53 59,52 62,52 63,51 70,51 71,52 72,52 74,54 75,54 76,55 76,57 77,58 77,60 76,61 76,62 73,65 72,65 70,67 67,67 66,68 62,68 61,69 50,69 50,70 52,72 55,72 56,71 65,71 66,70 69,70 70,69 72,69 73,68 74,68 75,67 76,67 79,64 79,63 80,62 80,55 76,51 75,51 74,50 72,50 71,49 63,49 62,50 59,50 58,51 57,51 56,52 54,52 53,51 54,50 55,50 59,46 60,46 68,38 69,38 71,36 69,34" stroke="black" stroke-width="1" /></svg>