<?xml version="1.0" encoding="utf-8" ?>
<svg baseProfile="full" height="100" version="1.1" width="100" xmlns="http://www.w3.org/2000/svg" xmlns:ev="http://www.w3.org/2001/xml-events" xmlns:xlink="http://www.w3.org/1999/xlink"><defs /><polygon fill="none" id="1" points="46,34 45,35 33,35 32,36 33,37 33,39 35,39 36,38 42,38 43,37 47,37 48,38 45,41 45,42 41,46 41,47 30,58 30,59 32,61 37,56 38,56 40,54 41,54 42,53 43,53 44,52 46,52 47,51 52,51 53,52 54,52 57,55 57,62 52,67 51,67 50,68 46,68 45,69 38,69 38,70 39,71 39,72 41,72 42,71 48,71 49,70 52,70 53,69 54,69 56,67 57,67 58,66 58,65 59,64 59,63 60,62 60,56 59,55 59,53 57,51 56,51 55,50 54,50 53,49 47,49 46,50 44,50 42,52 41,52 40,51 45,46 45,45 50,40 50,39 53,36 51,34" stroke="black" stroke-width="1" /></svg>