<?xml version="1.0" encoding="utf-8" ?>
<svg baseProfile="full" height="100" version="1.1" width="100" xmlns="http://www.w3.org/2000/svg" xmlns:ev="http://www.w3.org/2001/xml-events" xmlns:xlink="http://www.w3.org/1999/xlink"><defs /><polygon fill="none" id="1" points="46,34 45,35 33,35 32,36 32,37 33,38 33,40 36,40 37,39 43,39 44,38 46,38 47,39 45,41 45,42 41,46 41,47 30,58 30,60 32,62 33,62 38,57 39,57 41,55 42,55 43,54 44,54 45,53 47,53 48,52 52,52 53,53 54,53 57,56 57,62 52,67 51,67 50,68 46,68 45,69 38,69 38,71 39,72 39,73 42,73 43,72 49,72 50,71 53,71 54,70 55,70 57,68 58,68 59,67 59,66 60,65 60,64 61,63 61,56 60,55 60,53 58,51 57,51 56,50 55,50 54,49 47,49 46,50 45,50 44,49 46,47 46,46 51,41 51,40 54,37 54,36 52,34" stroke="black" stroke-width="1" /></svg>