<?xml version="1.0" encoding="utf-8" ?>
<svg baseProfile="full" height="100" version="1.1" width="100" xmlns="http://www.w3.org/2000/svg" xmlns:ev="http://www.w3.org/2001/xml-events" xmlns:xlink="http://www.w3.org/1999/xlink"><defs /><polygon fill="none" id="1" points="52,34 51,35 36,35 36,37 37,38 37,40 39,40 40,39 48,39 49,38 51,38 52,39 50,41 50,42 34,58 33,58 33,59 34,60 34,61 35,62 37,62 42,57 43,57 44,56 45,56 46,55 47,55 48,54 49,54 50,53 52,53 53,52 58,52 59,53 60,53 63,56 63,57 64,58 64,60 63,61 63,62 62,63 62,64 61,65 60,65 58,67 56,67 55,68 52,68 51,69 42,69 42,71 43,72 43,73 47,73 48,72 55,72 56,71 59,71 60,70 61,70 62,69 63,69 66,66 66,65 67,64 67,63 68,62 68,56 67,55 67,54 63,50 61,50 60,49 52,49 51,50 50,50 49,49 52,46 52,45 60,37 60,36 58,34" stroke="black" stroke-width="1" /><polygon fill="none" id="2" points="47,50 48,49 49,50 48,51" stroke="black" stroke-width="1" /></svg>