<?xml version="1.0" encoding="utf-8" ?>
<svg baseProfile="full" height="100" version="1.1" width="100" xmlns="http://www.w3.org/2000/svg" xmlns:ev="http://www.w3.org/2001/xml-events" xmlns:xlink="http://www.w3.org/1999/xlink"><defs /><polygon fill="none" id="1" points="57,34 56,35 40,35 40,38 41,39 41,40 43,40 44,39 53,39 54,38 56,38 57,39 55,41 55,42 49,48 48,48 39,57 38,57 37,58 37,60 39,62 41,62 45,58 46,58 48,56 49,56 50,55 51,55 52,54 54,54 55,53 57,53 58,52 64,52 65,53 66,53 70,57 70,61 69,62 69,63 67,65 66,65 64,67 62,67 61,68 57,68 56,69 46,69 46,71 48,73 51,73 52,72 60,72 61,71 64,71 65,70 67,70 68,69 69,69 71,67 72,67 73,66 73,65 74,64 74,62 75,61 75,57 74,56 74,54 71,51 70,51 69,50 67,50 66,49 57,49 56,50 54,50 53,49 54,48 55,48 66,37 66,36 64,34" stroke="black" stroke-width="1" /><polygon fill="none" id="2" points="52,50 53,49 54,50 53,51" stroke="black" stroke-width="1" /></svg>