<?xml version="1.0" encoding="utf-8" ?>
<svg baseProfile="full" height="100" version="1.1" width="100" xmlns="http://www.w3.org/2000/svg" xmlns:ev="http://www.w3.org/2001/xml-events" xmlns:xlink="http://www.w3.org/1999/xlink"><defs /><polygon fill="none" id="1" points="62,34 61,35 43,35 43,37 44,38 44,40 47,40 48,39 57,39 58,38 62,38 63,39 61,41 60,41 60,42 58,44 57,44 50,51 49,51 45,55 44,55 41,58 40,58 40,60 42,62 44,62 46,60 47,60 49,58 50,58 51,57 52,57 53,56 54,56 55,55 56,55 57,54 59,54 60,53 63,53 64,52 70,52 71,53 72,53 74,55 75,55 76,56 76,58 77,59 77,60 76,61 76,62 73,65 72,65 70,67 67,67 66,68 62,68 61,69 50,69 50,71 52,73 56,73 57,72 66,72 67,71 70,71 71,70 73,70 74,69 75,69 76,68 77,68 80,65 80,64 81,63 81,55 77,51 76,51 75,50 73,50 72,49 63,49 62,50 59,50 58,49 60,47 61,47 69,39 70,39 72,37 72,36 70,34" stroke="black" stroke-width="1" /><polygon fill="none" id="2" points="57,50 58,49 59,50 58,51" stroke="black" stroke-width="1" /></svg>