<?xml version="1.0" encoding="utf-8" ?>
<svg baseProfile="full" height="100" version="1.1" width="100" xmlns="http://www.w3.org/2000/svg" xmlns:ev="http://www.w3.org/2001/xml-events" xmlns:xlink="http://www.w3.org/1999/xlink"><defs /><polygon fill="none" id="1" points="42,35 41,36 30,36 30,38 31,39 32,38 37,38 38,37 43,37 44,38 44,39 41,42 41,43 38,46 38,47 36,49 36,50 32,54 32,55 28,59 28,60 29,61 29,60 34,55 35,55 37,53 38,53 39,52 41,52 42,51 47,51 48,52 49,52 51,54 51,55 52,56 52,62 51,63 51,64 47,68 46,68 45,69 42,69 41,70 35,70 35,71 36,72 37,72 38,71 43,71 44,70 46,70 47,69 48,69 52,65 52,64 53,63 53,55 49,51 48,51 47,50 43,50 42,51 41,51 40,52 39,52 38,53 36,53 35,52 35,51 39,47 39,46 42,43 42,42 45,39 45,38 46,37 46,36 45,35" stroke="black" stroke-width="1" /></svg>