<?xml version="1.0" encoding="utf-8" ?>
<svg baseProfile="full" height="100" version="1.1" width="100" xmlns="http://www.w3.org/2000/svg" xmlns:ev="http://www.w3.org/2001/xml-events" xmlns:xlink="http://www.w3.org/1999/xlink"><defs /><polygon fill="none" id="1" points="47,35 46,36 34,36 34,39 35,39 36,38 42,38 43,37 48,37 49,38 49,39 46,42 46,43 42,47 42,48 31,59 32,60 33,60 37,56 38,56 40,54 41,54 42,53 43,53 44,52 46,52 47,51 53,51 54,52 55,52 58,55 58,63 53,68 52,68 51,69 47,69 46,70 39,70 40,71 40,72 41,72 42,71 48,71 49,70 52,70 53,69 54,69 56,67 57,67 58,66 58,65 59,64 59,63 60,62 60,57 59,56 59,54 57,52 56,52 55,51 54,51 53,50 48,50 47,51 45,51 43,53 41,53 40,52 40,51 45,46 45,45 50,40 50,39 52,37 52,36 51,35" stroke="black" stroke-width="1" /></svg>