<?xml version="1.0" encoding="utf-8" ?>
<svg baseProfile="full" height="100" version="1.1" width="100" xmlns="http://www.w3.org/2000/svg" xmlns:ev="http://www.w3.org/2001/xml-events" xmlns:xlink="http://www.w3.org/1999/xlink"><defs /><polygon fill="none" id="1" points="53,35 52,36 37,36 38,37 38,39 39,38 47,38 48,37 53,37 54,38 54,39 51,42 51,43 35,59 35,60 36,61 41,56 42,56 43,55 44,55 45,54 46,54 47,53 48,53 49,52 51,52 52,51 59,51 60,52 61,52 64,55 64,56 65,57 65,61 64,62 64,63 63,64 63,65 62,66 61,66 59,68 57,68 56,69 53,69 52,70 43,70 44,71 44,72 46,72 47,71 54,71 55,70 58,70 59,69 60,69 61,68 62,68 65,65 65,64 66,63 66,62 67,61 67,57 66,56 66,55 62,51 60,51 59,50 53,50 52,51 50,51 49,52 48,52 47,53 45,53 44,52 44,51 47,48 48,48 51,45 51,44 58,37 58,36 57,35" stroke="black" stroke-width="1" /></svg>