<?xml version="1.0" encoding="utf-8" ?>
<svg baseProfile="full" height="100" version="1.1" width="100" xmlns="http://www.w3.org/2000/svg" xmlns:ev="http://www.w3.org/2001/xml-events" xmlns:xlink="http://www.w3.org/1999/xlink"><defs /><polygon fill="none" id="1" points="58,35 57,36 41,36 41,37 42,38 42,39 43,38 52,38 53,37 59,37 60,38 60,39 59,40 58,40 56,42 56,43 50,49 49,49 40,58 39,58 38,59 40,61 44,57 45,57 47,55 48,55 49,54 50,54 51,53 53,53 54,52 56,52 57,51 65,51 66,52 67,52 71,56 71,62 70,63 70,64 68,66 67,66 65,68 63,68 62,69 58,69 57,70 47,70 49,72 50,72 51,71 59,71 60,70 63,70 64,69 66,69 67,68 68,68 70,66 71,66 72,65 72,64 73,63 73,61 74,60 74,58 73,57 73,55 70,52 69,52 68,51 66,51 65,50 58,50 57,51 55,51 54,52 53,52 52,53 50,53 49,52 49,51 53,47 54,47 64,37 64,36 63,35" stroke="black" stroke-width="1" /></svg>