<?xml version="1.0" encoding="utf-8" ?>
<svg baseProfile="full" height="100" version="1.1" width="100" xmlns="http://www.w3.org/2000/svg" xmlns:ev="http://www.w3.org/2001/xml-events" xmlns:xlink="http://www.w3.org/1999/xlink"><defs /><polygon fill="none" id="1" points="63,35 62,36 44,36 45,37 45,39 46,39 47,38 56,38 57,37 64,37 65,38 65,39 62,42 61,42 61,43 59,45 58,45 51,52 50,52 46,56 45,56 42,59 41,59 43,61 45,59 46,59 48,57 49,57 50,56 51,56 52,55 53,55 54,54 55,54 56,53 58,53 59,52 62,52 63,51 71,51 72,52 73,52 75,54 76,54 77,55 77,57 78,58 78,61 77,62 77,63 74,66 73,66 71,68 68,68 67,69 63,69 62,70 51,70 53,72 55,72 56,71 65,71 66,70 69,70 70,69 72,69 73,68 74,68 75,67 76,67 79,64 79,63 80,62 80,56 76,52 75,52 74,51 72,51 71,50 64,50 63,51 60,51 59,52 58,52 57,53 54,53 53,52 53,51 54,50 55,50 59,46 60,46 68,38 69,38 70,37 70,36 69,35" stroke="black" stroke-width="1" /></svg>