<?xml version="1.0" encoding="utf-8" ?>
<svg baseProfile="full" height="100" version="1.1" width="100" xmlns="http://www.w3.org/2000/svg" xmlns:ev="http://www.w3.org/2001/xml-events" xmlns:xlink="http://www.w3.org/1999/xlink"><defs /><polygon fill="none" id="1" points="40,33 39,34 28,34 28,39 29,40 32,40 33,39 38,39 39,40 39,41 36,44 36,45 34,47 34,48 30,52 30,53 26,57 26,61 27,62 30,62 30,61 35,56 36,56 38,54 39,54 40,53 42,53 43,52 45,52 46,53 47,53 49,55 49,56 50,57 50,60 49,61 49,62 45,66 44,66 43,67 40,67 39,68 32,68 32,70 33,71 33,72 34,73 38,73 39,72 44,72 45,71 47,71 48,70 49,70 53,66 53,65 54,64 54,53 50,49 49,49 48,48 41,48 40,47 43,44 43,43 46,40 46,39 48,37 48,35 46,33" stroke="black" stroke-width="1" /><polygon fill="none" id="2" points="38,39 39,38 40,39 39,40" stroke="black" stroke-width="1" /></svg>