<?xml version="1.0" encoding="utf-8" ?>
<svg baseProfile="full" height="100" version="1.1" width="100" xmlns="http://www.w3.org/2000/svg" xmlns:ev="http://www.w3.org/2001/xml-events" xmlns:xlink="http://www.w3.org/1999/xlink"><defs /><polygon fill="none" id="1" points="45,33 44,34 32,34 31,35 31,37 32,38 32,40 36,40 37,39 43,39 44,40 44,41 40,45 40,46 29,57 29,60 31,62 33,62 38,57 39,57 41,55 42,55 43,54 44,54 45,53 47,53 48,52 51,52 52,53 53,53 56,56 56,61 51,66 50,66 49,67 45,67 44,68 37,68 37,71 38,72 38,73 42,73 43,72 49,72 50,71 53,71 54,70 55,70 57,68 58,68 59,67 59,66 60,65 60,64 61,63 61,55 60,54 60,52 58,50 57,50 56,49 55,49 54,48 47,48 46,47 46,46 51,41 51,40 54,37 54,35 52,33" stroke="black" stroke-width="1" /><polygon fill="none" id="2" points="43,39 44,38 45,39 44,40" stroke="black" stroke-width="1" /></svg>