<?xml version="1.0" encoding="utf-8" ?>
<svg baseProfile="full" height="100" version="1.1" width="100" xmlns="http://www.w3.org/2000/svg" xmlns:ev="http://www.w3.org/2001/xml-events" xmlns:xlink="http://www.w3.org/1999/xlink"><defs /><polygon fill="none" id="1" points="51,33 50,34 35,34 35,37 36,38 36,40 39,40 40,39 48,39 49,40 49,41 33,57 32,57 32,59 33,60 33,61 34,62 37,62 42,57 43,57 44,56 45,56 46,55 47,55 48,54 49,54 50,53 52,53 53,52 57,52 58,53 59,53 62,56 62,57 63,58 63,59 62,60 62,61 61,62 61,63 60,64 59,64 57,66 55,66 54,67 51,67 50,68 41,68 41,71 42,72 42,73 47,73 48,72 55,72 56,71 59,71 60,70 61,70 62,69 63,69 66,66 66,65 67,64 67,63 68,62 68,55 67,54 67,53 63,49 61,49 60,48 52,48 51,47 52,46 52,45 60,37 60,35 58,33" stroke="black" stroke-width="1" /><polygon fill="none" id="2" points="48,39 49,38 50,39 49,40" stroke="black" stroke-width="1" /></svg>