<?xml version="1.0" encoding="utf-8" ?>
<svg baseProfile="full" height="100" version="1.1" width="100" xmlns="http://www.w3.org/2000/svg" xmlns:ev="http://www.w3.org/2001/xml-events" xmlns:xlink="http://www.w3.org/1999/xlink"><defs /><polygon fill="none" id="1" points="56,33 55,34 39,34 39,38 40,39 40,40 43,40 44,39 53,39 54,40 54,41 48,47 47,47 38,56 37,56 36,57 36,60 38,62 41,62 45,58 46,58 48,56 49,56 50,55 51,55 52,54 54,54 55,53 57,53 58,52 63,52 64,53 65,53 69,57 69,60 68,61 68,62 66,64 65,64 63,66 61,66 60,67 56,67 55,68 45,68 45,71 47,73 51,73 52,72 60,72 61,71 64,71 65,70 67,70 68,69 69,69 71,67 72,67 73,66 73,65 74,64 74,62 75,61 75,56 74,55 74,53 71,50 70,50 69,49 67,49 66,48 57,48 56,47 66,37 66,35 64,33" stroke="black" stroke-width="1" /><polygon fill="none" id="2" points="53,39 54,38 55,39 54,40" stroke="black" stroke-width="1" /></svg>