<?xml version="1.0" encoding="utf-8" ?>
<svg baseProfile="full" height="100" version="1.1" width="100" xmlns="http://www.w3.org/2000/svg" xmlns:ev="http://www.w3.org/2001/xml-events" xmlns:xlink="http://www.w3.org/1999/xlink"><defs /><polygon fill="none" id="1" points="61,33 60,34 42,34 42,37 43,38 43,40 47,40 48,39 57,39 58,38 60,38 61,39 60,40 59,40 59,41 57,43 56,43 49,50 48,50 44,54 43,54 40,57 39,57 39,60 41,62 44,62 46,60 47,60 49,58 50,58 51,57 52,57 53,56 54,56 55,55 56,55 57,54 59,54 60,53 63,53 64,52 69,52 70,53 71,53 73,55 74,55 75,56 75,58 76,59 75,60 75,61 72,64 71,64 69,66 66,66 65,67 61,67 60,68 49,68 49,71 51,73 56,73 57,72 66,72 67,71 70,71 71,70 73,70 74,69 75,69 76,68 77,68 80,65 80,64 81,63 81,54 77,50 76,50 75,49 73,49 72,48 62,48 61,47 69,39 70,39 72,37 72,35 70,33" stroke="black" stroke-width="1" /><polygon fill="none" id="2" points="59,48 60,47 61,47 62,48 61,49 60,49" stroke="black" stroke-width="1" /></svg>