<?xml version="1.0" encoding="utf-8" ?>
<svg baseProfile="full" height="100" version="1.1" width="100" xmlns="http://www.w3.org/2000/svg" xmlns:ev="http://www.w3.org/2001/xml-events" xmlns:xlink="http://www.w3.org/1999/xlink"><defs /><polygon fill="none" id="1" points="51,54 52,55 52,62 51,63 51,64 47,68 46,68 45,69 42,69 41,70 35,70 36,71 37,70 42,70 43,69 45,69 46,68 47,68 51,64 51,63 52,62 52,55" stroke="black" stroke-width="1" /><polygon fill="none" id="2" points="34,52 32,54 32,55 28,59 33,54 34,54 35,53" stroke="black" stroke-width="1" /><polygon fill="none" id="3" points="48,51" stroke="black" stroke-width="1" /><polygon fill="none" id="4" points="43,50 46,50" stroke="black" stroke-width="1" /><polygon fill="none" id="5" points="38,46" stroke="black" stroke-width="1" /><polygon fill="none" id="6" points="41,42" stroke="black" stroke-width="1" /><polygon fill="none" id="7" points="42,35 41,36 30,36 30,37 36,37 37,36 43,36 44,37 44,38 44,37 45,36 44,35" stroke="black" stroke-width="1" /></svg>