<?xml version="1.0" encoding="utf-8" ?>
<svg baseProfile="full" height="100" version="1.1" width="100" xmlns="http://www.w3.org/2000/svg" xmlns:ev="http://www.w3.org/2001/xml-events" xmlns:xlink="http://www.w3.org/1999/xlink"><defs /><polygon fill="none" id="1" points="56,52 58,54 58,63 53,68 52,68 51,69 47,69 46,70 40,70 40,71 41,70 47,70 48,69 51,69 52,68 53,68 55,66 56,66 57,65 57,64 58,63 58,62 59,61 59,57 58,56 58,54" stroke="black" stroke-width="1" /><polygon fill="none" id="2" points="54,51" stroke="black" stroke-width="1" /><polygon fill="none" id="3" points="45,51" stroke="black" stroke-width="1" /><polygon fill="none" id="4" points="39,51 32,58 32,59 36,55 37,55 39,53 40,53 39,52" stroke="black" stroke-width="1" /><polygon fill="none" id="5" points="48,50 52,50" stroke="black" stroke-width="1" /><polygon fill="none" id="6" points="44,45 42,47" stroke="black" stroke-width="1" /><polygon fill="none" id="7" points="47,35 46,36 34,36 34,38 35,37 41,37 42,36 48,36 49,37 49,39 46,42 49,39 49,38 51,36 50,35" stroke="black" stroke-width="1" /></svg>