<?xml version="1.0" encoding="utf-8" ?>
<svg baseProfile="full" height="100" version="1.1" width="100" xmlns="http://www.w3.org/2000/svg" xmlns:ev="http://www.w3.org/2001/xml-events" xmlns:xlink="http://www.w3.org/1999/xlink"><defs /><polygon fill="none" id="1" points="60,51 61,51 64,54 64,55 65,56 65,61 64,62 64,63 63,64 63,65 62,66 61,66 59,68 57,68 56,69 53,69 52,70 44,70 44,71 45,71 46,70 53,70 54,69 57,69 58,68 59,68 60,67 61,67 64,64 64,63 65,62 65,61 66,60 66,57 65,56 65,55 61,51" stroke="black" stroke-width="1" /><polygon fill="none" id="2" points="50,51" stroke="black" stroke-width="1" /><polygon fill="none" id="3" points="43,51 35,59 36,59 40,55 41,55 42,54 43,54 44,53 45,53 44,53 43,52" stroke="black" stroke-width="1" /><polygon fill="none" id="4" points="53,50 58,50" stroke="black" stroke-width="1" /><polygon fill="none" id="5" points="50,44 47,47" stroke="black" stroke-width="1" /><polygon fill="none" id="6" points="53,35 52,36 38,36 38,37 46,37 47,36 53,36 54,37 54,39 51,42 57,36 56,35" stroke="black" stroke-width="1" /></svg>