<?xml version="1.0" encoding="utf-8" ?>
<svg baseProfile="full" height="100" version="1.1" width="100" xmlns="http://www.w3.org/2000/svg" xmlns:ev="http://www.w3.org/2001/xml-events" xmlns:xlink="http://www.w3.org/1999/xlink"><defs /><polygon fill="none" id="1" points="66,51 67,51 71,55 71,62 70,63 70,64 68,66 67,66 65,68 63,68 62,69 58,69 57,70 48,70 49,71 50,70 58,70 59,69 62,69 63,68 65,68 66,67 67,67 69,65 70,65 71,64 71,63 72,62 72,60 73,59 73,58 72,57 72,55 69,52 68,52 67,51" stroke="black" stroke-width="1" /><polygon fill="none" id="2" points="55,51" stroke="black" stroke-width="1" /><polygon fill="none" id="3" points="58,50 64,50" stroke="black" stroke-width="1" /><polygon fill="none" id="4" points="49,49 40,58 39,58 39,59 40,59 43,56 44,56 46,54 47,54 48,53 49,53 48,52 48,50" stroke="black" stroke-width="1" /><polygon fill="none" id="5" points="58,35 57,36 41,36 42,37 51,37 52,36 59,36 60,37 60,39 59,40 58,40 56,42 56,43 53,46 63,36 62,35" stroke="black" stroke-width="1" /></svg>