<?xml version="1.0" encoding="utf-8" ?>
<svg baseProfile="full" height="100" version="1.1" width="100" xmlns="http://www.w3.org/2000/svg" xmlns:ev="http://www.w3.org/2001/xml-events" xmlns:xlink="http://www.w3.org/1999/xlink"><defs /><polygon fill="none" id="1" points="72,51 73,51 75,53 76,53 77,54 77,56 78,57 78,61 77,62 77,63 74,66 73,66 71,68 68,68 67,69 63,69 62,70 52,70 53,71 54,71 55,70 64,70 65,69 68,69 69,68 71,68 72,67 73,67 74,66 75,66 78,63 78,62 79,61 79,56 75,52 74,52 73,51" stroke="black" stroke-width="1" /><polygon fill="none" id="2" points="60,51 61,51" stroke="black" stroke-width="1" /><polygon fill="none" id="3" points="52,51 51,52 50,52 46,56 45,56 42,59 43,59 44,58 45,58 47,56 48,56 49,55 50,55 51,54 52,54 53,53 54,53 53,53 52,52" stroke="black" stroke-width="1" /><polygon fill="none" id="4" points="64,50 70,50" stroke="black" stroke-width="1" /><polygon fill="none" id="5" points="63,35 62,36 45,36 45,38 46,37 55,37 56,36 64,36 65,37 65,39 62,42 61,42 61,43 59,45 58,45 54,49 58,45 59,45 67,37 68,37 69,36 68,35" stroke="black" stroke-width="1" /></svg>