<?xml version="1.0" encoding="utf-8" ?>
<svg baseProfile="full" height="100" version="1.1" width="100" xmlns="http://www.w3.org/2000/svg" xmlns:ev="http://www.w3.org/2001/xml-events" xmlns:xlink="http://www.w3.org/1999/xlink"><defs /><polygon fill="none" id="1" points="32,32 32,40 30,42 24,42 24,46 25,46 26,45 28,45 29,44 30,44 31,43 32,44 32,51 31,52 31,53 27,57 27,58 23,62 23,63 25,65 26,64 26,63 27,62 27,61 29,59 29,58 31,56 32,57 32,72 34,72 34,52 37,49 38,49 41,46 43,46 44,45 47,45 48,46 49,46 52,49 52,50 53,51 53,58 52,59 52,60 51,61 51,62 47,66 46,66 45,67 43,67 42,68 40,68 41,69 41,70 42,71 43,71 44,70 46,70 47,69 48,69 54,63 54,61 55,60 55,50 54,49 54,48 53,47 53,46 52,45 51,45 50,44 49,44 48,43 43,43 42,44 41,44 40,45 39,45 35,49 34,49 33,48 33,47 34,46 34,45 36,43 36,42 34,40 34,32" stroke="black" stroke-width="1" /></svg>