<?xml version="1.0" encoding="utf-8" ?>
<svg baseProfile="full" height="100" version="1.1" width="100" xmlns="http://www.w3.org/2000/svg" xmlns:ev="http://www.w3.org/2001/xml-events" xmlns:xlink="http://www.w3.org/1999/xlink"><defs /><polygon fill="none" id="1" points="36,32 36,40 34,42 27,42 27,45 28,46 29,45 31,45 32,44 34,44 35,43 36,44 36,51 32,55 32,56 26,62 26,63 28,65 30,63 30,62 32,60 32,59 35,56 36,57 36,72 38,72 38,53 43,48 44,48 45,47 46,47 47,46 48,46 49,45 54,45 56,47 57,47 58,48 58,49 59,50 59,52 60,53 60,56 59,57 59,59 58,60 58,61 53,66 52,66 51,67 49,67 48,68 45,68 47,70 47,71 49,71 50,70 51,70 52,69 54,69 56,67 57,67 60,64 60,63 61,62 61,61 62,60 62,50 61,49 61,48 57,44 56,44 55,43 48,43 47,44 46,44 45,45 44,45 43,46 42,46 39,49 38,48 38,46 41,43 38,40 38,36 39,35 39,33 38,32" stroke="black" stroke-width="1" /></svg>