<?xml version="1.0" encoding="utf-8" ?>
<svg baseProfile="full" height="100" version="1.1" width="100" xmlns="http://www.w3.org/2000/svg" xmlns:ev="http://www.w3.org/2001/xml-events" xmlns:xlink="http://www.w3.org/1999/xlink"><defs /><polygon fill="none" id="1" points="40,32 40,40 39,41 38,41 37,42 30,42 30,45 31,46 32,45 35,45 36,44 38,44 39,43 40,44 40,51 29,62 29,63 31,65 34,62 34,61 39,56 40,57 40,72 43,72 43,70 42,69 42,53 44,51 45,51 48,48 49,48 50,47 51,47 52,46 53,46 54,45 60,45 61,46 62,46 65,49 65,50 66,51 66,59 64,61 64,62 62,64 61,64 60,65 59,65 58,66 57,66 56,67 54,67 53,68 51,68 51,69 53,71 54,71 55,70 57,70 58,69 60,69 61,68 62,68 65,65 66,65 66,64 68,62 68,61 69,60 69,50 68,49 68,48 65,45 64,45 63,44 62,44 61,43 54,43 53,44 51,44 50,45 49,45 48,46 47,46 44,49 43,49 42,48 42,46 45,43 45,42 44,42 42,40 42,39 43,38 43,32" stroke="black" stroke-width="1" /></svg>