<?xml version="1.0" encoding="utf-8" ?>
<svg baseProfile="full" height="100" version="1.1" width="100" xmlns="http://www.w3.org/2000/svg" xmlns:ev="http://www.w3.org/2001/xml-events" xmlns:xlink="http://www.w3.org/1999/xlink"><defs /><polygon fill="none" id="1" points="48,32 48,40 47,41 46,41 45,42 36,42 36,45 37,46 38,46 39,45 42,45 43,44 46,44 47,43 48,44 48,51 44,55 43,55 38,60 37,60 35,62 35,63 37,65 38,65 42,61 42,60 46,56 47,56 48,57 48,70 47,71 48,72 51,72 52,71 51,70 51,53 53,51 54,51 56,49 57,49 58,48 59,48 60,47 61,47 62,46 64,46 65,45 72,45 73,46 74,46 75,47 76,47 78,49 78,50 79,51 79,54 80,55 79,56 79,59 74,64 73,64 72,65 71,65 70,66 69,66 68,67 65,67 64,68 61,68 61,69 63,71 65,71 66,70 69,70 70,69 72,69 73,68 74,68 75,67 76,67 77,66 78,66 82,62 82,61 83,60 83,56 84,55 83,54 83,50 78,45 77,45 76,44 74,44 73,43 64,43 63,44 61,44 60,45 59,45 58,46 57,46 56,47 55,47 54,48 53,48 52,49 51,49 50,48 50,47 54,43 55,43 54,42 53,42 51,40 51,37 52,36 52,33 51,32" stroke="black" stroke-width="1" /></svg>