<?xml version="1.0" encoding="utf-8" ?>
<svg baseProfile="full" height="100" version="1.1" width="100" xmlns="http://www.w3.org/2000/svg" xmlns:ev="http://www.w3.org/2001/xml-events" xmlns:xlink="http://www.w3.org/1999/xlink"><defs /><polygon fill="none" id="1" points="43,31 43,37 41,39 35,39 34,38 32,38 32,40 33,41 33,42 41,42 42,41 43,42 43,43 42,44 42,49 41,50 40,50 39,51 38,51 32,57 32,58 31,59 31,61 30,62 30,67 31,68 31,69 32,70 38,70 39,69 40,69 41,68 42,68 44,70 45,70 46,69 47,69 47,64 51,60 51,59 53,57 53,56 54,55 54,54 55,53 55,52 56,51 56,50 57,49 58,49 59,50 60,50 61,51 62,51 64,53 64,54 65,55 65,56 66,57 66,59 65,60 65,61 64,62 64,63 61,66 60,66 59,67 58,67 57,68 52,68 52,71 53,72 57,72 58,71 60,71 61,70 62,70 63,69 64,69 68,65 68,64 69,63 69,61 70,60 70,56 69,55 69,53 68,52 68,51 65,48 64,48 63,47 61,47 60,46 59,46 58,45 58,43 54,43 54,45 53,46 50,46 49,47 47,47 46,46 46,42 47,41 52,41 53,40 57,40 58,39 61,39 61,35 59,35 58,36 55,36 54,37 49,37 48,38 47,37 47,31" stroke="black" stroke-width="1" /><polygon fill="none" id="2" points="41,54 42,55 42,61 43,62 39,66 38,66 37,67 35,67 34,66 34,63 35,62 35,61 36,60 36,59" stroke="black" stroke-width="1" /><polygon fill="none" id="3" points="49,50 50,49 51,49 52,50 52,51 51,52 51,53 49,55 49,56 47,58 46,57 46,51 47,50" stroke="black" stroke-width="1" /></svg>