<?xml version="1.0" encoding="utf-8" ?>
<svg baseProfile="full" height="100" version="1.1" width="100" xmlns="http://www.w3.org/2000/svg" xmlns:ev="http://www.w3.org/2001/xml-events" xmlns:xlink="http://www.w3.org/1999/xlink"><defs /><polygon fill="none" id="1" points="70,37 69,38 68,38 68,39 69,39 70,40 71,40 72,41 73,41 75,43 76,43 80,47 81,47 83,45 83,44 82,43 81,43 79,41 78,41 76,39 75,39 74,38 73,38 72,37" stroke="black" stroke-width="1" /><polygon fill="none" id="2" points="49,33 49,34 50,35 50,41 49,42 38,42 38,44 39,45 45,45 46,44 49,44 50,45 50,53 49,54 48,54 47,55 45,55 44,56 43,56 39,60 38,60 38,61 37,62 37,66 39,68 40,68 42,70 44,70 45,71 52,71 53,70 53,55 54,54 59,54 60,53 69,53 70,54 73,54 77,58 77,61 76,62 76,63 73,66 72,66 71,67 69,67 68,68 59,68 59,69 60,70 60,71 67,71 68,70 71,70 72,69 74,69 75,68 76,68 80,64 80,62 81,61 81,58 79,56 79,55 78,54 77,54 76,53 75,53 74,52 72,52 71,51 58,51 57,52 54,52 53,51 53,45 54,44 55,44 56,43 63,43 64,42 64,40 60,40 59,41 54,41 53,40 53,33" stroke="black" stroke-width="1" /><polygon fill="none" id="3" points="48,56 49,56 50,57 50,67 48,69 45,69 44,68 43,68 41,66 41,62 45,58 46,58" stroke="black" stroke-width="1" /></svg>