<?xml version="1.0" encoding="utf-8" ?>
<svg baseProfile="full" height="100" version="1.1" width="100" xmlns="http://www.w3.org/2000/svg" xmlns:ev="http://www.w3.org/2001/xml-events" xmlns:xlink="http://www.w3.org/1999/xlink"><defs /><polygon fill="none" id="1" points="32,32 32,40 30,42 24,42 24,47 26,47 27,46 29,46 30,45 31,45 32,46 32,51 31,52 31,53 27,57 27,58 23,62 23,64 25,66 26,66 27,65 27,64 28,63 28,62 30,60 30,59 31,58 32,59 32,73 35,73 35,53 38,50 39,50 42,47 44,47 45,46 47,46 48,47 49,47 52,50 52,51 53,52 53,58 52,59 52,60 51,61 51,62 47,66 46,66 45,67 43,67 42,68 40,68 40,69 41,70 41,71 42,72 44,72 45,71 47,71 48,70 49,70 55,64 55,62 56,61 56,50 55,49 55,48 54,47 54,46 53,45 52,45 51,44 50,44 49,43 43,43 42,44 41,44 40,45 39,45 36,48 35,47 35,46 37,44 37,42 35,40 35,32" stroke="black" stroke-width="1" /><polygon fill="none" id="2" points="34,48 35,47 36,48 35,49" stroke="black" stroke-width="1" /></svg>