<?xml version="1.0" encoding="utf-8" ?>
<svg baseProfile="full" height="100" version="1.1" width="100" xmlns="http://www.w3.org/2000/svg" xmlns:ev="http://www.w3.org/2001/xml-events" xmlns:xlink="http://www.w3.org/1999/xlink"><defs /><polygon fill="none" id="1" points="36,32 36,40 34,42 27,42 27,46 28,47 29,47 30,46 32,46 33,45 35,45 36,46 36,51 32,55 32,56 26,62 26,64 28,66 29,66 31,64 31,63 33,61 33,60 35,58 36,59 36,73 39,73 39,54 44,49 45,49 46,48 47,48 48,47 49,47 50,46 54,46 56,48 57,48 58,49 58,50 59,51 59,53 60,54 60,56 59,57 59,59 58,60 58,61 53,66 52,66 51,67 49,67 48,68 45,68 45,69 47,71 47,72 50,72 51,71 52,71 53,70 55,70 57,68 58,68 61,65 61,64 62,63 62,62 63,61 63,50 62,49 62,48 58,44 57,44 56,43 48,43 47,44 46,44 45,45 44,45 43,46 42,46 41,45 42,44 42,43 39,40 39,37 40,36 40,33 39,32" stroke="black" stroke-width="1" /><polygon fill="none" id="2" points="39,47 40,46 41,47 40,48" stroke="black" stroke-width="1" /><polygon fill="none" id="3" points="40,46 41,45 42,46 41,47" stroke="black" stroke-width="1" /></svg>