<?xml version="1.0" encoding="utf-8" ?>
<svg baseProfile="full" height="100" version="1.1" width="100" xmlns="http://www.w3.org/2000/svg" xmlns:ev="http://www.w3.org/2001/xml-events" xmlns:xlink="http://www.w3.org/1999/xlink"><defs /><polygon fill="none" id="1" points="40,32 40,40 39,41 38,41 37,42 30,42 30,46 31,47 32,47 33,46 36,46 37,45 39,45 40,46 40,51 29,62 29,64 31,66 32,66 35,63 35,62 39,58 40,59 40,73 44,73 44,70 43,69 43,54 45,52 46,52 49,49 50,49 51,48 52,48 53,47 54,47 55,46 60,46 61,47 62,47 65,50 65,51 66,52 66,59 64,61 64,62 62,64 61,64 60,65 59,65 58,66 57,66 56,67 54,67 53,68 51,68 51,70 53,72 55,72 56,71 58,71 59,70 61,70 62,69 63,69 66,66 67,66 67,65 69,63 69,62 70,61 70,50 69,49 69,48 66,45 65,45 64,44 63,44 62,43 54,43 53,44 51,44 50,45 49,45 48,46 47,46 44,49 43,48 43,47 46,44 46,42 45,42 43,40 44,39 44,32" stroke="black" stroke-width="1" /></svg>