<?xml version="1.0" encoding="utf-8" ?>
<svg baseProfile="full" height="100" version="1.1" width="100" xmlns="http://www.w3.org/2000/svg" xmlns:ev="http://www.w3.org/2001/xml-events" xmlns:xlink="http://www.w3.org/1999/xlink"><defs /><polygon fill="none" id="1" points="44,32 44,40 43,41 42,41 41,42 33,42 33,46 34,47 35,47 36,46 40,46 41,45 43,45 44,46 44,51 37,58 36,58 32,62 32,64 34,66 35,66 43,58 44,59 44,70 43,71 43,72 44,73 48,73 48,56 47,55 47,54 48,53 49,53 51,51 52,51 54,49 55,49 56,48 57,48 58,47 60,47 61,46 66,46 67,47 68,47 72,51 72,52 73,53 73,58 72,59 72,60 68,64 67,64 66,65 65,65 64,66 63,66 62,67 60,67 59,68 56,68 56,70 58,72 60,72 61,71 64,71 65,70 67,70 68,69 69,69 70,68 71,68 76,63 76,62 77,61 77,50 75,48 75,47 74,46 73,46 71,44 69,44 68,43 59,43 58,44 56,44 55,45 54,45 53,46 52,46 51,47 50,47 49,46 51,44 51,42 50,42 48,40 48,35 49,34 49,33 48,32" stroke="black" stroke-width="1" /><polygon fill="none" id="2" points="47,48 48,47 49,48 48,49" stroke="black" stroke-width="1" /><polygon fill="none" id="3" points="48,47 49,46 50,47 49,48" stroke="black" stroke-width="1" /></svg>