<?xml version="1.0" encoding="utf-8" ?>
<svg baseProfile="full" height="100" version="1.1" width="100" xmlns="http://www.w3.org/2000/svg" xmlns:ev="http://www.w3.org/2001/xml-events" xmlns:xlink="http://www.w3.org/1999/xlink"><defs /><polygon fill="none" id="1" points="48,32 48,40 47,41 46,41 45,42 36,42 36,46 37,47 39,47 40,46 43,46 44,45 47,45 48,46 48,51 44,55 43,55 38,60 37,60 35,62 35,64 37,66 39,66 43,62 43,61 47,57 48,58 48,70 47,71 47,72 48,73 52,73 53,72 53,71 52,70 52,54 54,52 55,52 57,50 58,50 59,49 60,49 61,48 62,48 63,47 65,47 66,46 72,46 73,47 74,47 75,48 76,48 78,50 78,51 79,52 79,59 74,64 73,64 72,65 71,65 70,66 69,66 68,67 65,67 64,68 61,68 61,70 63,72 66,72 67,71 70,71 71,70 73,70 74,69 75,69 76,68 77,68 78,67 79,67 83,63 83,62 84,61 84,57 85,56 85,55 84,54 84,50 79,45 78,45 77,44 75,44 74,43 64,43 63,44 61,44 60,45 59,45 58,46 57,46 56,47 55,47 54,48 53,48 52,47 55,44 56,44 56,43 55,42 54,42 52,40 52,38 53,37 53,33 52,32" stroke="black" stroke-width="1" /><polygon fill="none" id="2" points="51,48 52,47 53,48 52,49" stroke="black" stroke-width="1" /></svg>