<?xml version="1.0" encoding="utf-8" ?>
<svg baseProfile="full" height="100" version="1.1" width="100" xmlns="http://www.w3.org/2000/svg" xmlns:ev="http://www.w3.org/2001/xml-events" xmlns:xlink="http://www.w3.org/1999/xlink"><defs /><polygon fill="none" id="1" points="33,33 33,41 31,43 25,43 25,46 26,45 28,45 29,44 30,44 31,43 32,43 33,44 33,52 32,53 32,54 28,58 28,59 24,63 25,64 26,64 26,63 27,62 27,61 29,59 29,58 31,56 32,56 33,57 33,72 34,72 34,52 37,49 38,49 41,46 43,46 44,45 48,45 49,46 50,46 53,49 53,50 54,51 54,59 53,60 53,61 52,62 52,63 48,67 47,67 46,68 44,68 43,69 42,69 42,70 43,71 44,70 46,70 47,69 48,69 54,63 54,61 55,60 55,51 54,50 54,49 53,48 53,47 52,46 51,46 50,45 49,45 48,44 44,44 43,45 42,45 41,46 40,46 36,50 34,50 33,49 33,47 34,46 34,45 36,43 34,41 34,33" stroke="black" stroke-width="1" /></svg>