<?xml version="1.0" encoding="utf-8" ?>
<svg baseProfile="full" height="100" version="1.1" width="100" xmlns="http://www.w3.org/2000/svg" xmlns:ev="http://www.w3.org/2001/xml-events" xmlns:xlink="http://www.w3.org/1999/xlink"><defs /><polygon fill="none" id="1" points="37,33 37,41 35,43 28,43 28,45 31,45 32,44 34,44 35,43 36,43 37,44 37,52 33,56 33,57 27,63 28,64 29,64 30,63 30,62 32,60 32,59 35,56 36,56 37,57 37,72 38,72 38,53 43,48 44,48 45,47 46,47 47,46 48,46 49,45 55,45 57,47 58,47 59,48 59,49 60,50 60,52 61,53 61,57 60,58 60,60 59,61 59,62 54,67 53,67 52,68 50,68 49,69 47,69 48,70 48,71 49,71 50,70 51,70 52,69 54,69 56,67 57,67 60,64 60,63 61,62 61,61 62,60 62,51 61,50 61,49 57,45 56,45 55,44 49,44 48,45 47,45 46,46 45,46 44,47 43,47 40,50 39,50 38,49 38,46 40,44 40,43 38,41 38,36 39,35 39,34 38,33" stroke="black" stroke-width="1" /></svg>