<?xml version="1.0" encoding="utf-8" ?>
<svg baseProfile="full" height="100" version="1.1" width="100" xmlns="http://www.w3.org/2000/svg" xmlns:ev="http://www.w3.org/2001/xml-events" xmlns:xlink="http://www.w3.org/1999/xlink"><defs /><polygon fill="none" id="1" points="41,33 41,41 40,42 39,42 38,43 31,43 31,45 35,45 36,44 38,44 39,43 40,43 41,44 41,52 30,63 31,64 32,64 34,62 34,61 39,56 40,56 41,57 41,72 43,72 43,71 42,70 42,53 44,51 45,51 48,48 49,48 50,47 51,47 52,46 53,46 54,45 61,45 62,46 63,46 66,49 66,50 67,51 67,60 65,62 65,63 63,65 62,65 61,66 60,66 59,67 58,67 57,68 55,68 54,69 52,69 54,71 55,70 57,70 58,69 60,69 61,68 62,68 65,65 66,65 66,64 68,62 68,61 69,60 69,51 68,50 68,49 65,46 64,46 63,45 62,45 61,44 55,44 54,45 52,45 51,46 50,46 49,47 48,47 45,50 43,50 42,49 42,46 45,43 44,43 42,41 42,39 43,38 43,33" stroke="black" stroke-width="1" /></svg>