<?xml version="1.0" encoding="utf-8" ?>
<svg baseProfile="full" height="100" version="1.1" width="100" xmlns="http://www.w3.org/2000/svg" xmlns:ev="http://www.w3.org/2001/xml-events" xmlns:xlink="http://www.w3.org/1999/xlink"><defs /><polygon fill="none" id="1" points="45,33 45,41 44,42 43,42 42,43 34,43 34,45 39,45 40,44 42,44 43,43 44,43 45,44 45,52 38,59 37,59 33,63 34,64 35,64 43,56 44,56 45,57 45,72 47,72 47,57 46,56 46,53 47,52 48,52 50,50 51,50 53,48 54,48 55,47 56,47 57,46 59,46 60,45 67,45 68,46 69,46 73,50 73,51 74,52 74,59 73,60 73,61 69,65 68,65 67,66 66,66 65,67 64,67 63,68 61,68 60,69 57,69 59,71 60,70 63,70 64,69 66,69 67,68 68,68 69,67 70,67 75,62 75,61 76,60 76,51 74,49 74,48 73,47 72,47 70,45 68,45 67,44 60,44 59,45 57,45 56,46 55,46 54,47 53,47 52,48 51,48 49,50 47,50 46,49 46,47 50,43 49,43 47,41 47,33" stroke="black" stroke-width="1" /></svg>