<?xml version="1.0" encoding="utf-8" ?>
<svg baseProfile="full" height="100" version="1.1" width="100" xmlns="http://www.w3.org/2000/svg" xmlns:ev="http://www.w3.org/2001/xml-events" xmlns:xlink="http://www.w3.org/1999/xlink"><defs /><polygon fill="none" id="1" points="46,37 46,40 53,47 53,48 55,48 55,47 56,46 56,44 49,37" stroke="black" stroke-width="1" /><polygon fill="none" id="2" points="33,33 33,41 32,42 26,42 26,46 31,46 32,45 33,46 33,53 31,55 30,55 26,59 26,60 25,61 25,68 28,71 29,71 30,72 35,72 36,71 36,56 37,55 40,55 41,54 46,54 47,55 48,55 51,58 51,62 50,63 50,64 47,67 46,67 45,68 39,68 39,70 40,71 40,72 45,72 46,71 48,71 49,70 50,70 53,67 53,66 54,65 54,56 53,55 53,54 52,53 51,53 50,52 49,52 48,51 39,51 38,52 37,52 36,51 36,46 38,44 43,44 43,40 40,40 39,41 37,41 36,40 36,33" stroke="black" stroke-width="1" /><polygon fill="none" id="3" points="32,58 33,59 33,68 32,69 31,69 28,66 28,63 29,62 29,61" stroke="black" stroke-width="1" /></svg>