<?xml version="1.0" encoding="utf-8" ?>
<svg baseProfile="full" height="100" version="1.1" width="100" xmlns="http://www.w3.org/2000/svg" xmlns:ev="http://www.w3.org/2001/xml-events" xmlns:xlink="http://www.w3.org/1999/xlink"><defs /><polygon fill="none" id="1" points="49,33 49,41 48,42 47,42 46,43 37,43 37,45 38,46 39,45 42,45 43,44 46,44 47,43 48,43 49,44 49,52 45,56 44,56 39,61 38,61 36,63 38,65 42,61 42,60 46,56 48,56 49,57 49,72 51,72 51,53 53,51 54,51 56,49 57,49 58,48 59,48 60,47 61,47 62,46 64,46 65,45 73,45 74,46 75,46 76,47 77,47 79,49 79,50 80,51 80,54 81,55 81,56 80,57 80,60 75,65 74,65 73,66 72,66 71,67 70,67 69,68 66,68 65,69 62,69 64,71 65,71 66,70 69,70 70,69 72,69 73,68 74,68 75,67 76,67 77,66 78,66 82,62 82,61 83,60 83,51 78,46 77,46 76,45 74,45 73,44 65,44 64,45 62,45 61,46 60,46 59,47 58,47 57,48 56,48 55,49 54,49 53,50 51,50 50,49 50,47 54,43 53,43 51,41 51,37 52,36 52,34 51,33" stroke="black" stroke-width="1" /></svg>