<?xml version="1.0" encoding="utf-8" ?>
<svg baseProfile="full" height="100" version="1.1" width="100" xmlns="http://www.w3.org/2000/svg" xmlns:ev="http://www.w3.org/2001/xml-events" xmlns:xlink="http://www.w3.org/1999/xlink"><defs /><polygon fill="none" id="1" points="31,31 31,39 29,41 23,41 23,47 26,47 27,46 29,46 30,45 31,46 31,50 30,51 30,52 26,56 26,57 22,61 22,64 24,66 26,66 27,65 27,64 28,63 28,62 30,60 31,61 31,73 35,73 35,53 38,50 39,50 42,47 44,47 45,46 46,46 47,47 48,47 51,50 51,51 52,52 52,57 51,58 51,59 50,60 50,61 46,65 45,65 44,66 42,66 41,67 39,67 39,69 40,70 40,71 41,72 44,72 45,71 47,71 48,70 49,70 55,64 55,62 56,61 56,49 55,48 55,47 54,46 54,45 53,44 52,44 51,43 50,43 49,42 42,42 41,43 40,43 39,44 38,44 37,43 37,41 35,39 35,31" stroke="black" stroke-width="1" /></svg>