<?xml version="1.0" encoding="utf-8" ?>
<svg baseProfile="full" height="100" version="1.1" width="100" xmlns="http://www.w3.org/2000/svg" xmlns:ev="http://www.w3.org/2001/xml-events" xmlns:xlink="http://www.w3.org/1999/xlink"><defs /><polygon fill="none" id="1" points="35,31 35,39 33,41 26,41 26,46 27,47 29,47 30,46 32,46 33,45 34,45 35,46 35,50 31,54 31,55 25,61 25,64 27,66 29,66 31,64 31,63 33,61 33,60 34,59 35,60 35,73 39,73 39,54 44,49 45,49 46,48 47,48 48,47 49,47 50,46 53,46 55,48 56,48 57,49 57,50 58,51 58,53 59,54 59,55 58,56 58,58 57,59 57,60 52,65 51,65 50,66 48,66 47,67 44,67 44,69 46,71 46,72 50,72 51,71 52,71 53,70 55,70 57,68 58,68 61,65 61,64 62,63 62,62 63,61 63,49 62,48 62,47 58,43 57,43 56,42 47,42 46,43 45,43 44,44 43,44 42,43 42,42 39,39 39,37 40,36 40,32 39,31" stroke="black" stroke-width="1" /></svg>