<?xml version="1.0" encoding="utf-8" ?>
<svg baseProfile="full" height="100" version="1.1" width="100" xmlns="http://www.w3.org/2000/svg" xmlns:ev="http://www.w3.org/2001/xml-events" xmlns:xlink="http://www.w3.org/1999/xlink"><defs /><polygon fill="none" id="1" points="43,31 43,39 42,40 41,40 40,41 32,41 32,46 33,47 35,47 36,46 40,46 41,45 42,45 43,46 43,50 36,57 35,57 31,61 31,64 33,66 35,66 42,59 43,60 43,69 42,70 42,72 43,73 48,73 48,55 47,54 48,53 49,53 51,51 52,51 54,49 55,49 56,48 57,48 58,47 60,47 61,46 65,46 66,47 67,47 71,51 71,52 72,53 72,57 71,58 71,59 67,63 66,63 65,64 64,64 63,65 62,65 61,66 59,66 58,67 55,67 55,70 57,72 60,72 61,71 64,71 65,70 67,70 68,69 69,69 70,68 71,68 76,63 76,62 77,61 77,49 75,47 75,46 74,45 73,45 71,43 69,43 68,42 58,42 57,43 55,43 54,44 53,44 52,45 51,44 51,41 50,41 48,39 48,35 49,34 49,32 48,31" stroke="black" stroke-width="1" /></svg>