<?xml version="1.0" encoding="utf-8" ?>
<svg baseProfile="full" height="100" version="1.1" width="100" xmlns="http://www.w3.org/2000/svg" xmlns:ev="http://www.w3.org/2001/xml-events" xmlns:xlink="http://www.w3.org/1999/xlink"><defs /><polygon fill="none" id="1" points="47,31 47,39 46,40 45,40 44,41 35,41 35,46 36,47 39,47 40,46 43,46 44,45 46,45 47,46 47,50 43,54 42,54 37,59 36,59 34,61 34,64 36,66 39,66 43,62 43,61 46,58 47,59 47,69 46,70 46,72 47,73 52,73 53,72 53,70 52,69 52,54 54,52 55,52 57,50 58,50 59,49 60,49 61,48 62,48 63,47 65,47 66,46 71,46 72,47 73,47 74,48 75,48 77,50 77,51 78,52 78,58 73,63 72,63 71,64 70,64 69,65 68,65 67,66 64,66 63,67 60,67 60,70 62,72 66,72 67,71 70,71 71,70 73,70 74,69 75,69 76,68 77,68 78,67 79,67 83,63 83,62 84,61 84,57 85,56 85,54 84,53 84,49 79,44 78,44 77,43 75,43 74,42 63,42 62,43 60,43 59,44 58,44 57,45 56,44 56,42 55,41 54,41 52,39 52,38 53,37 53,32 52,31" stroke="black" stroke-width="1" /><polygon fill="none" id="2" points="54,45 55,44 56,45 55,46" stroke="black" stroke-width="1" /></svg>