<?xml version="1.0" encoding="utf-8" ?>
<svg baseProfile="full" height="100" version="1.1" width="100" xmlns="http://www.w3.org/2000/svg" xmlns:ev="http://www.w3.org/2001/xml-events" xmlns:xlink="http://www.w3.org/1999/xlink"><defs /><polygon fill="none" id="1" points="26,61 25,62 25,63 25,62" stroke="black" stroke-width="1" /><polygon fill="none" id="2" points="28,58" stroke="black" stroke-width="1" /><polygon fill="none" id="3" points="54,51 54,59 53,60 53,61 52,62 52,63 48,67 47,67 46,68 44,68 43,69 42,69 45,69 46,68 47,68 53,62 53,60 54,59" stroke="black" stroke-width="1" /><polygon fill="none" id="4" points="33,50 33,52 32,53 32,54 31,55 32,55 33,56 33,71 33,51 34,50" stroke="black" stroke-width="1" /><polygon fill="none" id="5" points="53,49" stroke="black" stroke-width="1" /><polygon fill="none" id="6" points="51,46 52,47" stroke="black" stroke-width="1" /><polygon fill="none" id="7" points="49,45" stroke="black" stroke-width="1" /><polygon fill="none" id="8" points="42,45" stroke="black" stroke-width="1" /><polygon fill="none" id="9" points="44,44 47,44" stroke="black" stroke-width="1" /><polygon fill="none" id="10" points="25,43 25,44 27,44 28,43 29,43" stroke="black" stroke-width="1" /><polygon fill="none" id="11" points="33,33 33,41 32,42 33,43 33,45 33,44 34,43 34,42 33,41" stroke="black" stroke-width="1" /></svg>