<?xml version="1.0" encoding="utf-8" ?>
<svg baseProfile="full" height="100" version="1.1" width="100" xmlns="http://www.w3.org/2000/svg" xmlns:ev="http://www.w3.org/2001/xml-events" xmlns:xlink="http://www.w3.org/1999/xlink"><defs /><polygon fill="none" id="1" points="31,59 28,62 28,63 29,62 29,61" stroke="black" stroke-width="1" /><polygon fill="none" id="2" points="59,48 60,49 60,51 61,52 61,57 60,58 60,60 59,61 59,62 54,67 53,67 52,68 50,68 49,69 48,69 48,70 49,69 50,69 51,68 53,68 55,66 56,66 59,63 59,62 60,61 60,60 61,59 61,51 60,50 60,49" stroke="black" stroke-width="1" /><polygon fill="none" id="3" points="43,47" stroke="black" stroke-width="1" /><polygon fill="none" id="4" points="45,46" stroke="black" stroke-width="1" /><polygon fill="none" id="5" points="56,45 57,46" stroke="black" stroke-width="1" /><polygon fill="none" id="6" points="47,45" stroke="black" stroke-width="1" /><polygon fill="none" id="7" points="49,44 54,44" stroke="black" stroke-width="1" /><polygon fill="none" id="8" points="28,43 28,44 30,44 31,43 33,43" stroke="black" stroke-width="1" /><polygon fill="none" id="9" points="37,33 37,41 36,42 37,43 37,52 33,56 34,55 36,55 37,56 37,71 37,52 39,50 38,50 37,49 37,45 39,43 37,41 37,35 38,34" stroke="black" stroke-width="1" /></svg>