<?xml version="1.0" encoding="utf-8" ?>
<svg baseProfile="full" height="100" version="1.1" width="100" xmlns="http://www.w3.org/2000/svg" xmlns:ev="http://www.w3.org/2001/xml-events" xmlns:xlink="http://www.w3.org/1999/xlink"><defs /><polygon fill="none" id="1" points="48,47" stroke="black" stroke-width="1" /><polygon fill="none" id="2" points="64,46 66,48 66,49 67,50 67,60 65,62 65,63 63,65 62,65 61,66 60,66 59,67 58,67 57,68 55,68 54,69 53,69 56,69 57,68 59,68 60,67 61,67 64,64 65,64 65,63 67,61 67,60 68,59 68,51 67,50 67,49" stroke="black" stroke-width="1" /><polygon fill="none" id="3" points="50,46" stroke="black" stroke-width="1" /><polygon fill="none" id="4" points="62,45" stroke="black" stroke-width="1" /><polygon fill="none" id="5" points="52,45" stroke="black" stroke-width="1" /><polygon fill="none" id="6" points="55,44 60,44" stroke="black" stroke-width="1" /><polygon fill="none" id="7" points="31,43 31,44 34,44 35,43 37,43" stroke="black" stroke-width="1" /><polygon fill="none" id="8" points="41,33 41,41 40,42 39,42 40,42 41,43 41,52 31,62 31,63 33,61 33,60 38,55 40,55 41,56 41,71 42,71 41,70 41,52 43,50 44,50 42,50 41,49 41,45 43,43 41,41 41,38 42,37 42,33" stroke="black" stroke-width="1" /></svg>