<?xml version="1.0" encoding="utf-8" ?>
<svg baseProfile="full" height="100" version="1.1" width="100" xmlns="http://www.w3.org/2000/svg" xmlns:ev="http://www.w3.org/2001/xml-events" xmlns:xlink="http://www.w3.org/1999/xlink"><defs /><polygon fill="none" id="1" points="51,48 50,49" stroke="black" stroke-width="1" /><polygon fill="none" id="2" points="53,47" stroke="black" stroke-width="1" /><polygon fill="none" id="3" points="55,46" stroke="black" stroke-width="1" /><polygon fill="none" id="4" points="68,45 69,45 73,49 73,50 74,51 74,59 73,60 73,61 69,65 68,65 67,66 66,66 65,67 64,67 63,68 61,68 60,69 58,69 62,69 63,68 65,68 66,67 67,67 68,66 69,66 74,61 74,60 75,59 75,51 73,49 73,48 72,47 71,47 69,45" stroke="black" stroke-width="1" /><polygon fill="none" id="5" points="57,45 58,45" stroke="black" stroke-width="1" /><polygon fill="none" id="6" points="60,44 66,44" stroke="black" stroke-width="1" /><polygon fill="none" id="7" points="34,43 34,44 38,44 39,43 41,43" stroke="black" stroke-width="1" /><polygon fill="none" id="8" points="45,33 45,41 44,42 43,42 44,42 45,43 45,52 38,59 37,59 34,62 34,63 42,55 44,55 45,56 45,71 46,71 46,57 45,56 45,52 46,51 47,51 48,50 46,50 45,49 45,46 48,43 46,41 46,33" stroke="black" stroke-width="1" /></svg>