<?xml version="1.0" encoding="utf-8" ?>
<svg baseProfile="full" height="100" version="1.1" width="100" xmlns="http://www.w3.org/2000/svg" xmlns:ev="http://www.w3.org/2001/xml-events" xmlns:xlink="http://www.w3.org/1999/xlink"><defs /><polygon fill="none" id="1" points="53,36 51,38 51,40 52,40 55,43 56,43 58,45 58,46 60,48 61,48 63,46 63,44 59,40 58,40 54,36" stroke="black" stroke-width="1" /><polygon fill="none" id="2" points="37,33 37,40 38,41 37,42 29,42 29,46 35,46 36,45 37,45 38,46 37,47 37,53 35,55 34,55 32,57 31,57 30,58 30,59 28,61 28,67 29,68 29,69 30,70 31,70 32,71 33,71 34,72 39,72 41,70 41,56 42,55 45,55 46,54 52,54 53,55 54,55 57,58 57,63 53,67 52,67 51,68 44,68 44,70 45,71 45,72 51,72 52,71 54,71 55,70 56,70 57,69 58,69 59,68 59,67 60,66 60,65 61,64 61,57 60,56 60,55 58,53 57,53 56,52 55,52 54,51 44,51 43,52 42,52 41,51 41,46 43,44 48,44 49,43 49,40 45,40 44,41 42,41 41,40 41,33" stroke="black" stroke-width="1" /><polygon fill="none" id="3" points="36,58 37,59 37,68 36,69 35,69 31,65 31,64 32,63 32,62" stroke="black" stroke-width="1" /><polygon fill="none" id="4" points="36,58 37,57 38,58 37,59" stroke="black" stroke-width="1" /></svg>