<?xml version="1.0" encoding="utf-8" ?>
<svg baseProfile="full" height="100" version="1.1" width="100" xmlns="http://www.w3.org/2000/svg" xmlns:ev="http://www.w3.org/2001/xml-events" xmlns:xlink="http://www.w3.org/1999/xlink"><defs /><polygon fill="none" id="1" points="44,56 39,61 38,61 37,62 37,63 38,63 41,60 41,59" stroke="black" stroke-width="1" /><polygon fill="none" id="2" points="56,48" stroke="black" stroke-width="1" /><polygon fill="none" id="3" points="58,47" stroke="black" stroke-width="1" /><polygon fill="none" id="4" points="60,46" stroke="black" stroke-width="1" /><polygon fill="none" id="5" points="74,45 75,45 76,46 77,46 79,48 79,49 80,50 80,53 81,54 81,56 80,57 80,60 75,65 74,65 73,66 72,66 71,67 70,67 69,68 66,68 65,69 63,69 64,70 65,69 68,69 69,68 71,68 72,67 73,67 74,66 75,66 76,65 77,65 81,61 81,60 82,59 82,51 77,46 76,46 75,45" stroke="black" stroke-width="1" /><polygon fill="none" id="6" points="62,45 63,45" stroke="black" stroke-width="1" /><polygon fill="none" id="7" points="65,44 72,44" stroke="black" stroke-width="1" /><polygon fill="none" id="8" points="37,43 37,44 41,44 42,43 45,43" stroke="black" stroke-width="1" /><polygon fill="none" id="9" points="49,33 49,41 48,42 47,42 48,42 49,43 49,52 46,55 48,55 49,56 49,71 50,71 50,52 52,50 53,50 54,49 53,50 50,50 49,49 49,46 52,43 50,41 50,36 51,35 51,34 50,33" stroke="black" stroke-width="1" /></svg>