<?xml version="1.0" encoding="utf-8" ?>
<svg baseProfile="full" height="100" version="1.1" width="100" xmlns="http://www.w3.org/2000/svg" xmlns:ev="http://www.w3.org/2001/xml-events" xmlns:xlink="http://www.w3.org/1999/xlink"><defs /><polygon fill="none" id="1" points="36,31 36,35 35,36 35,37 34,38 26,38 26,40 32,40 33,41 33,43 32,44 32,45 31,46 31,47 30,48 30,49 29,50 29,51 28,52 28,53 26,55 26,56 25,57 27,59 28,58 28,57 29,56 29,55 36,48 38,48 41,51 41,52 42,53 40,55 39,55 37,57 36,57 34,59 34,60 33,61 33,62 32,63 32,68 33,69 33,70 34,70 35,71 36,71 37,72 49,72 50,71 52,71 52,68 51,68 50,69 48,69 47,70 38,70 37,69 36,69 34,67 34,64 35,63 35,62 40,57 41,57 42,58 42,62 44,62 44,55 45,54 46,54 47,53 48,53 49,52 51,52 52,51 54,51 54,50 53,49 53,48 52,48 51,49 50,49 49,50 48,50 47,51 46,51 45,52 44,52 43,51 43,50 42,49 42,48 40,46 37,46 36,47 35,47 34,48 33,48 32,47 34,45 34,44 35,43 35,41 36,40 42,40 43,39 46,39 46,36 45,36 44,37 41,37 40,38 38,38 37,37 37,36 38,35 38,33 39,32 39,31" stroke="black" stroke-width="1" /></svg>