<?xml version="1.0" encoding="utf-8" ?>
<svg baseProfile="full" height="100" version="1.1" width="100" xmlns="http://www.w3.org/2000/svg" xmlns:ev="http://www.w3.org/2001/xml-events" xmlns:xlink="http://www.w3.org/1999/xlink"><defs /><polygon fill="none" id="1" points="41,31 41,33 40,34 40,37 39,38 30,38 30,40 37,40 38,41 37,42 37,43 36,44 36,45 35,46 35,47 33,49 33,50 32,51 32,52 31,53 31,54 28,57 30,59 31,59 31,58 32,57 32,56 39,49 40,49 41,48 43,48 46,51 46,52 47,53 45,55 44,55 43,56 42,56 37,61 37,62 36,63 36,68 39,71 41,71 42,72 55,72 56,71 59,71 58,70 58,68 57,68 56,69 54,69 53,70 43,70 42,69 40,69 39,68 39,67 38,66 38,65 39,64 39,63 45,57 46,57 47,58 47,62 50,62 50,60 49,59 49,55 50,54 52,54 53,53 55,53 56,52 57,52 58,51 61,51 61,50 60,49 60,48 58,48 57,49 56,49 55,50 54,50 53,51 52,51 51,52 49,52 48,51 48,49 45,46 41,46 40,47 39,47 38,48 37,47 37,46 39,44 39,42 41,40 47,40 48,39 52,39 52,36 51,36 50,37 46,37 45,38 43,38 42,37 42,35 43,34 43,33 44,32 44,31" stroke="black" stroke-width="1" /><polygon fill="none" id="2" points="36,48 37,47 38,48 37,49" stroke="black" stroke-width="1" /></svg>