<?xml version="1.0" encoding="utf-8" ?>
<svg baseProfile="full" height="100" version="1.1" width="100" xmlns="http://www.w3.org/2000/svg" xmlns:ev="http://www.w3.org/2001/xml-events" xmlns:xlink="http://www.w3.org/1999/xlink"><defs /><polygon fill="none" id="1" points="46,31 45,32 45,34 44,35 44,37 43,38 33,38 33,40 41,40 42,41 41,42 41,43 40,44 40,45 38,47 38,48 37,49 37,50 35,52 35,53 32,56 32,58 33,58 34,59 35,58 35,57 43,49 44,49 45,48 48,48 51,51 51,52 52,53 50,55 49,55 48,56 47,56 45,58 44,58 41,61 41,62 40,63 40,68 43,71 46,71 47,72 61,72 62,71 65,71 65,68 64,68 63,69 60,69 59,70 48,70 47,69 45,69 43,67 43,63 47,59 48,59 50,57 52,57 53,58 52,59 52,62 55,62 55,55 56,54 58,54 59,53 61,53 62,52 64,52 65,51 67,51 67,49 66,48 65,48 64,49 62,49 61,50 60,50 59,51 57,51 56,52 55,52 53,50 53,49 50,46 46,46 45,47 44,47 43,48 42,48 41,47 42,46 42,45 43,44 43,43 44,42 44,41 45,40 53,40 54,39 58,39 58,36 56,36 55,37 51,37 50,38 47,38 46,37 47,36 47,35 48,34 48,33 49,32 49,31" stroke="black" stroke-width="1" /><polygon fill="none" id="2" points="40,48 41,47 42,48 41,49" stroke="black" stroke-width="1" /></svg>