<?xml version="1.0" encoding="utf-8" ?>
<svg baseProfile="full" height="100" version="1.1" width="100" xmlns="http://www.w3.org/2000/svg" xmlns:ev="http://www.w3.org/2001/xml-events" xmlns:xlink="http://www.w3.org/1999/xlink"><defs /><polygon fill="none" id="1" points="50,31 50,33 49,34 49,35 48,36 48,37 47,38 36,38 36,40 45,40 46,41 46,42 44,44 44,45 42,47 42,48 40,50 40,51 35,56 35,58 36,58 37,59 38,59 38,58 46,50 47,50 48,49 49,49 50,48 53,48 57,52 57,53 55,55 54,55 53,56 52,56 51,57 50,57 48,59 47,59 46,60 46,61 44,63 44,68 46,70 47,70 48,71 50,71 51,72 67,72 68,71 72,71 72,69 71,68 70,68 69,69 66,69 65,70 53,70 52,69 49,69 47,67 47,64 52,59 53,59 55,57 57,57 58,58 58,60 57,61 57,62 61,62 61,57 60,56 62,54 64,54 65,53 67,53 68,52 70,52 71,51 74,51 74,49 73,48 71,48 70,49 69,49 68,50 66,50 65,51 63,51 62,52 60,52 59,51 59,50 58,49 58,48 57,47 56,47 55,46 50,46 49,47 48,47 47,48 46,48 45,47 46,46 46,45 48,43 48,42 50,40 58,40 59,39 64,39 64,36 62,36 61,37 56,37 55,38 52,38 51,37 52,36 52,35 53,34 53,33 54,32 54,31" stroke="black" stroke-width="1" /><polygon fill="none" id="2" points="44,48 45,47 46,48 45,49" stroke="black" stroke-width="1" /></svg>