<?xml version="1.0" encoding="utf-8" ?>
<svg baseProfile="full" height="100" version="1.1" width="100" xmlns="http://www.w3.org/2000/svg" xmlns:ev="http://www.w3.org/2001/xml-events" xmlns:xlink="http://www.w3.org/1999/xlink"><defs /><polygon fill="none" id="1" points="59,36 57,38 57,40 58,40 60,42 61,42 67,48 68,48 70,46 70,44 68,42 67,42 64,39 63,39 60,36" stroke="black" stroke-width="1" /><polygon fill="none" id="2" points="41,33 41,39 42,40 42,41 41,42 32,42 32,46 38,46 39,45 41,45 42,46 42,48 41,49 41,51 42,52 42,53 41,54 40,54 39,55 38,55 37,56 36,56 32,60 32,61 31,62 31,67 35,71 36,71 37,72 44,72 45,71 45,56 46,55 50,55 51,54 58,54 59,55 60,55 61,56 62,56 63,57 63,58 64,59 64,62 59,67 57,67 56,68 49,68 49,70 50,71 50,72 57,72 58,71 60,71 61,70 62,70 63,69 64,69 67,66 67,65 68,64 68,57 66,55 66,54 65,54 63,52 61,52 60,51 49,51 48,52 46,52 45,51 45,46 46,45 47,45 48,44 53,44 54,43 54,39 53,39 52,40 50,40 49,41 46,41 45,40 45,33" stroke="black" stroke-width="1" /><polygon fill="none" id="3" points="41,57 42,58 42,61 41,62 41,65 42,66 42,67 40,69 39,69 38,68 37,68 35,66 35,63" stroke="black" stroke-width="1" /></svg>