<?xml version="1.0" encoding="utf-8" ?>
<svg baseProfile="full" height="100" version="1.1" width="100" xmlns="http://www.w3.org/2000/svg" xmlns:ev="http://www.w3.org/2001/xml-events" xmlns:xlink="http://www.w3.org/1999/xlink"><defs /><polygon fill="none" id="1" points="36,31 36,35 35,36 35,37 34,38 26,38 26,41 32,41 33,42 33,43 32,44 32,45 31,46 31,47 30,48 30,49 29,50 29,51 28,52 28,53 26,55 26,56 25,57 25,58 27,60 28,60 29,59 29,58 30,57 30,56 37,49 38,49 41,52 41,54 40,55 39,55 37,57 36,57 34,59 34,60 33,61 33,62 32,63 32,69 33,70 33,71 34,71 35,72 36,72 37,73 50,73 51,72 53,72 53,68 51,68 50,69 48,69 47,70 39,70 38,69 37,69 35,67 35,65 36,64 36,63 41,58 42,59 42,63 45,63 45,56 46,55 47,55 48,54 49,54 50,53 52,53 53,52 55,52 55,50 54,49 54,48 52,48 51,49 50,49 49,50 48,50 47,51 46,51 45,52 44,51 44,50 43,49 43,48 41,46 37,46 36,47 35,46 35,45 36,44 36,42 37,41 43,41 44,40 47,40 47,36 45,36 44,37 41,37 40,38 39,38 38,37 39,36 39,34 40,33 40,31" stroke="black" stroke-width="1" /></svg>