<?xml version="1.0" encoding="utf-8" ?>
<svg baseProfile="full" height="100" version="1.1" width="100" xmlns="http://www.w3.org/2000/svg" xmlns:ev="http://www.w3.org/2001/xml-events" xmlns:xlink="http://www.w3.org/1999/xlink"><defs /><polygon fill="none" id="1" points="41,31 41,33 40,34 40,37 39,38 30,38 30,41 36,41 37,42 37,43 36,44 36,45 35,46 35,47 33,49 33,50 32,51 32,52 31,53 31,54 28,57 28,58 30,60 32,60 32,59 33,58 33,57 40,50 41,50 42,49 43,49 46,52 46,54 45,55 44,55 43,56 42,56 37,61 37,62 36,63 36,69 39,72 41,72 42,73 56,73 57,72 60,72 60,71 59,70 59,68 57,68 56,69 54,69 53,70 44,70 43,69 41,69 40,68 40,67 39,66 40,65 40,64 46,58 47,59 47,63 51,63 51,60 50,59 50,56 51,55 53,55 54,54 56,54 57,53 58,53 59,52 62,52 62,50 61,49 61,48 58,48 57,49 56,49 55,50 54,50 53,51 52,51 51,52 50,52 49,51 49,49 46,46 41,46 40,45 40,43 42,41 48,41 49,40 53,40 53,36 51,36 50,37 46,37 45,38 44,38 43,37 43,36 44,35 44,34 45,33 45,31" stroke="black" stroke-width="1" /><polygon fill="none" id="2" points="39,46 40,45 41,46 40,47" stroke="black" stroke-width="1" /></svg>