<?xml version="1.0" encoding="utf-8" ?>
<svg baseProfile="full" height="100" version="1.1" width="100" xmlns="http://www.w3.org/2000/svg" xmlns:ev="http://www.w3.org/2001/xml-events" xmlns:xlink="http://www.w3.org/1999/xlink"><defs /><polygon fill="none" id="1" points="46,31 45,32 45,34 44,35 44,37 43,38 33,38 33,41 40,41 41,42 41,43 40,44 40,45 38,47 38,48 37,49 37,50 35,52 35,53 32,56 32,59 33,59 34,60 35,60 36,59 36,58 44,50 45,50 46,49 48,49 51,52 51,54 50,55 49,55 48,56 47,56 45,58 44,58 41,61 41,62 40,63 40,69 43,72 46,72 47,73 62,73 63,72 66,72 66,68 64,68 63,69 60,69 59,70 49,70 48,69 46,69 44,67 44,64 48,60 49,60 51,58 52,59 52,63 56,63 56,56 57,55 59,55 60,54 62,54 63,53 65,53 66,52 68,52 68,49 67,48 65,48 64,49 62,49 61,50 60,50 59,51 57,51 56,52 54,50 54,49 51,46 46,46 45,47 44,47 43,46 44,45 44,44 45,43 45,42 46,41 54,41 55,40 59,40 59,36 56,36 55,37 51,37 50,38 49,38 48,37 48,36 49,35 49,34 50,33 50,31" stroke="black" stroke-width="1" /></svg>