<?xml version="1.0" encoding="utf-8" ?>
<svg baseProfile="full" height="100" version="1.1" width="100" xmlns="http://www.w3.org/2000/svg" xmlns:ev="http://www.w3.org/2001/xml-events" xmlns:xlink="http://www.w3.org/1999/xlink"><defs /><polygon fill="none" id="1" points="50,31 50,33 49,34 49,35 48,36 48,37 47,38 36,38 36,41 45,41 46,42 44,44 44,45 42,47 42,48 40,50 40,51 35,56 35,59 36,59 37,60 39,60 39,59 47,51 48,51 49,50 50,50 51,49 53,49 57,53 55,55 54,55 53,56 52,56 51,57 50,57 48,59 47,59 46,60 46,61 44,63 44,69 46,71 47,71 48,72 50,72 51,73 68,73 69,72 73,72 73,69 72,68 70,68 69,69 66,69 65,70 54,70 53,69 50,69 48,67 48,65 53,60 54,60 56,58 57,58 58,59 58,60 57,61 57,63 62,63 62,56 63,55 65,55 66,54 68,54 69,53 71,53 72,52 75,52 75,49 74,48 71,48 70,49 69,49 68,50 66,50 65,51 63,51 62,52 61,52 60,51 60,50 59,49 59,48 58,47 57,47 56,46 50,46 49,47 48,47 47,46 49,44 49,43 51,41 59,41 60,40 65,40 65,36 62,36 61,37 56,37 55,38 54,38 53,37 53,36 54,35 54,34 55,33 55,31" stroke="black" stroke-width="1" /></svg>