<?xml version="1.0" encoding="utf-8" ?>
<svg baseProfile="full" height="100" version="1.1" width="100" xmlns="http://www.w3.org/2000/svg" xmlns:ev="http://www.w3.org/2001/xml-events" xmlns:xlink="http://www.w3.org/1999/xlink"><defs /><polygon fill="none" id="1" points="55,31 54,32 54,34 53,35 53,37 52,38 40,38 40,41 49,41 50,42 48,44 48,45 46,47 46,48 42,52 42,53 38,57 38,58 40,60 42,60 43,59 43,58 45,56 46,56 51,51 52,51 53,50 55,50 56,49 58,49 62,53 60,55 59,55 58,56 56,56 54,58 53,58 48,63 48,69 50,71 51,71 52,72 55,72 56,73 75,73 76,72 79,72 79,68 77,68 76,69 72,69 71,70 58,70 57,69 55,69 52,66 53,65 53,64 56,61 57,61 58,60 59,60 61,58 62,58 63,59 63,61 62,62 62,63 68,63 68,62 67,61 67,56 68,55 71,55 72,54 74,54 75,53 78,53 79,52 82,52 82,49 81,48 78,48 77,49 75,49 74,50 72,50 71,51 69,51 68,52 67,52 65,50 65,49 63,47 62,47 61,46 55,46 54,47 53,47 52,46 53,45 53,44 56,41 65,41 66,40 71,40 71,36 68,36 67,37 61,37 60,38 58,38 57,37 59,35 59,34 60,33 60,31" stroke="black" stroke-width="1" /></svg>