<?xml version="1.0" encoding="utf-8" ?>
<svg baseProfile="full" height="100" version="1.1" width="100" xmlns="http://www.w3.org/2000/svg" xmlns:ev="http://www.w3.org/2001/xml-events" xmlns:xlink="http://www.w3.org/1999/xlink"><defs /><polygon fill="none" id="1" points="37,32 37,36 36,37 36,38 35,39 27,39 27,40 33,40 34,41 34,44 33,45 33,46 32,47 32,48 31,49 31,50 30,51 30,52 29,53 29,54 27,56 27,58 28,58 28,57 29,56 29,55 36,48 39,48 42,51 42,52 43,53 43,54 41,56 40,56 38,58 37,58 35,60 35,61 34,62 34,63 33,64 33,68 34,69 34,70 35,70 36,71 37,71 38,72 49,72 50,71 52,71 52,69 51,70 49,70 48,71 38,71 37,70 36,70 34,68 34,64 35,63 35,62 40,57 42,57 43,58 43,62 44,62 44,55 45,54 46,54 47,53 48,53 49,52 51,52 52,51 54,51 53,50 53,49 52,50 51,50 50,51 49,51 48,52 47,52 46,53 44,53 43,52 43,51 42,50 42,49 40,47 38,47 37,48 36,48 35,49 33,49 32,48 32,47 34,45 34,44 35,43 35,41 36,40 42,40 43,39 46,39 46,37 45,38 42,38 41,39 38,39 37,38 37,36 38,35 38,33 39,32" stroke="black" stroke-width="1" /></svg>