<?xml version="1.0" encoding="utf-8" ?>
<svg baseProfile="full" height="100" version="1.1" width="100" xmlns="http://www.w3.org/2000/svg" xmlns:ev="http://www.w3.org/2001/xml-events" xmlns:xlink="http://www.w3.org/1999/xlink"><defs /><polygon fill="none" id="1" points="42,32 42,34 41,35 41,38 40,39 31,39 31,40 38,40 39,41 39,42 38,43 38,44 37,45 37,46 36,47 36,48 34,50 34,51 33,52 33,53 32,54 32,55 30,57 30,58 31,59 31,58 32,57 32,56 39,49 40,49 41,48 44,48 47,51 47,52 48,53 48,54 46,56 45,56 44,57 43,57 38,62 38,63 37,64 37,68 40,71 42,71 43,72 55,72 56,71 58,71 58,69 57,70 55,70 54,71 43,71 42,70 40,70 39,69 39,68 38,67 38,65 39,64 39,63 45,57 47,57 48,58 48,62 50,62 50,61 49,60 49,55 50,54 52,54 53,53 55,53 56,52 57,52 58,51 61,51 60,50 60,49 59,49 58,50 57,50 56,51 55,51 54,52 53,52 52,53 49,53 48,52 48,50 45,47 42,47 41,48 40,48 38,50 37,50 36,49 36,48 37,47 37,46 39,44 39,42 41,40 47,40 48,39 52,39 52,37 51,38 47,38 46,39 43,39 42,38 42,35 43,34 43,33 44,32" stroke="black" stroke-width="1" /></svg>