<?xml version="1.0" encoding="utf-8" ?>
<svg baseProfile="full" height="100" version="1.1" width="100" xmlns="http://www.w3.org/2000/svg" xmlns:ev="http://www.w3.org/2001/xml-events" xmlns:xlink="http://www.w3.org/1999/xlink"><defs /><polygon fill="none" id="1" points="51,32 51,34 50,35 50,36 49,37 49,38 48,39 37,39 37,40 46,40 47,41 47,43 45,45 45,46 43,48 43,49 41,51 41,52 36,57 36,58 37,58 38,59 38,58 46,50 47,50 48,49 49,49 50,48 54,48 58,52 58,54 56,56 55,56 54,57 53,57 52,58 51,58 49,60 48,60 47,61 47,62 45,64 45,68 47,70 48,70 49,71 51,71 52,72 67,72 68,71 72,71 72,70 71,69 70,70 67,70 66,71 53,71 52,70 49,70 47,68 47,64 52,59 53,59 55,57 58,57 59,58 59,61 58,62 61,62 61,58 60,57 60,56 62,54 64,54 65,53 67,53 68,52 70,52 71,51 74,51 74,50 73,49 72,49 71,50 70,50 69,51 67,51 66,52 64,52 63,53 60,53 59,52 59,51 58,50 58,49 57,48 56,48 55,47 51,47 50,48 49,48 48,49 47,49 46,50 45,50 44,49 44,48 46,46 46,45 48,43 48,42 50,40 58,40 59,39 64,39 64,37 63,37 62,38 57,38 56,39 52,39 51,38 51,37 52,36 52,35 53,34 53,33 54,32" stroke="black" stroke-width="1" /></svg>