<?xml version="1.0" encoding="utf-8" ?>
<svg baseProfile="full" height="100" version="1.1" width="100" xmlns="http://www.w3.org/2000/svg" xmlns:ev="http://www.w3.org/2001/xml-events" xmlns:xlink="http://www.w3.org/1999/xlink"><defs /><polygon fill="none" id="1" points="64,37 63,38 63,40 64,40 66,42 67,42 71,46 72,46 74,48 75,48 77,46 77,44 76,43 75,43 72,40 71,40 69,38 68,38 67,37" stroke="black" stroke-width="1" /><polygon fill="none" id="2" points="45,33 45,36 46,37 46,41 45,42 35,42 35,46 42,46 43,45 45,45 46,46 46,53 45,54 44,54 43,55 42,55 41,56 40,56 39,57 38,57 35,60 35,61 34,62 34,67 37,70 38,70 39,71 40,71 41,72 48,72 50,70 50,56 51,55 55,55 56,54 64,54 65,55 66,55 67,56 68,56 69,57 69,58 70,59 70,62 69,63 69,64 68,65 67,65 65,67 63,67 62,68 54,68 54,70 55,71 55,72 62,72 63,71 66,71 67,70 69,70 71,68 72,68 74,66 74,64 75,63 75,58 74,57 74,56 71,53 70,53 69,52 67,52 66,51 53,51 52,52 51,52 50,51 50,46 52,44 58,44 59,43 60,43 60,40 55,40 54,41 51,41 50,40 50,33" stroke="black" stroke-width="1" /><polygon fill="none" id="3" points="45,57 46,58 46,67 44,69 43,69 42,68 41,68 38,65 38,64 39,63 39,62 42,59 43,59" stroke="black" stroke-width="1" /></svg>