<?xml version="1.0" encoding="utf-8" ?>
<svg baseProfile="full" height="100" version="1.1" width="100" xmlns="http://www.w3.org/2000/svg" xmlns:ev="http://www.w3.org/2001/xml-events" xmlns:xlink="http://www.w3.org/1999/xlink"><defs /><polygon fill="none" id="1" points="56,32 55,33 55,35 54,36 54,38 53,39 41,39 41,40 50,40 51,41 51,43 49,45 49,46 47,48 47,49 43,53 43,54 40,57 40,58 41,59 42,58 42,57 44,55 45,55 50,50 51,50 52,49 54,49 55,48 59,48 63,52 63,54 61,56 60,56 59,57 57,57 55,59 54,59 49,64 49,68 51,70 52,70 53,71 56,71 57,72 74,72 75,71 78,71 78,69 77,70 73,70 72,71 57,71 56,70 54,70 51,67 51,65 52,64 52,63 55,60 56,60 57,59 58,59 60,57 63,57 64,58 64,62 66,62 66,55 67,54 70,54 71,53 73,53 74,52 77,52 78,51 81,51 81,50 80,49 79,49 78,50 76,50 75,51 73,51 72,52 70,52 69,53 66,53 64,51 64,50 62,48 61,48 60,47 56,47 55,48 53,48 52,49 51,49 50,50 49,50 48,49 48,48 52,44 52,43 55,40 64,40 65,39 70,39 70,37 69,37 68,38 62,38 61,39 57,39 56,38 56,36 58,34 58,33 59,32" stroke="black" stroke-width="1" /></svg>