<?xml version="1.0" encoding="utf-8" ?>
<svg baseProfile="full" height="100" version="1.1" width="100" xmlns="http://www.w3.org/2000/svg" xmlns:ev="http://www.w3.org/2001/xml-events" xmlns:xlink="http://www.w3.org/1999/xlink"><defs /><polygon fill="none" id="1" points="35,30 35,34 34,35 34,36 33,37 25,37 25,41 31,41 32,42 31,43 31,44 30,45 30,46 29,47 29,48 28,49 28,50 27,51 27,52 25,54 25,55 24,56 24,58 26,60 28,60 29,59 29,58 30,57 30,56 37,49 40,52 40,53 39,54 38,54 36,56 35,56 33,58 33,59 32,60 32,61 31,62 31,69 32,70 32,71 33,71 34,72 35,72 36,73 50,73 51,72 53,72 53,67 50,67 49,68 47,68 46,69 39,69 38,68 37,68 35,66 35,65 36,64 36,63 40,59 41,60 41,63 45,63 45,56 46,55 47,55 48,54 49,54 50,53 52,53 53,52 55,52 55,49 54,48 54,47 51,47 50,48 49,48 48,49 47,49 46,50 45,50 43,48 43,47 41,45 37,45 36,44 36,42 37,41 43,41 44,40 47,40 47,35 44,35 43,36 40,36 39,35 39,34 40,33 40,30" stroke="black" stroke-width="1" /></svg>