<?xml version="1.0" encoding="utf-8" ?>
<svg baseProfile="full" height="100" version="1.1" width="100" xmlns="http://www.w3.org/2000/svg" xmlns:ev="http://www.w3.org/2001/xml-events" xmlns:xlink="http://www.w3.org/1999/xlink"><defs /><polygon fill="none" id="1" points="40,30 40,32 39,33 39,36 38,37 29,37 29,41 35,41 36,42 35,43 35,44 34,45 34,46 32,48 32,49 31,50 31,51 30,52 30,53 27,56 27,58 29,60 32,60 32,59 33,58 33,57 40,50 41,50 42,49 45,52 45,53 44,54 43,54 42,55 41,55 36,60 36,61 35,62 35,69 38,72 40,72 41,73 56,73 57,72 60,72 60,70 59,69 59,67 56,67 55,68 53,68 52,69 44,69 43,68 41,68 40,67 40,64 45,59 46,60 46,63 51,63 51,59 50,58 50,56 51,55 53,55 54,54 56,54 57,53 58,53 59,52 62,52 62,49 61,48 61,47 57,47 56,48 55,48 54,49 53,49 52,50 51,50 50,51 49,50 49,48 46,45 41,45 40,44 40,43 42,41 48,41 49,40 53,40 53,35 50,35 49,36 45,36 44,35 44,34 45,33 45,30" stroke="black" stroke-width="1" /><polygon fill="none" id="2" points="43,36 44,35 45,36 44,37" stroke="black" stroke-width="1" /></svg>