<?xml version="1.0" encoding="utf-8" ?>
<svg baseProfile="full" height="100" version="1.1" width="100" xmlns="http://www.w3.org/2000/svg" xmlns:ev="http://www.w3.org/2001/xml-events" xmlns:xlink="http://www.w3.org/1999/xlink"><defs /><polygon fill="none" id="1" points="45,30 44,31 44,33 43,34 43,36 42,37 32,37 32,41 39,41 40,42 39,43 39,44 37,46 37,47 36,48 36,49 34,51 34,52 31,55 31,59 32,59 33,60 35,60 36,59 36,58 44,50 45,50 46,49 47,49 50,52 50,53 49,54 48,54 47,55 46,55 44,57 43,57 40,60 40,61 39,62 39,69 42,72 45,72 46,73 62,73 63,72 66,72 66,67 63,67 62,68 59,68 58,69 49,69 48,68 46,68 44,66 44,64 48,60 49,60 50,59 51,60 51,63 56,63 56,56 57,55 59,55 60,54 62,54 63,53 65,53 66,52 68,52 68,48 67,47 64,47 63,48 61,48 60,49 59,49 58,50 55,50 54,49 54,48 51,45 45,45 44,44 45,43 45,42 46,41 54,41 55,40 59,40 59,35 55,35 54,36 50,36 49,35 49,34 50,33 50,30" stroke="black" stroke-width="1" /><polygon fill="none" id="2" points="48,36 49,35 50,36 49,37" stroke="black" stroke-width="1" /></svg>