<?xml version="1.0" encoding="utf-8" ?>
<svg baseProfile="full" height="100" version="1.1" width="100" xmlns="http://www.w3.org/2000/svg" xmlns:ev="http://www.w3.org/2001/xml-events" xmlns:xlink="http://www.w3.org/1999/xlink"><defs /><polygon fill="none" id="1" points="54,30 53,31 53,33 52,34 52,36 51,37 39,37 39,41 47,41 48,42 47,43 47,44 45,46 45,47 41,51 41,52 37,56 37,58 39,60 42,60 43,59 43,58 45,56 46,56 51,51 52,51 53,50 55,50 56,49 57,49 60,52 60,53 59,54 58,54 57,55 55,55 53,57 52,57 47,62 47,69 49,71 50,71 51,72 54,72 55,73 75,73 76,72 79,72 79,67 76,67 75,68 71,68 70,69 58,69 57,68 55,68 53,66 53,64 56,61 57,61 58,60 59,60 61,58 62,59 62,60 61,61 61,63 68,63 68,61 67,60 67,56 68,55 71,55 72,54 74,54 75,53 78,53 79,52 82,52 82,48 81,47 77,47 76,48 74,48 73,49 71,49 70,50 68,50 67,51 65,49 65,48 63,46 62,46 61,45 54,45 53,44 56,41 65,41 66,40 71,40 71,35 67,35 66,36 60,36 59,35 59,34 60,33 60,30" stroke="black" stroke-width="1" /><polygon fill="none" id="2" points="58,36 59,35 60,36 59,37" stroke="black" stroke-width="1" /></svg>