<?xml version="1.0" encoding="utf-8" ?>
<svg baseProfile="full" height="100" version="1.1" width="100" xmlns="http://www.w3.org/2000/svg" xmlns:ev="http://www.w3.org/2001/xml-events" xmlns:xlink="http://www.w3.org/1999/xlink"><defs /><polygon fill="none" id="1" points="49,70 48,71 38,71 48,71 49,70 51,70" stroke="black" stroke-width="1" /><polygon fill="none" id="2" points="36,70" stroke="black" stroke-width="1" /><polygon fill="none" id="3" points="34,69" stroke="black" stroke-width="1" /><polygon fill="none" id="4" points="33,64 33,67" stroke="black" stroke-width="1" /><polygon fill="none" id="5" points="34,62" stroke="black" stroke-width="1" /><polygon fill="none" id="6" points="37,58 35,60" stroke="black" stroke-width="1" /><polygon fill="none" id="7" points="28,55 27,56 27,57 27,56" stroke="black" stroke-width="1" /><polygon fill="none" id="8" points="43,53 43,54 41,56 40,56 42,56 43,57 43,61 43,54 44,53 45,53" stroke="black" stroke-width="1" /><polygon fill="none" id="9" points="47,52" stroke="black" stroke-width="1" /><polygon fill="none" id="10" points="42,51" stroke="black" stroke-width="1" /><polygon fill="none" id="11" points="51,50 50,51 49,51 50,51 51,50 52,50" stroke="black" stroke-width="1" /><polygon fill="none" id="12" points="31,49 31,50 30,51 30,52 29,53 33,49" stroke="black" stroke-width="1" /><polygon fill="none" id="13" points="38,47 39,47 41,49 39,47" stroke="black" stroke-width="1" /><polygon fill="none" id="14" points="36,37 36,38 35,39 27,39 33,39 34,40 34,42 34,40 35,39 41,39 42,38 45,38 42,38 41,39 37,39 36,38" stroke="black" stroke-width="1" /><polygon fill="none" id="15" points="37,32 37,34" stroke="black" stroke-width="1" /></svg>