<?xml version="1.0" encoding="utf-8" ?>
<svg baseProfile="full" height="100" version="1.1" width="100" xmlns="http://www.w3.org/2000/svg" xmlns:ev="http://www.w3.org/2001/xml-events" xmlns:xlink="http://www.w3.org/1999/xlink"><defs /><polygon fill="none" id="1" points="55,70 54,71 43,71 54,71 55,70 57,70" stroke="black" stroke-width="1" /><polygon fill="none" id="2" points="40,70 41,70" stroke="black" stroke-width="1" /><polygon fill="none" id="3" points="43,57 38,62 38,63 37,64 37,67 38,68 37,67 37,64 38,63 38,62" stroke="black" stroke-width="1" /><polygon fill="none" id="4" points="31,56 30,57" stroke="black" stroke-width="1" /><polygon fill="none" id="5" points="48,53 48,54 46,56 45,56 47,56 48,57 48,61 49,61 48,60 48,54 49,53 51,53" stroke="black" stroke-width="1" /><polygon fill="none" id="6" points="59,49 58,50 57,50 56,51 55,51 54,52 53,52 54,52 55,51 56,51 57,50 59,50" stroke="black" stroke-width="1" /><polygon fill="none" id="7" points="35,49 34,50 34,51 33,52 33,53 32,54 36,50" stroke="black" stroke-width="1" /><polygon fill="none" id="8" points="42,47 44,47 47,50 47,51 47,50 44,47" stroke="black" stroke-width="1" /><polygon fill="none" id="9" points="38,43" stroke="black" stroke-width="1" /><polygon fill="none" id="10" points="41,35 41,38 40,39 31,39 38,39 39,40 40,39 46,39 47,38 51,38 47,38 46,39 42,39 41,38" stroke="black" stroke-width="1" /><polygon fill="none" id="11" points="42,32 42,33" stroke="black" stroke-width="1" /></svg>