<?xml version="1.0" encoding="utf-8" ?>
<svg baseProfile="full" height="100" version="1.1" width="100" xmlns="http://www.w3.org/2000/svg" xmlns:ev="http://www.w3.org/2001/xml-events" xmlns:xlink="http://www.w3.org/1999/xlink"><defs /><polygon fill="none" id="1" points="61,70 60,71 48,71 60,71 61,70 64,70" stroke="black" stroke-width="1" /><polygon fill="none" id="2" points="45,59 42,62 42,63 41,64 41,67 44,70 46,70 44,70 42,68 42,62" stroke="black" stroke-width="1" /><polygon fill="none" id="3" points="48,57 47,58" stroke="black" stroke-width="1" /><polygon fill="none" id="4" points="39,48 39,49 38,50 38,51 36,53 36,54 33,57 34,57 34,56 40,50 39,49" stroke="black" stroke-width="1" /><polygon fill="none" id="5" points="47,47 49,47 52,50 52,51 53,52 53,54 51,56 50,56 53,56 54,57 54,59 53,60 53,61 54,61 54,54 55,53 57,53 58,52 60,52 61,51 63,51 64,50 66,50 63,50 62,51 61,51 60,52 58,52 57,53 54,53 52,51 52,50 49,47" stroke="black" stroke-width="1" /><polygon fill="none" id="6" points="41,45" stroke="black" stroke-width="1" /><polygon fill="none" id="7" points="42,43" stroke="black" stroke-width="1" /><polygon fill="none" id="8" points="47,32 46,33 46,35 45,36 45,38 44,39 34,39 42,39 43,40 43,41 43,40 44,39 52,39 53,38 57,38 57,37 56,38 52,38 51,39 46,39 45,38 45,36 46,35 46,34 47,33" stroke="black" stroke-width="1" /></svg>