<?xml version="1.0" encoding="utf-8" ?>
<svg baseProfile="full" height="100" version="1.1" width="100" xmlns="http://www.w3.org/2000/svg" xmlns:ev="http://www.w3.org/2001/xml-events" xmlns:xlink="http://www.w3.org/1999/xlink"><defs /><polygon fill="none" id="1" points="49,70 51,70 52,71 66,71 67,70 71,70 67,70 66,71 52,71 51,70" stroke="black" stroke-width="1" /><polygon fill="none" id="2" points="53,57 52,58 51,58 49,60 48,60 47,61 47,62 45,64 45,67 47,69 46,68 46,63 51,58 52,58" stroke="black" stroke-width="1" /><polygon fill="none" id="3" points="43,48 43,49 41,51 41,52 36,57 37,57 44,50 43,49" stroke="black" stroke-width="1" /><polygon fill="none" id="4" points="51,47 54,47 58,51 58,54 56,56 55,56 58,56 59,57 59,61 60,61 60,58 59,57 59,55 61,53 63,53 64,52 66,52 67,51 69,51 70,50 73,50 72,49 71,50 70,50 69,51 67,51 66,52 64,52 63,53 59,53 58,52 58,51 57,50 57,49 56,48 55,48 54,47" stroke="black" stroke-width="1" /><polygon fill="none" id="5" points="45,45" stroke="black" stroke-width="1" /><polygon fill="none" id="6" points="51,32 51,34 50,35 50,36 49,37 49,38 48,39 37,39 46,39 47,40 47,42 47,41 49,39 57,39 58,38 63,38 63,37 62,38 57,38 56,39 51,39 50,38 50,36 51,35 51,34 52,33 52,32" stroke="black" stroke-width="1" /></svg>