<?xml version="1.0" encoding="utf-8" ?>
<svg baseProfile="full" height="100" version="1.1" width="100" xmlns="http://www.w3.org/2000/svg" xmlns:ev="http://www.w3.org/2001/xml-events" xmlns:xlink="http://www.w3.org/1999/xlink"><defs /><polygon fill="none" id="1" points="70,37 69,38 68,38 68,40 69,40 70,41 71,41 72,42 73,42 75,44 76,44 80,48 82,48 84,46 84,44 83,43 82,43 80,41 79,41 77,39 76,39 75,38 74,38 73,37" stroke="black" stroke-width="1" /><polygon fill="none" id="2" points="49,33 49,35 50,36 50,41 49,42 38,42 38,45 39,46 46,46 47,45 49,45 50,46 50,53 49,54 48,54 47,55 45,55 44,56 43,56 39,60 38,60 38,61 37,62 37,67 39,69 40,69 42,71 44,71 45,72 53,72 54,71 54,56 55,55 60,55 61,54 69,54 70,55 73,55 77,59 77,61 76,62 76,63 73,66 72,66 71,67 69,67 68,68 59,68 59,70 60,71 60,72 68,72 69,71 72,71 73,70 75,70 76,69 77,69 81,65 81,63 82,62 82,58 80,56 80,55 79,54 78,54 77,53 76,53 75,52 73,52 72,51 58,51 57,52 55,52 54,51 54,46 55,45 56,45 57,44 64,44 65,43 65,40 60,40 59,41 55,41 54,40 54,33" stroke="black" stroke-width="1" /><polygon fill="none" id="3" points="49,57 50,58 50,67 48,69 46,69 45,68 44,68 42,66 42,63 46,59 47,59" stroke="black" stroke-width="1" /></svg>