<?xml version="1.0" encoding="utf-8" ?>
<svg baseProfile="full" height="100" version="1.1" width="100" xmlns="http://www.w3.org/2000/svg" xmlns:ev="http://www.w3.org/2001/xml-events" xmlns:xlink="http://www.w3.org/1999/xlink"><defs /><polygon fill="none" id="1" points="73,70 72,71 57,71 73,71 74,70 77,70" stroke="black" stroke-width="1" /><polygon fill="none" id="2" points="57,57 55,59 54,59 49,64 49,67 51,69 52,69 53,70 55,70 53,70 50,67 50,64 51,63 51,62 54,59 55,59 56,58 57,58 58,57" stroke="black" stroke-width="1" /><polygon fill="none" id="3" points="53,48" stroke="black" stroke-width="1" /><polygon fill="none" id="4" points="47,48 47,49 43,53 43,54 40,57 41,57 41,56 43,54 44,54 48,50 47,49" stroke="black" stroke-width="1" /><polygon fill="none" id="5" points="56,47 59,47 63,51 63,54 61,56 60,56 63,56 64,57 64,61 65,61 65,54 66,53 69,53 70,52 72,52 73,51 76,51 77,50 80,50 79,49 78,50 76,50 75,51 73,51 72,52 70,52 69,53 65,53 63,51 63,50 61,48 60,48 59,47" stroke="black" stroke-width="1" /><polygon fill="none" id="6" points="56,32 55,33 55,35 54,36 54,38 53,39 41,39 50,39 51,40 51,43 49,45 51,43 51,42 54,39 63,39 64,38 69,38 69,37 68,38 62,38 61,39 56,39 55,38 55,35 57,33 57,32" stroke="black" stroke-width="1" /></svg>