<?xml version="1.0" encoding="utf-8" ?>
<svg baseProfile="full" height="100" version="1.1" width="100" xmlns="http://www.w3.org/2000/svg" xmlns:ev="http://www.w3.org/2001/xml-events" xmlns:xlink="http://www.w3.org/1999/xlink"><defs /><polygon fill="none" id="1" points="39,32 38,33 38,35 37,36 37,38 36,39 36,40 35,41 35,42 34,43 34,45 33,46 33,48 32,49 32,50 31,51 31,53 30,54 30,55 29,56 29,58 28,59 28,60 27,61 27,63 26,64 26,66 25,67 25,68 24,69 24,70 25,71 27,71 27,69 28,68 28,66 29,65 29,64 30,63 30,62 31,61 31,60 32,59 32,58 37,53 39,53 40,54 40,55 41,56 41,66 42,67 42,69 44,71 48,71 49,70 50,70 53,67 53,66 54,65 54,64 55,63 55,62 56,61 56,60 54,58 53,59 53,62 52,63 52,64 50,66 50,67 48,69 46,69 44,67 44,66 43,65 43,54 42,53 42,52 41,51 37,51 34,54 33,53 33,52 34,51 34,49 35,48 35,47 36,46 36,45 37,44 37,43 38,42 38,40 39,39 39,38 40,37 40,36 41,35 41,34" stroke="black" stroke-width="1" /></svg>