<?xml version="1.0" encoding="utf-8" ?>
<svg baseProfile="full" height="100" version="1.1" width="100" xmlns="http://www.w3.org/2000/svg" xmlns:ev="http://www.w3.org/2001/xml-events" xmlns:xlink="http://www.w3.org/1999/xlink"><defs /><polygon fill="none" id="1" points="49,32 48,33 48,34 47,35 47,36 46,37 46,38 45,39 45,40 44,41 44,42 43,43 43,44 42,45 42,46 41,47 41,48 40,49 40,50 39,51 39,52 38,53 38,54 37,55 37,56 36,57 36,58 35,59 35,60 34,61 34,62 33,63 33,65 32,66 32,67 31,68 31,69 30,70 31,71 33,71 34,70 34,69 35,68 35,67 36,66 36,65 37,64 37,63 38,62 38,61 41,58 41,57 43,55 44,55 46,53 49,53 51,55 51,60 52,61 52,67 53,68 53,69 54,70 55,70 56,71 61,71 62,70 63,70 67,66 67,65 69,63 69,62 70,61 70,60 68,58 67,58 67,60 66,61 66,62 65,63 65,64 60,69 57,69 55,67 55,65 54,64 54,55 53,54 53,53 51,51 47,51 46,52 45,52 44,53 43,53 42,52 42,51 43,50 43,49 44,48 44,47 46,45 46,44 47,43 47,42 48,41 48,40 49,39 49,38 51,36 51,35 52,34 51,33 50,33" stroke="black" stroke-width="1" /><polygon fill="none" id="2" points="41,53 42,52 43,53 42,54" stroke="black" stroke-width="1" /></svg>