<?xml version="1.0" encoding="utf-8" ?>
<svg baseProfile="full" height="100" version="1.1" width="100" xmlns="http://www.w3.org/2000/svg" xmlns:ev="http://www.w3.org/2001/xml-events" xmlns:xlink="http://www.w3.org/1999/xlink"><defs /><polygon fill="none" id="1" points="58,33 57,34 57,35 55,37 55,38 54,39 54,40 53,41 53,42 51,44 51,45 49,47 49,48 48,49 48,50 47,51 47,52 45,54 45,55 43,57 43,58 42,59 42,60 41,61 41,62 40,63 40,64 38,66 38,67 37,68 37,69 36,70 37,70 38,71 40,71 41,70 41,69 42,68 42,67 43,66 43,65 46,62 46,61 52,55 53,55 54,54 55,54 56,53 59,53 61,55 61,57 62,58 62,67 65,70 66,70 67,71 73,71 74,70 75,70 76,69 77,69 83,63 83,62 84,61 84,60 83,60 81,58 80,58 80,60 79,61 79,62 78,63 78,64 75,67 74,67 72,69 68,69 66,67 66,65 65,64 65,55 64,54 64,53 63,52 62,52 61,51 56,51 55,52 54,52 53,53 52,53 51,54 50,54 49,53 52,50 52,49 53,48 53,47 55,45 55,44 58,41 58,40 59,39 59,38 63,34 62,34 61,33" stroke="black" stroke-width="1" /></svg>