<?xml version="1.0" encoding="utf-8" ?>
<svg baseProfile="full" height="100" version="1.1" width="100" xmlns="http://www.w3.org/2000/svg" xmlns:ev="http://www.w3.org/2001/xml-events" xmlns:xlink="http://www.w3.org/1999/xlink"><defs /><polygon fill="none" id="1" points="44,32 43,33 43,34 42,35 42,37 41,38 41,39 40,40 40,41 39,42 39,43 38,44 38,46 37,47 37,48 36,49 36,50 35,51 35,52 34,53 34,54 33,55 33,57 32,58 32,59 31,60 31,62 30,63 30,64 29,65 29,66 28,67 28,69 27,70 28,71 30,71 30,70 31,69 31,67 32,66 32,65 33,64 33,63 34,62 34,61 36,59 36,58 40,54 41,54 42,53 44,53 46,55 46,64 47,65 47,68 50,71 54,71 55,70 56,70 60,66 60,65 62,63 62,62 63,61 63,60 61,58 60,58 60,60 59,61 59,63 58,64 58,65 54,69 51,69 50,68 50,67 49,66 49,57 48,56 48,53 46,51 42,51 41,52 40,52 38,54 37,53 37,52 38,51 38,50 39,49 39,48 40,47 40,46 41,45 41,44 42,43 42,42 43,41 43,40 44,39 44,38 46,36 46,35 47,34 46,34" stroke="black" stroke-width="1" /></svg>