<?xml version="1.0" encoding="utf-8" ?>
<svg baseProfile="full" height="100" version="1.1" width="100" xmlns="http://www.w3.org/2000/svg" xmlns:ev="http://www.w3.org/2001/xml-events" xmlns:xlink="http://www.w3.org/1999/xlink"><defs /><polygon fill="none" id="1" points="53,33 53,34 52,35 52,36 50,38 50,39 49,40 49,41 47,43 47,44 46,45 46,46 45,47 45,48 44,49 44,50 43,51 43,52 42,53 42,54 41,55 41,56 40,57 40,58 38,60 38,61 37,62 37,63 36,64 36,65 35,66 35,67 34,68 34,69 33,70 34,70 35,71 37,71 37,70 38,69 38,68 39,67 39,66 41,64 41,63 42,62 42,61 49,54 50,54 51,53 54,53 56,55 56,59 57,60 57,67 58,68 58,69 59,70 60,70 61,71 67,71 68,70 69,70 71,68 72,68 73,67 73,66 76,63 76,62 77,61 77,60 76,60 74,58 74,59 73,60 73,61 72,62 72,63 66,69 63,69 60,66 60,57 59,56 59,54 56,51 51,51 50,52 49,52 47,54 46,54 45,53 46,52 46,51 48,49 48,48 50,46 50,45 51,44 51,43 53,41 53,40 54,39 54,38 56,36 56,35 57,34 56,33" stroke="black" stroke-width="1" /></svg>