<?xml version="1.0" encoding="utf-8" ?>
<svg baseProfile="full" height="100" version="1.1" width="100" xmlns="http://www.w3.org/2000/svg" xmlns:ev="http://www.w3.org/2001/xml-events" xmlns:xlink="http://www.w3.org/1999/xlink"><defs /><polygon fill="none" id="1" points="47,38 47,39 54,46 54,47 54,46 55,45 48,38" stroke="black" stroke-width="1" /><polygon fill="none" id="2" points="34,34 34,42 33,43 27,43 27,45 30,45 31,44 33,44 34,45 34,54 32,56 31,56 27,60 27,61 26,62 26,67 29,70 30,70 31,71 34,71 35,70 35,55 36,54 39,54 40,53 47,53 48,54 49,54 52,57 52,63 51,64 51,65 48,68 47,68 46,69 40,69 41,70 41,71 44,71 45,70 47,70 48,69 49,69 52,66 52,65 53,64 53,57 52,56 52,55 51,54 50,54 49,53 48,53 47,52 40,52 39,53 36,53 35,52 35,45 37,43 42,43 42,41 41,41 40,42 36,42 35,41 35,34" stroke="black" stroke-width="1" /><polygon fill="none" id="3" points="32,56 33,56 34,57 34,69 33,70 30,70 27,67 27,62 28,61 28,60" stroke="black" stroke-width="1" /></svg>