<?xml version="1.0" encoding="utf-8" ?>
<svg baseProfile="full" height="100" version="1.1" width="100" xmlns="http://www.w3.org/2000/svg" xmlns:ev="http://www.w3.org/2001/xml-events" xmlns:xlink="http://www.w3.org/1999/xlink"><defs /><polygon fill="none" id="1" points="39,32 38,33 38,35 37,36 37,38 36,39 36,40 35,41 35,42 34,43 34,45 33,46 33,48 32,49 32,50 31,51 31,53 30,54 30,55 29,56 29,58 28,59 28,60 27,61 27,63 26,64 26,66 25,67 25,68 24,69 24,71 25,72 28,72 28,70 29,69 29,67 30,66 30,65 31,64 31,63 32,62 32,61 33,60 33,59 38,54 39,54 40,55 40,56 41,57 41,67 42,68 42,70 44,72 49,72 50,71 51,71 54,68 54,67 55,66 55,65 56,64 56,63 57,62 57,60 55,58 54,58 53,59 53,62 52,63 52,64 50,66 50,67 48,69 47,69 45,67 45,66 44,65 44,54 43,53 43,52 42,51 37,51 36,52 35,51 35,50 36,49 36,48 37,47 37,46 38,45 38,44 39,43 39,41 40,40 40,39 41,38 41,37 42,36 42,34 40,32" stroke="black" stroke-width="1" /></svg>