<?xml version="1.0" encoding="utf-8" ?>
<svg baseProfile="full" height="100" version="1.1" width="100" xmlns="http://www.w3.org/2000/svg" xmlns:ev="http://www.w3.org/2001/xml-events" xmlns:xlink="http://www.w3.org/1999/xlink"><defs /><polygon fill="none" id="1" points="44,32 43,33 43,34 42,35 42,37 41,38 41,39 40,40 40,41 39,42 39,43 38,44 38,46 37,47 37,48 36,49 36,50 35,51 35,52 34,53 34,54 33,55 33,57 32,58 32,59 31,60 31,62 30,63 30,64 29,65 29,66 28,67 28,69 27,70 27,71 28,72 31,72 31,71 32,70 32,68 33,67 33,66 34,65 34,64 35,63 35,62 37,60 37,59 41,55 42,55 43,54 44,54 46,56 46,65 47,66 47,69 50,72 55,72 56,71 57,71 61,67 61,66 63,64 63,63 64,62 64,60 62,58 60,58 60,60 59,61 59,63 58,64 58,65 54,69 52,69 51,68 51,67 50,66 50,57 49,56 49,53 47,51 42,51 41,52 40,52 39,51 40,50 40,49 41,48 41,47 42,46 42,45 43,44 43,43 44,42 44,41 45,40 45,39 47,37 47,36 48,35 48,34 47,34 45,32" stroke="black" stroke-width="1" /></svg>