<?xml version="1.0" encoding="utf-8" ?>
<svg baseProfile="full" height="100" version="1.1" width="100" xmlns="http://www.w3.org/2000/svg" xmlns:ev="http://www.w3.org/2001/xml-events" xmlns:xlink="http://www.w3.org/1999/xlink"><defs /><polygon fill="none" id="1" points="49,32 48,33 48,34 47,35 47,36 46,37 46,38 45,39 45,40 44,41 44,42 43,43 43,44 42,45 42,46 41,47 41,48 40,49 40,50 39,51 39,52 38,53 38,54 37,55 37,56 36,57 36,58 35,59 35,60 34,61 34,62 33,63 33,65 32,66 32,67 31,68 31,69 30,70 30,71 31,72 34,72 35,71 35,70 36,69 36,68 37,67 37,66 38,65 38,64 39,63 39,62 42,59 42,58 44,56 45,56 47,54 49,54 51,56 51,61 52,62 52,68 53,69 53,70 54,71 55,71 56,72 62,72 63,71 64,71 68,67 68,66 70,64 70,63 71,62 71,60 69,58 67,58 67,60 66,61 66,62 65,63 65,64 60,69 58,69 56,67 56,65 55,64 55,55 54,54 54,53 52,51 47,51 46,52 45,52 44,51 44,50 45,49 45,48 47,46 47,45 48,44 48,43 49,42 49,41 50,40 50,39 52,37 52,36 53,35 53,34 52,33 51,33 50,32" stroke="black" stroke-width="1" /><polygon fill="none" id="2" points="43,52 44,51 45,52 44,53" stroke="black" stroke-width="1" /></svg>