<?xml version="1.0" encoding="utf-8" ?>
<svg baseProfile="full" height="100" version="1.1" width="100" xmlns="http://www.w3.org/2000/svg" xmlns:ev="http://www.w3.org/2001/xml-events" xmlns:xlink="http://www.w3.org/1999/xlink"><defs /><polygon fill="none" id="1" points="53,33 53,34 52,35 52,36 50,38 50,39 49,40 49,41 47,43 47,44 46,45 46,46 45,47 45,48 44,49 44,50 43,51 43,52 42,53 42,54 41,55 41,56 40,57 40,58 38,60 38,61 37,62 37,63 36,64 36,65 35,66 35,67 34,68 34,69 33,70 33,71 34,71 35,72 38,72 38,71 39,70 39,69 40,68 40,67 42,65 42,64 43,63 43,62 50,55 51,55 52,54 54,54 56,56 56,60 57,61 57,68 58,69 58,70 59,71 60,71 61,72 68,72 69,71 70,71 72,69 73,69 74,68 74,67 77,64 77,63 78,62 78,60 77,60 75,58 74,58 74,59 73,60 73,61 72,62 72,63 66,69 64,69 61,66 61,57 60,56 60,54 57,51 51,51 50,52 49,52 48,51 49,50 49,49 51,47 51,46 52,45 52,44 54,42 54,41 55,40 55,39 57,37 57,36 58,35 58,34 57,33" stroke="black" stroke-width="1" /><polygon fill="none" id="2" points="47,52 48,51 49,52 48,53" stroke="black" stroke-width="1" /></svg>