<?xml version="1.0" encoding="utf-8" ?>
<svg baseProfile="full" height="100" version="1.1" width="100" xmlns="http://www.w3.org/2000/svg" xmlns:ev="http://www.w3.org/2001/xml-events" xmlns:xlink="http://www.w3.org/1999/xlink"><defs /><polygon fill="none" id="1" points="58,33 57,34 57,35 55,37 55,38 54,39 54,40 53,41 53,42 51,44 51,45 49,47 49,48 48,49 48,50 47,51 47,52 45,54 45,55 43,57 43,58 42,59 42,60 41,61 41,62 40,63 40,64 38,66 38,67 37,68 37,69 36,70 36,71 37,71 38,72 41,72 42,71 42,70 43,69 43,68 44,67 44,66 47,63 47,62 53,56 54,56 55,55 56,55 57,54 59,54 61,56 61,58 62,59 62,68 65,71 66,71 67,72 74,72 75,71 76,71 77,70 78,70 84,64 84,63 85,62 85,60 84,60 82,58 80,58 80,60 79,61 79,62 78,63 78,64 75,67 74,67 72,69 69,69 67,67 67,65 66,64 66,55 65,54 65,53 64,52 63,52 62,51 56,51 55,52 54,52 53,51 53,50 54,49 54,48 56,46 56,45 59,42 59,41 60,40 60,39 64,35 64,34 63,34 62,33" stroke="black" stroke-width="1" /><polygon fill="none" id="2" points="52,52 53,51 54,52 53,53" stroke="black" stroke-width="1" /></svg>