<?xml version="1.0" encoding="utf-8" ?>
<svg baseProfile="full" height="100" version="1.1" width="100" xmlns="http://www.w3.org/2000/svg" xmlns:ev="http://www.w3.org/2001/xml-events" xmlns:xlink="http://www.w3.org/1999/xlink"><defs /><polygon fill="none" id="1" points="39,34 39,36 38,37 38,39 37,40 37,41 36,42 36,43 35,44 35,46 34,47 34,49 33,50 33,51 32,52 32,54 31,55 31,56 30,57 30,59 29,60 29,61 28,62 28,64 27,65 27,67 26,68 26,69 25,70 26,71 27,71 27,69 28,68 28,66 29,65 29,64 30,63 30,62 31,61 31,60 32,59 32,58 37,53 40,53 41,54 41,55 42,56 42,66 43,67 43,69 45,71 48,71 49,70 50,70 53,67 53,66 54,65 54,64 55,63 55,62 56,61 55,60 54,60 54,63 53,64 53,65 51,67 51,68 49,70 46,70 44,68 44,67 43,66 43,55 42,54 42,53 41,52 38,52 35,55 34,55 33,54 33,52 34,51 34,49 35,48 35,47 36,46 36,45 37,44 37,43 38,42 38,40 39,39 39,38 40,37 40,36 41,35 40,34" stroke="black" stroke-width="1" /></svg>