<?xml version="1.0" encoding="utf-8" ?>
<svg baseProfile="full" height="100" version="1.1" width="100" xmlns="http://www.w3.org/2000/svg" xmlns:ev="http://www.w3.org/2001/xml-events" xmlns:xlink="http://www.w3.org/1999/xlink"><defs /><polygon fill="none" id="1" points="44,34 44,35 43,36 43,38 42,39 42,40 41,41 41,42 40,43 40,44 39,45 39,47 38,48 38,49 37,50 37,51 36,52 36,53 35,54 35,55 34,56 34,58 33,59 33,60 32,61 32,63 31,64 31,65 30,66 30,67 29,68 29,71 30,71 30,70 31,69 31,67 32,66 32,65 33,64 33,63 34,62 34,61 36,59 36,58 40,54 41,54 42,53 45,53 47,55 47,64 48,65 48,68 51,71 54,71 55,70 56,70 60,66 60,65 62,63 62,62 63,61 61,59 61,61 60,62 60,64 59,65 59,66 55,70 51,70 50,69 50,68 49,67 49,58 48,57 48,54 46,52 43,52 42,53 41,53 39,55 38,55 37,54 37,52 38,51 38,50 39,49 39,48 40,47 40,46 41,45 41,44 42,43 42,42 43,41 43,40 44,39 44,38 46,36 46,35 45,34" stroke="black" stroke-width="1" /></svg>