<?xml version="1.0" encoding="utf-8" ?>
<svg baseProfile="full" height="100" version="1.1" width="100" xmlns="http://www.w3.org/2000/svg" xmlns:ev="http://www.w3.org/2001/xml-events" xmlns:xlink="http://www.w3.org/1999/xlink"><defs /><polygon fill="none" id="1" points="49,34 49,35 48,36 48,37 47,38 47,39 46,40 46,41 45,42 45,43 44,44 44,45 43,46 43,47 42,48 42,49 41,50 41,51 40,52 40,53 39,54 39,55 38,56 38,57 37,58 37,59 36,60 36,61 35,62 35,63 34,64 34,66 33,67 33,68 32,69 32,71 33,71 34,70 34,69 35,68 35,67 36,66 36,65 37,64 37,63 38,62 38,61 41,58 41,57 43,55 44,55 46,53 50,53 52,55 52,60 53,61 53,67 54,68 54,69 55,70 56,70 57,71 61,71 62,70 63,70 67,66 67,65 69,63 69,62 70,61 68,59 68,61 67,62 67,63 66,64 66,65 61,70 57,70 55,68 55,66 54,65 54,56 53,55 53,54 51,52 48,52 47,53 46,53 45,54 44,54 43,55 42,55 41,54 41,53 42,52 42,51 43,50 43,49 44,48 44,47 46,45 46,44 47,43 47,42 48,41 48,40 49,39 49,38 51,36 51,34" stroke="black" stroke-width="1" /></svg>