<?xml version="1.0" encoding="utf-8" ?>
<svg baseProfile="full" height="100" version="1.1" width="100" xmlns="http://www.w3.org/2000/svg" xmlns:ev="http://www.w3.org/2001/xml-events" xmlns:xlink="http://www.w3.org/1999/xlink"><defs /><polygon fill="none" id="1" points="54,34 54,35 53,36 53,37 51,39 51,40 50,41 50,42 48,44 48,45 47,46 47,47 46,48 46,49 45,50 45,51 44,52 44,53 43,54 43,55 42,56 42,57 41,58 41,59 39,61 39,62 38,63 38,64 37,65 37,66 36,67 36,68 35,69 35,70 36,71 37,71 37,70 38,69 38,68 39,67 39,66 41,64 41,63 42,62 42,61 49,54 50,54 51,53 55,53 57,55 57,59 58,60 58,67 59,68 59,69 60,70 61,70 62,71 67,71 68,70 69,70 71,68 72,68 73,67 73,66 76,63 76,62 77,61 76,61 75,60 74,61 74,62 73,63 73,64 67,70 63,70 60,67 60,58 59,57 59,55 56,52 52,52 51,53 50,53 48,55 46,55 45,54 45,53 46,52 46,51 48,49 48,48 50,46 50,45 51,44 51,43 53,41 53,40 54,39 54,38 56,36 56,34" stroke="black" stroke-width="1" /></svg>