<?xml version="1.0" encoding="utf-8" ?>
<svg baseProfile="full" height="100" version="1.1" width="100" xmlns="http://www.w3.org/2000/svg" xmlns:ev="http://www.w3.org/2001/xml-events" xmlns:xlink="http://www.w3.org/1999/xlink"><defs /><polygon fill="none" id="1" points="53,38 52,39 53,39 56,42 57,42 59,44 59,45 60,46 61,46 62,45 58,41 57,41 54,38" stroke="black" stroke-width="1" /><polygon fill="none" id="2" points="38,34 38,39 39,40 39,42 38,43 30,43 30,45 34,45 35,44 38,44 39,45 39,47 38,48 38,54 36,56 35,56 33,58 32,58 31,59 31,60 29,62 29,66 30,67 30,68 31,69 32,69 33,70 34,70 35,71 38,71 40,69 40,58 39,57 39,56 41,54 44,54 45,53 53,53 54,54 55,54 58,57 58,59 59,60 59,61 58,62 58,64 54,68 53,68 52,69 45,69 46,70 46,71 50,71 51,70 53,70 54,69 55,69 56,68 57,68 58,67 58,66 59,65 59,64 60,63 60,58 59,57 59,56 57,54 56,54 55,53 54,53 53,52 45,52 44,53 40,53 39,52 39,51 40,50 40,47 39,46 39,45 40,44 41,44 42,43 47,43 48,42 48,41 46,41 45,42 40,42 39,41 39,40 40,39 40,34" stroke="black" stroke-width="1" /><polygon fill="none" id="3" points="36,56 38,56 39,57 39,59 38,60 38,69 37,70 34,70 30,66 30,63 31,62 31,61" stroke="black" stroke-width="1" /></svg>