<?xml version="1.0" encoding="utf-8" ?>
<svg baseProfile="full" height="100" version="1.1" width="100" xmlns="http://www.w3.org/2000/svg" xmlns:ev="http://www.w3.org/2001/xml-events" xmlns:xlink="http://www.w3.org/1999/xlink"><defs /><polygon fill="none" id="1" points="59,34 58,35 58,36 56,38 56,39 55,40 55,41 54,42 54,43 52,45 52,46 50,48 50,49 49,50 49,51 48,52 48,53 46,55 46,56 44,58 44,59 43,60 43,61 42,62 42,63 41,64 41,65 39,67 39,68 38,69 38,70 39,71 40,71 41,70 41,69 42,68 42,67 43,66 43,65 46,62 46,61 52,55 53,55 54,54 55,54 56,53 60,53 62,55 62,57 63,58 63,67 66,70 67,70 68,71 73,71 74,70 75,70 76,69 77,69 83,63 83,62 84,61 83,61 81,59 81,61 80,62 80,63 79,64 79,65 76,68 75,68 73,70 68,70 66,68 66,66 65,65 65,56 64,55 64,54 63,53 62,53 61,52 57,52 56,53 55,53 54,54 53,54 52,55 50,55 49,54 49,53 52,50 52,49 53,48 53,47 55,45 55,44 58,41 58,40 59,39 59,38 62,35 61,34" stroke="black" stroke-width="1" /></svg>