<?xml version="1.0" encoding="utf-8" ?>
<svg baseProfile="full" height="100" version="1.1" width="100" xmlns="http://www.w3.org/2000/svg" xmlns:ev="http://www.w3.org/2001/xml-events" xmlns:xlink="http://www.w3.org/1999/xlink"><defs /><polygon fill="none" id="1" points="38,31 37,32 37,34 36,35 36,37 35,38 35,39 34,40 34,41 33,42 33,44 32,45 32,47 31,48 31,49 30,50 30,52 29,53 29,54 28,55 28,57 27,58 27,59 26,60 26,62 25,63 25,65 24,66 24,67 23,68 23,71 24,72 28,72 28,70 29,69 29,67 30,66 30,65 31,64 31,63 32,62 32,61 33,60 33,59 38,54 39,55 39,56 40,57 40,67 41,68 41,70 43,72 49,72 50,71 51,71 54,68 54,67 55,66 55,65 56,64 56,63 57,62 57,59 55,57 53,57 52,58 52,61 51,62 51,63 49,65 49,66 47,68 45,66 45,65 44,64 44,53 43,52 43,51 42,50 37,50 36,49 36,48 37,47 37,46 38,45 38,44 39,43 39,41 40,40 40,39 41,38 41,37 42,36 42,33 40,31" stroke="black" stroke-width="1" /></svg>