<?xml version="1.0" encoding="utf-8" ?>
<svg baseProfile="full" height="100" version="1.1" width="100" xmlns="http://www.w3.org/2000/svg" xmlns:ev="http://www.w3.org/2001/xml-events" xmlns:xlink="http://www.w3.org/1999/xlink"><defs /><polygon fill="none" id="1" points="43,31 42,32 42,33 41,34 41,36 40,37 40,38 39,39 39,40 38,41 38,42 37,43 37,45 36,46 36,47 35,48 35,49 34,50 34,51 33,52 33,53 32,54 32,56 31,57 31,58 30,59 30,61 29,62 29,63 28,64 28,65 27,66 27,68 26,69 26,71 27,72 31,72 31,71 32,70 32,68 33,67 33,66 34,65 34,64 35,63 35,62 37,60 37,59 41,55 42,55 43,54 45,56 45,65 46,66 46,69 49,72 55,72 56,71 57,71 61,67 61,66 63,64 63,63 64,62 64,59 62,57 59,57 59,59 58,60 58,62 57,63 57,64 53,68 52,68 51,67 51,66 50,65 50,56 49,55 49,52 47,50 41,50 40,49 41,48 41,47 42,46 42,45 43,44 43,43 44,42 44,41 45,40 45,39 47,37 47,36 48,35 48,33 47,33 45,31" stroke="black" stroke-width="1" /></svg>