<?xml version="1.0" encoding="utf-8" ?>
<svg baseProfile="full" height="100" version="1.1" width="100" xmlns="http://www.w3.org/2000/svg" xmlns:ev="http://www.w3.org/2001/xml-events" xmlns:xlink="http://www.w3.org/1999/xlink"><defs /><polygon fill="none" id="1" points="52,32 52,33 51,34 51,35 49,37 49,38 48,39 48,40 46,42 46,43 45,44 45,45 44,46 44,47 43,48 43,49 42,50 42,51 41,52 41,53 40,54 40,55 39,56 39,57 37,59 37,60 36,61 36,62 35,63 35,64 34,65 34,66 33,67 33,68 32,69 32,71 33,71 34,72 38,72 38,71 39,70 39,69 40,68 40,67 42,65 42,64 43,63 43,62 50,55 51,55 52,54 53,54 55,56 55,60 56,61 56,68 57,69 57,70 58,71 59,71 60,72 68,72 69,71 70,71 72,69 73,69 74,68 74,67 77,64 77,63 78,62 78,59 77,59 75,57 73,57 73,58 72,59 72,60 71,61 71,62 65,68 64,68 61,65 61,56 60,55 60,53 57,50 50,50 49,49 51,47 51,46 52,45 52,44 54,42 54,41 55,40 55,39 57,37 57,36 58,35 58,33 57,32" stroke="black" stroke-width="1" /></svg>