<?xml version="1.0" encoding="utf-8" ?>
<svg baseProfile="full" height="100" version="1.1" width="100" xmlns="http://www.w3.org/2000/svg" xmlns:ev="http://www.w3.org/2001/xml-events" xmlns:xlink="http://www.w3.org/1999/xlink"><defs /><polygon fill="none" id="1" points="57,32 56,33 56,34 54,36 54,37 53,38 53,39 52,40 52,41 50,43 50,44 48,46 48,47 47,48 47,49 46,50 46,51 44,53 44,54 42,56 42,57 41,58 41,59 40,60 40,61 39,62 39,63 37,65 37,66 36,67 36,68 35,69 35,71 36,71 37,72 41,72 42,71 42,70 43,69 43,68 44,67 44,66 47,63 47,62 53,56 54,56 55,55 56,55 57,54 58,54 60,56 60,58 61,59 61,68 64,71 65,71 66,72 74,72 75,71 76,71 77,70 78,70 84,64 84,63 85,62 85,59 84,59 82,57 79,57 79,59 78,60 78,61 77,62 77,63 74,66 73,66 71,68 69,68 67,66 67,64 66,63 66,54 65,53 65,52 64,51 63,51 62,50 55,50 54,49 54,48 56,46 56,45 59,42 59,41 60,40 60,39 64,35 64,33 63,33 62,32" stroke="black" stroke-width="1" /><polygon fill="none" id="2" points="53,50 54,49 55,50 54,51" stroke="black" stroke-width="1" /></svg>