<?xml version="1.0" encoding="utf-8" ?>
<svg baseProfile="full" height="100" version="1.1" width="100" xmlns="http://www.w3.org/2000/svg" xmlns:ev="http://www.w3.org/2001/xml-events" xmlns:xlink="http://www.w3.org/1999/xlink"><defs /><polygon fill="none" id="1" points="43,67 43,68 45,70 47,70 45,70 43,68" stroke="black" stroke-width="1" /><polygon fill="none" id="2" points="52,66 51,67" stroke="black" stroke-width="1" /><polygon fill="none" id="3" points="53,64" stroke="black" stroke-width="1" /><polygon fill="none" id="4" points="54,60 54,62" stroke="black" stroke-width="1" /><polygon fill="none" id="5" points="38,52 40,52 41,53 41,54 42,55 42,65 42,55 41,54 41,53 40,52" stroke="black" stroke-width="1" /><polygon fill="none" id="6" points="32,52 32,54 31,55 31,56 30,57 30,59 29,60 29,61 28,62 28,64 27,65 27,67 26,68 26,70 26,68 27,67 27,65 28,64 28,63 29,62 29,61 30,60 30,59 31,58 31,57 33,55 32,54" stroke="black" stroke-width="1" /><polygon fill="none" id="7" points="33,50" stroke="black" stroke-width="1" /><polygon fill="none" id="8" points="34,47" stroke="black" stroke-width="1" /><polygon fill="none" id="9" points="37,40 37,41 36,42 36,43 35,44 35,45 35,44 36,43 36,42 37,41" stroke="black" stroke-width="1" /><polygon fill="none" id="10" points="39,34 39,36 38,37 38,38 38,37 39,36" stroke="black" stroke-width="1" /></svg>