<?xml version="1.0" encoding="utf-8" ?>
<svg baseProfile="full" height="100" version="1.1" width="100" xmlns="http://www.w3.org/2000/svg" xmlns:ev="http://www.w3.org/2001/xml-events" xmlns:xlink="http://www.w3.org/1999/xlink"><defs /><polygon fill="none" id="1" points="51,70 53,70" stroke="black" stroke-width="1" /><polygon fill="none" id="2" points="59,65" stroke="black" stroke-width="1" /><polygon fill="none" id="3" points="61,60 61,61 60,62 60,63 61,62" stroke="black" stroke-width="1" /><polygon fill="none" id="4" points="43,52 45,52 47,54 47,63 48,64 48,67 49,68 48,67 48,58 47,57 47,54 45,52" stroke="black" stroke-width="1" /><polygon fill="none" id="5" points="36,52 36,53 35,54 35,55 34,56 34,58 33,59 33,60 32,61 32,63 31,64 31,65 30,66 30,67 29,68 29,70 29,69 30,68 30,66 31,65 31,64 32,63 32,62 33,61 33,60 35,58 35,57 37,55 36,54" stroke="black" stroke-width="1" /><polygon fill="none" id="6" points="37,50" stroke="black" stroke-width="1" /><polygon fill="none" id="7" points="38,48" stroke="black" stroke-width="1" /><polygon fill="none" id="8" points="44,34 44,35 43,36 43,38 42,39 42,40 41,41 41,42 40,43 40,44 39,45 39,46 39,45 40,44 40,43 41,42 41,41 42,40 42,39 43,38 43,37 45,35" stroke="black" stroke-width="1" /></svg>