<?xml version="1.0" encoding="utf-8" ?>
<svg baseProfile="full" height="100" version="1.1" width="100" xmlns="http://www.w3.org/2000/svg" xmlns:ev="http://www.w3.org/2001/xml-events" xmlns:xlink="http://www.w3.org/1999/xlink"><defs /><polygon fill="none" id="1" points="57,70 60,70" stroke="black" stroke-width="1" /><polygon fill="none" id="2" points="68,60 68,61 67,62 67,63 66,64 66,65 62,69 66,65 66,64 68,62" stroke="black" stroke-width="1" /><polygon fill="none" id="3" points="48,52 50,52 52,54 52,59 53,60 53,66 54,67 54,68 55,69 54,68 54,66 53,65 53,56 52,55 52,54 50,52" stroke="black" stroke-width="1" /><polygon fill="none" id="4" points="49,34 49,35 48,36 48,37 47,38 47,39 46,40 46,41 45,42 45,43 44,44 44,45 43,46 43,47 42,48 42,49 41,50 41,51 40,52 40,53 39,54 39,55 38,56 38,57 37,58 37,59 36,60 36,61 35,62 35,63 34,64 34,66 33,67 33,68 32,69 32,70 33,69 33,68 34,67 34,66 35,65 35,64 36,63 36,62 37,61 37,60 40,57 40,56 41,55 40,54 40,52 41,51 41,50 42,49 42,48 43,47 43,46 45,44 45,43 46,42 46,41 47,40 47,39 48,38 48,37 50,35 50,34" stroke="black" stroke-width="1" /></svg>