<?xml version="1.0" encoding="utf-8" ?>
<svg baseProfile="full" height="100" version="1.1" width="100" xmlns="http://www.w3.org/2000/svg" xmlns:ev="http://www.w3.org/2001/xml-events" xmlns:xlink="http://www.w3.org/1999/xlink"><defs /><polygon fill="none" id="1" points="74,61 74,62 73,63 73,64 68,69 70,67 71,67 72,66 72,65 75,62 75,61" stroke="black" stroke-width="1" /><polygon fill="none" id="2" points="52,52 55,52 57,54 57,58 58,59 58,66 59,67 59,68 60,69 61,69 62,70 66,70 62,70 59,67 59,58 58,57 58,55 55,52" stroke="black" stroke-width="1" /><polygon fill="none" id="3" points="54,34 54,35 53,36 53,37 51,39 51,40 50,41 50,42 48,44 48,45 47,46 47,47 46,48 46,49 45,50 45,51 44,52 44,53 43,54 43,55 42,56 42,57 41,58 41,59 39,61 39,62 38,63 38,64 37,65 37,66 36,67 36,68 35,69 36,70 36,69 37,68 37,67 38,66 38,65 40,63 40,62 41,61 41,60 46,55 45,55 44,54 44,52 45,51 45,50 47,48 47,47 49,45 49,44 50,43 50,42 52,40 52,39 53,38 53,37 55,35 55,34" stroke="black" stroke-width="1" /></svg>