<?xml version="1.0" encoding="utf-8" ?>
<svg baseProfile="full" height="100" version="1.1" width="100" xmlns="http://www.w3.org/2000/svg" xmlns:ev="http://www.w3.org/2001/xml-events" xmlns:xlink="http://www.w3.org/1999/xlink"><defs /><polygon fill="none" id="1" points="59,38 58,39 59,39 61,41 62,41 67,46 68,46 69,45 67,43 66,43 63,40 62,40 60,38" stroke="black" stroke-width="1" /><polygon fill="none" id="2" points="42,34 42,38 43,39 43,42 42,43 33,43 33,45 37,45 38,44 42,44 43,45 43,49 42,50 43,51 43,54 42,55 41,55 40,56 39,56 38,57 37,57 33,61 33,62 32,63 32,66 36,70 37,70 38,71 43,71 44,70 44,55 45,54 49,54 50,53 59,53 60,54 61,54 62,55 63,55 64,56 64,57 65,58 65,63 60,68 58,68 57,69 50,69 51,70 51,71 56,71 57,70 59,70 60,69 61,69 62,68 63,68 66,65 66,64 67,63 67,58 65,56 65,55 64,55 62,53 60,53 59,52 50,52 49,53 45,53 44,52 44,45 45,44 46,44 47,43 52,43 53,42 53,41 51,41 50,42 45,42 44,41 44,34" stroke="black" stroke-width="1" /><polygon fill="none" id="3" points="40,56 42,56 43,57 43,62 42,63 42,64 43,65 43,68 41,70 38,70 37,69 36,69 34,67 34,62" stroke="black" stroke-width="1" /></svg>