<?xml version="1.0" encoding="utf-8" ?>
<svg baseProfile="full" height="100" version="1.1" width="100" xmlns="http://www.w3.org/2000/svg" xmlns:ev="http://www.w3.org/2001/xml-events" xmlns:xlink="http://www.w3.org/1999/xlink"><defs /><polygon fill="none" id="1" points="68,70 72,70" stroke="black" stroke-width="1" /><polygon fill="none" id="2" points="81,60 81,61 80,62 80,63 79,64 79,65 76,68 75,68 74,69 75,68 76,68 82,62 82,61" stroke="black" stroke-width="1" /><polygon fill="none" id="3" points="57,52 60,52 62,54 62,56 63,57 63,66 66,69 65,68 65,66 64,65 64,56 63,55 63,54 62,53 61,53 60,52" stroke="black" stroke-width="1" /><polygon fill="none" id="4" points="59,34 58,35 58,36 56,38 56,39 55,40 55,41 54,42 54,43 52,45 52,46 50,48 50,49 49,50 49,51 48,52 48,53 46,55 46,56 44,58 44,59 43,60 43,61 42,62 42,63 41,64 41,65 39,67 39,68 38,69 39,70 40,69 40,68 41,67 41,66 42,65 42,64 45,61 45,60 50,55 49,55 48,54 48,52 51,49 51,48 52,47 52,46 54,44 54,43 57,40 57,39 58,38 58,37 60,35 60,34" stroke="black" stroke-width="1" /></svg>