<?xml version="1.0" encoding="utf-8" ?>
<svg baseProfile="full" height="100" version="1.1" width="100" xmlns="http://www.w3.org/2000/svg" xmlns:ev="http://www.w3.org/2001/xml-events" xmlns:xlink="http://www.w3.org/1999/xlink"><defs /><polygon fill="none" id="1" points="53,39 52,40 51,40 51,41 55,45 55,46 57,48 57,49 58,50 58,51 59,52 59,54 60,55 60,56 61,56 63,54 63,53 61,51 61,50 60,49 60,48 59,47 59,46 57,44 57,43 54,40 54,39" stroke="black" stroke-width="1" /><polygon fill="none" id="2" points="56,33 55,34 55,35 59,39 59,40 60,41 61,40 61,38 58,35 58,34 57,33" stroke="black" stroke-width="1" /><polygon fill="none" id="3" points="39,33 39,37 38,38 38,42 36,44 30,44 29,45 27,45 27,47 28,48 29,48 30,47 32,47 33,46 36,46 37,47 36,48 36,49 35,50 35,52 34,53 34,55 33,56 33,58 32,59 32,60 31,61 31,62 30,63 30,65 28,67 28,68 27,69 28,70 29,70 30,71 30,70 31,69 31,68 32,67 32,65 33,64 33,63 34,62 34,61 35,60 35,58 36,57 36,55 37,54 37,52 38,51 38,49 39,48 39,46 40,45 45,45 47,47 47,50 48,51 48,55 47,56 47,62 46,63 46,65 45,66 45,67 44,68 41,68 40,67 39,67 38,66 37,66 37,69 39,69 40,70 45,70 48,67 48,65 49,64 49,61 50,60 50,48 49,47 49,46 48,45 48,44 47,44 46,43 41,43 40,42 40,40 41,39 41,36 42,35 42,33" stroke="black" stroke-width="1" /><polygon fill="none" id="4" points="60,29 59,30 59,31 62,34 62,35 64,37 65,36 65,34" stroke="black" stroke-width="1" /></svg>