<?xml version="1.0" encoding="utf-8" ?>
<svg baseProfile="full" height="100" version="1.1" width="100" xmlns="http://www.w3.org/2000/svg" xmlns:ev="http://www.w3.org/2001/xml-events" xmlns:xlink="http://www.w3.org/1999/xlink"><defs /><polygon fill="none" id="1" points="70,39 69,40 68,40 68,41 69,41 76,48 76,49 78,51 78,52 79,53 79,54 80,55 80,56 81,56 82,55 83,55 84,54 84,53 82,51 82,50 78,46 78,45 72,39" stroke="black" stroke-width="1" /><polygon fill="none" id="2" points="75,33 74,34 73,34 73,35 74,35 79,40 79,41 80,41 81,40 82,40 82,39 76,33" stroke="black" stroke-width="1" /><polygon fill="none" id="3" points="52,33 52,37 51,38 51,40 50,41 50,43 49,44 40,44 39,45 36,45 36,46 37,47 37,48 38,48 39,47 44,47 45,46 48,46 49,47 48,48 48,49 47,50 47,51 46,52 46,54 44,56 44,57 43,58 43,59 42,60 42,61 41,62 41,63 38,66 38,67 36,69 37,69 38,70 39,70 40,71 41,70 41,69 42,68 42,67 44,65 44,64 45,63 45,62 46,61 46,60 47,59 47,58 48,57 48,56 49,55 49,54 50,53 50,52 51,51 51,49 52,48 52,47 54,45 60,45 63,48 63,50 64,51 64,53 63,54 63,60 62,61 62,63 61,64 61,66 60,67 59,67 58,68 55,68 54,67 52,67 51,66 50,66 50,67 49,68 49,69 52,69 53,70 60,70 61,69 62,69 64,67 64,66 65,65 65,64 66,63 66,59 67,58 67,49 66,48 66,46 64,44 62,44 61,43 54,43 53,42 54,41 54,39 55,38 55,36 56,35 56,33" stroke="black" stroke-width="1" /><polygon fill="none" id="4" points="79,30 78,31 79,31 85,37 86,37 88,35 87,35 82,30" stroke="black" stroke-width="1" /></svg>