<?xml version="1.0" encoding="utf-8" ?>
<svg baseProfile="full" height="100" version="1.1" width="100" xmlns="http://www.w3.org/2000/svg" xmlns:ev="http://www.w3.org/2001/xml-events" xmlns:xlink="http://www.w3.org/1999/xlink"><defs /><polygon fill="none" id="1" points="47,39 46,40 46,42 49,45 49,46 50,47 50,48 51,49 51,50 52,51 52,52 53,53 53,56 54,56 56,54 55,53 55,52 54,51 54,49 53,48 53,47 51,45 51,44 50,43 50,42 48,40 48,39" stroke="black" stroke-width="1" /><polygon fill="none" id="2" points="50,33 49,34 49,35 51,37 51,38 53,40 53,41 54,40 54,38 52,36 52,35" stroke="black" stroke-width="1" /><polygon fill="none" id="3" points="35,33 35,34 34,35 34,42 32,44 27,44 26,45 24,45 24,47 25,48 26,47 29,47 30,46 32,46 33,47 32,48 32,49 31,50 31,52 30,53 30,56 29,57 29,59 28,60 28,61 27,62 27,64 26,65 26,66 25,67 25,68 24,69 26,71 27,70 27,69 28,68 28,66 29,65 29,64 30,63 30,61 31,60 31,58 32,57 32,55 33,54 33,51 34,50 34,47 36,45 39,45 42,48 42,61 41,62 41,65 40,66 40,67 39,68 37,68 36,67 35,67 34,66 33,66 33,69 34,69 35,70 40,70 42,68 42,67 43,66 43,63 44,62 44,55 45,54 45,51 44,50 44,47 43,46 43,45 41,43 36,43 35,42 36,41 36,38 37,37 37,33" stroke="black" stroke-width="1" /><polygon fill="none" id="4" points="53,30 52,31 55,34 55,35 56,36 56,37 57,37 58,36 58,35 57,34 57,33 54,30" stroke="black" stroke-width="1" /></svg>