<?xml version="1.0" encoding="utf-8" ?>
<svg baseProfile="full" height="100" version="1.1" width="100" xmlns="http://www.w3.org/2000/svg" xmlns:ev="http://www.w3.org/2001/xml-events" xmlns:xlink="http://www.w3.org/1999/xlink"><defs /><polygon fill="none" id="1" points="59,39 58,40 57,40 57,41 61,45 61,46 63,48 63,49 65,51 65,52 66,53 66,54 67,55 67,56 68,56 70,54 70,53 68,51 68,50 67,49 67,48 65,46 65,45 61,41 61,40 60,39" stroke="black" stroke-width="1" /><polygon fill="none" id="2" points="63,33 62,34 61,34 61,35 62,35 63,36 63,37 66,40 66,41 67,41 68,40 68,38" stroke="black" stroke-width="1" /><polygon fill="none" id="3" points="43,33 43,38 42,39 42,42 40,44 33,44 32,45 30,45 30,46 31,47 31,48 32,48 33,47 36,47 37,46 40,46 41,47 40,48 40,49 39,50 39,52 38,53 38,55 37,56 37,57 36,58 36,59 35,60 35,61 34,62 34,63 33,64 33,65 32,66 32,67 30,69 31,70 32,70 33,71 34,70 34,69 35,68 35,67 36,66 36,65 37,64 37,63 38,62 38,60 39,59 39,58 40,57 40,56 41,55 41,53 42,52 42,50 43,49 43,47 45,45 50,45 52,47 52,48 53,49 53,58 52,59 52,63 51,64 51,65 50,66 50,67 49,68 46,68 45,67 44,67 43,66 41,66 41,69 43,69 44,70 50,70 51,69 52,69 52,68 53,67 53,66 54,65 54,64 55,63 55,58 56,57 56,49 55,48 55,46 53,44 52,44 51,43 45,43 44,42 45,41 45,39 46,38 46,35 47,34 47,33" stroke="black" stroke-width="1" /><polygon fill="none" id="4" points="67,29 65,31 66,31 69,34 69,35 71,37 73,35" stroke="black" stroke-width="1" /></svg>