<?xml version="1.0" encoding="utf-8" ?>
<svg baseProfile="full" height="100" version="1.1" width="100" xmlns="http://www.w3.org/2000/svg" xmlns:ev="http://www.w3.org/2001/xml-events" xmlns:xlink="http://www.w3.org/1999/xlink"><defs /><polygon fill="none" id="1" points="65,39 64,40 63,40 63,41 68,46 68,47 70,49 70,50 72,52 72,53 73,54 73,55 74,56 75,56 77,54 77,53 75,51 75,50 73,48 73,47 67,41 67,40 66,39" stroke="black" stroke-width="1" /><polygon fill="none" id="2" points="69,33 68,34 67,34 67,35 68,35 72,39 72,40 73,41 74,40 75,40 75,39 74,38 74,37 70,33" stroke="black" stroke-width="1" /><polygon fill="none" id="3" points="48,33 47,34 47,39 46,40 46,43 45,44 37,44 36,45 33,45 33,46 34,47 34,48 35,48 36,47 40,47 41,46 44,46 45,47 44,48 44,49 43,50 43,52 42,53 42,54 41,55 41,56 40,57 40,58 39,59 39,60 38,61 38,62 37,63 37,64 35,66 35,67 33,69 34,69 36,71 38,69 38,68 39,67 39,66 41,64 41,63 42,62 42,60 43,59 43,58 44,57 44,56 45,55 45,53 46,52 46,51 47,50 47,47 49,45 55,45 57,47 57,48 58,49 58,59 57,60 57,63 56,64 56,65 53,68 50,68 49,67 48,67 47,66 45,66 45,69 47,69 48,70 55,70 56,69 57,69 58,68 58,67 59,66 59,65 60,64 60,62 61,61 61,56 62,55 62,50 61,49 61,47 58,44 57,44 56,43 50,43 49,42 49,41 50,40 50,38 51,37 51,35 52,34 52,33" stroke="black" stroke-width="1" /><polygon fill="none" id="4" points="74,29 72,31 78,37 79,36 80,36 80,35" stroke="black" stroke-width="1" /></svg>