<?xml version="1.0" encoding="utf-8" ?>
<svg baseProfile="full" height="100" version="1.1" width="100" xmlns="http://www.w3.org/2000/svg" xmlns:ev="http://www.w3.org/2001/xml-events" xmlns:xlink="http://www.w3.org/1999/xlink"><defs /><polygon fill="none" id="1" points="65,38 64,39 65,39 67,41 68,41 72,45 73,45 74,46 75,46 76,45 75,44 74,44 71,41 70,41 68,39 67,39 66,38" stroke="black" stroke-width="1" /><polygon fill="none" id="2" points="46,34 46,35 47,36 47,42 46,43 36,43 36,45 41,45 42,44 46,44 47,45 47,54 46,55 45,55 44,56 43,56 42,57 41,57 40,58 39,58 36,61 36,62 35,63 35,66 38,69 39,69 40,70 41,70 42,71 47,71 49,69 49,58 48,57 48,56 50,54 54,54 55,53 65,53 66,54 67,54 68,55 69,55 70,56 70,57 71,58 71,63 70,64 70,65 69,66 68,66 66,68 64,68 63,69 55,69 56,70 56,71 61,71 62,70 65,70 66,69 68,69 70,67 71,67 73,65 73,63 74,62 74,59 73,58 73,57 70,54 69,54 68,53 66,53 65,52 54,52 53,53 49,53 48,52 48,51 49,50 49,47 48,46 48,45 49,44 50,44 51,43 57,43 58,42 59,42 59,41 56,41 55,42 49,42 48,41 48,40 49,39 49,34" stroke="black" stroke-width="1" /><polygon fill="none" id="3" points="44,56 46,56 47,57 47,68 45,70 42,70 41,69 40,69 37,66 37,63 38,62 38,61 41,58 42,58" stroke="black" stroke-width="1" /></svg>