<?xml version="1.0" encoding="utf-8" ?>
<svg baseProfile="full" height="100" version="1.1" width="100" xmlns="http://www.w3.org/2000/svg" xmlns:ev="http://www.w3.org/2001/xml-events" xmlns:xlink="http://www.w3.org/1999/xlink"><defs /><polygon fill="none" id="1" points="47,39 46,40 46,43 49,46 49,47 50,48 50,49 51,50 51,51 52,52 52,53 53,54 53,57 55,57 57,55 57,54 56,53 56,52 55,51 55,49 54,48 54,47 52,45 52,44 51,43 51,42 49,40 49,39" stroke="black" stroke-width="1" /><polygon fill="none" id="2" points="35,33 35,34 34,35 34,42 32,44 27,44 26,45 24,45 24,48 25,49 26,49 27,48 30,48 31,47 32,48 32,49 31,50 31,52 30,53 30,56 29,57 29,59 28,60 28,61 27,62 27,64 26,65 26,66 25,67 25,68 24,69 24,70 26,72 27,72 28,71 28,70 29,69 29,67 30,66 30,65 31,64 31,62 32,61 32,59 33,58 33,56 34,55 34,52 35,51 35,48 37,46 39,46 42,49 42,61 41,62 41,65 40,66 40,67 39,68 38,68 37,67 36,67 35,66 33,66 33,70 34,70 35,71 41,71 43,69 43,68 44,67 44,64 45,63 45,56 46,55 46,51 45,50 45,47 44,46 44,45 42,43 38,43 37,42 37,39 38,38 38,33" stroke="black" stroke-width="1" /><polygon fill="none" id="3" points="53,30 52,31 52,32 51,33 50,33 49,34 49,36 51,38 51,39 53,41 53,42 54,42 55,41 55,39 56,38 58,38 59,37 59,35 58,34 58,33 55,30" stroke="black" stroke-width="1" /><polygon fill="none" id="4" points="54,37 55,36 56,37 55,38" stroke="black" stroke-width="1" /><polygon fill="none" id="5" points="53,35 54,34 55,35 55,36 54,37 53,36" stroke="black" stroke-width="1" /><polygon fill="none" id="6" points="52,34 53,33 54,34 53,35" stroke="black" stroke-width="1" /><polygon fill="none" id="7" points="51,33 52,32 53,33 52,34" stroke="black" stroke-width="1" /></svg>