<?xml version="1.0" encoding="utf-8" ?>
<svg baseProfile="full" height="100" version="1.1" width="100" xmlns="http://www.w3.org/2000/svg" xmlns:ev="http://www.w3.org/2001/xml-events" xmlns:xlink="http://www.w3.org/1999/xlink"><defs /><polygon fill="none" id="1" points="48,40 47,41 47,42 50,45 50,46 51,47 51,48 52,49 52,50 53,51 53,52 54,53 54,56 55,55 55,53 54,52 54,50 53,49 53,48 51,46 51,45 50,44 50,43 48,41" stroke="black" stroke-width="1" /><polygon fill="none" id="2" points="50,35 52,37 52,38 54,40 54,39 52,37 52,36 51,35" stroke="black" stroke-width="1" /><polygon fill="none" id="3" points="36,34 36,35 35,36 35,43 33,45 28,45 27,46 25,46 25,47 29,47 30,46 33,46 34,47 34,48 33,49 33,50 32,51 32,53 31,54 31,57 30,58 30,60 29,61 29,62 28,63 28,65 27,66 27,67 26,68 26,70 27,70 27,69 28,68 28,66 29,65 29,64 30,63 30,61 31,60 31,58 32,57 32,55 33,54 33,51 34,50 34,47 36,45 40,45 43,48 43,62 42,63 42,66 41,67 41,68 40,69 37,69 36,68 35,68 34,67 34,69 35,69 36,70 40,70 42,68 42,67 43,66 43,63 44,62 44,55 45,54 45,52 44,51 44,48 43,47 43,46 41,44 36,44 35,43 35,42 36,41 36,38 37,37 37,34" stroke="black" stroke-width="1" /><polygon fill="none" id="4" points="54,31 54,32 56,34 56,35 57,36 57,37 58,36 57,35 57,34" stroke="black" stroke-width="1" /></svg>