<?xml version="1.0" encoding="utf-8" ?>
<svg baseProfile="full" height="100" version="1.1" width="100" xmlns="http://www.w3.org/2000/svg" xmlns:ev="http://www.w3.org/2001/xml-events" xmlns:xlink="http://www.w3.org/1999/xlink"><defs /><polygon fill="none" id="1" points="54,40 53,41 52,41 56,45 56,46 58,48 58,49 59,50 59,51 60,52 60,54 61,55 61,56 63,54 61,52 61,51 60,50 60,49 59,48 59,47 57,45 57,44 54,41" stroke="black" stroke-width="1" /><polygon fill="none" id="2" points="57,34 56,35 60,39 60,40 61,40 61,39 58,36 58,35" stroke="black" stroke-width="1" /><polygon fill="none" id="3" points="40,34 40,38 39,39 39,43 37,45 31,45 30,46 28,46 28,47 29,48 30,47 32,47 33,46 37,46 38,47 38,48 37,49 37,50 36,51 36,53 35,54 35,56 34,57 34,59 33,60 33,61 32,62 32,63 31,64 31,66 29,68 29,70 30,70 31,69 31,68 32,67 32,65 33,64 33,63 34,62 34,61 35,60 35,58 36,57 36,55 37,54 37,52 38,51 38,49 39,48 39,46 40,45 46,45 48,47 48,50 49,51 49,56 48,57 48,63 47,64 47,66 46,67 46,68 45,69 41,69 40,68 39,68 38,67 38,69 40,69 41,70 45,70 48,67 48,65 49,64 49,61 50,60 50,49 49,48 49,47 48,46 48,45 47,45 46,44 41,44 40,43 40,40 41,39 41,36 42,35 42,34" stroke="black" stroke-width="1" /><polygon fill="none" id="4" points="60,31 63,34 63,35 64,36 65,36 65,35 61,31" stroke="black" stroke-width="1" /></svg>