<?xml version="1.0" encoding="utf-8" ?>
<svg baseProfile="full" height="100" version="1.1" width="100" xmlns="http://www.w3.org/2000/svg" xmlns:ev="http://www.w3.org/2001/xml-events" xmlns:xlink="http://www.w3.org/1999/xlink"><defs /><polygon fill="none" id="1" points="60,40 59,41 58,41 62,45 62,46 64,48 64,49 66,51 66,52 67,53 67,54 68,55 68,56 70,54 68,52 68,51 67,50 67,49 65,47 65,46 61,42 61,41" stroke="black" stroke-width="1" /><polygon fill="none" id="2" points="62,35 63,35 64,36 64,37 67,40 67,41 68,40 68,39 64,35" stroke="black" stroke-width="1" /><polygon fill="none" id="3" points="44,34 44,39 43,40 43,43 41,45 34,45 33,46 31,46 32,47 32,48 33,47 36,47 37,46 41,46 42,47 42,48 41,49 41,50 40,51 40,53 39,54 39,56 38,57 38,58 37,59 37,60 36,61 36,62 35,63 35,64 34,65 34,66 33,67 33,68 32,69 32,70 34,70 34,69 35,68 35,67 36,66 36,65 37,64 37,63 38,62 38,60 39,59 39,58 40,57 40,56 41,55 41,53 42,52 42,50 43,49 43,47 45,45 51,45 53,47 53,48 54,49 54,59 53,60 53,64 52,65 52,66 51,67 51,68 50,69 46,69 45,68 44,68 43,67 42,67 42,69 44,69 45,70 50,70 51,69 52,69 52,68 53,67 53,66 54,65 54,64 55,63 55,58 56,57 56,50 55,49 55,47 53,45 52,45 51,44 45,44 44,43 44,42 45,41 45,39 46,38 46,35 47,34" stroke="black" stroke-width="1" /><polygon fill="none" id="4" points="67,31 70,34 70,35 71,36 72,36 72,35 68,31" stroke="black" stroke-width="1" /></svg>