<?xml version="1.0" encoding="utf-8" ?>
<svg baseProfile="full" height="100" version="1.1" width="100" xmlns="http://www.w3.org/2000/svg" xmlns:ev="http://www.w3.org/2001/xml-events" xmlns:xlink="http://www.w3.org/1999/xlink"><defs /><polygon fill="none" id="1" points="66,40 65,41 64,41 69,46 69,47 71,49 71,50 73,52 73,53 74,54 74,55 75,56 77,54 75,52 75,51 73,49 73,48 67,42 67,41" stroke="black" stroke-width="1" /><polygon fill="none" id="2" points="70,34 69,35 68,35 69,35 73,39 73,40 75,40 74,39 74,38" stroke="black" stroke-width="1" /><polygon fill="none" id="3" points="49,34 48,35 48,40 47,41 47,44 46,45 38,45 37,46 34,46 35,47 35,48 36,47 40,47 41,46 45,46 46,47 46,48 45,49 45,50 44,51 44,53 43,54 43,55 42,56 42,57 41,58 41,59 40,60 40,61 39,62 39,63 38,64 38,65 36,67 36,68 35,69 36,70 37,70 38,69 38,68 39,67 39,66 41,64 41,63 42,62 42,60 43,59 43,58 44,57 44,56 45,55 45,53 46,52 46,51 47,50 47,47 49,45 56,45 58,47 58,48 59,49 59,60 58,61 58,64 57,65 57,66 54,69 50,69 49,68 48,68 47,67 46,67 46,69 48,69 49,70 55,70 56,69 57,69 58,68 58,67 59,66 59,65 60,64 60,62 61,61 61,56 62,55 62,51 61,50 61,48 58,45 57,45 56,44 50,44 49,43 49,41 50,40 50,38 51,37 51,35 52,34" stroke="black" stroke-width="1" /><polygon fill="none" id="4" points="74,31 74,32 78,36 80,36 75,31" stroke="black" stroke-width="1" /></svg>