<?xml version="1.0" encoding="utf-8" ?>
<svg baseProfile="full" height="100" version="1.1" width="100" xmlns="http://www.w3.org/2000/svg" xmlns:ev="http://www.w3.org/2001/xml-events" xmlns:xlink="http://www.w3.org/1999/xlink"><defs /><polygon fill="none" id="1" points="47,31 47,37 45,39 39,39 38,38 35,38 35,39 36,40 36,42 45,42 46,41 47,42 47,44 46,45 46,49 45,50 44,50 43,51 42,51 40,53 39,53 35,57 35,58 34,59 34,61 33,62 33,67 34,68 34,69 35,69 36,70 42,70 43,69 44,69 45,68 46,68 47,67 48,68 48,70 49,70 50,69 52,69 52,66 51,65 56,60 56,59 58,57 58,56 60,54 60,53 61,52 61,51 63,49 64,49 65,50 66,50 67,51 68,51 72,55 72,61 67,66 66,66 65,67 63,67 62,68 57,68 57,70 58,71 58,72 63,72 64,71 66,71 67,70 69,70 71,68 72,68 75,65 75,64 76,63 76,61 77,60 77,57 76,56 76,53 75,52 75,51 73,49 72,49 71,48 70,48 69,47 67,47 66,46 65,46 64,45 64,43 59,43 59,45 58,46 55,46 54,47 51,47 50,46 51,45 51,42 52,41 57,41 58,40 63,40 64,39 67,39 67,35 65,35 64,36 60,36 59,37 54,37 53,38 52,38 51,37 52,36 52,31" stroke="black" stroke-width="1" /><polygon fill="none" id="2" points="45,54 46,55 46,60 47,61 47,62 43,66 42,66 41,67 39,67 37,65 37,63 38,62 38,61" stroke="black" stroke-width="1" /><polygon fill="none" id="3" points="54,50 55,49 56,49 57,50 57,51 56,52 56,53 54,55 54,56 52,58 52,59 51,60 50,59 50,52 52,50" stroke="black" stroke-width="1" /></svg>