<?xml version="1.0" encoding="utf-8" ?>
<svg baseProfile="full" height="100" version="1.1" width="100" xmlns="http://www.w3.org/2000/svg" xmlns:ev="http://www.w3.org/2001/xml-events" xmlns:xlink="http://www.w3.org/1999/xlink"><defs /><polygon fill="none" id="1" points="71,38 70,39 69,39 70,39 71,40 72,40 73,41 74,41 76,43 77,43 81,47 83,45 82,44 81,44 79,42 78,42 76,40 75,40 74,39 73,39 72,38" stroke="black" stroke-width="1" /><polygon fill="none" id="2" points="50,34 51,35 51,42 50,43 39,43 39,44 40,45 45,45 46,44 50,44 51,45 51,54 50,55 49,55 48,56 46,56 45,57 44,57 40,61 39,61 39,62 38,63 38,66 40,68 41,68 43,70 45,70 46,71 52,71 53,70 53,55 54,54 59,54 60,53 70,53 71,54 74,54 78,58 78,62 77,63 77,64 74,67 73,67 72,68 70,68 69,69 60,69 61,70 61,71 67,71 68,70 71,70 72,69 74,69 75,68 76,68 80,64 80,62 81,61 81,59 79,57 79,56 78,55 77,55 76,54 75,54 74,53 72,53 71,52 59,52 58,53 54,53 53,52 53,45 54,44 55,44 56,43 63,43 64,42 64,41 61,41 60,42 54,42 53,41 53,34" stroke="black" stroke-width="1" /><polygon fill="none" id="3" points="48,56 50,56 51,57 51,68 49,70 45,70 44,69 43,69 41,67 41,62 45,58 46,58" stroke="black" stroke-width="1" /></svg>