<?xml version="1.0" encoding="utf-8" ?>
<svg baseProfile="full" height="100" version="1.1" width="100" xmlns="http://www.w3.org/2000/svg" xmlns:ev="http://www.w3.org/2001/xml-events" xmlns:xlink="http://www.w3.org/1999/xlink"><defs /><polygon fill="none" id="1" points="59,28 58,29 58,31 57,32 55,32 54,33 54,36 55,37 54,38 52,38 51,39 50,39 50,42 49,43 48,43 47,42 42,42 41,41 42,40 42,37 43,36 43,32 38,32 38,36 37,37 37,41 35,43 29,43 28,44 26,44 26,48 27,49 30,49 31,48 33,48 34,49 34,51 33,52 33,54 32,55 32,57 31,58 31,59 30,60 30,61 29,62 29,64 27,66 27,67 26,68 26,70 27,71 28,71 29,72 31,72 31,71 32,70 32,69 33,68 33,66 34,65 34,64 35,63 35,62 36,61 36,59 37,58 37,56 38,55 38,53 39,52 39,50 40,49 40,47 41,46 44,46 46,48 46,51 47,52 47,54 46,55 46,61 45,62 45,64 44,65 44,66 43,67 42,67 41,66 40,66 39,65 36,65 36,70 38,70 39,71 46,71 49,68 49,66 50,65 50,62 51,61 51,47 50,46 50,45 49,44 49,43 50,42 54,46 54,47 56,49 56,50 57,51 57,52 58,53 58,55 59,56 59,57 62,57 64,55 64,52 62,50 62,49 61,48 61,47 60,46 60,45 58,43 59,42 61,42 62,41 62,39 63,38 65,38 66,37 66,33 61,28" stroke="black" stroke-width="1" /><polygon fill="none" id="2" points="33,48 34,47 35,48 34,49" stroke="black" stroke-width="1" /><polygon fill="none" id="3" points="56,40 57,39 58,40 57,41" stroke="black" stroke-width="1" /><polygon fill="none" id="4" points="55,39 56,38 57,39 56,40" stroke="black" stroke-width="1" /></svg>