<?xml version="1.0" encoding="utf-8" ?>
<svg baseProfile="full" height="100" version="1.1" width="100" xmlns="http://www.w3.org/2000/svg" xmlns:ev="http://www.w3.org/2001/xml-events" xmlns:xlink="http://www.w3.org/1999/xlink"><defs /><polygon fill="none" id="1" points="47,32 46,33 46,38 45,39 45,42 44,43 36,43 35,44 32,44 32,47 33,48 33,49 36,49 37,48 41,48 42,49 42,51 41,52 41,53 40,54 40,55 39,56 39,57 38,58 38,59 37,60 37,61 36,62 36,63 34,65 34,66 32,68 32,70 33,70 35,72 37,72 39,70 39,69 40,68 40,67 42,65 42,64 43,63 43,61 44,60 44,59 45,58 45,57 46,56 46,54 47,53 47,52 48,51 48,48 50,46 54,46 56,48 56,49 57,50 57,58 56,59 56,62 55,63 55,64 52,67 51,67 50,66 49,66 48,65 44,65 44,70 46,70 47,71 56,71 57,70 58,70 59,69 59,68 60,67 60,66 61,65 61,63 62,62 62,57 63,56 63,49 62,48 62,46 59,43 58,43 57,42 52,42 51,41 51,39 52,38 52,36 53,35 53,32" stroke="black" stroke-width="1" /><polygon fill="none" id="2" points="41,48 42,47 43,48 42,49" stroke="black" stroke-width="1" /><polygon fill="none" id="3" points="73,28 71,30 71,31 70,32 68,32 67,33 66,33 66,36 67,36 68,37 67,38 64,38 63,39 62,39 62,42 67,47 67,48 69,50 69,51 71,53 71,54 72,55 72,56 73,57 76,57 78,55 78,52 76,50 76,49 74,47 74,46 71,43 72,42 74,42 75,41 76,41 76,39 77,38 79,38 80,37 81,37 81,34 75,28" stroke="black" stroke-width="1" /><polygon fill="none" id="4" points="70,42 71,41 72,42 71,43" stroke="black" stroke-width="1" /><polygon fill="none" id="5" points="68,39 69,38 71,40 71,41 70,42 68,40" stroke="black" stroke-width="1" /><polygon fill="none" id="6" points="67,38 68,37 69,38 68,39" stroke="black" stroke-width="1" /></svg>