<?xml version="1.0" encoding="utf-8" ?>
<svg baseProfile="full" height="100" version="1.1" width="100" xmlns="http://www.w3.org/2000/svg" xmlns:ev="http://www.w3.org/2001/xml-events" xmlns:xlink="http://www.w3.org/1999/xlink"><defs /><polygon fill="none" id="1" points="51,32 51,36 50,37 50,39 49,40 49,42 48,43 39,43 38,44 35,44 35,47 36,48 36,49 39,49 40,48 45,48 46,49 46,50 45,51 45,53 43,55 43,56 42,57 42,58 41,59 41,60 40,61 40,62 37,65 37,66 35,68 35,70 36,70 37,71 38,71 39,72 41,72 42,71 42,70 43,69 43,68 45,66 45,65 46,64 46,63 47,62 47,61 48,60 48,59 49,58 49,57 50,56 50,55 51,54 51,53 52,52 52,50 53,49 53,48 55,46 59,46 62,49 62,51 63,52 62,53 62,59 61,60 61,62 60,63 60,65 59,66 58,66 57,67 56,67 55,66 53,66 52,65 49,65 49,66 48,67 48,70 51,70 52,71 61,71 62,70 63,70 65,68 65,67 66,66 66,65 67,64 67,60 68,59 68,48 67,47 67,45 65,43 63,43 62,42 56,42 55,41 55,40 56,39 56,37 57,36 57,32" stroke="black" stroke-width="1" /><polygon fill="none" id="2" points="45,48 46,47 47,48 46,49" stroke="black" stroke-width="1" /><polygon fill="none" id="3" points="78,29 77,30 77,31 76,32 74,32 73,33 72,33 72,36 73,36 74,37 73,38 69,38 68,39 67,39 67,42 68,42 75,49 75,50 77,52 77,53 78,54 78,55 79,56 79,57 82,57 83,56 84,56 85,55 85,52 83,50 83,49 79,45 79,44 78,43 79,42 81,42 82,41 83,41 83,39 84,38 87,38 89,36 89,34 88,34 83,29" stroke="black" stroke-width="1" /><polygon fill="none" id="4" points="76,41 77,40 78,41 77,42" stroke="black" stroke-width="1" /><polygon fill="none" id="5" points="75,40 76,39 77,40 76,41" stroke="black" stroke-width="1" /><polygon fill="none" id="6" points="74,39 75,38 76,39 75,40" stroke="black" stroke-width="1" /><polygon fill="none" id="7" points="73,38 74,37 75,38 74,39" stroke="black" stroke-width="1" /></svg>