<?xml version="1.0" encoding="utf-8" ?>
<svg baseProfile="full" height="100" version="1.1" width="100" xmlns="http://www.w3.org/2000/svg" xmlns:ev="http://www.w3.org/2001/xml-events" xmlns:xlink="http://www.w3.org/1999/xlink"><defs /><polygon fill="none" id="1" points="34,68 35,68 36,69 39,69 36,69 35,68" stroke="black" stroke-width="1" /><polygon fill="none" id="2" points="41,67" stroke="black" stroke-width="1" /><polygon fill="none" id="3" points="27,66 27,67 26,68 26,69 26,68 27,67" stroke="black" stroke-width="1" /><polygon fill="none" id="4" points="42,63 42,65" stroke="black" stroke-width="1" /><polygon fill="none" id="5" points="29,61 29,62 28,63 28,64 28,63 29,62" stroke="black" stroke-width="1" /><polygon fill="none" id="6" points="30,58 30,59" stroke="black" stroke-width="1" /><polygon fill="none" id="7" points="54,53 54,54" stroke="black" stroke-width="1" /><polygon fill="none" id="8" points="32,51 32,53 31,54 31,56 31,54 32,53" stroke="black" stroke-width="1" /><polygon fill="none" id="9" points="33,49" stroke="black" stroke-width="1" /><polygon fill="none" id="10" points="43,48 43,61 43,54 44,53 44,52 43,51" stroke="black" stroke-width="1" /><polygon fill="none" id="11" points="51,47 52,48 52,49 53,50 53,51 53,50 52,49 52,48" stroke="black" stroke-width="1" /><polygon fill="none" id="12" points="50,45" stroke="black" stroke-width="1" /><polygon fill="none" id="13" points="34,44 33,45 28,45 27,46 25,46 28,46 29,45 34,45 35,44 40,44 42,46 40,44" stroke="black" stroke-width="1" /><polygon fill="none" id="14" points="47,41 49,43" stroke="black" stroke-width="1" /><polygon fill="none" id="15" points="56,34" stroke="black" stroke-width="1" /><polygon fill="none" id="16" points="36,34 36,35 35,36 35,40 35,37 36,36" stroke="black" stroke-width="1" /></svg>