<?xml version="1.0" encoding="utf-8" ?>
<svg baseProfile="full" height="100" version="1.1" width="100" xmlns="http://www.w3.org/2000/svg" xmlns:ev="http://www.w3.org/2001/xml-events" xmlns:xlink="http://www.w3.org/1999/xlink"><defs /><polygon fill="none" id="1" points="41,69 44,69" stroke="black" stroke-width="1" /><polygon fill="none" id="2" points="38,68 39,68" stroke="black" stroke-width="1" /><polygon fill="none" id="3" points="37,49 37,50 36,51 36,53 35,54 35,56 34,57 34,59 33,60 33,61 32,62 32,63 31,64 31,66 29,68 29,69 30,68 30,67 31,66 31,64 32,63 32,62 33,61 33,60 34,59 34,57 35,56 35,54 36,53 36,51 37,50" stroke="black" stroke-width="1" /><polygon fill="none" id="4" points="48,47 48,49 49,50 49,56 48,57 48,63 47,64 47,66 46,67 47,66 47,64 48,63 48,60 49,59 49,49 48,48" stroke="black" stroke-width="1" /><polygon fill="none" id="5" points="47,45" stroke="black" stroke-width="1" /><polygon fill="none" id="6" points="53,41 56,44 56,45 58,47 58,48 59,49 59,50 60,51 60,53 61,54 61,53 60,52 60,51 59,50 59,49 58,48 58,47 56,45 56,44" stroke="black" stroke-width="1" /><polygon fill="none" id="7" points="60,39" stroke="black" stroke-width="1" /><polygon fill="none" id="8" points="57,35" stroke="black" stroke-width="1" /><polygon fill="none" id="9" points="63,34 64,35" stroke="black" stroke-width="1" /><polygon fill="none" id="10" points="40,34 40,38 39,39 39,43 37,45 31,45 30,46 28,46 31,46 32,45 37,45 38,46 38,47 38,45 39,44 45,44 40,44 39,43 39,39 40,38 40,35 41,34" stroke="black" stroke-width="1" /></svg>