<?xml version="1.0" encoding="utf-8" ?>
<svg baseProfile="full" height="100" version="1.1" width="100" xmlns="http://www.w3.org/2000/svg" xmlns:ev="http://www.w3.org/2001/xml-events" xmlns:xlink="http://www.w3.org/1999/xlink"><defs /><polygon fill="none" id="1" points="57,45 58,46 58,47 59,48 59,60 58,61 58,64 57,65 57,66 54,69 49,69 48,68 47,68 46,67 46,68 48,68 49,69 54,69 55,68 56,68 57,67 57,66 58,65 58,64 59,63 59,61 60,60 60,55 61,54 61,51 60,50 60,48" stroke="black" stroke-width="1" /><polygon fill="none" id="2" points="65,41 69,45 69,46 71,48 71,49 73,51 73,52 74,53 74,54 75,54 75,53 74,52 74,51 72,49 72,48 66,42 66,41" stroke="black" stroke-width="1" /><polygon fill="none" id="3" points="70,35 73,38 73,39 73,38" stroke="black" stroke-width="1" /><polygon fill="none" id="4" points="49,34 48,35 48,40 47,41 47,44 46,45 38,45 37,46 35,46 39,46 40,45 45,45 46,46 46,48 45,49 45,50 44,51 44,53 43,54 43,55 42,56 42,57 41,58 41,59 40,60 40,61 39,62 39,63 38,64 38,65 36,67 36,69 37,68 37,67 38,66 38,65 40,63 40,62 41,61 41,59 42,58 42,57 43,56 43,55 44,54 44,52 45,51 45,50 46,49 46,46 48,44 55,44 49,44 48,43 48,40 49,39 49,37 50,36 50,34" stroke="black" stroke-width="1" /><polygon fill="none" id="5" points="74,31 78,35" stroke="black" stroke-width="1" /></svg>