<?xml version="1.0" encoding="utf-8" ?>
<svg baseProfile="full" height="100" version="1.1" width="100" xmlns="http://www.w3.org/2000/svg" xmlns:ev="http://www.w3.org/2001/xml-events" xmlns:xlink="http://www.w3.org/1999/xlink"><defs /><polygon fill="none" id="1" points="45,36 45,40 52,47 52,48 55,48 55,47 56,46 56,43 49,36" stroke="black" stroke-width="1" /><polygon fill="none" id="2" points="32,32 32,40 31,41 25,41 25,46 31,46 32,47 32,52 30,54 29,54 25,58 25,59 24,60 24,68 27,71 28,71 29,72 35,72 36,71 36,56 37,55 40,55 41,54 45,54 46,55 47,55 50,58 50,61 49,62 49,63 46,66 45,66 44,67 38,67 38,70 39,71 39,72 45,72 46,71 48,71 49,70 50,70 53,67 53,66 54,65 54,55 53,54 53,53 52,52 51,52 50,51 49,51 48,50 38,50 37,51 36,50 36,46 38,44 43,44 43,39 39,39 38,40 37,40 36,39 36,32" stroke="black" stroke-width="1" /><polygon fill="none" id="3" points="31,59 32,60 32,67 31,68 28,65 28,63 29,62 29,61" stroke="black" stroke-width="1" /></svg>