<?xml version="1.0" encoding="utf-8" ?>
<svg baseProfile="full" height="100" version="1.1" width="100" xmlns="http://www.w3.org/2000/svg" xmlns:ev="http://www.w3.org/2001/xml-events" xmlns:xlink="http://www.w3.org/1999/xlink"><defs /><polygon fill="none" id="1" points="56,32 56,34 59,37 59,38 60,39 61,39 62,38 62,37 59,34 59,33 58,32" stroke="black" stroke-width="1" /><polygon fill="none" id="2" points="40,31 39,32 39,33 40,34 40,35 41,36 41,38 40,39 30,39 30,41 31,42 34,42 35,41 40,41 41,40 42,40 43,41 43,42 44,43 44,44 45,45 43,47 37,47 36,48 30,48 30,51 31,51 32,50 39,50 40,49 44,49 45,48 46,48 48,50 48,51 49,52 49,53 51,55 51,56 50,57 49,56 47,56 46,55 38,55 37,56 35,56 32,59 32,60 31,61 31,64 32,65 32,66 33,67 33,68 34,68 35,69 36,69 37,70 40,70 41,71 52,71 52,68 51,69 41,69 40,68 38,68 37,67 36,67 34,65 34,60 35,59 36,59 37,58 38,58 39,57 46,57 47,58 49,58 50,59 51,59 53,61 54,61 56,59 54,57 54,56 52,54 52,53 51,52 51,51 49,49 49,48 50,47 52,47 53,46 55,46 56,45 57,45 58,44 59,44 58,43 58,42 56,42 55,43 53,43 52,44 51,44 50,45 48,45 46,43 46,42 45,41 45,40 46,39 49,39 50,38 52,38 53,37 54,37 54,36 53,35 53,34 52,34 51,35 50,35 49,36 48,36 47,37 44,37 43,36 43,35 42,34 42,32 41,31" stroke="black" stroke-width="1" /><polygon fill="none" id="3" points="61,28 60,29 60,30 63,33 63,34 64,35 65,35 66,34 66,33" stroke="black" stroke-width="1" /></svg>