<?xml version="1.0" encoding="utf-8" ?>
<svg baseProfile="full" height="100" version="1.1" width="100" xmlns="http://www.w3.org/2000/svg" xmlns:ev="http://www.w3.org/2001/xml-events" xmlns:xlink="http://www.w3.org/1999/xlink"><defs /><polygon fill="none" id="1" points="69,32 68,33 73,38 73,39 75,39 76,38 76,37 71,32" stroke="black" stroke-width="1" /><polygon fill="none" id="2" points="49,31 48,32 47,32 48,33 48,34 51,37 49,39 37,39 37,42 42,42 43,41 50,41 51,40 52,40 53,41 53,42 54,43 54,44 55,45 53,47 45,47 44,48 36,48 36,49 37,50 37,51 38,51 39,50 48,50 49,49 54,49 55,48 56,48 59,51 59,52 63,56 62,57 61,57 60,56 58,56 57,55 46,55 45,56 43,56 41,58 40,58 39,59 39,60 38,61 38,64 39,65 39,66 42,69 44,69 45,70 49,70 50,71 64,71 64,68 63,68 62,69 51,69 50,68 46,68 45,67 44,67 42,65 42,64 41,63 41,62 42,61 42,60 43,59 44,59 45,58 47,58 48,57 56,57 57,58 60,58 61,59 63,59 65,61 66,61 68,59 67,58 67,57 64,54 64,53 60,49 60,48 61,47 63,47 64,46 67,46 68,45 70,45 71,44 72,44 72,43 71,42 68,42 67,43 65,43 64,44 62,44 61,45 58,45 57,44 57,43 55,41 55,40 56,39 60,39 61,38 63,38 64,37 66,37 66,36 65,35 65,34 64,34 63,35 62,35 61,36 59,36 58,37 54,37 53,36 53,35 52,34 52,33 51,32 51,31" stroke="black" stroke-width="1" /><polygon fill="none" id="3" points="74,28 73,29 73,30 74,30 77,33 77,34 78,35 80,35 81,34 75,28" stroke="black" stroke-width="1" /></svg>