<?xml version="1.0" encoding="utf-8" ?>
<svg baseProfile="full" height="100" version="1.1" width="100" xmlns="http://www.w3.org/2000/svg" xmlns:ev="http://www.w3.org/2001/xml-events" xmlns:xlink="http://www.w3.org/1999/xlink"><defs /><polygon fill="none" id="1" points="75,32 74,33 76,35 77,35 78,36 78,37 80,39 82,39 83,38 83,37 81,35 80,35 77,32" stroke="black" stroke-width="1" /><polygon fill="none" id="2" points="53,31 52,32 51,32 54,35 54,36 55,37 55,38 54,39 40,39 40,40 41,41 41,42 46,42 47,41 55,41 56,40 59,43 59,44 60,45 58,47 49,47 48,48 39,48 40,49 40,50 41,51 42,51 43,50 52,50 53,49 59,49 60,48 62,48 63,49 63,50 69,56 68,57 66,57 65,56 63,56 62,55 51,55 50,56 47,56 46,57 45,57 42,60 42,65 43,66 43,67 44,67 46,69 48,69 49,70 53,70 54,71 70,71 70,68 69,68 68,69 55,69 54,68 50,68 49,67 48,67 45,64 45,61 47,59 48,59 49,58 51,58 52,57 61,57 62,58 66,58 67,59 68,59 69,60 70,60 71,61 72,61 74,59 75,59 70,54 70,53 65,48 66,47 69,47 70,46 73,46 74,45 77,45 78,44 78,43 77,42 77,41 76,42 74,42 73,43 71,43 70,44 68,44 67,45 64,45 60,41 60,40 61,39 65,39 66,38 69,38 70,37 72,37 72,36 71,35 71,34 70,34 69,35 67,35 66,36 64,36 63,37 59,37 57,35 57,33 56,32 56,31" stroke="black" stroke-width="1" /><polygon fill="none" id="3" points="81,28 80,29 79,29 81,31 82,31 84,33 84,34 85,35 87,35 88,34 88,33 87,32 86,32 82,28" stroke="black" stroke-width="1" /></svg>