<?xml version="1.0" encoding="utf-8" ?>
<svg baseProfile="full" height="100" version="1.1" width="100" xmlns="http://www.w3.org/2000/svg" xmlns:ev="http://www.w3.org/2001/xml-events" xmlns:xlink="http://www.w3.org/1999/xlink"><defs /><polygon fill="none" id="1" points="50,32 49,33 52,36 52,37 53,38 53,39 54,39 55,38 55,37 53,35 53,34 51,32" stroke="black" stroke-width="1" /><polygon fill="none" id="2" points="35,31 34,32 35,33 35,34 36,35 36,36 37,37 35,39 27,39 27,42 30,42 31,41 36,41 37,40 39,42 39,44 40,45 38,47 33,47 32,48 26,48 26,49 27,50 27,51 28,51 29,50 35,50 36,49 39,49 40,48 41,48 42,49 42,50 43,51 43,52 44,53 44,54 46,56 45,57 44,57 43,56 42,56 41,55 34,55 33,56 31,56 29,58 29,59 28,60 28,66 32,70 35,70 36,71 46,71 46,68 45,69 37,69 36,68 33,68 30,65 30,60 32,58 34,58 35,57 41,57 42,58 43,58 44,59 45,59 47,61 48,61 49,60 49,58 48,57 48,56 47,55 47,54 45,52 45,51 44,50 44,49 43,48 44,47 46,47 47,46 48,46 49,45 51,45 52,44 52,43 51,42 51,41 50,42 49,42 48,43 47,43 46,44 45,44 44,45 42,45 41,44 41,42 40,41 40,40 41,39 43,39 44,38 46,38 47,37 48,37 48,36 47,35 47,34 46,35 45,35 44,36 43,36 42,37 39,37 38,36 38,34 37,33 37,31" stroke="black" stroke-width="1" /><polygon fill="none" id="3" points="54,28 53,29 53,30 56,33 56,34 57,35 58,35 59,34 57,32 57,31" stroke="black" stroke-width="1" /></svg>