<?xml version="1.0" encoding="utf-8" ?>
<svg baseProfile="full" height="100" version="1.1" width="100" xmlns="http://www.w3.org/2000/svg" xmlns:ev="http://www.w3.org/2001/xml-events" xmlns:xlink="http://www.w3.org/1999/xlink"><defs /><polygon fill="none" id="1" points="36,32 36,40 35,41 28,41 28,46 35,46 36,47 36,52 34,54 33,54 31,56 30,56 29,57 29,58 27,60 27,67 28,68 28,69 29,70 30,70 31,71 32,71 33,72 39,72 41,70 41,56 42,55 45,55 46,54 51,54 52,55 53,55 56,58 56,62 52,66 51,66 50,67 43,67 43,70 44,71 44,72 51,72 52,71 54,71 55,70 56,70 57,69 58,69 59,68 59,67 60,66 60,65 61,64 61,56 60,55 60,54 58,52 57,52 56,51 55,51 54,50 43,50 42,51 41,50 41,46 43,44 48,44 49,43 49,41 50,40 51,40 54,43 55,43 57,45 57,46 59,48 61,48 63,46 63,43 59,39 58,39 54,35 52,35 50,37 50,38 49,39 44,39 43,40 42,40 41,39 41,32" stroke="black" stroke-width="1" /><polygon fill="none" id="2" points="35,59 36,60 36,67 35,68 31,64 32,63 32,62" stroke="black" stroke-width="1" /></svg>