<?xml version="1.0" encoding="utf-8" ?>
<svg baseProfile="full" height="100" version="1.1" width="100" xmlns="http://www.w3.org/2000/svg" xmlns:ev="http://www.w3.org/2001/xml-events" xmlns:xlink="http://www.w3.org/1999/xlink"><defs /><polygon fill="none" id="1" points="54,28 53,29 53,31 52,32 50,32 48,34 47,34 46,35 45,35 44,36 43,36 42,37 40,37 39,36 39,34 38,33 38,31 35,31 34,32 34,33 35,34 35,35 36,36 36,38 35,39 27,39 27,43 31,43 32,42 38,42 39,43 39,46 38,47 33,47 32,48 26,48 26,50 27,51 27,52 29,52 30,51 36,51 37,50 40,50 41,49 42,50 42,51 43,52 43,53 44,54 44,55 43,56 42,55 34,55 33,56 31,56 29,58 29,59 28,60 28,67 32,71 35,71 36,72 47,72 47,68 46,68 45,69 38,69 37,68 34,68 31,65 31,61 33,59 35,59 36,58 41,58 42,59 43,59 44,60 45,60 47,62 49,62 50,61 50,58 49,57 49,56 48,55 48,54 46,52 46,51 45,50 45,49 46,48 47,48 48,47 49,47 50,46 52,46 53,45 53,43 52,42 52,41 53,40 55,40 56,39 56,37 57,36 59,36 60,35 60,34 58,32 58,31 55,28" stroke="black" stroke-width="1" /><polygon fill="none" id="2" points="55,36 56,35 57,36 56,37" stroke="black" stroke-width="1" /><polygon fill="none" id="3" points="49,36 50,35 52,37 52,38 53,39 53,40 52,41 51,41 50,42 49,42 48,43 47,43 46,44 45,44 44,45 43,45 42,44 42,42 41,41 42,40 44,40 45,39 47,39 48,38 49,38" stroke="black" stroke-width="1" /><polygon fill="none" id="4" points="48,35 49,34 50,35 49,36" stroke="black" stroke-width="1" /><polygon fill="none" id="5" points="54,34 55,33 56,34 56,35 55,36 54,35" stroke="black" stroke-width="1" /><polygon fill="none" id="6" points="53,33 54,32 55,33 54,34" stroke="black" stroke-width="1" /><polygon fill="none" id="7" points="52,32 53,31 54,32 53,33" stroke="black" stroke-width="1" /></svg>