<?xml version="1.0" encoding="utf-8" ?>
<svg baseProfile="full" height="100" version="1.1" width="100" xmlns="http://www.w3.org/2000/svg" xmlns:ev="http://www.w3.org/2001/xml-events" xmlns:xlink="http://www.w3.org/1999/xlink"><defs /><polygon fill="none" id="1" points="44,31 43,32 43,33 44,34 44,35 45,36 45,37 46,38 45,39 33,39 33,40 34,41 34,43 39,43 40,42 46,42 47,41 48,42 48,43 49,44 49,46 48,47 41,47 40,48 33,48 33,51 34,52 36,52 37,51 44,51 45,50 50,50 51,49 53,51 53,52 55,54 55,55 54,56 53,55 42,55 41,56 39,56 35,60 35,66 36,67 36,68 38,70 40,70 41,71 44,71 45,72 59,72 59,68 58,68 57,69 47,69 46,68 43,68 42,67 41,67 39,65 39,64 38,63 39,62 39,61 40,60 41,60 42,59 43,59 44,58 51,58 52,59 55,59 56,60 57,60 59,62 61,62 63,60 63,59 62,58 62,57 59,54 59,53 57,51 57,50 56,49 57,48 58,48 59,47 62,47 63,46 65,46 66,45 66,43 65,42 65,41 64,41 63,42 62,42 61,43 59,43 58,44 57,44 56,45 54,45 53,44 53,43 51,41 52,40 55,40 56,39 58,39 59,38 61,38 61,36 60,35 60,34 58,34 57,35 56,35 55,36 53,36 52,37 50,37 49,36 49,35 48,34 48,33 47,32 47,31" stroke="black" stroke-width="1" /><polygon fill="none" id="2" points="68,28 67,29 66,29 66,30 70,34 70,35 69,36 65,32 63,32 62,33 62,34 65,37 65,38 67,40 69,40 70,39 70,37 71,36 74,36 75,35 75,34 69,28" stroke="black" stroke-width="1" /><polygon fill="none" id="3" points="69,36 70,35 71,36 70,37" stroke="black" stroke-width="1" /></svg>