<?xml version="1.0" encoding="utf-8" ?>
<svg baseProfile="full" height="100" version="1.1" width="100" xmlns="http://www.w3.org/2000/svg" xmlns:ev="http://www.w3.org/2001/xml-events" xmlns:xlink="http://www.w3.org/1999/xlink"><defs /><polygon fill="none" id="1" points="49,31 48,32 47,32 47,33 48,34 48,35 50,37 50,38 49,39 37,39 37,43 43,43 44,42 51,42 52,41 53,42 53,43 54,44 54,46 53,47 45,47 44,48 36,48 36,50 37,51 37,52 39,52 40,51 49,51 50,50 55,50 56,49 59,52 59,53 61,55 60,56 59,56 58,55 46,55 45,56 43,56 41,58 40,58 39,59 39,60 38,61 38,65 39,66 39,67 42,70 44,70 45,71 49,71 50,72 65,72 65,68 63,68 62,69 52,69 51,68 47,68 46,67 45,67 43,65 43,64 42,63 43,62 43,61 44,60 45,60 46,59 48,59 49,58 56,58 57,59 60,59 61,60 63,60 65,62 67,62 69,60 69,59 68,58 68,57 65,54 65,53 61,49 62,48 64,48 65,47 68,47 69,46 71,46 72,45 73,45 73,43 72,42 68,42 67,43 65,43 64,44 62,44 61,45 59,45 58,44 58,43 56,41 57,40 61,40 62,39 64,39 65,38 67,38 67,36 66,35 66,34 64,34 63,35 62,35 61,36 59,36 58,37 55,37 54,36 54,35 53,34 53,33 52,32 52,31" stroke="black" stroke-width="1" /><polygon fill="none" id="2" points="74,28 73,29 73,31 72,32 69,32 68,33 68,34 73,39 73,40 76,40 77,39 77,37 78,36 81,36 82,35 82,34 76,28" stroke="black" stroke-width="1" /><polygon fill="none" id="3" points="76,36 77,35 78,36 77,37" stroke="black" stroke-width="1" /><polygon fill="none" id="4" points="72,32 73,31 74,31 77,34 77,35 76,36" stroke="black" stroke-width="1" /></svg>