<?xml version="1.0" encoding="utf-8" ?>
<svg baseProfile="full" height="100" version="1.1" width="100" xmlns="http://www.w3.org/2000/svg" xmlns:ev="http://www.w3.org/2001/xml-events" xmlns:xlink="http://www.w3.org/1999/xlink"><defs /><polygon fill="none" id="1" points="53,31 52,32 51,32 51,33 54,36 54,37 55,38 54,39 40,39 40,41 41,42 41,43 47,43 48,42 57,42 59,44 59,46 58,47 49,47 48,48 39,48 39,49 40,50 40,51 41,52 43,52 44,51 53,51 54,50 60,50 61,49 62,49 63,50 63,51 67,55 66,56 64,56 63,55 51,55 50,56 47,56 46,57 45,57 42,60 42,66 43,67 43,68 44,68 46,70 48,70 49,71 53,71 54,72 71,72 71,68 69,68 68,69 56,69 55,68 51,68 50,67 49,67 46,64 46,62 48,60 49,60 50,59 52,59 53,58 61,58 62,59 66,59 67,60 68,60 69,61 70,61 71,62 73,62 75,60 76,60 76,59 71,54 71,53 67,49 68,48 70,48 71,47 74,47 75,46 78,46 79,45 79,43 78,42 78,41 77,41 76,42 74,42 73,43 71,43 70,44 68,44 67,45 65,45 61,41 62,40 66,40 67,39 70,39 71,38 73,38 73,36 72,35 72,34 70,34 69,35 67,35 66,36 64,36 63,37 60,37 58,35 58,33 57,32 57,31" stroke="black" stroke-width="1" /><polygon fill="none" id="2" points="66,56 67,55 68,56 67,57" stroke="black" stroke-width="1" /><polygon fill="none" id="3" points="81,28 80,29 79,29 79,30 81,32 82,32 84,34 84,35 83,36 82,35 81,35 78,32 75,32 74,33 74,34 76,36 77,36 78,37 78,38 80,40 83,40 84,39 84,37 85,36 88,36 89,35 89,33 88,32 87,32 83,28" stroke="black" stroke-width="1" /><polygon fill="none" id="4" points="83,36 84,35 85,36 84,37" stroke="black" stroke-width="1" /></svg>