<?xml version="1.0" encoding="utf-8" ?>
<svg baseProfile="full" height="100" version="1.1" width="100" xmlns="http://www.w3.org/2000/svg" xmlns:ev="http://www.w3.org/2001/xml-events" xmlns:xlink="http://www.w3.org/1999/xlink"><defs /><polygon fill="none" id="1" points="51,33 51,34 53,36 53,37 54,38 54,39 55,38 53,36 53,35" stroke="black" stroke-width="1" /><polygon fill="none" id="2" points="36,32 36,34 37,35 37,36 38,37 38,38 36,40 28,40 28,42 30,42 31,41 36,41 37,40 38,40 40,42 40,44 41,45 41,46 39,48 34,48 33,49 27,49 28,50 28,51 29,50 35,50 36,49 39,49 40,48 42,48 43,49 43,50 44,51 44,52 45,53 45,54 47,56 47,57 46,58 44,58 43,57 42,57 41,56 35,56 34,57 32,57 30,59 30,60 29,61 29,66 33,70 36,70 37,71 46,71 46,70 37,70 36,69 33,69 30,66 30,60 32,58 34,58 35,57 42,57 43,58 44,58 45,59 46,59 48,61 49,60 49,59 48,58 48,57 47,56 47,55 45,53 45,52 44,51 44,50 43,49 43,48 44,47 46,47 47,46 48,46 49,45 51,45 52,44 51,43 50,43 49,44 48,44 47,45 46,45 45,46 42,46 41,45 41,43 40,42 40,40 41,39 43,39 44,38 46,38 47,37 48,37 47,36 46,36 45,37 44,37 43,38 39,38 38,37 38,35 37,34 37,32" stroke="black" stroke-width="1" /><polygon fill="none" id="3" points="54,30 57,33 57,34 58,35 58,34 57,33 57,32 55,30" stroke="black" stroke-width="1" /></svg>