<?xml version="1.0" encoding="utf-8" ?>
<svg baseProfile="full" height="100" version="1.1" width="100" xmlns="http://www.w3.org/2000/svg" xmlns:ev="http://www.w3.org/2001/xml-events" xmlns:xlink="http://www.w3.org/1999/xlink"><defs /><polygon fill="none" id="1" points="57,33 57,34 60,37 60,38 61,39 62,38 59,35 59,34 58,33" stroke="black" stroke-width="1" /><polygon fill="none" id="2" points="41,32 40,33 41,34 41,35 42,36 42,39 41,40 31,40 31,41 32,42 34,42 35,41 40,41 41,40 43,40 44,41 44,42 45,43 45,44 46,45 46,46 44,48 38,48 37,49 31,49 31,51 32,50 39,50 40,49 44,49 45,48 47,48 49,50 49,51 50,52 50,53 52,55 52,57 51,58 50,58 49,57 47,57 46,56 39,56 38,57 36,57 33,60 33,61 32,62 32,64 33,65 33,66 34,67 34,68 35,68 36,69 37,69 38,70 41,70 42,71 52,71 52,70 41,70 40,69 38,69 37,68 36,68 34,66 34,60 35,59 36,59 37,58 38,58 39,57 47,57 48,58 50,58 51,59 52,59 54,61 55,60 55,59 54,58 54,57 52,55 52,54 51,53 51,52 49,50 49,48 50,47 52,47 53,46 55,46 56,45 57,45 58,44 58,43 57,43 56,44 54,44 53,45 52,45 51,46 48,46 46,44 46,43 45,42 45,40 46,39 49,39 50,38 52,38 53,37 54,37 53,36 53,35 52,36 51,36 50,37 49,37 48,38 44,38 43,37 43,36 42,35 42,33" stroke="black" stroke-width="1" /><polygon fill="none" id="3" points="61,30 64,33 64,34 65,35 66,34 62,30" stroke="black" stroke-width="1" /></svg>