<?xml version="1.0" encoding="utf-8" ?>
<svg baseProfile="full" height="100" version="1.1" width="100" xmlns="http://www.w3.org/2000/svg" xmlns:ev="http://www.w3.org/2001/xml-events" xmlns:xlink="http://www.w3.org/1999/xlink"><defs /><polygon fill="none" id="1" points="64,33 64,34 66,36 66,37 68,39 69,38" stroke="black" stroke-width="1" /><polygon fill="none" id="2" points="45,32 45,34 46,35 46,36 47,37 47,39 46,40 35,40 35,42 38,42 39,41 45,41 46,40 48,40 49,41 49,42 50,43 50,44 51,45 51,46 49,48 42,48 41,49 34,49 34,50 35,51 36,50 43,50 44,49 49,49 50,48 52,48 54,50 54,51 56,53 56,54 58,56 58,57 57,58 55,58 54,57 53,57 52,56 43,56 42,57 40,57 36,61 36,65 37,66 37,67 39,69 41,69 42,70 45,70 46,71 58,71 58,70 46,70 45,69 42,69 41,68 40,68 38,66 38,65 37,64 37,62 38,61 38,60 39,59 40,59 41,58 42,58 43,57 52,57 53,58 56,58 57,59 58,59 60,61 61,60 61,58 58,55 58,54 56,52 56,51 54,49 54,48 55,47 57,47 58,46 61,46 62,45 64,45 65,44 64,43 63,43 62,44 60,44 59,45 58,45 57,46 53,46 52,45 52,44 50,42 50,40 51,39 54,39 55,38 57,38 58,37 60,37 59,36 59,35 58,36 57,36 56,37 54,37 53,38 49,38 48,37 48,36 47,35 47,34 46,33 46,32" stroke="black" stroke-width="1" /><polygon fill="none" id="3" points="68,30 71,33 71,34 72,35 73,35 73,34 69,30" stroke="black" stroke-width="1" /></svg>