<?xml version="1.0" encoding="utf-8" ?>
<svg baseProfile="full" height="100" version="1.1" width="100" xmlns="http://www.w3.org/2000/svg" xmlns:ev="http://www.w3.org/2001/xml-events" xmlns:xlink="http://www.w3.org/1999/xlink"><defs /><polygon fill="none" id="1" points="70,33 70,34 74,38 74,39 75,39 76,38 71,33" stroke="black" stroke-width="1" /><polygon fill="none" id="2" points="50,32 49,33 49,34 52,37 52,38 50,40 38,40 38,42 42,42 43,41 50,41 51,40 53,40 54,41 54,42 55,43 55,44 56,45 56,46 54,48 46,48 45,49 37,49 38,50 38,51 39,50 48,50 49,49 54,49 55,48 57,48 60,51 60,52 64,56 64,57 63,58 61,58 60,57 58,57 57,56 47,56 46,57 44,57 42,59 41,59 40,60 40,61 39,62 39,64 40,65 40,66 43,69 45,69 46,70 50,70 51,71 64,71 64,69 63,70 51,70 50,69 46,69 45,68 44,68 42,66 42,65 41,64 41,62 42,61 42,60 43,59 44,59 45,58 47,58 48,57 57,57 58,58 61,58 62,59 64,59 66,61 67,60 67,58 64,55 64,54 60,50 60,48 61,47 63,47 64,46 67,46 68,45 70,45 71,44 72,44 71,43 69,43 68,44 66,44 65,45 63,45 62,46 58,46 57,45 57,44 55,42 55,40 56,39 60,39 61,38 63,38 64,37 66,37 65,36 65,35 64,36 63,36 62,37 60,37 59,38 54,38 53,37 53,36 52,35 52,34 51,33 51,32" stroke="black" stroke-width="1" /><polygon fill="none" id="3" points="75,29 74,30 75,30 78,33 78,34 79,35 80,35 80,34" stroke="black" stroke-width="1" /></svg>