<?xml version="1.0" encoding="utf-8" ?>
<svg baseProfile="full" height="100" version="1.1" width="100" xmlns="http://www.w3.org/2000/svg" xmlns:ev="http://www.w3.org/2001/xml-events" xmlns:xlink="http://www.w3.org/1999/xlink"><defs /><polygon fill="none" id="1" points="58,35 56,37 56,40 57,40 59,42 60,42 66,48 68,48 70,46 70,43 68,41 67,41 64,38 63,38 60,35" stroke="black" stroke-width="1" /><polygon fill="none" id="2" points="40,32 40,39 41,40 40,41 31,41 31,46 38,46 39,45 40,45 41,46 41,47 40,48 40,51 41,52 40,53 39,53 38,54 37,54 36,55 35,55 31,59 31,60 30,61 30,67 34,71 35,71 36,72 44,72 45,71 45,56 46,55 50,55 51,54 57,54 58,55 59,55 60,56 61,56 62,57 62,58 63,59 63,61 58,66 56,66 55,67 48,67 48,70 49,71 49,72 57,72 58,71 60,71 61,70 62,70 63,69 64,69 67,66 67,65 68,64 68,56 66,54 66,53 65,53 63,51 61,51 60,50 48,50 47,51 46,51 45,50 45,46 46,45 47,45 48,44 53,44 54,43 54,38 52,38 51,39 49,39 48,40 46,40 45,39 45,32" stroke="black" stroke-width="1" /><polygon fill="none" id="3" points="40,58 41,59 41,60 40,61 40,65 41,66 39,68 38,67 37,67 35,65 35,63" stroke="black" stroke-width="1" /></svg>