<?xml version="1.0" encoding="utf-8" ?>
<svg baseProfile="full" height="100" version="1.1" width="100" xmlns="http://www.w3.org/2000/svg" xmlns:ev="http://www.w3.org/2001/xml-events" xmlns:xlink="http://www.w3.org/1999/xlink"><defs /><polygon fill="none" id="1" points="76,33 76,34 77,35 78,35 79,36 79,37 81,39 82,39 83,38 81,36 80,36 77,33" stroke="black" stroke-width="1" /><polygon fill="none" id="2" points="54,32 53,33 55,35 55,36 56,37 56,39 55,40 41,40 42,41 42,42 46,42 47,41 55,41 56,40 57,40 60,43 60,44 61,45 61,46 59,48 50,48 49,49 41,49 41,50 42,51 43,50 52,50 53,49 59,49 60,48 63,48 64,49 64,50 70,56 70,57 69,58 66,58 65,57 63,57 62,56 52,56 51,57 48,57 47,58 46,58 43,61 43,65 44,66 44,67 45,67 47,69 49,69 50,70 54,70 55,71 70,71 70,69 69,70 55,70 54,69 50,69 49,68 48,68 45,65 45,61 47,59 48,59 49,58 51,58 52,57 62,57 63,58 67,58 68,59 69,59 70,60 71,60 72,61 74,59 70,55 70,54 65,49 65,48 66,47 69,47 70,46 73,46 74,45 77,45 78,44 77,43 75,43 74,44 72,44 71,45 69,45 68,46 64,46 60,42 60,40 61,39 65,39 66,38 69,38 70,37 72,37 71,36 71,35 70,36 68,36 67,37 65,37 64,38 59,38 57,36 57,34 56,33 56,32" stroke="black" stroke-width="1" /><polygon fill="none" id="3" points="82,29 81,30 82,31 83,31 85,33 85,34 86,35 87,35 88,34 87,33 86,33" stroke="black" stroke-width="1" /></svg>