<?xml version="1.0" encoding="utf-8" ?>
<svg baseProfile="full" height="100" version="1.1" width="100" xmlns="http://www.w3.org/2000/svg" xmlns:ev="http://www.w3.org/2001/xml-events" xmlns:xlink="http://www.w3.org/1999/xlink"><defs /><polygon fill="none" id="1" points="53,27 52,28 52,30 51,31 49,31 47,33 46,33 45,34 44,34 43,35 42,35 41,36 40,36 39,35 39,33 38,32 38,30 34,30 33,31 33,33 34,34 34,35 35,36 35,37 34,38 26,38 26,43 31,43 32,42 37,42 38,43 38,45 37,46 32,46 31,47 25,47 25,50 26,51 26,52 29,52 30,51 36,51 37,50 40,50 42,52 42,53 41,54 33,54 32,55 30,55 28,57 28,58 27,59 27,67 31,71 34,71 35,72 47,72 47,67 45,67 44,68 38,68 37,67 34,67 31,64 31,61 33,59 35,59 36,58 40,58 41,59 42,59 43,60 44,60 46,62 49,62 50,61 50,57 49,56 49,55 48,54 48,53 46,51 46,50 45,49 46,48 47,48 48,47 49,47 50,46 52,46 53,45 53,42 52,41 53,40 55,40 56,39 56,37 57,36 59,36 60,35 60,33 58,31 58,30 55,27" stroke="black" stroke-width="1" /><polygon fill="none" id="2" points="49,37 50,36 51,37 51,38 52,39 51,40 50,40 49,41 48,41 47,42 46,42 45,43 44,43 43,44 42,43 42,41 43,40 44,40 45,39 47,39 48,38 49,38" stroke="black" stroke-width="1" /></svg>