<?xml version="1.0" encoding="utf-8" ?>
<svg baseProfile="full" height="100" version="1.1" width="100" xmlns="http://www.w3.org/2000/svg" xmlns:ev="http://www.w3.org/2001/xml-events" xmlns:xlink="http://www.w3.org/1999/xlink"><defs /><polygon fill="none" id="1" points="60,27 59,28 59,30 58,31 55,31 55,32 54,33 51,33 50,34 49,34 48,35 47,35 46,36 45,36 44,35 44,34 43,33 43,31 42,30 39,30 38,31 38,34 39,35 39,36 40,37 39,38 29,38 29,42 30,43 35,43 36,42 41,42 43,44 43,45 42,46 36,46 35,47 29,47 29,52 32,52 33,51 40,51 41,50 46,50 47,51 47,52 48,53 47,54 37,54 36,55 34,55 31,58 31,59 30,60 30,65 31,66 31,67 32,68 32,69 33,69 34,70 35,70 36,71 39,71 40,72 53,72 53,67 51,67 50,68 42,68 41,67 39,67 38,66 37,66 35,64 35,61 36,60 37,60 38,59 39,59 40,58 45,58 46,59 48,59 49,60 50,60 52,62 55,62 57,60 57,58 55,56 55,55 53,53 53,52 52,51 52,50 51,49 52,48 53,48 54,47 56,47 57,46 58,46 59,45 60,45 60,43 59,42 59,41 60,40 62,40 63,39 63,37 64,36 66,36 67,35 67,32 62,27" stroke="black" stroke-width="1" /><polygon fill="none" id="2" points="55,37 56,36 58,38 58,39 59,40 58,41 55,41 54,42 52,42 51,43 50,43 49,44 47,42 47,41 48,40 50,40 51,39 53,39 54,38 55,38" stroke="black" stroke-width="1" /></svg>