<?xml version="1.0" encoding="utf-8" ?>
<svg baseProfile="full" height="100" version="1.1" width="100" xmlns="http://www.w3.org/2000/svg" xmlns:ev="http://www.w3.org/2001/xml-events" xmlns:xlink="http://www.w3.org/1999/xlink"><defs /><polygon fill="none" id="1" points="67,27 66,28 65,28 65,30 64,31 62,31 60,33 57,33 56,34 55,34 54,35 52,35 51,36 50,36 49,35 49,34 48,33 48,32 47,31 47,30 43,30 42,31 42,33 43,34 43,35 44,36 44,37 43,38 32,38 32,40 33,41 33,43 39,43 40,42 46,42 48,44 48,45 47,46 40,46 39,47 32,47 32,51 33,52 36,52 37,51 44,51 45,50 51,50 52,51 52,52 53,53 52,54 41,54 40,55 38,55 34,59 34,66 35,67 35,68 37,70 39,70 40,71 43,71 44,72 59,72 59,67 57,67 56,68 47,68 46,67 43,67 42,66 41,66 39,64 39,61 40,60 41,60 42,59 43,59 44,58 50,58 51,59 54,59 55,60 56,60 58,62 61,62 63,60 63,58 62,57 62,56 59,53 59,52 57,50 57,49 59,47 62,47 63,46 65,46 66,45 66,42 65,41 66,40 69,40 70,39 70,37 71,36 74,36 75,35 75,33 69,27" stroke="black" stroke-width="1" /><polygon fill="none" id="2" points="61,36 62,35 64,37 64,38 65,39 64,40 63,40 62,41 61,41 60,42 58,42 57,43 56,43 55,44 54,44 53,43 53,42 52,41 53,40 55,40 56,39 58,39 59,38 61,38" stroke="black" stroke-width="1" /></svg>