<?xml version="1.0" encoding="utf-8" ?>
<svg baseProfile="full" height="100" version="1.1" width="100" xmlns="http://www.w3.org/2000/svg" xmlns:ev="http://www.w3.org/2001/xml-events" xmlns:xlink="http://www.w3.org/1999/xlink"><defs /><polygon fill="none" id="1" points="73,27 72,28 72,30 71,31 68,31 66,33 63,33 62,34 61,34 60,35 58,35 57,36 55,36 54,35 54,34 53,33 53,32 52,31 52,30 48,30 47,31 46,31 46,33 47,34 47,35 49,37 48,38 36,38 36,43 43,43 44,42 51,42 53,44 53,45 52,46 44,46 43,47 35,47 35,50 36,51 36,52 39,52 40,51 49,51 50,50 56,50 58,52 58,53 57,54 45,54 44,55 42,55 40,57 39,57 38,58 38,59 37,60 37,65 38,66 38,67 41,70 43,70 44,71 48,71 49,72 65,72 65,67 62,67 61,68 52,68 51,67 47,67 46,66 45,66 43,64 43,61 44,60 45,60 46,59 48,59 49,58 55,58 56,59 59,59 60,60 62,60 64,62 67,62 69,60 69,58 68,57 68,56 65,53 65,52 62,49 63,48 64,48 65,47 68,47 69,46 71,46 72,45 73,45 73,42 72,41 73,40 76,40 77,39 77,37 78,36 81,36 82,35 82,33 76,27" stroke="black" stroke-width="1" /><polygon fill="none" id="2" points="67,36 68,35 72,39 72,40 71,41 67,41 66,42 64,42 63,43 61,43 60,44 59,44 58,43 58,42 57,41 58,40 61,40 62,39 64,39 65,38 67,38" stroke="black" stroke-width="1" /></svg>