<?xml version="1.0" encoding="utf-8" ?>
<svg baseProfile="full" height="100" version="1.1" width="100" xmlns="http://www.w3.org/2000/svg" xmlns:ev="http://www.w3.org/2001/xml-events" xmlns:xlink="http://www.w3.org/1999/xlink"><defs /><polygon fill="none" id="1" points="80,27 79,28 78,28 78,30 77,31 74,31 72,33 69,33 68,34 66,34 65,35 63,35 62,36 60,36 58,34 58,32 57,31 57,30 52,30 51,31 50,31 50,33 53,36 53,37 52,38 39,38 39,41 40,42 40,43 47,43 48,42 56,42 58,44 58,45 57,46 48,46 47,47 38,47 38,49 39,50 39,51 40,52 43,52 44,51 53,51 54,50 60,50 61,49 62,50 62,51 64,53 63,54 50,54 49,55 46,55 45,56 44,56 41,59 41,66 42,67 42,68 43,68 45,70 47,70 48,71 52,71 53,72 71,72 71,67 68,67 67,68 56,68 55,67 51,67 50,66 49,66 46,63 46,62 48,60 49,60 50,59 52,59 53,58 60,58 61,59 65,59 66,60 67,60 68,61 69,61 70,62 73,62 75,60 76,60 76,58 71,53 71,52 68,49 69,48 70,48 71,47 74,47 75,46 78,46 79,45 79,42 78,41 79,40 83,40 84,39 84,37 85,36 88,36 89,35 89,32 88,31 87,31 83,27" stroke="black" stroke-width="1" /><polygon fill="none" id="2" points="63,54 64,53 65,54 64,55" stroke="black" stroke-width="1" /><polygon fill="none" id="3" points="73,36 74,35 75,36 76,36 77,37 77,38 78,39 77,40 76,40 75,41 73,41 72,42 70,42 69,43 67,43 66,44 65,44 62,41 63,40 66,40 67,39 70,39 71,38 73,38" stroke="black" stroke-width="1" /><polygon fill="none" id="4" points="80,33 81,32 82,33 81,34" stroke="black" stroke-width="1" /></svg>