<?xml version="1.0" encoding="utf-8" ?>
<svg baseProfile="full" height="100" version="1.1" width="100" xmlns="http://www.w3.org/2000/svg" xmlns:ev="http://www.w3.org/2001/xml-events" xmlns:xlink="http://www.w3.org/1999/xlink"><defs /><polygon fill="none" id="1" points="37,70 45,70" stroke="black" stroke-width="1" /><polygon fill="none" id="2" points="33,69 35,69" stroke="black" stroke-width="1" /><polygon fill="none" id="3" points="29,61 29,65" stroke="black" stroke-width="1" /><polygon fill="none" id="4" points="47,57 46,58 45,58 46,58 47,59 48,59 47,58" stroke="black" stroke-width="1" /><polygon fill="none" id="5" points="32,57 33,57" stroke="black" stroke-width="1" /><polygon fill="none" id="6" points="35,56 40,56" stroke="black" stroke-width="1" /><polygon fill="none" id="7" points="34,48 33,49 28,49 34,49 35,48 38,48" stroke="black" stroke-width="1" /><polygon fill="none" id="8" points="50,43 49,44 48,44 47,45 46,45 45,46 41,46 40,47 42,47 43,46 45,46 46,45 47,45 48,44 50,44" stroke="black" stroke-width="1" /><polygon fill="none" id="9" points="40,43" stroke="black" stroke-width="1" /><polygon fill="none" id="10" points="28,40 28,41 29,41 30,40 35,40" stroke="black" stroke-width="1" /><polygon fill="none" id="11" points="38,38 37,39 38,39 39,40 39,39 40,38 42,38" stroke="black" stroke-width="1" /><polygon fill="none" id="12" points="46,36 45,37 44,37 45,37" stroke="black" stroke-width="1" /><polygon fill="none" id="13" points="37,35" stroke="black" stroke-width="1" /><polygon fill="none" id="14" points="36,32 36,33" stroke="black" stroke-width="1" /></svg>