<?xml version="1.0" encoding="utf-8" ?>
<svg baseProfile="full" height="100" version="1.1" width="100" xmlns="http://www.w3.org/2000/svg" xmlns:ev="http://www.w3.org/2001/xml-events" xmlns:xlink="http://www.w3.org/1999/xlink"><defs /><polygon fill="none" id="1" points="42,70 51,70" stroke="black" stroke-width="1" /><polygon fill="none" id="2" points="38,69 39,69" stroke="black" stroke-width="1" /><polygon fill="none" id="3" points="36,68" stroke="black" stroke-width="1" /><polygon fill="none" id="4" points="34,67" stroke="black" stroke-width="1" /><polygon fill="none" id="5" points="33,60 33,61 32,62 32,63 33,64 33,65" stroke="black" stroke-width="1" /><polygon fill="none" id="6" points="48,57" stroke="black" stroke-width="1" /><polygon fill="none" id="7" points="36,57 35,58 36,57 37,57" stroke="black" stroke-width="1" /><polygon fill="none" id="8" points="52,56 52,57 51,58 52,58 53,59 54,59 53,58 53,57" stroke="black" stroke-width="1" /><polygon fill="none" id="9" points="39,56 45,56" stroke="black" stroke-width="1" /><polygon fill="none" id="10" points="50,52" stroke="black" stroke-width="1" /><polygon fill="none" id="11" points="38,48 37,49 31,49 38,49 39,48 43,48" stroke="black" stroke-width="1" /><polygon fill="none" id="12" points="57,43 56,44 54,44 53,45 52,45 51,46 47,46 46,45 46,46 45,47 47,47 48,48 48,47 49,46 51,46 52,45 54,45 55,44 56,44" stroke="black" stroke-width="1" /><polygon fill="none" id="13" points="45,43" stroke="black" stroke-width="1" /><polygon fill="none" id="14" points="31,40 32,41 33,41 34,40 39,40" stroke="black" stroke-width="1" /><polygon fill="none" id="15" points="60,37" stroke="black" stroke-width="1" /><polygon fill="none" id="16" points="42,36 42,39 43,39 44,40 44,41 44,39 45,38 48,38 49,37 51,37 52,36 51,36 50,37 49,37 48,38 43,38 42,37" stroke="black" stroke-width="1" /><polygon fill="none" id="17" points="64,33" stroke="black" stroke-width="1" /><polygon fill="none" id="18" points="57,33 58,34" stroke="black" stroke-width="1" /><polygon fill="none" id="19" points="41,33 41,34" stroke="black" stroke-width="1" /></svg>