<?xml version="1.0" encoding="utf-8" ?>
<svg baseProfile="full" height="100" version="1.1" width="100" xmlns="http://www.w3.org/2000/svg" xmlns:ev="http://www.w3.org/2001/xml-events" xmlns:xlink="http://www.w3.org/1999/xlink"><defs /><polygon fill="none" id="1" points="46,70 57,70" stroke="black" stroke-width="1" /><polygon fill="none" id="2" points="42,69 44,69" stroke="black" stroke-width="1" /><polygon fill="none" id="3" points="37,60 36,61 36,64 37,65 37,66 39,68 40,68 39,68 37,66 37,65 36,64 36,61" stroke="black" stroke-width="1" /><polygon fill="none" id="4" points="53,57" stroke="black" stroke-width="1" /><polygon fill="none" id="5" points="40,57 39,58 40,57 41,57" stroke="black" stroke-width="1" /><polygon fill="none" id="6" points="58,56 58,57 57,58 58,58 59,59 60,59 60,58" stroke="black" stroke-width="1" /><polygon fill="none" id="7" points="43,56 51,56" stroke="black" stroke-width="1" /><polygon fill="none" id="8" points="56,53 57,54" stroke="black" stroke-width="1" /><polygon fill="none" id="9" points="54,50 55,51" stroke="black" stroke-width="1" /><polygon fill="none" id="10" points="42,48 41,49 34,49 42,49 43,48 48,48" stroke="black" stroke-width="1" /><polygon fill="none" id="11" points="63,43 62,44 60,44 59,45 58,45 60,45 61,44 63,44" stroke="black" stroke-width="1" /><polygon fill="none" id="12" points="50,43 51,44 51,46 50,47 52,47 53,48 53,47 54,46 56,46 52,46 51,45 51,44" stroke="black" stroke-width="1" /><polygon fill="none" id="13" points="35,40 35,41 37,41 38,40 44,40" stroke="black" stroke-width="1" /><polygon fill="none" id="14" points="66,36 67,37" stroke="black" stroke-width="1" /><polygon fill="none" id="15" points="71,33 72,34" stroke="black" stroke-width="1" /><polygon fill="none" id="16" points="45,32 45,33 46,34 46,35 47,36 47,39 48,39 49,40 49,41 49,39 50,38 53,38 54,37 56,37 57,36 58,36 57,36 56,37 54,37 53,38 48,38 47,37 47,36 46,35 46,34 45,33" stroke="black" stroke-width="1" /></svg>