<?xml version="1.0" encoding="utf-8" ?>
<svg baseProfile="full" height="100" version="1.1" width="100" xmlns="http://www.w3.org/2000/svg" xmlns:ev="http://www.w3.org/2001/xml-events" xmlns:xlink="http://www.w3.org/1999/xlink"><defs /><polygon fill="none" id="1" points="51,70 63,70" stroke="black" stroke-width="1" /><polygon fill="none" id="2" points="46,69 49,69" stroke="black" stroke-width="1" /><polygon fill="none" id="3" points="41,59 40,60 40,61 39,62 39,63 40,64 40,65 43,68 44,68 43,68 41,66 41,65 40,64 40,61 41,60" stroke="black" stroke-width="1" /><polygon fill="none" id="4" points="58,57 59,57" stroke="black" stroke-width="1" /><polygon fill="none" id="5" points="64,56 64,57 63,58 62,58 64,58 65,59 66,59 66,58" stroke="black" stroke-width="1" /><polygon fill="none" id="6" points="47,56 46,57 44,57 43,58 44,57 46,57 47,56 56,56" stroke="black" stroke-width="1" /><polygon fill="none" id="7" points="60,51 63,54" stroke="black" stroke-width="1" /><polygon fill="none" id="8" points="46,48 45,49 38,49 47,49 48,48 53,48" stroke="black" stroke-width="1" /><polygon fill="none" id="9" points="55,43 56,44 56,46 55,47 57,47 59,49 59,47 60,46 62,46 63,45 66,45 67,44 69,44 70,43 69,43 68,44 66,44 65,45 63,45 62,46 57,46 56,45 56,44" stroke="black" stroke-width="1" /><polygon fill="none" id="10" points="38,40 38,41 41,41 42,40 49,40" stroke="black" stroke-width="1" /><polygon fill="none" id="11" points="78,33 79,34" stroke="black" stroke-width="1" /><polygon fill="none" id="12" points="70,33 74,37 74,38 74,37" stroke="black" stroke-width="1" /><polygon fill="none" id="13" points="50,32 49,33 52,36 52,38 51,39 53,39 54,40 54,41 54,39 55,38 59,38 60,37 62,37 63,36 64,36 63,36 62,37 60,37 59,38 53,38 52,37 52,36 51,35 51,34 50,33" stroke="black" stroke-width="1" /></svg>