<?xml version="1.0" encoding="utf-8" ?>
<svg baseProfile="full" height="100" version="1.1" width="100" xmlns="http://www.w3.org/2000/svg" xmlns:ev="http://www.w3.org/2001/xml-events" xmlns:xlink="http://www.w3.org/1999/xlink"><defs /><polygon fill="none" id="1" points="63,36 62,37 62,40 63,40 65,42 66,42 70,46 71,46 73,48 75,48 77,46 77,43 76,42 75,42 72,39 71,39 69,37 68,37 67,36" stroke="black" stroke-width="1" /><polygon fill="none" id="2" points="44,32 44,36 45,37 45,40 44,41 34,41 34,46 42,46 43,45 44,45 45,46 45,52 44,53 43,53 42,54 41,54 40,55 39,55 38,56 37,56 34,59 34,60 33,61 33,67 36,70 37,70 38,71 39,71 40,72 48,72 50,70 50,56 51,55 55,55 56,54 63,54 64,55 65,55 66,56 67,56 68,57 68,58 69,59 69,61 68,62 68,63 67,64 66,64 64,66 62,66 61,67 53,67 53,70 54,71 54,72 62,72 63,71 66,71 67,70 69,70 71,68 72,68 74,66 74,64 75,63 75,57 74,56 74,55 71,52 70,52 69,51 67,51 66,50 52,50 51,51 50,50 50,46 52,44 58,44 59,43 60,43 60,39 54,39 53,40 51,40 50,39 50,32" stroke="black" stroke-width="1" /><polygon fill="none" id="3" points="43,59 44,58 45,59 45,66 43,68 42,67 41,67 38,64 39,63 39,62 42,59" stroke="black" stroke-width="1" /></svg>