<?xml version="1.0" encoding="utf-8" ?>
<svg baseProfile="full" height="100" version="1.1" width="100" xmlns="http://www.w3.org/2000/svg" xmlns:ev="http://www.w3.org/2001/xml-events" xmlns:xlink="http://www.w3.org/1999/xlink"><defs /><polygon fill="none" id="1" points="55,70 69,70" stroke="black" stroke-width="1" /><polygon fill="none" id="2" points="50,69 53,69" stroke="black" stroke-width="1" /><polygon fill="none" id="3" points="63,57 64,57" stroke="black" stroke-width="1" /><polygon fill="none" id="4" points="48,57 47,58 46,58 43,61 43,64 44,65 44,66 45,66 47,68 48,68 47,68 44,65 44,60 46,58 47,58 48,57 50,57" stroke="black" stroke-width="1" /><polygon fill="none" id="5" points="70,56 70,57 69,58 68,58 69,58 70,59 72,59 72,58" stroke="black" stroke-width="1" /><polygon fill="none" id="6" points="52,56 61,56" stroke="black" stroke-width="1" /><polygon fill="none" id="7" points="50,48 49,49 41,49 51,49 52,48 58,48" stroke="black" stroke-width="1" /><polygon fill="none" id="8" points="60,43 61,44 61,46 60,47 63,47 64,48 64,49 69,54 64,49 64,47 65,46 68,46 69,45 72,45 73,44 76,44 76,43 75,43 74,44 72,44 71,45 69,45 68,46 63,46" stroke="black" stroke-width="1" /><polygon fill="none" id="9" points="42,40 42,41 45,41 46,40 54,40" stroke="black" stroke-width="1" /><polygon fill="none" id="10" points="79,36 81,38 81,37 80,36" stroke="black" stroke-width="1" /><polygon fill="none" id="11" points="85,33 86,34 86,33" stroke="black" stroke-width="1" /><polygon fill="none" id="12" points="76,33 77,34" stroke="black" stroke-width="1" /><polygon fill="none" id="13" points="54,32 54,33 55,34 55,35 56,36 56,39 57,39 59,41 59,39 60,38 64,38 65,37 68,37 69,36 70,36 68,36 67,37 65,37 64,38 58,38 56,36 56,34 55,33 55,32" stroke="black" stroke-width="1" /><polygon fill="none" id="14" points="82,30" stroke="black" stroke-width="1" /></svg>