<?xml version="1.0" encoding="utf-8" ?>
<svg baseProfile="full" height="100" version="1.1" width="100" xmlns="http://www.w3.org/2000/svg" xmlns:ev="http://www.w3.org/2001/xml-events" xmlns:xlink="http://www.w3.org/1999/xlink"><defs /><polygon fill="none" id="1" points="47,38 46,39 49,42 49,43 50,44 50,45 51,45 52,44 52,43 50,41 50,40 48,38" stroke="black" stroke-width="1" /><polygon fill="none" id="2" points="50,34 50,36 53,39 53,40 54,41 55,40 55,39 54,38 54,37 51,34" stroke="black" stroke-width="1" /><polygon fill="none" id="3" points="43,30 42,31 42,32 41,33 41,34 39,36 39,37 36,40 36,41 29,48 29,51 30,52 30,53 35,58 35,59 38,62 38,63 41,66 41,67 42,68 42,69 44,71 46,69 46,68 43,65 43,64 40,61 40,60 36,56 36,55 31,50 36,45 36,44 40,40 40,39 42,37 42,36 45,33 45,32" stroke="black" stroke-width="1" /></svg>