<?xml version="1.0" encoding="utf-8" ?>
<svg baseProfile="full" height="100" version="1.1" width="100" xmlns="http://www.w3.org/2000/svg" xmlns:ev="http://www.w3.org/2001/xml-events" xmlns:xlink="http://www.w3.org/1999/xlink"><defs /><polygon fill="none" id="1" points="70,38 69,39 70,39 75,44 75,45 77,45 78,44 78,43 73,38" stroke="black" stroke-width="1" /><polygon fill="none" id="2" points="76,34 75,35 74,35 75,36 76,36 80,40 80,41 82,41 83,40 83,39 79,35 78,35 77,34" stroke="black" stroke-width="1" /><polygon fill="none" id="3" points="64,30 63,31 63,32 54,41 53,41 50,44 49,44 46,47 45,47 43,49 43,51 44,52 45,52 49,56 50,56 55,61 56,61 66,71 67,71 69,69 70,69 65,64 64,64 58,58 57,58 54,55 53,55 50,52 49,52 47,50 50,47 51,47 53,45 54,45 57,42 58,42 68,32 67,32 66,31 65,31" stroke="black" stroke-width="1" /></svg>