<?xml version="1.0" encoding="utf-8" ?>
<svg baseProfile="full" height="100" version="1.1" width="100" xmlns="http://www.w3.org/2000/svg" xmlns:ev="http://www.w3.org/2001/xml-events" xmlns:xlink="http://www.w3.org/1999/xlink"><defs /><polygon fill="none" id="1" points="52,38 52,39 55,42 55,43 56,44 56,45 57,45 58,44 58,43 57,42 57,41 54,38" stroke="black" stroke-width="1" /><polygon fill="none" id="2" points="57,34 56,35 59,38 59,39 60,40 60,41 61,41 62,40 62,39 60,37 60,36 58,34" stroke="black" stroke-width="1" /><polygon fill="none" id="3" points="48,30 47,31 47,32 46,33 46,34 43,37 43,38 32,49 32,50 33,51 33,52 41,60 41,61 46,66 46,67 48,69 48,70 49,71 50,71 52,69 51,68 51,67 46,62 46,61 35,50 46,39 46,38 49,35 49,34 50,33 50,32" stroke="black" stroke-width="1" /></svg>