<?xml version="1.0" encoding="utf-8" ?>
<svg baseProfile="full" height="100" version="1.1" width="100" xmlns="http://www.w3.org/2000/svg" xmlns:ev="http://www.w3.org/2001/xml-events" xmlns:xlink="http://www.w3.org/1999/xlink"><defs /><polygon fill="none" id="1" points="58,38 58,39 62,43 62,44 63,45 64,45 65,44 65,43 60,38" stroke="black" stroke-width="1" /><polygon fill="none" id="2" points="63,34 62,35 67,40 67,41 68,41 69,40 69,39 64,34" stroke="black" stroke-width="1" /><polygon fill="none" id="3" points="53,30 53,31 52,32 52,33 45,40 45,41 44,42 43,42 36,49 36,51 52,67 52,68 55,71 56,70 57,70 58,69 54,65 54,64 44,54 43,54 39,50 44,45 45,45 53,37 53,36 56,33 56,32 54,30" stroke="black" stroke-width="1" /></svg>