<?xml version="1.0" encoding="utf-8" ?>
<svg baseProfile="full" height="100" version="1.1" width="100" xmlns="http://www.w3.org/2000/svg" xmlns:ev="http://www.w3.org/2001/xml-events" xmlns:xlink="http://www.w3.org/1999/xlink"><defs /><polygon fill="none" id="1" points="64,38 64,39 68,43 68,44 69,45 70,45 71,44 72,44 72,43 71,43 68,40 68,39 67,38" stroke="black" stroke-width="1" /><polygon fill="none" id="2" points="69,34 68,35 70,37 71,37 72,38 72,39 74,41 75,41 76,40 76,39 71,34" stroke="black" stroke-width="1" /><polygon fill="none" id="3" points="59,30 57,32 57,33 46,44 45,44 39,50 46,57 47,57 57,67 57,68 60,71 61,71 63,69 64,69 52,57 51,57 47,53 46,53 43,50 47,46 48,46 51,43 52,43 62,33 62,32 61,32" stroke="black" stroke-width="1" /></svg>