<?xml version="1.0" encoding="utf-8" ?>
<svg baseProfile="full" height="100" version="1.1" width="100" xmlns="http://www.w3.org/2000/svg" xmlns:ev="http://www.w3.org/2001/xml-events" xmlns:xlink="http://www.w3.org/1999/xlink"><defs /><polygon fill="none" id="1" points="69,36 68,37 67,37 67,40 68,40 69,41 70,41 71,42 72,42 74,44 75,44 79,48 82,48 84,46 84,43 83,42 82,42 80,40 79,40 77,38 76,38 75,37 74,37 73,36" stroke="black" stroke-width="1" /><polygon fill="none" id="2" points="48,32 48,35 49,36 49,40 48,41 37,41 37,45 38,46 46,46 47,45 48,45 49,46 49,52 48,53 47,53 46,54 44,54 43,55 42,55 38,59 37,59 37,60 36,61 36,67 38,69 39,69 41,71 43,71 44,72 53,72 54,71 54,56 55,55 60,55 61,54 68,54 69,55 72,55 76,59 76,60 75,61 75,62 72,65 71,65 70,66 68,66 67,67 58,67 58,70 59,71 59,72 68,72 69,71 72,71 73,70 75,70 76,69 77,69 81,65 81,63 82,62 82,57 80,55 80,54 79,53 78,53 77,52 76,52 75,51 73,51 72,50 57,50 56,51 55,51 54,50 54,46 55,45 56,45 57,44 64,44 65,43 65,39 59,39 58,40 55,40 54,39 54,32" stroke="black" stroke-width="1" /><polygon fill="none" id="3" points="47,59 48,58 49,59 49,66 47,68 46,68 45,67 44,67 42,65 42,63 46,59" stroke="black" stroke-width="1" /></svg>