<?xml version="1.0" encoding="utf-8" ?>
<svg baseProfile="full" height="100" version="1.1" width="100" xmlns="http://www.w3.org/2000/svg" xmlns:ev="http://www.w3.org/2001/xml-events" xmlns:xlink="http://www.w3.org/1999/xlink"><defs /><polygon fill="none" id="1" points="50,34 50,37 49,38 47,38 46,39 46,40 49,43 49,44 50,45 50,46 52,46 53,45 53,43 54,42 55,42 56,41 56,39 55,38 55,37 52,34" stroke="black" stroke-width="1" /><polygon fill="none" id="2" points="52,42 53,41 54,42 53,43" stroke="black" stroke-width="1" /><polygon fill="none" id="3" points="51,40 52,39 53,40 53,41 52,42 51,41" stroke="black" stroke-width="1" /><polygon fill="none" id="4" points="50,39 51,38 52,39 51,40" stroke="black" stroke-width="1" /><polygon fill="none" id="5" points="49,38 50,37 51,38 50,39" stroke="black" stroke-width="1" /><polygon fill="none" id="6" points="43,30 42,31 42,32 41,33 41,34 39,36 39,37 36,40 36,41 29,48 29,52 30,53 30,54 35,59 35,60 38,63 38,64 41,67 41,68 42,69 42,70 44,72 45,72 47,70 47,68 44,65 44,64 41,61 41,60 37,56 37,55 33,51 33,50 37,46 37,45 41,41 41,40 43,38 43,37 46,34 46,32 44,30" stroke="black" stroke-width="1" /></svg>