<?xml version="1.0" encoding="utf-8" ?>
<svg baseProfile="full" height="100" version="1.1" width="100" xmlns="http://www.w3.org/2000/svg" xmlns:ev="http://www.w3.org/2001/xml-events" xmlns:xlink="http://www.w3.org/1999/xlink"><defs /><polygon fill="none" id="1" points="57,34 56,35 56,36 59,39 59,40 58,41 55,38 52,38 52,40 55,43 55,44 56,45 56,46 58,46 59,45 59,43 60,42 62,42 63,41 63,39 61,37 61,36 59,34" stroke="black" stroke-width="1" /><polygon fill="none" id="2" points="58,41 59,40 60,41 60,42 59,43 58,42" stroke="black" stroke-width="1" /><polygon fill="none" id="3" points="48,30 47,31 47,32 46,33 46,34 43,37 43,38 32,49 32,51 33,52 33,53 41,61 41,62 46,67 46,68 48,70 48,71 49,72 51,72 53,70 53,69 52,68 52,67 47,62 47,61 37,51 37,50 47,40 47,39 50,36 50,35 51,34 51,32 49,30" stroke="black" stroke-width="1" /></svg>