<?xml version="1.0" encoding="utf-8" ?>
<svg baseProfile="full" height="100" version="1.1" width="100" xmlns="http://www.w3.org/2000/svg" xmlns:ev="http://www.w3.org/2001/xml-events" xmlns:xlink="http://www.w3.org/1999/xlink"><defs /><polygon fill="none" id="1" points="63,34 62,35 62,36 67,41 67,42 66,43 61,38 58,38 58,40 62,44 62,45 63,46 65,46 66,45 66,43 67,42 69,42 70,41 70,39 65,34" stroke="black" stroke-width="1" /><polygon fill="none" id="2" points="53,30 53,31 52,32 52,33 45,40 45,41 44,42 43,42 36,49 36,52 52,68 52,69 55,72 56,72 57,71 58,71 59,70 59,69 55,65 55,64 45,54 44,54 41,51 41,50 45,46 46,46 54,38 54,37 57,34 57,32 55,30" stroke="black" stroke-width="1" /></svg>