<?xml version="1.0" encoding="utf-8" ?>
<svg baseProfile="full" height="100" version="1.1" width="100" xmlns="http://www.w3.org/2000/svg" xmlns:ev="http://www.w3.org/2001/xml-events" xmlns:xlink="http://www.w3.org/1999/xlink"><defs /><polygon fill="none" id="1" points="69,34 68,35 68,36 69,37 68,38 64,38 64,40 68,44 68,45 69,46 71,46 72,45 73,45 73,43 74,42 76,42 77,41 77,39 72,34" stroke="black" stroke-width="1" /><polygon fill="none" id="2" points="69,39 70,38 71,38 72,39 72,40 74,42 73,43 72,43 69,40" stroke="black" stroke-width="1" /><polygon fill="none" id="3" points="68,38 69,37 70,38 69,39" stroke="black" stroke-width="1" /><polygon fill="none" id="4" points="59,30 57,32 57,33 46,44 45,44 39,50 39,51 46,58 47,58 57,68 57,69 60,72 62,72 64,70 65,70 65,69 53,57 52,57 48,53 47,53 45,51 45,50 48,47 49,47 52,44 53,44 63,34 63,32 62,32 60,30" stroke="black" stroke-width="1" /></svg>