<?xml version="1.0" encoding="utf-8" ?>
<svg baseProfile="full" height="100" version="1.1" width="100" xmlns="http://www.w3.org/2000/svg" xmlns:ev="http://www.w3.org/2001/xml-events" xmlns:xlink="http://www.w3.org/1999/xlink"><defs /><polygon fill="none" id="1" points="76,34 75,35 74,35 74,36 75,37 74,38 70,38 69,39 69,40 70,40 75,45 75,46 78,46 79,45 79,43 80,42 83,42 84,41 84,39 80,35 79,35 78,34" stroke="black" stroke-width="1" /><polygon fill="none" id="2" points="74,38 75,37 76,37 80,41 80,42 79,43" stroke="black" stroke-width="1" /><polygon fill="none" id="3" points="64,30 63,31 63,32 54,41 53,41 50,44 49,44 46,47 45,47 43,49 43,52 44,53 45,53 49,57 50,57 55,62 56,62 66,72 68,72 70,70 71,70 71,69 66,64 65,64 59,58 58,58 55,55 54,55 51,52 50,52 49,51 49,50 51,48 52,48 54,46 55,46 58,43 59,43 69,33 69,32 68,32 67,31 66,31 65,30" stroke="black" stroke-width="1" /></svg>