<?xml version="1.0" encoding="utf-8" ?>
<svg baseProfile="full" height="100" version="1.1" width="100" xmlns="http://www.w3.org/2000/svg" xmlns:ev="http://www.w3.org/2001/xml-events" xmlns:xlink="http://www.w3.org/1999/xlink"><defs /><polygon fill="none" id="1" points="48,39 48,40 50,42 50,43 51,44 51,45 52,44 50,42 50,41" stroke="black" stroke-width="1" /><polygon fill="none" id="2" points="51,35 51,36 54,39 54,40 55,40 54,39 54,38" stroke="black" stroke-width="1" /><polygon fill="none" id="3" points="43,32 43,33 42,34 42,35 40,37 40,38 37,41 37,42 30,49 30,51 31,52 31,53 36,58 36,59 39,62 39,63 42,66 42,67 43,68 43,69 44,70 45,70 46,69 43,66 43,65 40,62 40,61 36,57 36,56 31,51 31,50 36,45 36,44 40,40 40,39 42,37 42,36 45,33 44,32" stroke="black" stroke-width="1" /></svg>