<?xml version="1.0" encoding="utf-8" ?>
<svg baseProfile="full" height="100" version="1.1" width="100" xmlns="http://www.w3.org/2000/svg" xmlns:ev="http://www.w3.org/2001/xml-events" xmlns:xlink="http://www.w3.org/1999/xlink"><defs /><polygon fill="none" id="1" points="53,39 56,42 56,43 57,44 57,45 58,44 57,43 57,42 54,39" stroke="black" stroke-width="1" /><polygon fill="none" id="2" points="58,35 58,36 60,38 60,39 61,40 61,41 62,40 60,38 60,37" stroke="black" stroke-width="1" /><polygon fill="none" id="3" points="48,32 48,33 47,34 47,35 44,38 44,39 33,50 34,51 34,52 42,60 42,61 47,66 47,67 49,69 49,70 50,71 51,70 51,68 46,63 46,62 35,51 35,50 46,39 46,38 49,35 49,34 50,33 49,32" stroke="black" stroke-width="1" /></svg>