<?xml version="1.0" encoding="utf-8" ?>
<svg baseProfile="full" height="100" version="1.1" width="100" xmlns="http://www.w3.org/2000/svg" xmlns:ev="http://www.w3.org/2001/xml-events" xmlns:xlink="http://www.w3.org/1999/xlink"><defs /><polygon fill="none" id="1" points="59,39 63,43 63,44 64,45 65,44 60,39" stroke="black" stroke-width="1" /><polygon fill="none" id="2" points="64,35 64,36 68,40 68,41 69,40" stroke="black" stroke-width="1" /><polygon fill="none" id="3" points="54,31 54,32 53,33 53,34 46,41 46,42 45,43 44,43 37,50 37,51 53,67 53,68 55,70 57,70 57,69 54,66 54,65 44,55 43,55 39,51 39,50 44,45 45,45 53,37 53,36 56,33" stroke="black" stroke-width="1" /></svg>