<?xml version="1.0" encoding="utf-8" ?>
<svg baseProfile="full" height="100" version="1.1" width="100" xmlns="http://www.w3.org/2000/svg" xmlns:ev="http://www.w3.org/2001/xml-events" xmlns:xlink="http://www.w3.org/1999/xlink"><defs /><polygon fill="none" id="1" points="65,39 69,43 69,44 70,45 71,44 72,44 71,44 68,41 68,40 67,39" stroke="black" stroke-width="1" /><polygon fill="none" id="2" points="70,35 70,36 71,37 72,37 73,38 73,39 75,41 76,40 71,35" stroke="black" stroke-width="1" /><polygon fill="none" id="3" points="59,32 58,33 58,34 47,45 46,45 41,50 41,51 47,57 48,57 58,67 58,68 61,71 63,69 52,58 51,58 47,54 46,54 43,51 43,50 47,46 48,46 51,43 52,43 62,33 61,33 60,32" stroke="black" stroke-width="1" /></svg>