<?xml version="1.0" encoding="utf-8" ?>
<svg baseProfile="full" height="100" version="1.1" width="100" xmlns="http://www.w3.org/2000/svg" xmlns:ev="http://www.w3.org/2001/xml-events" xmlns:xlink="http://www.w3.org/1999/xlink"><defs /><polygon fill="none" id="1" points="26,62 26,66" stroke="black" stroke-width="1" /><polygon fill="none" id="2" points="27,60" stroke="black" stroke-width="1" /><polygon fill="none" id="3" points="52,57 52,63 51,64 51,65 48,68 47,68 46,69 41,69 41,70 43,70 44,69 46,69 47,68 48,68 51,65 51,64 52,63" stroke="black" stroke-width="1" /><polygon fill="none" id="4" points="50,54 51,55" stroke="black" stroke-width="1" /><polygon fill="none" id="5" points="48,53" stroke="black" stroke-width="1" /><polygon fill="none" id="6" points="40,52 46,52" stroke="black" stroke-width="1" /><polygon fill="none" id="7" points="47,38 53,44" stroke="black" stroke-width="1" /><polygon fill="none" id="8" points="34,34 34,42 33,43 27,43 27,44 29,44 30,43 33,43 34,44 34,54 33,55 34,56 34,69 33,70 31,70 33,70 34,69 34,54 35,53 38,53 35,53 34,52 34,44 36,42 41,42 41,41 40,42 35,42 34,41" stroke="black" stroke-width="1" /></svg>