<?xml version="1.0" encoding="utf-8" ?>
<svg baseProfile="full" height="100" version="1.1" width="100" xmlns="http://www.w3.org/2000/svg" xmlns:ev="http://www.w3.org/2001/xml-events" xmlns:xlink="http://www.w3.org/1999/xlink"><defs /><polygon fill="none" id="1" points="71,39 76,44 76,45 77,45 78,44 73,39" stroke="black" stroke-width="1" /><polygon fill="none" id="2" points="77,35 76,36 77,36 81,40 81,41 82,41 83,40 79,36 78,36" stroke="black" stroke-width="1" /><polygon fill="none" id="3" points="64,32 64,33 55,42 54,42 51,45 50,45 47,48 46,48 44,50 44,51 45,52 46,52 50,56 51,56 56,61 57,61 67,71 69,69 65,65 64,65 58,59 57,59 54,56 53,56 50,53 49,53 47,51 47,50 50,47 51,47 53,45 54,45 57,42 58,42 67,33 66,32" stroke="black" stroke-width="1" /></svg>