<?xml version="1.0" encoding="utf-8" ?>
<svg baseProfile="full" height="100" version="1.1" width="100" xmlns="http://www.w3.org/2000/svg" xmlns:ev="http://www.w3.org/2001/xml-events" xmlns:xlink="http://www.w3.org/1999/xlink"><defs /><polygon fill="none" id="1" points="49,33 49,36 48,37 46,37 45,38 45,40 48,43 48,44 49,45 49,46 52,46 53,45 53,43 54,42 55,42 56,41 56,38 55,37 55,36 52,33" stroke="black" stroke-width="1" /><polygon fill="none" id="2" points="42,29 41,30 41,31 40,32 40,33 38,35 38,36 35,39 35,40 28,47 28,52 29,53 29,54 34,59 34,60 37,63 37,64 40,67 40,68 41,69 41,70 43,72 45,72 47,70 47,67 44,64 44,63 41,60 41,59 37,55 37,54 33,50 37,46 37,45 41,41 41,40 43,38 43,37 46,34 46,31 44,29" stroke="black" stroke-width="1" /></svg>