<?xml version="1.0" encoding="utf-8" ?>
<svg baseProfile="full" height="100" version="1.1" width="100" xmlns="http://www.w3.org/2000/svg" xmlns:ev="http://www.w3.org/2001/xml-events" xmlns:xlink="http://www.w3.org/1999/xlink"><defs /><polygon fill="none" id="1" points="47,29 46,30 46,31 45,32 45,33 42,36 42,37 31,48 31,51 32,52 32,53 40,61 40,62 45,67 45,68 47,70 47,71 48,72 51,72 53,70 53,68 52,67 52,66 47,61 47,60 37,50 47,40 47,39 50,36 51,37 51,40 54,43 54,44 55,45 55,46 58,46 59,45 59,43 60,42 62,42 63,41 63,38 61,36 61,35 59,33 56,33 55,34 55,36 54,37 51,37 50,36 50,35 51,34 51,31 49,29" stroke="black" stroke-width="1" /></svg>