<?xml version="1.0" encoding="utf-8" ?>
<svg baseProfile="full" height="100" version="1.1" width="100" xmlns="http://www.w3.org/2000/svg" xmlns:ev="http://www.w3.org/2001/xml-events" xmlns:xlink="http://www.w3.org/1999/xlink"><defs /><polygon fill="none" id="1" points="62,33 61,34 61,36 60,37 57,37 57,40 61,44 61,45 62,46 65,46 66,45 66,43 67,42 69,42 70,41 70,38 65,33" stroke="black" stroke-width="1" /><polygon fill="none" id="2" points="52,29 52,30 51,31 51,32 44,39 44,40 43,41 42,41 35,48 35,52 51,68 51,69 54,72 56,72 57,71 58,71 59,70 59,68 55,64 55,63 45,53 44,53 41,50 45,46 46,46 54,38 54,37 57,34 57,31 55,29" stroke="black" stroke-width="1" /></svg>