<?xml version="1.0" encoding="utf-8" ?>
<svg baseProfile="full" height="100" version="1.1" width="100" xmlns="http://www.w3.org/2000/svg" xmlns:ev="http://www.w3.org/2001/xml-events" xmlns:xlink="http://www.w3.org/1999/xlink"><defs /><polygon fill="none" id="1" points="68,33 67,34 67,36 66,37 63,37 63,40 67,44 67,45 68,46 71,46 72,45 73,45 73,43 74,42 76,42 77,41 77,38 72,33" stroke="black" stroke-width="1" /><polygon fill="none" id="2" points="69,39 70,38 71,39 70,40" stroke="black" stroke-width="1" /><polygon fill="none" id="3" points="58,29 56,31 56,32 45,43 44,43 38,49 38,51 45,58 46,58 56,68 56,69 59,72 62,72 64,70 65,70 65,68 53,56 52,56 48,52 47,52 45,50 48,47 49,47 52,44 53,44 63,34 63,31 62,31 60,29" stroke="black" stroke-width="1" /></svg>