<?xml version="1.0" encoding="utf-8" ?>
<svg baseProfile="full" height="100" version="1.1" width="100" xmlns="http://www.w3.org/2000/svg" xmlns:ev="http://www.w3.org/2001/xml-events" xmlns:xlink="http://www.w3.org/1999/xlink"><defs /><polygon fill="none" id="1" points="75,33 74,34 73,34 73,36 72,37 69,37 68,38 68,40 69,40 74,45 74,46 78,46 79,45 79,43 80,42 83,42 84,41 84,38 80,34 79,34 78,33" stroke="black" stroke-width="1" /><polygon fill="none" id="2" points="63,29 62,30 62,31 53,40 52,40 49,43 48,43 45,46 44,46 42,48 42,52 43,53 44,53 48,57 49,57 54,62 55,62 65,72 68,72 70,70 71,70 71,68 66,63 65,63 59,57 58,57 55,54 54,54 51,51 50,51 49,50 51,48 52,48 54,46 55,46 58,43 59,43 69,33 69,31 68,31 67,30 66,30 65,29" stroke="black" stroke-width="1" /></svg>