<?xml version="1.0" encoding="utf-8" ?>
<svg baseProfile="full" height="100" version="1.1" width="100" xmlns="http://www.w3.org/2000/svg" xmlns:ev="http://www.w3.org/2001/xml-events" xmlns:xlink="http://www.w3.org/1999/xlink"><defs /><polygon fill="none" id="1" points="69,43" stroke="black" stroke-width="1" /><polygon fill="none" id="2" points="66,39 67,40" stroke="black" stroke-width="1" /><polygon fill="none" id="3" points="73,38 74,39" stroke="black" stroke-width="1" /><polygon fill="none" id="4" points="70,35 71,36" stroke="black" stroke-width="1" /><polygon fill="none" id="5" points="59,32 58,33 58,34 47,45 46,45 41,50 47,56 48,56 58,66 58,67 60,69 61,69 61,68 51,58 50,58 46,54 45,54 42,51 42,49 46,45 47,45 50,42 51,42 60,33" stroke="black" stroke-width="1" /></svg>