<?xml version="1.0" encoding="utf-8" ?>
<svg baseProfile="full" height="100" version="1.1" width="100" xmlns="http://www.w3.org/2000/svg" xmlns:ev="http://www.w3.org/2001/xml-events" xmlns:xlink="http://www.w3.org/1999/xlink"><defs /><polygon fill="none" id="1" points="30,67 31,68" stroke="black" stroke-width="1" /><polygon fill="none" id="2" points="30,61 29,62 29,65 29,62" stroke="black" stroke-width="1" /><polygon fill="none" id="3" points="39,58 39,59 38,60 38,69 37,70 35,70 37,70 39,68" stroke="black" stroke-width="1" /><polygon fill="none" id="4" points="32,58 31,59" stroke="black" stroke-width="1" /><polygon fill="none" id="5" points="56,54 58,56 58,58 59,59 59,61 58,62 58,64 54,68 53,68 52,69 46,69 46,70 49,70 50,69 52,69 53,68 54,68 55,67 56,67 57,66 57,65 58,64 58,63 59,62 59,58 58,57 58,56" stroke="black" stroke-width="1" /><polygon fill="none" id="6" points="54,53" stroke="black" stroke-width="1" /><polygon fill="none" id="7" points="45,52 52,52" stroke="black" stroke-width="1" /><polygon fill="none" id="8" points="39,47 38,48 38,54 37,55 38,55 40,53 43,53 39,53 38,52 38,50 39,49" stroke="black" stroke-width="1" /><polygon fill="none" id="9" points="46,41 45,42 39,42 38,43 30,43 30,44 33,44 34,43 40,43 41,42 46,42 47,41" stroke="black" stroke-width="1" /><polygon fill="none" id="10" points="53,38 56,41 57,41 59,43 59,44 60,45 60,44 57,41 56,41" stroke="black" stroke-width="1" /><polygon fill="none" id="11" points="38,34 38,38 39,38 39,34" stroke="black" stroke-width="1" /></svg>