<?xml version="1.0" encoding="utf-8" ?>
<svg baseProfile="full" height="100" version="1.1" width="100" xmlns="http://www.w3.org/2000/svg" xmlns:ev="http://www.w3.org/2001/xml-events" xmlns:xlink="http://www.w3.org/1999/xlink"><defs /><polygon fill="none" id="1" points="72,39 76,43 76,44 76,43" stroke="black" stroke-width="1" /><polygon fill="none" id="2" points="78,36 81,39 81,40 81,39" stroke="black" stroke-width="1" /><polygon fill="none" id="3" points="64,32 64,33 55,42 54,42 51,45 50,45 47,48 46,48 44,50 45,51 46,51 50,55 51,55 56,60 57,60 66,69 67,69 67,68 64,65 63,65 57,59 56,59 53,56 52,56 49,53 48,53 46,51 46,49 49,46 50,46 52,44 53,44 56,41 57,41 65,33 65,32" stroke="black" stroke-width="1" /></svg>