<?xml version="1.0" encoding="utf-8" ?>
<svg baseProfile="full" height="100" version="1.1" width="100" xmlns="http://www.w3.org/2000/svg" xmlns:ev="http://www.w3.org/2001/xml-events" xmlns:xlink="http://www.w3.org/1999/xlink"><defs /><polygon fill="none" id="1" points="46,32 46,40 47,41 47,42 46,43 45,43 44,44 37,44 36,43 35,43 35,46 46,46 47,47 47,52 46,53 46,60 45,61 45,63 39,69 38,69 38,70 40,72 42,70 43,70 44,69 44,68 46,66 46,65 47,64 47,63 48,62 48,57 49,56 49,46 50,45 53,45 54,44 55,44 54,43 54,41 53,42 51,42 50,43 48,41 48,40 49,39 49,38 48,37 48,32" stroke="black" stroke-width="1" /><polygon fill="none" id="2" points="28,32 27,33 27,38 26,39 26,47 25,48 25,57 26,58 26,66 27,67 27,69 29,69 29,64 30,63 30,61 31,60 31,59 32,58 32,57 33,56 33,55 32,55 31,54 31,55 30,56 30,59 29,60 28,60 27,59 27,50 28,49 28,41 29,40 29,36 30,35 30,33 29,33" stroke="black" stroke-width="1" /><polygon fill="none" id="3" points="51,30 51,31 52,32 52,35 53,36 53,37 54,36 54,33 53,32 53,30" stroke="black" stroke-width="1" /><polygon fill="none" id="4" points="55,28 55,30 56,31 56,33 57,34 58,34 58,31 57,30 57,28" stroke="black" stroke-width="1" /></svg>