<?xml version="1.0" encoding="utf-8" ?>
<svg baseProfile="full" height="100" version="1.1" width="100" xmlns="http://www.w3.org/2000/svg" xmlns:ev="http://www.w3.org/2001/xml-events" xmlns:xlink="http://www.w3.org/1999/xlink"><defs /><polygon fill="none" id="1" points="57,32 57,33 58,34 58,42 57,43 56,43 55,44 46,44 45,43 44,43 44,46 56,46 57,45 59,47 58,48 58,58 57,59 57,61 56,62 56,63 51,68 50,68 49,69 48,69 47,70 48,70 50,72 51,71 52,71 54,69 55,69 57,67 57,66 59,64 59,63 60,62 60,59 61,58 61,46 62,45 66,45 67,44 68,44 68,41 67,41 66,42 63,42 62,43 61,42 61,32" stroke="black" stroke-width="1" /><polygon fill="none" id="2" points="35,32 34,33 34,37 33,38 33,42 32,43 32,62 33,63 33,67 34,68 34,69 36,69 37,68 37,63 38,62 38,61 39,60 39,59 40,58 40,57 41,56 41,55 40,55 39,54 39,55 38,56 38,57 37,58 37,59 36,60 34,58 34,50 35,49 35,43 36,42 36,38 37,37 37,34 38,33 36,33" stroke="black" stroke-width="1" /><polygon fill="none" id="3" points="64,30 64,32 65,33 65,34 66,35 66,37 67,36 68,36 68,34 67,33 67,32 66,31 66,30" stroke="black" stroke-width="1" /><polygon fill="none" id="4" points="69,28 68,29 70,31 70,32 71,33 71,35 72,34 73,34 73,32 72,31 72,30 71,29 71,28" stroke="black" stroke-width="1" /></svg>