<?xml version="1.0" encoding="utf-8" ?>
<svg baseProfile="full" height="100" version="1.1" width="100" xmlns="http://www.w3.org/2000/svg" xmlns:ev="http://www.w3.org/2001/xml-events" xmlns:xlink="http://www.w3.org/1999/xlink"><defs /><polygon fill="none" id="1" points="36,69" stroke="black" stroke-width="1" /><polygon fill="none" id="2" points="37,57 33,61 33,62 32,63 32,65 33,66 33,61" stroke="black" stroke-width="1" /><polygon fill="none" id="3" points="64,55 64,56 65,57 65,63 60,68 58,68 57,69 51,69 51,70 55,70 56,69 58,69 59,68 60,68 61,67 62,67 65,64 65,63 66,62 66,58 64,56" stroke="black" stroke-width="1" /><polygon fill="none" id="4" points="60,53 61,53 62,54 61,53" stroke="black" stroke-width="1" /><polygon fill="none" id="5" points="50,52 58,52" stroke="black" stroke-width="1" /><polygon fill="none" id="6" points="59,38 61,40 62,40 67,45 67,44 66,43 65,43 62,40 61,40" stroke="black" stroke-width="1" /><polygon fill="none" id="7" points="42,34 42,37 43,38 43,42 42,43 33,43 33,44 36,44 37,43 42,43 43,44 43,54 42,55 41,55 42,55 43,56 43,62 42,63 43,64 43,68 41,70 38,70 42,70 43,69 43,54 44,53 48,53 44,53 43,52 43,44 44,43 45,43 46,42 51,42 52,41 51,41 50,42 44,42 43,41 43,34" stroke="black" stroke-width="1" /></svg>