<?xml version="1.0" encoding="utf-8" ?>
<svg baseProfile="full" height="100" version="1.1" width="100" xmlns="http://www.w3.org/2000/svg" xmlns:ev="http://www.w3.org/2001/xml-events" xmlns:xlink="http://www.w3.org/1999/xlink"><defs /><polygon fill="none" id="1" points="69,32 69,35 70,36 70,42 69,43 67,43 66,44 55,44 54,43 53,43 53,46 69,46 70,47 70,57 69,58 69,59 68,60 68,61 67,62 67,63 63,67 62,67 61,68 60,68 59,69 57,69 57,70 58,71 59,71 60,72 61,72 62,71 63,71 65,69 66,69 71,64 71,63 72,62 72,60 73,59 73,46 74,45 79,45 80,44 82,44 82,41 81,41 80,42 76,42 75,43 74,43 73,42 73,32" stroke="black" stroke-width="1" /><polygon fill="none" id="2" points="42,32 41,33 41,37 40,38 40,41 39,42 39,45 38,46 38,60 39,61 39,63 40,64 40,68 41,69 43,69 44,68 44,66 45,65 45,63 46,62 46,61 47,60 47,59 48,58 48,57 49,56 49,55 48,55 47,54 46,55 46,56 45,57 45,59 44,60 43,60 41,58 41,51 42,50 42,43 43,42 43,39 44,38 44,36 45,35 45,33 43,33" stroke="black" stroke-width="1" /><polygon fill="none" id="3" points="76,30 77,31 77,32 78,33 78,34 79,35 79,37 80,36 82,36 82,35 81,34 81,33 80,32 80,31 79,30" stroke="black" stroke-width="1" /><polygon fill="none" id="4" points="83,28 82,29 84,31 84,32 85,33 85,35 86,34 88,34 88,32 86,30 86,29 85,28" stroke="black" stroke-width="1" /></svg>