<?xml version="1.0" encoding="utf-8" ?>
<svg baseProfile="full" height="100" version="1.1" width="100" xmlns="http://www.w3.org/2000/svg" xmlns:ev="http://www.w3.org/2001/xml-events" xmlns:xlink="http://www.w3.org/1999/xlink"><defs /><polygon fill="none" id="1" points="46,32 46,41 47,42 46,43 45,43 44,44 38,44 37,43 35,43 35,47 46,47 47,48 47,52 46,53 46,60 45,61 45,63 39,69 38,69 38,71 40,73 41,73 43,71 44,71 45,70 45,69 47,67 47,66 48,65 48,64 49,63 49,58 50,57 50,47 51,46 54,46 55,45 56,45 56,44 55,43 55,41 54,41 53,42 50,42 49,41 50,40 50,38 49,37 49,32" stroke="black" stroke-width="1" /><polygon fill="none" id="2" points="28,32 27,33 27,38 26,39 26,47 25,48 25,58 26,59 26,67 27,68 27,70 30,70 30,65 31,64 31,62 32,61 32,60 33,59 33,58 34,57 34,55 33,55 32,54 31,54 31,55 30,56 30,59 29,60 28,59 28,51 29,50 29,42 30,41 30,37 31,36 31,33 30,33 29,32" stroke="black" stroke-width="1" /><polygon fill="none" id="3" points="55,28 55,29 54,30 51,30 51,32 52,33 52,36 53,37 53,38 54,38 55,37 55,35 56,34 57,35 59,35 59,31 58,30 58,28" stroke="black" stroke-width="1" /><polygon fill="none" id="4" points="54,32 55,31 56,32 55,33" stroke="black" stroke-width="1" /></svg>