<?xml version="1.0" encoding="utf-8" ?>
<svg baseProfile="full" height="100" version="1.1" width="100" xmlns="http://www.w3.org/2000/svg" xmlns:ev="http://www.w3.org/2001/xml-events" xmlns:xlink="http://www.w3.org/1999/xlink"><defs /><polygon fill="none" id="1" points="31,32 31,35 30,36 30,41 29,42 29,50 28,51 28,54 29,55 29,64 30,65 30,70 33,70 34,69 34,65 35,64 35,62 36,61 36,60 37,59 37,58 38,57 38,55 37,55 36,54 35,54 35,55 34,56 34,58 33,59 32,58 32,46 33,45 33,40 34,39 34,36 35,35 35,33 33,33 32,32" stroke="black" stroke-width="1" /><polygon fill="none" id="2" points="62,28 62,30 61,31 60,30 57,30 57,32 56,33 55,32 51,32 51,33 52,34 52,42 51,43 50,43 49,44 43,44 42,43 40,43 40,47 52,47 53,48 52,49 52,59 51,60 51,62 50,63 50,64 46,68 45,68 44,69 43,69 43,71 45,73 46,73 47,72 48,72 53,67 53,66 54,65 54,64 55,63 55,60 56,59 56,47 57,46 60,46 61,45 62,45 62,41 60,41 59,42 57,42 56,41 56,33 57,32 58,33 58,34 59,35 59,37 62,37 62,35 63,34 64,35 64,36 65,36 66,35 67,35 67,33 66,32 66,30 65,29 65,28" stroke="black" stroke-width="1" /><polygon fill="none" id="3" points="61,32 62,31 63,32 63,33 62,34 61,33" stroke="black" stroke-width="1" /></svg>