<?xml version="1.0" encoding="utf-8" ?>
<svg baseProfile="full" height="100" version="1.1" width="100" xmlns="http://www.w3.org/2000/svg" xmlns:ev="http://www.w3.org/2001/xml-events" xmlns:xlink="http://www.w3.org/1999/xlink"><defs /><polygon fill="none" id="1" points="57,32 57,34 58,35 58,42 57,43 56,43 55,44 47,44 46,43 44,43 44,47 57,47 58,48 58,58 57,59 57,61 56,62 56,63 51,68 50,68 49,69 48,69 47,70 47,71 48,71 50,73 51,73 52,72 53,72 55,70 56,70 58,68 58,67 60,65 60,64 61,63 61,60 62,59 62,47 63,46 67,46 68,45 69,45 69,41 67,41 66,42 63,42 62,41 62,32" stroke="black" stroke-width="1" /><polygon fill="none" id="2" points="35,32 34,33 34,37 33,38 33,42 32,43 32,63 33,64 33,68 34,69 34,70 37,70 38,69 38,64 39,63 39,62 40,61 40,60 41,59 41,58 42,57 42,55 41,55 40,54 39,54 39,55 38,56 38,57 36,59 35,58 35,51 36,50 36,44 37,43 37,39 38,38 38,35 39,34 39,33 37,33 36,32" stroke="black" stroke-width="1" /><polygon fill="none" id="3" points="69,28 67,30 64,30 64,33 65,34 65,35 66,36 66,38 67,38 68,37 69,37 69,34 70,33 71,34 71,36 72,36 73,35 74,35 74,32 73,31 73,30 72,29 72,28" stroke="black" stroke-width="1" /><polygon fill="none" id="4" points="68,32 69,31 70,32 70,33 69,34 68,33" stroke="black" stroke-width="1" /><polygon fill="none" id="5" points="67,31 68,30 69,31 68,32" stroke="black" stroke-width="1" /></svg>