<?xml version="1.0" encoding="utf-8" ?>
<svg baseProfile="full" height="100" version="1.1" width="100" xmlns="http://www.w3.org/2000/svg" xmlns:ev="http://www.w3.org/2001/xml-events" xmlns:xlink="http://www.w3.org/1999/xlink"><defs /><polygon fill="none" id="1" points="63,32 63,35 64,36 64,42 63,43 61,43 60,44 52,44 51,43 48,43 48,47 63,47 64,48 64,58 63,59 63,61 61,63 61,64 59,66 58,66 56,68 55,68 54,69 53,69 52,70 52,71 53,71 55,73 57,73 59,71 60,71 62,69 63,69 64,68 64,67 66,65 66,64 67,63 67,60 68,59 68,47 69,46 74,46 75,45 76,45 76,41 74,41 73,42 70,42 69,43 68,42 68,32" stroke="black" stroke-width="1" /><polygon fill="none" id="2" points="38,32 38,33 37,34 37,38 36,39 36,43 35,44 35,62 36,63 36,67 37,68 37,70 40,70 41,69 42,69 42,64 43,63 43,62 44,61 44,60 45,59 45,58 46,57 46,55 45,55 44,54 43,54 42,55 42,57 41,58 41,59 40,60 39,59 39,48 40,47 40,43 41,42 41,38 42,37 42,33 41,33 40,32" stroke="black" stroke-width="1" /><polygon fill="none" id="3" points="76,28 74,30 70,30 70,32 71,33 71,34 72,35 72,37 73,38 74,38 75,37 76,37 76,34 77,33 78,34 78,36 79,36 80,35 82,35 82,33 80,31 80,30 79,29 79,28" stroke="black" stroke-width="1" /><polygon fill="none" id="4" points="75,32 76,31 77,32 77,33 76,34 75,33" stroke="black" stroke-width="1" /><polygon fill="none" id="5" points="74,31 75,30 76,31 75,32" stroke="black" stroke-width="1" /></svg>