<?xml version="1.0" encoding="utf-8" ?>
<svg baseProfile="full" height="100" version="1.1" width="100" xmlns="http://www.w3.org/2000/svg" xmlns:ev="http://www.w3.org/2001/xml-events" xmlns:xlink="http://www.w3.org/1999/xlink"><defs /><polygon fill="none" id="1" points="69,32 69,36 70,37 70,42 69,43 67,43 66,44 56,44 55,43 53,43 53,47 69,47 70,48 70,57 69,58 69,59 68,60 68,61 67,62 67,63 63,67 62,67 61,68 60,68 59,69 57,69 57,71 58,72 59,72 60,73 62,73 63,72 64,72 66,70 67,70 72,65 72,64 73,63 73,61 74,60 74,47 75,46 80,46 81,45 83,45 83,41 81,41 80,42 76,42 75,43 74,42 74,32" stroke="black" stroke-width="1" /><polygon fill="none" id="2" points="42,32 41,33 41,37 40,38 40,41 39,42 39,45 38,46 38,61 39,62 39,64 40,65 40,69 41,70 44,70 45,69 45,67 46,66 46,64 47,63 47,62 48,61 48,60 49,59 49,58 50,57 50,55 49,55 48,54 47,54 46,55 46,56 45,57 45,59 44,60 42,58 42,52 43,51 43,44 44,43 44,40 45,39 45,37 46,36 46,33 44,33 43,32" stroke="black" stroke-width="1" /><polygon fill="none" id="3" points="83,28 82,29 82,30 81,31 80,30 76,30 76,31 77,32 77,33 78,34 78,35 79,36 79,38 80,38 81,37 83,37 83,35 82,34 82,33 81,32 81,31 82,30 84,32 84,33 85,34 85,36 86,36 87,35 89,35 89,32 87,30 87,29 86,28" stroke="black" stroke-width="1" /></svg>