<?xml version="1.0" encoding="utf-8" ?>
<svg baseProfile="full" height="100" version="1.1" width="100" xmlns="http://www.w3.org/2000/svg" xmlns:ev="http://www.w3.org/2001/xml-events" xmlns:xlink="http://www.w3.org/1999/xlink"><defs /><polygon fill="none" id="1" points="28,34 28,39 27,40 27,48 26,49 26,57 27,58 27,66 28,67 28,69 29,69 29,64 30,63 30,61 31,60 31,59 32,58 32,57 33,56 32,56 31,57 31,60 30,61 28,61 27,60 27,50 28,49 28,41 29,40 29,36 30,35 30,34" stroke="black" stroke-width="1" /><polygon fill="none" id="2" points="47,33 47,40 48,41 48,43 47,44 46,44 45,45 37,45 36,44 36,46 47,46 48,47 48,53 47,54 47,61 46,62 46,64 40,70 39,70 40,71 41,71 42,70 43,70 44,69 44,68 46,66 46,65 47,64 47,63 48,62 48,57 49,56 49,46 50,45 53,45 54,44 54,43 52,43 51,44 50,44 48,42 48,40 49,39 48,38 48,33" stroke="black" stroke-width="1" /><polygon fill="none" id="3" points="52,31 53,32 53,35 54,36 54,34 53,33 53,31" stroke="black" stroke-width="1" /><polygon fill="none" id="4" points="56,29 56,30 57,31 57,33 58,34 58,32 57,31 57,29" stroke="black" stroke-width="1" /></svg>