<?xml version="1.0" encoding="utf-8" ?>
<svg baseProfile="full" height="100" version="1.1" width="100" xmlns="http://www.w3.org/2000/svg" xmlns:ev="http://www.w3.org/2001/xml-events" xmlns:xlink="http://www.w3.org/1999/xlink"><defs /><polygon fill="none" id="1" points="32,34 32,36 31,37 31,42 30,43 30,51 29,52 29,53 30,54 30,63 31,64 31,69 32,69 33,68 33,64 34,63 34,61 35,60 35,59 36,58 36,57 37,56 36,56 35,57 35,59 33,61 32,61 31,60 31,45 32,44 32,39 33,38 33,35 34,34" stroke="black" stroke-width="1" /><polygon fill="none" id="2" points="53,33 53,43 52,44 51,44 50,45 42,45 41,44 41,46 50,46 51,45 52,45 54,47 54,49 53,50 53,60 52,61 52,63 51,64 51,65 47,69 46,69 45,70 44,70 45,71 47,71 52,66 52,65 53,64 53,63 54,62 54,59 55,58 55,46 56,45 59,45 60,44 61,44 61,42 60,43 58,43 57,44 56,44 55,43 55,34 54,33" stroke="black" stroke-width="1" /><polygon fill="none" id="3" points="58,31 59,32 59,33 60,34 60,36 61,36 61,35 60,34 60,32 59,31" stroke="black" stroke-width="1" /><polygon fill="none" id="4" points="63,29 63,30 64,31 64,33 65,34 66,34 65,33 65,31 64,30 64,29" stroke="black" stroke-width="1" /></svg>