<?xml version="1.0" encoding="utf-8" ?>
<svg baseProfile="full" height="100" version="1.1" width="100" xmlns="http://www.w3.org/2000/svg" xmlns:ev="http://www.w3.org/2001/xml-events" xmlns:xlink="http://www.w3.org/1999/xlink"><defs /><polygon fill="none" id="1" points="35,34 35,38 34,39 34,43 33,44 33,62 34,63 34,67 35,68 35,69 36,69 37,68 37,63 38,62 38,61 39,60 39,59 40,58 40,57 41,56 40,56 39,57 39,58 38,59 38,60 37,61 36,61 34,59 34,50 35,49 35,43 36,42 36,38 37,37 37,34" stroke="black" stroke-width="1" /><polygon fill="none" id="2" points="58,33 59,34 59,43 58,44 57,44 56,45 46,45 45,44 45,46 56,46 57,45 58,45 60,47 60,48 59,49 59,59 58,60 58,62 57,63 57,64 52,69 51,69 50,70 49,70 50,71 52,71 54,69 55,69 57,67 57,66 59,64 59,63 60,62 60,59 61,58 61,46 62,45 66,45 67,44 68,44 68,42 67,43 64,43 63,44 62,44 61,43 61,33" stroke="black" stroke-width="1" /><polygon fill="none" id="3" points="65,31 65,32 66,33 66,34 67,35 67,36 68,36 68,35 67,34 67,33 66,32 66,31" stroke="black" stroke-width="1" /><polygon fill="none" id="4" points="70,29 70,30 71,31 71,32 72,33 72,34 73,34 73,33 72,32 72,31 71,30 71,29" stroke="black" stroke-width="1" /></svg>