<?xml version="1.0" encoding="utf-8" ?>
<svg baseProfile="full" height="100" version="1.1" width="100" xmlns="http://www.w3.org/2000/svg" xmlns:ev="http://www.w3.org/2001/xml-events" xmlns:xlink="http://www.w3.org/1999/xlink"><defs /><polygon fill="none" id="1" points="64,33 64,34 65,35 65,43 64,44 62,44 61,45 51,45 50,44 49,44 49,46 62,46 63,45 64,45 65,46 65,59 64,60 64,62 62,64 62,65 60,67 59,67 57,69 56,69 55,70 54,70 56,72 58,70 59,70 61,68 62,68 63,67 63,66 65,64 65,63 66,62 66,59 67,58 67,46 68,45 73,45 74,44 75,44 75,42 74,43 71,43 70,44 68,44 67,43 67,33" stroke="black" stroke-width="1" /><polygon fill="none" id="2" points="39,33 39,34 38,35 38,39 37,40 37,44 36,45 36,61 37,62 37,66 38,67 38,69 39,69 40,68 41,68 41,63 42,62 42,61 43,60 43,59 44,58 44,57 45,56 43,56 43,58 42,59 42,60 41,61 39,61 38,60 38,47 39,46 39,42 40,41 40,37 41,36 41,34 40,34" stroke="black" stroke-width="1" /><polygon fill="none" id="3" points="71,31 72,32 72,33 73,34 73,36 75,36 75,35 74,34 74,33 73,32 73,31" stroke="black" stroke-width="1" /><polygon fill="none" id="4" points="77,29 77,30 78,31 78,32 79,33 79,34 81,34 79,32 79,31 78,30 78,29" stroke="black" stroke-width="1" /></svg>