<?xml version="1.0" encoding="utf-8" ?>
<svg baseProfile="full" height="100" version="1.1" width="100" xmlns="http://www.w3.org/2000/svg" xmlns:ev="http://www.w3.org/2001/xml-events" xmlns:xlink="http://www.w3.org/1999/xlink"><defs /><polygon fill="none" id="1" points="40,69" stroke="black" stroke-width="1" /><polygon fill="none" id="2" points="39,58 36,61 36,62 35,63 35,65 38,68 36,66 36,62 37,61 37,60" stroke="black" stroke-width="1" /><polygon fill="none" id="3" points="41,57" stroke="black" stroke-width="1" /><polygon fill="none" id="4" points="66,53 67,53 68,54 69,54 70,55 70,56 71,57 71,63 70,64 70,65 69,66 68,66 66,68 64,68 63,69 56,69 56,70 60,70 61,69 64,69 65,68 67,68 69,66 70,66 72,64 72,62 73,61 73,59 72,58 72,57 69,54 68,54 67,53" stroke="black" stroke-width="1" /><polygon fill="none" id="5" points="65,38 67,40 68,40 72,44 73,44 74,45 74,44 73,44 70,41 69,41 67,39 66,39" stroke="black" stroke-width="1" /><polygon fill="none" id="6" points="46,34 47,35 47,42 46,43 36,43 36,44 40,44 41,43 46,43 47,44 47,54 46,55 45,55 46,55 47,56 47,68 45,70 42,70 46,70 48,68 48,58 47,57 47,55 49,53 53,53 54,52 64,52 54,52 53,53 48,53 47,52 47,50 48,49 48,47 47,46 47,44 48,43 49,43 50,42 56,42 57,41 58,41 56,41 55,42 48,42 47,41 47,39 48,38 48,34" stroke="black" stroke-width="1" /></svg>