<?xml version="1.0" encoding="utf-8" ?>
<svg baseProfile="full" height="100" version="1.1" width="100" xmlns="http://www.w3.org/2000/svg" xmlns:ev="http://www.w3.org/2001/xml-events" xmlns:xlink="http://www.w3.org/1999/xlink"><defs /><polygon fill="none" id="1" points="42,34 42,38 41,39 41,42 40,43 40,46 39,47 39,60 40,61 40,63 41,64 41,68 42,69 43,69 44,68 44,66 45,65 45,63 46,62 46,61 47,60 47,59 48,58 48,57 49,56 47,56 47,57 46,58 46,60 45,61 43,61 41,59 41,51 42,50 42,43 43,42 43,39 44,38 44,36 45,35 45,34" stroke="black" stroke-width="1" /><polygon fill="none" id="2" points="70,33 70,35 71,36 71,43 70,44 68,44 67,45 55,45 54,44 54,46 70,46 71,47 71,58 70,59 70,60 69,61 69,62 68,63 68,64 64,68 63,68 62,69 61,69 60,70 58,70 59,71 60,71 61,72 62,71 63,71 65,69 66,69 71,64 71,63 72,62 72,60 73,59 73,46 74,45 79,45 80,44 82,44 82,42 81,43 77,43 76,44 74,44 73,43 73,33" stroke="black" stroke-width="1" /><polygon fill="none" id="3" points="78,31 78,32 79,33 79,34 80,35 80,36 82,36 81,35 81,34 80,33 80,32 79,31" stroke="black" stroke-width="1" /><polygon fill="none" id="4" points="84,29 84,30 85,31 85,32 86,33 86,34 88,34 88,33 86,31 86,30 85,29" stroke="black" stroke-width="1" /></svg>