<?xml version="1.0" encoding="utf-8" ?>
<svg baseProfile="full" height="100" version="1.1" width="100" xmlns="http://www.w3.org/2000/svg" xmlns:ev="http://www.w3.org/2001/xml-events" xmlns:xlink="http://www.w3.org/1999/xlink"><defs /><polygon fill="none" id="1" points="27,31 26,32 26,37 25,38 25,46 24,47 24,58 25,59 25,67 26,68 26,70 30,70 30,65 31,64 31,62 32,61 32,60 33,59 33,58 34,57 34,54 33,54 32,53 30,53 30,54 29,55 28,54 28,51 29,50 29,42 30,41 30,37 31,36 31,32 30,32 29,31" stroke="black" stroke-width="1" /><polygon fill="none" id="2" points="54,27 54,28 53,29 50,29 50,30 49,31 45,31 45,41 43,43 38,43 37,42 34,42 34,47 45,47 46,48 46,51 45,52 45,59 44,60 44,62 38,68 37,68 37,71 39,73 41,73 43,71 44,71 45,70 45,69 47,67 47,66 48,65 48,64 49,63 49,58 50,57 50,47 51,46 54,46 55,45 56,45 56,43 55,42 55,40 53,40 52,41 51,41 50,40 50,37 51,36 52,37 52,38 54,38 55,37 55,36 56,35 59,35 59,30 58,29 58,27" stroke="black" stroke-width="1" /><polygon fill="none" id="3" points="49,33 50,32 51,33 51,36 50,37 49,36" stroke="black" stroke-width="1" /></svg>