<?xml version="1.0" encoding="utf-8" ?>
<svg baseProfile="full" height="100" version="1.1" width="100" xmlns="http://www.w3.org/2000/svg" xmlns:ev="http://www.w3.org/2001/xml-events" xmlns:xlink="http://www.w3.org/1999/xlink"><defs /><polygon fill="none" id="1" points="30,31 30,34 29,35 29,40 28,41 28,49 27,50 27,54 28,55 28,64 29,65 29,70 33,70 34,69 34,65 35,64 35,62 36,61 36,60 37,59 37,58 38,57 38,54 37,54 36,53 34,53 34,54 33,55 32,54 32,46 33,45 33,40 34,39 34,36 35,35 35,32 33,32 32,31" stroke="black" stroke-width="1" /><polygon fill="none" id="2" points="61,27 61,28 60,29 56,29 56,30 55,31 50,31 50,33 51,34 51,41 50,42 49,42 48,43 43,43 42,42 39,42 39,47 50,47 51,48 51,58 50,59 50,61 49,62 49,63 45,67 44,67 43,68 42,68 42,71 44,73 46,73 47,72 48,72 53,67 53,66 54,65 54,64 55,63 55,60 56,59 56,47 57,46 60,46 61,45 62,45 62,40 59,40 58,41 57,41 56,40 56,35 57,34 58,35 58,37 62,37 63,36 65,36 66,35 67,35 67,32 66,31 66,29 65,28 65,27" stroke="black" stroke-width="1" /></svg>