<?xml version="1.0" encoding="utf-8" ?>
<svg baseProfile="full" height="100" version="1.1" width="100" xmlns="http://www.w3.org/2000/svg" xmlns:ev="http://www.w3.org/2001/xml-events" xmlns:xlink="http://www.w3.org/1999/xlink"><defs /><polygon fill="none" id="1" points="34,31 33,32 33,36 32,37 32,41 31,42 31,63 32,64 32,68 33,69 33,70 37,70 38,69 38,64 39,63 39,62 40,61 40,60 41,59 41,58 42,57 42,54 41,54 40,53 38,53 38,54 37,55 37,56 36,57 35,56 35,51 36,50 36,44 37,43 37,39 38,38 38,35 39,34 39,32 37,32 36,31" stroke="black" stroke-width="1" /><polygon fill="none" id="2" points="68,27 66,29 63,29 63,30 62,31 56,31 56,34 57,35 57,41 56,42 55,42 54,43 47,43 46,42 43,42 43,47 56,47 57,48 57,57 56,58 56,60 55,61 55,62 50,67 49,67 48,68 47,68 46,69 46,71 47,71 49,73 51,73 52,72 53,72 55,70 56,70 58,68 58,67 60,65 60,64 61,63 61,60 62,59 62,47 63,46 67,46 68,45 69,45 69,40 66,40 65,41 63,41 62,40 62,34 63,33 64,34 64,35 65,36 65,38 67,38 68,37 69,37 70,36 72,36 73,35 74,35 74,31 73,30 73,29 72,28 72,27" stroke="black" stroke-width="1" /></svg>