<?xml version="1.0" encoding="utf-8" ?>
<svg baseProfile="full" height="100" version="1.1" width="100" xmlns="http://www.w3.org/2000/svg" xmlns:ev="http://www.w3.org/2001/xml-events" xmlns:xlink="http://www.w3.org/1999/xlink"><defs /><polygon fill="none" id="1" points="37,31 37,32 36,33 36,37 35,38 35,42 34,43 34,62 35,63 35,67 36,68 36,70 40,70 41,69 42,69 42,64 43,63 43,62 44,61 44,60 45,59 45,58 46,57 46,54 45,54 44,53 42,53 41,54 41,56 40,57 39,56 39,48 40,47 40,43 41,42 41,38 42,37 42,32 41,32 40,31" stroke="black" stroke-width="1" /><polygon fill="none" id="2" points="75,27 73,29 69,29 69,30 68,31 62,31 62,35 63,36 63,41 62,42 60,42 59,43 52,43 51,42 47,42 47,47 62,47 63,48 63,57 62,58 62,60 60,62 60,63 58,65 57,65 55,67 54,67 53,68 52,68 51,69 51,71 52,71 54,73 57,73 59,71 60,71 62,69 63,69 64,68 64,67 66,65 66,64 67,63 67,60 68,59 68,47 69,46 74,46 75,45 76,45 76,40 73,40 72,41 69,41 68,40 68,33 69,32 70,33 70,34 71,35 71,37 72,38 74,38 75,37 76,37 77,36 79,36 80,35 82,35 82,32 80,30 80,29 79,28 79,27" stroke="black" stroke-width="1" /></svg>