<?xml version="1.0" encoding="utf-8" ?>
<svg baseProfile="full" height="100" version="1.1" width="100" xmlns="http://www.w3.org/2000/svg" xmlns:ev="http://www.w3.org/2001/xml-events" xmlns:xlink="http://www.w3.org/1999/xlink"><defs /><polygon fill="none" id="1" points="41,31 40,32 40,36 39,37 39,40 38,41 38,44 37,45 37,61 38,62 38,64 39,65 39,69 40,70 44,70 45,69 45,67 46,66 46,64 47,63 47,62 48,61 48,60 49,59 49,58 50,57 50,54 49,54 48,53 46,53 45,54 45,55 44,56 44,57 43,58 42,57 42,52 43,51 43,44 44,43 44,40 45,39 45,37 46,36 46,32 44,32 43,31" stroke="black" stroke-width="1" /><polygon fill="none" id="2" points="82,27 80,29 75,29 75,30 74,31 68,31 68,36 69,37 69,41 68,42 66,42 65,43 56,43 55,42 52,42 52,47 68,47 69,48 69,56 68,57 68,58 67,59 67,60 66,61 66,62 62,66 61,66 60,67 59,67 58,68 56,68 56,71 57,72 58,72 59,73 62,73 63,72 64,72 66,70 67,70 72,65 72,64 73,63 73,61 74,60 74,47 75,46 80,46 81,45 83,45 83,40 80,40 79,41 75,41 74,40 74,32 75,31 76,32 76,33 77,34 77,35 78,36 78,38 80,38 81,37 83,37 84,36 86,36 87,35 89,35 89,31 87,29 87,28 86,27" stroke="black" stroke-width="1" /></svg>