<?xml version="1.0" encoding="utf-8" ?>
<svg baseProfile="full" height="100" version="1.1" width="100" xmlns="http://www.w3.org/2000/svg" xmlns:ev="http://www.w3.org/2001/xml-events" xmlns:xlink="http://www.w3.org/1999/xlink"><defs /><polygon fill="none" id="1" points="45,65 40,70 41,69 42,69 43,68 43,67" stroke="black" stroke-width="1" /><polygon fill="none" id="2" points="27,61 27,65 28,66 28,68 28,63 29,62 29,61" stroke="black" stroke-width="1" /><polygon fill="none" id="3" points="31,57" stroke="black" stroke-width="1" /><polygon fill="none" id="4" points="48,43 47,44 46,44 45,45 36,45 47,45 48,46 48,53 47,54 47,61 46,62 46,63 46,62 47,61 47,56 48,55 48,45 49,44 52,44 53,43 52,43 51,44 49,44" stroke="black" stroke-width="1" /><polygon fill="none" id="5" points="53,34" stroke="black" stroke-width="1" /><polygon fill="none" id="6" points="28,34 28,39 27,40 27,48 26,49 26,56 26,49 27,48 27,40 28,39 28,35 29,34" stroke="black" stroke-width="1" /><polygon fill="none" id="7" points="47,33 47,39" stroke="black" stroke-width="1" /><polygon fill="none" id="8" points="57,32" stroke="black" stroke-width="1" /><polygon fill="none" id="9" points="56,29" stroke="black" stroke-width="1" /></svg>