<?xml version="1.0" encoding="utf-8" ?>
<svg baseProfile="full" height="100" version="1.1" width="100" xmlns="http://www.w3.org/2000/svg" xmlns:ev="http://www.w3.org/2001/xml-events" xmlns:xlink="http://www.w3.org/1999/xlink"><defs /><polygon fill="none" id="1" points="35,57" stroke="black" stroke-width="1" /><polygon fill="none" id="2" points="41,45 49,45" stroke="black" stroke-width="1" /><polygon fill="none" id="3" points="60,35" stroke="black" stroke-width="1" /><polygon fill="none" id="4" points="32,34 32,36 31,37 31,42 30,43 30,51 29,52 30,53 30,62 31,63 31,68 32,67 32,63 33,62 33,61 31,61 30,60 30,44 31,43 31,38 32,37" stroke="black" stroke-width="1" /><polygon fill="none" id="5" points="53,33 53,43 52,44 51,44 52,44 54,46 54,49 53,50 53,60 52,61 52,63 51,64 51,65 47,69 46,69 45,70 46,70 51,65 51,64 52,63 52,62 53,61 53,58 54,57 54,45 55,44 58,44 59,43 60,43 58,43 57,44 55,44 54,43 54,34" stroke="black" stroke-width="1" /><polygon fill="none" id="6" points="59,32" stroke="black" stroke-width="1" /><polygon fill="none" id="7" points="64,31 64,32" stroke="black" stroke-width="1" /><polygon fill="none" id="8" points="63,29" stroke="black" stroke-width="1" /></svg>