<?xml version="1.0" encoding="utf-8" ?>
<svg baseProfile="full" height="100" version="1.1" width="100" xmlns="http://www.w3.org/2000/svg" xmlns:ev="http://www.w3.org/2001/xml-events" xmlns:xlink="http://www.w3.org/1999/xlink"><defs /><polygon fill="none" id="1" points="38,59" stroke="black" stroke-width="1" /><polygon fill="none" id="2" points="39,57" stroke="black" stroke-width="1" /><polygon fill="none" id="3" points="45,45 55,45" stroke="black" stroke-width="1" /><polygon fill="none" id="4" points="67,35" stroke="black" stroke-width="1" /><polygon fill="none" id="5" points="35,34 35,38 34,39 34,43 33,44 33,61 34,62 34,66 35,67 35,68 36,67 36,62 37,61 35,61 33,59 33,49 34,48 34,42 35,41 35,37 36,36 36,34" stroke="black" stroke-width="1" /><polygon fill="none" id="6" points="72,33" stroke="black" stroke-width="1" /><polygon fill="none" id="7" points="66,33" stroke="black" stroke-width="1" /><polygon fill="none" id="8" points="59,33 59,43 58,44 57,44 58,44 60,46 60,48 59,49 59,59 58,60 58,62 57,63 57,64 52,69 51,69 50,70 51,70 53,68 54,68 56,66 56,65 58,63 58,62 59,61 59,58 60,57 60,45 61,44 65,44 66,43 67,43 64,43 63,44 61,44 60,43 60,33" stroke="black" stroke-width="1" /><polygon fill="none" id="9" points="71,31" stroke="black" stroke-width="1" /><polygon fill="none" id="10" points="65,31" stroke="black" stroke-width="1" /><polygon fill="none" id="11" points="70,29" stroke="black" stroke-width="1" /></svg>