<?xml version="1.0" encoding="utf-8" ?>
<svg baseProfile="full" height="100" version="1.1" width="100" xmlns="http://www.w3.org/2000/svg" xmlns:ev="http://www.w3.org/2001/xml-events" xmlns:xlink="http://www.w3.org/1999/xlink"><defs /><polygon fill="none" id="1" points="42,59" stroke="black" stroke-width="1" /><polygon fill="none" id="2" points="43,56 43,57" stroke="black" stroke-width="1" /><polygon fill="none" id="3" points="39,34 38,35 38,39 37,40 37,44 36,45 36,60 37,61 37,65 38,66 38,68 39,67 40,67 40,62 41,61 38,61 37,60 37,46 38,45 38,41 39,40 39,36 40,35 40,34" stroke="black" stroke-width="1" /><polygon fill="none" id="4" points="79,33" stroke="black" stroke-width="1" /><polygon fill="none" id="5" points="64,33 65,34 65,43 64,44 62,44 61,45 50,45 49,44 49,45 61,45 62,44 64,44 65,45 65,59 64,60 64,62 62,64 62,65 60,67 59,67 57,69 56,69 55,70 56,70 57,69 58,69 60,67 61,67 62,66 62,65 64,63 64,62 65,61 65,58 66,57 66,45 67,44 72,44 73,43 74,43 71,43 70,44 67,44 66,43 66,33" stroke="black" stroke-width="1" /><polygon fill="none" id="6" points="78,31" stroke="black" stroke-width="1" /><polygon fill="none" id="7" points="72,31 72,32 73,33 73,35 74,35 73,34 73,33 72,32" stroke="black" stroke-width="1" /><polygon fill="none" id="8" points="77,29" stroke="black" stroke-width="1" /></svg>