<?xml version="1.0" encoding="utf-8" ?>
<svg baseProfile="full" height="100" version="1.1" width="100" xmlns="http://www.w3.org/2000/svg" xmlns:ev="http://www.w3.org/2001/xml-events" xmlns:xlink="http://www.w3.org/1999/xlink"><defs /><polygon fill="none" id="1" points="52,31 52,37 51,38 50,38 49,39 42,39 41,38 39,38 39,42 49,42 50,41 51,42 51,48 49,50 48,50 47,51 46,51 45,52 44,52 37,59 37,61 36,62 36,67 37,68 37,69 38,69 39,70 46,70 47,69 48,69 49,68 50,68 51,67 52,68 52,69 53,70 54,70 55,69 57,69 57,67 56,66 56,64 57,63 58,63 61,60 61,59 65,55 65,54 66,53 66,52 67,51 67,50 68,49 70,49 71,50 73,50 75,52 76,52 77,53 77,54 78,55 78,56 79,57 79,59 78,60 78,61 77,62 77,63 75,65 74,65 73,66 72,66 71,67 69,67 68,68 63,68 62,69 62,70 64,72 69,72 70,71 72,71 73,70 75,70 76,69 77,69 79,67 80,67 82,65 82,64 83,63 83,60 84,59 84,57 83,56 83,53 78,48 76,48 75,47 73,47 72,46 71,46 70,45 70,44 69,43 65,43 65,45 64,46 59,46 58,47 56,47 55,46 55,42 56,41 62,41 63,40 69,40 70,39 73,39 73,35 71,35 70,36 66,36 65,37 59,37 58,38 57,38 56,37 56,34 57,33 57,31" stroke="black" stroke-width="1" /><polygon fill="none" id="2" points="50,53 51,54 51,62 47,66 45,66 44,67 42,67 41,66 41,62 43,60 43,59 47,55 48,55" stroke="black" stroke-width="1" /><polygon fill="none" id="3" points="59,50 60,49 62,49 63,50 61,52 61,53 59,55 59,56 56,59 55,58 55,51 56,50" stroke="black" stroke-width="1" /></svg>