<?xml version="1.0" encoding="utf-8" ?>
<svg baseProfile="full" height="100" version="1.1" width="100" xmlns="http://www.w3.org/2000/svg" xmlns:ev="http://www.w3.org/2001/xml-events" xmlns:xlink="http://www.w3.org/1999/xlink"><defs /><polygon fill="none" id="1" points="43,69" stroke="black" stroke-width="1" /><polygon fill="none" id="2" points="46,56 45,57 44,57 40,61 39,61 39,62 38,63 38,65 40,67 40,61 44,57 45,57" stroke="black" stroke-width="1" /><polygon fill="none" id="3" points="75,54 78,57 78,62 77,63 77,64 74,67 73,67 72,68 70,68 69,69 61,69 61,70 66,70 67,69 70,69 71,68 73,68 74,67 75,67 79,63 79,61 80,60 80,59 78,57 78,56 77,55 76,55" stroke="black" stroke-width="1" /><polygon fill="none" id="4" points="71,38 71,39 72,39 73,40 74,40 76,42 77,42 80,45 81,45 81,44 80,44 78,42 77,42 75,40 74,40 73,39 72,39" stroke="black" stroke-width="1" /><polygon fill="none" id="5" points="51,34 51,42 50,43 39,43 40,44 44,44 45,43 50,43 51,44 51,54 50,55 49,55 50,55 51,56 51,68 49,70 46,70 51,70 52,69 52,54 53,53 58,53 59,52 70,52 71,53 73,53 71,53 70,52 59,52 58,53 53,53 52,52 52,44 53,43 54,43 55,42 62,42 63,41 61,41 60,42 53,42 52,41 52,34" stroke="black" stroke-width="1" /></svg>