<?xml version="1.0" encoding="utf-8" ?>
<svg baseProfile="full" height="100" version="1.1" width="100" xmlns="http://www.w3.org/2000/svg" xmlns:ev="http://www.w3.org/2001/xml-events" xmlns:xlink="http://www.w3.org/1999/xlink"><defs /><polygon fill="none" id="1" points="47,56 47,57 46,58 46,59 46,58 47,57" stroke="black" stroke-width="1" /><polygon fill="none" id="2" points="42,34 42,38 41,39 41,42 40,43 40,46 39,47 39,59 40,60 40,62 41,63 41,67 42,68 43,67 43,65 44,64 44,62 45,61 42,61 40,59 40,50 41,49 41,42 42,41 42,38 43,37 43,35 44,34" stroke="black" stroke-width="1" /><polygon fill="none" id="3" points="70,33 70,34 71,35 71,43 70,44 68,44 67,45 54,45 70,45 71,46 71,58 70,59 70,60 69,61 69,62 68,63 68,64 64,68 63,68 62,69 61,69 60,70 59,70 62,70 64,68 65,68 70,63 70,62 71,61 71,59 72,58 72,45 73,44 78,44 79,43 81,43 77,43 76,44 73,44 72,43 72,33" stroke="black" stroke-width="1" /><polygon fill="none" id="4" points="78,31 79,32 79,33 80,34 80,35 80,34 79,33 79,32" stroke="black" stroke-width="1" /><polygon fill="none" id="5" points="84,29 85,30 85,31 86,32 86,33 87,33 85,31 85,30" stroke="black" stroke-width="1" /></svg>