<?xml version="1.0" encoding="utf-8" ?>
<svg baseProfile="full" height="100" version="1.1" width="100" xmlns="http://www.w3.org/2000/svg" xmlns:ev="http://www.w3.org/2001/xml-events" xmlns:xlink="http://www.w3.org/1999/xlink"><defs /><polygon fill="none" id="1" points="29,55 28,56 28,57 27,58 27,60 26,61 26,64 27,65 27,66 30,69 31,69 32,70 34,70 35,71 49,71 50,70 51,70 51,67 50,67 49,68 45,68 44,69 35,69 34,68 32,68 29,65 29,59 31,57 31,56 30,55" stroke="black" stroke-width="1" /><polygon fill="none" id="2" points="29,38 29,41 40,41 41,42 39,44 38,44 36,46 36,47 37,48 38,48 44,42 45,42 46,41 47,41 48,40 47,39 47,38 44,38 43,39 33,39 32,38" stroke="black" stroke-width="1" /><polygon fill="none" id="3" points="50,34 49,35 49,36 52,39 52,40 53,41 53,42 54,42 55,41 55,40 53,38 53,37" stroke="black" stroke-width="1" /><polygon fill="none" id="4" points="53,31 53,33 56,36 56,37 57,38 58,37 58,36 57,35 57,34 54,31" stroke="black" stroke-width="1" /></svg>