<?xml version="1.0" encoding="utf-8" ?>
<svg baseProfile="full" height="100" version="1.1" width="100" xmlns="http://www.w3.org/2000/svg" xmlns:ev="http://www.w3.org/2001/xml-events" xmlns:xlink="http://www.w3.org/1999/xlink"><defs /><polygon fill="none" id="1" points="33,55 31,57 31,58 30,59 30,65 31,66 31,67 32,68 33,68 34,69 35,69 36,70 38,70 39,71 55,71 56,70 58,70 58,67 56,67 55,68 51,68 50,69 39,69 38,68 36,68 32,64 32,61 33,60 33,59 35,57 35,56 34,56" stroke="black" stroke-width="1" /><polygon fill="none" id="2" points="33,38 33,41 45,41 46,42 44,44 43,44 41,46 40,46 40,47 41,48 43,48 48,43 49,43 51,41 53,41 54,40 54,39 53,38 50,38 49,39 37,39 36,38" stroke="black" stroke-width="1" /><polygon fill="none" id="3" points="57,34 55,36 59,40 59,41 60,42 62,40 58,36 58,35" stroke="black" stroke-width="1" /><polygon fill="none" id="4" points="60,31 59,32 63,36 63,37 64,38 65,38 66,37 66,36 61,31" stroke="black" stroke-width="1" /></svg>