<?xml version="1.0" encoding="utf-8" ?>
<svg baseProfile="full" height="100" version="1.1" width="100" xmlns="http://www.w3.org/2000/svg" xmlns:ev="http://www.w3.org/2001/xml-events" xmlns:xlink="http://www.w3.org/1999/xlink"><defs /><polygon fill="none" id="1" points="36,55 36,56 34,58 34,59 33,60 33,65 37,69 39,69 40,70 42,70 43,71 61,71 62,70 64,70 64,67 62,67 61,68 57,68 56,69 44,69 43,68 40,68 36,64 36,60 39,57 39,56 38,56 37,55" stroke="black" stroke-width="1" /><polygon fill="none" id="2" points="37,38 37,41 50,41 51,42 49,44 48,44 46,46 45,46 45,47 46,48 47,48 49,46 50,46 52,44 53,44 55,42 56,42 57,41 59,41 60,40 60,39 59,38 56,38 55,39 41,39 40,38" stroke="black" stroke-width="1" /><polygon fill="none" id="3" points="63,34 62,35 62,36 65,39 65,40 67,42 69,40" stroke="black" stroke-width="1" /><polygon fill="none" id="4" points="67,31 66,32 70,36 70,37 71,38 72,38 73,37 73,36 68,31" stroke="black" stroke-width="1" /></svg>