<?xml version="1.0" encoding="utf-8" ?>
<svg baseProfile="full" height="100" version="1.1" width="100" xmlns="http://www.w3.org/2000/svg" xmlns:ev="http://www.w3.org/2001/xml-events" xmlns:xlink="http://www.w3.org/1999/xlink"><defs /><polygon fill="none" id="1" points="40,55 38,57 38,58 37,59 37,60 36,61 36,64 37,65 37,66 39,68 40,68 41,69 43,69 44,70 47,70 48,71 67,71 68,70 71,70 71,67 68,67 67,68 62,68 61,69 48,69 47,68 44,68 40,64 40,60 43,57 43,56 42,56 41,55" stroke="black" stroke-width="1" /><polygon fill="none" id="2" points="40,38 40,39 41,40 41,41 55,41 56,40 57,41 57,42 56,43 55,43 54,44 53,44 52,45 51,45 50,46 49,46 49,47 50,47 51,48 52,48 54,46 55,46 57,44 58,44 59,43 60,43 61,42 62,42 63,41 65,41 66,40 66,39 65,38 61,38 60,39 45,39 44,38" stroke="black" stroke-width="1" /><polygon fill="none" id="3" points="69,34 68,35 68,36 73,41 73,42 74,42 76,40 70,34" stroke="black" stroke-width="1" /><polygon fill="none" id="4" points="73,31 72,32 73,33 74,33 77,36 77,37 78,38 79,38 80,37 80,36 75,31" stroke="black" stroke-width="1" /></svg>