<?xml version="1.0" encoding="utf-8" ?>
<svg baseProfile="full" height="100" version="1.1" width="100" xmlns="http://www.w3.org/2000/svg" xmlns:ev="http://www.w3.org/2001/xml-events" xmlns:xlink="http://www.w3.org/1999/xlink"><defs /><polygon fill="none" id="1" points="44,55 41,58 41,59 40,60 40,65 43,68 44,68 45,69 47,69 48,70 51,70 52,71 73,71 74,70 77,70 77,67 75,67 74,68 68,68 67,69 53,69 52,68 48,68 47,67 46,67 43,64 43,61 47,57 47,56 46,56 45,55" stroke="black" stroke-width="1" /><polygon fill="none" id="2" points="44,38 44,41 61,41 62,42 61,43 60,43 59,44 58,44 57,45 56,45 55,46 54,46 54,47 55,48 57,48 59,46 60,46 62,44 63,44 64,43 65,43 66,42 68,42 69,41 71,41 72,40 72,39 71,38 67,38 66,39 49,39 48,38" stroke="black" stroke-width="1" /><polygon fill="none" id="3" points="76,34 75,35 74,35 74,36 75,37 76,37 78,39 78,40 80,42 81,42 83,40 82,39 81,39" stroke="black" stroke-width="1" /><polygon fill="none" id="4" points="80,31 79,32 81,34 82,34 83,35 83,36 85,38 86,38 87,37 88,37 88,36 87,35 86,35 82,31" stroke="black" stroke-width="1" /></svg>