<?xml version="1.0" encoding="utf-8" ?>
<svg baseProfile="full" height="100" version="1.1" width="100" xmlns="http://www.w3.org/2000/svg" xmlns:ev="http://www.w3.org/2001/xml-events" xmlns:xlink="http://www.w3.org/1999/xlink"><defs /><polygon fill="none" id="1" points="29,55 28,56 28,57 27,58 27,60 26,61 26,65 27,66 27,67 30,70 31,70 32,71 34,71 35,72 50,72 51,71 52,71 52,67 50,67 49,68 45,68 44,69 36,69 35,68 33,68 30,65 30,60 32,58 32,56 31,55" stroke="black" stroke-width="1" /><polygon fill="none" id="2" points="53,31 53,34 52,35 51,34 50,34 49,35 49,37 48,38 44,38 43,39 34,39 33,38 29,38 29,42 39,42 40,43 39,44 38,44 36,46 36,48 37,49 39,49 45,43 46,43 47,42 48,42 49,41 49,40 48,39 48,38 49,37 52,40 52,41 53,42 53,43 55,43 56,42 56,40 57,39 58,39 59,38 59,36 58,35 58,34 55,31" stroke="black" stroke-width="1" /><polygon fill="none" id="3" points="55,39 56,38 57,39 56,40" stroke="black" stroke-width="1" /><polygon fill="none" id="4" points="54,37 55,36 56,37 56,38 55,39 54,38" stroke="black" stroke-width="1" /><polygon fill="none" id="5" points="53,36 54,35 55,36 54,37" stroke="black" stroke-width="1" /><polygon fill="none" id="6" points="52,35 53,34 54,35 53,36" stroke="black" stroke-width="1" /></svg>