<?xml version="1.0" encoding="utf-8" ?>
<svg baseProfile="full" height="100" version="1.1" width="100" xmlns="http://www.w3.org/2000/svg" xmlns:ev="http://www.w3.org/2001/xml-events" xmlns:xlink="http://www.w3.org/1999/xlink"><defs /><polygon fill="none" id="1" points="33,55 31,57 31,58 30,59 30,66 31,67 31,68 32,69 33,69 34,70 35,70 36,71 38,71 39,72 56,72 57,71 59,71 59,67 56,67 55,68 51,68 50,69 40,69 39,68 37,68 33,64 33,62 34,61 34,60 36,58 36,56 35,56 34,55" stroke="black" stroke-width="1" /><polygon fill="none" id="2" points="60,31 59,32 59,33 58,34 57,34 55,36 55,37 54,38 50,38 49,39 38,39 37,38 33,38 33,42 44,42 45,43 44,44 43,44 41,46 40,46 40,48 41,49 44,49 49,44 50,44 52,42 54,42 55,41 55,39 56,38 59,41 59,42 60,43 61,43 63,41 63,40 64,39 66,39 67,38 67,36 62,31" stroke="black" stroke-width="1" /><polygon fill="none" id="3" points="62,39 63,38 64,39 63,40" stroke="black" stroke-width="1" /><polygon fill="none" id="4" points="54,38 55,37 56,38 55,39" stroke="black" stroke-width="1" /><polygon fill="none" id="5" points="59,35 60,34 63,37 63,38 62,39 59,36" stroke="black" stroke-width="1" /><polygon fill="none" id="6" points="58,34 59,33 60,34 59,35" stroke="black" stroke-width="1" /></svg>