<?xml version="1.0" encoding="utf-8" ?>
<svg baseProfile="full" height="100" version="1.1" width="100" xmlns="http://www.w3.org/2000/svg" xmlns:ev="http://www.w3.org/2001/xml-events" xmlns:xlink="http://www.w3.org/1999/xlink"><defs /><polygon fill="none" id="1" points="36,55 36,56 34,58 34,59 33,60 33,66 37,70 39,70 40,71 42,71 43,72 62,72 63,71 65,71 65,67 62,67 61,68 57,68 56,69 45,69 44,68 41,68 37,64 37,61 40,58 40,56 39,56 38,55" stroke="black" stroke-width="1" /><polygon fill="none" id="2" points="37,38 37,42 49,42 50,43 49,44 48,44 46,46 45,46 45,48 46,49 48,49 50,47 51,47 53,45 54,45 56,43 57,43 58,42 60,42 61,41 61,39 60,38 56,38 55,39 42,39 41,38" stroke="black" stroke-width="1" /><polygon fill="none" id="3" points="67,31 66,32 66,33 70,37 70,38 69,39 64,34 63,34 62,35 62,37 65,40 65,41 67,43 68,43 70,41 70,40 71,39 73,39 74,38 74,36 69,31" stroke="black" stroke-width="1" /><polygon fill="none" id="4" points="69,39 70,38 71,39 70,40" stroke="black" stroke-width="1" /></svg>