<?xml version="1.0" encoding="utf-8" ?>
<svg baseProfile="full" height="100" version="1.1" width="100" xmlns="http://www.w3.org/2000/svg" xmlns:ev="http://www.w3.org/2001/xml-events" xmlns:xlink="http://www.w3.org/1999/xlink"><defs /><polygon fill="none" id="1" points="40,55 38,57 38,58 37,59 37,60 36,61 36,65 37,66 37,67 39,69 40,69 41,70 43,70 44,71 47,71 48,72 68,72 69,71 72,71 72,67 68,67 67,68 62,68 61,69 49,69 48,68 45,68 41,64 41,61 44,58 44,56 43,56 42,55" stroke="black" stroke-width="1" /><polygon fill="none" id="2" points="40,38 40,40 41,41 41,42 54,42 55,43 54,44 53,44 52,45 51,45 50,46 49,46 49,48 50,48 51,49 53,49 55,47 56,47 58,45 59,45 60,44 61,44 62,43 63,43 64,42 66,42 67,41 67,39 66,38 61,38 60,39 46,39 45,38" stroke="black" stroke-width="1" /><polygon fill="none" id="3" points="73,31 72,32 72,33 71,34 69,34 68,35 68,37 73,42 73,43 75,43 77,41 77,40 78,39 80,39 81,38 81,36 76,31" stroke="black" stroke-width="1" /><polygon fill="none" id="4" points="76,39 77,38 78,39 77,40" stroke="black" stroke-width="1" /><polygon fill="none" id="5" points="72,35 73,34 74,34 77,37 77,38 76,39" stroke="black" stroke-width="1" /><polygon fill="none" id="6" points="71,34 72,33 73,34 72,35" stroke="black" stroke-width="1" /></svg>