<?xml version="1.0" encoding="utf-8" ?>
<svg baseProfile="full" height="100" version="1.1" width="100" xmlns="http://www.w3.org/2000/svg" xmlns:ev="http://www.w3.org/2001/xml-events" xmlns:xlink="http://www.w3.org/1999/xlink"><defs /><polygon fill="none" id="1" points="44,55 41,58 41,59 40,60 40,66 43,69 44,69 45,70 47,70 48,71 51,71 52,72 74,72 75,71 78,71 78,67 75,67 74,68 68,68 67,69 54,69 53,68 49,68 48,67 47,67 44,64 44,62 48,58 48,56 47,56 46,55" stroke="black" stroke-width="1" /><polygon fill="none" id="2" points="44,38 44,42 59,42 60,43 59,44 58,44 57,45 56,45 55,46 54,46 54,48 55,49 58,49 60,47 61,47 63,45 64,45 65,44 66,44 67,43 69,43 70,42 72,42 73,41 73,39 72,38 67,38 66,39 50,39 49,38" stroke="black" stroke-width="1" /><polygon fill="none" id="3" points="80,31 79,32 79,33 81,35 82,35 83,36 83,37 84,38 83,39 82,39 77,34 76,34 75,35 74,35 74,37 75,38 76,38 78,40 78,41 80,43 82,43 84,41 84,40 85,39 87,39 88,38 89,38 89,36 88,35 87,35 83,31" stroke="black" stroke-width="1" /><polygon fill="none" id="4" points="83,39 84,38 85,39 84,40" stroke="black" stroke-width="1" /></svg>