<?xml version="1.0" encoding="utf-8" ?>
<svg baseProfile="full" height="100" version="1.1" width="100" xmlns="http://www.w3.org/2000/svg" xmlns:ev="http://www.w3.org/2001/xml-events" xmlns:xlink="http://www.w3.org/1999/xlink"><defs /><polygon fill="none" id="1" points="30,56 29,57 29,58 28,59 28,61 27,62 27,64 28,65 28,66 31,69 32,69 33,70 35,70 36,71 49,71 50,70 51,70 51,68 50,69 46,69 45,70 35,70 34,69 32,69 29,66 29,59 31,57" stroke="black" stroke-width="1" /><polygon fill="none" id="2" points="30,39 30,41 41,41 42,42 42,43 40,45 39,45 37,47 38,48 44,42 45,42 46,41 47,41 47,39 45,39 44,40 33,40 32,39" stroke="black" stroke-width="1" /><polygon fill="none" id="3" points="50,36 53,39 53,40 54,41 54,42 55,41 53,39 53,38 51,36" stroke="black" stroke-width="1" /><polygon fill="none" id="4" points="54,32 54,33 57,36 57,37 58,37 57,36 57,35" stroke="black" stroke-width="1" /></svg>