<?xml version="1.0" encoding="utf-8" ?>
<svg baseProfile="full" height="100" version="1.1" width="100" xmlns="http://www.w3.org/2000/svg" xmlns:ev="http://www.w3.org/2001/xml-events" xmlns:xlink="http://www.w3.org/1999/xlink"><defs /><polygon fill="none" id="1" points="33,57 32,58 32,59 31,60 31,65 32,66 32,67 33,68 34,68 35,69 36,69 37,70 39,70 40,71 55,71 56,70 58,70 58,68 57,68 56,69 52,69 51,70 39,70 38,69 36,69 32,65 32,61 33,60 33,59 35,57" stroke="black" stroke-width="1" /><polygon fill="none" id="2" points="34,39 34,41 46,41 47,42 47,43 45,45 44,45 42,47 41,47 42,48 43,48 48,43 49,43 51,41 53,41 54,40 53,39 51,39 50,40 37,40 36,39" stroke="black" stroke-width="1" /><polygon fill="none" id="3" points="57,36 57,37 60,40 60,41 61,41 61,40 58,37 58,36" stroke="black" stroke-width="1" /><polygon fill="none" id="4" points="61,32 61,33 64,36 64,37 65,38 66,37" stroke="black" stroke-width="1" /></svg>