<?xml version="1.0" encoding="utf-8" ?>
<svg baseProfile="full" height="100" version="1.1" width="100" xmlns="http://www.w3.org/2000/svg" xmlns:ev="http://www.w3.org/2001/xml-events" xmlns:xlink="http://www.w3.org/1999/xlink"><defs /><polygon fill="none" id="1" points="37,56 37,57 35,59 35,60 34,61 34,65 38,69 40,69 41,70 43,70 44,71 61,71 62,70 64,70 64,68 63,68 62,69 58,69 57,70 44,70 43,69 40,69 36,65 36,60 39,57 38,57" stroke="black" stroke-width="1" /><polygon fill="none" id="2" points="38,39 38,41 51,41 52,42 52,43 50,45 49,45 47,47 46,47 47,48 49,46 50,46 52,44 53,44 55,42 56,42 57,41 59,41 60,40 59,39 57,39 56,40 41,40 40,39" stroke="black" stroke-width="1" /><polygon fill="none" id="3" points="63,36 66,39 66,40 67,41 68,41 68,40 64,36" stroke="black" stroke-width="1" /><polygon fill="none" id="4" points="68,32 68,33 71,36 71,37 72,38 73,37" stroke="black" stroke-width="1" /></svg>