<?xml version="1.0" encoding="utf-8" ?>
<svg baseProfile="full" height="100" version="1.1" width="100" xmlns="http://www.w3.org/2000/svg" xmlns:ev="http://www.w3.org/2001/xml-events" xmlns:xlink="http://www.w3.org/1999/xlink"><defs /><polygon fill="none" id="1" points="41,56 39,58 39,59 38,60 38,61 37,62 37,64 38,65 38,66 40,68 41,68 42,69 44,69 45,70 48,70 49,71 67,71 68,70 71,70 71,68 69,68 68,69 63,69 62,70 48,70 47,69 44,69 40,65 40,60 43,57 42,57" stroke="black" stroke-width="1" /><polygon fill="none" id="2" points="41,39 42,40 42,41 55,41 56,40 57,40 58,41 58,43 57,44 56,44 55,45 54,45 53,46 52,46 51,47 50,47 51,47 52,48 54,46 55,46 57,44 58,44 59,43 60,43 61,42 62,42 63,41 65,41 66,40 65,39 62,39 61,40 45,40 44,39" stroke="black" stroke-width="1" /><polygon fill="none" id="3" points="70,35 69,36 74,41 74,42 75,41 75,40" stroke="black" stroke-width="1" /><polygon fill="none" id="4" points="74,32 74,33 75,33 78,36 78,37 79,38 80,37 75,32" stroke="black" stroke-width="1" /></svg>