<?xml version="1.0" encoding="utf-8" ?>
<svg baseProfile="full" height="100" version="1.1" width="100" xmlns="http://www.w3.org/2000/svg" xmlns:ev="http://www.w3.org/2001/xml-events" xmlns:xlink="http://www.w3.org/1999/xlink"><defs /><polygon fill="none" id="1" points="54,39 53,40 52,40 52,41 56,45 56,46 58,48 58,49 59,50 59,51 60,52 60,53 61,54 61,56 62,57 64,55 64,53 63,52 63,51 61,49 61,48 60,47 60,46 58,44 58,43 56,41 56,40 55,39" stroke="black" stroke-width="1" /><polygon fill="none" id="2" points="39,33 39,37 38,38 38,42 36,44 30,44 29,45 27,45 27,47 28,48 29,48 30,47 32,47 33,46 36,46 37,47 36,48 36,49 35,50 35,52 34,53 34,55 33,56 33,58 32,59 32,60 31,61 31,62 30,63 30,65 28,67 28,68 27,69 28,70 29,70 30,71 30,70 31,69 31,68 32,67 32,65 33,64 33,63 34,62 34,61 35,60 35,58 36,57 36,55 37,54 37,52 38,51 38,49 39,48 39,46 40,45 45,45 47,47 47,50 48,51 48,55 47,56 47,62 46,63 46,65 45,66 45,67 44,68 41,68 40,67 39,67 38,66 37,66 37,69 39,69 40,70 45,70 48,67 48,65 49,64 49,61 50,60 50,48 49,47 49,46 48,45 48,44 47,44 46,43 41,43 40,42 40,40 41,39 41,36 42,35 42,33" stroke="black" stroke-width="1" /></svg>