<?xml version="1.0" encoding="utf-8" ?>
<svg baseProfile="full" height="100" version="1.1" width="100" xmlns="http://www.w3.org/2000/svg" xmlns:ev="http://www.w3.org/2001/xml-events" xmlns:xlink="http://www.w3.org/1999/xlink"><defs /><polygon fill="none" id="1" points="45,56 42,59 42,60 41,61 41,65 44,68 45,68 46,69 48,69 49,70 52,70 53,71 73,71 74,70 77,70 77,68 76,68 75,69 69,69 68,70 53,70 52,69 48,69 47,68 46,68 43,65 43,61 47,57 46,57" stroke="black" stroke-width="1" /><polygon fill="none" id="2" points="45,39 45,41 62,41 63,42 63,43 62,44 61,44 60,45 59,45 58,46 57,46 56,47 55,47 56,48 57,48 59,46 60,46 62,44 63,44 64,43 65,43 66,42 68,42 69,41 71,41 72,40 71,39 68,39 67,40 49,40 48,39" stroke="black" stroke-width="1" /><polygon fill="none" id="3" points="75,36 76,37 77,37 79,39 79,40 81,42 82,41 82,40 81,40 77,36" stroke="black" stroke-width="1" /><polygon fill="none" id="4" points="81,32 81,33 82,34 83,34 84,35 84,36 86,38 87,37 88,37 87,36 86,36 82,32" stroke="black" stroke-width="1" /></svg>