<?xml version="1.0" encoding="utf-8" ?>
<svg baseProfile="full" height="100" version="1.1" width="100" xmlns="http://www.w3.org/2000/svg" xmlns:ev="http://www.w3.org/2001/xml-events" xmlns:xlink="http://www.w3.org/1999/xlink"><defs /><polygon fill="none" id="1" points="28,54 27,55 27,56 26,57 26,59 25,60 25,65 26,66 26,67 29,70 30,70 31,71 33,71 34,72 50,72 51,71 52,71 52,66 49,66 48,67 44,67 43,68 36,68 35,67 33,67 30,64 30,60 32,58 32,55 31,54" stroke="black" stroke-width="1" /><polygon fill="none" id="2" points="52,30 52,32 51,33 49,33 48,34 48,36 47,37 43,37 42,38 34,38 33,37 28,37 28,42 36,42 37,43 35,45 35,48 36,49 39,49 45,43 46,43 47,42 48,42 49,41 49,40 50,39 51,40 51,41 52,42 52,43 55,43 56,42 56,40 57,39 58,39 59,38 59,35 58,34 58,33 55,30" stroke="black" stroke-width="1" /></svg>