<?xml version="1.0" encoding="utf-8" ?>
<svg baseProfile="full" height="100" version="1.1" width="100" xmlns="http://www.w3.org/2000/svg" xmlns:ev="http://www.w3.org/2001/xml-events" xmlns:xlink="http://www.w3.org/1999/xlink"><defs /><polygon fill="none" id="1" points="32,54 30,56 30,57 29,58 29,66 30,67 30,68 31,69 32,69 33,70 34,70 35,71 37,71 38,72 56,72 57,71 59,71 59,66 55,66 54,67 50,67 49,68 40,68 39,67 37,67 33,63 33,62 34,61 34,60 36,58 36,55 35,55 34,54" stroke="black" stroke-width="1" /><polygon fill="none" id="2" points="59,30 58,31 58,32 57,33 56,33 54,35 54,36 53,37 49,37 48,38 38,38 37,37 32,37 32,42 41,42 42,43 40,45 39,45 39,48 40,49 44,49 49,44 50,44 52,42 54,42 55,41 55,40 56,39 58,41 58,42 59,43 61,43 63,41 63,40 64,39 66,39 67,38 67,35 62,30" stroke="black" stroke-width="1" /></svg>