<?xml version="1.0" encoding="utf-8" ?>
<svg baseProfile="full" height="100" version="1.1" width="100" xmlns="http://www.w3.org/2000/svg" xmlns:ev="http://www.w3.org/2001/xml-events" xmlns:xlink="http://www.w3.org/1999/xlink"><defs /><polygon fill="none" id="1" points="39,54 37,56 37,57 36,58 36,59 35,60 35,65 36,66 36,67 38,69 39,69 40,70 42,70 43,71 46,71 47,72 68,72 69,71 72,71 72,66 67,66 66,67 61,67 60,68 49,68 48,67 45,67 41,63 41,61 44,58 44,55 43,55 42,54" stroke="black" stroke-width="1" /><polygon fill="none" id="2" points="72,30 71,31 71,32 70,33 68,33 67,34 67,36 66,37 60,37 59,38 46,38 45,37 39,37 39,40 40,41 40,42 51,42 52,43 51,44 50,44 49,45 48,45 48,48 49,48 50,49 53,49 55,47 56,47 58,45 59,45 60,44 61,44 62,43 63,43 64,42 66,42 67,41 67,39 68,38 72,42 72,43 75,43 77,41 77,40 78,39 80,39 81,38 81,35 76,30" stroke="black" stroke-width="1" /></svg>