<?xml version="1.0" encoding="utf-8" ?>
<svg baseProfile="full" height="100" version="1.1" width="100" xmlns="http://www.w3.org/2000/svg" xmlns:ev="http://www.w3.org/2001/xml-events" xmlns:xlink="http://www.w3.org/1999/xlink"><defs /><polygon fill="none" id="1" points="43,54 40,57 40,58 39,59 39,66 42,69 43,69 44,70 46,70 47,71 50,71 51,72 74,72 75,71 78,71 78,66 74,66 73,67 67,67 66,68 54,68 53,67 49,67 48,66 47,66 44,63 44,62 48,58 48,55 47,55 46,54" stroke="black" stroke-width="1" /><polygon fill="none" id="2" points="79,30 78,31 78,32 77,33 75,33 74,34 73,34 73,36 72,37 66,37 65,38 50,38 49,37 43,37 43,42 56,42 57,43 56,44 55,44 54,45 53,45 53,48 54,49 58,49 60,47 61,47 63,45 64,45 65,44 66,44 67,43 69,43 70,42 72,42 73,41 73,39 74,38 75,38 77,40 77,41 79,43 82,43 84,41 84,40 85,39 87,39 88,38 89,38 89,35 88,34 87,34 83,30" stroke="black" stroke-width="1" /><polygon fill="none" id="3" points="80,36 81,35 82,36 81,37" stroke="black" stroke-width="1" /></svg>