<?xml version="1.0" encoding="utf-8" ?>
<svg baseProfile="full" height="100" version="1.1" width="100" xmlns="http://www.w3.org/2000/svg" xmlns:ev="http://www.w3.org/2001/xml-events" xmlns:xlink="http://www.w3.org/1999/xlink"><defs /><polygon fill="none" id="1" points="46,69 45,70 36,70 48,70 49,69 50,69" stroke="black" stroke-width="1" /><polygon fill="none" id="2" points="33,69" stroke="black" stroke-width="1" /><polygon fill="none" id="3" points="28,59 28,61 27,62 27,63 28,64 28,65" stroke="black" stroke-width="1" /><polygon fill="none" id="4" points="29,57" stroke="black" stroke-width="1" /><polygon fill="none" id="5" points="39,45 38,46" stroke="black" stroke-width="1" /><polygon fill="none" id="6" points="30,39 30,40 41,40 42,41 42,42 43,41 44,41 45,40 46,40 46,39 45,39 44,40 32,40 31,39" stroke="black" stroke-width="1" /></svg>