<?xml version="1.0" encoding="utf-8" ?>
<svg baseProfile="full" height="100" version="1.1" width="100" xmlns="http://www.w3.org/2000/svg" xmlns:ev="http://www.w3.org/2001/xml-events" xmlns:xlink="http://www.w3.org/1999/xlink"><defs /><polygon fill="none" id="1" points="37,69" stroke="black" stroke-width="1" /><polygon fill="none" id="2" points="57,68 56,69 52,69 51,70 40,70 54,70 55,69 57,69" stroke="black" stroke-width="1" /><polygon fill="none" id="3" points="32,66 33,67" stroke="black" stroke-width="1" /><polygon fill="none" id="4" points="33,57 32,58 32,59 31,60 31,64 31,60 32,59 32,58" stroke="black" stroke-width="1" /><polygon fill="none" id="5" points="44,45 42,47" stroke="black" stroke-width="1" /><polygon fill="none" id="6" points="60,40" stroke="black" stroke-width="1" /><polygon fill="none" id="7" points="34,39 34,40 46,40 47,41 47,42 48,42 50,40 52,40 52,39 51,39 50,40 36,40 35,39" stroke="black" stroke-width="1" /><polygon fill="none" id="8" points="64,36" stroke="black" stroke-width="1" /><polygon fill="none" id="9" points="57,36" stroke="black" stroke-width="1" /></svg>