<?xml version="1.0" encoding="utf-8" ?>
<svg baseProfile="full" height="100" version="1.1" width="100" xmlns="http://www.w3.org/2000/svg" xmlns:ev="http://www.w3.org/2001/xml-events" xmlns:xlink="http://www.w3.org/1999/xlink"><defs /><polygon fill="none" id="1" points="41,69 42,69" stroke="black" stroke-width="1" /><polygon fill="none" id="2" points="63,68 62,69 58,69 57,70 44,70 60,70 61,69 63,69" stroke="black" stroke-width="1" /><polygon fill="none" id="3" points="37,57 35,59 35,60 34,61 34,64 38,68 35,65 35,59" stroke="black" stroke-width="1" /><polygon fill="none" id="4" points="49,45" stroke="black" stroke-width="1" /><polygon fill="none" id="5" points="66,39 67,40" stroke="black" stroke-width="1" /><polygon fill="none" id="6" points="38,39 38,40 51,40 52,41 52,43 54,41 55,41 56,40 58,40 58,39 57,39 56,40 40,40 39,39" stroke="black" stroke-width="1" /><polygon fill="none" id="7" points="71,36" stroke="black" stroke-width="1" /></svg>