<?xml version="1.0" encoding="utf-8" ?>
<svg baseProfile="full" height="100" version="1.1" width="100" xmlns="http://www.w3.org/2000/svg" xmlns:ev="http://www.w3.org/2001/xml-events" xmlns:xlink="http://www.w3.org/1999/xlink"><defs /><polygon fill="none" id="1" points="45,69 46,69" stroke="black" stroke-width="1" /><polygon fill="none" id="2" points="69,68 68,69 63,69 62,70 49,70 66,70 67,69 70,69 70,68" stroke="black" stroke-width="1" /><polygon fill="none" id="3" points="40,57 39,58 39,59 38,60 38,61 37,62 37,63 38,64 38,65 40,67 41,67 42,68 39,65 39,59 41,57" stroke="black" stroke-width="1" /><polygon fill="none" id="4" points="52,46" stroke="black" stroke-width="1" /><polygon fill="none" id="5" points="54,45" stroke="black" stroke-width="1" /><polygon fill="none" id="6" points="62,39 61,40 58,40 58,42 59,42 60,41 61,41 62,40 64,40 64,39" stroke="black" stroke-width="1" /><polygon fill="none" id="7" points="42,39 42,40 54,40 44,40 43,39" stroke="black" stroke-width="1" /><polygon fill="none" id="8" points="78,36" stroke="black" stroke-width="1" /><polygon fill="none" id="9" points="70,36 74,40" stroke="black" stroke-width="1" /><polygon fill="none" id="10" points="74,32" stroke="black" stroke-width="1" /></svg>