<?xml version="1.0" encoding="utf-8" ?>
<svg baseProfile="full" height="100" version="1.1" width="100" xmlns="http://www.w3.org/2000/svg" xmlns:ev="http://www.w3.org/2001/xml-events" xmlns:xlink="http://www.w3.org/1999/xlink"><defs /><polygon fill="none" id="1" points="49,69 51,69" stroke="black" stroke-width="1" /><polygon fill="none" id="2" points="76,68 75,69 69,69 68,70 53,70 72,70 73,69 76,69" stroke="black" stroke-width="1" /><polygon fill="none" id="3" points="46,68" stroke="black" stroke-width="1" /><polygon fill="none" id="4" points="44,57 42,59 42,60 41,61 41,64 44,67 42,65 42,60 45,57" stroke="black" stroke-width="1" /><polygon fill="none" id="5" points="57,46 56,47" stroke="black" stroke-width="1" /><polygon fill="none" id="6" points="59,45" stroke="black" stroke-width="1" /><polygon fill="none" id="7" points="79,39 80,40 81,40 80,40" stroke="black" stroke-width="1" /><polygon fill="none" id="8" points="45,39 45,40 62,40 63,41 63,42 64,42 65,41 67,41 68,40 70,40 70,39 68,39 67,40 48,40 47,39" stroke="black" stroke-width="1" /><polygon fill="none" id="9" points="76,36" stroke="black" stroke-width="1" /><polygon fill="none" id="10" points="84,35 85,36 86,36 85,36" stroke="black" stroke-width="1" /><polygon fill="none" id="11" points="81,32 82,33" stroke="black" stroke-width="1" /></svg>