<?xml version="1.0" encoding="utf-8" ?>
<svg baseProfile="full" height="100" version="1.1" width="100" xmlns="http://www.w3.org/2000/svg" xmlns:ev="http://www.w3.org/2001/xml-events" xmlns:xlink="http://www.w3.org/1999/xlink"><defs /><polygon fill="none" id="1" points="57,32 56,33 56,34 59,37 59,38 60,39 60,40 62,38 61,37 61,36 58,33 58,32" stroke="black" stroke-width="1" /><polygon fill="none" id="2" points="40,32 39,33 41,35 41,37 42,38 42,39 43,40 43,41 42,42 38,42 37,43 29,43 28,42 28,44 29,45 39,45 40,44 44,44 46,46 46,47 47,48 47,49 48,50 48,51 51,54 51,55 50,56 49,55 47,55 46,54 37,54 36,55 35,55 34,56 33,56 31,58 31,59 30,60 30,64 31,65 31,66 34,69 35,69 36,70 38,70 39,71 52,71 52,68 50,68 49,69 40,69 39,68 37,68 36,67 35,67 33,65 33,60 36,57 37,57 38,56 45,56 46,57 49,57 50,58 51,58 53,60 54,60 56,58 56,57 53,54 53,53 51,51 51,50 49,48 49,47 48,46 48,45 47,44 47,43 48,42 51,42 52,41 54,41 55,40 56,40 56,39 55,38 55,37 54,37 53,38 52,38 51,39 50,39 49,40 47,40 46,41 45,40 45,38 44,37 44,36 43,35 43,33 42,32" stroke="black" stroke-width="1" /><polygon fill="none" id="3" points="61,28 59,30 60,30 62,32 62,33 64,35 64,36 65,36 66,35 66,34 64,32 64,31" stroke="black" stroke-width="1" /></svg>