<?xml version="1.0" encoding="utf-8" ?>
<svg baseProfile="full" height="100" version="1.1" width="100" xmlns="http://www.w3.org/2000/svg" xmlns:ev="http://www.w3.org/2001/xml-events" xmlns:xlink="http://www.w3.org/1999/xlink"><defs /><polygon fill="none" id="1" points="63,32 62,33 62,34 67,39 67,40 69,38 67,36 67,35 64,32" stroke="black" stroke-width="1" /><polygon fill="none" id="2" points="44,32 44,33 45,34 45,35 46,36 46,37 47,38 47,39 48,40 48,41 47,42 42,42 41,43 32,43 31,42 31,43 32,44 32,45 44,45 45,44 49,44 51,46 51,47 52,48 52,49 55,52 55,53 56,54 55,55 52,55 51,54 41,54 40,55 38,55 34,59 34,65 35,66 35,67 36,68 37,68 38,69 39,69 40,70 42,70 43,71 58,71 58,69 57,68 56,68 55,69 45,69 44,68 41,68 40,67 39,67 37,65 37,64 36,63 36,61 37,60 37,59 38,58 39,58 40,57 41,57 42,56 50,56 51,57 54,57 55,58 57,58 59,60 60,60 62,58 62,57 59,54 59,53 56,50 56,49 54,47 54,46 52,44 54,42 57,42 58,41 60,41 61,40 63,40 62,39 62,38 61,37 60,37 59,38 58,38 57,39 56,39 55,40 53,40 52,41 50,39 50,38 49,37 49,36 48,35 48,34 47,33 47,32" stroke="black" stroke-width="1" /><polygon fill="none" id="3" points="55,55 56,54 57,55 56,56" stroke="black" stroke-width="1" /><polygon fill="none" id="4" points="68,28 67,29 66,29 66,30 71,35 71,36 72,36 73,35 73,33" stroke="black" stroke-width="1" /></svg>