<?xml version="1.0" encoding="utf-8" ?>
<svg baseProfile="full" height="100" version="1.1" width="100" xmlns="http://www.w3.org/2000/svg" xmlns:ev="http://www.w3.org/2001/xml-events" xmlns:xlink="http://www.w3.org/1999/xlink"><defs /><polygon fill="none" id="1" points="50,32 49,33 51,35 51,36 53,38 53,39 54,40 54,39 55,38 54,37 54,36 52,34 52,33 51,32" stroke="black" stroke-width="1" /><polygon fill="none" id="2" points="35,32 35,33 36,34 36,36 37,37 37,38 38,39 38,41 37,42 34,42 33,43 25,43 25,45 26,46 27,45 35,45 36,44 39,44 41,46 41,48 42,49 42,50 44,52 44,53 46,55 45,56 44,56 43,55 42,55 41,54 33,54 32,55 31,55 30,56 29,56 28,57 28,58 27,59 27,65 28,66 28,67 30,69 31,69 32,70 34,70 35,71 46,71 46,68 45,68 44,69 36,69 35,68 33,68 32,67 31,67 30,66 30,65 29,64 29,60 32,57 33,57 34,56 40,56 41,57 43,57 44,58 45,58 47,60 48,60 50,58 49,57 49,56 47,54 47,53 45,51 45,50 44,49 44,48 43,47 43,46 42,45 42,43 43,42 45,42 46,41 48,41 49,40 50,40 50,39 49,38 49,37 48,37 46,39 44,39 43,40 42,40 41,41 40,40 40,39 39,38 39,36 38,35 38,32" stroke="black" stroke-width="1" /><polygon fill="none" id="3" points="54,28 53,29 53,30 55,32 55,33 57,35 57,36 59,34 57,32 57,31" stroke="black" stroke-width="1" /></svg>