<?xml version="1.0" encoding="utf-8" ?>
<svg baseProfile="full" height="100" version="1.1" width="100" xmlns="http://www.w3.org/2000/svg" xmlns:ev="http://www.w3.org/2001/xml-events" xmlns:xlink="http://www.w3.org/1999/xlink"><defs /><polygon fill="none" id="1" points="76,32 75,33 74,33 74,34 75,34 80,39 80,40 81,40 83,38 77,32" stroke="black" stroke-width="1" /><polygon fill="none" id="2" points="53,32 53,33 54,34 54,35 55,36 55,37 58,40 58,41 57,42 50,42 49,43 38,43 37,42 37,43 38,44 38,45 52,45 53,44 59,44 61,46 61,47 69,55 68,56 67,56 66,55 63,55 62,54 49,54 48,55 46,55 45,56 44,56 41,59 41,61 40,62 40,63 41,64 41,65 42,66 42,67 43,68 44,68 45,69 47,69 48,70 51,70 52,71 70,71 70,70 69,69 69,68 67,68 66,69 54,69 53,68 49,68 48,67 47,67 44,64 44,60 46,58 47,58 48,57 50,57 51,56 61,56 62,57 66,57 67,58 68,58 69,59 70,59 71,60 72,60 74,58 75,58 75,57 74,57 71,54 71,53 65,47 65,46 63,44 63,43 64,42 69,42 70,41 72,41 73,40 75,40 75,39 73,37 72,38 70,38 69,39 67,39 66,40 63,40 62,41 60,39 60,38 59,37 59,36 58,35 58,34 57,33 57,32" stroke="black" stroke-width="1" /><polygon fill="none" id="3" points="82,28 81,29 80,29 79,30 80,30 86,36 87,35 88,35 88,34" stroke="black" stroke-width="1" /></svg>