<?xml version="1.0" encoding="utf-8" ?>
<svg baseProfile="full" height="100" version="1.1" width="100" xmlns="http://www.w3.org/2000/svg" xmlns:ev="http://www.w3.org/2001/xml-events" xmlns:xlink="http://www.w3.org/1999/xlink"><defs /><polygon fill="none" id="1" points="54,28 53,29 53,31 52,32 50,32 49,33 49,34 51,36 50,37 48,37 46,39 44,39 43,40 42,40 40,38 40,36 39,35 39,32 35,32 35,34 36,35 36,37 37,38 37,39 38,40 38,41 37,42 34,42 33,43 25,43 25,46 26,47 27,47 28,46 36,46 37,45 39,45 41,47 41,49 42,50 42,51 44,53 44,54 43,55 42,54 33,54 32,55 31,55 30,56 29,56 28,57 28,58 27,59 27,66 28,67 28,68 30,70 31,70 32,71 34,71 35,72 47,72 47,68 45,68 44,69 37,69 36,68 34,68 33,67 32,67 31,66 31,65 30,64 30,61 33,58 34,58 35,57 40,57 41,58 43,58 44,59 45,59 47,61 49,61 51,59 51,58 50,57 50,56 48,54 48,53 46,51 46,50 45,49 45,48 44,47 44,46 43,45 43,44 44,43 46,43 47,42 49,42 50,41 51,41 51,39 52,38 53,39 53,40 54,41 55,41 55,40 56,39 56,38 57,37 58,37 60,35 60,34 58,32 58,31 55,28" stroke="black" stroke-width="1" /><polygon fill="none" id="2" points="50,38 51,37 52,38 51,39" stroke="black" stroke-width="1" /><polygon fill="none" id="3" points="55,36 56,35 57,36 57,37 56,38 55,37" stroke="black" stroke-width="1" /><polygon fill="none" id="4" points="54,35 55,34 56,35 55,36" stroke="black" stroke-width="1" /><polygon fill="none" id="5" points="53,33 54,32 55,33 55,34 54,35 53,34" stroke="black" stroke-width="1" /><polygon fill="none" id="6" points="52,32 53,31 54,32 53,33" stroke="black" stroke-width="1" /></svg>