<?xml version="1.0" encoding="utf-8" ?>
<svg baseProfile="full" height="100" version="1.1" width="100" xmlns="http://www.w3.org/2000/svg" xmlns:ev="http://www.w3.org/2001/xml-events" xmlns:xlink="http://www.w3.org/1999/xlink"><defs /><polygon fill="none" id="1" points="61,28 59,30 59,31 58,32 57,32 56,33 56,35 57,36 56,37 54,37 53,38 52,38 51,39 50,39 49,40 47,40 46,39 46,38 45,37 45,36 44,35 44,33 43,32 40,32 39,33 39,34 41,36 41,38 42,39 42,40 43,41 42,42 38,42 37,43 30,43 29,42 28,42 28,45 29,46 40,46 41,45 44,45 46,47 46,48 47,49 47,50 48,51 48,52 50,54 49,55 48,55 47,54 37,54 36,55 35,55 34,56 33,56 31,58 31,59 30,60 30,65 31,66 31,67 34,70 35,70 36,71 38,71 39,72 53,72 53,68 50,68 49,69 41,69 40,68 38,68 37,67 36,67 34,65 34,61 37,58 38,58 39,57 45,57 46,58 49,58 50,59 51,59 53,61 55,61 57,59 57,57 54,54 54,53 52,51 52,50 50,48 50,47 49,46 49,45 48,44 49,43 52,43 53,42 55,42 56,41 57,41 57,39 56,38 56,37 57,36 59,38 59,39 60,40 60,41 61,41 63,39 63,38 64,37 66,37 67,36 67,34 65,32 65,31 62,28" stroke="black" stroke-width="1" /><polygon fill="none" id="2" points="62,36 63,35 64,36 64,37 63,38 62,37" stroke="black" stroke-width="1" /><polygon fill="none" id="3" points="61,35 62,34 63,35 62,36" stroke="black" stroke-width="1" /><polygon fill="none" id="4" points="59,32 60,31 62,33 62,34 61,35 59,33" stroke="black" stroke-width="1" /></svg>