<?xml version="1.0" encoding="utf-8" ?>
<svg baseProfile="full" height="100" version="1.1" width="100" xmlns="http://www.w3.org/2000/svg" xmlns:ev="http://www.w3.org/2001/xml-events" xmlns:xlink="http://www.w3.org/1999/xlink"><defs /><polygon fill="none" id="1" points="49,32 48,33 48,34 50,36 50,37 51,38 51,39 53,41 52,42 46,42 45,43 36,43 35,42 34,42 34,44 35,45 35,46 49,46 50,45 54,45 56,47 56,48 58,50 58,51 61,54 60,55 59,55 58,54 45,54 44,55 42,55 40,57 39,57 38,58 38,59 37,60 37,66 41,70 43,70 44,71 47,71 48,72 65,72 65,69 64,68 62,68 61,69 50,69 49,68 46,68 45,67 44,67 42,65 42,64 41,63 41,62 42,61 42,60 43,59 44,59 45,58 46,58 47,57 55,57 56,58 60,58 61,59 63,59 65,61 67,61 69,59 70,59 70,58 66,54 66,53 63,50 63,49 59,45 59,44 60,43 64,43 65,42 67,42 68,41 70,41 70,39 68,37 67,37 66,38 64,38 63,39 61,39 60,40 57,40 56,39 56,38 55,37 55,36 54,35 54,34 53,33 53,32" stroke="black" stroke-width="1" /><polygon fill="none" id="2" points="75,28 74,29 73,29 73,31 72,32 69,32 68,33 68,35 69,35 73,39 73,40 74,41 75,41 77,39 77,38 78,37 80,37 82,35 82,34 76,28" stroke="black" stroke-width="1" /><polygon fill="none" id="3" points="75,35 76,34 78,36 78,37 77,38 75,36" stroke="black" stroke-width="1" /><polygon fill="none" id="4" points="74,34 75,33 76,34 75,35" stroke="black" stroke-width="1" /><polygon fill="none" id="5" points="73,33 74,32 75,33 74,34" stroke="black" stroke-width="1" /><polygon fill="none" id="6" points="72,32 73,31 74,32 73,33" stroke="black" stroke-width="1" /></svg>