<?xml version="1.0" encoding="utf-8" ?>
<svg baseProfile="full" height="100" version="1.1" width="100" xmlns="http://www.w3.org/2000/svg" xmlns:ev="http://www.w3.org/2001/xml-events" xmlns:xlink="http://www.w3.org/1999/xlink"><defs /><polygon fill="none" id="1" points="53,32 53,34 54,35 54,36 55,37 55,38 58,41 57,42 50,42 49,43 39,43 38,42 37,42 37,44 38,45 38,46 53,46 54,45 59,45 61,47 61,48 67,54 66,55 64,55 63,54 49,54 48,55 46,55 45,56 44,56 41,59 41,61 40,62 40,64 41,65 41,66 42,67 42,68 43,69 44,69 45,70 47,70 48,71 51,71 52,72 71,72 71,70 70,69 70,68 67,68 66,69 55,69 54,68 50,68 49,67 48,67 45,64 45,61 47,59 48,59 49,58 51,58 52,57 61,57 62,58 66,58 67,59 68,59 69,60 70,60 71,61 73,61 75,59 76,59 76,57 75,57 72,54 72,53 66,47 66,46 64,44 65,43 70,43 71,42 73,42 74,41 76,41 76,39 74,37 73,37 72,38 70,38 69,39 67,39 66,40 62,40 61,39 61,38 60,37 60,36 59,35 59,34 58,33 58,32" stroke="black" stroke-width="1" /><polygon fill="none" id="2" points="82,28 81,29 80,29 79,30 79,31 78,32 76,32 75,33 74,33 74,35 75,35 80,40 80,41 82,41 84,39 84,38 78,32 79,31 80,31 86,37 87,37 88,36 89,36 89,34 83,28" stroke="black" stroke-width="1" /></svg>