<?xml version="1.0" encoding="utf-8" ?>
<svg baseProfile="full" height="100" version="1.1" width="100" xmlns="http://www.w3.org/2000/svg" xmlns:ev="http://www.w3.org/2001/xml-events" xmlns:xlink="http://www.w3.org/1999/xlink"><defs /><polygon fill="none" id="1" points="58,33 57,34 60,37 60,38 61,39 61,37 58,34" stroke="black" stroke-width="1" /><polygon fill="none" id="2" points="41,33 41,34 42,35 42,37 43,38 43,39 44,40 44,42 43,43 39,43 38,44 29,44 30,45 39,45 40,44 45,44 47,46 47,47 48,48 48,49 49,50 49,51 52,54 52,56 51,57 50,57 49,56 47,56 46,55 38,55 37,56 36,56 35,57 34,57 32,59 32,60 31,61 31,64 32,65 32,66 35,69 36,69 37,70 39,70 40,71 52,71 52,69 51,69 50,70 40,70 39,69 37,69 36,68 35,68 33,66 33,60 36,57 37,57 38,56 46,56 47,57 50,57 51,58 52,58 54,60 56,58 53,55 53,54 51,52 51,51 49,49 49,48 48,47 48,46 47,45 47,43 48,42 51,42 52,41 54,41 55,40 56,40 55,39 55,38 54,39 53,39 52,40 51,40 50,41 48,41 47,42 46,42 45,41 45,39 44,38 44,37 43,36 43,34 42,33" stroke="black" stroke-width="1" /><polygon fill="none" id="3" points="61,30 63,32 63,33 65,35 65,36 66,35 64,33 64,32 62,30" stroke="black" stroke-width="1" /></svg>