<?xml version="1.0" encoding="utf-8" ?>
<svg baseProfile="full" height="100" version="1.1" width="100" xmlns="http://www.w3.org/2000/svg" xmlns:ev="http://www.w3.org/2001/xml-events" xmlns:xlink="http://www.w3.org/1999/xlink"><defs /><polygon fill="none" id="1" points="64,33 63,34 68,39 68,38 67,37 67,36" stroke="black" stroke-width="1" /><polygon fill="none" id="2" points="45,33 46,34 46,35 47,36 47,37 48,38 48,39 49,40 49,42 48,43 43,43 42,44 33,44 33,45 44,45 45,44 50,44 52,46 52,47 53,48 53,49 56,52 56,53 58,55 58,56 57,57 56,57 55,56 52,56 51,55 42,55 41,56 39,56 35,60 35,65 36,66 36,67 37,68 38,68 39,69 40,69 41,70 43,70 44,71 58,71 58,70 57,69 56,70 45,70 44,69 41,69 40,68 39,68 37,66 37,65 36,64 36,61 37,60 37,59 38,58 39,58 40,57 41,57 42,56 51,56 52,57 55,57 56,58 58,58 60,60 62,58 59,55 59,54 56,51 56,50 54,48 54,47 52,45 52,44 54,42 57,42 58,41 60,41 61,40 62,40 62,39 61,38 60,39 59,39 58,40 57,40 56,41 54,41 53,42 52,42 50,40 50,39 49,38 49,37 48,36 48,35 47,34 47,33" stroke="black" stroke-width="1" /><polygon fill="none" id="3" points="67,30 72,35 72,36 73,35 73,34 69,30" stroke="black" stroke-width="1" /></svg>