<?xml version="1.0" encoding="utf-8" ?>
<svg baseProfile="full" height="100" version="1.1" width="100" xmlns="http://www.w3.org/2000/svg" xmlns:ev="http://www.w3.org/2001/xml-events" xmlns:xlink="http://www.w3.org/1999/xlink"><defs /><polygon fill="none" id="1" points="70,33 69,34 70,34 74,38 74,39 75,39 75,38 74,37 74,36 71,33" stroke="black" stroke-width="1" /><polygon fill="none" id="2" points="50,33 50,34 51,35 51,36 52,37 52,38 54,40 54,42 53,43 47,43 46,44 36,44 36,45 48,45 49,44 55,44 57,46 57,47 59,49 59,50 64,55 64,56 63,57 61,57 60,56 58,56 57,55 46,55 45,56 43,56 41,58 40,58 39,59 39,60 38,61 38,65 42,69 44,69 45,70 48,70 49,71 64,71 64,70 63,69 62,70 49,70 48,69 45,69 44,68 43,68 41,66 41,65 40,64 40,61 41,60 41,59 42,58 43,58 44,57 45,57 46,56 56,56 57,57 61,57 62,58 64,58 66,60 68,58 65,55 65,54 62,51 62,50 58,46 58,43 59,42 63,42 64,41 66,41 67,40 69,40 68,39 65,39 64,40 62,40 61,41 59,41 58,42 57,42 55,40 55,39 54,38 54,37 53,36 53,35 52,34 52,33" stroke="black" stroke-width="1" /><polygon fill="none" id="3" points="74,30 79,35 79,36 80,35 80,34 76,30" stroke="black" stroke-width="1" /></svg>