<?xml version="1.0" encoding="utf-8" ?>
<svg baseProfile="full" height="100" version="1.1" width="100" xmlns="http://www.w3.org/2000/svg" xmlns:ev="http://www.w3.org/2001/xml-events" xmlns:xlink="http://www.w3.org/1999/xlink"><defs /><polygon fill="none" id="1" points="77,33 76,34 75,34 76,34 81,39 81,40 82,39 82,38" stroke="black" stroke-width="1" /><polygon fill="none" id="2" points="54,33 55,34 55,35 56,36 56,37 59,40 59,42 58,43 51,43 50,44 39,44 39,45 52,45 53,44 60,44 62,46 62,47 70,55 70,56 69,57 67,57 66,56 63,56 62,55 50,55 49,56 47,56 46,57 45,57 42,60 42,62 41,63 42,64 42,65 43,66 43,67 44,68 45,68 46,69 48,69 49,70 52,70 53,71 70,71 69,70 69,69 68,69 67,70 54,70 53,69 49,69 48,68 47,68 44,65 44,60 46,58 47,58 48,57 50,57 51,56 62,56 63,57 67,57 68,58 69,58 70,59 71,59 72,60 74,58 75,58 74,58 71,55 71,54 65,48 65,47 63,45 63,43 64,42 69,42 70,41 72,41 73,40 75,40 74,39 71,39 70,40 68,40 67,41 64,41 63,42 62,42 60,40 60,39 59,38 59,37 58,36 58,35 57,34 57,33" stroke="black" stroke-width="1" /><polygon fill="none" id="3" points="81,30 86,35 88,35 83,30" stroke="black" stroke-width="1" /></svg>