<?xml version="1.0" encoding="utf-8" ?>
<svg baseProfile="full" height="100" version="1.1" width="100" xmlns="http://www.w3.org/2000/svg" xmlns:ev="http://www.w3.org/2001/xml-events" xmlns:xlink="http://www.w3.org/1999/xlink"><defs /><polygon fill="none" id="1" points="53,27 52,28 52,30 51,31 49,31 48,32 48,34 49,35 48,36 47,36 45,38 43,38 42,39 40,37 40,35 39,34 39,31 34,31 34,34 35,35 35,37 36,38 36,39 37,40 36,41 33,41 32,42 24,42 24,46 25,47 27,47 28,46 36,46 37,45 38,45 40,47 40,49 41,50 41,51 42,52 41,53 32,53 31,54 30,54 29,55 28,55 27,56 27,57 26,58 26,66 27,67 27,68 29,70 30,70 31,71 33,71 34,72 47,72 47,67 44,67 43,68 37,68 36,67 34,67 33,66 32,66 31,65 31,64 30,63 30,61 33,58 34,58 35,57 39,57 40,58 42,58 43,59 44,59 46,61 49,61 51,59 51,57 50,56 50,55 48,53 48,52 46,50 46,49 45,48 45,47 44,46 44,45 43,44 44,43 46,43 47,42 49,42 50,41 51,41 52,40 53,41 55,41 55,40 56,39 56,38 57,37 58,37 60,35 60,33 58,31 58,30 55,27" stroke="black" stroke-width="1" /></svg>