<?xml version="1.0" encoding="utf-8" ?>
<svg baseProfile="full" height="100" version="1.1" width="100" xmlns="http://www.w3.org/2000/svg" xmlns:ev="http://www.w3.org/2001/xml-events" xmlns:xlink="http://www.w3.org/1999/xlink"><defs /><polygon fill="none" id="1" points="60,27 58,29 58,30 57,31 56,31 55,32 55,35 54,36 53,36 52,37 51,37 50,38 49,38 48,39 47,39 46,38 46,37 45,36 45,35 44,34 44,32 43,31 39,31 38,32 38,34 40,36 40,38 41,39 41,40 40,41 37,41 36,42 30,42 29,41 27,41 27,45 28,46 40,46 41,45 43,45 45,47 45,48 46,49 46,50 47,51 47,52 46,53 36,53 35,54 34,54 33,55 32,55 30,57 30,58 29,59 29,65 30,66 30,67 33,70 34,70 35,71 37,71 38,72 53,72 53,67 49,67 48,68 41,68 40,67 38,67 37,66 36,66 34,64 34,61 37,58 38,58 39,57 44,57 45,58 48,58 49,59 50,59 52,61 55,61 57,59 57,56 54,53 54,52 52,50 52,49 50,47 50,46 49,45 49,44 50,43 52,43 53,42 55,42 56,41 57,41 57,40 58,39 59,40 59,41 61,41 63,39 63,38 64,37 66,37 67,36 67,33 65,31 65,30 62,27" stroke="black" stroke-width="1" /></svg>