<?xml version="1.0" encoding="utf-8" ?>
<svg baseProfile="full" height="100" version="1.1" width="100" xmlns="http://www.w3.org/2000/svg" xmlns:ev="http://www.w3.org/2001/xml-events" xmlns:xlink="http://www.w3.org/1999/xlink"><defs /><polygon fill="none" id="1" points="67,27 66,28 65,28 65,30 64,31 62,31 61,32 61,35 60,36 59,36 58,37 57,37 56,38 55,38 54,39 52,39 51,38 51,37 50,36 50,35 49,34 49,33 48,32 48,31 43,31 43,34 44,35 44,36 45,37 45,38 46,39 46,40 45,41 41,41 40,42 33,42 32,41 30,41 30,44 31,45 31,46 45,46 46,45 48,45 50,47 50,48 51,49 51,50 53,52 52,53 40,53 39,54 37,54 33,58 33,66 34,67 34,68 35,69 36,69 37,70 38,70 39,71 41,71 42,72 59,72 59,68 58,67 55,67 54,68 46,68 45,67 42,67 41,66 40,66 38,64 38,63 37,62 38,61 38,60 39,59 40,59 41,58 42,58 43,57 49,57 50,58 53,58 54,59 56,59 58,61 61,61 63,59 63,56 60,53 60,52 57,49 57,48 55,46 55,45 54,44 55,43 58,43 59,42 61,42 62,41 64,41 64,40 65,39 66,40 66,41 68,41 70,39 70,38 71,37 73,37 74,36 74,32 69,27" stroke="black" stroke-width="1" /><polygon fill="none" id="2" points="52,53 53,52 54,53 53,54" stroke="black" stroke-width="1" /></svg>