<?xml version="1.0" encoding="utf-8" ?>
<svg baseProfile="full" height="100" version="1.1" width="100" xmlns="http://www.w3.org/2000/svg" xmlns:ev="http://www.w3.org/2001/xml-events" xmlns:xlink="http://www.w3.org/1999/xlink"><defs /><polygon fill="none" id="1" points="74,27 73,28 72,28 72,30 71,31 68,31 67,32 67,35 65,37 63,37 62,38 60,38 59,39 57,39 56,38 56,37 55,36 55,35 54,34 54,33 53,32 53,31 48,31 47,32 47,34 49,36 49,37 50,38 50,39 51,40 50,41 45,41 44,42 36,42 35,41 33,41 33,44 34,45 34,46 49,46 50,45 53,45 55,47 55,48 57,50 57,51 58,52 57,53 44,53 43,54 41,54 39,56 38,56 37,57 37,58 36,59 36,66 40,70 42,70 43,71 46,71 47,72 65,72 65,68 64,67 61,67 60,68 50,68 49,67 46,67 45,66 44,66 42,64 42,63 41,62 42,61 42,60 43,59 44,59 45,58 46,58 47,57 54,57 55,58 59,58 60,59 62,59 64,61 67,61 69,59 70,59 70,57 66,53 66,52 63,49 63,48 59,44 60,43 64,43 65,42 67,42 68,41 70,41 70,39 71,38 72,39 72,40 73,41 75,41 77,39 77,38 78,37 80,37 82,35 82,33 76,27" stroke="black" stroke-width="1" /></svg>