<?xml version="1.0" encoding="utf-8" ?>
<svg baseProfile="full" height="100" version="1.1" width="100" xmlns="http://www.w3.org/2000/svg" xmlns:ev="http://www.w3.org/2001/xml-events" xmlns:xlink="http://www.w3.org/1999/xlink"><defs /><polygon fill="none" id="1" points="81,27 80,28 79,28 78,29 78,30 77,31 75,31 74,32 73,32 73,35 71,37 69,37 68,38 66,38 65,39 62,39 61,38 61,37 60,36 60,35 59,34 59,33 58,32 58,31 52,31 52,34 53,35 53,36 54,37 54,38 56,40 55,41 49,41 48,42 39,42 38,41 36,41 36,44 37,45 37,46 53,46 54,45 58,45 60,47 60,48 64,52 63,53 48,53 47,54 45,54 44,55 43,55 40,58 40,60 39,61 39,64 40,65 40,66 41,67 41,68 42,69 43,69 44,70 46,70 47,71 50,71 51,72 71,72 71,69 70,68 70,67 66,67 65,68 55,68 54,67 50,67 49,66 48,66 45,63 45,61 47,59 48,59 49,58 51,58 52,57 60,57 61,58 65,58 66,59 67,59 68,60 69,60 70,61 73,61 75,59 76,59 76,56 75,56 72,53 72,52 66,46 66,45 65,44 66,43 70,43 71,42 73,42 74,41 76,41 76,39 77,38 79,40 79,41 82,41 84,39 84,38 85,37 87,37 88,36 89,36 89,33 83,27" stroke="black" stroke-width="1" /><polygon fill="none" id="2" points="63,53 64,52 65,53 64,54" stroke="black" stroke-width="1" /></svg>