<?xml version="1.0" encoding="utf-8" ?>
<svg baseProfile="full" height="100" version="1.1" width="100" xmlns="http://www.w3.org/2000/svg" xmlns:ev="http://www.w3.org/2001/xml-events" xmlns:xlink="http://www.w3.org/1999/xlink"><defs /><polygon fill="none" id="1" points="36,70 45,70" stroke="black" stroke-width="1" /><polygon fill="none" id="2" points="33,69 34,69" stroke="black" stroke-width="1" /><polygon fill="none" id="3" points="31,68" stroke="black" stroke-width="1" /><polygon fill="none" id="4" points="29,66" stroke="black" stroke-width="1" /><polygon fill="none" id="5" points="28,60 28,64" stroke="black" stroke-width="1" /><polygon fill="none" id="6" points="30,57 29,58" stroke="black" stroke-width="1" /><polygon fill="none" id="7" points="47,56 46,57 45,57 46,57 47,58 48,58 48,57" stroke="black" stroke-width="1" /><polygon fill="none" id="8" points="42,56" stroke="black" stroke-width="1" /><polygon fill="none" id="9" points="32,56" stroke="black" stroke-width="1" /><polygon fill="none" id="10" points="34,55 40,55" stroke="black" stroke-width="1" /><polygon fill="none" id="11" points="43,49" stroke="black" stroke-width="1" /><polygon fill="none" id="12" points="42,47" stroke="black" stroke-width="1" /><polygon fill="none" id="13" points="39,40 39,42 38,43 35,43 34,44 26,44 34,44 35,43 40,43 41,44 41,42 40,42 39,41" stroke="black" stroke-width="1" /><polygon fill="none" id="14" points="48,39 47,40 45,40 44,41 43,41 44,41 45,40 47,40" stroke="black" stroke-width="1" /><polygon fill="none" id="15" points="38,37" stroke="black" stroke-width="1" /><polygon fill="none" id="16" points="37,33 37,35" stroke="black" stroke-width="1" /><polygon fill="none" id="17" points="56,32" stroke="black" stroke-width="1" /></svg>