<?xml version="1.0" encoding="utf-8" ?>
<svg baseProfile="full" height="100" version="1.1" width="100" xmlns="http://www.w3.org/2000/svg" xmlns:ev="http://www.w3.org/2001/xml-events" xmlns:xlink="http://www.w3.org/1999/xlink"><defs /><polygon fill="none" id="1" points="51,69 50,70 40,70 51,70" stroke="black" stroke-width="1" /><polygon fill="none" id="2" points="37,69 38,69" stroke="black" stroke-width="1" /><polygon fill="none" id="3" points="35,68" stroke="black" stroke-width="1" /><polygon fill="none" id="4" points="34,57 32,59 32,60 31,61 31,63 32,64 32,65 32,59" stroke="black" stroke-width="1" /><polygon fill="none" id="5" points="47,56 48,56" stroke="black" stroke-width="1" /><polygon fill="none" id="6" points="36,56" stroke="black" stroke-width="1" /><polygon fill="none" id="7" points="38,55 45,55" stroke="black" stroke-width="1" /><polygon fill="none" id="8" points="52,54 52,56 51,57 52,57 53,58 54,58 54,57 52,55" stroke="black" stroke-width="1" /><polygon fill="none" id="9" points="49,50 50,51" stroke="black" stroke-width="1" /><polygon fill="none" id="10" points="48,48" stroke="black" stroke-width="1" /><polygon fill="none" id="11" points="47,46" stroke="black" stroke-width="1" /><polygon fill="none" id="12" points="53,39 52,40 51,40 50,41 48,41 50,41 51,40 53,40 54,39" stroke="black" stroke-width="1" /><polygon fill="none" id="13" points="60,37" stroke="black" stroke-width="1" /><polygon fill="none" id="14" points="41,33 42,34 42,36 43,37 43,38 44,39 44,42 43,43 39,43 38,44 30,44 38,44 39,43 45,43 46,44 46,42 45,42 44,41 44,39 43,38 43,37 42,36 42,34" stroke="black" stroke-width="1" /><polygon fill="none" id="15" points="63,32" stroke="black" stroke-width="1" /></svg>