<?xml version="1.0" encoding="utf-8" ?>
<svg baseProfile="full" height="100" version="1.1" width="100" xmlns="http://www.w3.org/2000/svg" xmlns:ev="http://www.w3.org/2001/xml-events" xmlns:xlink="http://www.w3.org/1999/xlink"><defs /><polygon fill="none" id="1" points="41,69 43,69 44,70 57,70 44,70 43,69" stroke="black" stroke-width="1" /><polygon fill="none" id="2" points="39,68" stroke="black" stroke-width="1" /><polygon fill="none" id="3" points="36,59 35,60 35,64 36,65 36,66 37,67 36,66 36,65 35,64 35,60" stroke="black" stroke-width="1" /><polygon fill="none" id="4" points="52,56 54,56" stroke="black" stroke-width="1" /><polygon fill="none" id="5" points="39,56 38,57 39,56 40,56" stroke="black" stroke-width="1" /><polygon fill="none" id="6" points="42,55 50,55" stroke="black" stroke-width="1" /><polygon fill="none" id="7" points="56,52 58,54 58,56 57,57 56,57 58,57 59,58 60,58 60,57 58,55 58,54" stroke="black" stroke-width="1" /><polygon fill="none" id="8" points="52,46 53,47 53,48 55,50 53,48 53,47" stroke="black" stroke-width="1" /><polygon fill="none" id="9" points="59,39 58,40 57,40 56,41 54,41 56,41 57,40 59,40 60,39 61,39" stroke="black" stroke-width="1" /><polygon fill="none" id="10" points="64,34 66,36" stroke="black" stroke-width="1" /><polygon fill="none" id="11" points="46,33 46,34 47,35 47,36 48,37 48,38 49,39 49,42 48,43 43,43 42,44 33,44 43,44 44,43 50,43 51,44 51,43 52,42 51,42 49,40 49,39 48,38 48,37 47,36 47,35 46,34" stroke="black" stroke-width="1" /><polygon fill="none" id="12" points="68,30 72,34" stroke="black" stroke-width="1" /></svg>