<?xml version="1.0" encoding="utf-8" ?>
<svg baseProfile="full" height="100" version="1.1" width="100" xmlns="http://www.w3.org/2000/svg" xmlns:ev="http://www.w3.org/2001/xml-events" xmlns:xlink="http://www.w3.org/1999/xlink"><defs /><polygon fill="none" id="1" points="49,70 63,70" stroke="black" stroke-width="1" /><polygon fill="none" id="2" points="45,69 47,69" stroke="black" stroke-width="1" /><polygon fill="none" id="3" points="40,58 39,59 39,60 38,61 38,64 42,68 43,68 42,68 40,66 40,65 39,64 39,60 40,59" stroke="black" stroke-width="1" /><polygon fill="none" id="4" points="43,56 42,57 43,56 44,56" stroke="black" stroke-width="1" /><polygon fill="none" id="5" points="46,55 56,55 57,56 59,56 57,56 56,55" stroke="black" stroke-width="1" /><polygon fill="none" id="6" points="65,39 64,40 62,40 61,41 59,41 62,41 63,40 65,40 66,39 67,39" stroke="black" stroke-width="1" /><polygon fill="none" id="7" points="74,38" stroke="black" stroke-width="1" /><polygon fill="none" id="8" points="70,33 73,36" stroke="black" stroke-width="1" /><polygon fill="none" id="9" points="50,33 51,34 51,35 52,36 52,37 54,39 54,42 53,43 47,43 46,44 36,44 47,44 48,43 55,43 57,45 57,46 59,48 59,49 64,54 64,56 63,57 62,57 64,57 65,58 66,58 66,57 64,55 64,54 61,51 61,50 57,46 57,42 56,42 54,40 54,39 53,38 53,37 52,36 52,35 51,34 51,33" stroke="black" stroke-width="1" /><polygon fill="none" id="10" points="75,30 79,34" stroke="black" stroke-width="1" /></svg>