<?xml version="1.0" encoding="utf-8" ?>
<svg baseProfile="full" height="100" version="1.1" width="100" xmlns="http://www.w3.org/2000/svg" xmlns:ev="http://www.w3.org/2001/xml-events" xmlns:xlink="http://www.w3.org/1999/xlink"><defs /><polygon fill="none" id="1" points="48,39 47,40 47,42 50,45 50,46 51,47 51,48 52,49 52,50 53,51 53,52 54,53 54,56 55,57 57,55 57,54 56,53 56,51 55,50 55,49 53,47 53,46 52,45 52,44 51,43 51,42 49,40 49,39" stroke="black" stroke-width="1" /><polygon fill="none" id="2" points="35,33 35,34 34,35 34,42 32,44 27,44 26,45 24,45 24,47 25,48 26,47 29,47 30,46 32,46 33,47 32,48 32,49 31,50 31,52 30,53 30,56 29,57 29,59 28,60 28,61 27,62 27,64 26,65 26,66 25,67 25,68 24,69 26,71 27,70 27,69 28,68 28,66 29,65 29,64 30,63 30,61 31,60 31,58 32,57 32,55 33,54 33,51 34,50 34,47 36,45 39,45 42,48 42,61 41,62 41,65 40,66 40,67 39,68 37,68 36,67 35,67 34,66 33,66 33,69 34,69 35,70 40,70 42,68 42,67 43,66 43,63 44,62 44,55 45,54 45,51 44,50 44,46 41,43 36,43 35,42 36,41 36,38 37,37 37,33" stroke="black" stroke-width="1" /></svg>