<?xml version="1.0" encoding="utf-8" ?>
<svg baseProfile="full" height="100" version="1.1" width="100" xmlns="http://www.w3.org/2000/svg" xmlns:ev="http://www.w3.org/2001/xml-events" xmlns:xlink="http://www.w3.org/1999/xlink"><defs /><polygon fill="none" id="1" points="49,69 52,69 53,70 68,70 68,69 67,70 53,70 52,69" stroke="black" stroke-width="1" /><polygon fill="none" id="2" points="63,56 65,56" stroke="black" stroke-width="1" /><polygon fill="none" id="3" points="50,55 49,56 47,56 46,57 45,57 42,60 42,64 43,65 43,66 44,67 45,67 46,68 47,68 46,68 43,65 43,59 45,57 46,57 47,56 49,56 50,55 61,55" stroke="black" stroke-width="1" /><polygon fill="none" id="4" points="71,39 70,40 68,40 67,41 64,41 68,41 69,40 71,40 72,39 73,39" stroke="black" stroke-width="1" /><polygon fill="none" id="5" points="77,34 81,38" stroke="black" stroke-width="1" /><polygon fill="none" id="6" points="55,33 55,34 56,35 56,36 59,39 59,42 58,43 51,43 50,44 39,44 51,44 52,43 60,43 62,45 62,46 70,54 70,56 69,57 68,57 69,57 70,58 72,58 72,57 70,55 70,54 64,48 64,47 62,45 62,42 61,42 59,40 59,39 58,38 58,37 57,36 57,35 56,34 56,33" stroke="black" stroke-width="1" /><polygon fill="none" id="7" points="82,30 86,34" stroke="black" stroke-width="1" /></svg>