<?xml version="1.0" encoding="utf-8" ?>
<svg baseProfile="full" height="100" version="1.1" width="100" xmlns="http://www.w3.org/2000/svg" xmlns:ev="http://www.w3.org/2001/xml-events" xmlns:xlink="http://www.w3.org/1999/xlink"><defs /><polygon fill="none" id="1" points="45,36 44,37 44,38 47,41 47,42 48,43 48,44 50,42 48,40 48,39 46,37 46,36" stroke="black" stroke-width="1" /><polygon fill="none" id="2" points="30,33 30,64 31,65 31,68 34,71 35,71 36,72 42,72 43,71 44,71 45,70 46,70 50,66 50,65 52,63 52,62 53,61 53,59 51,57 51,59 50,60 50,61 49,62 49,63 43,69 42,69 41,70 37,70 36,69 35,69 34,68 34,67 33,66 33,33" stroke="black" stroke-width="1" /><polygon fill="none" id="3" points="49,32 48,33 48,35 51,38 51,39 52,40 53,39 53,37 50,34 50,33" stroke="black" stroke-width="1" /></svg>