<?xml version="1.0" encoding="utf-8" ?>
<svg baseProfile="full" height="100" version="1.1" width="100" xmlns="http://www.w3.org/2000/svg" xmlns:ev="http://www.w3.org/2001/xml-events" xmlns:xlink="http://www.w3.org/1999/xlink"><defs /><polygon fill="none" id="1" points="50,36 49,37 52,40 52,41 54,43 54,44 56,42 55,41 55,40 51,36" stroke="black" stroke-width="1" /><polygon fill="none" id="2" points="34,33 34,65 35,66 35,68 38,71 39,71 40,72 47,72 48,71 50,71 52,69 53,69 57,65 57,64 59,62 59,61 60,60 60,59 58,57 58,58 57,59 57,60 56,61 56,62 50,68 49,68 48,69 47,69 46,70 41,70 37,66 37,33" stroke="black" stroke-width="1" /><polygon fill="none" id="3" points="55,32 53,34 54,34 56,36 56,37 58,39 58,40 59,40 60,39 60,38 58,36 58,35" stroke="black" stroke-width="1" /></svg>