<?xml version="1.0" encoding="utf-8" ?>
<svg baseProfile="full" height="100" version="1.1" width="100" xmlns="http://www.w3.org/2000/svg" xmlns:ev="http://www.w3.org/2001/xml-events" xmlns:xlink="http://www.w3.org/1999/xlink"><defs /><polygon fill="none" id="1" points="56,36 55,37 55,38 60,43 60,44 62,42 61,41 61,40 57,36" stroke="black" stroke-width="1" /><polygon fill="none" id="2" points="38,33 38,65 39,66 39,68 42,71 44,71 45,72 52,72 53,71 55,71 56,70 57,70 58,69 59,69 65,63 65,62 67,60 64,57 64,59 62,61 62,62 56,68 55,68 54,69 52,69 51,70 46,70 45,69 44,69 42,67 42,66 41,65 41,35 42,34 42,33" stroke="black" stroke-width="1" /><polygon fill="none" id="3" points="61,32 59,34 60,34 63,37 63,38 65,40 67,38" stroke="black" stroke-width="1" /></svg>