<?xml version="1.0" encoding="utf-8" ?>
<svg baseProfile="full" height="100" version="1.1" width="100" xmlns="http://www.w3.org/2000/svg" xmlns:ev="http://www.w3.org/2001/xml-events" xmlns:xlink="http://www.w3.org/1999/xlink"><defs /><polygon fill="none" id="1" points="67,36 66,37 66,38 67,38 72,43 72,44 73,43 74,43 75,42 69,36" stroke="black" stroke-width="1" /><polygon fill="none" id="2" points="45,33 46,34 46,66 47,67 47,68 49,70 50,70 51,71 53,71 54,72 63,72 64,71 66,71 67,70 69,70 70,69 71,69 73,67 74,67 81,60 80,59 79,59 78,58 77,58 76,59 76,60 70,66 69,66 67,68 66,68 65,69 63,69 62,70 55,70 54,69 53,69 50,66 50,65 49,64 49,52 50,51 50,33" stroke="black" stroke-width="1" /><polygon fill="none" id="3" points="73,32 71,34 72,34 78,40 79,39 80,39 80,38 75,33 74,33" stroke="black" stroke-width="1" /></svg>