<?xml version="1.0" encoding="utf-8" ?>
<svg baseProfile="full" height="100" version="1.1" width="100" xmlns="http://www.w3.org/2000/svg" xmlns:ev="http://www.w3.org/2001/xml-events" xmlns:xlink="http://www.w3.org/1999/xlink"><defs /><polygon fill="none" id="1" points="30,33 30,65 31,66 31,69 34,72 35,72 36,73 43,73 44,72 45,72 46,71 47,71 51,67 51,66 53,64 53,63 54,62 54,59 52,57 51,57 51,59 50,60 50,61 49,62 49,63 43,69 42,69 41,70 38,70 37,69 36,69 35,68 35,67 34,66 34,33" stroke="black" stroke-width="1" /><polygon fill="none" id="2" points="49,32 48,33 48,35 47,36 45,36 44,37 44,39 47,42 47,43 48,44 48,45 49,45 51,43 51,42 52,41 53,41 54,40 54,37 51,34 51,33 50,32" stroke="black" stroke-width="1" /><polygon fill="none" id="3" points="50,41 51,40 52,41 51,42" stroke="black" stroke-width="1" /><polygon fill="none" id="4" points="49,39 50,38 51,39 51,40 50,41 49,40" stroke="black" stroke-width="1" /><polygon fill="none" id="5" points="48,38 49,37 50,38 49,39" stroke="black" stroke-width="1" /><polygon fill="none" id="6" points="47,37 48,36 49,37 48,38" stroke="black" stroke-width="1" /></svg>