<?xml version="1.0" encoding="utf-8" ?>
<svg baseProfile="full" height="100" version="1.1" width="100" xmlns="http://www.w3.org/2000/svg" xmlns:ev="http://www.w3.org/2001/xml-events" xmlns:xlink="http://www.w3.org/1999/xlink"><defs /><polygon fill="none" id="1" points="34,33 34,66 35,67 35,69 38,72 39,72 40,73 48,73 49,72 51,72 53,70 54,70 58,66 58,65 60,63 60,62 61,61 61,59 59,57 58,57 58,58 57,59 57,60 56,61 56,62 50,68 49,68 48,69 47,69 46,70 42,70 38,66 38,33" stroke="black" stroke-width="1" /><polygon fill="none" id="2" points="55,32 53,34 53,35 52,36 50,36 49,37 49,38 52,41 52,42 54,44 54,45 55,45 57,43 57,42 58,41 60,41 61,40 61,38 59,36 59,35 56,32" stroke="black" stroke-width="1" /><polygon fill="none" id="3" points="56,40 57,39 58,40 58,41 57,42 56,41" stroke="black" stroke-width="1" /><polygon fill="none" id="4" points="55,39 56,38 57,39 56,40" stroke="black" stroke-width="1" /><polygon fill="none" id="5" points="52,36 53,35 54,35 56,37 56,38 55,39" stroke="black" stroke-width="1" /></svg>