<?xml version="1.0" encoding="utf-8" ?>
<svg baseProfile="full" height="100" version="1.1" width="100" xmlns="http://www.w3.org/2000/svg" xmlns:ev="http://www.w3.org/2001/xml-events" xmlns:xlink="http://www.w3.org/1999/xlink"><defs /><polygon fill="none" id="1" points="38,33 38,66 39,67 39,69 42,72 44,72 45,73 53,73 54,72 56,72 57,71 58,71 59,70 60,70 66,64 66,63 68,61 68,60 65,57 64,57 64,59 62,61 62,62 56,68 55,68 54,69 52,69 51,70 47,70 46,69 45,69 43,67 43,66 42,65 42,36 43,35 43,33" stroke="black" stroke-width="1" /><polygon fill="none" id="2" points="61,32 59,34 59,35 58,36 56,36 55,37 55,39 60,44 60,45 61,45 63,43 63,42 62,41 62,40 63,39 65,41 66,41 68,39 68,38 62,32" stroke="black" stroke-width="1" /><polygon fill="none" id="3" points="58,36 59,35 60,35 63,38 63,39 62,40" stroke="black" stroke-width="1" /></svg>