<?xml version="1.0" encoding="utf-8" ?>
<svg baseProfile="full" height="100" version="1.1" width="100" xmlns="http://www.w3.org/2000/svg" xmlns:ev="http://www.w3.org/2001/xml-events" xmlns:xlink="http://www.w3.org/1999/xlink"><defs /><polygon fill="none" id="1" points="42,33 42,67 43,68 43,69 46,72 48,72 49,73 59,73 60,72 62,72 63,71 64,71 65,70 66,70 75,61 75,60 73,58 70,58 70,59 69,60 69,61 63,67 62,67 61,68 60,68 59,69 57,69 56,70 51,70 50,69 49,69 47,67 47,66 46,65 46,38 47,37 47,33" stroke="black" stroke-width="1" /><polygon fill="none" id="2" points="67,32 65,34 65,35 64,36 62,36 61,37 60,37 60,38 66,44 66,45 67,45 69,43 69,41 70,40 71,41 73,41 75,39 75,38 72,35 71,35 68,32" stroke="black" stroke-width="1" /><polygon fill="none" id="3" points="64,36 65,35 66,35 70,39 70,40 69,41" stroke="black" stroke-width="1" /></svg>