<?xml version="1.0" encoding="utf-8" ?>
<svg baseProfile="full" height="100" version="1.1" width="100" xmlns="http://www.w3.org/2000/svg" xmlns:ev="http://www.w3.org/2001/xml-events" xmlns:xlink="http://www.w3.org/1999/xlink"><defs /><polygon fill="none" id="1" points="45,33 45,34 46,35 46,67 47,68 47,69 49,71 50,71 51,72 53,72 54,73 64,73 65,72 67,72 68,71 70,71 71,70 72,70 74,68 75,68 82,61 82,60 81,59 80,59 79,58 77,58 76,59 76,60 70,66 69,66 67,68 66,68 65,69 63,69 62,70 56,70 55,69 54,69 51,66 51,65 50,64 50,53 51,52 51,33" stroke="black" stroke-width="1" /><polygon fill="none" id="2" points="73,32 71,34 71,35 70,36 67,36 66,37 66,39 67,39 72,44 72,45 73,45 74,44 75,44 76,43 76,42 70,36 71,35 72,35 78,41 79,41 80,40 81,40 81,38 76,33 75,33 74,32" stroke="black" stroke-width="1" /></svg>