<?xml version="1.0" encoding="utf-8" ?>
<svg baseProfile="full" height="100" version="1.1" width="100" xmlns="http://www.w3.org/2000/svg" xmlns:ev="http://www.w3.org/2001/xml-events" xmlns:xlink="http://www.w3.org/1999/xlink"><defs /><polygon fill="none" id="1" points="46,37 45,38 48,41 48,42 49,43 49,42 48,41 48,40 46,38" stroke="black" stroke-width="1" /><polygon fill="none" id="2" points="49,34 49,35 52,38 52,39 53,39 53,38 50,35 50,34" stroke="black" stroke-width="1" /><polygon fill="none" id="3" points="31,34 31,64 32,65 32,68 35,71 36,71 37,72 42,72 43,71 44,71 45,70 46,70 50,66 50,65 52,63 52,62 53,61 53,60 52,59 52,60 51,61 51,62 50,63 50,64 44,70 43,70 42,71 37,71 36,70 35,70 34,69 34,68 33,67 33,34" stroke="black" stroke-width="1" /></svg>