<?xml version="1.0" encoding="utf-8" ?>
<svg baseProfile="full" height="100" version="1.1" width="100" xmlns="http://www.w3.org/2000/svg" xmlns:ev="http://www.w3.org/2001/xml-events" xmlns:xlink="http://www.w3.org/1999/xlink"><defs /><polygon fill="none" id="1" points="51,37 51,38 53,40 53,41 55,43 55,41" stroke="black" stroke-width="1" /><polygon fill="none" id="2" points="55,34 57,36 57,37 59,39 59,40 60,39 58,37 58,36 56,34" stroke="black" stroke-width="1" /><polygon fill="none" id="3" points="35,34 35,65 36,66 36,68 39,71 40,71 41,72 47,72 48,71 50,71 52,69 53,69 57,65 57,64 59,62 59,61 60,60 59,59 58,60 58,61 57,62 57,63 51,69 50,69 49,70 48,70 47,71 41,71 37,67 37,34" stroke="black" stroke-width="1" /></svg>