<?xml version="1.0" encoding="utf-8" ?>
<svg baseProfile="full" height="100" version="1.1" width="100" xmlns="http://www.w3.org/2000/svg" xmlns:ev="http://www.w3.org/2001/xml-events" xmlns:xlink="http://www.w3.org/1999/xlink"><defs /><polygon fill="none" id="1" points="57,37 56,38 61,43 61,41" stroke="black" stroke-width="1" /><polygon fill="none" id="2" points="61,34 64,37 64,38 65,39 66,39 66,38 62,34" stroke="black" stroke-width="1" /><polygon fill="none" id="3" points="39,34 39,65 40,66 40,68 43,71 45,71 46,72 52,72 53,71 55,71 56,70 57,70 58,69 59,69 65,63 65,62 66,61 66,60 65,59 65,60 63,62 63,63 57,69 56,69 55,70 53,70 52,71 46,71 45,70 44,70 42,68 42,67 41,66 41,35 42,34" stroke="black" stroke-width="1" /></svg>