<?xml version="1.0" encoding="utf-8" ?>
<svg baseProfile="full" height="100" version="1.1" width="100" xmlns="http://www.w3.org/2000/svg" xmlns:ev="http://www.w3.org/2001/xml-events" xmlns:xlink="http://www.w3.org/1999/xlink"><defs /><polygon fill="none" id="1" points="63,37 62,38 67,43 68,42" stroke="black" stroke-width="1" /><polygon fill="none" id="2" points="67,34 71,38 71,39 72,40 73,39 73,38 71,36 70,36 68,34" stroke="black" stroke-width="1" /><polygon fill="none" id="3" points="43,34 43,66 44,67 44,68 47,71 49,71 50,72 58,72 59,71 61,71 62,70 63,70 64,69 65,69 73,61 73,60 72,59 71,59 71,60 70,61 70,62 64,68 63,68 62,69 61,69 60,70 58,70 57,71 50,71 49,70 48,70 46,68 46,67 45,66 45,37 46,36 46,34" stroke="black" stroke-width="1" /></svg>