<?xml version="1.0" encoding="utf-8" ?>
<svg baseProfile="full" height="100" version="1.1" width="100" xmlns="http://www.w3.org/2000/svg" xmlns:ev="http://www.w3.org/2001/xml-events" xmlns:xlink="http://www.w3.org/1999/xlink"><defs /><polygon fill="none" id="1" points="68,37 67,38 68,38 73,43 74,43 74,42 69,37" stroke="black" stroke-width="1" /><polygon fill="none" id="2" points="73,34 78,39 80,39 75,34" stroke="black" stroke-width="1" /><polygon fill="none" id="3" points="47,34 47,66 48,67 48,68 50,70 51,70 52,71 54,71 55,72 63,72 64,71 66,71 67,70 69,70 70,69 71,69 73,67 74,67 80,61 80,60 79,60 78,59 77,60 77,61 71,67 70,67 68,69 67,69 66,70 64,70 63,71 55,71 54,70 53,70 50,67 50,66 49,65 49,52 50,51 50,34" stroke="black" stroke-width="1" /></svg>