<?xml version="1.0" encoding="utf-8" ?>
<svg baseProfile="full" height="100" version="1.1" width="100" xmlns="http://www.w3.org/2000/svg" xmlns:ev="http://www.w3.org/2001/xml-events" xmlns:xlink="http://www.w3.org/1999/xlink"><defs /><polygon fill="none" id="1" points="29,32 29,65 30,66 30,69 33,72 34,72 35,73 43,73 44,72 45,72 46,71 47,71 51,67 51,66 53,64 53,63 54,62 54,58 52,56 50,56 50,58 49,59 49,60 48,61 48,62 42,68 41,68 40,69 38,69 37,68 36,68 35,67 35,66 34,65 34,32" stroke="black" stroke-width="1" /><polygon fill="none" id="2" points="48,31 47,32 47,34 46,35 44,35 43,36 43,39 46,42 46,43 47,44 47,45 49,45 51,43 51,42 52,41 53,41 54,40 54,36 51,33 51,32 50,31" stroke="black" stroke-width="1" /></svg>