<?xml version="1.0" encoding="utf-8" ?>
<svg baseProfile="full" height="100" version="1.1" width="100" xmlns="http://www.w3.org/2000/svg" xmlns:ev="http://www.w3.org/2001/xml-events" xmlns:xlink="http://www.w3.org/1999/xlink"><defs /><polygon fill="none" id="1" points="33,32 33,66 34,67 34,69 37,72 38,72 39,73 48,73 49,72 51,72 53,70 54,70 58,66 58,65 60,63 60,62 61,61 61,58 59,56 57,56 57,57 56,58 56,59 55,60 55,61 49,67 48,67 47,68 46,68 45,69 42,69 38,65 38,32" stroke="black" stroke-width="1" /><polygon fill="none" id="2" points="54,31 52,33 52,34 51,35 49,35 48,36 48,38 51,41 51,42 53,44 53,45 55,45 57,43 57,42 58,41 60,41 61,40 61,37 59,35 59,34 56,31" stroke="black" stroke-width="1" /></svg>