<?xml version="1.0" encoding="utf-8" ?>
<svg baseProfile="full" height="100" version="1.1" width="100" xmlns="http://www.w3.org/2000/svg" xmlns:ev="http://www.w3.org/2001/xml-events" xmlns:xlink="http://www.w3.org/1999/xlink"><defs /><polygon fill="none" id="1" points="37,32 37,66 38,67 38,69 41,72 43,72 44,73 53,73 54,72 56,72 57,71 58,71 59,70 60,70 66,64 66,63 68,61 68,59 65,56 63,56 63,58 61,60 61,61 55,67 54,67 53,68 51,68 50,69 47,69 46,68 45,68 43,66 43,65 42,64 42,36 43,35 43,32" stroke="black" stroke-width="1" /><polygon fill="none" id="2" points="60,31 58,33 58,34 57,35 55,35 54,36 54,39 59,44 59,45 61,45 63,43 63,42 64,41 66,41 68,39 68,37 62,31" stroke="black" stroke-width="1" /></svg>