<?xml version="1.0" encoding="utf-8" ?>
<svg baseProfile="full" height="100" version="1.1" width="100" xmlns="http://www.w3.org/2000/svg" xmlns:ev="http://www.w3.org/2001/xml-events" xmlns:xlink="http://www.w3.org/1999/xlink"><defs /><polygon fill="none" id="1" points="41,32 41,67 42,68 42,69 45,72 47,72 48,73 59,73 60,72 62,72 63,71 64,71 65,70 66,70 75,61 75,59 73,57 69,57 69,58 68,59 68,60 62,66 61,66 60,67 59,67 58,68 56,68 55,69 51,69 50,68 49,68 47,66 47,65 46,64 46,38 47,37 47,32" stroke="black" stroke-width="1" /><polygon fill="none" id="2" points="66,31 64,33 64,34 63,35 61,35 60,36 59,36 59,38 65,44 65,45 67,45 69,43 69,42 70,41 73,41 75,39 75,37 72,34 71,34 68,31" stroke="black" stroke-width="1" /></svg>