<?xml version="1.0" encoding="utf-8" ?>
<svg baseProfile="full" height="100" version="1.1" width="100" xmlns="http://www.w3.org/2000/svg" xmlns:ev="http://www.w3.org/2001/xml-events" xmlns:xlink="http://www.w3.org/1999/xlink"><defs /><polygon fill="none" id="1" points="44,32 44,34 45,35 45,67 46,68 46,69 48,71 49,71 50,72 52,72 53,73 64,73 65,72 67,72 68,71 70,71 71,70 72,70 74,68 75,68 82,61 82,59 81,58 80,58 79,57 76,57 75,58 75,59 69,65 68,65 66,67 65,67 64,68 62,68 61,69 56,69 55,68 54,68 51,65 51,64 50,63 50,53 51,52 51,32" stroke="black" stroke-width="1" /><polygon fill="none" id="2" points="72,31 70,33 70,34 69,35 66,35 65,36 65,39 66,39 71,44 71,45 73,45 74,44 75,44 76,43 76,42 77,41 79,41 80,40 81,40 81,37 76,32 75,32 74,31" stroke="black" stroke-width="1" /></svg>