<?xml version="1.0" encoding="utf-8" ?>
<svg baseProfile="full" height="100" version="1.1" width="100" xmlns="http://www.w3.org/2000/svg" xmlns:ev="http://www.w3.org/2001/xml-events" xmlns:xlink="http://www.w3.org/1999/xlink"><defs /><polygon fill="none" id="1" points="71,59 71,60 70,61 70,62 64,68 63,68 62,69 61,69 60,70 58,70 57,71 50,71 57,71 58,70 60,70 61,69 62,69 63,68 64,68 72,60" stroke="black" stroke-width="1" /><polygon fill="none" id="2" points="63,38 66,41" stroke="black" stroke-width="1" /><polygon fill="none" id="3" points="70,36 71,37 71,38 72,38" stroke="black" stroke-width="1" /><polygon fill="none" id="4" points="43,34 43,65 44,66 44,67 47,70 48,70 47,70 45,68 45,67 44,66 44,36 45,35 45,34" stroke="black" stroke-width="1" /></svg>