<?xml version="1.0" encoding="utf-8" ?>
<svg baseProfile="full" height="100" version="1.1" width="100" xmlns="http://www.w3.org/2000/svg" xmlns:ev="http://www.w3.org/2001/xml-events" xmlns:xlink="http://www.w3.org/1999/xlink"><defs /><polygon fill="none" id="1" points="55,71 62,71" stroke="black" stroke-width="1" /><polygon fill="none" id="2" points="64,70 65,70" stroke="black" stroke-width="1" /><polygon fill="none" id="3" points="77,60 77,61 71,67 70,67 68,69 67,69 68,69 69,68 70,68 72,66 73,66 79,60" stroke="black" stroke-width="1" /><polygon fill="none" id="4" points="68,37 73,42" stroke="black" stroke-width="1" /><polygon fill="none" id="5" points="74,34 78,38" stroke="black" stroke-width="1" /><polygon fill="none" id="6" points="47,34 47,65 48,66 48,67 50,69 51,69 52,70 53,70 52,70 49,67 49,66 48,65 48,51 49,50 49,34" stroke="black" stroke-width="1" /></svg>