<?xml version="1.0" encoding="utf-8" ?>
<svg baseProfile="full" height="100" version="1.1" width="100" xmlns="http://www.w3.org/2000/svg" xmlns:ev="http://www.w3.org/2001/xml-events" xmlns:xlink="http://www.w3.org/1999/xlink"><defs /><polygon fill="none" id="1" points="46,30 46,38 45,39 44,38 38,38 37,39 27,39 27,41 44,41 45,40 46,41 46,46 45,47 44,47 43,46 40,46 39,47 38,47 37,48 37,49 36,50 36,57 37,58 37,59 38,60 39,60 40,61 43,61 44,60 45,60 46,59 47,60 47,61 45,63 45,64 43,66 42,66 39,69 37,69 36,70 38,72 39,72 40,71 41,71 42,70 43,70 47,66 47,65 48,64 48,63 49,62 49,51 48,50 48,41 49,40 61,40 62,41 62,38 49,38 48,37 48,33 49,32 49,30" stroke="black" stroke-width="1" /><polygon fill="none" id="2" points="41,48 43,48 46,51 46,57 44,59 41,59 39,57 39,56 38,55 38,52 39,51 39,50" stroke="black" stroke-width="1" /><polygon fill="none" id="3" points="55,28 53,30 56,33 56,34 57,35 58,35 59,34 57,32 57,31 56,30 56,29" stroke="black" stroke-width="1" /><polygon fill="none" id="4" points="60,27 59,28 59,29 61,31 61,32 62,33 62,34 63,34 64,33 64,32 63,31 63,30 61,28 61,27" stroke="black" stroke-width="1" /></svg>