<?xml version="1.0" encoding="utf-8" ?>
<svg baseProfile="full" height="100" version="1.1" width="100" xmlns="http://www.w3.org/2000/svg" xmlns:ev="http://www.w3.org/2001/xml-events" xmlns:xlink="http://www.w3.org/1999/xlink"><defs /><polygon fill="none" id="1" points="51,30 51,38 50,39 49,38 43,38 42,39 30,39 30,41 49,41 50,40 51,41 51,46 50,47 49,47 48,46 44,46 40,50 40,57 44,61 48,61 49,60 50,60 51,59 52,60 52,61 50,63 50,64 49,65 48,65 45,68 44,68 43,69 42,69 41,70 40,70 42,72 44,72 45,71 46,71 48,69 49,69 52,66 52,65 54,63 54,60 55,59 55,53 54,52 54,41 55,40 68,40 69,41 69,38 55,38 54,37 54,30" stroke="black" stroke-width="1" /><polygon fill="none" id="2" points="45,49 46,48 48,48 51,51 51,57 50,58 49,58 48,59 45,59 43,57 43,55 42,54 42,52 43,51 43,50 44,49" stroke="black" stroke-width="1" /><polygon fill="none" id="3" points="61,28 59,30 62,33 62,34 63,35 64,35 65,34 65,33 63,31 63,30" stroke="black" stroke-width="1" /><polygon fill="none" id="4" points="66,27 65,28 67,30 67,31 68,32 68,33 69,34 70,34 71,33 71,32 70,31 70,30 68,28 68,27" stroke="black" stroke-width="1" /></svg>