<?xml version="1.0" encoding="utf-8" ?>
<svg baseProfile="full" height="100" version="1.1" width="100" xmlns="http://www.w3.org/2000/svg" xmlns:ev="http://www.w3.org/2001/xml-events" xmlns:xlink="http://www.w3.org/1999/xlink"><defs /><polygon fill="none" id="1" points="61,30 61,38 60,39 59,38 51,38 50,39 35,39 35,41 59,41 60,40 61,41 61,46 60,47 59,47 58,46 53,46 52,47 51,47 48,50 48,57 51,60 52,60 53,61 58,61 59,60 60,60 61,59 62,59 63,60 56,67 55,67 54,68 53,68 52,69 50,69 49,70 48,70 50,72 53,72 54,71 55,71 56,70 57,70 58,69 59,69 65,63 65,61 66,60 66,53 65,52 65,41 66,40 81,40 82,41 83,41 83,38 66,38 65,37 65,30" stroke="black" stroke-width="1" /><polygon fill="none" id="2" points="54,49 55,48 58,48 61,51 61,52 62,53 62,54 61,55 61,57 60,58 59,58 58,59 55,59 54,58 53,58 52,57 52,56 51,55 51,52 52,51 52,50 53,49" stroke="black" stroke-width="1" /><polygon fill="none" id="3" points="72,29 71,30 75,34 75,35 78,35 78,33 75,30 75,29" stroke="black" stroke-width="1" /><polygon fill="none" id="4" points="80,27 79,28 78,28 82,32 82,33 83,34 84,34 85,33 86,33 86,32 85,32 84,31 84,30 81,27" stroke="black" stroke-width="1" /></svg>