<?xml version="1.0" encoding="utf-8" ?>
<svg baseProfile="full" height="100" version="1.1" width="100" xmlns="http://www.w3.org/2000/svg" xmlns:ev="http://www.w3.org/2001/xml-events" xmlns:xlink="http://www.w3.org/1999/xlink"><defs /><polygon fill="none" id="1" points="41,30 41,37 40,38 34,38 33,39 24,39 24,41 38,41 39,40 40,40 41,41 41,46 40,47 39,47 38,46 35,46 33,48 33,49 32,50 32,57 33,58 33,59 35,61 38,61 39,60 40,60 41,61 41,62 40,63 40,64 36,68 35,68 34,69 33,69 32,70 34,72 35,72 37,70 38,70 41,67 41,66 42,65 42,64 43,63 43,60 44,59 44,53 43,52 43,41 44,40 53,40 54,41 55,41 55,38 44,38 43,37 43,30" stroke="black" stroke-width="1" /><polygon fill="none" id="2" points="40,60 41,59 42,60 41,61" stroke="black" stroke-width="1" /><polygon fill="none" id="3" points="35,49 36,48 38,48 41,51 41,56 40,57 40,58 39,59 36,59 34,57 34,51 35,50" stroke="black" stroke-width="1" /><polygon fill="none" id="4" points="49,28 48,29 48,31 49,32 49,33 50,34 50,35 51,35 52,34 51,33 51,32 50,31 50,30 49,29" stroke="black" stroke-width="1" /><polygon fill="none" id="5" points="53,27 52,28 53,29 53,30 54,31 54,32 55,33 55,34 56,34 57,33 57,32 56,31 56,30 54,28 54,27" stroke="black" stroke-width="1" /></svg>