<?xml version="1.0" encoding="utf-8" ?>
<svg baseProfile="full" height="100" version="1.1" width="100" xmlns="http://www.w3.org/2000/svg" xmlns:ev="http://www.w3.org/2001/xml-events" xmlns:xlink="http://www.w3.org/1999/xlink"><defs /><polygon fill="none" id="1" points="36,32 36,33 35,34 35,38 33,40 28,40 27,39 27,41 32,41 33,40 34,40 35,41 35,49 31,53 30,53 30,54 27,57 27,58 26,59 26,61 25,62 25,67 27,69 29,69 30,68 31,68 33,66 35,66 36,67 36,68 37,68 37,67 36,66 36,64 37,63 37,62 40,59 40,58 41,57 41,56 42,55 42,54 43,53 43,51 44,50 44,49 45,48 48,48 53,53 53,63 48,68 47,68 46,69 43,69 43,71 45,71 46,70 47,70 48,69 49,69 53,65 53,64 54,63 54,61 55,60 55,57 54,56 54,53 53,52 53,51 51,49 50,49 49,48 48,48 47,47 46,47 45,46 45,44 44,44 44,46 43,47 41,47 40,48 37,48 36,47 36,41 37,40 40,40 41,39 45,39 46,38 48,38 48,36 47,37 45,37 44,38 41,38 40,39 37,39 36,38 36,35 37,34 37,32" stroke="black" stroke-width="1" /><polygon fill="none" id="2" points="31,53 32,52 34,52 35,53 35,64 32,67 31,67 30,68 28,68 26,66 26,62 27,61 27,59 29,57 29,56 31,54" stroke="black" stroke-width="1" /><polygon fill="none" id="3" points="38,49 39,48 42,48 43,49 43,51 42,52 42,53 41,54 41,56 40,57 40,58 39,59 39,60 38,61 36,61 35,60 35,56 36,55 35,54 35,51 37,49" stroke="black" stroke-width="1" /></svg>