<?xml version="1.0" encoding="utf-8" ?>
<svg baseProfile="full" height="100" version="1.1" width="100" xmlns="http://www.w3.org/2000/svg" xmlns:ev="http://www.w3.org/2001/xml-events" xmlns:xlink="http://www.w3.org/1999/xlink"><defs /><polygon fill="none" id="1" points="46,30 46,37 45,38 38,38 37,39 27,39 27,42 45,42 46,43 46,46 45,47 44,46 40,46 39,47 38,47 37,48 37,49 36,50 36,58 37,59 37,60 38,61 39,61 40,62 44,62 45,63 45,64 43,66 42,66 39,69 37,69 36,70 36,71 38,73 40,73 41,72 42,72 43,71 44,71 48,67 48,66 49,65 49,64 50,63 50,51 49,50 49,42 50,41 61,41 62,42 63,42 63,38 50,38 49,37 49,34 50,33 50,30" stroke="black" stroke-width="1" /><polygon fill="none" id="2" points="44,62 45,61 46,62 45,63" stroke="black" stroke-width="1" /><polygon fill="none" id="3" points="42,49 43,49 46,52 46,57 44,59 42,59 40,57 40,56 39,55 39,53 40,52 40,51" stroke="black" stroke-width="1" /><polygon fill="none" id="4" points="60,27 59,28 59,30 58,31 57,30 57,29 56,28 55,28 53,30 53,31 56,34 56,35 57,36 59,36 60,35 60,34 61,33 62,34 62,35 64,35 65,34 65,32 64,31 64,30 62,28 62,27" stroke="black" stroke-width="1" /><polygon fill="none" id="5" points="58,31 59,30 61,32 61,33 60,34 58,32" stroke="black" stroke-width="1" /></svg>