<?xml version="1.0" encoding="utf-8" ?>
<svg baseProfile="full" height="100" version="1.1" width="100" xmlns="http://www.w3.org/2000/svg" xmlns:ev="http://www.w3.org/2001/xml-events" xmlns:xlink="http://www.w3.org/1999/xlink"><defs /><polygon fill="none" id="1" points="56,30 56,37 55,38 47,38 46,39 32,39 32,42 55,42 56,43 56,46 55,47 54,46 49,46 48,47 47,47 44,50 44,58 47,61 48,61 49,62 54,62 55,63 55,64 54,65 53,65 51,67 50,67 49,68 48,68 47,69 46,69 45,70 44,70 44,71 46,73 49,73 50,72 51,72 52,71 53,71 54,70 55,70 59,66 59,65 61,63 61,59 62,58 62,54 61,53 61,51 60,50 60,42 61,41 75,41 76,42 77,42 77,38 61,38 60,37 60,33 61,32 61,30" stroke="black" stroke-width="1" /><polygon fill="none" id="2" points="54,62 55,61 56,62 55,63" stroke="black" stroke-width="1" /><polygon fill="none" id="3" points="51,49 53,49 56,52 56,57 55,58 54,58 53,59 51,59 48,56 48,52" stroke="black" stroke-width="1" /><polygon fill="none" id="4" points="73,27 72,28 72,30 71,31 68,28 67,28 65,30 65,31 68,34 68,35 69,36 72,36 73,35 73,34 71,32 71,31 72,30 75,33 75,34 76,35 78,35 79,34 80,34 80,33 78,31 78,30 75,27" stroke="black" stroke-width="1" /></svg>