<?xml version="1.0" encoding="utf-8" ?>
<svg baseProfile="full" height="100" version="1.1" width="100" xmlns="http://www.w3.org/2000/svg" xmlns:ev="http://www.w3.org/2001/xml-events" xmlns:xlink="http://www.w3.org/1999/xlink"><defs /><polygon fill="none" id="1" points="61,30 61,37 60,38 51,38 50,39 35,39 35,42 60,42 61,43 61,46 60,47 59,46 53,46 52,47 51,47 48,50 48,58 51,61 52,61 53,62 59,62 60,63 56,67 55,67 54,68 53,68 52,69 50,69 49,70 48,70 48,71 50,73 54,73 55,72 56,72 57,71 58,71 59,70 60,70 66,64 66,62 67,61 67,53 66,52 66,42 67,41 81,41 82,42 84,42 84,38 67,38 66,37 66,30" stroke="black" stroke-width="1" /><polygon fill="none" id="2" points="59,62 60,61 61,62 60,63" stroke="black" stroke-width="1" /><polygon fill="none" id="3" points="55,50 56,49 58,49 61,52 61,53 62,54 61,55 61,57 60,58 59,58 58,59 56,59 55,58 54,58 53,57 53,56 52,55 52,53 53,52 53,51 54,50" stroke="black" stroke-width="1" /><polygon fill="none" id="4" points="72,29 71,30 71,31 75,35 75,36 79,36 79,33 76,30 76,29" stroke="black" stroke-width="1" /><polygon fill="none" id="5" points="80,27 79,28 78,28 78,29 82,33 82,34 83,35 85,35 86,34 87,34 87,32 86,32 85,31 85,30 82,27" stroke="black" stroke-width="1" /></svg>