<?xml version="1.0" encoding="utf-8" ?>
<svg baseProfile="full" height="100" version="1.1" width="100" xmlns="http://www.w3.org/2000/svg" xmlns:ev="http://www.w3.org/2001/xml-events" xmlns:xlink="http://www.w3.org/1999/xlink"><defs /><polygon fill="none" id="1" points="52,31 52,39 51,40 50,40 49,39 44,39 43,40 31,40 31,41 49,41 50,40 51,40 52,41 52,47 51,48 49,48 48,47 45,47 41,51 41,57 45,61 48,61 49,60 50,60 51,59 52,59 53,60 53,62 51,64 51,65 50,66 49,66 46,69 45,69 44,70 43,70 42,71 43,72 44,72 45,71 46,71 48,69 49,69 52,66 52,65 54,63 54,60 55,59 55,54 54,53 54,41 55,40 69,40 69,39 55,39 54,38 54,31" stroke="black" stroke-width="1" /><polygon fill="none" id="2" points="45,49 46,48 49,48 52,51 52,58 51,59 50,59 49,60 45,60 43,58 43,56 42,55 42,52 43,51 43,50 44,49" stroke="black" stroke-width="1" /><polygon fill="none" id="3" points="61,30 61,31 63,33 63,34 64,35 65,34 63,32 63,31 62,30" stroke="black" stroke-width="1" /><polygon fill="none" id="4" points="67,28 67,29 68,30 68,31 69,32 69,33 70,34 71,33 70,32 70,31 68,29 68,28" stroke="black" stroke-width="1" /></svg>