<?xml version="1.0" encoding="utf-8" ?>
<svg baseProfile="full" height="100" version="1.1" width="100" xmlns="http://www.w3.org/2000/svg" xmlns:ev="http://www.w3.org/2001/xml-events" xmlns:xlink="http://www.w3.org/1999/xlink"><defs /><polygon fill="none" id="1" points="57,31 57,39 56,40 55,40 54,39 48,39 47,40 34,40 34,41 54,41 55,40 56,40 57,41 57,47 56,48 54,48 53,47 50,47 49,48 48,48 45,51 45,57 48,60 49,60 50,61 53,61 54,60 55,60 56,59 57,59 58,60 58,62 56,64 56,65 55,66 54,66 52,68 51,68 50,69 49,69 48,70 47,70 46,71 47,72 48,72 49,71 50,71 51,70 52,70 53,69 54,69 58,65 58,64 60,62 60,58 61,57 61,55 60,54 60,52 59,51 59,41 60,40 76,40 76,39 60,39 59,38 59,32 60,31" stroke="black" stroke-width="1" /><polygon fill="none" id="2" points="50,48 54,48 57,51 57,58 56,59 55,59 54,60 50,60 47,57 47,55 46,54 46,53 47,52 47,51" stroke="black" stroke-width="1" /><polygon fill="none" id="3" points="67,30 67,31 69,33 69,34 70,35 71,35 71,34 70,33 70,32 68,30" stroke="black" stroke-width="1" /><polygon fill="none" id="4" points="74,28 73,29 76,32 76,33 77,34 78,33 77,32 77,31" stroke="black" stroke-width="1" /></svg>