<?xml version="1.0" encoding="utf-8" ?>
<svg baseProfile="full" height="100" version="1.1" width="100" xmlns="http://www.w3.org/2000/svg" xmlns:ev="http://www.w3.org/2001/xml-events" xmlns:xlink="http://www.w3.org/1999/xlink"><defs /><polygon fill="none" id="1" points="48,39 47,40 47,43 50,46 50,47 51,48 51,49 52,50 52,51 53,52 53,53 54,54 54,57 55,58 56,58 58,56 58,54 57,53 57,51 56,50 56,49 54,47 54,46 53,45 53,44 52,43 52,42 50,40 50,39" stroke="black" stroke-width="1" /><polygon fill="none" id="2" points="35,33 35,34 34,35 34,42 32,44 27,44 26,45 24,45 24,48 25,49 26,49 27,48 30,48 31,47 32,48 32,49 31,50 31,52 30,53 30,56 29,57 29,59 28,60 28,61 27,62 27,64 26,65 26,66 25,67 25,68 24,69 24,70 26,72 27,72 28,71 28,70 29,69 29,67 30,66 30,65 31,64 31,62 32,61 32,59 33,58 33,56 34,55 34,52 35,51 35,48 37,46 39,46 42,49 42,61 41,62 41,65 40,66 40,67 39,68 38,68 37,67 36,67 35,66 33,66 33,70 34,70 35,71 41,71 43,69 43,68 44,67 44,64 45,63 45,56 46,55 46,51 45,50 45,46 42,43 38,43 37,42 37,39 38,38 38,33" stroke="black" stroke-width="1" /></svg>