<?xml version="1.0" encoding="utf-8" ?>
<svg baseProfile="full" height="100" version="1.1" width="100" xmlns="http://www.w3.org/2000/svg" xmlns:ev="http://www.w3.org/2001/xml-events" xmlns:xlink="http://www.w3.org/1999/xlink"><defs /><polygon fill="none" id="1" points="62,31 62,39 61,40 60,40 59,39 52,39 51,40 36,40 36,41 59,41 60,40 61,40 62,41 62,47 61,48 59,48 58,47 54,47 53,48 52,48 49,51 49,57 52,60 53,60 54,61 58,61 59,60 60,60 61,59 63,59 64,60 64,61 57,68 56,68 55,69 54,69 53,70 51,70 50,71 51,72 53,72 54,71 55,71 56,70 57,70 58,69 59,69 65,63 65,61 66,60 66,54 65,53 65,41 66,40 82,40 83,41 83,39 66,39 65,38 65,31" stroke="black" stroke-width="1" /><polygon fill="none" id="2" points="54,49 55,48 59,48 62,51 62,52 63,53 63,55 62,56 62,58 61,59 60,59 59,60 55,60 54,59 53,59 52,58 52,57 51,56 51,52 52,51 52,50 53,49" stroke="black" stroke-width="1" /><polygon fill="none" id="3" points="73,30 73,31 76,34 76,35 78,35 78,34 75,31 75,30" stroke="black" stroke-width="1" /><polygon fill="none" id="4" points="81,28 80,29 83,32 83,33 84,34 85,33 86,33 85,33 84,32 84,31" stroke="black" stroke-width="1" /></svg>