<?xml version="1.0" encoding="utf-8" ?>
<svg baseProfile="full" height="100" version="1.1" width="100" xmlns="http://www.w3.org/2000/svg" xmlns:ev="http://www.w3.org/2001/xml-events" xmlns:xlink="http://www.w3.org/1999/xlink"><defs /><polygon fill="none" id="1" points="52,26 51,27 48,27 47,28 47,32 48,33 48,34 49,35 49,36 48,37 45,37 44,36 44,29 40,29 40,36 39,37 33,37 32,38 23,38 23,42 39,42 40,43 40,44 39,45 34,45 32,47 32,48 31,49 31,58 32,59 32,60 34,62 38,62 39,63 35,67 34,67 33,68 32,68 31,69 31,71 33,73 36,73 38,71 39,71 42,68 42,67 43,66 43,65 44,64 44,61 45,60 45,52 44,51 44,42 45,41 52,41 53,42 56,42 56,37 53,37 52,36 53,35 57,35 58,34 58,31 57,30 57,29 55,27 55,26" stroke="black" stroke-width="1" /><polygon fill="none" id="2" points="36,50 37,49 40,52 40,55 39,56 39,57 38,58 37,58 35,56 35,52 36,51" stroke="black" stroke-width="1" /></svg>