<?xml version="1.0" encoding="utf-8" ?>
<svg baseProfile="full" height="100" version="1.1" width="100" xmlns="http://www.w3.org/2000/svg" xmlns:ev="http://www.w3.org/2001/xml-events" xmlns:xlink="http://www.w3.org/1999/xlink"><defs /><polygon fill="none" id="1" points="72,26 71,27 71,28 70,29 68,27 66,27 64,29 64,31 67,34 67,35 68,36 67,37 61,37 60,36 60,33 61,32 61,29 55,29 55,36 54,37 46,37 45,38 31,38 31,42 54,42 55,43 55,44 54,45 48,45 47,46 46,46 43,49 43,58 46,61 47,61 48,62 53,62 54,63 53,64 52,64 50,66 49,66 48,67 47,67 46,68 45,68 44,69 43,69 43,71 45,73 49,73 50,72 51,72 52,71 53,71 54,70 55,70 59,66 59,65 61,63 61,59 62,58 62,53 61,52 61,50 60,49 60,42 61,41 74,41 75,42 77,42 77,37 73,37 72,36 74,34 75,35 78,35 79,34 80,34 80,32 78,30 78,29 75,26" stroke="black" stroke-width="1" /><polygon fill="none" id="2" points="51,49 52,49 55,52 55,56 54,57 53,57 52,58 51,58 48,55 48,52" stroke="black" stroke-width="1" /></svg>