<?xml version="1.0" encoding="utf-8" ?>
<svg baseProfile="full" height="100" version="1.1" width="100" xmlns="http://www.w3.org/2000/svg" xmlns:ev="http://www.w3.org/2001/xml-events" xmlns:xlink="http://www.w3.org/1999/xlink"><defs /><polygon fill="none" id="1" points="40,66 37,69 36,69 35,70 34,70 35,70 36,69 37,69" stroke="black" stroke-width="1" /><polygon fill="none" id="2" points="41,64" stroke="black" stroke-width="1" /><polygon fill="none" id="3" points="42,62" stroke="black" stroke-width="1" /><polygon fill="none" id="4" points="36,60 37,60" stroke="black" stroke-width="1" /><polygon fill="none" id="5" points="33,51 33,56" stroke="black" stroke-width="1" /><polygon fill="none" id="6" points="34,49" stroke="black" stroke-width="1" /><polygon fill="none" id="7" points="36,47 37,47" stroke="black" stroke-width="1" /><polygon fill="none" id="8" points="55,31" stroke="black" stroke-width="1" /><polygon fill="none" id="9" points="42,31 42,38 41,39 35,39 34,40 25,40 37,40 38,39 41,39 42,40 42,47 41,48 40,48 42,50 42,57 41,58 43,58 43,54 42,53 42,40 43,39 54,39 43,39 42,38" stroke="black" stroke-width="1" /></svg>