<?xml version="1.0" encoding="utf-8" ?>
<svg baseProfile="full" height="100" version="1.1" width="100" xmlns="http://www.w3.org/2000/svg" xmlns:ev="http://www.w3.org/2001/xml-events" xmlns:xlink="http://www.w3.org/1999/xlink"><defs /><polygon fill="none" id="1" points="47,63 46,64 46,65 44,67 43,67 40,70 38,70 40,70 41,69 42,69 46,65 46,64" stroke="black" stroke-width="1" /><polygon fill="none" id="2" points="41,60 42,60" stroke="black" stroke-width="1" /><polygon fill="none" id="3" points="39,48 38,49 38,50 37,51 37,56 38,57 38,58 39,59 38,58 38,57 37,56 37,51 38,50 38,49" stroke="black" stroke-width="1" /><polygon fill="none" id="4" points="41,47 42,47" stroke="black" stroke-width="1" /><polygon fill="none" id="5" points="39,39 38,40 28,40 43,40 43,39" stroke="black" stroke-width="1" /><polygon fill="none" id="6" points="62,31" stroke="black" stroke-width="1" /><polygon fill="none" id="7" points="47,31 47,47 46,48 45,48 47,50 47,58 48,59 48,61 48,52 47,51 47,40 48,39 61,39 48,39 47,38 47,32 48,31" stroke="black" stroke-width="1" /><polygon fill="none" id="8" points="55,30" stroke="black" stroke-width="1" /></svg>