<?xml version="1.0" encoding="utf-8" ?>
<svg baseProfile="full" height="100" version="1.1" width="100" xmlns="http://www.w3.org/2000/svg" xmlns:ev="http://www.w3.org/2001/xml-events" xmlns:xlink="http://www.w3.org/1999/xlink"><defs /><polygon fill="none" id="1" points="54,47 53,48 52,48 49,51 49,56 52,59 53,59 54,60 57,60 54,60 53,59 52,59 51,58 51,57 50,56 50,51 51,50 51,49 52,48 53,48 54,47 57,47" stroke="black" stroke-width="1" /><polygon fill="none" id="2" points="52,39 51,40 36,40 58,40 58,39" stroke="black" stroke-width="1" /><polygon fill="none" id="3" points="62,31 62,47 61,48 60,48 62,50 62,51 63,52 63,55 62,56 62,58 63,58 64,59 64,61 57,68 56,68 55,69 54,69 53,70 51,70 51,71 52,71 53,70 54,70 55,69 56,69 57,68 58,68 64,62 64,60 65,59 65,54 64,53 64,40 65,39 82,39 65,39 64,38 64,31" stroke="black" stroke-width="1" /><polygon fill="none" id="4" points="73,30 76,33 76,34 77,34 74,31 74,30" stroke="black" stroke-width="1" /><polygon fill="none" id="5" points="81,29 83,31 83,32 83,31" stroke="black" stroke-width="1" /></svg>