<?xml version="1.0" encoding="utf-8" ?>
<svg baseProfile="full" height="100" version="1.1" width="100" xmlns="http://www.w3.org/2000/svg" xmlns:ev="http://www.w3.org/2001/xml-events" xmlns:xlink="http://www.w3.org/1999/xlink"><defs /><polygon fill="none" id="1" points="56,33 56,44 55,45 43,45 42,46 41,45 41,35 38,35 38,45 37,46 28,46 28,48 29,49 30,48 37,48 38,49 38,66 39,67 39,68 40,68 41,69 43,69 44,70 63,70 64,71 64,67 63,67 62,68 45,68 44,67 43,67 41,65 41,48 42,47 43,48 46,48 47,47 55,47 56,48 56,57 55,58 52,58 50,56 49,56 49,59 50,59 51,60 57,60 59,58 59,48 60,47 70,47 70,44 62,44 61,45 60,45 59,44 59,33" stroke="black" stroke-width="1" /><polygon fill="none" id="2" points="64,32 63,33 62,33 63,34 63,35 65,37 65,39 66,40 67,39 68,39 68,38 67,37 67,36 66,35 66,34 65,33 65,32" stroke="black" stroke-width="1" /><polygon fill="none" id="3" points="69,29 67,31 69,33 69,34 70,35 70,36 71,37 72,36 73,36 73,35 72,34 72,33 70,31 70,30" stroke="black" stroke-width="1" /></svg>