<?xml version="1.0" encoding="utf-8" ?>
<svg baseProfile="full" height="100" version="1.1" width="100" xmlns="http://www.w3.org/2000/svg" xmlns:ev="http://www.w3.org/2001/xml-events" xmlns:xlink="http://www.w3.org/1999/xlink"><defs /><polygon fill="none" id="1" points="45,33 45,44 44,45 33,45 32,44 32,43 33,42 33,36 32,35 31,35 30,36 30,45 29,46 22,46 22,48 23,49 24,48 30,48 31,49 30,50 30,66 31,67 31,68 32,69 34,69 35,70 50,70 51,71 51,67 50,67 49,68 36,68 35,67 34,67 33,66 33,51 32,50 32,49 34,47 35,48 36,48 37,47 44,47 45,48 45,57 44,58 42,58 40,56 39,56 39,59 40,59 41,60 46,60 47,59 47,48 48,47 56,47 56,44 50,44 49,45 48,45 47,44 47,33" stroke="black" stroke-width="1" /><polygon fill="none" id="2" points="51,32 50,33 50,34 51,35 51,36 52,37 52,39 53,40 54,39 54,37 53,36 53,35 52,34 52,32" stroke="black" stroke-width="1" /><polygon fill="none" id="3" points="54,30 54,32 56,34 56,36 57,37 58,36 58,34 57,33 57,32 56,31 56,30" stroke="black" stroke-width="1" /></svg>