<?xml version="1.0" encoding="utf-8" ?>
<svg baseProfile="full" height="100" version="1.1" width="100" xmlns="http://www.w3.org/2000/svg" xmlns:ev="http://www.w3.org/2001/xml-events" xmlns:xlink="http://www.w3.org/1999/xlink"><defs /><polygon fill="none" id="1" points="61,33 61,34 62,35 62,44 61,45 47,45 46,46 45,45 45,35 44,36 43,36 42,35 42,45 41,46 31,46 31,48 41,48 42,49 42,66 43,67 43,68 44,68 45,69 47,69 48,70 71,70 71,67 69,67 68,68 49,68 48,67 47,67 45,65 45,49 46,48 51,48 52,47 61,47 62,48 62,56 60,58 58,58 57,57 56,57 55,56 54,56 54,59 55,59 56,60 63,60 65,58 65,48 66,47 77,47 77,44 68,44 67,45 66,45 65,44 65,33" stroke="black" stroke-width="1" /><polygon fill="none" id="2" points="70,32 69,33 68,33 70,35 70,36 71,37 71,38 73,40 74,39 75,39 75,38 74,37 74,36 72,34 72,33 71,32" stroke="black" stroke-width="1" /><polygon fill="none" id="3" points="74,30 74,31 76,33 76,34 77,35 77,36 78,37 79,37 80,36 81,36 79,34 79,33 77,31 77,30" stroke="black" stroke-width="1" /></svg>