<?xml version="1.0" encoding="utf-8" ?>
<svg baseProfile="full" height="100" version="1.1" width="100" xmlns="http://www.w3.org/2000/svg" xmlns:ev="http://www.w3.org/2001/xml-events" xmlns:xlink="http://www.w3.org/1999/xlink"><defs /><polygon fill="none" id="1" points="60,39 59,40 58,40 58,42 63,47 63,48 65,50 65,51 66,52 66,53 67,54 67,55 68,56 68,57 69,58 70,58 72,56 72,53 71,52 71,51 69,49 69,48 67,46 67,45 64,42 64,41 62,39" stroke="black" stroke-width="1" /><polygon fill="none" id="2" points="43,33 43,38 42,39 42,42 40,44 33,44 32,45 30,45 30,47 31,48 31,49 33,49 34,48 37,48 38,47 39,47 40,48 40,49 39,50 39,52 38,53 38,55 37,56 37,57 36,58 36,59 35,60 35,61 34,62 34,63 33,64 33,65 32,66 32,67 30,69 30,70 31,71 32,71 33,72 34,72 35,71 35,70 36,69 36,68 37,67 37,66 38,65 38,64 39,63 39,61 40,60 40,59 41,58 41,57 42,56 42,54 43,53 43,51 44,50 44,48 46,46 50,46 52,48 52,49 53,50 53,58 52,59 52,63 51,64 51,65 50,66 50,67 49,68 47,68 46,67 45,67 44,66 41,66 41,70 43,70 44,71 51,71 52,70 53,70 53,69 54,68 54,67 55,66 55,65 56,64 56,59 57,58 57,49 56,48 56,46 54,44 53,44 52,43 47,43 46,42 46,40 47,39 47,36 48,35 48,33" stroke="black" stroke-width="1" /></svg>