<?xml version="1.0" encoding="utf-8" ?>
<svg baseProfile="full" height="100" version="1.1" width="100" xmlns="http://www.w3.org/2000/svg" xmlns:ev="http://www.w3.org/2001/xml-events" xmlns:xlink="http://www.w3.org/1999/xlink"><defs /><polygon fill="none" id="1" points="67,33 67,44 66,45 50,45 49,44 49,37 50,36 47,36 46,35 45,36 45,37 46,38 46,45 45,46 33,46 34,47 34,48 45,48 46,49 46,67 47,68 48,68 49,69 52,69 53,70 76,70 77,71 78,70 77,69 77,67 76,67 75,68 54,68 53,67 51,67 49,65 49,49 50,48 55,48 56,47 66,47 67,48 67,57 66,58 63,58 62,57 61,57 60,56 59,56 59,59 60,59 61,60 69,60 71,58 71,48 72,47 84,47 84,44 74,44 73,45 72,45 71,44 71,33" stroke="black" stroke-width="1" /><polygon fill="none" id="2" points="76,32 75,33 75,34 78,37 78,39 79,40 80,39 82,39 82,38 80,36 80,35 78,33 78,32" stroke="black" stroke-width="1" /><polygon fill="none" id="3" points="81,30 81,31 83,33 83,34 84,35 84,36 85,37 86,37 87,36 88,36 88,35 85,32 85,31 84,30" stroke="black" stroke-width="1" /></svg>