<?xml version="1.0" encoding="utf-8" ?>
<svg baseProfile="full" height="100" version="1.1" width="100" xmlns="http://www.w3.org/2000/svg" xmlns:ev="http://www.w3.org/2001/xml-events" xmlns:xlink="http://www.w3.org/1999/xlink"><defs /><polygon fill="none" id="1" points="45,33 45,44 44,45 34,45 33,44 34,43 34,36 33,35 31,35 30,36 30,45 29,46 22,46 22,49 23,50 24,50 25,49 29,49 30,50 30,67 31,68 31,69 32,70 34,70 35,71 50,71 51,72 52,72 52,67 50,67 49,68 37,68 36,67 35,67 34,66 34,51 33,50 34,49 37,49 38,48 44,48 45,49 45,57 44,58 43,58 41,56 39,56 39,60 40,60 41,61 47,61 48,60 48,49 49,48 57,48 57,44 50,44 49,45 48,44 48,33" stroke="black" stroke-width="1" /><polygon fill="none" id="2" points="54,30 54,31 53,32 51,32 50,33 50,35 51,36 51,37 52,38 52,40 53,41 54,41 55,40 55,38 56,37 57,38 58,38 59,37 59,34 58,33 58,32 57,31 57,30" stroke="black" stroke-width="1" /><polygon fill="none" id="3" points="54,35 55,34 56,35 56,36 55,37 54,36" stroke="black" stroke-width="1" /><polygon fill="none" id="4" points="53,34 54,33 55,34 54,35" stroke="black" stroke-width="1" /></svg>