<?xml version="1.0" encoding="utf-8" ?>
<svg baseProfile="full" height="100" version="1.1" width="100" xmlns="http://www.w3.org/2000/svg" xmlns:ev="http://www.w3.org/2001/xml-events" xmlns:xlink="http://www.w3.org/1999/xlink"><defs /><polygon fill="none" id="1" points="50,33 50,44 49,45 39,45 38,44 38,36 37,35 34,35 34,45 33,46 25,46 25,49 26,50 27,50 28,49 33,49 34,50 34,67 35,68 35,69 36,70 38,70 39,71 59,71 59,67 56,67 55,68 41,68 38,65 38,50 39,49 42,49 43,48 50,48 51,49 50,50 50,57 49,58 48,58 46,56 44,56 44,60 45,60 46,61 52,61 54,59 54,49 55,48 64,48 64,44 56,44 55,45 54,44 54,33" stroke="black" stroke-width="1" /><polygon fill="none" id="2" points="61,30 61,33 60,34 59,33 59,32 57,32 56,33 56,34 57,35 57,36 58,37 58,39 59,40 59,41 60,41 61,40 62,40 62,38 63,37 64,38 65,38 66,37 67,37 67,35 65,33 65,32 64,31 64,30" stroke="black" stroke-width="1" /><polygon fill="none" id="3" points="61,36 62,35 63,36 63,37 62,38 61,37" stroke="black" stroke-width="1" /><polygon fill="none" id="4" points="60,34 61,33 62,34 62,35 61,36 60,35" stroke="black" stroke-width="1" /></svg>