<?xml version="1.0" encoding="utf-8" ?>
<svg baseProfile="full" height="100" version="1.1" width="100" xmlns="http://www.w3.org/2000/svg" xmlns:ev="http://www.w3.org/2001/xml-events" xmlns:xlink="http://www.w3.org/1999/xlink"><defs /><polygon fill="none" id="1" points="56,33 56,44 55,45 43,45 42,44 42,35 38,35 38,45 37,46 28,46 28,49 29,50 30,50 31,49 37,49 38,50 38,67 39,68 39,69 40,69 41,70 43,70 44,71 63,71 64,72 65,72 65,67 63,67 62,68 46,68 45,67 44,67 42,65 42,50 43,49 47,49 48,48 55,48 56,49 56,57 55,58 53,58 51,56 49,56 49,60 50,60 51,61 58,61 60,59 60,49 61,48 71,48 71,44 62,44 61,45 60,44 60,33" stroke="black" stroke-width="1" /><polygon fill="none" id="2" points="69,29 66,32 64,32 63,33 62,33 62,34 63,35 63,36 65,38 65,40 66,41 67,41 68,40 69,40 69,38 70,37 71,38 72,38 73,37 74,37 74,35 73,34 73,33 71,31 71,30 70,29" stroke="black" stroke-width="1" /><polygon fill="none" id="3" points="68,36 69,35 70,36 70,37 69,38 68,37" stroke="black" stroke-width="1" /><polygon fill="none" id="4" points="67,34 68,33 69,34 69,35 68,36 67,35" stroke="black" stroke-width="1" /><polygon fill="none" id="5" points="66,33 67,32 68,33 67,34" stroke="black" stroke-width="1" /></svg>