<?xml version="1.0" encoding="utf-8" ?>
<svg baseProfile="full" height="100" version="1.1" width="100" xmlns="http://www.w3.org/2000/svg" xmlns:ev="http://www.w3.org/2001/xml-events" xmlns:xlink="http://www.w3.org/1999/xlink"><defs /><polygon fill="none" id="1" points="61,33 61,35 62,36 62,44 61,45 47,45 46,44 46,35 45,35 44,36 43,35 42,35 42,45 41,46 31,46 31,49 41,49 42,50 42,67 43,68 43,69 44,69 45,70 47,70 48,71 72,71 72,67 69,67 68,68 50,68 49,67 48,67 46,65 46,50 47,49 52,49 53,48 61,48 62,49 62,56 60,58 59,58 58,57 57,57 56,56 54,56 54,60 55,60 56,61 64,61 66,59 66,49 67,48 78,48 78,44 68,44 67,45 66,44 66,33" stroke="black" stroke-width="1" /><polygon fill="none" id="2" points="74,30 74,32 73,33 72,32 70,32 69,33 68,33 68,34 70,36 70,37 71,38 71,39 73,41 74,41 75,40 76,40 76,38 77,37 78,38 80,38 81,37 82,37 82,36 80,34 80,33 78,31 78,30" stroke="black" stroke-width="1" /><polygon fill="none" id="3" points="75,36 76,35 77,36 77,37 76,38 75,37" stroke="black" stroke-width="1" /><polygon fill="none" id="4" points="73,33 74,32 76,34 76,35 75,36 73,34" stroke="black" stroke-width="1" /></svg>