<?xml version="1.0" encoding="utf-8" ?>
<svg baseProfile="full" height="100" version="1.1" width="100" xmlns="http://www.w3.org/2000/svg" xmlns:ev="http://www.w3.org/2001/xml-events" xmlns:xlink="http://www.w3.org/1999/xlink"><defs /><polygon fill="none" id="1" points="67,33 67,44 66,45 51,45 50,44 50,38 51,37 51,36 48,36 47,35 46,35 45,36 45,38 46,39 46,45 45,46 33,46 33,47 34,48 34,49 45,49 46,50 46,68 47,69 48,69 49,70 52,70 53,71 76,71 77,72 78,72 79,71 79,70 78,69 78,67 76,67 75,68 55,68 54,67 52,67 50,65 50,50 51,49 56,49 57,48 66,48 67,49 67,57 66,58 64,58 63,57 62,57 61,56 59,56 59,60 60,60 61,61 70,61 72,59 72,49 73,48 85,48 85,44 74,44 73,45 72,44 72,33" stroke="black" stroke-width="1" /><polygon fill="none" id="2" points="81,30 81,32 83,34 83,35 84,36 84,37 83,38 81,36 81,35 79,33 79,32 76,32 75,33 75,35 78,38 78,40 79,41 80,41 81,40 83,40 83,38 84,37 85,38 87,38 88,37 89,37 89,35 86,32 86,31 85,30" stroke="black" stroke-width="1" /></svg>