<?xml version="1.0" encoding="utf-8" ?>
<svg baseProfile="full" height="100" version="1.1" width="100" xmlns="http://www.w3.org/2000/svg" xmlns:ev="http://www.w3.org/2001/xml-events" xmlns:xlink="http://www.w3.org/1999/xlink"><defs /><polygon fill="none" id="1" points="46,34 46,45 45,46 33,46 32,45 32,43 33,42 33,37 32,36 31,37 31,46 30,47 23,47 23,48 31,48 32,49 32,50 31,51 31,66 32,67 32,68 33,69 35,69 36,70 51,70 51,68 50,69 36,69 35,68 34,68 33,67 33,52 32,51 32,49 34,47 35,47 36,48 37,47 45,47 46,48 46,58 45,59 42,59 40,57 40,59 41,59 42,60 46,60 47,59 47,48 48,47 56,47 56,45 51,45 50,46 48,46 47,45 47,34" stroke="black" stroke-width="1" /><polygon fill="none" id="2" points="52,33 51,34 52,35 52,36 53,37 53,39 54,39 54,38 53,37 53,36 52,35" stroke="black" stroke-width="1" /><polygon fill="none" id="3" points="55,31 55,32 57,34 57,36 58,36 58,35 57,34 57,33 56,32 56,31" stroke="black" stroke-width="1" /></svg>