<?xml version="1.0" encoding="utf-8" ?>
<svg baseProfile="full" height="100" version="1.1" width="100" xmlns="http://www.w3.org/2000/svg" xmlns:ev="http://www.w3.org/2001/xml-events" xmlns:xlink="http://www.w3.org/1999/xlink"><defs /><polygon fill="none" id="1" points="51,34 51,42 52,43 52,44 50,46 40,46 39,47 38,47 37,46 37,37 36,36 35,36 35,46 34,47 26,47 26,48 34,48 35,49 35,66 36,67 36,68 37,69 39,69 40,70 58,70 58,68 57,68 56,69 40,69 37,66 37,48 38,47 39,47 40,48 41,48 42,47 51,47 52,48 52,50 51,51 51,58 50,59 47,59 45,57 45,59 46,59 47,60 51,60 53,58 53,48 54,47 63,47 63,45 57,45 56,46 54,46 53,45 53,34" stroke="black" stroke-width="1" /><polygon fill="none" id="2" points="58,33 58,35 59,36 59,38 60,39 61,39 60,38 60,37 59,36 59,35 58,34" stroke="black" stroke-width="1" /><polygon fill="none" id="3" points="62,31 62,32 63,33 63,34 64,35 64,36 66,36 64,34 64,33 63,32 63,31" stroke="black" stroke-width="1" /></svg>