<?xml version="1.0" encoding="utf-8" ?>
<svg baseProfile="full" height="100" version="1.1" width="100" xmlns="http://www.w3.org/2000/svg" xmlns:ev="http://www.w3.org/2001/xml-events" xmlns:xlink="http://www.w3.org/1999/xlink"><defs /><polygon fill="none" id="1" points="57,34 57,45 56,46 44,46 43,47 42,47 41,46 41,36 39,36 39,46 38,47 29,47 29,48 38,48 39,49 39,66 40,67 40,68 41,68 42,69 44,69 45,70 64,70 64,68 63,69 45,69 44,68 43,68 41,66 41,48 42,47 43,47 44,48 46,48 47,47 56,47 57,48 57,58 56,59 52,59 50,57 50,59 51,59 52,60 57,60 59,58 59,48 60,47 70,47 70,45 63,45 62,46 60,46 59,45 59,34" stroke="black" stroke-width="1" /><polygon fill="none" id="2" points="65,33 64,34 64,35 66,37 66,39 68,39 67,38 67,37 66,36 66,35 65,34" stroke="black" stroke-width="1" /><polygon fill="none" id="3" points="69,31 69,32 70,33 70,34 71,35 71,36 73,36 72,35 72,34 70,32 70,31" stroke="black" stroke-width="1" /></svg>