<?xml version="1.0" encoding="utf-8" ?>
<svg baseProfile="full" height="100" version="1.1" width="100" xmlns="http://www.w3.org/2000/svg" xmlns:ev="http://www.w3.org/2001/xml-events" xmlns:xlink="http://www.w3.org/1999/xlink"><defs /><polygon fill="none" id="1" points="62,34 63,35 63,45 62,46 48,46 47,47 46,47 45,46 45,37 43,37 43,46 42,47 32,47 32,48 42,48 43,49 43,66 44,67 44,68 45,68 46,69 48,69 49,70 71,70 71,68 70,68 69,69 49,69 48,68 47,68 45,66 45,49 46,48 51,48 52,47 62,47 63,48 63,57 61,59 58,59 57,58 56,58 55,57 55,59 56,59 57,60 63,60 65,58 65,48 66,47 77,47 77,45 69,45 68,46 66,46 65,45 65,34" stroke="black" stroke-width="1" /><polygon fill="none" id="2" points="71,33 70,34 71,35 71,36 72,37 72,38 73,39 75,39 74,38 74,37 72,35 72,34" stroke="black" stroke-width="1" /><polygon fill="none" id="3" points="75,31 77,33 77,34 78,35 78,36 79,37 80,36 79,35 79,34 77,32 77,31" stroke="black" stroke-width="1" /></svg>