<?xml version="1.0" encoding="utf-8" ?>
<svg baseProfile="full" height="100" version="1.1" width="100" xmlns="http://www.w3.org/2000/svg" xmlns:ev="http://www.w3.org/2001/xml-events" xmlns:xlink="http://www.w3.org/1999/xlink"><defs /><polygon fill="none" id="1" points="66,39 65,40 64,40 64,42 70,48 70,49 73,52 73,53 74,54 74,55 75,56 75,57 76,58 77,58 79,56 80,56 80,54 78,52 78,51 76,49 76,48 74,46 74,45 68,39" stroke="black" stroke-width="1" /><polygon fill="none" id="2" points="48,33 47,34 47,39 46,40 46,43 45,44 37,44 36,45 33,45 33,47 34,48 34,49 36,49 37,48 41,48 42,47 43,47 44,48 44,49 43,50 43,52 42,53 42,54 41,55 41,56 40,57 40,58 39,59 39,60 38,61 38,62 37,63 37,64 35,66 35,67 33,69 33,70 34,70 36,72 37,72 39,70 39,69 40,68 40,67 42,65 42,64 43,63 43,61 44,60 44,59 45,58 45,57 46,56 46,54 47,53 47,52 48,51 48,48 50,46 55,46 57,48 57,49 58,50 58,59 57,60 57,63 56,64 56,65 53,68 51,68 50,67 49,67 48,66 45,66 45,70 47,70 48,71 56,71 57,70 58,70 59,69 59,68 60,67 60,66 61,65 61,63 62,62 62,57 63,56 63,50 62,49 62,47 59,44 58,44 57,43 51,43 50,42 51,41 51,39 52,38 52,36 53,35 53,33" stroke="black" stroke-width="1" /></svg>