<?xml version="1.0" encoding="utf-8" ?>
<svg baseProfile="full" height="100" version="1.1" width="100" xmlns="http://www.w3.org/2000/svg" xmlns:ev="http://www.w3.org/2001/xml-events" xmlns:xlink="http://www.w3.org/1999/xlink"><defs /><polygon fill="none" id="1" points="68,34 68,45 67,46 50,46 49,45 49,37 46,37 47,38 47,46 46,47 35,47 35,48 46,48 47,49 47,67 48,68 49,68 50,69 53,69 54,70 77,70 77,68 76,69 54,69 53,68 51,68 49,66 49,49 50,48 55,48 56,47 67,47 68,48 68,58 67,59 63,59 62,58 61,58 60,57 60,59 61,59 62,60 69,60 71,58 71,48 72,47 84,47 84,45 75,45 74,46 72,46 71,45 71,34" stroke="black" stroke-width="1" /><polygon fill="none" id="2" points="77,33 76,34 79,37 79,39 82,39 80,37 80,36 78,34 78,33" stroke="black" stroke-width="1" /><polygon fill="none" id="3" points="82,31 84,33 84,34 85,35 85,36 86,37 87,36 88,36 85,33 85,32 84,31" stroke="black" stroke-width="1" /></svg>