<?xml version="1.0" encoding="utf-8" ?>
<svg baseProfile="full" height="100" version="1.1" width="100" xmlns="http://www.w3.org/2000/svg" xmlns:ev="http://www.w3.org/2001/xml-events" xmlns:xlink="http://www.w3.org/1999/xlink"><defs /><polygon fill="none" id="1" points="53,29 53,30 52,31 50,31 49,32 44,32 44,43 43,44 35,44 34,43 34,35 33,34 30,34 29,35 29,44 28,45 21,45 21,49 22,50 24,50 25,49 28,49 29,50 29,67 30,68 30,69 31,70 33,70 34,71 49,71 50,72 52,72 52,66 49,66 48,67 37,67 36,66 35,66 34,65 34,50 35,49 37,49 38,48 43,48 44,49 44,56 43,57 41,55 38,55 38,60 39,60 40,61 47,61 48,60 48,49 49,48 57,48 57,43 49,43 48,42 48,36 49,35 50,36 50,37 51,38 51,40 52,41 54,41 55,40 55,39 56,38 58,38 59,37 59,33 58,32 58,31 57,30 57,29" stroke="black" stroke-width="1" /></svg>