<?xml version="1.0" encoding="utf-8" ?>
<svg baseProfile="full" height="100" version="1.1" width="100" xmlns="http://www.w3.org/2000/svg" xmlns:ev="http://www.w3.org/2001/xml-events" xmlns:xlink="http://www.w3.org/1999/xlink"><defs /><polygon fill="none" id="1" points="60,29 60,30 59,31 56,31 55,32 49,32 49,43 48,44 39,44 38,43 38,35 37,34 33,34 33,44 32,45 24,45 24,49 25,50 27,50 28,49 32,49 33,50 33,67 34,68 34,69 35,70 37,70 38,71 59,71 59,66 55,66 54,67 41,67 38,64 38,50 39,49 42,49 43,48 48,48 49,49 49,56 48,57 46,55 43,55 43,60 44,60 45,61 52,61 54,59 54,49 55,48 64,48 64,43 55,43 54,42 54,35 55,34 56,35 56,36 57,37 57,39 58,40 58,41 60,41 61,40 62,40 62,39 63,38 65,38 66,37 67,37 67,34 65,32 65,31 64,30 64,29" stroke="black" stroke-width="1" /></svg>