<?xml version="1.0" encoding="utf-8" ?>
<svg baseProfile="full" height="100" version="1.1" width="100" xmlns="http://www.w3.org/2000/svg" xmlns:ev="http://www.w3.org/2001/xml-events" xmlns:xlink="http://www.w3.org/1999/xlink"><defs /><polygon fill="none" id="1" points="68,28 65,31 63,31 62,32 55,32 55,43 54,44 43,44 42,43 42,34 37,34 37,44 36,45 27,45 27,49 28,50 30,50 31,49 36,49 37,50 37,67 38,68 38,69 39,69 40,70 42,70 43,71 62,71 63,72 65,72 65,66 62,66 61,67 46,67 45,66 44,66 42,64 42,50 43,49 47,49 48,48 54,48 55,49 55,56 54,57 53,57 51,55 48,55 48,60 49,60 50,61 58,61 60,59 60,49 61,48 71,48 71,43 61,43 60,42 60,35 61,34 62,35 62,36 64,38 64,40 65,41 67,41 68,40 69,40 69,39 70,38 72,38 73,37 74,37 74,34 73,33 73,32 71,30 71,29 70,28" stroke="black" stroke-width="1" /></svg>