<?xml version="1.0" encoding="utf-8" ?>
<svg baseProfile="full" height="100" version="1.1" width="100" xmlns="http://www.w3.org/2000/svg" xmlns:ev="http://www.w3.org/2001/xml-events" xmlns:xlink="http://www.w3.org/1999/xlink"><defs /><polygon fill="none" id="1" points="73,29 73,30 72,31 69,31 68,32 60,32 60,35 61,36 61,43 60,44 47,44 46,43 46,34 41,34 41,44 40,45 30,45 30,49 40,49 41,50 41,67 42,68 42,69 43,69 44,70 46,70 47,71 72,71 72,66 68,66 67,67 50,67 49,66 48,66 46,64 46,50 47,49 52,49 53,48 60,48 61,49 61,55 59,57 58,56 57,56 56,55 53,55 53,60 54,60 55,61 64,61 66,59 66,49 67,48 78,48 78,43 67,43 66,42 66,35 67,34 69,36 69,37 70,38 70,39 72,41 74,41 75,40 76,40 76,39 77,38 80,38 81,37 82,37 82,35 80,33 80,32 78,30 78,29" stroke="black" stroke-width="1" /></svg>