<?xml version="1.0" encoding="utf-8" ?>
<svg baseProfile="full" height="100" version="1.1" width="100" xmlns="http://www.w3.org/2000/svg" xmlns:ev="http://www.w3.org/2001/xml-events" xmlns:xlink="http://www.w3.org/1999/xlink"><defs /><polygon fill="none" id="1" points="36,69 50,69" stroke="black" stroke-width="1" /><polygon fill="none" id="2" points="40,58" stroke="black" stroke-width="1" /><polygon fill="none" id="3" points="31,51 31,65 32,66 32,67 33,68 34,68 33,68 32,67 32,52" stroke="black" stroke-width="1" /><polygon fill="none" id="4" points="53,38" stroke="black" stroke-width="1" /><polygon fill="none" id="5" points="57,35" stroke="black" stroke-width="1" /><polygon fill="none" id="6" points="46,34 46,45 45,46 32,46 31,45 31,42 32,41 32,37 31,37 31,46 30,47 23,47 32,47 33,46 45,46 46,47 46,58 45,59 42,59 45,59 46,58 46,47 47,46 55,46 55,45 51,45 50,46 47,46 46,45" stroke="black" stroke-width="1" /><polygon fill="none" id="7" points="55,31" stroke="black" stroke-width="1" /></svg>