<?xml version="1.0" encoding="utf-8" ?>
<svg baseProfile="full" height="100" version="1.1" width="100" xmlns="http://www.w3.org/2000/svg" xmlns:ev="http://www.w3.org/2001/xml-events" xmlns:xlink="http://www.w3.org/1999/xlink"><defs /><polygon fill="none" id="1" points="57,68 56,69 40,69 57,69" stroke="black" stroke-width="1" /><polygon fill="none" id="2" points="45,58" stroke="black" stroke-width="1" /><polygon fill="none" id="3" points="59,37" stroke="black" stroke-width="1" /><polygon fill="none" id="4" points="35,36 35,46 34,47 26,47 34,47 35,48 35,65 36,66 36,67 37,68 38,68 36,66 36,37" stroke="black" stroke-width="1" /><polygon fill="none" id="5" points="64,35" stroke="black" stroke-width="1" /><polygon fill="none" id="6" points="51,34 51,41 52,42 52,44 50,46 40,46 40,47 41,46 51,46 52,47 52,50 51,51 51,58 50,59 47,59 50,59 52,57 52,47 53,46 62,46 62,45 57,45 56,46 53,46 52,45 52,34" stroke="black" stroke-width="1" /><polygon fill="none" id="7" points="63,33" stroke="black" stroke-width="1" /><polygon fill="none" id="8" points="62,31" stroke="black" stroke-width="1" /></svg>