<?xml version="1.0" encoding="utf-8" ?>
<svg baseProfile="full" height="100" version="1.1" width="100" xmlns="http://www.w3.org/2000/svg" xmlns:ev="http://www.w3.org/2001/xml-events" xmlns:xlink="http://www.w3.org/1999/xlink"><defs /><polygon fill="none" id="1" points="45,69 63,69" stroke="black" stroke-width="1" /><polygon fill="none" id="2" points="50,58" stroke="black" stroke-width="1" /><polygon fill="none" id="3" points="66,37 66,38" stroke="black" stroke-width="1" /><polygon fill="none" id="4" points="39,36 39,46 38,47 29,47 38,47 39,48 39,65 40,66 40,67 41,67 42,68 43,68 42,68 40,66 40,36" stroke="black" stroke-width="1" /><polygon fill="none" id="5" points="64,34 65,35" stroke="black" stroke-width="1" /><polygon fill="none" id="6" points="57,34 57,45 56,46 44,46 44,47 45,47 46,46 56,46 57,47 57,58 56,59 52,59 56,59 58,57 58,47 59,46 69,46 69,45 63,45 62,46 59,46 58,45 58,34" stroke="black" stroke-width="1" /><polygon fill="none" id="7" points="70,33 71,34 71,35 71,34" stroke="black" stroke-width="1" /><polygon fill="none" id="8" points="69,31" stroke="black" stroke-width="1" /></svg>