<?xml version="1.0" encoding="utf-8" ?>
<svg baseProfile="full" height="100" version="1.1" width="100" xmlns="http://www.w3.org/2000/svg" xmlns:ev="http://www.w3.org/2001/xml-events" xmlns:xlink="http://www.w3.org/1999/xlink"><defs /><polygon fill="none" id="1" points="70,68 69,69 49,69 70,69" stroke="black" stroke-width="1" /><polygon fill="none" id="2" points="71,34 71,35 72,36 72,37 73,38 73,37 71,35" stroke="black" stroke-width="1" /><polygon fill="none" id="3" points="63,34 63,45 62,46 48,46 47,47 45,47 44,46 44,37 43,37 43,46 42,47 32,47 42,47 43,48 43,65 44,66 44,67 45,67 46,68 47,68 46,68 44,66 44,48 45,47 50,47 51,46 62,46 63,47 63,57 61,59 57,59 56,58 55,58 56,58 57,59 62,59 64,57 64,47 65,46 76,46 76,45 69,45 68,46 65,46 64,45 64,34" stroke="black" stroke-width="1" /><polygon fill="none" id="4" points="77,33 78,34 78,35 78,34" stroke="black" stroke-width="1" /><polygon fill="none" id="5" points="76,31" stroke="black" stroke-width="1" /></svg>