<?xml version="1.0" encoding="utf-8" ?>
<svg baseProfile="full" height="100" version="1.1" width="100" xmlns="http://www.w3.org/2000/svg" xmlns:ev="http://www.w3.org/2001/xml-events" xmlns:xlink="http://www.w3.org/1999/xlink"><defs /><polygon fill="none" id="1" points="72,39 71,40 70,40 70,42 78,50 78,51 80,53 80,54 82,56 82,57 83,58 84,58 86,56 87,56 87,54 85,52 85,51 83,49 83,48 74,39" stroke="black" stroke-width="1" /><polygon fill="none" id="2" points="52,33 52,37 51,38 51,40 50,41 50,43 49,44 40,44 39,45 36,45 36,47 37,48 37,49 39,49 40,48 45,48 46,47 47,47 48,48 48,49 47,50 47,51 46,52 46,54 44,56 44,57 43,58 43,59 42,60 42,61 41,62 41,63 38,66 38,67 36,69 36,70 37,70 38,71 39,71 40,72 41,72 42,71 42,70 43,69 43,68 45,66 45,65 46,64 46,63 47,62 47,61 48,60 48,59 49,58 49,57 50,56 50,55 51,54 51,53 52,52 52,50 53,49 53,48 55,46 60,46 63,49 63,51 64,52 64,53 63,54 63,60 62,61 62,63 61,64 61,66 60,67 59,67 58,68 56,68 55,67 53,67 52,66 50,66 50,67 49,68 49,70 52,70 53,71 61,71 62,70 63,70 65,68 65,67 66,66 66,65 67,64 67,60 68,59 68,49 67,48 67,46 65,44 63,44 62,43 56,43 55,42 55,40 56,39 56,37 57,36 57,33" stroke="black" stroke-width="1" /></svg>