<?xml version="1.0" encoding="utf-8" ?>
<svg baseProfile="full" height="100" version="1.1" width="100" xmlns="http://www.w3.org/2000/svg" xmlns:ev="http://www.w3.org/2001/xml-events" xmlns:xlink="http://www.w3.org/1999/xlink"><defs /><polygon fill="none" id="1" points="54,69 76,69" stroke="black" stroke-width="1" /><polygon fill="none" id="2" points="68,34 68,45 67,46 49,46 48,45 48,37 47,37 47,46 46,47 35,47 46,47 47,48 47,66 48,67 49,67 50,68 52,68 50,68 48,66 48,48 49,47 54,47 55,46 67,46 68,47 68,58 67,59 62,59 61,58 60,58 61,58 62,59 68,59 70,57 70,47 71,46 83,46 83,45 75,45 74,46 71,46 70,45 70,34" stroke="black" stroke-width="1" /><polygon fill="none" id="3" points="77,33 77,34 79,36 79,38 80,38 79,37 79,36 77,34" stroke="black" stroke-width="1" /><polygon fill="none" id="4" points="83,31 84,32 84,33 85,34 85,35 86,35 84,33 84,32" stroke="black" stroke-width="1" /></svg>