<?xml version="1.0" encoding="utf-8" ?>
<svg baseProfile="full" height="100" version="1.1" width="100" xmlns="http://www.w3.org/2000/svg" xmlns:ev="http://www.w3.org/2001/xml-events" xmlns:xlink="http://www.w3.org/1999/xlink"><defs /><polygon fill="none" id="1" points="56,36 56,37 58,39 58,40 59,41 59,42 60,43 61,42 61,40 59,38 59,37 58,36" stroke="black" stroke-width="1" /><polygon fill="none" id="2" points="60,33 60,34 62,36 62,37 63,38 63,39 64,40 66,38 64,36 64,35 62,33" stroke="black" stroke-width="1" /><polygon fill="none" id="3" points="51,33 50,34 42,34 41,35 32,35 33,36 33,38 37,38 38,37 44,37 45,36 48,36 49,37 36,50 30,50 29,51 27,51 27,54 28,54 29,53 32,53 33,52 38,52 39,51 42,51 43,50 45,50 46,51 44,53 43,53 42,54 42,55 41,56 41,57 40,58 40,66 44,70 45,70 46,71 49,71 50,72 55,72 55,69 50,69 49,68 47,68 46,67 45,67 42,64 42,59 43,58 43,57 44,56 44,55 47,52 48,52 49,51 50,51 51,50 54,50 55,49 60,49 60,46 57,46 56,47 51,47 50,48 45,48 44,49 42,49 41,48 54,35 52,33" stroke="black" stroke-width="1" /></svg>