<?xml version="1.0" encoding="utf-8" ?>
<svg baseProfile="full" height="100" version="1.1" width="100" xmlns="http://www.w3.org/2000/svg" xmlns:ev="http://www.w3.org/2001/xml-events" xmlns:xlink="http://www.w3.org/1999/xlink"><defs /><polygon fill="none" id="1" points="51,35 50,36 50,38 52,40 52,41 53,42 53,43 55,41 53,39 53,38 52,37 52,36" stroke="black" stroke-width="1" /><polygon fill="none" id="2" points="54,33 53,34 55,36 55,37 56,38 56,39 57,40 58,39 58,37 57,36 57,35 55,33" stroke="black" stroke-width="1" /><polygon fill="none" id="3" points="45,33 44,34 38,34 37,35 29,35 29,38 33,38 34,37 39,37 40,36 43,36 44,37 34,47 34,48 32,50 26,50 25,51 24,51 24,54 25,54 26,53 29,53 30,52 33,52 34,51 37,51 38,50 40,50 41,51 37,55 37,56 36,57 36,58 35,59 35,64 36,65 36,66 37,67 37,68 39,70 40,70 41,71 43,71 44,72 49,72 49,69 45,69 44,68 42,68 41,67 40,67 38,65 38,64 37,63 37,60 38,59 38,57 39,56 39,55 42,52 43,52 44,51 45,51 46,50 48,50 49,49 54,49 54,47 53,46 51,46 50,47 45,47 44,48 40,48 39,49 37,49 36,48 45,39 45,38 47,36 47,34 46,33" stroke="black" stroke-width="1" /></svg>