<?xml version="1.0" encoding="utf-8" ?>
<svg baseProfile="full" height="100" version="1.1" width="100" xmlns="http://www.w3.org/2000/svg" xmlns:ev="http://www.w3.org/2001/xml-events" xmlns:xlink="http://www.w3.org/1999/xlink"><defs /><polygon fill="none" id="1" points="64,35 63,36 62,36 62,37 65,40 65,41 66,42 66,43 67,43 68,42 68,40 65,37 65,36" stroke="black" stroke-width="1" /><polygon fill="none" id="2" points="67,33 67,35 71,39 71,40 72,39 73,39 73,38 72,37 72,36 69,33" stroke="black" stroke-width="1" /><polygon fill="none" id="3" points="57,33 56,34 47,34 46,35 36,35 36,36 37,37 37,38 42,38 43,37 49,37 50,36 53,36 54,37 46,45 45,45 40,50 33,50 32,51 30,51 30,53 31,54 32,53 36,53 37,52 42,52 43,51 47,51 48,50 50,50 51,51 49,53 48,53 46,55 46,56 45,57 45,58 44,59 44,64 45,65 45,66 49,70 50,70 51,71 55,71 56,72 62,72 61,71 61,69 56,69 55,68 52,68 51,67 50,67 47,64 47,58 49,56 49,55 51,53 52,53 54,51 56,51 57,50 60,50 61,49 67,49 67,46 63,46 62,47 56,47 55,48 50,48 49,49 46,49 45,48 46,47 47,47 51,43 52,43 60,35 58,33" stroke="black" stroke-width="1" /></svg>