<?xml version="1.0" encoding="utf-8" ?>
<svg baseProfile="full" height="100" version="1.1" width="100" xmlns="http://www.w3.org/2000/svg" xmlns:ev="http://www.w3.org/2001/xml-events" xmlns:xlink="http://www.w3.org/1999/xlink"><defs /><polygon fill="none" id="1" points="70,35 68,37 73,42 73,43 74,43 75,42 75,40" stroke="black" stroke-width="1" /><polygon fill="none" id="2" points="74,33 73,34 78,39 78,40 79,39 80,39 81,38 76,33" stroke="black" stroke-width="1" /><polygon fill="none" id="3" points="63,33 62,34 52,34 51,35 40,35 40,38 46,38 47,37 54,37 55,36 59,36 60,37 58,39 57,39 53,43 52,43 48,47 47,47 44,50 37,50 36,51 33,51 33,53 34,54 35,53 40,53 41,52 46,52 47,51 52,51 53,50 55,50 56,51 54,53 53,53 50,56 50,57 49,58 49,59 48,60 48,64 49,65 49,66 51,68 52,68 54,70 56,70 57,71 60,71 61,72 68,72 68,69 62,69 61,68 57,68 56,67 55,67 52,64 52,58 54,56 54,55 56,53 57,53 58,52 59,52 60,51 62,51 63,50 66,50 67,49 74,49 74,46 70,46 69,47 62,47 61,48 55,48 54,49 51,49 50,48 52,46 53,46 56,43 57,43 60,40 61,40 66,35 64,33" stroke="black" stroke-width="1" /></svg>