<?xml version="1.0" encoding="utf-8" ?>
<svg baseProfile="full" height="100" version="1.1" width="100" xmlns="http://www.w3.org/2000/svg" xmlns:ev="http://www.w3.org/2001/xml-events" xmlns:xlink="http://www.w3.org/1999/xlink"><defs /><polygon fill="none" id="1" points="77,35 76,36 75,36 74,37 75,37 78,40 78,41 80,43 81,43 82,42 82,41 79,38 79,37" stroke="black" stroke-width="1" /><polygon fill="none" id="2" points="81,33 80,34 85,39 85,40 86,40 87,39 88,39 88,38 83,33" stroke="black" stroke-width="1" /><polygon fill="none" id="3" points="69,33 68,34 57,34 56,35 43,35 43,36 44,37 44,38 50,38 51,37 59,37 60,36 64,36 65,37 62,40 61,40 58,43 57,43 55,45 54,45 51,48 50,48 48,50 40,50 39,51 36,51 36,53 37,54 38,53 44,53 45,52 51,52 52,51 57,51 58,50 60,50 61,51 59,53 58,53 54,57 54,58 53,59 53,64 54,65 54,66 57,69 58,69 59,70 61,70 62,71 66,71 67,72 74,72 74,69 67,69 66,68 62,68 61,67 60,67 56,63 56,61 57,60 57,58 58,57 58,56 60,54 61,54 63,52 64,52 65,51 67,51 68,50 72,50 73,49 81,49 81,46 76,46 75,47 68,47 67,48 60,48 59,49 55,49 54,48 55,47 56,47 57,46 58,46 60,44 61,44 63,42 64,42 68,38 69,38 72,35 70,33" stroke="black" stroke-width="1" /></svg>