<?xml version="1.0" encoding="utf-8" ?>
<svg baseProfile="full" height="100" version="1.1" width="100" xmlns="http://www.w3.org/2000/svg" xmlns:ev="http://www.w3.org/2001/xml-events" xmlns:xlink="http://www.w3.org/1999/xlink"><defs /><polygon fill="none" id="1" points="54,33 52,35 51,35 50,36 50,39 52,41 52,42 53,43 53,44 54,44 57,41 58,41 59,40 59,37 58,36 58,35 56,33" stroke="black" stroke-width="1" /><polygon fill="none" id="2" points="54,39 55,38 56,39 55,40" stroke="black" stroke-width="1" /><polygon fill="none" id="3" points="53,37 54,36 55,37 54,38" stroke="black" stroke-width="1" /><polygon fill="none" id="4" points="45,33 44,34 38,34 37,35 29,35 29,39 34,39 35,38 40,38 41,37 42,37 43,38 34,47 34,48 32,50 26,50 25,51 24,51 24,55 26,55 27,54 30,54 31,53 34,53 35,52 38,52 39,53 37,55 37,56 36,57 36,58 35,59 35,65 36,66 36,67 37,68 37,69 39,71 40,71 41,72 43,72 44,73 50,73 50,69 46,69 45,68 43,68 42,67 41,67 39,65 39,64 38,63 38,61 39,60 39,58 40,57 40,56 43,53 44,53 45,52 46,52 47,51 49,51 50,50 55,50 55,47 54,46 51,46 50,47 45,47 44,48 40,48 39,47 46,40 46,39 48,37 48,34 47,33" stroke="black" stroke-width="1" /><polygon fill="none" id="5" points="38,52 39,51 40,52 39,53" stroke="black" stroke-width="1" /><polygon fill="none" id="6" points="38,48 39,47 40,48 39,49" stroke="black" stroke-width="1" /></svg>