<?xml version="1.0" encoding="utf-8" ?>
<svg baseProfile="full" height="100" version="1.1" width="100" xmlns="http://www.w3.org/2000/svg" xmlns:ev="http://www.w3.org/2001/xml-events" xmlns:xlink="http://www.w3.org/1999/xlink"><defs /><polygon fill="none" id="1" points="51,33 50,34 42,34 41,35 32,35 32,36 33,37 33,39 38,39 39,38 45,38 46,37 47,37 48,38 36,50 30,50 29,51 27,51 27,55 29,55 30,54 33,54 34,53 39,53 40,52 42,52 43,53 42,54 42,55 41,56 41,57 40,58 40,67 44,71 45,71 46,72 49,72 50,73 56,73 56,69 51,69 50,68 48,68 47,67 46,67 43,64 43,60 44,59 44,58 45,57 45,56 48,53 49,53 50,52 51,52 52,51 55,51 56,50 61,50 61,46 57,46 56,47 51,47 50,48 45,48 44,47 55,36 56,37 56,38 58,40 58,41 59,42 59,43 60,44 61,44 62,43 62,41 63,40 64,41 65,41 67,39 67,38 65,36 65,35 63,33 60,33 60,35 59,36 56,36 53,33" stroke="black" stroke-width="1" /><polygon fill="none" id="2" points="43,52 44,51 45,52 44,53" stroke="black" stroke-width="1" /><polygon fill="none" id="3" points="43,48 44,47 45,48 44,49" stroke="black" stroke-width="1" /><polygon fill="none" id="4" points="61,39 62,38 63,39 62,40" stroke="black" stroke-width="1" /><polygon fill="none" id="5" points="60,37 61,36 62,37 62,38 61,39 60,38" stroke="black" stroke-width="1" /><polygon fill="none" id="6" points="59,36 60,35 61,36 60,37" stroke="black" stroke-width="1" /></svg>