<?xml version="1.0" encoding="utf-8" ?>
<svg baseProfile="full" height="100" version="1.1" width="100" xmlns="http://www.w3.org/2000/svg" xmlns:ev="http://www.w3.org/2001/xml-events" xmlns:xlink="http://www.w3.org/1999/xlink"><defs /><polygon fill="none" id="1" points="57,33 56,34 47,34 46,35 36,35 36,37 37,38 37,39 43,39 44,38 50,38 51,37 52,37 53,38 46,45 45,45 40,50 33,50 32,51 30,51 30,54 31,55 32,55 33,54 37,54 38,53 43,53 44,52 47,52 48,53 46,55 46,56 45,57 45,58 44,59 44,65 45,66 45,67 49,71 50,71 51,72 55,72 56,73 63,73 63,72 62,71 62,69 57,69 56,68 53,68 52,67 51,67 48,64 48,59 50,57 50,56 52,54 53,54 55,52 57,52 58,51 61,51 62,50 68,50 68,46 63,46 62,47 56,47 55,48 50,48 49,47 52,44 53,44 61,36 62,37 62,38 65,41 65,42 66,43 66,44 68,44 69,43 69,40 70,39 71,40 71,41 72,41 73,40 74,40 74,38 73,37 73,36 70,33 67,33 67,35 66,36 65,35 64,35 63,36 62,36 59,33" stroke="black" stroke-width="1" /><polygon fill="none" id="2" points="48,52 49,51 50,52 49,53" stroke="black" stroke-width="1" /><polygon fill="none" id="3" points="48,48 49,47 50,48 49,49" stroke="black" stroke-width="1" /><polygon fill="none" id="4" points="68,39 69,38 70,39 69,40" stroke="black" stroke-width="1" /><polygon fill="none" id="5" points="67,38 68,37 69,38 68,39" stroke="black" stroke-width="1" /><polygon fill="none" id="6" points="66,37 67,36 68,37 67,38" stroke="black" stroke-width="1" /></svg>