<?xml version="1.0" encoding="utf-8" ?>
<svg baseProfile="full" height="100" version="1.1" width="100" xmlns="http://www.w3.org/2000/svg" xmlns:ev="http://www.w3.org/2001/xml-events" xmlns:xlink="http://www.w3.org/1999/xlink"><defs /><polygon fill="none" id="1" points="63,33 62,34 52,34 51,35 40,35 40,39 47,39 48,38 55,38 56,37 58,37 59,38 58,39 57,39 53,43 52,43 48,47 47,47 44,50 37,50 36,51 33,51 33,54 34,55 35,55 36,54 41,54 42,53 47,53 48,52 52,52 53,53 50,56 50,57 49,58 49,59 48,60 48,65 49,66 49,67 51,69 52,69 54,71 56,71 57,72 60,72 61,73 69,73 69,69 63,69 62,68 58,68 57,67 56,67 53,64 53,59 55,57 55,56 57,54 58,54 59,53 60,53 61,52 63,52 64,51 67,51 68,50 75,50 75,46 70,46 69,47 62,47 61,48 55,48 54,47 57,44 58,44 61,41 62,41 67,36 68,37 68,38 73,43 73,44 75,44 76,43 76,40 77,39 78,40 78,41 79,41 80,40 81,40 82,39 82,38 77,33 74,33 73,34 73,35 72,36 71,35 70,35 68,37 67,36 67,35 65,33" stroke="black" stroke-width="1" /><polygon fill="none" id="2" points="53,52 54,51 55,52 54,53" stroke="black" stroke-width="1" /><polygon fill="none" id="3" points="52,48 53,47 54,47 55,48 54,49 53,49" stroke="black" stroke-width="1" /><polygon fill="none" id="4" points="75,39 76,38 77,39 76,40" stroke="black" stroke-width="1" /><polygon fill="none" id="5" points="74,38 75,37 76,38 75,39" stroke="black" stroke-width="1" /><polygon fill="none" id="6" points="73,37 74,36 75,37 74,38" stroke="black" stroke-width="1" /><polygon fill="none" id="7" points="72,36 73,35 74,36 73,37" stroke="black" stroke-width="1" /></svg>