<?xml version="1.0" encoding="utf-8" ?>
<svg baseProfile="full" height="100" version="1.1" width="100" xmlns="http://www.w3.org/2000/svg" xmlns:ev="http://www.w3.org/2001/xml-events" xmlns:xlink="http://www.w3.org/1999/xlink"><defs /><polygon fill="none" id="1" points="69,33 68,34 57,34 56,35 43,35 43,37 44,38 44,39 51,39 52,38 60,38 61,37 63,37 64,38 62,40 61,40 58,43 57,43 55,45 54,45 51,48 50,48 48,50 40,50 39,51 36,51 36,54 37,55 38,55 39,54 45,54 46,53 52,53 53,52 57,52 58,53 54,57 54,58 53,59 53,65 54,66 54,67 57,70 58,70 59,71 61,71 62,72 66,72 67,73 75,73 75,69 68,69 67,68 63,68 62,67 61,67 57,63 57,62 58,61 58,59 59,58 59,57 61,55 62,55 64,53 65,53 66,52 68,52 69,51 73,51 74,50 82,50 82,46 76,46 75,47 68,47 67,48 60,48 59,47 61,45 62,45 64,43 65,43 69,39 70,39 73,36 74,37 74,38 75,38 78,41 78,42 80,44 82,44 83,43 83,41 80,38 80,37 81,36 85,40 85,41 87,41 88,40 89,40 89,38 84,33 81,33 80,34 80,35 79,36 78,35 77,35 76,36 75,36 74,37 73,36 73,35 71,33" stroke="black" stroke-width="1" /><polygon fill="none" id="2" points="58,52 59,51 60,52 59,53" stroke="black" stroke-width="1" /><polygon fill="none" id="3" points="57,48 58,47 59,47 60,48 59,49 58,49" stroke="black" stroke-width="1" /><polygon fill="none" id="4" points="79,36 80,35 81,36 80,37" stroke="black" stroke-width="1" /></svg>