<?xml version="1.0" encoding="utf-8" ?>
<svg baseProfile="full" height="100" version="1.1" width="100" xmlns="http://www.w3.org/2000/svg" xmlns:ev="http://www.w3.org/2001/xml-events" xmlns:xlink="http://www.w3.org/1999/xlink"><defs /><polygon fill="none" id="1" points="51,37 51,38 53,40 53,41 54,42 54,41 53,40 53,39 52,38 52,37" stroke="black" stroke-width="1" /><polygon fill="none" id="2" points="55,34 55,35 56,36 56,37 57,38 57,39 58,39 58,38 57,37 57,36" stroke="black" stroke-width="1" /><polygon fill="none" id="3" points="46,34 45,35 39,35 38,36 30,36 30,38 33,38 34,37 39,37 40,36 44,36 45,37 45,38 35,48 35,49 33,51 27,51 26,52 25,52 25,54 26,53 29,53 30,52 33,52 34,51 37,51 38,50 41,50 42,51 42,52 38,56 38,57 37,58 37,59 36,60 36,64 37,65 37,66 38,67 38,68 40,70 41,70 42,71 44,71 45,72 49,72 49,70 45,70 44,69 42,69 41,68 40,68 38,66 38,65 37,64 37,60 38,59 38,57 39,56 39,55 42,52 43,52 44,51 45,51 46,50 48,50 49,49 54,49 54,48 53,47 52,47 51,48 46,48 45,49 41,49 40,50 37,50 36,49 36,48 45,39 45,38 47,36 47,35" stroke="black" stroke-width="1" /></svg>