<?xml version="1.0" encoding="utf-8" ?>
<svg baseProfile="full" height="100" version="1.1" width="100" xmlns="http://www.w3.org/2000/svg" xmlns:ev="http://www.w3.org/2001/xml-events" xmlns:xlink="http://www.w3.org/1999/xlink"><defs /><polygon fill="none" id="1" points="57,37 59,39 59,40 60,41 60,42 61,42 61,41 59,39 59,38 58,37" stroke="black" stroke-width="1" /><polygon fill="none" id="2" points="61,34 63,36 63,37 64,38 64,39 65,39 65,38 64,37 64,36 62,34" stroke="black" stroke-width="1" /><polygon fill="none" id="3" points="52,34 51,35 43,35 42,36 34,36 34,38 37,38 38,37 44,37 45,36 49,36 50,37 50,38 37,51 31,51 30,52 28,52 28,54 29,53 32,53 33,52 38,52 39,51 42,51 43,50 46,50 47,51 47,52 45,54 44,54 43,55 43,56 42,57 42,58 41,59 41,66 45,70 46,70 47,71 50,71 51,72 55,72 55,70 50,70 49,69 47,69 46,68 45,68 42,65 42,59 43,58 43,57 44,56 44,55 47,52 48,52 49,51 50,51 51,50 54,50 55,49 60,49 60,47 58,47 57,48 52,48 51,49 46,49 45,50 42,50 41,49 41,48 53,36 53,35" stroke="black" stroke-width="1" /></svg>