<?xml version="1.0" encoding="utf-8" ?>
<svg baseProfile="full" height="100" version="1.1" width="100" xmlns="http://www.w3.org/2000/svg" xmlns:ev="http://www.w3.org/2001/xml-events" xmlns:xlink="http://www.w3.org/1999/xlink"><defs /><polygon fill="none" id="1" points="63,37 66,40 66,41 67,42 67,43 68,42 68,41 65,38 65,37" stroke="black" stroke-width="1" /><polygon fill="none" id="2" points="68,34 68,35 72,39 73,39 72,38 72,37 69,34" stroke="black" stroke-width="1" /><polygon fill="none" id="3" points="58,34 57,35 48,35 47,36 37,36 38,37 38,38 42,38 43,37 49,37 50,36 54,36 55,37 55,38 47,46 46,46 41,51 34,51 33,52 31,52 31,53 36,53 37,52 42,52 43,51 47,51 48,50 51,50 52,51 52,52 50,54 49,54 47,56 47,57 46,58 46,59 45,60 45,64 46,65 46,66 50,70 51,70 52,71 56,71 57,72 61,72 61,70 56,70 55,69 52,69 51,68 50,68 47,65 47,58 49,56 49,55 51,53 52,53 54,51 56,51 57,50 60,50 61,49 67,49 67,47 64,47 63,48 57,48 56,49 51,49 50,50 46,50 45,49 45,48 46,47 47,47 51,43 52,43 59,36 59,35" stroke="black" stroke-width="1" /></svg>