<?xml version="1.0" encoding="utf-8" ?>
<svg baseProfile="full" height="100" version="1.1" width="100" xmlns="http://www.w3.org/2000/svg" xmlns:ev="http://www.w3.org/2001/xml-events" xmlns:xlink="http://www.w3.org/1999/xlink"><defs /><polygon fill="none" id="1" points="70,37 70,38 74,42 74,43 75,42 75,41 71,37" stroke="black" stroke-width="1" /><polygon fill="none" id="2" points="75,34 75,35 79,39 80,39 80,38 76,34" stroke="black" stroke-width="1" /><polygon fill="none" id="3" points="64,34 63,35 53,35 52,36 41,36 41,38 46,38 47,37 54,37 55,36 60,36 61,37 61,38 59,40 58,40 54,44 53,44 49,48 48,48 45,51 38,51 37,52 34,52 34,53 40,53 41,52 46,52 47,51 52,51 53,50 56,50 57,51 57,52 55,54 54,54 51,57 51,58 50,59 50,60 49,61 49,64 50,65 50,66 52,68 53,68 55,70 57,70 58,71 61,71 62,72 68,72 68,70 62,70 61,69 57,69 56,68 55,68 52,65 52,58 54,56 54,55 56,53 57,53 58,52 59,52 60,51 62,51 63,50 66,50 67,49 74,49 74,47 71,47 70,48 63,48 62,49 56,49 55,50 51,50 50,49 50,48 52,46 53,46 56,43 57,43 60,40 61,40 65,36 65,35" stroke="black" stroke-width="1" /></svg>