<?xml version="1.0" encoding="utf-8" ?>
<svg baseProfile="full" height="100" version="1.1" width="100" xmlns="http://www.w3.org/2000/svg" xmlns:ev="http://www.w3.org/2001/xml-events" xmlns:xlink="http://www.w3.org/1999/xlink"><defs /><polygon fill="none" id="1" points="76,37 79,40 79,41 81,43 82,42 79,39 79,38 78,37" stroke="black" stroke-width="1" /><polygon fill="none" id="2" points="82,34 82,35 86,39 86,40 87,39 88,39 83,34" stroke="black" stroke-width="1" /><polygon fill="none" id="3" points="70,34 69,35 58,35 57,36 44,36 45,37 45,38 50,38 51,37 59,37 60,36 65,36 66,37 66,38 63,41 62,41 59,44 58,44 56,46 55,46 52,49 51,49 49,51 41,51 40,52 37,52 37,53 44,53 45,52 51,52 52,51 57,51 58,50 61,50 62,51 62,52 60,54 59,54 55,58 55,59 54,60 54,64 55,65 55,66 58,69 59,69 60,70 62,70 63,71 67,71 68,72 74,72 74,70 67,70 66,69 62,69 61,68 60,68 56,64 56,61 57,60 57,58 58,57 58,56 60,54 61,54 63,52 64,52 65,51 67,51 68,50 72,50 73,49 81,49 81,47 77,47 76,48 69,48 68,49 61,49 60,50 55,50 54,49 54,48 55,47 56,47 57,46 58,46 60,44 61,44 63,42 64,42 68,38 69,38 71,36 71,35" stroke="black" stroke-width="1" /></svg>