<?xml version="1.0" encoding="utf-8" ?>
<svg baseProfile="full" height="100" version="1.1" width="100" xmlns="http://www.w3.org/2000/svg" xmlns:ev="http://www.w3.org/2001/xml-events" xmlns:xlink="http://www.w3.org/1999/xlink"><defs /><polygon fill="none" id="1" points="44,32 43,33 37,33 36,34 28,34 28,39 34,39 35,38 39,38 40,39 33,46 33,47 31,49 25,49 24,50 23,50 23,55 26,55 27,54 30,54 31,53 34,53 35,52 36,52 37,53 36,54 36,55 35,56 35,57 34,58 34,65 35,66 35,67 36,68 36,69 38,71 39,71 40,72 42,72 43,73 50,73 50,68 46,68 45,67 43,67 42,66 41,66 39,64 39,63 38,62 38,61 39,60 39,58 40,57 40,56 43,53 44,53 45,52 46,52 47,51 49,51 50,50 55,50 55,46 54,45 54,44 57,41 58,41 59,40 59,36 58,35 58,34 56,32 53,32 51,34 50,34 49,35 48,34 48,33 47,32" stroke="black" stroke-width="1" /><polygon fill="none" id="2" points="48,37 49,38 49,39 51,41 51,42 52,43 52,44 51,45 50,45 49,46 44,46 43,47 41,47 40,46 46,40 46,39" stroke="black" stroke-width="1" /></svg>