<?xml version="1.0" encoding="utf-8" ?>
<svg baseProfile="full" height="100" version="1.1" width="100" xmlns="http://www.w3.org/2000/svg" xmlns:ev="http://www.w3.org/2001/xml-events" xmlns:xlink="http://www.w3.org/1999/xlink"><defs /><polygon fill="none" id="1" points="50,32 49,33 41,33 40,34 31,34 31,36 32,37 32,39 38,39 39,38 44,38 45,39 35,49 29,49 28,50 26,50 26,55 29,55 30,54 33,54 34,53 39,53 40,52 41,53 41,54 40,55 40,56 39,57 39,67 43,71 44,71 45,72 48,72 49,73 56,73 56,68 51,68 50,67 48,67 47,66 46,66 43,63 43,60 44,59 44,58 45,57 45,56 48,53 49,53 50,52 51,52 52,51 55,51 56,50 61,50 61,44 62,43 62,42 63,41 65,41 67,39 67,37 65,35 65,34 63,32 59,32 59,34 58,35 56,35 53,32" stroke="black" stroke-width="1" /><polygon fill="none" id="2" points="54,37 57,40 57,41 58,42 58,43 59,44 58,45 56,45 55,46 50,46 49,47 46,47 45,46" stroke="black" stroke-width="1" /></svg>