<?xml version="1.0" encoding="utf-8" ?>
<svg baseProfile="full" height="100" version="1.1" width="100" xmlns="http://www.w3.org/2000/svg" xmlns:ev="http://www.w3.org/2001/xml-events" xmlns:xlink="http://www.w3.org/1999/xlink"><defs /><polygon fill="none" id="1" points="56,32 55,33 46,33 45,34 35,34 35,37 36,38 36,39 43,39 44,38 49,38 50,39 45,44 44,44 39,49 32,49 31,50 29,50 29,54 30,55 32,55 33,54 37,54 38,53 43,53 44,52 45,52 46,53 45,54 45,55 44,56 44,57 43,58 43,65 44,66 44,67 48,71 49,71 50,72 54,72 55,73 63,73 63,71 62,70 62,68 57,68 56,67 53,67 52,66 51,66 48,63 48,59 50,57 50,56 52,54 53,54 55,52 57,52 58,51 61,51 62,50 68,50 68,44 69,43 69,42 70,41 72,41 73,40 74,40 74,37 73,36 73,35 70,32 66,32 66,33 65,34 63,34 62,35 59,32" stroke="black" stroke-width="1" /><polygon fill="none" id="2" points="60,37 64,41 64,42 65,43 65,44 64,45 62,45 61,46 55,46 54,47 51,47 50,46 52,44 53,44" stroke="black" stroke-width="1" /></svg>