<?xml version="1.0" encoding="utf-8" ?>
<svg baseProfile="full" height="100" version="1.1" width="100" xmlns="http://www.w3.org/2000/svg" xmlns:ev="http://www.w3.org/2001/xml-events" xmlns:xlink="http://www.w3.org/1999/xlink"><defs /><polygon fill="none" id="1" points="62,32 61,33 51,33 50,34 39,34 39,39 47,39 48,38 54,38 55,39 52,42 51,42 47,46 46,46 43,49 36,49 35,50 32,50 32,54 33,55 35,55 36,54 41,54 42,53 47,53 48,52 50,52 51,53 49,55 49,56 48,57 48,58 47,59 47,65 48,66 48,67 50,69 51,69 53,71 55,71 56,72 59,72 60,73 69,73 69,68 63,68 62,67 58,67 57,66 56,66 53,63 53,59 55,57 55,56 57,54 58,54 59,53 60,53 61,52 63,52 64,51 67,51 68,50 75,50 75,44 76,43 76,42 77,41 79,41 80,40 81,40 82,39 82,37 77,32 73,32 71,34 69,34 68,35 65,32" stroke="black" stroke-width="1" /><polygon fill="none" id="2" points="66,37 72,43 72,44 71,45 69,45 68,46 61,46 60,47 56,47 55,46 57,44 58,44 61,41 62,41" stroke="black" stroke-width="1" /></svg>