<?xml version="1.0" encoding="utf-8" ?>
<svg baseProfile="full" height="100" version="1.1" width="100" xmlns="http://www.w3.org/2000/svg" xmlns:ev="http://www.w3.org/2001/xml-events" xmlns:xlink="http://www.w3.org/1999/xlink"><defs /><polygon fill="none" id="1" points="68,32 67,33 56,33 55,34 42,34 42,37 43,38 43,39 51,39 52,38 59,38 60,39 57,42 56,42 54,44 53,44 50,47 49,47 47,49 39,49 38,50 35,50 35,54 36,55 38,55 39,54 45,54 46,53 52,53 53,52 55,52 56,53 53,56 53,57 52,58 52,65 53,66 53,67 56,70 57,70 58,71 60,71 61,72 65,72 66,73 75,73 75,68 68,68 67,67 63,67 62,66 61,66 57,62 58,61 58,59 59,58 59,57 61,55 62,55 64,53 65,53 66,52 68,52 69,51 73,51 74,50 82,50 82,44 83,43 83,42 84,41 87,41 88,40 89,40 89,37 84,32 80,32 78,34 76,34 75,35 74,35 71,32" stroke="black" stroke-width="1" /><polygon fill="none" id="2" points="72,37 73,38 74,38 77,41 77,42 79,44 78,45 75,45 74,46 67,46 66,47 61,47 60,46 61,45 62,45 64,43 65,43 69,39 70,39" stroke="black" stroke-width="1" /><polygon fill="none" id="3" points="60,38 61,37 62,38 61,39" stroke="black" stroke-width="1" /></svg>