<?xml version="1.0" encoding="utf-8" ?>
<svg baseProfile="full" height="100" version="1.1" width="100" xmlns="http://www.w3.org/2000/svg" xmlns:ev="http://www.w3.org/2001/xml-events" xmlns:xlink="http://www.w3.org/1999/xlink"><defs /><polygon fill="none" id="1" points="38,67 40,69 41,69 42,70 44,70 45,71 48,71 48,70 44,70 43,69 41,69 40,68 39,68" stroke="black" stroke-width="1" /><polygon fill="none" id="2" points="37,65" stroke="black" stroke-width="1" /><polygon fill="none" id="3" points="36,60 36,63" stroke="black" stroke-width="1" /><polygon fill="none" id="4" points="37,58" stroke="black" stroke-width="1" /><polygon fill="none" id="5" points="27,51 26,52 25,52 28,52 29,51 32,51" stroke="black" stroke-width="1" /><polygon fill="none" id="6" points="35,48 35,49 34,50 36,50 35,49" stroke="black" stroke-width="1" /><polygon fill="none" id="7" points="52,47 51,48 46,48 45,49 41,49 42,50 42,51 43,50 44,50 45,49 47,49 48,48 53,48" stroke="black" stroke-width="1" /><polygon fill="none" id="8" points="57,38" stroke="black" stroke-width="1" /><polygon fill="none" id="9" points="51,37" stroke="black" stroke-width="1" /><polygon fill="none" id="10" points="56,36" stroke="black" stroke-width="1" /><polygon fill="none" id="11" points="39,35 38,36 30,36 30,37 32,37 33,36 38,36 39,35 44,35 45,36 46,35" stroke="black" stroke-width="1" /></svg>