<?xml version="1.0" encoding="utf-8" ?>
<svg baseProfile="full" height="100" version="1.1" width="100" xmlns="http://www.w3.org/2000/svg" xmlns:ev="http://www.w3.org/2001/xml-events" xmlns:xlink="http://www.w3.org/1999/xlink"><defs /><polygon fill="none" id="1" points="41,59 41,65 45,69 46,69 47,70 50,70 51,71 54,71 54,70 49,70 48,69 46,69 45,68 44,68 41,65" stroke="black" stroke-width="1" /><polygon fill="none" id="2" points="42,57" stroke="black" stroke-width="1" /><polygon fill="none" id="3" points="43,55" stroke="black" stroke-width="1" /><polygon fill="none" id="4" points="40,48 37,51 31,51 30,52 28,52 31,52 32,51 37,51 38,50 41,50 40,49" stroke="black" stroke-width="1" /><polygon fill="none" id="5" points="58,47 57,48 52,48 51,49 46,49 47,50 47,51 48,50 49,50 50,49 53,49 54,48 59,48 59,47" stroke="black" stroke-width="1" /><polygon fill="none" id="6" points="60,41" stroke="black" stroke-width="1" /><polygon fill="none" id="7" points="64,38" stroke="black" stroke-width="1" /><polygon fill="none" id="8" points="63,36" stroke="black" stroke-width="1" /><polygon fill="none" id="9" points="43,35 42,36 34,36 34,37 36,37 37,36 43,36 44,35 49,35 50,36 50,37 52,35" stroke="black" stroke-width="1" /></svg>