<?xml version="1.0" encoding="utf-8" ?>
<svg baseProfile="full" height="100" version="1.1" width="100" xmlns="http://www.w3.org/2000/svg" xmlns:ev="http://www.w3.org/2001/xml-events" xmlns:xlink="http://www.w3.org/1999/xlink"><defs /><polygon fill="none" id="1" points="46,58 46,59 45,60 45,63 46,64 46,65 50,69 51,69 52,70 56,70 57,71 60,71 60,70 55,70 54,69 51,69 50,68 49,68 46,65" stroke="black" stroke-width="1" /><polygon fill="none" id="2" points="48,55 47,56" stroke="black" stroke-width="1" /><polygon fill="none" id="3" points="44,48 41,51 34,51 33,52 31,52 35,52 36,51 41,51 42,50 46,50 45,50 44,49" stroke="black" stroke-width="1" /><polygon fill="none" id="4" points="64,47 63,48 57,48 56,49 51,49 52,50 52,51 53,50 55,50 56,49 59,49 60,48 66,48 66,47" stroke="black" stroke-width="1" /><polygon fill="none" id="5" points="46,46" stroke="black" stroke-width="1" /><polygon fill="none" id="6" points="66,40 67,41" stroke="black" stroke-width="1" /><polygon fill="none" id="7" points="64,37" stroke="black" stroke-width="1" /><polygon fill="none" id="8" points="48,35 47,36 38,36 38,37 41,37 42,36 48,36 49,35 54,35 55,36 55,38 51,42 58,35" stroke="black" stroke-width="1" /><polygon fill="none" id="9" points="68,34 71,37" stroke="black" stroke-width="1" /></svg>