<?xml version="1.0" encoding="utf-8" ?>
<svg baseProfile="full" height="100" version="1.1" width="100" xmlns="http://www.w3.org/2000/svg" xmlns:ev="http://www.w3.org/2001/xml-events" xmlns:xlink="http://www.w3.org/1999/xlink"><defs /><polygon fill="none" id="1" points="53,55 51,57 51,58 50,59 50,60 49,61 49,63 50,64 50,65 52,67 53,67 55,69 57,69 58,70 61,70 62,71 67,71 67,70 61,70 60,69 56,69 55,68 54,68 51,65 51,57" stroke="black" stroke-width="1" /><polygon fill="none" id="2" points="48,48 45,51 38,51 37,52 34,52 39,52 40,51 45,51 46,50 51,50 50,50 49,49 49,48" stroke="black" stroke-width="1" /><polygon fill="none" id="3" points="71,47 70,48 63,48 62,49 56,49 57,50 57,51 58,51 59,50 61,50 62,49 65,49 66,48 73,48 73,47" stroke="black" stroke-width="1" /><polygon fill="none" id="4" points="53,44 52,45" stroke="black" stroke-width="1" /><polygon fill="none" id="5" points="58,40 56,42" stroke="black" stroke-width="1" /><polygon fill="none" id="6" points="70,37 74,41" stroke="black" stroke-width="1" /><polygon fill="none" id="7" points="53,35 52,36 41,36 41,37 45,37 46,36 53,36 54,35 60,35 61,36 61,38 60,39 64,35" stroke="black" stroke-width="1" /><polygon fill="none" id="8" points="75,34 79,38" stroke="black" stroke-width="1" /></svg>