<?xml version="1.0" encoding="utf-8" ?>
<svg baseProfile="full" height="100" version="1.1" width="100" xmlns="http://www.w3.org/2000/svg" xmlns:ev="http://www.w3.org/2001/xml-events" xmlns:xlink="http://www.w3.org/1999/xlink"><defs /><polygon fill="none" id="1" points="57,56 55,58 55,59 54,60 54,63 55,64 55,65 58,68 59,68 60,69 62,69 63,70 67,70 68,71 73,71 73,70 66,70 65,69 61,69 60,68 59,68 55,64 55,60 56,59 56,57" stroke="black" stroke-width="1" /><polygon fill="none" id="2" points="53,48 52,49 51,49 49,51 41,51 40,52 37,52 43,52 44,51 50,51 51,50 56,50 54,50 53,49" stroke="black" stroke-width="1" /><polygon fill="none" id="3" points="77,47 76,48 69,48 68,49 61,49 62,50 62,51 63,51 64,50 66,50 67,49 71,49 72,48 80,48 80,47" stroke="black" stroke-width="1" /><polygon fill="none" id="4" points="55,46" stroke="black" stroke-width="1" /><polygon fill="none" id="5" points="58,44 57,45" stroke="black" stroke-width="1" /><polygon fill="none" id="6" points="79,40 80,41" stroke="black" stroke-width="1" /><polygon fill="none" id="7" points="77,37 78,38" stroke="black" stroke-width="1" /><polygon fill="none" id="8" points="58,35 57,36 45,36 45,37 49,37 50,36 58,36 59,35 65,35 66,36 66,38 63,41 62,41 60,43 62,41 63,41 67,37 68,37 70,35" stroke="black" stroke-width="1" /><polygon fill="none" id="9" points="82,34 86,38" stroke="black" stroke-width="1" /></svg>