<?xml version="1.0" encoding="utf-8" ?>
<svg baseProfile="full" height="100" version="1.1" width="100" xmlns="http://www.w3.org/2000/svg" xmlns:ev="http://www.w3.org/2001/xml-events" xmlns:xlink="http://www.w3.org/1999/xlink"><defs /><polygon fill="none" id="1" points="48,61 47,62 46,62 47,63 47,64 48,65 48,66 50,68 51,68 52,69 54,69 55,70 69,70 69,67 67,67 66,68 56,68 55,67 53,67 50,64 50,63 49,62 49,61" stroke="black" stroke-width="1" /><polygon fill="none" id="2" points="53,48 52,49 49,49 49,50 50,51 50,52 51,52 52,51 59,51 60,50 64,50 65,51 66,51 66,48" stroke="black" stroke-width="1" /><polygon fill="none" id="3" points="60,34 58,36 63,41 63,42 64,42 65,41 65,40 64,39 64,38" stroke="black" stroke-width="1" /><polygon fill="none" id="4" points="43,32 43,35 42,36 42,40 41,41 32,41 31,40 30,40 30,43 40,43 41,44 40,45 40,47 39,48 39,50 38,51 38,53 37,54 37,55 36,56 36,58 35,59 35,60 34,61 34,63 33,64 33,65 32,66 32,67 30,69 30,70 31,70 32,71 33,71 34,70 34,69 35,68 35,67 36,66 36,64 37,63 37,62 38,61 38,59 39,58 39,56 40,55 40,53 41,52 41,50 42,49 42,47 43,46 43,44 44,43 48,43 49,42 53,42 53,39 51,39 50,40 45,40 44,39 45,38 45,36 46,35 46,32" stroke="black" stroke-width="1" /><polygon fill="none" id="5" points="64,31 63,32 63,33 64,33 66,35 66,36 68,38 69,38 70,37 70,36 65,31" stroke="black" stroke-width="1" /></svg>