<?xml version="1.0" encoding="utf-8" ?>
<svg baseProfile="full" height="100" version="1.1" width="100" xmlns="http://www.w3.org/2000/svg" xmlns:ev="http://www.w3.org/2001/xml-events" xmlns:xlink="http://www.w3.org/1999/xlink"><defs /><polygon fill="none" id="1" points="58,61 57,62 56,62 56,64 60,68 61,68 62,69 65,69 66,70 83,70 83,67 80,67 79,68 67,68 66,67 64,67 63,66 62,66 60,64 60,62 59,61" stroke="black" stroke-width="1" /><polygon fill="none" id="2" points="64,48 63,49 59,49 59,50 60,51 60,52 62,52 63,51 71,51 72,50 77,50 78,51 79,51 80,50 80,48" stroke="black" stroke-width="1" /><polygon fill="none" id="3" points="72,34 71,35 70,35 70,36 76,42 77,42 79,40 78,40 77,39 77,38 76,37 75,37" stroke="black" stroke-width="1" /><polygon fill="none" id="4" points="52,32 52,34 51,35 51,37 50,38 50,40 49,41 38,41 37,40 36,40 36,43 48,43 49,44 48,45 48,47 47,48 47,49 46,50 46,52 45,53 45,54 44,55 44,56 43,57 43,58 42,59 42,60 41,61 41,62 40,63 40,64 38,66 38,67 36,69 36,70 38,70 39,71 40,71 41,70 41,69 42,68 42,67 43,66 43,65 45,63 45,61 46,60 46,59 47,58 47,56 48,55 48,54 49,53 49,51 50,50 50,49 51,48 51,47 52,46 52,44 53,43 57,43 58,42 64,42 64,39 61,39 60,40 54,40 53,39 54,38 54,37 55,36 55,34 56,33 56,32" stroke="black" stroke-width="1" /><polygon fill="none" id="5" points="77,31 76,32 75,32 76,33 77,33 80,36 80,37 81,38 83,38 84,37 84,36 81,33 80,33 78,31" stroke="black" stroke-width="1" /></svg>