<?xml version="1.0" encoding="utf-8" ?>
<svg baseProfile="full" height="100" version="1.1" width="100" xmlns="http://www.w3.org/2000/svg" xmlns:ev="http://www.w3.org/2001/xml-events" xmlns:xlink="http://www.w3.org/1999/xlink"><defs /><polygon fill="none" id="1" points="43,61 42,62 42,65 43,66 43,67 46,70 48,70 49,71 63,71 63,67 60,67 59,68 51,68 50,67 49,67 46,64 46,63 45,62 45,61" stroke="black" stroke-width="1" /><polygon fill="none" id="2" points="48,48 47,49 44,49 44,51 45,52 45,53 47,53 48,52 54,52 55,51 57,51 58,52 60,52 61,51 61,48" stroke="black" stroke-width="1" /><polygon fill="none" id="3" points="39,32 39,34 38,35 38,39 36,41 30,41 29,40 27,40 27,44 35,44 36,45 36,47 35,48 35,50 34,51 34,53 33,54 33,56 32,57 32,59 31,60 31,62 30,63 30,64 29,65 29,66 28,67 28,68 27,69 27,71 28,71 29,72 31,72 32,71 32,69 33,68 33,66 34,65 34,63 35,62 35,60 36,59 36,57 37,56 37,54 38,53 38,51 39,50 39,47 40,46 40,45 41,44 44,44 45,43 49,43 49,39 46,39 45,40 42,40 41,39 41,38 42,37 42,35 43,34 43,32" stroke="black" stroke-width="1" /><polygon fill="none" id="4" points="57,31 56,32 56,33 55,34 54,34 52,36 52,37 56,41 56,42 57,43 59,43 60,42 60,40 61,39 63,39 64,38 64,36 59,31" stroke="black" stroke-width="1" /><polygon fill="none" id="5" points="59,39 60,38 61,39 60,40" stroke="black" stroke-width="1" /><polygon fill="none" id="6" points="57,36 58,35 60,37 60,38 59,39 57,37" stroke="black" stroke-width="1" /><polygon fill="none" id="7" points="56,35 57,34 58,35 57,36" stroke="black" stroke-width="1" /><polygon fill="none" id="8" points="55,34 56,33 57,34 56,35" stroke="black" stroke-width="1" /></svg>