<?xml version="1.0" encoding="utf-8" ?>
<svg baseProfile="full" height="100" version="1.1" width="100" xmlns="http://www.w3.org/2000/svg" xmlns:ev="http://www.w3.org/2001/xml-events" xmlns:xlink="http://www.w3.org/1999/xlink"><defs /><polygon fill="none" id="1" points="48,61 47,62 46,62 46,63 47,64 47,65 48,66 48,67 50,69 51,69 52,70 54,70 55,71 70,71 70,67 67,67 66,68 57,68 56,67 54,67 51,64 51,63 50,62 50,61" stroke="black" stroke-width="1" /><polygon fill="none" id="2" points="53,48 52,49 49,49 49,51 50,52 50,53 52,53 53,52 60,52 61,51 64,51 65,52 67,52 67,48" stroke="black" stroke-width="1" /><polygon fill="none" id="3" points="43,32 43,35 42,36 42,40 41,41 33,41 32,40 30,40 30,44 39,44 40,45 40,47 39,48 39,50 38,51 38,53 37,54 37,55 36,56 36,58 35,59 35,60 34,61 34,63 33,64 33,65 32,66 32,67 30,69 30,71 31,71 32,72 34,72 35,71 35,70 36,69 36,68 37,67 37,65 38,64 38,63 39,62 39,60 40,59 40,57 41,56 41,54 42,53 42,51 43,50 43,48 44,47 44,45 45,44 49,44 50,43 54,43 54,39 51,39 50,40 47,40 46,39 46,37 47,36 47,32" stroke="black" stroke-width="1" /><polygon fill="none" id="4" points="64,31 63,32 63,34 62,35 61,34 60,34 58,36 58,37 63,42 63,43 65,43 66,42 66,40 65,39 65,38 66,37 68,39 70,39 71,38 71,36 66,31" stroke="black" stroke-width="1" /><polygon fill="none" id="5" points="62,35 63,34 64,34 66,36 66,37 65,38" stroke="black" stroke-width="1" /></svg>