<?xml version="1.0" encoding="utf-8" ?>
<svg baseProfile="full" height="100" version="1.1" width="100" xmlns="http://www.w3.org/2000/svg" xmlns:ev="http://www.w3.org/2001/xml-events" xmlns:xlink="http://www.w3.org/1999/xlink"><defs /><polygon fill="none" id="1" points="53,61 52,62 51,62 51,63 52,64 52,66 55,69 56,69 57,70 59,70 60,71 77,71 77,67 74,67 73,68 62,68 61,67 59,67 56,64 56,63 55,62 55,61" stroke="black" stroke-width="1" /><polygon fill="none" id="2" points="59,48 58,49 54,49 54,51 55,52 55,53 57,53 58,52 66,52 67,51 71,51 72,52 74,52 74,48" stroke="black" stroke-width="1" /><polygon fill="none" id="3" points="66,34 65,35 64,35 64,37 69,42 69,43 72,43 73,42 73,40 67,34" stroke="black" stroke-width="1" /><polygon fill="none" id="4" points="47,32 47,36 46,37 46,40 45,41 36,41 35,40 33,40 33,44 43,44 44,45 44,47 43,48 43,49 42,50 42,52 41,53 41,55 40,56 40,57 39,58 39,59 38,60 38,61 37,62 37,63 36,64 36,65 35,66 35,67 33,69 33,71 35,71 36,72 38,72 38,71 39,70 39,69 40,68 40,67 41,66 41,65 42,64 42,63 43,62 43,60 44,59 44,57 45,56 45,55 46,54 46,52 47,51 47,49 48,48 48,45 49,44 53,44 54,43 59,43 59,39 56,39 55,40 51,40 50,39 51,38 51,37 52,36 52,32" stroke="black" stroke-width="1" /><polygon fill="none" id="5" points="70,31 69,32 69,33 75,39 77,39 78,38 78,36 73,31" stroke="black" stroke-width="1" /></svg>