<?xml version="1.0" encoding="utf-8" ?>
<svg baseProfile="full" height="100" version="1.1" width="100" xmlns="http://www.w3.org/2000/svg" xmlns:ev="http://www.w3.org/2001/xml-events" xmlns:xlink="http://www.w3.org/1999/xlink"><defs /><polygon fill="none" id="1" points="58,61 57,62 56,62 56,65 60,69 61,69 62,70 65,70 66,71 84,71 84,67 80,67 79,68 68,68 67,67 65,67 64,66 63,66 61,64 61,62 60,61" stroke="black" stroke-width="1" /><polygon fill="none" id="2" points="64,48 63,49 59,49 59,51 60,52 60,53 63,53 64,52 72,52 73,51 77,51 78,52 80,52 81,51 81,48" stroke="black" stroke-width="1" /><polygon fill="none" id="3" points="52,32 52,34 51,35 51,37 50,38 50,40 49,41 39,41 38,40 36,40 36,44 47,44 48,45 48,47 47,48 47,49 46,50 46,52 45,53 45,54 44,55 44,56 43,57 43,58 42,59 42,60 41,61 41,62 40,63 40,64 38,66 38,67 36,69 36,71 38,71 39,72 41,72 42,71 42,70 43,69 43,68 44,67 44,66 46,64 46,62 47,61 47,60 48,59 48,57 49,56 49,55 50,54 50,52 51,51 51,50 52,49 52,48 53,47 53,45 54,44 58,44 59,43 65,43 65,39 61,39 60,40 56,40 55,39 55,38 56,37 56,35 57,34 57,32" stroke="black" stroke-width="1" /><polygon fill="none" id="4" points="77,31 76,32 75,32 75,33 76,34 77,34 80,37 80,38 81,39 80,40 79,40 78,39 78,38 77,37 76,37 73,34 72,34 71,35 70,35 70,37 76,43 78,43 80,41 80,40 81,39 84,39 85,38 85,36 82,33 81,33 79,31" stroke="black" stroke-width="1" /></svg>