<?xml version="1.0" encoding="utf-8" ?>
<svg baseProfile="full" height="100" version="1.1" width="100" xmlns="http://www.w3.org/2000/svg" xmlns:ev="http://www.w3.org/2001/xml-events" xmlns:xlink="http://www.w3.org/1999/xlink"><defs /><polygon fill="none" id="1" points="44,62 43,63 43,64 44,65 44,66 47,69 49,69 50,70 62,70 62,68 61,68 60,69 50,69 49,68 48,68 45,65 45,64 44,63" stroke="black" stroke-width="1" /><polygon fill="none" id="2" points="49,49 48,50 45,50 46,51 46,52 47,51 53,51 54,50 58,50 59,51 60,50 60,49" stroke="black" stroke-width="1" /><polygon fill="none" id="3" points="54,36 54,37 57,40 57,41 58,42 59,41 56,38 56,37 55,36" stroke="black" stroke-width="1" /><polygon fill="none" id="4" points="40,33 40,35 39,36 39,40 37,42 29,42 28,41 28,43 37,43 38,44 38,45 37,46 37,48 36,49 36,51 35,52 35,54 34,55 34,57 33,58 33,60 32,61 32,63 31,64 31,65 30,66 30,67 29,68 29,69 28,70 29,70 30,71 31,70 31,68 32,67 32,65 33,64 33,62 34,61 34,59 35,58 35,56 36,55 36,53 37,52 37,50 38,49 38,46 39,45 39,44 40,43 43,43 44,42 48,42 48,40 47,40 46,41 41,41 40,40 40,37 41,36 41,34 42,33" stroke="black" stroke-width="1" /><polygon fill="none" id="5" points="58,32 58,33 61,36 61,37 62,38 63,37" stroke="black" stroke-width="1" /></svg>