<?xml version="1.0" encoding="utf-8" ?>
<svg baseProfile="full" height="100" version="1.1" width="100" xmlns="http://www.w3.org/2000/svg" xmlns:ev="http://www.w3.org/2001/xml-events" xmlns:xlink="http://www.w3.org/1999/xlink"><defs /><polygon fill="none" id="1" points="49,62 48,63 48,64 49,65 49,66 51,68 52,68 53,69 55,69 56,70 69,70 69,68 68,68 67,69 56,69 55,68 53,68 50,65 50,64 49,63" stroke="black" stroke-width="1" /><polygon fill="none" id="2" points="54,49 53,50 50,50 51,51 51,52 52,51 59,51 60,50 65,50 66,51 66,49" stroke="black" stroke-width="1" /><polygon fill="none" id="3" points="60,36 60,37 64,41 64,42 65,41 64,40 64,39 61,36" stroke="black" stroke-width="1" /><polygon fill="none" id="4" points="44,33 44,36 43,37 43,41 42,42 32,42 31,41 31,43 41,43 42,44 42,45 41,46 41,48 40,49 40,51 39,52 39,54 38,55 38,56 37,57 37,59 36,60 36,61 35,62 35,64 34,65 34,66 33,67 33,68 31,70 32,70 33,71 34,70 34,69 35,68 35,67 36,66 36,64 37,63 37,62 38,61 38,59 39,58 39,56 40,55 40,53 41,52 41,50 42,49 42,47 43,46 43,44 44,43 48,43 49,42 53,42 53,40 52,40 51,41 45,41 44,40 44,39 45,38 45,36 46,35 46,33" stroke="black" stroke-width="1" /><polygon fill="none" id="5" points="65,32 64,33 65,33 67,35 67,36 69,38 70,37" stroke="black" stroke-width="1" /></svg>