<?xml version="1.0" encoding="utf-8" ?>
<svg baseProfile="full" height="100" version="1.1" width="100" xmlns="http://www.w3.org/2000/svg" xmlns:ev="http://www.w3.org/2001/xml-events" xmlns:xlink="http://www.w3.org/1999/xlink"><defs /><polygon fill="none" id="1" points="54,62 53,63 53,65 56,68 57,68 58,69 60,69 61,70 76,70 76,68 75,68 74,69 61,69 60,68 58,68 55,65 55,64 54,63" stroke="black" stroke-width="1" /><polygon fill="none" id="2" points="60,49 59,50 55,50 56,51 56,52 57,51 65,51 66,50 72,50 73,51 73,49" stroke="black" stroke-width="1" /><polygon fill="none" id="3" points="65,36 70,41 70,42 71,42 72,41 67,36" stroke="black" stroke-width="1" /><polygon fill="none" id="4" points="48,33 48,37 47,38 47,41 46,42 35,42 34,41 34,43 45,43 46,44 46,45 45,46 45,48 44,49 44,50 43,51 43,53 42,54 42,56 41,57 41,58 40,59 40,60 39,61 39,62 38,63 38,64 37,65 37,66 36,67 36,68 34,70 36,70 37,71 37,70 38,69 38,68 39,67 39,66 40,65 40,64 41,63 41,62 42,61 42,59 43,58 43,56 44,55 44,54 45,53 45,51 46,50 46,48 47,47 47,44 48,43 52,43 53,42 58,42 58,40 57,40 56,41 50,41 49,40 49,38 50,37 50,36 51,35 51,33" stroke="black" stroke-width="1" /><polygon fill="none" id="5" points="71,32 71,33 76,38 77,37 72,32" stroke="black" stroke-width="1" /></svg>