<?xml version="1.0" encoding="utf-8" ?>
<svg baseProfile="full" height="100" version="1.1" width="100" xmlns="http://www.w3.org/2000/svg" xmlns:ev="http://www.w3.org/2001/xml-events" xmlns:xlink="http://www.w3.org/1999/xlink"><defs /><polygon fill="none" id="1" points="40,32 40,38 39,39 38,39 37,40 31,40 30,39 30,41 36,41 37,40 38,40 39,41 39,50 38,51 37,51 36,52 35,52 31,56 31,57 30,58 30,59 29,60 29,62 28,63 28,66 29,67 29,68 30,69 33,69 34,68 35,68 37,66 39,66 40,67 40,68 41,68 41,63 45,59 45,58 47,56 47,55 48,54 48,52 49,51 49,49 50,48 53,48 54,49 55,49 56,50 57,50 58,51 58,52 59,53 59,54 60,55 60,61 59,62 59,63 58,64 58,65 57,66 56,66 54,68 53,68 52,69 48,69 48,70 49,71 51,71 52,70 53,70 54,69 55,69 56,68 57,68 59,66 59,65 61,63 61,60 62,59 62,57 61,56 61,54 60,53 60,52 56,48 54,48 53,47 52,47 51,46 51,44 50,44 50,46 49,47 46,47 45,48 41,48 40,47 40,41 41,40 45,40 46,39 51,39 52,38 54,38 54,36 53,37 50,37 49,38 46,38 45,39 42,39 41,38 41,33 42,32" stroke="black" stroke-width="1" /><polygon fill="none" id="2" points="35,53 36,52 38,52 39,53 39,64 36,67 35,67 34,68 31,68 30,67 30,66 29,65 29,64 30,63 30,60 31,59 31,58 35,54" stroke="black" stroke-width="1" /><polygon fill="none" id="3" points="43,49 44,48 48,48 49,49 49,50 48,51 48,52 47,53 47,54 45,56 45,57 44,58 44,59 42,61 41,61 40,60 40,50 41,49" stroke="black" stroke-width="1" /></svg>