<?xml version="1.0" encoding="utf-8" ?>
<svg baseProfile="full" height="100" version="1.1" width="100" xmlns="http://www.w3.org/2000/svg" xmlns:ev="http://www.w3.org/2001/xml-events" xmlns:xlink="http://www.w3.org/1999/xlink"><defs /><polygon fill="none" id="1" points="73,40 72,41 71,41 79,49 79,50 81,52 81,53 83,55 83,56 84,56 85,55 86,55 84,53 84,52 82,50 82,49" stroke="black" stroke-width="1" /><polygon fill="none" id="2" points="53,34 53,38 52,39 52,41 51,42 51,44 50,45 41,45 40,46 37,46 38,47 38,48 39,47 44,47 45,46 49,46 50,47 50,48 49,49 49,50 48,51 48,52 47,53 47,55 45,57 45,58 44,59 44,60 43,61 43,62 42,63 42,64 39,67 39,68 38,69 39,70 41,70 41,69 42,68 42,67 44,65 44,64 45,63 45,62 46,61 46,60 47,59 47,58 48,57 48,56 49,55 49,54 50,53 50,52 51,51 51,49 52,48 52,47 54,45 61,45 64,48 64,50 65,51 65,54 64,55 64,61 63,62 63,64 62,65 62,67 61,68 60,68 59,69 55,69 54,68 52,68 51,67 51,68 50,69 53,69 54,70 60,70 61,69 62,69 64,67 64,66 65,65 65,64 66,63 66,59 67,58 67,50 66,49 66,47 64,45 62,45 61,44 54,44 53,43 53,42 54,41 54,39 55,38 55,36 56,35 56,34" stroke="black" stroke-width="1" /></svg>