<?xml version="1.0" encoding="utf-8" ?>
<svg baseProfile="full" height="100" version="1.1" width="100" xmlns="http://www.w3.org/2000/svg" xmlns:ev="http://www.w3.org/2001/xml-events" xmlns:xlink="http://www.w3.org/1999/xlink"><defs /><polygon fill="none" id="1" points="59,62 58,63 57,63 57,64 61,68 62,68 63,69 66,69 67,70 83,70 83,68 81,68 80,69 67,69 66,68 64,68 63,67 62,67 60,65 60,63" stroke="black" stroke-width="1" /><polygon fill="none" id="2" points="65,49 64,50 60,50 61,51 61,52 62,52 63,51 71,51 72,50 78,50 79,51 80,50 80,49" stroke="black" stroke-width="1" /><polygon fill="none" id="3" points="71,36 77,42 78,41 77,40 77,39 76,38 75,38 73,36" stroke="black" stroke-width="1" /><polygon fill="none" id="4" points="53,33 53,35 52,36 52,38 51,39 51,41 50,42 38,42 37,41 37,43 49,43 50,44 50,45 49,46 49,48 48,49 48,50 47,51 47,53 46,54 46,55 45,56 45,57 44,58 44,59 43,60 43,61 42,62 42,63 41,64 41,65 39,67 39,68 37,70 39,70 40,71 41,70 41,69 42,68 42,67 43,66 43,65 45,63 45,61 46,60 46,59 47,58 47,56 48,55 48,54 49,53 49,51 50,50 50,49 51,48 51,47 52,46 52,44 53,43 57,43 58,42 64,42 64,40 62,40 61,41 54,41 53,40 53,39 54,38 54,37 55,36 55,34 56,33" stroke="black" stroke-width="1" /><polygon fill="none" id="5" points="78,32 77,33 78,33 81,36 81,37 82,38 83,38 84,37 81,34 80,34" stroke="black" stroke-width="1" /></svg>