<?xml version="1.0" encoding="utf-8" ?>
<svg baseProfile="full" height="100" version="1.1" width="100" xmlns="http://www.w3.org/2000/svg" xmlns:ev="http://www.w3.org/2001/xml-events" xmlns:xlink="http://www.w3.org/1999/xlink"><defs /><polygon fill="none" id="1" points="37,60 36,61 36,64 37,65 37,67 40,70 42,70 43,71 56,71 56,66 52,66 51,67 46,67 45,66 43,66 41,64 41,62 40,61 40,60" stroke="black" stroke-width="1" /><polygon fill="none" id="2" points="42,47 41,48 39,48 39,53 42,53 43,52 48,52 49,51 50,51 51,52 54,52 54,47" stroke="black" stroke-width="1" /><polygon fill="none" id="3" points="33,31 33,38 31,40 27,40 26,39 23,39 23,44 30,44 31,45 31,46 30,47 30,49 29,50 29,53 28,54 28,57 27,58 27,59 26,60 26,62 25,63 25,65 24,66 24,67 23,68 23,71 24,71 25,72 28,72 28,70 29,69 29,67 30,66 30,64 31,63 31,61 32,60 32,57 33,56 33,54 34,53 34,50 35,49 35,45 36,44 39,44 40,43 43,43 43,38 40,38 39,39 38,39 37,38 37,37 38,36 38,31" stroke="black" stroke-width="1" /><polygon fill="none" id="4" points="50,30 49,31 49,32 48,33 47,33 45,35 45,37 49,41 49,43 52,43 53,42 53,40 54,39 56,39 57,38 57,35 54,32 54,31 53,30" stroke="black" stroke-width="1" /></svg>