<?xml version="1.0" encoding="utf-8" ?>
<svg baseProfile="full" height="100" version="1.1" width="100" xmlns="http://www.w3.org/2000/svg" xmlns:ev="http://www.w3.org/2001/xml-events" xmlns:xlink="http://www.w3.org/1999/xlink"><defs /><polygon fill="none" id="1" points="47,60 46,61 45,61 45,63 46,64 46,65 47,66 47,67 49,69 50,69 51,70 53,70 54,71 70,71 70,66 66,66 65,67 57,67 56,66 54,66 51,63 51,62 50,61 50,60" stroke="black" stroke-width="1" /><polygon fill="none" id="2" points="52,47 51,48 48,48 48,51 49,52 49,53 52,53 53,52 60,52 61,51 63,51 64,52 67,52 67,47" stroke="black" stroke-width="1" /><polygon fill="none" id="3" points="42,31 42,34 41,35 41,39 40,40 33,40 32,39 29,39 29,44 38,44 39,45 39,46 38,47 38,49 37,50 37,52 36,53 36,54 35,55 35,57 34,58 34,59 33,60 33,62 32,63 32,64 31,65 31,66 29,68 29,71 30,71 31,72 34,72 35,71 35,70 36,69 36,68 37,67 37,65 38,64 38,63 39,62 39,60 40,59 40,57 41,56 41,54 42,53 42,51 43,50 43,48 44,47 44,45 45,44 49,44 50,43 54,43 54,38 50,38 49,39 47,39 46,38 46,37 47,36 47,31" stroke="black" stroke-width="1" /><polygon fill="none" id="4" points="63,30 62,31 62,32 61,33 59,33 57,35 57,37 62,42 62,43 65,43 66,42 66,40 67,39 70,39 71,38 71,35 66,30" stroke="black" stroke-width="1" /></svg>