<?xml version="1.0" encoding="utf-8" ?>
<svg baseProfile="full" height="100" version="1.1" width="100" xmlns="http://www.w3.org/2000/svg" xmlns:ev="http://www.w3.org/2001/xml-events" xmlns:xlink="http://www.w3.org/1999/xlink"><defs /><polygon fill="none" id="1" points="61,68 60,69 50,69 61,69" stroke="black" stroke-width="1" /><polygon fill="none" id="2" points="43,63 44,64 44,65 47,68 48,68 47,68 44,65 44,64" stroke="black" stroke-width="1" /><polygon fill="none" id="3" points="49,49 48,50 46,50 52,50 53,49 59,49" stroke="black" stroke-width="1" /><polygon fill="none" id="4" points="37,46 37,48 36,49 36,51 35,52 35,54 34,55 34,57 33,58 33,60 32,61 32,63 31,64 31,65 30,66 30,67 29,68 29,69 30,69 30,67 31,66 31,64 32,63 32,61 33,60 33,58 34,57 34,55 35,54 35,52 36,51 36,49 37,48" stroke="black" stroke-width="1" /><polygon fill="none" id="5" points="57,40" stroke="black" stroke-width="1" /><polygon fill="none" id="6" points="61,36" stroke="black" stroke-width="1" /><polygon fill="none" id="7" points="54,36 55,37" stroke="black" stroke-width="1" /><polygon fill="none" id="8" points="40,33 40,35 39,36 39,40 37,42 28,42 37,42 38,43 38,44 38,43 39,42 42,42 43,41 47,41 47,40 46,41 40,41 39,40 39,36 40,35" stroke="black" stroke-width="1" /></svg>