<?xml version="1.0" encoding="utf-8" ?>
<svg baseProfile="full" height="100" version="1.1" width="100" xmlns="http://www.w3.org/2000/svg" xmlns:ev="http://www.w3.org/2001/xml-events" xmlns:xlink="http://www.w3.org/1999/xlink"><defs /><polygon fill="none" id="1" points="47,38 46,39 46,43 49,46 49,47 50,48 50,49 51,50 51,51 52,52 52,53 53,54 53,57 54,58 56,58 58,56 58,53 57,52 57,50 56,49 56,48 54,46 54,45 53,44 53,43 52,42 52,41 50,39 50,38" stroke="black" stroke-width="1" /><polygon fill="none" id="2" points="34,32 34,33 33,34 33,41 31,43 26,43 25,44 23,44 23,48 24,49 26,49 27,48 29,48 30,49 30,51 29,52 29,55 28,56 28,58 27,59 27,60 26,61 26,63 25,64 25,65 24,66 24,67 23,68 23,70 25,72 27,72 28,71 28,70 29,69 29,67 30,66 30,65 31,64 32,65 32,70 33,70 34,71 41,71 43,69 43,68 44,67 44,64 45,63 45,56 46,55 46,50 45,49 45,45 42,42 38,42 37,41 37,39 38,38 38,32" stroke="black" stroke-width="1" /><polygon fill="none" id="3" points="37,46 38,46 41,49 41,60 40,61 40,64 39,65 39,66 38,67 37,66 36,66 35,65 32,65 31,64 31,62 32,61 32,59 33,58 33,56 34,55 34,52 35,51 35,48" stroke="black" stroke-width="1" /></svg>