<?xml version="1.0" encoding="utf-8" ?>
<svg baseProfile="full" height="100" version="1.1" width="100" xmlns="http://www.w3.org/2000/svg" xmlns:ev="http://www.w3.org/2001/xml-events" xmlns:xlink="http://www.w3.org/1999/xlink"><defs /><polygon fill="none" id="1" points="63,32 61,34 62,34 64,36 64,37 66,39 66,40 67,40 68,39 68,37" stroke="black" stroke-width="1" /><polygon fill="none" id="2" points="43,31 43,33 42,34 42,39 41,40 35,40 34,39 30,39 30,42 40,42 41,43 40,44 40,47 39,48 39,50 38,51 38,53 37,54 37,56 36,57 36,58 35,59 36,59 38,61 41,58 42,58 44,56 45,56 46,55 47,55 48,54 51,54 52,53 58,53 59,54 60,54 63,57 63,62 59,66 58,66 57,67 55,67 54,68 49,68 48,69 42,69 43,70 43,71 44,72 45,71 53,71 54,70 57,70 58,69 59,69 60,68 61,68 62,67 63,67 65,65 65,64 66,63 66,56 65,55 65,54 63,52 61,52 60,51 51,51 50,52 47,52 46,53 45,53 44,54 43,54 41,56 40,56 39,55 40,54 40,53 41,52 41,50 42,49 42,47 43,46 43,43 44,42 51,42 52,41 60,41 60,38 55,38 54,39 47,39 46,40 45,40 44,39 44,38 45,37 45,34 46,33 46,32 45,31" stroke="black" stroke-width="1" /><polygon fill="none" id="3" points="67,29 66,30 69,33 69,34 71,36 72,36 73,35 73,34 68,29" stroke="black" stroke-width="1" /></svg>