<?xml version="1.0" encoding="utf-8" ?>
<svg baseProfile="full" height="100" version="1.1" width="100" xmlns="http://www.w3.org/2000/svg" xmlns:ev="http://www.w3.org/2001/xml-events" xmlns:xlink="http://www.w3.org/1999/xlink"><defs /><polygon fill="none" id="1" points="50,32 49,33 49,34 51,36 51,37 53,39 53,40 55,38 53,36 53,35" stroke="black" stroke-width="1" /><polygon fill="none" id="2" points="34,31 34,38 32,40 28,40 27,39 24,39 24,42 32,42 33,43 32,44 32,47 31,48 31,51 30,52 30,55 29,56 29,58 28,59 30,61 35,56 36,56 37,55 38,55 39,54 40,54 41,53 46,53 47,54 48,54 50,56 50,57 51,58 51,61 50,62 50,63 47,66 46,66 45,67 44,67 43,68 39,68 38,69 33,69 34,70 34,71 35,72 36,71 42,71 43,70 45,70 46,69 47,69 48,68 49,68 52,65 52,64 53,63 53,56 52,55 52,54 50,52 49,52 48,51 41,51 40,52 38,52 37,53 36,53 33,56 32,56 31,55 32,54 32,52 33,51 33,48 34,47 34,43 35,42 40,42 41,41 47,41 48,40 48,38 44,38 43,39 38,39 37,40 36,40 35,39 35,38 36,37 36,33 37,32 36,31" stroke="black" stroke-width="1" /><polygon fill="none" id="3" points="53,29 53,31 56,34 56,35 57,36 58,35 58,34 57,33 57,32 54,29" stroke="black" stroke-width="1" /></svg>