<?xml version="1.0" encoding="utf-8" ?>
<svg baseProfile="full" height="100" version="1.1" width="100" xmlns="http://www.w3.org/2000/svg" xmlns:ev="http://www.w3.org/2001/xml-events" xmlns:xlink="http://www.w3.org/1999/xlink"><defs /><polygon fill="none" id="1" points="56,32 55,33 55,34 59,38 59,40 60,40 61,39 61,37 58,34 58,33 57,32" stroke="black" stroke-width="1" /><polygon fill="none" id="2" points="39,31 38,32 38,38 36,40 31,40 30,39 27,39 27,42 36,42 37,43 36,44 36,47 35,48 35,50 34,51 34,53 33,54 33,56 32,57 32,59 34,61 38,57 39,57 41,55 42,55 43,54 45,54 46,53 52,53 53,54 54,54 57,57 57,62 53,66 52,66 51,67 49,67 48,68 44,68 43,69 38,69 38,70 40,72 41,71 47,71 48,70 51,70 52,69 53,69 54,68 55,68 59,64 59,62 60,61 60,58 59,57 59,55 56,52 55,52 54,51 46,51 45,52 43,52 42,53 41,53 40,54 39,54 37,56 36,56 35,55 36,54 36,53 37,52 37,50 38,49 38,46 39,45 39,43 40,42 45,42 46,41 53,41 54,40 54,38 50,38 49,39 42,39 41,40 40,39 40,35 41,34 41,31" stroke="black" stroke-width="1" /><polygon fill="none" id="3" points="60,29 59,30 63,34 63,35 64,36 65,36 66,35 65,34 65,33 61,29" stroke="black" stroke-width="1" /></svg>