<?xml version="1.0" encoding="utf-8" ?>
<svg baseProfile="full" height="100" version="1.1" width="100" xmlns="http://www.w3.org/2000/svg" xmlns:ev="http://www.w3.org/2001/xml-events" xmlns:xlink="http://www.w3.org/1999/xlink"><defs /><polygon fill="none" id="1" points="69,32 67,34 68,34 72,38 72,39 73,40 74,40 75,39 75,37 70,32" stroke="black" stroke-width="1" /><polygon fill="none" id="2" points="47,31 47,34 46,35 46,39 45,40 38,40 37,39 33,39 33,42 44,42 45,43 45,44 44,45 44,47 43,48 43,50 42,51 42,53 41,54 41,55 40,56 40,57 39,58 39,59 40,60 41,60 42,61 45,58 46,58 48,56 50,56 51,55 52,55 53,54 56,54 57,53 64,53 65,54 67,54 69,56 69,57 70,58 70,60 69,61 69,62 65,66 64,66 63,67 60,67 59,68 54,68 53,69 46,69 47,70 47,71 48,71 49,72 50,71 58,71 59,70 62,70 63,69 65,69 66,68 67,68 68,67 69,67 73,63 73,56 69,52 67,52 66,51 56,51 55,52 52,52 51,53 50,53 49,54 48,54 47,55 46,55 45,56 44,56 43,55 44,54 44,53 45,52 45,51 46,50 46,48 47,47 47,43 48,42 56,42 57,41 66,41 66,38 61,38 60,39 52,39 51,40 50,40 49,39 49,37 50,36 50,33 51,32 50,31" stroke="black" stroke-width="1" /><polygon fill="none" id="3" points="73,29 72,30 73,31 74,31 76,33 76,34 78,36 79,36 80,35 81,35 75,29" stroke="black" stroke-width="1" /></svg>