<?xml version="1.0" encoding="utf-8" ?>
<svg baseProfile="full" height="100" version="1.1" width="100" xmlns="http://www.w3.org/2000/svg" xmlns:ev="http://www.w3.org/2001/xml-events" xmlns:xlink="http://www.w3.org/1999/xlink"><defs /><polygon fill="none" id="1" points="75,32 73,34 74,34 79,39 79,40 81,40 82,39 82,38 76,32" stroke="black" stroke-width="1" /><polygon fill="none" id="2" points="51,31 51,35 50,36 50,39 49,40 41,40 40,39 36,39 36,42 48,42 49,43 49,44 48,45 48,47 47,48 47,49 46,50 46,52 45,53 45,54 44,55 44,56 43,57 43,59 44,60 45,60 46,61 49,58 50,58 51,57 52,57 53,56 54,56 55,55 57,55 58,54 61,54 62,53 70,53 71,54 73,54 76,57 76,62 73,65 72,65 71,66 70,66 69,67 66,67 65,68 59,68 58,69 50,69 53,72 54,71 63,71 64,70 68,70 69,69 71,69 72,68 74,68 75,67 76,67 78,65 78,64 79,63 79,62 80,61 80,57 79,56 79,55 77,53 76,53 75,52 73,52 72,51 61,51 60,52 57,52 56,53 54,53 53,54 52,54 51,55 50,55 49,56 48,56 47,55 48,54 48,53 49,52 49,51 50,50 50,49 51,48 51,46 52,45 52,43 53,42 61,42 62,41 72,41 72,38 66,38 65,39 56,39 55,40 54,40 53,39 53,38 54,37 54,34 56,32 55,32 54,31" stroke="black" stroke-width="1" /><polygon fill="none" id="3" points="80,29 79,30 81,32 82,32 83,33 83,34 85,36 87,36 88,35 88,34 87,33 86,33 82,29" stroke="black" stroke-width="1" /></svg>