<?xml version="1.0" encoding="utf-8" ?>
<svg baseProfile="full" height="100" version="1.1" width="100" xmlns="http://www.w3.org/2000/svg" xmlns:ev="http://www.w3.org/2001/xml-events" xmlns:xlink="http://www.w3.org/1999/xlink"><defs /><polygon fill="none" id="1" points="39,31 38,32 38,38 36,40 32,40 31,39 27,39 27,43 35,43 36,44 36,47 35,48 35,50 34,51 34,53 33,54 33,56 32,57 32,60 34,62 35,62 39,58 40,58 42,56 43,56 44,55 46,55 47,54 52,54 53,55 54,55 57,58 57,62 53,66 52,66 51,67 49,67 48,68 44,68 43,69 38,69 38,71 40,73 41,73 42,72 48,72 49,71 52,71 53,70 54,70 55,69 56,69 60,65 60,63 61,62 61,58 60,57 60,55 57,52 56,52 55,51 46,51 45,52 43,52 42,53 41,53 40,54 39,54 38,53 38,51 39,50 39,47 40,46 40,44 41,43 46,43 47,42 54,42 55,41 55,38 50,38 49,39 42,39 41,38 41,36 42,35 42,31" stroke="black" stroke-width="1" /><polygon fill="none" id="2" points="37,54 38,53 39,54 38,55" stroke="black" stroke-width="1" /><polygon fill="none" id="3" points="60,29 59,30 59,31 58,32 56,32 55,33 55,35 59,39 59,41 61,41 62,40 62,37 63,36 64,37 66,37 67,36 67,35 66,34 66,33 62,29" stroke="black" stroke-width="1" /><polygon fill="none" id="4" points="59,33 60,32 63,35 63,36 62,37 59,34" stroke="black" stroke-width="1" /><polygon fill="none" id="5" points="58,32 59,31 60,32 59,33" stroke="black" stroke-width="1" /></svg>