<?xml version="1.0" encoding="utf-8" ?>
<svg baseProfile="full" height="100" version="1.1" width="100" xmlns="http://www.w3.org/2000/svg" xmlns:ev="http://www.w3.org/2001/xml-events" xmlns:xlink="http://www.w3.org/1999/xlink"><defs /><polygon fill="none" id="1" points="43,31 43,33 42,34 42,39 41,40 36,40 35,39 30,39 30,43 39,43 40,44 40,47 39,48 39,50 38,51 38,53 37,54 37,56 36,57 36,58 35,59 35,60 36,60 38,62 39,62 42,59 43,59 45,57 46,57 47,56 48,56 49,55 52,55 53,54 58,54 59,55 60,55 63,58 63,62 59,66 58,66 57,67 55,67 54,68 49,68 48,69 42,69 42,70 43,71 43,72 44,73 45,73 46,72 54,72 55,71 58,71 59,70 60,70 61,69 62,69 63,68 64,68 66,66 66,65 67,64 67,56 66,55 66,54 64,52 62,52 61,51 51,51 50,52 47,52 46,53 45,53 44,54 43,54 42,53 42,51 43,50 43,48 44,47 44,44 45,43 52,43 53,42 61,42 61,38 55,38 54,39 47,39 46,38 46,35 47,34 47,32 46,31" stroke="black" stroke-width="1" /><polygon fill="none" id="2" points="41,54 42,53 43,54 42,55" stroke="black" stroke-width="1" /><polygon fill="none" id="3" points="45,39 46,38 47,39 46,40" stroke="black" stroke-width="1" /><polygon fill="none" id="4" points="67,29 66,30 66,31 69,34 69,35 68,36 64,32 63,32 61,34 61,35 62,35 64,37 64,38 66,40 66,41 68,41 69,40 69,37 70,36 71,37 73,37 74,36 74,34 69,29" stroke="black" stroke-width="1" /><polygon fill="none" id="5" points="68,36 69,35 70,36 69,37" stroke="black" stroke-width="1" /></svg>