<?xml version="1.0" encoding="utf-8" ?>
<svg baseProfile="full" height="100" version="1.1" width="100" xmlns="http://www.w3.org/2000/svg" xmlns:ev="http://www.w3.org/2001/xml-events" xmlns:xlink="http://www.w3.org/1999/xlink"><defs /><polygon fill="none" id="1" points="47,31 47,34 46,35 46,39 45,40 39,40 38,39 33,39 33,43 44,43 45,44 44,45 44,47 43,48 43,50 42,51 42,53 41,54 41,55 40,56 40,57 39,58 39,60 40,61 41,61 42,62 43,62 46,59 47,59 49,57 51,57 52,56 53,56 54,55 57,55 58,54 64,54 65,55 67,55 69,57 69,58 70,59 70,60 69,61 69,62 65,66 64,66 63,67 60,67 59,68 54,68 53,69 46,69 46,70 47,71 47,72 48,72 49,73 50,73 51,72 59,72 60,71 63,71 64,70 66,70 67,69 68,69 69,68 70,68 74,64 74,56 70,52 68,52 67,51 56,51 55,52 52,52 51,53 50,53 49,54 48,54 47,55 46,55 45,54 46,53 46,52 47,51 47,49 48,48 48,44 49,43 57,43 58,42 67,42 67,38 61,38 60,39 52,39 51,40 50,39 50,38 51,37 51,34 52,33 52,32 51,31" stroke="black" stroke-width="1" /><polygon fill="none" id="2" points="73,29 72,30 72,31 71,32 69,32 67,34 67,35 68,35 72,39 72,40 73,41 75,41 76,40 76,37 77,36 78,37 80,37 81,36 82,36 82,35 76,29" stroke="black" stroke-width="1" /><polygon fill="none" id="3" points="75,36 76,35 77,36 76,37" stroke="black" stroke-width="1" /><polygon fill="none" id="4" points="72,33 73,32 74,32 76,34 76,35 75,36" stroke="black" stroke-width="1" /><polygon fill="none" id="5" points="71,32 72,31 73,32 72,33" stroke="black" stroke-width="1" /></svg>