<?xml version="1.0" encoding="utf-8" ?>
<svg baseProfile="full" height="100" version="1.1" width="100" xmlns="http://www.w3.org/2000/svg" xmlns:ev="http://www.w3.org/2001/xml-events" xmlns:xlink="http://www.w3.org/1999/xlink"><defs /><polygon fill="none" id="1" points="75,32 73,34 73,35 74,35 79,40 79,41 82,41 83,40 83,38 77,32" stroke="black" stroke-width="1" /><polygon fill="none" id="2" points="51,31 51,35 50,36 50,39 49,40 42,40 41,39 36,39 36,43 48,43 49,44 48,45 48,47 47,48 47,49 46,50 46,52 45,53 45,54 44,55 44,56 43,57 43,60 44,61 45,61 46,62 47,62 50,59 51,59 52,58 53,58 54,57 55,57 56,56 58,56 59,55 62,55 63,54 70,54 71,55 73,55 76,58 76,62 73,65 72,65 71,66 70,66 69,67 66,67 65,68 59,68 58,69 50,69 50,70 53,73 54,73 55,72 64,72 65,71 69,71 70,70 72,70 73,69 75,69 76,68 77,68 79,66 79,65 80,64 80,63 81,62 81,57 80,56 80,55 78,53 77,53 76,52 74,52 73,51 61,51 60,52 57,52 56,53 54,53 53,54 52,54 51,55 50,55 49,54 50,53 50,52 51,51 51,50 52,49 52,47 53,46 53,44 54,43 62,43 63,42 73,42 73,38 66,38 65,39 56,39 55,38 55,35 57,33 57,32 56,32 55,31" stroke="black" stroke-width="1" /><polygon fill="none" id="3" points="54,39 55,38 56,39 55,40" stroke="black" stroke-width="1" /><polygon fill="none" id="4" points="80,29 79,30 79,31 81,33 82,33 83,34 83,35 85,37 88,37 89,36 89,34 88,33 87,33 83,29" stroke="black" stroke-width="1" /></svg>