<?xml version="1.0" encoding="utf-8" ?>
<svg baseProfile="full" height="100" version="1.1" width="100" xmlns="http://www.w3.org/2000/svg" xmlns:ev="http://www.w3.org/2001/xml-events" xmlns:xlink="http://www.w3.org/1999/xlink"><defs /><polygon fill="none" id="1" points="50,34 52,36 52,37 54,39 54,38 53,37 53,36 51,34" stroke="black" stroke-width="1" /><polygon fill="none" id="2" points="35,32 35,39 33,41 28,41 27,40 25,40 25,42 33,42 34,43 34,44 33,45 33,48 32,49 32,52 31,53 31,56 30,57 30,60 31,60 35,56 36,56 37,55 38,55 39,54 40,54 41,53 47,53 48,54 49,54 51,56 51,57 52,58 52,62 51,63 51,64 48,67 47,67 46,68 45,68 44,69 40,69 39,70 35,70 35,71 42,71 43,70 45,70 46,69 47,69 48,68 49,68 52,65 52,64 53,63 53,57 52,56 52,55 50,53 49,53 48,52 42,52 41,53 39,53 38,54 37,54 34,57 32,57 31,56 31,55 32,54 32,52 33,51 33,48 34,47 34,43 35,42 40,42 41,41 47,41 48,40 48,39 45,39 44,40 39,40 38,41 36,41 35,40 35,38 36,37 36,32" stroke="black" stroke-width="1" /><polygon fill="none" id="3" points="54,30 54,31 57,34 57,35 58,35 57,34 57,33" stroke="black" stroke-width="1" /></svg>