<?xml version="1.0" encoding="utf-8" ?>
<svg baseProfile="full" height="100" version="1.1" width="100" xmlns="http://www.w3.org/2000/svg" xmlns:ev="http://www.w3.org/2001/xml-events" xmlns:xlink="http://www.w3.org/1999/xlink"><defs /><polygon fill="none" id="1" points="57,33 56,34 60,38 60,40 61,39 61,38 58,35 58,34" stroke="black" stroke-width="1" /><polygon fill="none" id="2" points="40,32 39,33 39,39 37,41 31,41 30,40 28,40 28,42 37,42 38,43 38,44 37,45 37,48 36,49 36,51 35,52 35,54 34,55 34,57 33,58 33,59 34,60 35,60 38,57 39,57 41,55 42,55 43,54 45,54 46,53 53,53 54,54 55,54 58,57 58,63 54,67 53,67 52,68 50,68 49,69 45,69 44,70 39,70 40,71 47,71 48,70 51,70 52,69 53,69 54,68 55,68 59,64 59,62 60,61 60,59 59,58 59,56 56,53 55,53 54,52 47,52 46,53 44,53 43,54 42,54 41,55 40,55 38,57 36,57 35,56 35,55 36,54 36,53 37,52 37,50 38,49 38,46 39,45 39,43 40,42 45,42 46,41 53,41 54,40 54,39 51,39 50,40 43,40 42,41 41,41 40,40 40,35 41,34 41,32" stroke="black" stroke-width="1" /><polygon fill="none" id="3" points="61,30 61,31 64,34 64,35 65,36 65,34" stroke="black" stroke-width="1" /></svg>