<?xml version="1.0" encoding="utf-8" ?>
<svg baseProfile="full" height="100" version="1.1" width="100" xmlns="http://www.w3.org/2000/svg" xmlns:ev="http://www.w3.org/2001/xml-events" xmlns:xlink="http://www.w3.org/1999/xlink"><defs /><polygon fill="none" id="1" points="63,34 65,36 65,37 67,39 67,40 68,39 68,38 64,34" stroke="black" stroke-width="1" /><polygon fill="none" id="2" points="44,32 44,34 43,35 43,40 42,41 35,41 34,40 31,40 31,42 41,42 42,43 42,44 41,45 41,48 40,49 40,51 39,52 39,54 38,55 38,57 37,58 37,59 38,60 39,60 41,58 42,58 44,56 45,56 46,55 47,55 48,54 51,54 52,53 59,53 60,54 61,54 64,57 64,63 60,67 59,67 58,68 56,68 55,69 50,69 49,70 44,70 44,71 53,71 54,70 57,70 58,69 59,69 60,68 61,68 62,67 63,67 65,65 65,64 66,63 66,57 65,56 65,55 63,53 61,53 60,52 52,52 51,53 48,53 47,54 46,54 45,55 44,55 42,57 40,57 39,56 39,55 40,54 40,53 41,52 41,50 42,49 42,47 43,46 43,43 44,42 51,42 52,41 60,41 60,39 56,39 55,40 48,40 47,41 45,41 44,40 44,38 45,37 45,34 46,33 45,32" stroke="black" stroke-width="1" /><polygon fill="none" id="3" points="68,30 68,31 70,33 70,34 72,36 73,35" stroke="black" stroke-width="1" /></svg>