<?xml version="1.0" encoding="utf-8" ?>
<svg baseProfile="full" height="100" version="1.1" width="100" xmlns="http://www.w3.org/2000/svg" xmlns:ev="http://www.w3.org/2001/xml-events" xmlns:xlink="http://www.w3.org/1999/xlink"><defs /><polygon fill="none" id="1" points="70,33 69,34 73,38 73,39 74,40 75,39 75,38" stroke="black" stroke-width="1" /><polygon fill="none" id="2" points="48,32 48,35 47,36 47,40 46,41 38,41 37,40 34,40 34,42 45,42 46,43 46,45 45,46 45,48 44,49 44,51 43,52 43,54 42,55 42,56 41,57 41,58 40,59 41,60 43,60 45,58 46,58 48,56 50,56 51,55 52,55 53,54 56,54 57,53 65,53 66,54 68,54 70,56 70,57 71,58 71,61 70,62 70,63 66,67 65,67 64,68 61,68 60,69 55,69 54,70 48,70 48,71 58,71 59,70 62,70 63,69 65,69 66,68 67,68 68,67 69,67 73,63 73,57 69,53 67,53 66,52 57,52 56,53 53,53 52,54 51,54 50,55 49,55 48,56 47,56 46,57 44,57 43,56 43,55 44,54 44,53 45,52 45,51 46,50 46,48 47,47 47,43 48,42 56,42 57,41 66,41 66,39 62,39 61,40 53,40 52,41 50,41 49,40 49,37 50,36 50,32" stroke="black" stroke-width="1" /><polygon fill="none" id="3" points="74,30 74,31 75,31 77,33 77,34 79,36 80,35 75,30" stroke="black" stroke-width="1" /></svg>