<?xml version="1.0" encoding="utf-8" ?>
<svg baseProfile="full" height="100" version="1.1" width="100" xmlns="http://www.w3.org/2000/svg" xmlns:ev="http://www.w3.org/2001/xml-events" xmlns:xlink="http://www.w3.org/1999/xlink"><defs /><polygon fill="none" id="1" points="59,38 58,39 57,39 57,42 62,47 62,48 64,50 64,51 65,52 65,53 66,54 66,55 67,56 67,57 68,58 70,58 72,56 72,52 71,51 71,50 69,48 69,47 67,45 67,44 64,41 64,40 62,38" stroke="black" stroke-width="1" /><polygon fill="none" id="2" points="42,32 42,37 41,38 41,41 39,43 32,43 31,44 29,44 29,47 30,48 30,49 33,49 34,48 37,48 38,49 38,51 37,52 37,54 36,55 36,56 35,57 35,58 34,59 34,60 33,61 33,62 32,63 32,64 31,65 31,66 29,68 29,70 30,71 31,71 32,72 34,72 35,71 35,70 36,69 36,68 37,67 37,66 38,65 38,64 39,63 39,61 40,60 40,59 41,58 41,57 42,56 42,54 43,53 43,51 44,50 44,48 46,46 49,46 51,48 51,49 52,50 52,57 51,58 51,62 50,63 50,64 49,65 49,66 48,67 47,67 46,66 45,66 44,65 40,65 40,70 42,70 43,71 51,71 52,70 53,70 53,69 54,68 54,67 55,66 55,65 56,64 56,59 57,58 57,48 56,47 56,45 54,43 53,43 52,42 47,42 46,41 46,40 47,39 47,36 48,35 48,32" stroke="black" stroke-width="1" /><polygon fill="none" id="3" points="37,48 38,47 39,48 38,49" stroke="black" stroke-width="1" /></svg>