<?xml version="1.0" encoding="utf-8" ?>
<svg baseProfile="full" height="100" version="1.1" width="100" xmlns="http://www.w3.org/2000/svg" xmlns:ev="http://www.w3.org/2001/xml-events" xmlns:xlink="http://www.w3.org/1999/xlink"><defs /><polygon fill="none" id="1" points="76,33 75,34 80,39 80,40 81,40 82,39" stroke="black" stroke-width="1" /><polygon fill="none" id="2" points="52,32 52,36 51,37 51,40 50,41 41,41 40,40 37,40 37,42 49,42 50,43 50,45 49,46 49,48 48,49 48,50 47,51 47,53 46,54 46,55 45,56 45,57 44,58 44,59 45,60 47,60 49,58 50,58 51,57 52,57 53,56 54,56 55,55 57,55 58,54 61,54 62,53 71,53 72,54 74,54 77,57 77,63 74,66 73,66 72,67 71,67 70,68 67,68 66,69 60,69 59,70 52,70 53,71 63,71 64,70 68,70 69,69 71,69 72,68 74,68 75,67 76,67 78,65 78,64 79,63 79,62 80,61 80,58 79,57 79,56 77,54 76,54 75,53 73,53 72,52 62,52 61,53 58,53 57,54 55,54 54,55 53,55 52,56 51,56 50,57 48,57 47,56 47,55 48,54 48,53 49,52 49,51 50,50 50,49 51,48 51,46 52,45 52,43 53,42 61,42 62,41 72,41 72,39 67,39 66,40 57,40 56,41 54,41 53,40 53,38 54,37 54,34 55,33 54,32" stroke="black" stroke-width="1" /><polygon fill="none" id="3" points="81,30 81,31 82,32 83,32 84,33 84,34 86,36 87,36 88,35 87,34 86,34 82,30" stroke="black" stroke-width="1" /></svg>