<?xml version="1.0" encoding="utf-8" ?>
<svg baseProfile="full" height="100" version="1.1" width="100" xmlns="http://www.w3.org/2000/svg" xmlns:ev="http://www.w3.org/2001/xml-events" xmlns:xlink="http://www.w3.org/1999/xlink"><defs /><polygon fill="none" id="1" points="52,28 52,30 51,31 49,31 48,32 48,35 49,36 48,37 43,37 42,38 38,38 37,37 37,34 38,33 38,31 37,30 33,30 33,37 31,39 29,39 28,38 23,38 23,43 30,43 31,44 31,46 30,47 30,50 29,51 29,54 28,55 28,57 27,58 27,60 29,62 31,62 36,57 37,57 38,56 39,56 40,55 41,55 42,54 45,54 46,55 47,55 49,57 49,58 50,59 50,60 49,61 49,62 46,65 45,65 44,66 43,66 42,67 38,67 37,68 32,68 32,70 33,71 33,72 34,73 36,73 37,72 43,72 44,71 46,71 47,70 48,70 49,69 50,69 53,66 53,65 54,64 54,55 53,54 53,53 51,51 50,51 49,50 40,50 39,51 37,51 36,52 35,52 34,51 34,49 35,48 35,44 36,43 41,43 42,42 48,42 49,41 49,39 50,38 52,40 52,41 54,41 56,39 56,38 57,37 58,37 59,36 59,33 58,32 58,31 55,28" stroke="black" stroke-width="1" /></svg>