<?xml version="1.0" encoding="utf-8" ?>
<svg baseProfile="full" height="100" version="1.1" width="100" xmlns="http://www.w3.org/2000/svg" xmlns:ev="http://www.w3.org/2001/xml-events" xmlns:xlink="http://www.w3.org/1999/xlink"><defs /><polygon fill="none" id="1" points="59,28 58,29 58,30 57,31 55,31 54,32 54,35 55,36 54,37 49,37 48,38 42,38 41,37 41,36 42,35 42,30 38,30 37,31 37,37 35,39 32,39 31,38 26,38 26,43 34,43 35,44 35,46 34,47 34,49 33,50 33,52 32,53 32,55 31,56 31,60 33,62 35,62 39,58 40,58 42,56 43,56 44,55 46,55 47,54 51,54 52,55 53,55 56,58 56,61 52,65 51,65 50,66 48,66 47,67 43,67 42,68 37,68 37,71 39,73 41,73 42,72 48,72 49,71 52,71 53,70 54,70 55,69 56,69 60,65 60,63 61,62 61,57 60,56 60,54 57,51 56,51 55,50 45,50 44,51 42,51 41,52 40,52 39,53 38,52 38,51 39,50 39,47 40,46 40,44 41,43 46,43 47,42 54,42 55,41 55,38 56,37 58,39 58,41 61,41 62,40 62,38 63,37 66,37 67,36 67,34 66,33 66,32 62,28" stroke="black" stroke-width="1" /></svg>