<?xml version="1.0" encoding="utf-8" ?>
<svg baseProfile="full" height="100" version="1.1" width="100" xmlns="http://www.w3.org/2000/svg" xmlns:ev="http://www.w3.org/2001/xml-events" xmlns:xlink="http://www.w3.org/1999/xlink"><defs /><polygon fill="none" id="1" points="66,28 65,29 65,30 64,31 62,31 60,33 60,35 61,35 62,36 61,37 54,37 53,38 47,38 46,37 46,35 47,34 47,31 46,30 42,30 42,32 41,33 41,38 40,39 36,39 35,38 29,38 29,43 38,43 39,44 39,46 38,47 38,49 37,50 37,52 36,53 36,55 35,56 35,57 34,58 34,60 35,60 37,62 39,62 42,59 43,59 45,57 46,57 47,56 48,56 49,55 52,55 53,54 57,54 58,55 59,55 62,58 62,61 58,65 57,65 56,66 54,66 53,67 48,67 47,68 41,68 41,70 42,71 42,72 43,73 45,73 46,72 54,72 55,71 58,71 59,70 60,70 61,69 62,69 63,68 64,68 66,66 66,65 67,64 67,55 66,54 66,53 64,51 62,51 61,50 50,50 49,51 46,51 45,52 44,52 43,53 42,52 42,51 43,50 43,48 44,47 44,44 45,43 52,43 53,42 61,42 61,37 62,36 63,37 63,38 65,40 65,41 68,41 69,40 69,38 70,37 73,37 74,36 74,33 69,28" stroke="black" stroke-width="1" /></svg>