<?xml version="1.0" encoding="utf-8" ?>
<svg baseProfile="full" height="100" version="1.1" width="100" xmlns="http://www.w3.org/2000/svg" xmlns:ev="http://www.w3.org/2001/xml-events" xmlns:xlink="http://www.w3.org/1999/xlink"><defs /><polygon fill="none" id="1" points="72,28 71,29 71,30 70,31 68,31 66,33 66,35 67,35 68,36 67,37 60,37 59,38 52,38 51,37 51,34 52,33 52,31 51,30 46,30 46,33 45,34 45,38 44,39 39,39 38,38 32,38 32,43 42,43 43,44 43,46 42,47 42,49 41,50 41,52 40,53 40,54 39,55 39,56 38,57 38,60 39,61 40,61 41,62 43,62 46,59 47,59 49,57 51,57 52,56 53,56 54,55 57,55 58,54 63,54 64,55 66,55 68,57 68,58 69,59 68,60 68,61 64,65 63,65 62,66 59,66 58,67 53,67 52,68 45,68 45,70 46,71 46,72 47,72 48,73 50,73 51,72 59,72 60,71 63,71 64,70 66,70 67,69 68,69 69,68 70,68 74,64 74,55 70,51 68,51 67,50 55,50 54,51 51,51 50,52 49,52 48,53 47,53 46,52 47,51 47,49 48,48 48,44 49,43 57,43 58,42 67,42 67,37 68,36 71,39 71,40 72,41 75,41 76,40 76,38 77,37 80,37 81,36 82,36 82,34 76,28" stroke="black" stroke-width="1" /></svg>