<?xml version="1.0" encoding="utf-8" ?>
<svg baseProfile="full" height="100" version="1.1" width="100" xmlns="http://www.w3.org/2000/svg" xmlns:ev="http://www.w3.org/2001/xml-events" xmlns:xlink="http://www.w3.org/1999/xlink"><defs /><polygon fill="none" id="1" points="79,28 78,29 78,30 77,31 74,31 72,33 72,35 73,35 74,36 73,37 65,37 64,38 56,38 55,37 55,35 57,33 57,31 56,31 55,30 50,30 50,34 49,35 49,38 48,39 42,39 41,38 35,38 35,43 46,43 47,44 47,46 46,47 46,48 45,49 45,51 44,52 44,53 43,54 43,55 42,56 42,60 43,61 44,61 45,62 47,62 50,59 51,59 52,58 53,58 54,57 55,57 56,56 58,56 59,55 62,55 63,54 69,54 70,55 72,55 75,58 75,61 72,64 71,64 70,65 69,65 68,66 65,66 64,67 58,67 57,68 49,68 49,70 52,73 54,73 55,72 64,72 65,71 69,71 70,70 72,70 73,69 75,69 76,68 77,68 79,66 79,65 80,64 80,63 81,62 81,56 80,55 80,54 78,52 77,52 76,51 74,51 73,50 60,50 59,51 56,51 55,52 53,52 52,53 51,53 50,52 51,51 51,50 52,49 52,47 53,46 53,44 54,43 62,43 63,42 73,42 73,37 74,36 78,40 78,41 82,41 83,40 83,38 84,37 88,37 89,36 89,33 88,32 87,32 83,28" stroke="black" stroke-width="1" /><polygon fill="none" id="2" points="80,34 81,33 82,34 81,35" stroke="black" stroke-width="1" /></svg>