<?xml version="1.0" encoding="utf-8" ?>
<svg baseProfile="full" height="100" version="1.1" width="100" xmlns="http://www.w3.org/2000/svg" xmlns:ev="http://www.w3.org/2001/xml-events" xmlns:xlink="http://www.w3.org/1999/xlink"><defs /><polygon fill="none" id="1" points="30,57 30,59 32,57" stroke="black" stroke-width="1" /><polygon fill="none" id="2" points="37,54" stroke="black" stroke-width="1" /><polygon fill="none" id="3" points="39,53" stroke="black" stroke-width="1" /><polygon fill="none" id="4" points="31,53" stroke="black" stroke-width="1" /><polygon fill="none" id="5" points="42,52 47,52 48,53 49,53 51,55 51,56 52,57 52,62 51,63 51,64 48,67 47,67 46,68 45,68 44,69 40,69 39,70 35,70 41,70 42,69 44,69 45,68 46,68 47,67 48,67 51,64 51,63 52,62 52,57 51,56 51,55 49,53 48,53 47,52" stroke="black" stroke-width="1" /><polygon fill="none" id="6" points="32,49 32,50" stroke="black" stroke-width="1" /><polygon fill="none" id="7" points="33,45 33,46" stroke="black" stroke-width="1" /><polygon fill="none" id="8" points="45,39 44,40 39,40 38,41 35,41 34,40 33,41 27,41 26,40 25,40 25,41 39,41 40,40 46,40 47,39" stroke="black" stroke-width="1" /><polygon fill="none" id="9" points="52,36" stroke="black" stroke-width="1" /><polygon fill="none" id="10" points="35,32 35,36" stroke="black" stroke-width="1" /></svg>