<?xml version="1.0" encoding="utf-8" ?>
<svg baseProfile="full" height="100" version="1.1" width="100" xmlns="http://www.w3.org/2000/svg" xmlns:ev="http://www.w3.org/2001/xml-events" xmlns:xlink="http://www.w3.org/1999/xlink"><defs /><polygon fill="none" id="1" points="34,55 34,57 33,58 34,59 36,57 35,57 34,56" stroke="black" stroke-width="1" /><polygon fill="none" id="2" points="44,53" stroke="black" stroke-width="1" /><polygon fill="none" id="3" points="47,52 53,52 54,53 55,53 58,56 58,63 54,67 53,67 52,68 50,68 49,69 45,69 44,70 40,70 46,70 47,69 50,69 51,68 52,68 53,67 54,67 58,63 58,61 59,60 59,59 58,58 58,56 55,53 54,53 53,52" stroke="black" stroke-width="1" /><polygon fill="none" id="4" points="60,38" stroke="black" stroke-width="1" /><polygon fill="none" id="5" points="64,34" stroke="black" stroke-width="1" /><polygon fill="none" id="6" points="57,34" stroke="black" stroke-width="1" /><polygon fill="none" id="7" points="40,32 39,33 39,39 37,41 30,41 29,40 28,40 28,41 37,41 38,42 38,44 37,45 37,48 36,49 36,51 35,52 35,53 35,52 36,51 36,49 37,48 37,45 38,44 38,42 39,41 44,41 45,40 52,40 53,39 51,39 50,40 43,40 42,41 40,41 39,40 39,34 40,33" stroke="black" stroke-width="1" /></svg>