<?xml version="1.0" encoding="utf-8" ?>
<svg baseProfile="full" height="100" version="1.1" width="100" xmlns="http://www.w3.org/2000/svg" xmlns:ev="http://www.w3.org/2001/xml-events" xmlns:xlink="http://www.w3.org/1999/xlink"><defs /><polygon fill="none" id="1" points="44,55" stroke="black" stroke-width="1" /><polygon fill="none" id="2" points="38,55 38,57 37,58 38,59 40,57 41,57 39,57 38,56" stroke="black" stroke-width="1" /><polygon fill="none" id="3" points="46,54" stroke="black" stroke-width="1" /><polygon fill="none" id="4" points="48,53 50,53" stroke="black" stroke-width="1" /><polygon fill="none" id="5" points="52,52 59,52 60,53 61,53 64,56 64,63 60,67 59,67 58,68 56,68 55,69 50,69 49,70 44,70 52,70 53,69 56,69 57,68 58,68 59,67 60,67 61,66 62,66 64,64 64,63 65,62 65,57 64,56 64,55 62,53 60,53 59,52" stroke="black" stroke-width="1" /><polygon fill="none" id="6" points="65,36 67,38" stroke="black" stroke-width="1" /><polygon fill="none" id="7" points="70,33 71,34" stroke="black" stroke-width="1" /><polygon fill="none" id="8" points="44,32 44,34 43,35 43,40 42,41 34,41 33,40 31,40 31,41 41,41 42,42 42,44 41,45 41,48 40,49 40,51 39,52 39,53 39,52 40,51 40,49 41,48 41,46 42,45 42,42 43,41 50,41 51,40 59,40 59,39 56,39 55,40 48,40 47,41 44,41 43,40 43,37 44,36" stroke="black" stroke-width="1" /></svg>