<?xml version="1.0" encoding="utf-8" ?>
<svg baseProfile="full" height="100" version="1.1" width="100" xmlns="http://www.w3.org/2000/svg" xmlns:ev="http://www.w3.org/2001/xml-events" xmlns:xlink="http://www.w3.org/1999/xlink"><defs /><polygon fill="none" id="1" points="49,55" stroke="black" stroke-width="1" /><polygon fill="none" id="2" points="42,55 42,56 41,57 41,59 42,59 44,57 45,57 43,57 42,56" stroke="black" stroke-width="1" /><polygon fill="none" id="3" points="51,54" stroke="black" stroke-width="1" /><polygon fill="none" id="4" points="53,53 55,53" stroke="black" stroke-width="1" /><polygon fill="none" id="5" points="57,52 65,52 66,53 68,53 70,55 70,56 71,57 71,61 70,62 70,63 66,67 65,67 64,68 61,68 60,69 55,69 54,70 48,70 57,70 58,69 61,69 62,68 64,68 65,67 66,67 67,66 68,66 72,62 72,57 68,53 66,53 65,52" stroke="black" stroke-width="1" /><polygon fill="none" id="6" points="70,34 73,37 73,38 74,38" stroke="black" stroke-width="1" /><polygon fill="none" id="7" points="77,33 78,34" stroke="black" stroke-width="1" /><polygon fill="none" id="8" points="48,32 48,35 47,36 47,40 46,41 37,41 36,40 34,40 34,41 45,41 46,42 46,45 45,46 45,48 44,49 44,51 43,52 43,53 43,52 44,51 44,50 45,49 45,47 46,46 46,42 47,41 55,41 56,40 65,40 65,39 62,39 61,40 53,40 52,41 49,41 48,40 48,36 49,35 49,32" stroke="black" stroke-width="1" /><polygon fill="none" id="9" points="74,30" stroke="black" stroke-width="1" /></svg>