<?xml version="1.0" encoding="utf-8" ?>
<svg baseProfile="full" height="100" version="1.1" width="100" xmlns="http://www.w3.org/2000/svg" xmlns:ev="http://www.w3.org/2001/xml-events" xmlns:xlink="http://www.w3.org/1999/xlink"><defs /><polygon fill="none" id="1" points="65,38 64,39 63,39 63,42 69,48 69,49 72,52 72,53 73,54 73,55 74,56 74,57 75,58 77,58 79,56 80,56 80,53 78,51 78,50 76,48 76,47 74,45 74,44 68,38" stroke="black" stroke-width="1" /><polygon fill="none" id="2" points="47,32 46,33 46,38 45,39 45,42 44,43 36,43 35,44 32,44 32,47 33,48 33,49 36,49 37,48 41,48 42,49 42,51 41,52 41,53 40,54 40,55 39,56 39,57 38,58 38,59 37,60 37,61 36,62 36,63 34,65 34,66 32,68 32,70 33,70 35,72 37,72 39,70 39,69 40,68 40,67 42,65 42,64 43,63 43,61 44,60 44,59 45,58 45,57 46,56 46,54 47,53 47,52 48,51 48,48 50,46 54,46 56,48 56,49 57,50 57,58 56,59 56,62 55,63 55,64 52,67 51,67 50,66 49,66 48,65 44,65 44,70 46,70 47,71 56,71 57,70 58,70 59,69 59,68 60,67 60,66 61,65 61,63 62,62 62,57 63,56 63,49 62,48 62,46 59,43 58,43 57,42 52,42 51,41 51,39 52,38 52,36 53,35 53,32" stroke="black" stroke-width="1" /><polygon fill="none" id="3" points="41,48 42,47 43,48 42,49" stroke="black" stroke-width="1" /></svg>