<?xml version="1.0" encoding="utf-8" ?>
<svg baseProfile="full" height="100" version="1.1" width="100" xmlns="http://www.w3.org/2000/svg" xmlns:ev="http://www.w3.org/2001/xml-events" xmlns:xlink="http://www.w3.org/1999/xlink"><defs /><polygon fill="none" id="1" points="51,56" stroke="black" stroke-width="1" /><polygon fill="none" id="2" points="53,55" stroke="black" stroke-width="1" /><polygon fill="none" id="3" points="55,54 56,54" stroke="black" stroke-width="1" /><polygon fill="none" id="4" points="58,53 60,53" stroke="black" stroke-width="1" /><polygon fill="none" id="5" points="62,52 71,52 72,53 74,53 77,56 77,63 74,66 73,66 72,67 71,67 70,68 67,68 66,69 60,69 59,70 53,70 62,70 63,69 67,69 68,68 70,68 71,67 73,67 74,66 75,66 77,64 77,63 78,62 78,61 79,60 79,58 78,57 78,56 76,54 75,54 74,53 72,53 71,52" stroke="black" stroke-width="1" /><polygon fill="none" id="6" points="76,34 80,38 80,39 80,38" stroke="black" stroke-width="1" /><polygon fill="none" id="7" points="84,33 86,35 86,34 85,34" stroke="black" stroke-width="1" /><polygon fill="none" id="8" points="52,32 52,36 51,37 51,40 50,41 40,41 39,40 37,40 37,41 49,41 50,42 50,45 49,46 49,48 48,49 48,50 47,51 47,53 46,54 46,55 45,56 45,57 44,58 45,59 46,59 48,57 49,57 47,57 46,56 46,54 47,53 47,52 48,51 48,50 49,49 49,48 50,47 50,45 51,44 51,42 52,41 60,41 61,40 71,40 71,39 67,39 66,40 57,40 56,41 53,41 52,40 52,37 53,36 53,32" stroke="black" stroke-width="1" /><polygon fill="none" id="9" points="81,30 82,31" stroke="black" stroke-width="1" /></svg>