<?xml version="1.0" encoding="utf-8" ?>
<svg baseProfile="full" height="100" version="1.1" width="100" xmlns="http://www.w3.org/2000/svg" xmlns:ev="http://www.w3.org/2001/xml-events" xmlns:xlink="http://www.w3.org/1999/xlink"><defs /><polygon fill="none" id="1" points="52,41 51,42 45,42 44,43 40,43 39,44 35,44 34,45 32,45 33,46 33,47 34,48 35,48 36,47 39,47 40,46 42,46 43,45 47,45 48,44 53,44 54,43 63,43 64,44 65,44 66,45 67,45 69,47 69,48 70,49 70,51 71,52 71,54 70,55 70,57 64,63 62,63 61,64 60,64 59,65 55,65 54,66 44,66 45,67 45,68 46,69 46,70 47,70 48,69 55,69 56,68 59,68 60,67 62,67 63,66 65,66 66,65 67,65 70,62 71,62 72,61 72,60 73,59 73,58 74,57 74,49 73,48 73,47 69,43 68,43 67,42 65,42 64,41" stroke="black" stroke-width="1" /><polygon fill="none" id="2" points="68,33 66,35 67,35 71,39 71,40 72,41 73,41 74,40 74,39 73,38 73,37 70,34 69,34" stroke="black" stroke-width="1" /><polygon fill="none" id="3" points="73,30 72,31 72,32 77,37 77,38 78,37 79,37 80,36 74,30" stroke="black" stroke-width="1" /></svg>