<?xml version="1.0" encoding="utf-8" ?>
<svg baseProfile="full" height="100" version="1.1" width="100" xmlns="http://www.w3.org/2000/svg" xmlns:ev="http://www.w3.org/2001/xml-events" xmlns:xlink="http://www.w3.org/1999/xlink"><defs /><polygon fill="none" id="1" points="57,41 56,42 49,42 48,43 44,43 43,44 38,44 37,45 35,45 36,46 36,47 37,48 39,48 40,47 42,47 43,46 46,46 47,45 51,45 52,44 58,44 59,43 68,43 69,44 71,44 72,45 73,45 77,49 77,56 76,57 76,58 74,60 73,60 71,62 70,62 69,63 68,63 67,64 65,64 64,65 60,65 59,66 48,66 49,67 49,68 51,70 52,70 53,69 60,69 61,68 65,68 66,67 68,67 69,66 71,66 72,65 73,65 74,64 75,64 79,60 79,59 81,57 81,49 79,47 79,46 77,44 76,44 75,43 74,43 73,42 71,42 70,41" stroke="black" stroke-width="1" /><polygon fill="none" id="2" points="74,33 72,35 73,35 78,40 78,41 79,41 80,40 81,40 81,39 75,33" stroke="black" stroke-width="1" /><polygon fill="none" id="3" points="80,30 79,31 78,31 78,32 79,32 84,37 84,38 85,37 86,37 87,36 81,30" stroke="black" stroke-width="1" /></svg>