<?xml version="1.0" encoding="utf-8" ?>
<svg baseProfile="full" height="100" version="1.1" width="100" xmlns="http://www.w3.org/2000/svg" xmlns:ev="http://www.w3.org/2001/xml-events" xmlns:xlink="http://www.w3.org/1999/xlink"><defs /><polygon fill="none" id="1" points="38,41 37,42 33,42 32,43 29,43 28,44 25,44 24,45 23,45 24,46 24,47 25,48 26,48 27,47 28,47 29,46 31,46 32,45 34,45 35,44 38,44 39,43 45,43 46,44 47,44 50,47 50,48 51,49 51,57 50,58 50,59 46,63 45,63 44,64 43,64 42,65 40,65 39,66 32,66 32,67 33,68 33,69 34,70 35,70 36,69 40,69 41,68 43,68 44,67 45,67 46,66 47,66 52,61 52,60 53,59 53,57 54,56 54,50 53,49 53,47 52,46 52,45 50,43 49,43 48,42 47,42 46,41" stroke="black" stroke-width="1" /><polygon fill="none" id="2" points="49,33 48,34 48,35 51,38 51,39 52,40 52,41 53,41 54,40 54,39 52,37 52,36 50,34 50,33" stroke="black" stroke-width="1" /><polygon fill="none" id="3" points="53,30 52,31 52,32 55,35 55,36 56,37 56,38 58,36 56,34 56,33 54,31 54,30" stroke="black" stroke-width="1" /></svg>