<?xml version="1.0" encoding="utf-8" ?>
<svg baseProfile="full" height="100" version="1.1" width="100" xmlns="http://www.w3.org/2000/svg" xmlns:ev="http://www.w3.org/2001/xml-events" xmlns:xlink="http://www.w3.org/1999/xlink"><defs /><polygon fill="none" id="1" points="42,41 41,42 37,42 36,43 33,43 32,44 28,44 27,45 26,45 27,46 27,47 28,48 29,48 30,47 31,47 32,46 34,46 35,45 38,45 39,44 43,44 44,43 51,43 52,44 53,44 57,48 57,49 58,50 58,55 57,56 57,58 52,63 51,63 50,64 49,64 48,65 45,65 44,66 36,66 36,67 37,68 37,69 38,70 39,70 40,69 45,69 46,68 48,68 49,67 51,67 52,66 53,66 55,64 56,64 58,62 58,61 59,60 59,59 60,58 60,55 61,54 61,52 60,51 60,48 59,47 59,46 55,42 53,42 52,41" stroke="black" stroke-width="1" /><polygon fill="none" id="2" points="56,33 55,34 54,34 54,35 58,39 58,40 59,41 61,39 58,36 58,35" stroke="black" stroke-width="1" /><polygon fill="none" id="3" points="60,30 59,31 59,32 62,35 62,36 63,37 63,38 65,36 64,35 64,34" stroke="black" stroke-width="1" /></svg>