<?xml version="1.0" encoding="utf-8" ?>
<svg baseProfile="full" height="100" version="1.1" width="100" xmlns="http://www.w3.org/2000/svg" xmlns:ev="http://www.w3.org/2001/xml-events" xmlns:xlink="http://www.w3.org/1999/xlink"><defs /><polygon fill="none" id="1" points="47,41 46,42 41,42 40,43 36,43 35,44 31,44 30,45 29,45 30,46 30,47 31,48 32,48 33,47 35,47 36,46 38,46 39,45 42,45 43,44 48,44 49,43 57,43 58,44 59,44 60,45 61,45 62,46 62,47 64,49 64,56 63,57 63,58 58,63 57,63 56,64 54,64 53,65 50,65 49,66 40,66 40,67 42,69 42,70 43,70 44,69 50,69 51,68 54,68 55,67 57,67 58,66 59,66 61,64 62,64 66,60 66,59 67,58 67,48 65,46 65,45 64,44 63,44 61,42 59,42 58,41" stroke="black" stroke-width="1" /><polygon fill="none" id="2" points="62,33 60,35 61,35 63,37 63,38 65,40 65,41 66,41 67,40 67,38" stroke="black" stroke-width="1" /><polygon fill="none" id="3" points="66,30 65,31 65,32 66,32 68,34 68,35 70,37 70,38 71,37 72,37 72,35 67,30" stroke="black" stroke-width="1" /></svg>