<?xml version="1.0" encoding="utf-8" ?>
<svg baseProfile="full" height="100" version="1.1" width="100" xmlns="http://www.w3.org/2000/svg" xmlns:ev="http://www.w3.org/2001/xml-events" xmlns:xlink="http://www.w3.org/1999/xlink"><defs /><polygon fill="none" id="1" points="53,30 52,31 52,32 51,33 49,33 48,34 48,36 51,39 51,40 52,41 52,42 51,43 50,43 49,42 48,42 47,41 38,41 37,42 33,42 32,43 29,43 28,44 25,44 24,45 23,45 23,46 24,47 24,48 25,49 27,49 28,48 29,48 30,47 32,47 33,46 35,46 36,45 39,45 40,44 45,44 46,45 47,45 50,48 50,49 51,50 51,57 50,58 50,59 46,63 45,63 44,64 43,64 42,65 40,65 39,66 32,66 32,68 33,69 33,70 34,71 36,71 37,70 41,70 42,69 44,69 45,68 46,68 47,67 48,67 53,62 53,61 54,60 54,58 55,57 55,50 54,49 54,47 53,46 53,45 51,43 52,42 54,42 55,41 55,40 56,39 57,39 59,37 59,36 57,34 57,33 55,31 55,30" stroke="black" stroke-width="1" /><polygon fill="none" id="2" points="54,38 55,37 56,38 55,39" stroke="black" stroke-width="1" /><polygon fill="none" id="3" points="53,36 54,35 55,36 55,37 54,38 53,37" stroke="black" stroke-width="1" /><polygon fill="none" id="4" points="52,35 53,34 54,35 53,36" stroke="black" stroke-width="1" /><polygon fill="none" id="5" points="51,34 52,33 53,34 52,35" stroke="black" stroke-width="1" /></svg>