<?xml version="1.0" encoding="utf-8" ?>
<svg baseProfile="full" height="100" version="1.1" width="100" xmlns="http://www.w3.org/2000/svg" xmlns:ev="http://www.w3.org/2001/xml-events" xmlns:xlink="http://www.w3.org/1999/xlink"><defs /><polygon fill="none" id="1" points="42,41 41,42 37,42 36,43 33,43 32,44 28,44 27,45 26,45 26,46 27,47 27,48 28,49 30,49 31,48 32,48 33,47 35,47 36,46 39,46 40,45 44,45 45,44 51,44 52,45 53,45 57,49 57,50 58,51 58,55 57,56 57,58 52,63 51,63 50,64 49,64 48,65 45,65 44,66 36,66 36,68 37,69 37,70 38,71 40,71 41,70 46,70 47,69 49,69 50,68 52,68 53,67 54,67 56,65 57,65 59,63 59,62 60,61 60,60 61,59 61,56 62,55 62,52 61,51 61,48 60,47 60,46 56,42 54,42 53,41" stroke="black" stroke-width="1" /><polygon fill="none" id="2" points="60,30 59,31 59,33 58,34 57,33 56,33 55,34 54,34 54,36 58,40 58,41 59,42 60,42 63,39 64,39 66,37 66,36 65,35 65,34 61,30" stroke="black" stroke-width="1" /><polygon fill="none" id="3" points="61,38 62,37 63,38 62,39" stroke="black" stroke-width="1" /><polygon fill="none" id="4" points="59,35 60,34 62,36 62,37 61,38 59,36" stroke="black" stroke-width="1" /><polygon fill="none" id="5" points="58,34 59,33 60,34 59,35" stroke="black" stroke-width="1" /></svg>