<?xml version="1.0" encoding="utf-8" ?>
<svg baseProfile="full" height="100" version="1.1" width="100" xmlns="http://www.w3.org/2000/svg" xmlns:ev="http://www.w3.org/2001/xml-events" xmlns:xlink="http://www.w3.org/1999/xlink"><defs /><polygon fill="none" id="1" points="47,41 46,42 41,42 40,43 36,43 35,44 31,44 30,45 29,45 29,46 30,47 30,48 31,49 33,49 34,48 36,48 37,47 39,47 40,46 43,46 44,45 49,45 50,44 57,44 58,45 59,45 60,46 61,46 62,47 62,48 64,50 64,56 63,57 63,58 58,63 57,63 56,64 54,64 53,65 50,65 49,66 40,66 40,68 42,70 42,71 44,71 45,70 51,70 52,69 55,69 56,68 58,68 59,67 60,67 62,65 63,65 67,61 67,60 68,59 68,48 66,46 66,45 65,44 64,44 62,42 60,42 59,41" stroke="black" stroke-width="1" /><polygon fill="none" id="2" points="66,30 65,31 65,33 64,34 63,33 62,33 60,35 60,36 61,36 63,38 63,39 65,41 65,42 67,42 68,41 68,38 69,37 70,38 70,39 71,39 72,38 73,38 73,35 68,30" stroke="black" stroke-width="1" /><polygon fill="none" id="3" points="67,37 68,36 69,37 68,38" stroke="black" stroke-width="1" /><polygon fill="none" id="4" points="64,34 65,33 66,33 68,35 68,36 67,37" stroke="black" stroke-width="1" /></svg>