<?xml version="1.0" encoding="utf-8" ?>
<svg baseProfile="full" height="100" version="1.1" width="100" xmlns="http://www.w3.org/2000/svg" xmlns:ev="http://www.w3.org/2001/xml-events" xmlns:xlink="http://www.w3.org/1999/xlink"><defs /><polygon fill="none" id="1" points="52,41 51,42 45,42 44,43 40,43 39,44 35,44 34,45 32,45 32,46 33,47 33,48 34,49 36,49 37,48 40,48 41,47 43,47 44,46 48,46 49,45 54,45 55,44 63,44 64,45 65,45 66,46 67,46 69,48 69,49 70,50 70,52 71,53 71,54 70,55 70,57 64,63 62,63 61,64 60,64 59,65 55,65 54,66 44,66 44,67 45,68 45,69 46,70 46,71 48,71 49,70 56,70 57,69 60,69 61,68 63,68 64,67 66,67 67,66 68,66 71,63 72,63 73,62 73,61 74,60 74,59 75,58 75,49 74,48 74,47 70,43 69,43 68,42 66,42 65,41" stroke="black" stroke-width="1" /><polygon fill="none" id="2" points="73,30 72,31 72,33 71,34 70,34 69,33 68,33 66,35 66,36 67,36 71,40 71,41 72,42 74,42 75,41 75,39 74,38 74,37 75,36 77,38 77,39 78,39 79,38 80,38 81,37 81,36 75,30" stroke="black" stroke-width="1" /><polygon fill="none" id="3" points="73,36 74,35 75,36 74,37" stroke="black" stroke-width="1" /><polygon fill="none" id="4" points="72,35 73,34 74,35 73,36" stroke="black" stroke-width="1" /><polygon fill="none" id="5" points="71,34 72,33 73,34 72,35" stroke="black" stroke-width="1" /></svg>