<?xml version="1.0" encoding="utf-8" ?>
<svg baseProfile="full" height="100" version="1.1" width="100" xmlns="http://www.w3.org/2000/svg" xmlns:ev="http://www.w3.org/2001/xml-events" xmlns:xlink="http://www.w3.org/1999/xlink"><defs /><polygon fill="none" id="1" points="57,41 56,42 49,42 48,43 44,43 43,44 38,44 37,45 35,45 35,46 36,47 36,48 37,49 40,49 41,48 43,48 44,47 47,47 48,46 52,46 53,45 59,45 60,44 68,44 69,45 71,45 72,46 73,46 77,50 77,56 76,57 76,58 74,60 73,60 71,62 70,62 69,63 68,63 67,64 65,64 64,65 60,65 59,66 48,66 48,67 49,68 49,69 51,71 53,71 54,70 61,70 62,69 66,69 67,68 69,68 70,67 72,67 73,66 74,66 75,65 76,65 80,61 80,60 82,58 82,49 80,47 80,46 78,44 77,44 76,43 75,43 74,42 72,42 71,41" stroke="black" stroke-width="1" /><polygon fill="none" id="2" points="80,30 79,31 78,31 78,33 77,34 76,33 74,33 72,35 72,36 73,36 78,41 78,42 80,42 81,41 82,41 82,39 77,34 78,33 79,33 84,38 84,39 85,39 86,38 87,38 88,37 88,36 82,30" stroke="black" stroke-width="1" /></svg>