<?xml version="1.0" encoding="utf-8" ?>
<svg baseProfile="full" height="100" version="1.1" width="100" xmlns="http://www.w3.org/2000/svg" xmlns:ev="http://www.w3.org/2001/xml-events" xmlns:xlink="http://www.w3.org/1999/xlink"><defs /><polygon fill="none" id="1" points="39,42 38,43 34,43 33,44 30,44 29,45 26,45 25,46 25,47 26,48 27,47 28,47 29,46 31,46 32,45 34,45 35,44 38,44 39,43 46,43 47,44 48,44 51,47 51,48 52,49 52,58 51,59 51,60 47,64 46,64 45,65 44,65 43,66 41,66 40,67 33,67 34,68 34,69 35,70 36,69 40,69 41,68 43,68 44,67 45,67 46,66 47,66 52,61 52,60 53,59 53,57 54,56 54,51 53,50 53,48 52,47 52,46 50,44 49,44 48,43 47,43 46,42" stroke="black" stroke-width="1" /><polygon fill="none" id="2" points="50,34 49,35 52,38 52,39 53,40 53,41 54,40 52,38 52,37 50,35" stroke="black" stroke-width="1" /><polygon fill="none" id="3" points="54,31 53,32 56,35 56,36 57,37 57,36 56,35 56,34 54,32" stroke="black" stroke-width="1" /></svg>