<?xml version="1.0" encoding="utf-8" ?>
<svg baseProfile="full" height="100" version="1.1" width="100" xmlns="http://www.w3.org/2000/svg" xmlns:ev="http://www.w3.org/2001/xml-events" xmlns:xlink="http://www.w3.org/1999/xlink"><defs /><polygon fill="none" id="1" points="43,42 42,43 38,43 37,44 34,44 33,45 29,45 28,46 28,47 29,48 30,47 31,47 32,46 34,46 35,45 38,45 39,44 43,44 44,43 52,43 53,44 54,44 58,48 58,49 59,50 59,56 58,57 58,59 53,64 52,64 51,65 50,65 49,66 46,66 45,67 37,67 38,68 38,69 39,70 40,69 45,69 46,68 48,68 49,67 51,67 52,66 53,66 55,64 56,64 58,62 58,61 59,60 59,59 60,58 60,55 61,54 61,53 60,52 60,49 59,48 59,47 55,43 53,43 52,42" stroke="black" stroke-width="1" /><polygon fill="none" id="2" points="55,35 59,39 59,40 60,40 60,39 58,37 58,36 57,35" stroke="black" stroke-width="1" /><polygon fill="none" id="3" points="60,32 63,35 63,36 64,37 64,35 61,32" stroke="black" stroke-width="1" /></svg>