<?xml version="1.0" encoding="utf-8" ?>
<svg baseProfile="full" height="100" version="1.1" width="100" xmlns="http://www.w3.org/2000/svg" xmlns:ev="http://www.w3.org/2001/xml-events" xmlns:xlink="http://www.w3.org/1999/xlink"><defs /><polygon fill="none" id="1" points="48,42 47,43 42,43 41,44 37,44 36,45 32,45 31,46 31,47 32,48 33,47 35,47 36,46 38,46 39,45 42,45 43,44 48,44 49,43 58,43 59,44 60,44 61,45 62,45 63,46 63,47 65,49 65,57 64,58 64,59 59,64 58,64 57,65 55,65 54,66 51,66 50,67 41,67 43,69 43,70 44,69 50,69 51,68 54,68 55,67 57,67 58,66 59,66 61,64 62,64 66,60 66,59 67,58 67,49 65,47 65,46 64,45 63,45 61,43 59,43 58,42" stroke="black" stroke-width="1" /><polygon fill="none" id="2" points="62,35 64,37 64,38 66,40 66,41 67,40 67,39 63,35" stroke="black" stroke-width="1" /><polygon fill="none" id="3" points="67,31 66,32 67,32 69,34 69,35 71,37 72,37 72,36" stroke="black" stroke-width="1" /></svg>