<?xml version="1.0" encoding="utf-8" ?>
<svg baseProfile="full" height="100" version="1.1" width="100" xmlns="http://www.w3.org/2000/svg" xmlns:ev="http://www.w3.org/2001/xml-events" xmlns:xlink="http://www.w3.org/1999/xlink"><defs /><polygon fill="none" id="1" points="53,42 52,43 46,43 45,44 41,44 40,45 36,45 35,46 34,46 34,47 35,48 36,47 39,47 40,46 42,46 43,45 47,45 48,44 53,44 54,43 64,43 65,44 66,44 67,45 68,45 70,47 70,48 71,49 71,51 72,52 72,55 71,56 71,58 65,64 63,64 62,65 61,65 60,66 56,66 55,67 46,67 46,68 47,69 47,70 48,69 55,69 56,68 59,68 60,67 62,67 63,66 65,66 66,65 67,65 70,62 71,62 72,61 72,60 73,59 73,58 74,57 74,50 73,49 73,48 69,44 68,44 67,43 65,43 64,42" stroke="black" stroke-width="1" /><polygon fill="none" id="2" points="68,35 72,39 72,40 73,41 74,40 73,39 73,38 70,35" stroke="black" stroke-width="1" /><polygon fill="none" id="3" points="74,31 73,32 78,37 79,37 79,36" stroke="black" stroke-width="1" /></svg>