<?xml version="1.0" encoding="utf-8" ?>
<svg baseProfile="full" height="100" version="1.1" width="100" xmlns="http://www.w3.org/2000/svg" xmlns:ev="http://www.w3.org/2001/xml-events" xmlns:xlink="http://www.w3.org/1999/xlink"><defs /><polygon fill="none" id="1" points="58,42 57,43 50,43 49,44 45,44 44,45 39,45 38,46 37,46 37,47 38,48 39,48 40,47 42,47 43,46 46,46 47,45 51,45 52,44 58,44 59,43 69,43 70,44 72,44 73,45 74,45 78,49 78,57 77,58 77,59 75,61 74,61 72,63 71,63 70,64 69,64 68,65 66,65 65,66 61,66 60,67 50,67 50,68 52,70 53,69 60,69 61,68 65,68 66,67 68,67 69,66 71,66 72,65 73,65 74,64 75,64 79,60 79,59 81,57 81,50 79,48 79,47 77,45 76,45 75,44 74,44 73,43 71,43 70,42" stroke="black" stroke-width="1" /><polygon fill="none" id="2" points="75,34 74,35 79,40 79,41 80,40 81,40" stroke="black" stroke-width="1" /><polygon fill="none" id="3" points="81,31 80,32 79,32 80,32 85,37 86,37 86,36" stroke="black" stroke-width="1" /></svg>