<?xml version="1.0" encoding="utf-8" ?>
<svg baseProfile="full" height="100" version="1.1" width="100" xmlns="http://www.w3.org/2000/svg" xmlns:ev="http://www.w3.org/2001/xml-events" xmlns:xlink="http://www.w3.org/1999/xlink"><defs /><polygon fill="none" id="1" points="52,29 51,30 51,31 50,32 48,32 47,33 47,36 50,39 50,40 49,41 48,41 47,40 37,40 36,41 32,41 31,42 28,42 27,43 24,43 23,44 22,44 22,46 23,47 23,48 24,49 27,49 28,48 29,48 30,47 32,47 33,46 35,46 36,45 39,45 40,44 44,44 45,45 46,45 49,48 49,49 50,50 50,56 49,57 49,58 45,62 44,62 43,63 42,63 41,64 39,64 38,65 31,65 31,68 32,69 32,70 33,71 36,71 37,70 41,70 42,69 44,69 45,68 46,68 47,67 48,67 53,62 53,61 54,60 54,58 55,57 55,49 54,48 54,46 53,45 53,44 52,43 53,42 54,42 55,41 55,40 56,39 57,39 59,37 59,35 57,33 57,32 55,30 55,29" stroke="black" stroke-width="1" /><polygon fill="none" id="2" points="49,41 50,40 51,41 50,42" stroke="black" stroke-width="1" /></svg>