<?xml version="1.0" encoding="utf-8" ?>
<svg baseProfile="full" height="100" version="1.1" width="100" xmlns="http://www.w3.org/2000/svg" xmlns:ev="http://www.w3.org/2001/xml-events" xmlns:xlink="http://www.w3.org/1999/xlink"><defs /><polygon fill="none" id="1" points="59,29 58,30 58,31 57,32 55,32 54,33 53,33 53,36 57,40 56,41 54,41 53,40 41,40 40,41 36,41 35,42 32,42 31,43 27,43 26,44 25,44 25,46 26,47 26,48 27,49 30,49 31,48 32,48 33,47 35,47 36,46 39,46 40,45 44,45 45,44 50,44 51,45 52,45 56,49 56,50 57,51 57,54 56,55 56,57 51,62 50,62 49,63 48,63 47,64 44,64 43,65 35,65 35,68 36,69 36,70 37,71 40,71 41,70 46,70 47,69 49,69 50,68 52,68 53,67 54,67 56,65 57,65 59,63 59,62 60,61 60,60 61,59 61,56 62,55 62,51 61,50 61,47 60,46 60,45 58,43 59,42 60,42 63,39 64,39 66,37 66,35 65,34 65,33 61,29" stroke="black" stroke-width="1" /></svg>