<?xml version="1.0" encoding="utf-8" ?>
<svg baseProfile="full" height="100" version="1.1" width="100" xmlns="http://www.w3.org/2000/svg" xmlns:ev="http://www.w3.org/2001/xml-events" xmlns:xlink="http://www.w3.org/1999/xlink"><defs /><polygon fill="none" id="1" points="65,29 64,30 64,31 63,32 61,32 59,34 59,36 60,36 62,38 62,39 63,40 62,41 60,41 59,40 46,40 45,41 40,41 39,42 35,42 34,43 30,43 29,44 28,44 28,46 29,47 29,48 30,49 33,49 34,48 36,48 37,47 39,47 40,46 43,46 44,45 49,45 50,44 56,44 57,45 58,45 59,46 60,46 61,47 61,48 63,50 63,55 62,56 62,57 57,62 56,62 55,63 53,63 52,64 49,64 48,65 39,65 39,68 41,70 41,71 44,71 45,70 51,70 52,69 55,69 56,68 58,68 59,67 60,67 62,65 63,65 67,61 67,60 68,59 68,47 66,45 66,44 65,43 66,42 67,42 68,41 68,40 69,39 71,39 72,38 73,38 73,34 68,29" stroke="black" stroke-width="1" /><polygon fill="none" id="2" points="62,41 63,40 64,41 63,42" stroke="black" stroke-width="1" /></svg>