<?xml version="1.0" encoding="utf-8" ?>
<svg baseProfile="full" height="100" version="1.1" width="100" xmlns="http://www.w3.org/2000/svg" xmlns:ev="http://www.w3.org/2001/xml-events" xmlns:xlink="http://www.w3.org/1999/xlink"><defs /><polygon fill="none" id="1" points="72,29 71,30 71,32 70,33 69,32 67,32 65,34 65,36 66,36 70,40 70,41 69,42 68,41 66,41 65,40 51,40 50,41 44,41 43,42 39,42 38,43 34,43 33,44 31,44 31,46 32,47 32,48 33,49 36,49 37,48 40,48 41,47 43,47 44,46 48,46 49,45 54,45 55,44 62,44 63,45 64,45 65,46 66,46 68,48 68,49 69,50 69,52 70,53 69,54 69,56 63,62 61,62 60,63 59,63 58,64 54,64 53,65 43,65 43,67 44,68 44,69 45,70 45,71 48,71 49,70 56,70 57,69 60,69 61,68 63,68 64,67 66,67 67,66 68,66 71,63 72,63 73,62 73,61 74,60 74,59 75,58 75,48 74,47 74,46 71,43 72,42 74,42 75,41 75,40 76,39 78,39 79,38 80,38 81,37 81,35 75,29" stroke="black" stroke-width="1" /></svg>