<?xml version="1.0" encoding="utf-8" ?>
<svg baseProfile="full" height="100" version="1.1" width="100" xmlns="http://www.w3.org/2000/svg" xmlns:ev="http://www.w3.org/2001/xml-events" xmlns:xlink="http://www.w3.org/1999/xlink"><defs /><polygon fill="none" id="1" points="79,29 78,30 77,30 77,31 76,32 73,32 71,34 71,36 72,36 77,41 76,42 75,42 74,41 72,41 71,40 56,40 55,41 48,41 47,42 43,42 42,43 37,43 36,44 34,44 34,46 35,47 35,48 36,49 40,49 41,48 43,48 44,47 47,47 48,46 52,46 53,45 59,45 60,44 67,44 68,45 70,45 71,46 72,46 76,50 76,55 75,56 75,57 73,59 72,59 70,61 69,61 68,62 67,62 66,63 64,63 63,64 59,64 58,65 47,65 47,67 48,68 48,69 50,71 53,71 54,70 61,70 62,69 66,69 67,68 69,68 70,67 72,67 73,66 74,66 75,65 76,65 80,61 80,60 82,58 82,48 80,46 80,45 78,43 79,42 80,42 81,41 82,41 82,40 83,39 85,39 86,38 87,38 88,37 88,35 82,29" stroke="black" stroke-width="1" /></svg>