<?xml version="1.0" encoding="utf-8" ?>
<svg baseProfile="full" height="100" version="1.1" width="100" xmlns="http://www.w3.org/2000/svg" xmlns:ev="http://www.w3.org/2001/xml-events" xmlns:xlink="http://www.w3.org/1999/xlink"><defs /><polygon fill="none" id="1" points="49,44 51,46 51,47 52,48 52,58 51,59 51,60 47,64 46,64 45,65 44,65 43,66 41,66 40,67 34,67 34,68 39,68 40,67 42,67 43,66 44,66 45,65 46,65 51,60 51,59 52,58 52,56 53,55 53,51 52,50 52,48 51,47 51,46" stroke="black" stroke-width="1" /><polygon fill="none" id="2" points="47,43" stroke="black" stroke-width="1" /><polygon fill="none" id="3" points="34,43 33,44 30,44 29,45 26,45 25,46 27,46 28,45 30,45 31,44 33,44 34,43 37,43" stroke="black" stroke-width="1" /><polygon fill="none" id="4" points="39,42 45,42" stroke="black" stroke-width="1" /></svg>