<?xml version="1.0" encoding="utf-8" ?>
<svg baseProfile="full" height="100" version="1.1" width="100" xmlns="http://www.w3.org/2000/svg" xmlns:ev="http://www.w3.org/2001/xml-events" xmlns:xlink="http://www.w3.org/1999/xlink"><defs /><polygon fill="none" id="1" points="53,43 54,43 58,47 58,48 59,49 59,56 58,57 58,59 53,64 52,64 51,65 50,65 49,66 46,66 45,67 38,67 38,68 44,68 45,67 47,67 48,66 50,66 51,65 52,65 54,63 55,63 57,61 57,60 58,59 58,58 59,57 59,54 60,53 59,52 59,49 58,48 58,47 54,43" stroke="black" stroke-width="1" /><polygon fill="none" id="2" points="43,42 42,43 38,43 37,44 34,44 33,45 29,45 28,46 30,46 31,45 33,45 34,44 37,44 38,43 42,43 43,42 51,42" stroke="black" stroke-width="1" /><polygon fill="none" id="3" points="59,39" stroke="black" stroke-width="1" /><polygon fill="none" id="4" points="63,35" stroke="black" stroke-width="1" /><polygon fill="none" id="5" points="56,35 57,36" stroke="black" stroke-width="1" /></svg>