<?xml version="1.0" encoding="utf-8" ?>
<svg baseProfile="full" height="100" version="1.1" width="100" xmlns="http://www.w3.org/2000/svg" xmlns:ev="http://www.w3.org/2001/xml-events" xmlns:xlink="http://www.w3.org/1999/xlink"><defs /><polygon fill="none" id="1" points="63,45 63,46 65,48 65,57 64,58 64,59 59,64 58,64 57,65 55,65 54,66 51,66 50,67 42,67 43,68 49,68 50,67 53,67 54,66 56,66 57,65 58,65 60,63 61,63 65,59 65,58 66,57 66,49 64,47 64,46" stroke="black" stroke-width="1" /><polygon fill="none" id="2" points="59,43 60,43 61,44 60,43" stroke="black" stroke-width="1" /><polygon fill="none" id="3" points="48,42 47,43 42,43 41,44 37,44 36,45 32,45 31,46 34,46 35,45 37,45 38,44 41,44 42,43 47,43 48,42 57,42" stroke="black" stroke-width="1" /><polygon fill="none" id="4" points="64,37 66,39" stroke="black" stroke-width="1" /><polygon fill="none" id="5" points="69,34 71,36" stroke="black" stroke-width="1" /></svg>