<?xml version="1.0" encoding="utf-8" ?>
<svg baseProfile="full" height="100" version="1.1" width="100" xmlns="http://www.w3.org/2000/svg" xmlns:ev="http://www.w3.org/2001/xml-events" xmlns:xlink="http://www.w3.org/1999/xlink"><defs /><polygon fill="none" id="1" points="65,43 66,43 67,44 68,44 70,46 70,47 71,48 71,50 72,51 72,55 71,56 71,58 65,64 63,64 62,65 61,65 60,66 56,66 55,67 46,67 47,68 54,68 55,67 58,67 59,66 61,66 62,65 64,65 65,64 66,64 69,61 70,61 71,60 71,59 72,58 72,57 73,56 73,50 72,49 72,48 68,44 67,44 66,43" stroke="black" stroke-width="1" /><polygon fill="none" id="2" points="53,42 52,43 46,43 45,44 41,44 40,45 36,45 35,46 34,46 38,46 39,45 41,45 42,44 46,44 47,43 52,43 53,42 63,42" stroke="black" stroke-width="1" /><polygon fill="none" id="3" points="69,35 72,38 72,39 72,38" stroke="black" stroke-width="1" /><polygon fill="none" id="4" points="74,32 78,36" stroke="black" stroke-width="1" /></svg>