<?xml version="1.0" encoding="utf-8" ?>
<svg baseProfile="full" height="100" version="1.1" width="100" xmlns="http://www.w3.org/2000/svg" xmlns:ev="http://www.w3.org/2001/xml-events" xmlns:xlink="http://www.w3.org/1999/xlink"><defs /><polygon fill="none" id="1" points="58,42 57,43 50,43 49,44 45,44 44,45 39,45 38,46 37,46 38,47 39,46 41,46 42,45 45,45 46,44 50,44 51,43 57,43 58,42 69,42 70,43 72,43 73,44 74,44 78,48 78,57 77,58 77,59 75,61 74,61 72,63 71,63 70,64 69,64 68,65 66,65 65,66 61,66 60,67 50,67 51,68 59,68 60,67 64,67 65,66 67,66 68,65 70,65 71,64 72,64 73,63 74,63 78,59 78,58 80,56 80,50 78,48 78,47 76,45 75,45 74,44 73,44 72,43 70,43 69,42" stroke="black" stroke-width="1" /><polygon fill="none" id="2" points="75,35 79,39" stroke="black" stroke-width="1" /><polygon fill="none" id="3" points="81,32 85,36" stroke="black" stroke-width="1" /></svg>