<?xml version="1.0" encoding="utf-8" ?>
<svg baseProfile="full" height="100" version="1.1" width="100" xmlns="http://www.w3.org/2000/svg" xmlns:ev="http://www.w3.org/2001/xml-events" xmlns:xlink="http://www.w3.org/1999/xlink"><defs /><polygon fill="none" id="1" points="54,46 53,47 53,48 56,51 56,52 57,53 57,54 58,54 59,53 59,52 58,51 58,50 55,47 55,46" stroke="black" stroke-width="1" /><polygon fill="none" id="2" points="58,43 57,44 59,46 59,47 61,49 61,50 62,50 63,49 63,48 61,46 61,45 59,43" stroke="black" stroke-width="1" /><polygon fill="none" id="3" points="59,35 58,36 50,36 49,37 41,37 40,38 33,38 32,39 27,39 27,42 31,42 32,41 36,41 37,40 42,40 43,39 47,39 48,40 47,41 46,41 41,46 41,47 40,48 40,50 39,51 39,61 40,62 40,64 44,68 45,68 46,69 48,69 49,70 52,70 53,71 56,71 56,68 55,67 49,67 48,66 47,66 42,61 42,59 41,58 41,53 42,52 42,50 43,49 43,48 45,46 45,45 48,42 49,42 51,40 53,40 54,39 56,39 57,38 60,38 60,35" stroke="black" stroke-width="1" /></svg>