<?xml version="1.0" encoding="utf-8" ?>
<svg baseProfile="full" height="100" version="1.1" width="100" xmlns="http://www.w3.org/2000/svg" xmlns:ev="http://www.w3.org/2001/xml-events" xmlns:xlink="http://www.w3.org/1999/xlink"><defs /><polygon fill="none" id="1" points="66,46 65,47 65,48 69,52 69,53 70,54 71,54 73,52 67,46" stroke="black" stroke-width="1" /><polygon fill="none" id="2" points="70,43 69,44 70,45 71,45 75,49 75,50 76,50 77,49 78,49 72,43" stroke="black" stroke-width="1" /><polygon fill="none" id="3" points="72,35 71,36 61,36 60,37 50,37 49,38 41,38 40,39 32,39 33,40 33,42 38,42 39,41 45,41 46,40 52,40 53,39 58,39 59,40 58,41 57,41 56,42 55,42 49,48 49,49 48,50 48,51 47,52 47,60 48,61 48,62 49,63 49,64 51,66 52,66 54,68 55,68 56,69 58,69 59,70 63,70 64,71 69,71 69,68 68,67 67,68 66,67 60,67 59,66 57,66 55,64 54,64 53,63 53,62 51,60 51,51 52,50 52,49 59,42 60,42 61,41 62,41 63,40 65,40 66,39 69,39 70,38 74,38 74,35" stroke="black" stroke-width="1" /></svg>