<?xml version="1.0" encoding="utf-8" ?>
<svg baseProfile="full" height="100" version="1.1" width="100" xmlns="http://www.w3.org/2000/svg" xmlns:ev="http://www.w3.org/2001/xml-events" xmlns:xlink="http://www.w3.org/1999/xlink"><defs /><polygon fill="none" id="1" points="42,67 42,68 44,68 45,69 49,69 45,69 44,68 43,68" stroke="black" stroke-width="1" /><polygon fill="none" id="2" points="52,45 53,46 53,47 54,48 54,59 53,60 53,64 52,65 52,66 51,67 51,68 51,67 52,66 52,65 53,64 53,63 54,62 54,57 55,56 55,50 54,49 54,47" stroke="black" stroke-width="1" /><polygon fill="none" id="3" points="60,41 64,45 64,46 66,48 66,49 67,50 67,51 68,52 68,53 69,54 69,55 70,54 69,53 69,52 67,50 67,49 65,47 65,46 62,43 62,42 61,41" stroke="black" stroke-width="1" /><polygon fill="none" id="4" points="44,34 44,39 43,40 43,43 41,45 34,45 33,46 32,46 35,46 36,45 41,45 42,46 42,48 41,49 41,50 40,51 40,53 39,54 39,56 38,57 38,58 37,59 37,60 36,61 36,62 35,63 35,64 34,65 34,66 33,67 33,68 32,69 33,69 33,68 34,67 34,66 35,65 35,64 36,63 36,62 37,61 37,59 38,58 38,57 39,56 39,55 40,54 40,52 41,51 41,49 42,48 42,46 44,44 50,44 44,44 43,43 43,41 44,40 44,38 45,37 45,34" stroke="black" stroke-width="1" /></svg>