<?xml version="1.0" encoding="utf-8" ?>
<svg baseProfile="full" height="100" version="1.1" width="100" xmlns="http://www.w3.org/2000/svg" xmlns:ev="http://www.w3.org/2001/xml-events" xmlns:xlink="http://www.w3.org/1999/xlink"><defs /><polygon fill="none" id="1" points="51,43 50,44 50,45 49,46 48,46 47,47 47,49 49,51 49,52 50,53 50,54 51,55 52,55 54,53 54,52 55,51 56,51 57,50 57,48 56,47 56,46 53,43" stroke="black" stroke-width="1" /><polygon fill="none" id="2" points="53,51 54,50 55,51 54,52" stroke="black" stroke-width="1" /><polygon fill="none" id="3" points="51,48 52,47 54,49 54,50 53,51 51,49" stroke="black" stroke-width="1" /><polygon fill="none" id="4" points="50,47 51,46 52,47 51,48" stroke="black" stroke-width="1" /><polygon fill="none" id="5" points="49,46 50,45 51,46 50,47" stroke="black" stroke-width="1" /><polygon fill="none" id="6" points="52,35 51,36 44,36 43,37 36,37 35,38 30,38 29,39 24,39 24,43 28,43 29,42 33,42 34,41 38,41 39,40 40,40 41,41 37,45 37,46 36,47 36,48 35,49 35,52 34,53 34,61 35,62 35,64 37,66 37,67 39,69 40,69 41,70 42,70 43,71 46,71 47,72 51,72 51,68 50,67 45,67 44,66 43,66 42,65 41,65 40,64 40,63 38,61 38,51 39,50 39,49 41,47 41,46 45,42 46,42 47,41 48,41 49,40 51,40 52,39 55,39 55,36 54,35" stroke="black" stroke-width="1" /></svg>