<?xml version="1.0" encoding="utf-8" ?>
<svg baseProfile="full" height="100" version="1.1" width="100" xmlns="http://www.w3.org/2000/svg" xmlns:ev="http://www.w3.org/2001/xml-events" xmlns:xlink="http://www.w3.org/1999/xlink"><defs /><polygon fill="none" id="1" points="72,46 70,48 70,49 71,49 77,55 78,55 79,54 80,54 80,52 74,46" stroke="black" stroke-width="1" /><polygon fill="none" id="2" points="77,43 76,44 76,45 82,51 84,51 85,50 86,50 86,49 80,43" stroke="black" stroke-width="1" /><polygon fill="none" id="3" points="79,35 78,36 66,36 65,37 54,37 53,38 44,38 43,39 35,39 35,41 36,42 36,43 42,43 43,42 50,42 51,41 58,41 59,40 61,40 62,41 61,42 60,42 57,45 56,45 54,47 54,48 53,49 53,50 52,51 52,54 51,55 51,58 52,59 52,62 53,63 53,64 57,68 58,68 59,69 60,69 61,70 64,70 65,71 69,71 70,72 76,72 76,68 74,68 73,67 67,67 66,66 64,66 63,65 62,65 61,64 60,64 58,62 58,61 57,60 57,59 56,58 56,54 57,53 57,52 58,51 58,50 64,44 65,44 67,42 68,42 69,41 72,41 73,40 76,40 77,39 82,39 82,35" stroke="black" stroke-width="1" /></svg>