<?xml version="1.0" encoding="utf-8" ?>
<svg baseProfile="full" height="100" version="1.1" width="100" xmlns="http://www.w3.org/2000/svg" xmlns:ev="http://www.w3.org/2001/xml-events" xmlns:xlink="http://www.w3.org/1999/xlink"><defs /><polygon fill="none" id="1" points="55,47 54,48 57,51 57,52 58,53 58,54 59,53 58,52 58,51 55,48" stroke="black" stroke-width="1" /><polygon fill="none" id="2" points="59,44 59,45 60,46 60,47 62,49 62,50 63,49 61,47 61,46" stroke="black" stroke-width="1" /><polygon fill="none" id="3" points="60,36 59,37 51,37 50,38 42,38 41,39 34,39 33,40 28,40 28,42 31,42 32,41 36,41 37,40 42,40 43,39 48,39 49,40 49,41 48,42 47,42 42,47 42,48 41,49 41,51 40,52 40,61 41,62 41,64 45,68 46,68 47,69 49,69 50,70 53,70 54,71 56,71 56,69 55,68 49,68 48,67 47,67 42,62 42,60 41,59 41,53 42,52 42,50 43,49 43,48 45,46 45,45 48,42 49,42 51,40 53,40 54,39 56,39 57,38 60,38" stroke="black" stroke-width="1" /></svg>