<?xml version="1.0" encoding="utf-8" ?>
<svg baseProfile="full" height="100" version="1.1" width="100" xmlns="http://www.w3.org/2000/svg" xmlns:ev="http://www.w3.org/2001/xml-events" xmlns:xlink="http://www.w3.org/1999/xlink"><defs /><polygon fill="none" id="1" points="67,47 66,48 70,52 70,53 71,54 72,53 72,52" stroke="black" stroke-width="1" /><polygon fill="none" id="2" points="71,44 71,45 72,45 76,49 76,50 77,49 72,44" stroke="black" stroke-width="1" /><polygon fill="none" id="3" points="73,36 72,37 62,37 61,38 51,38 50,39 42,39 41,40 34,40 34,42 38,42 39,41 45,41 46,40 52,40 53,39 59,39 60,40 60,41 59,42 58,42 57,43 56,43 50,49 50,50 49,51 49,52 48,53 48,60 49,61 49,62 50,63 50,64 52,66 53,66 55,68 56,68 57,69 59,69 60,70 64,70 65,71 69,71 69,69 67,69 66,68 60,68 59,67 57,67 55,65 54,65 53,64 53,63 51,61 51,51 52,50 52,49 59,42 60,42 61,41 62,41 63,40 65,40 66,39 69,39 70,38 74,38 74,36" stroke="black" stroke-width="1" /></svg>