<?xml version="1.0" encoding="utf-8" ?>
<svg baseProfile="full" height="100" version="1.1" width="100" xmlns="http://www.w3.org/2000/svg" xmlns:ev="http://www.w3.org/2001/xml-events" xmlns:xlink="http://www.w3.org/1999/xlink"><defs /><polygon fill="none" id="1" points="73,47 72,48 77,53 79,53" stroke="black" stroke-width="1" /><polygon fill="none" id="2" points="78,44 78,45 83,50 84,49 79,44" stroke="black" stroke-width="1" /><polygon fill="none" id="3" points="80,36 79,37 67,37 66,38 55,38 54,39 45,39 44,40 36,40 37,41 37,42 41,42 42,41 49,41 50,40 57,40 58,39 64,39 65,40 65,41 64,42 63,42 62,43 61,43 58,46 57,46 55,48 55,49 54,50 54,51 53,52 53,55 52,56 52,57 53,58 53,61 54,62 54,63 58,67 59,67 60,68 61,68 62,69 65,69 66,70 70,70 71,71 75,71 75,69 73,69 72,68 66,68 65,67 63,67 62,66 61,66 60,65 59,65 57,63 57,62 56,61 56,60 55,59 55,53 56,52 56,51 57,50 57,49 63,43 64,43 66,41 67,41 68,40 71,40 72,39 75,39 76,38 81,38 81,36" stroke="black" stroke-width="1" /></svg>