<?xml version="1.0" encoding="utf-8" ?>
<svg baseProfile="full" height="100" version="1.1" width="100" xmlns="http://www.w3.org/2000/svg" xmlns:ev="http://www.w3.org/2001/xml-events" xmlns:xlink="http://www.w3.org/1999/xlink"><defs /><polygon fill="none" id="1" points="57,42 56,43 56,44 55,45 53,45 52,46 52,49 55,52 55,53 56,54 56,55 59,55 60,54 60,52 61,51 63,51 64,50 64,47 62,45 62,44 60,42" stroke="black" stroke-width="1" /><polygon fill="none" id="2" points="58,34 57,35 49,35 48,36 40,36 39,37 32,37 31,38 26,38 26,43 32,43 33,42 37,42 38,41 42,41 43,42 40,45 40,46 39,47 39,49 38,50 38,62 39,63 39,65 43,69 44,69 45,70 47,70 48,71 51,71 52,72 57,72 57,67 56,66 50,66 49,65 48,65 43,60 43,58 42,57 42,54 43,53 43,51 44,50 44,49 46,47 46,46 49,43 50,43 52,41 54,41 55,40 57,40 58,39 61,39 61,34" stroke="black" stroke-width="1" /></svg>