<?xml version="1.0" encoding="utf-8" ?>
<svg baseProfile="full" height="100" version="1.1" width="100" xmlns="http://www.w3.org/2000/svg" xmlns:ev="http://www.w3.org/2001/xml-events" xmlns:xlink="http://www.w3.org/1999/xlink"><defs /><polygon fill="none" id="1" points="69,42 68,43 68,44 67,45 65,45 64,46 64,49 68,53 68,54 69,55 72,55 74,53 74,52 75,51 77,51 78,50 79,50 79,48 73,42" stroke="black" stroke-width="1" /><polygon fill="none" id="2" points="71,34 70,35 60,35 59,36 49,36 48,37 40,37 39,38 31,38 31,40 32,41 32,43 39,43 40,42 46,42 47,41 52,41 53,42 48,47 48,48 47,49 47,50 46,51 46,61 47,62 47,63 48,64 48,65 50,67 51,67 53,69 54,69 55,70 57,70 58,71 62,71 63,72 70,72 70,67 69,66 61,66 60,65 58,65 56,63 55,63 54,62 54,61 52,59 52,52 53,51 53,50 60,43 61,43 62,42 63,42 64,41 66,41 67,40 70,40 71,39 75,39 75,34" stroke="black" stroke-width="1" /></svg>