<?xml version="1.0" encoding="utf-8" ?>
<svg baseProfile="full" height="100" version="1.1" width="100" xmlns="http://www.w3.org/2000/svg" xmlns:ev="http://www.w3.org/2001/xml-events" xmlns:xlink="http://www.w3.org/1999/xlink"><defs /><polygon fill="none" id="1" points="57,51" stroke="black" stroke-width="1" /><polygon fill="none" id="2" points="60,46" stroke="black" stroke-width="1" /><polygon fill="none" id="3" points="44,45 42,47 42,48 41,49 41,51 40,52 40,60 41,61 41,63 45,67 46,67 47,68 49,68 50,69 53,69 54,70 55,70 55,69 54,68 48,68 47,67 46,67 41,62 41,60 40,59 40,52 41,51 41,49 42,48 42,47" stroke="black" stroke-width="1" /><polygon fill="none" id="4" points="51,37 50,38 42,38 41,39 34,39 33,40 28,40 28,41 30,41 31,40 35,40 36,39 41,39 42,38 48,38 49,39 49,40 50,39 52,39 53,38 55,38 56,37 59,37" stroke="black" stroke-width="1" /></svg>