<?xml version="1.0" encoding="utf-8" ?>
<svg baseProfile="full" height="100" version="1.1" width="100" xmlns="http://www.w3.org/2000/svg" xmlns:ev="http://www.w3.org/2001/xml-events" xmlns:xlink="http://www.w3.org/1999/xlink"><defs /><polygon fill="none" id="1" points="67,48 70,51 70,52 71,52" stroke="black" stroke-width="1" /><polygon fill="none" id="2" points="71,44" stroke="black" stroke-width="1" /><polygon fill="none" id="3" points="56,43 50,49 50,50 49,51 49,52 48,53 48,59 49,60 49,61 50,62 50,63 52,65 53,65 55,67 56,67 57,68 59,68 60,69 64,69 65,70 68,70 68,69 66,69 65,68 59,68 58,67 56,67 54,65 53,65 52,64 52,63 50,61 50,50 51,49 51,48" stroke="black" stroke-width="1" /><polygon fill="none" id="4" points="73,36 72,37 62,37 61,38 51,38 50,39 42,39 41,40 34,40 34,41 37,41 38,40 44,40 45,39 51,39 52,38 59,38 60,39 60,40 61,40 62,39 64,39 65,38 68,38 69,37 73,37" stroke="black" stroke-width="1" /></svg>