<?xml version="1.0" encoding="utf-8" ?>
<svg baseProfile="full" height="100" version="1.1" width="100" xmlns="http://www.w3.org/2000/svg" xmlns:ev="http://www.w3.org/2001/xml-events" xmlns:xlink="http://www.w3.org/1999/xlink"><defs /><polygon fill="none" id="1" points="44,32 44,38 42,40 34,40 33,39 34,40 34,41 40,41 41,40 43,40 44,41 44,44 43,45 43,50 42,51 41,51 40,52 39,52 33,58 33,59 32,60 32,62 31,63 31,66 32,67 32,68 33,69 37,69 38,68 39,68 40,67 41,67 42,66 43,66 44,67 44,68 46,68 46,66 45,65 45,64 50,59 50,58 52,56 52,55 53,54 53,53 54,52 54,51 55,50 55,49 56,48 59,48 60,49 61,49 62,50 63,50 65,52 65,53 66,54 66,55 67,56 67,60 66,61 66,62 65,63 65,64 62,67 61,67 60,68 59,68 58,69 53,69 53,70 54,71 56,71 57,70 59,70 60,69 61,69 62,68 63,68 67,64 67,63 68,62 68,60 69,59 69,57 68,56 68,54 67,53 67,52 64,49 63,49 62,48 60,48 59,47 58,47 57,46 57,44 55,44 55,46 54,47 51,47 50,48 48,48 47,49 46,49 45,48 45,41 46,40 51,40 52,39 56,39 57,38 60,38 60,36 59,37 56,37 55,38 50,38 49,39 46,39 45,38 45,37 46,36 46,32" stroke="black" stroke-width="1" /><polygon fill="none" id="2" points="41,52 42,52 43,53 43,60 44,61 44,63 40,67 39,67 38,68 34,68 33,67 33,62 34,61 34,60 35,59 35,58" stroke="black" stroke-width="1" /><polygon fill="none" id="3" points="48,49 49,48 53,48 54,49 54,50 53,51 53,52 52,53 52,54 50,56 50,57 48,59 48,60 47,61 45,61 44,60 44,59 45,58 45,53 44,52 44,51 46,49" stroke="black" stroke-width="1" /></svg>