<?xml version="1.0" encoding="utf-8" ?>
<svg baseProfile="full" height="100" version="1.1" width="100" xmlns="http://www.w3.org/2000/svg" xmlns:ev="http://www.w3.org/2001/xml-events" xmlns:xlink="http://www.w3.org/1999/xlink"><defs /><polygon fill="none" id="1" points="61,34 60,35 60,36 65,41 65,42 67,40 66,39 66,38 62,34" stroke="black" stroke-width="1" /><polygon fill="none" id="2" points="40,33 41,34 41,37 42,38 42,40 43,41 43,43 44,44 44,46 45,47 45,48 46,49 44,51 43,51 41,53 40,53 35,58 35,60 34,61 34,65 35,66 35,67 36,68 37,68 38,69 39,69 40,70 43,70 44,71 61,71 62,70 65,70 65,68 64,67 63,67 62,68 57,68 56,69 45,69 44,68 41,68 37,64 37,61 38,60 38,59 42,55 43,55 45,53 46,53 47,52 48,52 49,51 51,51 52,50 53,50 54,49 56,49 57,48 58,48 59,47 62,47 63,46 62,45 62,44 61,43 60,44 59,44 58,45 56,45 55,46 54,46 53,47 51,47 50,48 49,48 47,46 47,44 46,43 46,41 45,40 45,37 44,36 44,33" stroke="black" stroke-width="1" /><polygon fill="none" id="3" points="66,30 64,32 65,32 68,35 68,36 70,38 72,36" stroke="black" stroke-width="1" /></svg>