<?xml version="1.0" encoding="utf-8" ?>
<svg baseProfile="full" height="100" version="1.1" width="100" xmlns="http://www.w3.org/2000/svg" xmlns:ev="http://www.w3.org/2001/xml-events" xmlns:xlink="http://www.w3.org/1999/xlink"><defs /><polygon fill="none" id="1" points="49,34 48,35 48,36 50,38 50,39 52,41 52,42 54,40 52,38 52,37 50,35 50,34" stroke="black" stroke-width="1" /><polygon fill="none" id="2" points="32,33 32,34 33,35 33,38 34,39 34,43 35,44 35,46 36,47 36,48 37,49 34,52 33,52 29,56 29,57 28,58 28,60 27,61 27,64 28,65 28,67 30,69 31,69 32,70 34,70 35,71 49,71 50,70 52,70 52,68 51,67 50,67 49,68 46,68 45,69 36,69 35,68 33,68 30,65 30,60 31,59 31,58 36,53 37,53 39,51 40,51 41,50 42,50 43,49 44,49 45,48 46,48 47,47 49,47 50,46 50,45 49,44 49,43 48,44 47,44 46,45 45,45 44,46 43,46 42,47 41,47 40,48 39,48 38,47 38,46 37,45 37,42 36,41 36,37 35,36 35,33" stroke="black" stroke-width="1" /><polygon fill="none" id="3" points="53,30 51,32 55,36 55,37 56,38 57,37 57,35 54,32 54,31" stroke="black" stroke-width="1" /></svg>