<?xml version="1.0" encoding="utf-8" ?>
<svg baseProfile="full" height="100" version="1.1" width="100" xmlns="http://www.w3.org/2000/svg" xmlns:ev="http://www.w3.org/2001/xml-events" xmlns:xlink="http://www.w3.org/1999/xlink"><defs /><polygon fill="none" id="1" points="32,33 32,35 33,36 33,39 34,40 34,44 35,45 35,47 36,48 36,50 34,52 33,52 29,56 29,57 28,58 28,60 27,61 27,65 28,66 28,68 30,70 31,70 32,71 34,71 35,72 50,72 51,71 53,71 53,68 52,67 50,67 49,68 46,68 45,69 37,69 36,68 34,68 31,65 31,61 32,60 32,59 37,54 38,54 40,52 41,52 42,51 43,51 44,50 45,50 46,49 47,49 48,48 50,48 51,47 51,45 50,44 50,43 49,43 48,44 47,44 46,45 45,45 44,46 43,46 42,47 41,47 40,48 39,47 39,46 38,45 38,42 37,41 37,37 36,36 36,33" stroke="black" stroke-width="1" /><polygon fill="none" id="2" points="53,30 51,32 51,33 50,34 49,34 48,35 48,37 50,39 50,40 52,42 52,43 53,43 55,41 55,40 56,39 57,39 58,38 58,35 55,32 55,31 54,30" stroke="black" stroke-width="1" /><polygon fill="none" id="3" points="54,39 55,38 56,39 55,40" stroke="black" stroke-width="1" /><polygon fill="none" id="4" points="53,37 54,36 55,37 55,38 54,39 53,38" stroke="black" stroke-width="1" /><polygon fill="none" id="5" points="52,36 53,35 54,36 53,37" stroke="black" stroke-width="1" /><polygon fill="none" id="6" points="51,35 52,34 53,35 52,36" stroke="black" stroke-width="1" /></svg>