<?xml version="1.0" encoding="utf-8" ?>
<svg baseProfile="full" height="100" version="1.1" width="100" xmlns="http://www.w3.org/2000/svg" xmlns:ev="http://www.w3.org/2001/xml-events" xmlns:xlink="http://www.w3.org/1999/xlink"><defs /><polygon fill="none" id="1" points="40,33 40,34 41,35 41,38 42,39 42,41 43,42 43,44 44,45 44,47 45,48 45,50 44,51 43,51 41,53 40,53 35,58 35,60 34,61 34,66 35,67 35,68 36,69 37,69 38,70 39,70 40,71 43,71 44,72 62,72 63,71 66,71 66,68 65,67 63,67 62,68 57,68 56,69 46,69 45,68 42,68 38,64 38,62 39,61 39,60 43,56 44,56 46,54 47,54 48,53 49,53 50,52 52,52 53,51 54,51 55,50 57,50 58,49 59,49 60,48 63,48 64,47 64,46 63,45 63,44 62,43 61,43 60,44 59,44 58,45 56,45 55,46 54,46 53,47 51,47 50,48 48,46 48,44 47,43 47,41 46,40 46,37 45,36 45,33" stroke="black" stroke-width="1" /><polygon fill="none" id="2" points="66,30 64,32 64,33 63,34 61,34 60,35 60,37 65,42 65,43 66,43 68,41 68,40 67,39 67,38 68,37 70,39 71,39 73,37 73,36 67,30" stroke="black" stroke-width="1" /><polygon fill="none" id="3" points="63,34 64,33 65,33 68,36 68,37 67,38" stroke="black" stroke-width="1" /></svg>