<?xml version="1.0" encoding="utf-8" ?>
<svg baseProfile="full" height="100" version="1.1" width="100" xmlns="http://www.w3.org/2000/svg" xmlns:ev="http://www.w3.org/2001/xml-events" xmlns:xlink="http://www.w3.org/1999/xlink"><defs /><polygon fill="none" id="1" points="67,34 66,35 66,37 67,37 69,39 69,40 72,43 73,43 75,41 75,40 69,34" stroke="black" stroke-width="1" /><polygon fill="none" id="2" points="44,33 44,34 45,35 45,38 46,39 46,41 47,42 47,44 48,45 48,46 49,47 49,48 50,49 50,50 49,51 48,51 47,52 46,52 45,53 44,53 38,59 38,62 37,63 37,64 38,65 38,67 40,69 41,69 42,70 43,70 44,71 47,71 48,72 68,72 69,71 73,71 73,69 72,68 72,67 69,67 68,68 63,68 62,69 50,69 49,68 46,68 42,64 42,62 43,61 43,60 46,57 47,57 49,55 50,55 51,54 52,54 53,53 54,53 55,52 57,52 58,51 59,51 60,50 62,50 63,49 65,49 66,48 69,48 70,47 71,47 71,46 68,43 67,43 66,44 64,44 63,45 62,45 61,46 59,46 58,47 56,47 55,48 54,48 53,47 53,45 52,44 52,42 51,41 51,38 50,37 50,34 49,33" stroke="black" stroke-width="1" /><polygon fill="none" id="3" points="73,30 72,31 71,31 71,33 77,39 78,39 80,37 80,36 74,30" stroke="black" stroke-width="1" /></svg>