<?xml version="1.0" encoding="utf-8" ?>
<svg baseProfile="full" height="100" version="1.1" width="100" xmlns="http://www.w3.org/2000/svg" xmlns:ev="http://www.w3.org/2001/xml-events" xmlns:xlink="http://www.w3.org/1999/xlink"><defs /><polygon fill="none" id="1" points="48,33 48,34 49,35 49,37 50,38 50,40 51,41 51,42 52,43 52,45 53,46 53,47 54,48 54,49 55,50 54,51 52,51 51,52 50,52 49,53 48,53 46,55 45,55 42,58 42,60 41,61 41,66 45,70 47,70 48,71 52,71 53,72 74,72 75,71 79,71 79,68 78,67 75,67 74,68 69,68 68,69 55,69 54,68 51,68 50,67 49,67 46,64 46,62 47,61 47,60 50,57 51,57 52,56 53,56 54,55 55,55 56,54 57,54 58,53 59,53 60,52 62,52 63,51 65,51 66,50 68,50 69,49 71,49 72,48 75,48 76,47 77,47 77,46 76,45 76,44 75,43 73,43 72,44 70,44 69,45 67,45 66,46 64,46 63,47 62,47 61,48 59,48 58,47 58,45 57,44 57,43 56,42 56,41 55,40 55,37 54,36 54,33" stroke="black" stroke-width="1" /><polygon fill="none" id="2" points="79,30 77,32 77,33 76,34 73,34 72,35 72,37 73,37 78,42 78,43 79,43 80,42 81,42 82,41 82,40 76,34 77,33 78,33 84,39 85,39 86,38 87,38 87,36 82,31 81,31 80,30" stroke="black" stroke-width="1" /></svg>