<?xml version="1.0" encoding="utf-8" ?>
<svg baseProfile="full" height="100" version="1.1" width="100" xmlns="http://www.w3.org/2000/svg" xmlns:ev="http://www.w3.org/2001/xml-events" xmlns:xlink="http://www.w3.org/1999/xlink"><defs /><polygon fill="none" id="1" points="56,35 55,36 59,40 59,41 60,41 60,40 57,37 57,36" stroke="black" stroke-width="1" /><polygon fill="none" id="2" points="37,34 38,35 38,37 39,38 39,41 40,42 40,44 41,45 41,47 42,48 42,51 41,52 40,52 39,53 38,53 33,58 33,59 32,60 32,66 35,69 36,69 37,70 39,70 40,71 55,71 56,70 58,70 58,68 57,68 56,69 53,69 52,70 40,70 39,69 37,69 33,65 33,62 34,61 34,60 35,59 35,58 38,55 39,55 41,53 42,53 44,51 45,51 46,50 48,50 49,49 50,49 51,48 52,48 53,47 55,47 56,46 56,45 54,45 53,46 51,46 50,47 49,47 48,48 47,48 46,49 44,49 42,47 42,44 41,43 41,41 40,40 40,34" stroke="black" stroke-width="1" /><polygon fill="none" id="3" points="59,32 62,35 62,36 63,37 64,37 64,36 60,32" stroke="black" stroke-width="1" /></svg>