<?xml version="1.0" encoding="utf-8" ?>
<svg baseProfile="full" height="100" version="1.1" width="100" xmlns="http://www.w3.org/2000/svg" xmlns:ev="http://www.w3.org/2001/xml-events" xmlns:xlink="http://www.w3.org/1999/xlink"><defs /><polygon fill="none" id="1" points="58,29 57,30 57,32 56,33 54,33 53,34 53,37 57,41 56,42 54,42 53,43 52,43 51,44 49,44 48,45 47,45 46,46 44,46 43,45 43,42 42,41 42,39 41,38 41,32 35,32 35,35 36,36 36,38 37,39 37,42 38,43 38,45 39,46 39,48 40,49 39,50 38,50 37,51 36,51 31,56 31,57 30,58 30,67 33,70 34,70 35,71 37,71 38,72 56,72 57,71 60,71 60,69 59,68 59,66 55,66 54,67 51,67 50,68 41,68 40,67 38,67 34,63 35,62 35,61 36,60 36,59 39,56 40,56 42,54 43,54 45,52 46,52 47,51 49,51 50,50 51,50 52,49 53,49 54,48 56,48 57,47 58,47 58,45 57,44 57,43 58,42 61,42 61,40 62,39 64,39 65,38 65,34 60,29" stroke="black" stroke-width="1" /></svg>