<?xml version="1.0" encoding="utf-8" ?>
<svg baseProfile="full" height="100" version="1.1" width="100" xmlns="http://www.w3.org/2000/svg" xmlns:ev="http://www.w3.org/2001/xml-events" xmlns:xlink="http://www.w3.org/1999/xlink"><defs /><polygon fill="none" id="1" points="65,29 63,31 63,32 62,33 60,33 59,34 59,37 63,41 62,42 60,42 59,43 58,43 57,44 55,44 54,45 53,45 52,46 49,46 48,45 48,43 47,42 47,40 46,39 46,36 45,35 45,32 39,32 39,34 40,35 40,38 41,39 41,41 42,42 42,44 43,45 43,47 44,48 44,49 43,50 42,50 40,52 39,52 34,57 34,59 33,60 33,66 34,67 34,68 35,69 36,69 37,70 38,70 39,71 42,71 43,72 62,72 63,71 66,71 66,67 65,66 62,66 61,67 56,67 55,68 46,68 45,67 42,67 38,63 38,62 39,61 39,60 43,56 44,56 46,54 47,54 48,53 49,53 50,52 52,52 53,51 54,51 55,50 57,50 58,49 59,49 60,48 63,48 64,47 64,45 63,44 64,43 66,43 68,41 68,40 69,39 71,39 73,37 73,35 67,29" stroke="black" stroke-width="1" /><polygon fill="none" id="2" points="62,42 63,41 64,42 63,43" stroke="black" stroke-width="1" /></svg>