<?xml version="1.0" encoding="utf-8" ?>
<svg baseProfile="full" height="100" version="1.1" width="100" xmlns="http://www.w3.org/2000/svg" xmlns:ev="http://www.w3.org/2001/xml-events" xmlns:xlink="http://www.w3.org/1999/xlink"><defs /><polygon fill="none" id="1" points="76,68 75,69 70,69 69,70 54,70 72,70 73,69 77,69" stroke="black" stroke-width="1" /><polygon fill="none" id="2" points="74,35 79,40" stroke="black" stroke-width="1" /><polygon fill="none" id="3" points="50,34 50,35 51,36 51,38 52,39 52,40 53,41 53,43 54,44 54,45 55,46 55,47 56,48 56,51 55,52 53,52 52,53 51,53 50,54 49,54 47,56 46,56 43,59 43,61 42,62 42,64 46,68 48,68 49,69 52,69 49,69 48,68 47,68 44,65 44,60 45,59 45,58 48,55 49,55 50,54 51,54 52,53 53,53 54,52 55,52 56,51 57,51 58,50 60,50 61,49 63,49 64,48 66,48 67,47 69,47 70,46 73,46 74,45 71,45 70,46 68,46 67,47 65,47 64,48 63,48 62,49 57,49 56,48 56,46 55,45 55,44 54,43 54,42 53,41 53,38 52,37 52,34" stroke="black" stroke-width="1" /><polygon fill="none" id="4" points="80,32 84,36" stroke="black" stroke-width="1" /></svg>