<?xml version="1.0" encoding="utf-8" ?>
<svg baseProfile="full" height="100" version="1.1" width="100" xmlns="http://www.w3.org/2000/svg" xmlns:ev="http://www.w3.org/2001/xml-events" xmlns:xlink="http://www.w3.org/1999/xlink"><defs /><polygon fill="none" id="1" points="56,34 56,36 57,37 57,42 56,43 46,43 45,42 44,42 44,45 56,45 57,46 57,59 56,60 55,59 48,59 47,60 46,60 44,62 44,63 43,64 43,66 46,69 47,69 48,70 56,70 57,69 58,69 59,68 59,65 61,63 63,65 64,65 66,67 67,67 68,68 69,68 69,67 70,66 70,65 69,65 68,64 67,64 66,63 65,63 64,62 63,62 62,61 61,61 60,60 60,52 59,51 59,46 60,45 63,45 64,44 68,44 68,41 66,41 65,42 60,42 59,41 59,34" stroke="black" stroke-width="1" /><polygon fill="none" id="2" points="48,62 49,61 55,61 57,63 57,66 56,67 55,67 54,68 49,68 48,67 47,67 46,66 46,63 47,62" stroke="black" stroke-width="1" /><polygon fill="none" id="3" points="34,34 34,37 33,38 33,41 32,42 32,47 31,48 31,65 32,66 32,71 36,71 35,70 35,69 36,68 36,65 37,64 37,63 38,62 38,61 39,60 39,59 40,58 40,57 39,57 38,56 38,57 37,58 37,59 36,60 36,62 35,63 34,62 34,47 35,46 35,42 36,41 36,38 37,37 37,34" stroke="black" stroke-width="1" /><polygon fill="none" id="4" points="63,31 62,32 64,34 64,35 65,36 65,37 66,38 67,38 68,37 68,36 67,35 67,34 65,32 65,31" stroke="black" stroke-width="1" /><polygon fill="none" id="5" points="69,28 67,30 70,33 70,34 71,35 72,35 73,34 72,33 72,32 70,30 70,29" stroke="black" stroke-width="1" /></svg>