<?xml version="1.0" encoding="utf-8" ?>
<svg baseProfile="full" height="100" version="1.1" width="100" xmlns="http://www.w3.org/2000/svg" xmlns:ev="http://www.w3.org/2001/xml-events" xmlns:xlink="http://www.w3.org/1999/xlink"><defs /><polygon fill="none" id="1" points="62,34 62,40 63,41 63,42 62,43 50,43 49,42 48,42 48,45 62,45 63,46 63,58 62,59 53,59 52,60 51,60 50,61 49,61 48,62 48,63 47,64 47,65 48,66 48,67 50,69 52,69 53,70 62,70 63,69 64,69 65,68 65,66 66,65 66,64 67,63 68,64 69,64 71,66 72,66 74,68 76,68 76,67 77,66 77,65 76,65 75,64 74,64 73,63 72,63 71,62 69,62 68,61 67,61 66,60 66,52 65,51 65,46 66,45 69,45 70,44 75,44 75,42 74,41 72,41 71,42 66,42 65,41 65,34" stroke="black" stroke-width="1" /><polygon fill="none" id="2" points="53,62 54,61 61,61 63,63 63,65 60,68 54,68 53,67 52,67 51,66 51,63 52,62" stroke="black" stroke-width="1" /><polygon fill="none" id="3" points="37,34 37,37 36,38 36,42 35,43 35,48 34,49 34,64 35,65 35,71 39,71 39,68 40,67 40,65 41,64 41,63 42,62 42,61 43,60 43,59 44,58 44,57 43,57 42,56 41,57 41,59 40,60 40,61 38,63 37,62 37,51 38,50 38,45 39,44 39,41 40,40 40,37 41,36 41,34" stroke="black" stroke-width="1" /><polygon fill="none" id="4" points="70,31 69,32 68,32 71,35 71,36 72,37 72,38 74,38 75,37 75,36 73,34 73,33 71,31" stroke="black" stroke-width="1" /><polygon fill="none" id="5" points="76,28 75,29 74,29 74,30 77,33 77,34 78,35 80,35 81,34 77,30 77,29" stroke="black" stroke-width="1" /></svg>