<?xml version="1.0" encoding="utf-8" ?>
<svg baseProfile="full" height="100" version="1.1" width="100" xmlns="http://www.w3.org/2000/svg" xmlns:ev="http://www.w3.org/2001/xml-events" xmlns:xlink="http://www.w3.org/1999/xlink"><defs /><polygon fill="none" id="1" points="27,34 27,38 26,39 26,44 25,45 25,67 26,68 26,71 28,71 28,67 29,66 29,63 30,62 30,61 31,60 31,59 32,58 32,57 31,56 30,56 30,58 29,59 29,61 28,62 27,61 27,47 28,46 28,41 29,40 29,36 30,35 29,34" stroke="black" stroke-width="1" /><polygon fill="none" id="2" points="46,33 45,34 45,42 44,43 37,43 36,42 35,42 35,45 45,45 46,46 46,47 45,48 45,55 46,56 46,58 45,59 38,59 35,62 35,67 37,69 38,69 39,70 45,70 47,68 47,65 48,64 50,64 54,68 55,68 55,67 56,66 56,65 55,65 53,63 52,63 51,62 50,62 47,59 47,58 48,57 48,53 47,52 47,46 48,45 50,45 51,44 54,44 54,41 53,41 52,42 48,42 47,41 47,34" stroke="black" stroke-width="1" /><polygon fill="none" id="3" points="39,61 44,61 46,63 46,65 43,68 39,68 37,66 37,63" stroke="black" stroke-width="1" /><polygon fill="none" id="4" points="51,31 50,32 50,33 52,35 52,37 53,38 54,37 54,36 53,35 53,33 52,32 52,31" stroke="black" stroke-width="1" /><polygon fill="none" id="5" points="55,28 54,29 54,30 55,31 55,32 56,33 56,34 57,35 58,35 58,33 57,32 57,31 56,30 56,29" stroke="black" stroke-width="1" /></svg>