<?xml version="1.0" encoding="utf-8" ?>
<svg baseProfile="full" height="100" version="1.1" width="100" xmlns="http://www.w3.org/2000/svg" xmlns:ev="http://www.w3.org/2001/xml-events" xmlns:xlink="http://www.w3.org/1999/xlink"><defs /><polygon fill="none" id="1" points="50,34 51,35 51,42 50,43 41,43 40,42 39,43 39,45 50,45 51,46 51,58 50,59 43,59 42,60 41,60 40,61 40,62 39,63 39,67 41,69 42,69 43,70 50,70 51,69 52,69 53,68 53,65 55,63 58,66 59,66 61,68 62,68 62,67 63,66 63,65 62,65 61,64 60,64 58,62 57,62 56,61 55,61 53,59 54,58 54,52 53,51 53,46 54,45 56,45 57,44 61,44 61,41 59,41 58,42 54,42 53,41 53,34" stroke="black" stroke-width="1" /><polygon fill="none" id="2" points="44,61 50,61 51,62 51,66 49,68 44,68 41,65 41,64" stroke="black" stroke-width="1" /><polygon fill="none" id="3" points="31,34 30,35 30,40 29,41 29,46 28,47 28,65 29,66 29,71 32,71 32,66 33,65 33,63 34,62 34,61 35,60 35,59 36,58 36,57 35,57 34,56 34,57 33,58 33,61 32,62 31,62 30,61 30,52 31,51 31,44 32,43 32,38 33,37 33,34" stroke="black" stroke-width="1" /><polygon fill="none" id="4" points="57,31 56,32 57,33 57,34 58,35 58,36 59,37 59,38 60,38 61,37 61,36 60,35 60,34 59,33 59,32 58,31" stroke="black" stroke-width="1" /><polygon fill="none" id="5" points="62,28 61,29 61,31 63,33 63,34 64,35 65,35 66,34 65,33 65,32 63,30 63,29" stroke="black" stroke-width="1" /></svg>