<?xml version="1.0" encoding="utf-8" ?>
<svg baseProfile="full" height="100" version="1.1" width="100" xmlns="http://www.w3.org/2000/svg" xmlns:ev="http://www.w3.org/2001/xml-events" xmlns:xlink="http://www.w3.org/1999/xlink"><defs /><polygon fill="none" id="1" points="49,31 48,32 48,33 50,35 50,36 51,37 51,38 50,39 37,39 37,40 38,41 38,42 43,42 44,41 50,41 51,40 52,40 54,42 54,43 55,44 55,46 54,47 45,47 44,48 37,48 37,50 38,51 39,51 40,50 48,50 49,49 55,49 56,48 57,48 58,49 58,50 64,56 63,57 61,57 60,56 59,56 58,55 47,55 46,56 44,56 43,57 42,57 39,60 39,65 43,69 44,69 45,70 49,70 50,71 65,71 65,69 64,68 63,69 51,69 50,68 46,68 42,64 42,61 45,58 47,58 48,57 57,57 58,58 61,58 62,59 63,59 64,60 65,60 66,61 67,61 69,59 66,56 66,55 63,52 63,51 60,48 61,47 64,47 65,46 67,46 68,45 71,45 72,44 73,44 72,43 72,42 71,41 70,42 69,42 68,43 66,43 65,44 63,44 62,45 59,45 57,43 57,42 56,41 56,40 57,39 60,39 61,38 64,38 65,37 67,37 66,36 66,35 65,34 64,35 62,35 61,36 59,36 58,37 56,37 55,38 53,36 53,34 52,33 52,31" stroke="black" stroke-width="1" /></svg>