<?xml version="1.0" encoding="utf-8" ?>
<svg baseProfile="full" height="100" version="1.1" width="100" xmlns="http://www.w3.org/2000/svg" xmlns:ev="http://www.w3.org/2001/xml-events" xmlns:xlink="http://www.w3.org/1999/xlink"><defs /><polygon fill="none" id="1" points="27,34 27,38 26,39 26,44 25,45 25,68 26,69 26,72 29,72 29,68 30,67 30,64 31,63 31,62 32,61 32,60 33,59 33,57 32,56 30,56 30,58 29,59 28,58 28,48 29,47 29,42 30,41 30,37 31,36 31,35 30,34" stroke="black" stroke-width="1" /><polygon fill="none" id="2" points="46,33 45,34 45,42 44,43 38,43 37,42 35,42 35,46 45,46 46,47 45,48 45,56 46,57 46,58 45,59 38,59 35,62 35,68 37,70 38,70 39,71 46,71 48,69 48,66 49,65 50,65 54,69 56,69 56,68 57,67 57,65 56,65 54,63 53,63 52,62 51,62 48,59 49,58 49,53 48,52 48,47 49,46 51,46 52,45 55,45 55,41 53,41 52,42 49,42 48,41 48,34 47,33" stroke="black" stroke-width="1" /><polygon fill="none" id="3" points="40,62 44,62 46,64 46,65 43,68 40,68 38,66 38,64" stroke="black" stroke-width="1" /><polygon fill="none" id="4" points="55,28 54,29 54,30 53,31 51,31 50,32 50,34 52,36 52,38 53,39 54,39 55,38 55,36 56,35 57,36 59,36 59,33 58,32 58,31 57,30 57,29 56,28" stroke="black" stroke-width="1" /><polygon fill="none" id="5" points="54,34 55,33 56,34 56,35 55,36 54,35" stroke="black" stroke-width="1" /><polygon fill="none" id="6" points="53,32 54,31 55,32 54,33" stroke="black" stroke-width="1" /></svg>