<?xml version="1.0" encoding="utf-8" ?>
<svg baseProfile="full" height="100" version="1.1" width="100" xmlns="http://www.w3.org/2000/svg" xmlns:ev="http://www.w3.org/2001/xml-events" xmlns:xlink="http://www.w3.org/1999/xlink"><defs /><polygon fill="none" id="1" points="56,34 56,37 57,38 57,42 56,43 47,43 46,42 44,42 44,46 56,46 57,47 57,58 56,59 48,59 47,60 46,60 44,62 44,63 43,64 43,67 46,70 47,70 48,71 57,71 58,70 59,70 60,69 60,66 61,65 62,65 63,66 64,66 66,68 67,68 68,69 70,69 70,68 71,67 71,65 70,65 69,64 68,64 67,63 66,63 65,62 64,62 63,61 62,61 61,60 61,52 60,51 60,47 61,46 64,46 65,45 69,45 69,41 66,41 65,42 61,42 60,41 60,34" stroke="black" stroke-width="1" /><polygon fill="none" id="2" points="49,63 50,62 55,62 57,64 57,66 56,67 55,67 54,68 50,68 49,67 48,67 47,66 47,64 48,63" stroke="black" stroke-width="1" /><polygon fill="none" id="3" points="34,34 34,37 33,38 33,41 32,42 32,47 31,48 31,66 32,67 32,72 37,72 37,71 36,70 37,69 37,66 38,65 38,64 39,63 39,62 40,61 40,60 41,59 41,57 40,57 39,56 38,56 38,57 37,58 37,59 36,60 35,59 35,48 36,47 36,43 37,42 37,39 38,38 38,34" stroke="black" stroke-width="1" /><polygon fill="none" id="4" points="69,28 66,31 63,31 62,32 62,33 64,35 64,36 65,37 65,38 66,39 68,39 69,38 69,36 70,35 71,36 73,36 74,35 74,34 73,33 73,32 71,30 71,29 70,28" stroke="black" stroke-width="1" /><polygon fill="none" id="5" points="68,34 69,33 70,34 70,35 69,36 68,35" stroke="black" stroke-width="1" /><polygon fill="none" id="6" points="67,33 68,32 69,33 68,34" stroke="black" stroke-width="1" /><polygon fill="none" id="7" points="66,32 67,31 68,32 67,33" stroke="black" stroke-width="1" /></svg>