<?xml version="1.0" encoding="utf-8" ?>
<svg baseProfile="full" height="100" version="1.1" width="100" xmlns="http://www.w3.org/2000/svg" xmlns:ev="http://www.w3.org/2001/xml-events" xmlns:xlink="http://www.w3.org/1999/xlink"><defs /><polygon fill="none" id="1" points="62,34 62,41 63,42 62,43 51,43 50,42 48,42 48,46 62,46 63,47 63,58 62,59 53,59 52,60 51,60 50,61 49,61 48,62 48,63 47,64 47,66 48,67 48,68 50,70 52,70 53,71 63,71 64,70 65,70 66,69 66,67 68,65 69,65 71,67 72,67 74,69 77,69 77,68 78,67 78,65 77,65 76,64 75,64 74,63 73,63 72,62 70,62 69,61 68,61 67,60 67,52 66,51 66,47 67,46 70,46 71,45 76,45 76,42 75,41 72,41 71,42 67,42 66,41 66,34" stroke="black" stroke-width="1" /><polygon fill="none" id="2" points="54,63 55,62 61,62 63,64 63,65 60,68 55,68 54,67 53,67 52,66 52,64 53,63" stroke="black" stroke-width="1" /><polygon fill="none" id="3" points="37,34 37,37 36,38 36,42 35,43 35,48 34,49 34,65 35,66 35,72 40,72 40,69 41,68 41,66 42,65 42,64 43,63 43,62 44,61 44,60 45,59 45,57 44,57 43,56 42,56 41,57 41,59 40,60 40,61 39,62 38,61 38,52 39,51 39,46 40,45 40,42 41,41 41,38 42,37 42,34" stroke="black" stroke-width="1" /><polygon fill="none" id="4" points="76,28 75,29 74,29 74,31 73,32 72,31 70,31 69,32 68,32 68,33 71,36 71,37 72,38 72,39 75,39 76,38 76,36 77,35 78,36 81,36 82,35 82,34 78,30 78,29 77,28" stroke="black" stroke-width="1" /><polygon fill="none" id="5" points="74,33 75,32 77,34 77,35 76,36 74,34" stroke="black" stroke-width="1" /><polygon fill="none" id="6" points="73,32 74,31 75,32 74,33" stroke="black" stroke-width="1" /></svg>