<?xml version="1.0" encoding="utf-8" ?>
<svg baseProfile="full" height="100" version="1.1" width="100" xmlns="http://www.w3.org/2000/svg" xmlns:ev="http://www.w3.org/2001/xml-events" xmlns:xlink="http://www.w3.org/1999/xlink"><defs /><polygon fill="none" id="1" points="67,34 67,36 68,37 68,42 67,43 56,43 55,42 53,42 53,46 67,46 68,47 68,58 67,59 58,59 57,60 55,60 52,63 52,67 55,70 57,70 58,71 68,71 69,70 71,70 72,69 72,67 74,65 75,65 76,66 77,66 79,68 80,68 81,69 84,69 84,68 85,67 85,65 84,65 83,64 81,64 80,63 79,63 78,62 77,62 76,61 74,61 73,60 73,51 72,50 72,47 73,46 77,46 78,45 83,45 83,42 82,41 79,41 78,42 73,42 72,41 72,34" stroke="black" stroke-width="1" /><polygon fill="none" id="2" points="59,63 60,62 66,62 67,63 68,63 69,64 68,65 68,66 67,67 66,67 65,68 60,68 59,67 58,67 56,65 58,63" stroke="black" stroke-width="1" /><polygon fill="none" id="3" points="41,34 41,36 40,37 40,40 39,41 39,43 38,44 38,49 37,50 37,65 38,66 38,72 44,72 44,67 45,66 45,65 46,64 46,63 48,61 48,60 49,59 49,57 48,57 47,56 46,56 45,57 45,58 44,59 44,60 42,62 41,61 41,60 42,59 42,48 43,47 43,43 44,42 44,40 45,39 45,38 46,37 46,34" stroke="black" stroke-width="1" /><polygon fill="none" id="4" points="83,28 82,29 81,29 81,31 84,34 84,35 83,36 79,32 79,31 76,31 75,32 75,33 77,35 77,36 79,38 79,39 81,39 82,38 83,38 83,36 84,35 85,36 88,36 89,35 89,34 88,33 88,32 87,32 86,31 86,30 84,28" stroke="black" stroke-width="1" /></svg>