<?xml version="1.0" encoding="utf-8" ?>
<svg baseProfile="full" height="100" version="1.1" width="100" xmlns="http://www.w3.org/2000/svg" xmlns:ev="http://www.w3.org/2001/xml-events" xmlns:xlink="http://www.w3.org/1999/xlink"><defs /><polygon fill="none" id="1" points="46,35 46,43 45,44 37,44 36,43 36,45 46,45 47,46 47,48 46,49 46,55 47,56 47,59 46,60 39,60 36,63 36,67 38,69 39,69 40,70 45,70 47,68 47,65 48,64 51,64 55,68 55,67 56,66 55,66 53,64 52,64 51,63 50,63 47,60 47,58 48,57 48,54 47,53 47,46 48,45 50,45 51,44 54,44 54,42 53,43 48,43 47,42 47,35" stroke="black" stroke-width="1" /><polygon fill="none" id="2" points="39,61 45,61 47,63 47,66 44,69 39,69 37,67 37,63" stroke="black" stroke-width="1" /><polygon fill="none" id="3" points="28,35 28,39 27,40 27,45 26,46 26,67 27,68 27,71 28,71 28,67 29,66 29,63 30,62 30,61 31,60 31,59 32,58 31,57 31,59 30,60 30,62 29,63 28,63 27,62 27,47 28,46 28,41 29,40 29,35" stroke="black" stroke-width="1" /><polygon fill="none" id="4" points="52,32 51,33 53,35 53,37 54,37 53,36 53,34 52,33" stroke="black" stroke-width="1" /><polygon fill="none" id="5" points="55,30 56,31 56,32 57,33 57,34 58,35 58,34 57,33 57,32 56,31 56,30" stroke="black" stroke-width="1" /></svg>