<?xml version="1.0" encoding="utf-8" ?>
<svg baseProfile="full" height="100" version="1.1" width="100" xmlns="http://www.w3.org/2000/svg" xmlns:ev="http://www.w3.org/2001/xml-events" xmlns:xlink="http://www.w3.org/1999/xlink"><defs /><polygon fill="none" id="1" points="52,35 52,43 51,44 40,44 40,45 51,45 52,46 52,59 51,60 44,60 43,61 42,61 41,62 41,63 40,64 40,67 42,69 43,69 44,70 50,70 51,69 52,69 53,68 53,65 55,63 56,63 59,66 60,66 62,68 62,67 63,66 62,66 61,65 60,65 58,63 57,63 56,62 55,62 53,60 53,59 54,58 54,53 53,52 53,46 54,45 56,45 57,44 61,44 61,42 60,42 59,43 54,43 53,42 53,35" stroke="black" stroke-width="1" /><polygon fill="none" id="2" points="44,61 51,61 52,62 52,67 50,69 44,69 41,66 41,64" stroke="black" stroke-width="1" /><polygon fill="none" id="3" points="32,35 31,36 31,41 30,42 30,47 29,48 29,65 30,66 30,71 32,71 32,66 33,65 33,63 34,62 34,61 35,60 35,59 36,58 35,58 34,59 34,62 33,63 31,63 30,62 30,52 31,51 31,44 32,43 32,38 33,37 33,35" stroke="black" stroke-width="1" /><polygon fill="none" id="4" points="58,32 58,34 59,35 59,36 60,37 60,38 61,37 60,36 60,35 59,34 59,33" stroke="black" stroke-width="1" /><polygon fill="none" id="5" points="62,30 62,31 64,33 64,34 65,35 65,33 63,31 63,30" stroke="black" stroke-width="1" /></svg>