<?xml version="1.0" encoding="utf-8" ?>
<svg baseProfile="full" height="100" version="1.1" width="100" xmlns="http://www.w3.org/2000/svg" xmlns:ev="http://www.w3.org/2001/xml-events" xmlns:xlink="http://www.w3.org/1999/xlink"><defs /><polygon fill="none" id="1" points="57,35 57,36 58,37 58,43 57,44 46,44 45,43 45,45 57,45 58,46 58,60 57,61 56,61 55,60 49,60 48,61 47,61 45,63 45,64 44,65 44,66 47,69 48,69 49,70 56,70 57,69 58,69 59,68 59,65 61,63 62,63 64,65 65,65 67,67 68,67 69,68 69,67 70,66 69,66 68,65 67,65 66,64 65,64 64,63 63,63 62,62 61,62 60,61 60,53 59,52 59,46 60,45 63,45 64,44 68,44 68,42 67,42 66,43 60,43 59,42 59,35" stroke="black" stroke-width="1" /><polygon fill="none" id="2" points="48,62 49,61 56,61 58,63 58,67 57,68 56,68 55,69 49,69 48,68 47,68 46,67 46,63 47,62" stroke="black" stroke-width="1" /><polygon fill="none" id="3" points="35,35 35,38 34,39 34,42 33,43 33,48 32,49 32,65 33,66 33,71 35,71 35,69 36,68 36,65 37,64 37,63 38,62 38,61 39,60 39,59 40,58 39,58 38,59 38,60 37,61 37,63 36,64 35,64 34,63 34,47 35,46 35,42 36,41 36,38 37,37 37,35" stroke="black" stroke-width="1" /><polygon fill="none" id="4" points="64,32 64,33 65,34 65,35 66,36 66,37 67,38 68,37 67,36 67,35 65,33 65,32" stroke="black" stroke-width="1" /><polygon fill="none" id="5" points="69,30 69,31 71,33 71,34 72,35 72,33 70,31 70,30" stroke="black" stroke-width="1" /></svg>