<?xml version="1.0" encoding="utf-8" ?>
<svg baseProfile="full" height="100" version="1.1" width="100" xmlns="http://www.w3.org/2000/svg" xmlns:ev="http://www.w3.org/2001/xml-events" xmlns:xlink="http://www.w3.org/1999/xlink"><defs /><polygon fill="none" id="1" points="63,35 63,40 64,41 64,43 63,44 50,44 49,43 49,45 63,45 64,46 64,59 63,60 54,60 53,61 52,61 51,62 50,62 49,63 49,64 48,65 49,66 49,67 51,69 53,69 54,70 62,70 63,69 64,69 65,68 65,66 66,65 66,64 67,63 68,63 69,64 70,64 72,66 73,66 75,68 76,68 76,67 77,66 76,66 75,65 74,65 73,64 72,64 71,63 69,63 68,62 67,62 66,61 66,53 65,52 65,46 66,45 69,45 70,44 75,44 75,43 74,42 73,42 72,43 66,43 65,42 65,35" stroke="black" stroke-width="1" /><polygon fill="none" id="2" points="53,62 54,61 62,61 64,63 64,66 61,69 54,69 53,68 52,68 51,67 51,63 52,62" stroke="black" stroke-width="1" /><polygon fill="none" id="3" points="38,35 38,38 37,39 37,43 36,44 36,49 35,50 35,64 36,65 36,71 39,71 39,68 40,67 40,65 41,64 41,63 42,62 42,61 43,60 43,59 44,58 42,58 42,60 41,61 41,62 39,64 38,64 37,63 37,51 38,50 38,45 39,44 39,41 40,40 40,37 41,36 41,35" stroke="black" stroke-width="1" /><polygon fill="none" id="4" points="71,32 70,33 72,35 72,36 73,37 73,38 74,38 75,37 73,35 73,34" stroke="black" stroke-width="1" /><polygon fill="none" id="5" points="75,30 78,33 78,34 79,35 80,35 80,34 77,31 77,30" stroke="black" stroke-width="1" /></svg>