<?xml version="1.0" encoding="utf-8" ?>
<svg baseProfile="full" height="100" version="1.1" width="100" xmlns="http://www.w3.org/2000/svg" xmlns:ev="http://www.w3.org/2001/xml-events" xmlns:xlink="http://www.w3.org/1999/xlink"><defs /><polygon fill="none" id="1" points="54,31 53,32 52,32 54,34 54,35 56,37 54,39 41,39 41,41 42,42 46,42 47,41 55,41 56,40 57,40 59,42 59,43 61,45 59,47 49,47 48,48 40,48 40,49 41,50 41,51 43,51 44,50 53,50 54,49 60,49 61,48 62,48 65,51 65,52 69,56 68,57 67,57 66,56 64,56 63,55 51,55 50,56 48,56 47,57 46,57 45,58 44,58 43,59 43,60 42,61 42,64 43,65 43,66 45,68 46,68 47,69 48,69 49,70 54,70 55,71 71,71 71,69 70,68 69,69 56,69 55,68 51,68 50,67 49,67 46,64 46,61 49,58 51,58 52,57 62,57 63,58 66,58 67,59 69,59 70,60 71,60 72,61 73,61 75,59 75,58 74,58 72,56 72,55 69,52 69,51 68,51 67,50 67,49 66,48 67,47 70,47 71,46 74,46 75,45 77,45 78,44 79,44 78,43 78,42 77,41 76,42 75,42 74,43 72,43 71,44 68,44 67,45 64,45 63,44 63,43 61,41 61,40 62,39 66,39 67,38 70,38 71,37 73,37 73,36 71,34 70,35 68,35 67,36 64,36 63,37 61,37 60,38 58,36 58,34 57,33 57,32 56,31" stroke="black" stroke-width="1" /></svg>