<?xml version="1.0" encoding="utf-8" ?>
<svg baseProfile="full" height="100" version="1.1" width="100" xmlns="http://www.w3.org/2000/svg" xmlns:ev="http://www.w3.org/2001/xml-events" xmlns:xlink="http://www.w3.org/1999/xlink"><defs /><polygon fill="none" id="1" points="68,35 69,36 69,43 68,44 55,44 54,43 54,45 68,45 69,46 69,57 70,58 70,59 69,60 59,60 58,61 56,61 53,64 53,66 56,69 58,69 59,70 67,70 68,69 70,69 71,68 71,66 72,65 72,64 73,63 74,63 75,64 76,64 77,65 78,65 80,67 81,67 82,68 83,68 83,67 84,66 83,66 82,65 80,65 79,64 78,64 77,63 76,63 75,62 73,62 72,61 72,52 71,51 71,46 72,45 76,45 77,44 82,44 82,43 81,42 80,42 79,43 72,43 71,42 71,35" stroke="black" stroke-width="1" /><polygon fill="none" id="2" points="58,62 59,61 67,61 68,62 69,62 70,63 70,65 69,66 69,67 68,68 67,68 66,69 59,69 58,68 57,68 55,66 55,64 57,62" stroke="black" stroke-width="1" /><polygon fill="none" id="3" points="42,35 42,37 41,38 41,41 40,42 40,44 39,45 39,50 38,51 38,64 39,65 39,71 43,71 43,66 44,65 44,64 45,63 45,62 47,60 47,59 48,58 46,58 46,59 45,60 45,61 44,62 44,63 43,64 42,64 40,62 40,59 41,58 41,47 42,46 42,42 43,41 43,39 44,38 44,37 45,36 45,35" stroke="black" stroke-width="1" /><polygon fill="none" id="4" points="77,32 77,33 78,34 78,35 80,37 80,38 81,37 82,37 78,33 78,32" stroke="black" stroke-width="1" /><polygon fill="none" id="5" points="82,30 85,33 85,34 86,35 87,35 87,33 86,33 85,32 85,31 84,30" stroke="black" stroke-width="1" /></svg>