<?xml version="1.0" encoding="utf-8" ?>
<svg baseProfile="full" height="100" version="1.1" width="100" xmlns="http://www.w3.org/2000/svg" xmlns:ev="http://www.w3.org/2001/xml-events" xmlns:xlink="http://www.w3.org/1999/xlink"><defs /><polygon fill="none" id="1" points="26,33 26,37 25,38 25,43 24,44 24,68 25,69 25,72 29,72 29,68 30,67 30,64 31,63 31,62 32,61 32,60 33,59 33,56 32,55 29,55 28,54 28,48 29,47 29,42 30,41 30,37 31,36 31,34 30,33" stroke="black" stroke-width="1" /><polygon fill="none" id="2" points="54,27 53,28 53,29 52,30 50,30 49,31 49,32 48,33 47,32 45,32 44,33 44,41 43,42 38,42 37,41 34,41 34,46 43,46 44,47 44,56 45,57 44,58 37,58 34,61 34,68 36,70 37,70 38,71 46,71 48,69 48,66 49,65 53,69 56,69 56,68 57,67 57,64 56,64 54,62 53,62 52,61 51,61 49,59 49,52 48,51 48,47 49,46 51,46 52,45 55,45 55,40 54,39 55,38 55,37 56,36 59,36 59,32 58,31 58,30 57,29 57,28 56,27" stroke="black" stroke-width="1" /><polygon fill="none" id="3" points="40,62 43,62 45,64 42,67 40,67 38,65 38,64" stroke="black" stroke-width="1" /><polygon fill="none" id="4" points="48,35 49,34 51,36 51,38 52,39 52,40 51,41 49,41 48,40" stroke="black" stroke-width="1" /></svg>