<?xml version="1.0" encoding="utf-8" ?>
<svg baseProfile="full" height="100" version="1.1" width="100" xmlns="http://www.w3.org/2000/svg" xmlns:ev="http://www.w3.org/2001/xml-events" xmlns:xlink="http://www.w3.org/1999/xlink"><defs /><polygon fill="none" id="1" points="30,33 29,34 29,39 28,40 28,45 27,46 27,66 28,67 28,72 33,72 33,67 34,66 34,64 35,63 35,62 36,61 36,60 37,59 37,56 36,56 35,55 33,55 33,56 32,57 31,56 31,53 32,52 32,45 33,44 33,39 34,38 34,33" stroke="black" stroke-width="1" /><polygon fill="none" id="2" points="61,27 60,28 60,29 59,30 56,30 55,31 55,32 54,33 49,33 49,35 50,36 50,41 49,42 42,42 41,41 39,41 38,42 38,46 49,46 50,47 50,57 49,58 42,58 41,59 40,59 39,60 39,61 38,62 38,68 40,70 41,70 42,71 51,71 52,70 53,70 54,69 54,66 55,65 57,67 58,67 60,69 63,69 63,68 64,67 64,64 63,64 62,63 61,63 59,61 58,61 57,60 56,60 55,59 55,51 54,50 54,47 55,46 57,46 58,45 62,45 62,40 61,39 62,38 62,37 63,36 66,36 67,35 67,33 66,32 66,31 64,29 64,28 63,27" stroke="black" stroke-width="1" /><polygon fill="none" id="3" points="45,62 49,62 50,63 50,65 48,67 45,67 43,65 43,64" stroke="black" stroke-width="1" /><polygon fill="none" id="4" points="54,34 55,33 56,34 56,35 57,36 57,37 58,38 58,40 57,41 55,41 54,40" stroke="black" stroke-width="1" /></svg>