<?xml version="1.0" encoding="utf-8" ?>
<svg baseProfile="full" height="100" version="1.1" width="100" xmlns="http://www.w3.org/2000/svg" xmlns:ev="http://www.w3.org/2001/xml-events" xmlns:xlink="http://www.w3.org/1999/xlink"><defs /><polygon fill="none" id="1" points="33,33 33,36 32,37 32,40 31,41 31,46 30,47 30,66 31,67 31,72 37,72 37,66 38,65 38,64 39,63 39,62 40,61 40,60 41,59 41,56 40,56 39,55 37,55 37,56 36,57 35,56 35,48 36,47 36,43 37,42 37,39 38,38 38,33" stroke="black" stroke-width="1" /><polygon fill="none" id="2" points="68,27 65,30 62,30 61,31 61,32 60,33 55,33 55,37 56,38 56,41 55,42 47,42 46,41 43,41 43,46 55,46 56,47 56,57 55,58 47,58 46,59 45,59 43,61 43,62 42,63 42,67 45,70 46,70 47,71 57,71 58,70 59,70 60,69 60,66 61,65 62,66 63,66 65,68 66,68 67,69 70,69 70,68 71,67 71,64 70,64 69,63 68,63 67,62 66,62 65,61 64,61 63,60 62,60 61,59 61,51 60,50 60,47 61,46 64,46 65,45 69,45 69,40 68,39 69,38 69,37 70,36 73,36 74,35 74,33 73,32 73,31 71,29 71,28 70,27" stroke="black" stroke-width="1" /><polygon fill="none" id="3" points="49,63 50,62 54,62 56,64 56,65 55,66 54,66 53,67 50,67 49,66 48,66 47,65 47,64 48,63" stroke="black" stroke-width="1" /><polygon fill="none" id="4" points="60,34 61,33 63,35 63,36 64,37 64,38 65,39 65,40 64,41 61,41 60,40" stroke="black" stroke-width="1" /></svg>