<?xml version="1.0" encoding="utf-8" ?>
<svg baseProfile="full" height="100" version="1.1" width="100" xmlns="http://www.w3.org/2000/svg" xmlns:ev="http://www.w3.org/2001/xml-events" xmlns:xlink="http://www.w3.org/1999/xlink"><defs /><polygon fill="none" id="1" points="36,33 36,36 35,37 35,41 34,42 34,47 33,48 33,65 34,66 34,72 40,72 40,69 41,68 41,66 42,65 42,64 43,63 43,62 44,61 44,60 45,59 45,56 44,56 43,55 41,55 40,56 40,58 39,59 38,58 38,52 39,51 39,46 40,45 40,42 41,41 41,38 42,37 42,33" stroke="black" stroke-width="1" /><polygon fill="none" id="2" points="75,27 74,28 73,28 73,29 72,30 69,30 68,31 67,31 67,32 66,33 61,33 61,41 60,42 51,42 50,41 47,41 47,46 61,46 62,47 62,57 61,58 52,58 51,59 50,59 49,60 48,60 47,61 47,62 46,63 46,66 47,67 47,68 49,70 51,70 52,71 63,71 64,70 65,70 66,69 66,67 68,65 70,67 71,67 73,69 77,69 77,68 78,67 78,64 77,64 76,63 75,63 74,62 73,62 72,61 70,61 69,60 68,60 67,59 67,51 66,50 66,47 67,46 70,46 71,45 76,45 76,41 75,40 75,39 76,38 76,37 77,36 81,36 82,35 82,33 78,29 78,28 77,27" stroke="black" stroke-width="1" /><polygon fill="none" id="3" points="54,63 55,62 60,62 62,64 59,67 55,67 54,66 53,66 52,65 52,64 53,63" stroke="black" stroke-width="1" /><polygon fill="none" id="4" points="66,34 67,33 70,36 70,37 71,38 71,40 70,41 67,41 66,40" stroke="black" stroke-width="1" /></svg>