<?xml version="1.0" encoding="utf-8" ?>
<svg baseProfile="full" height="100" version="1.1" width="100" xmlns="http://www.w3.org/2000/svg" xmlns:ev="http://www.w3.org/2001/xml-events" xmlns:xlink="http://www.w3.org/1999/xlink"><defs /><polygon fill="none" id="1" points="40,33 40,35 39,36 39,39 38,40 38,42 37,43 37,48 36,49 36,65 37,66 37,72 44,72 44,67 45,66 45,65 46,64 46,63 48,61 48,60 49,59 49,56 48,56 47,55 45,55 44,56 44,57 43,58 42,57 42,48 43,47 43,43 44,42 44,40 45,39 45,38 46,37 46,33" stroke="black" stroke-width="1" /><polygon fill="none" id="2" points="82,27 81,28 80,28 80,29 79,30 75,30 74,31 74,33 76,35 76,36 78,38 78,40 77,41 73,41 72,40 72,33 66,33 66,36 67,37 67,41 66,42 56,42 55,41 52,41 52,46 66,46 67,47 67,57 66,58 57,58 56,59 54,59 51,62 51,67 54,70 56,70 57,71 68,71 69,70 71,70 72,69 72,67 74,65 75,66 76,66 78,68 79,68 80,69 84,69 84,68 85,67 85,64 84,64 83,63 81,63 80,62 79,62 78,61 77,61 76,60 74,60 73,59 73,50 72,49 72,47 73,46 77,46 78,45 83,45 83,41 81,39 82,38 83,38 83,37 84,36 88,36 89,35 89,33 88,32 88,31 87,31 86,30 86,29 84,27" stroke="black" stroke-width="1" /><polygon fill="none" id="3" points="59,63 60,62 65,62 67,64 67,65 66,66 65,66 64,67 60,67 59,66 58,66 57,65 57,64 58,63" stroke="black" stroke-width="1" /></svg>