<?xml version="1.0" encoding="utf-8" ?>
<svg baseProfile="full" height="100" version="1.1" width="100" xmlns="http://www.w3.org/2000/svg" xmlns:ev="http://www.w3.org/2001/xml-events" xmlns:xlink="http://www.w3.org/1999/xlink"><defs /><polygon fill="none" id="1" points="46,67 44,69 40,69 44,69" stroke="black" stroke-width="1" /><polygon fill="none" id="2" points="52,64 54,66" stroke="black" stroke-width="1" /><polygon fill="none" id="3" points="36,63 36,66" stroke="black" stroke-width="1" /><polygon fill="none" id="4" points="39,60 45,60 47,62 47,63 50,63 49,63 46,60" stroke="black" stroke-width="1" /><polygon fill="none" id="5" points="46,49 46,54 47,55 47,56 47,54 46,53" stroke="black" stroke-width="1" /><polygon fill="none" id="6" points="46,35 46,43 45,44 36,44 49,44 50,43 53,43 47,43 46,42" stroke="black" stroke-width="1" /><polygon fill="none" id="7" points="28,35 28,39 27,40 27,45 26,46 26,66 27,67 27,70 27,66 28,65 28,63 27,63 26,62 26,46 27,45 27,40 28,39" stroke="black" stroke-width="1" /></svg>