<?xml version="1.0" encoding="utf-8" ?>
<svg baseProfile="full" height="100" version="1.1" width="100" xmlns="http://www.w3.org/2000/svg" xmlns:ev="http://www.w3.org/2001/xml-events" xmlns:xlink="http://www.w3.org/1999/xlink"><defs /><polygon fill="none" id="1" points="44,69 49,69" stroke="black" stroke-width="1" /><polygon fill="none" id="2" points="40,64 40,66 42,68 40,66" stroke="black" stroke-width="1" /><polygon fill="none" id="3" points="57,63 59,65 60,65 61,66 60,65 59,65" stroke="black" stroke-width="1" /><polygon fill="none" id="4" points="42,61 41,62" stroke="black" stroke-width="1" /><polygon fill="none" id="5" points="34,59" stroke="black" stroke-width="1" /><polygon fill="none" id="6" points="59,35" stroke="black" stroke-width="1" /><polygon fill="none" id="7" points="52,35 52,43 51,44 40,44 51,44 52,45 52,59 51,60 44,60 51,60 52,61 52,67 51,68 52,67 52,64 54,62 55,62 54,62 52,60 52,58 53,57 53,53 52,52 52,45 53,44 55,44 56,43 60,43 60,42 59,43 53,43 52,42" stroke="black" stroke-width="1" /><polygon fill="none" id="8" points="32,35 31,36 31,41 30,42 30,47 29,48 29,64 30,65 30,70 31,70 31,65 32,64 32,63 30,63 29,62 29,51 30,50 30,43 31,42 31,37 32,36" stroke="black" stroke-width="1" /><polygon fill="none" id="9" points="64,33" stroke="black" stroke-width="1" /><polygon fill="none" id="10" points="58,33" stroke="black" stroke-width="1" /><polygon fill="none" id="11" points="62,30" stroke="black" stroke-width="1" /></svg>