<?xml version="1.0" encoding="utf-8" ?>
<svg baseProfile="full" height="100" version="1.1" width="100" xmlns="http://www.w3.org/2000/svg" xmlns:ev="http://www.w3.org/2001/xml-events" xmlns:xlink="http://www.w3.org/1999/xlink"><defs /><polygon fill="none" id="1" points="47,68" stroke="black" stroke-width="1" /><polygon fill="none" id="2" points="63,63 64,64 65,64 67,66 68,66 67,65 66,65 65,64 64,64" stroke="black" stroke-width="1" /><polygon fill="none" id="3" points="45,63 45,64 44,65 45,66" stroke="black" stroke-width="1" /><polygon fill="none" id="4" points="47,61" stroke="black" stroke-width="1" /><polygon fill="none" id="5" points="37,61" stroke="black" stroke-width="1" /><polygon fill="none" id="6" points="49,60 54,60" stroke="black" stroke-width="1" /><polygon fill="none" id="7" points="38,59" stroke="black" stroke-width="1" /><polygon fill="none" id="8" points="57,35 58,36 58,43 57,44 45,44 57,44 58,45 58,60 57,61 58,62 58,67 57,68 56,68 55,69 49,69 55,69 56,68 57,68 58,67 58,64 60,62 61,62 60,62 59,61 59,53 58,52 58,45 59,44 62,44 63,43 67,43 67,42 66,43 59,43 58,42 58,35" stroke="black" stroke-width="1" /><polygon fill="none" id="9" points="35,35 35,38 34,39 34,42 33,43 33,48 32,49 32,64 33,65 33,70 34,70 34,68 35,67 35,64 34,64 33,63 33,46 34,45 34,41 35,40 35,37 36,36 36,35" stroke="black" stroke-width="1" /><polygon fill="none" id="10" points="65,34 66,35 66,36 66,35" stroke="black" stroke-width="1" /><polygon fill="none" id="11" points="71,33" stroke="black" stroke-width="1" /><polygon fill="none" id="12" points="64,32" stroke="black" stroke-width="1" /><polygon fill="none" id="13" points="69,30" stroke="black" stroke-width="1" /></svg>