<?xml version="1.0" encoding="utf-8" ?>
<svg baseProfile="full" height="100" version="1.1" width="100" xmlns="http://www.w3.org/2000/svg" xmlns:ev="http://www.w3.org/2001/xml-events" xmlns:xlink="http://www.w3.org/1999/xlink"><defs /><polygon fill="none" id="1" points="69,63 70,63 72,65 73,65 75,67 75,66 74,65 73,65 72,64 71,64 70,63" stroke="black" stroke-width="1" /><polygon fill="none" id="2" points="50,62 49,63 49,66 51,68 52,68 51,68 50,67" stroke="black" stroke-width="1" /><polygon fill="none" id="3" points="52,61" stroke="black" stroke-width="1" /><polygon fill="none" id="4" points="41,61" stroke="black" stroke-width="1" /><polygon fill="none" id="5" points="42,58 42,59" stroke="black" stroke-width="1" /><polygon fill="none" id="6" points="63,35 63,39 64,40 64,43 63,44 49,44 63,44 64,45 64,59 63,60 54,60 62,60 64,62 64,66 61,69 54,69 61,69 62,68 63,68 64,67 64,65 65,64 65,63 66,62 67,62 66,62 65,61 65,53 64,52 64,45 65,44 68,44 69,43 74,43 73,42 72,43 65,43 64,42 64,35" stroke="black" stroke-width="1" /><polygon fill="none" id="7" points="38,35 38,38 37,39 37,43 36,44 36,49 35,50 35,63 36,64 36,70 38,70 38,67 39,66 39,64 40,63 39,64 37,64 36,63 36,50 37,49 37,44 38,43 38,40 39,39 39,36 40,35" stroke="black" stroke-width="1" /><polygon fill="none" id="8" points="78,33 79,34" stroke="black" stroke-width="1" /><polygon fill="none" id="9" points="71,33 72,34 72,35 73,36 73,37 73,36 72,35 72,34" stroke="black" stroke-width="1" /><polygon fill="none" id="10" points="76,30" stroke="black" stroke-width="1" /></svg>