<?xml version="1.0" encoding="utf-8" ?>
<svg baseProfile="full" height="100" version="1.1" width="100" xmlns="http://www.w3.org/2000/svg" xmlns:ev="http://www.w3.org/2001/xml-events" xmlns:xlink="http://www.w3.org/1999/xlink"><defs /><polygon fill="none" id="1" points="36,31 35,32 35,33 36,34 36,35 37,36 37,38 36,39 27,39 27,41 28,42 31,42 32,41 36,41 37,40 39,42 39,43 40,44 40,46 39,47 33,47 32,48 27,48 27,51 28,51 29,50 35,50 36,49 39,49 40,48 41,48 43,50 43,51 44,52 44,53 45,54 45,55 44,56 42,56 41,55 34,55 33,56 32,56 29,59 29,60 28,61 28,65 29,66 29,67 31,69 32,69 33,70 35,70 36,71 47,71 47,68 46,68 45,69 37,69 36,68 34,68 30,64 30,61 33,58 34,58 35,57 41,57 42,58 44,58 45,59 46,59 48,61 50,59 49,58 49,57 48,56 48,55 46,53 46,52 45,51 45,50 44,49 44,48 45,47 46,47 47,46 49,46 50,45 51,45 52,44 53,44 52,43 52,42 51,41 49,43 48,43 47,44 46,44 45,45 43,45 41,43 41,40 42,39 44,39 45,38 46,38 47,37 48,37 48,35 47,34 46,35 45,35 44,36 43,36 42,37 41,37 40,38 39,37 39,36 38,35 38,33 37,32 37,31" stroke="black" stroke-width="1" /><polygon fill="none" id="2" points="44,56 45,55 46,56 45,57" stroke="black" stroke-width="1" /></svg>