<?xml version="1.0" encoding="utf-8" ?>
<svg baseProfile="full" height="100" version="1.1" width="100" xmlns="http://www.w3.org/2000/svg" xmlns:ev="http://www.w3.org/2001/xml-events" xmlns:xlink="http://www.w3.org/1999/xlink"><defs /><polygon fill="none" id="1" points="44,62" stroke="black" stroke-width="1" /><polygon fill="none" id="2" points="56,61 53,64 53,65 56,68 57,68 56,68 54,66 54,63 56,61 57,61" stroke="black" stroke-width="1" /><polygon fill="none" id="3" points="46,58 46,59 45,60 46,59" stroke="black" stroke-width="1" /><polygon fill="none" id="4" points="69,35 69,43 68,44 54,44 68,44 69,45 69,56 70,57 70,59 69,60 59,60 67,60 68,61 69,61 70,62 70,65 69,66 69,67 68,68 67,68 66,69 59,69 66,69 67,68 69,68 70,67 70,65 71,64 71,63 72,62 74,62 75,63 76,63 77,64 78,64 80,66 81,66 82,67 82,66 81,65 79,65 78,64 77,64 76,63 75,63 74,62 72,62 71,61 71,52 70,51 70,45 71,44 75,44 76,43 81,43 80,42 79,43 71,43 70,42 70,35" stroke="black" stroke-width="1" /><polygon fill="none" id="5" points="42,35 42,37 41,38 41,41 40,42 40,44 39,45 39,50 38,51 38,63 39,64 39,70 42,70 42,65 43,64 41,64 39,62 39,58 40,57 40,46 41,45 41,41 42,40 42,38 43,37 43,36 44,35" stroke="black" stroke-width="1" /><polygon fill="none" id="6" points="78,34 80,36" stroke="black" stroke-width="1" /><polygon fill="none" id="7" points="85,33 86,34 86,33" stroke="black" stroke-width="1" /><polygon fill="none" id="8" points="77,32" stroke="black" stroke-width="1" /><polygon fill="none" id="9" points="83,30 84,31" stroke="black" stroke-width="1" /></svg>