<?xml version="1.0" encoding="utf-8" ?>
<svg baseProfile="full" height="100" version="1.1" width="100" xmlns="http://www.w3.org/2000/svg" xmlns:ev="http://www.w3.org/2001/xml-events" xmlns:xlink="http://www.w3.org/1999/xlink"><defs /><polygon fill="none" id="1" points="40,36 39,37 38,37 37,38 36,38 35,39 33,39 32,40 29,40 28,41 26,41 26,42 27,43 27,44 28,44 29,43 31,43 32,42 33,42 34,41 35,41 36,40 37,40 38,41 35,44 35,45 33,47 33,48 32,49 32,50 31,51 31,53 30,54 30,64 31,65 31,66 32,67 32,68 34,70 35,70 36,71 37,71 38,72 44,72 45,71 47,71 51,67 51,66 52,65 52,64 53,63 53,59 54,58 54,50 53,49 53,45 54,44 55,45 55,46 56,47 56,48 57,49 57,50 58,51 58,52 59,53 59,54 61,56 63,54 63,53 60,50 60,49 58,47 58,46 56,44 56,43 55,42 55,41 54,40 54,39 53,38 53,37 51,37 50,38 50,39 51,40 51,50 52,51 52,53 51,54 51,61 50,62 50,64 48,66 48,67 47,68 46,68 45,69 44,69 43,70 39,70 38,69 37,69 33,65 33,63 32,62 32,57 33,56 33,53 34,52 34,50 36,48 36,47 37,46 37,45 40,42 40,41 42,39 42,37 41,36" stroke="black" stroke-width="1" /><polygon fill="none" id="2" points="56,32 55,33 55,34 58,37 58,38 59,39 59,40 61,38 61,37 58,34 58,33 57,32" stroke="black" stroke-width="1" /><polygon fill="none" id="3" points="60,28 59,29 59,30 62,33 62,34 64,36 65,35 65,33" stroke="black" stroke-width="1" /></svg>