<?xml version="1.0" encoding="utf-8" ?>
<svg baseProfile="full" height="100" version="1.1" width="100" xmlns="http://www.w3.org/2000/svg" xmlns:ev="http://www.w3.org/2001/xml-events" xmlns:xlink="http://www.w3.org/1999/xlink"><defs /><polygon fill="none" id="1" points="54,36 53,37 51,37 50,38 48,38 47,39 44,39 43,40 39,40 38,41 34,41 36,43 36,44 37,44 38,43 41,43 42,42 45,42 46,41 47,41 48,40 50,40 51,41 50,42 49,42 44,47 44,48 42,50 42,51 41,52 41,54 40,55 40,63 41,64 41,65 42,66 42,67 44,69 45,69 46,70 47,70 48,71 50,71 51,72 60,72 61,71 63,71 64,70 65,70 70,65 70,63 71,62 71,59 72,58 72,49 71,48 71,45 72,44 74,46 74,47 76,49 76,50 79,53 79,54 81,56 82,56 84,54 84,53 76,45 76,44 72,40 72,39 71,38 71,37 68,37 67,38 67,40 68,41 68,46 69,47 69,56 68,57 68,60 67,61 67,63 65,65 65,66 64,67 63,67 61,69 59,69 58,70 52,70 51,69 49,69 45,65 45,64 44,63 44,62 43,61 43,57 44,56 44,54 45,53 45,52 46,51 46,50 48,48 48,47 55,40 56,40 57,39 57,38 55,36" stroke="black" stroke-width="1" /><polygon fill="none" id="2" points="74,32 73,33 73,34 74,34 79,39 79,40 80,39 81,39 82,38 76,32" stroke="black" stroke-width="1" /><polygon fill="none" id="3" points="79,29 78,30 79,30 85,36 86,36 88,34 87,33 86,33 82,29" stroke="black" stroke-width="1" /></svg>