<?xml version="1.0" encoding="utf-8" ?>
<svg baseProfile="full" height="100" version="1.1" width="100" xmlns="http://www.w3.org/2000/svg" xmlns:ev="http://www.w3.org/2001/xml-events" xmlns:xlink="http://www.w3.org/1999/xlink"><defs /><polygon fill="none" id="1" points="40,31 39,32 40,33 40,34 41,35 41,36 42,37 40,39 30,39 31,40 31,42 35,42 36,41 41,41 42,40 44,42 44,43 45,44 45,46 44,47 37,47 36,48 30,48 30,50 31,51 32,51 33,50 39,50 40,49 44,49 45,48 47,48 48,49 48,50 49,51 49,52 50,53 50,54 52,56 51,57 50,57 49,56 48,56 47,55 38,55 37,56 36,56 35,57 34,57 32,59 32,66 35,69 36,69 37,70 40,70 41,71 53,71 53,68 52,68 51,69 42,69 41,68 38,68 34,64 34,61 37,58 38,58 39,57 46,57 47,58 49,58 50,59 51,59 52,60 53,60 54,61 56,59 56,58 54,56 54,55 52,53 52,52 50,50 50,49 49,48 50,47 52,47 53,46 55,46 56,45 58,45 59,44 59,43 58,42 58,41 57,42 56,42 55,43 54,43 53,44 51,44 50,45 48,45 47,44 47,43 46,42 46,40 47,39 49,39 50,38 52,38 53,37 54,37 54,35 53,34 52,35 51,35 50,36 48,36 47,37 46,37 45,38 44,37 44,36 43,35 43,34 42,33 42,31" stroke="black" stroke-width="1" /></svg>