<?xml version="1.0" encoding="utf-8" ?>
<svg baseProfile="full" height="100" version="1.1" width="100" xmlns="http://www.w3.org/2000/svg" xmlns:ev="http://www.w3.org/2001/xml-events" xmlns:xlink="http://www.w3.org/1999/xlink"><defs /><polygon fill="none" id="1" points="36,36 35,37 34,37 33,38 32,38 31,39 29,39 28,40 26,40 25,41 23,41 23,43 24,44 24,45 26,45 27,44 28,44 29,43 30,43 31,44 31,45 30,46 30,47 29,48 29,49 28,50 28,51 27,52 27,56 26,57 26,63 27,64 27,66 28,67 28,68 29,69 29,70 30,71 31,71 32,72 33,72 34,73 40,73 41,72 42,72 43,71 44,71 46,69 46,68 47,67 47,65 48,64 48,60 49,59 49,51 50,50 51,51 51,52 52,53 52,54 53,55 53,56 54,57 55,57 57,55 57,53 55,51 55,50 53,48 53,47 52,46 52,45 50,43 50,42 49,41 49,40 48,39 48,37 45,37 44,38 44,39 45,40 45,44 46,45 46,58 45,59 45,62 44,63 44,65 40,69 39,69 38,70 36,70 35,69 34,69 31,66 31,65 30,64 30,55 31,54 31,52 32,51 32,50 33,49 33,48 34,47 34,46 35,45 35,44 39,40 39,38 38,37 38,36" stroke="black" stroke-width="1" /><polygon fill="none" id="2" points="48,48 49,47 50,48 50,50 49,51 48,50" stroke="black" stroke-width="1" /><polygon fill="none" id="3" points="30,43 31,42 32,43 31,44" stroke="black" stroke-width="1" /><polygon fill="none" id="4" points="53,29 52,30 52,31 51,32 50,32 49,33 49,35 51,37 51,38 52,39 52,40 53,41 54,41 55,40 55,37 56,36 57,37 58,37 59,36 59,34 58,33 58,32 55,29" stroke="black" stroke-width="1" /><polygon fill="none" id="5" points="54,36 55,35 56,36 55,37" stroke="black" stroke-width="1" /><polygon fill="none" id="6" points="53,34 54,33 55,34 55,35 54,36 53,35" stroke="black" stroke-width="1" /><polygon fill="none" id="7" points="52,33 53,32 54,33 53,34" stroke="black" stroke-width="1" /><polygon fill="none" id="8" points="51,32 52,31 53,32 52,33" stroke="black" stroke-width="1" /></svg>