<?xml version="1.0" encoding="utf-8" ?>
<svg baseProfile="full" height="100" version="1.1" width="100" xmlns="http://www.w3.org/2000/svg" xmlns:ev="http://www.w3.org/2001/xml-events" xmlns:xlink="http://www.w3.org/1999/xlink"><defs /><polygon fill="none" id="1" points="45,36 44,37 43,37 42,38 40,38 39,39 36,39 35,40 32,40 31,41 29,41 29,43 30,44 30,45 32,45 33,44 35,44 36,43 38,43 39,44 38,45 38,46 36,48 36,49 35,50 35,51 34,52 34,54 33,55 33,64 34,65 34,66 35,67 35,68 38,71 39,71 40,72 41,72 42,73 50,73 51,72 53,72 54,71 55,71 58,68 58,67 59,66 59,65 60,64 60,60 61,59 61,50 60,49 60,48 61,47 63,49 63,50 64,51 64,52 66,54 66,55 68,57 69,57 71,55 71,53 67,49 67,48 64,45 64,44 62,42 62,41 61,40 61,39 60,38 60,37 57,37 56,38 56,42 57,43 57,60 56,61 56,63 54,65 54,66 52,68 51,68 50,69 49,69 48,70 44,70 43,69 42,69 38,65 38,63 37,62 37,57 38,56 38,53 39,52 39,51 41,49 41,48 43,46 43,45 48,40 48,38 47,37 47,36" stroke="black" stroke-width="1" /><polygon fill="none" id="2" points="38,43 39,42 40,43 39,44" stroke="black" stroke-width="1" /><polygon fill="none" id="3" points="67,28 65,30 65,31 64,32 62,32 61,33 61,35 66,40 66,41 67,41 69,39 69,38 68,37 68,36 69,35 71,37 72,37 74,35 74,34 68,28" stroke="black" stroke-width="1" /><polygon fill="none" id="4" points="64,32 65,31 66,31 69,34 69,35 68,36" stroke="black" stroke-width="1" /></svg>