<?xml version="1.0" encoding="utf-8" ?>
<svg baseProfile="full" height="100" version="1.1" width="100" xmlns="http://www.w3.org/2000/svg" xmlns:ev="http://www.w3.org/2001/xml-events" xmlns:xlink="http://www.w3.org/1999/xlink"><defs /><polygon fill="none" id="1" points="54,36 53,37 51,37 50,38 48,38 47,39 44,39 43,40 39,40 38,41 34,41 34,42 36,44 36,45 38,45 39,44 42,44 43,43 46,43 47,44 44,47 44,48 42,50 42,51 41,52 41,54 40,55 40,64 41,65 41,66 42,67 42,68 44,70 45,70 46,71 47,71 48,72 50,72 51,73 61,73 62,72 64,72 65,71 66,71 71,66 71,64 72,63 72,60 73,59 73,49 74,48 76,50 76,51 79,54 79,55 81,57 83,57 85,55 85,53 77,45 77,44 73,40 73,39 72,38 72,37 68,37 67,38 67,41 68,42 68,47 69,48 69,56 68,57 68,60 67,61 67,63 65,65 65,66 64,67 63,67 61,69 59,69 58,70 53,70 52,69 50,69 46,65 46,64 45,63 45,62 44,61 44,58 45,57 45,55 46,54 46,53 47,52 47,51 49,49 49,48 56,41 57,41 58,40 58,38 56,36" stroke="black" stroke-width="1" /><polygon fill="none" id="2" points="72,47 73,46 74,47 74,48 73,49 72,48" stroke="black" stroke-width="1" /><polygon fill="none" id="3" points="46,43 47,42 48,43 47,44" stroke="black" stroke-width="1" /><polygon fill="none" id="4" points="79,29 78,30 78,31 77,32 74,32 73,33 73,35 74,35 79,40 79,41 80,41 81,40 82,40 83,39 83,38 77,32 78,31 79,31 85,37 87,37 89,35 89,34 88,33 87,33 83,29" stroke="black" stroke-width="1" /></svg>