<?xml version="1.0" encoding="utf-8" ?>
<svg baseProfile="full" height="100" version="1.1" width="100" xmlns="http://www.w3.org/2000/svg" xmlns:ev="http://www.w3.org/2001/xml-events" xmlns:xlink="http://www.w3.org/1999/xlink"><defs /><polygon fill="none" id="1" points="41,37 40,38 39,38 38,39 37,39 36,40 34,40 33,41 30,41 29,42 27,42 28,43 28,44 29,43 31,43 32,42 33,42 34,41 35,41 36,40 38,40 39,41 39,42 36,45 36,46 34,48 34,49 33,50 33,51 32,52 32,54 31,55 31,64 32,65 32,66 33,67 33,68 35,70 36,70 37,71 38,71 39,72 44,72 45,71 47,71 51,67 51,66 52,65 52,64 53,63 53,59 54,58 54,51 53,50 53,45 54,44 55,44 56,45 56,46 57,47 57,48 58,49 58,50 59,51 59,52 60,53 60,54 61,55 62,55 63,54 60,51 60,50 58,48 58,47 56,45 56,44 55,43 55,42 54,41 54,40 53,39 53,38 52,38 51,39 52,40 52,50 53,51 53,54 52,55 52,62 51,63 51,65 49,67 49,68 48,69 47,69 46,70 45,70 44,71 39,71 38,70 37,70 33,66 33,64 32,63 32,57 33,56 33,53 34,52 34,50 36,48 36,47 37,46 37,45 40,42 40,41 42,39 42,38" stroke="black" stroke-width="1" /><polygon fill="none" id="2" points="57,33 56,34 59,37 59,38 60,39 61,38 58,35 58,34" stroke="black" stroke-width="1" /><polygon fill="none" id="3" points="60,30 63,33 63,34 64,35 65,35 65,34 61,30" stroke="black" stroke-width="1" /></svg>