<?xml version="1.0" encoding="utf-8" ?>
<svg baseProfile="full" height="100" version="1.1" width="100" xmlns="http://www.w3.org/2000/svg" xmlns:ev="http://www.w3.org/2001/xml-events" xmlns:xlink="http://www.w3.org/1999/xlink"><defs /><polygon fill="none" id="1" points="45,31 44,32 44,33 45,34 45,35 46,36 46,38 45,39 34,39 34,41 35,42 39,42 40,41 46,41 47,40 49,42 49,43 50,44 50,46 49,47 41,47 40,48 33,48 34,49 34,51 35,51 36,50 44,50 45,49 50,49 51,48 52,48 53,49 53,50 54,51 54,52 58,56 57,57 56,57 55,56 53,56 52,55 43,55 42,56 40,56 39,57 38,57 36,59 36,60 35,61 35,64 36,65 36,66 39,69 40,69 41,70 45,70 46,71 59,71 59,69 58,68 57,69 47,69 46,68 42,68 38,64 38,61 41,58 43,58 44,57 51,57 52,58 55,58 56,59 57,59 58,60 59,60 60,61 62,59 62,58 60,56 60,55 58,53 58,52 55,49 55,48 56,47 58,47 59,46 61,46 62,45 64,45 65,44 66,44 65,43 65,42 64,41 63,42 62,42 61,43 60,43 59,44 57,44 56,45 54,45 52,43 52,42 51,41 51,40 52,39 55,39 56,38 58,38 59,37 60,37 60,35 59,34 58,35 57,35 56,36 54,36 53,37 51,37 50,38 49,37 49,36 48,35 48,34 47,33 47,31" stroke="black" stroke-width="1" /></svg>