<?xml version="1.0" encoding="utf-8" ?>
<svg baseProfile="full" height="100" version="1.1" width="100" xmlns="http://www.w3.org/2000/svg" xmlns:ev="http://www.w3.org/2001/xml-events" xmlns:xlink="http://www.w3.org/1999/xlink"><defs /><polygon fill="none" id="1" points="35,71 38,71" stroke="black" stroke-width="1" /><polygon fill="none" id="2" points="40,70" stroke="black" stroke-width="1" /><polygon fill="none" id="3" points="33,70" stroke="black" stroke-width="1" /><polygon fill="none" id="4" points="30,68 31,69" stroke="black" stroke-width="1" /><polygon fill="none" id="5" points="44,67 42,69" stroke="black" stroke-width="1" /><polygon fill="none" id="6" points="29,66" stroke="black" stroke-width="1" /><polygon fill="none" id="7" points="45,64 45,65" stroke="black" stroke-width="1" /><polygon fill="none" id="8" points="46,60 46,62" stroke="black" stroke-width="1" /><polygon fill="none" id="9" points="47,52 47,57" stroke="black" stroke-width="1" /><polygon fill="none" id="10" points="29,51 29,52 28,53 28,57 27,58 27,61 28,62 28,64 28,53 29,52" stroke="black" stroke-width="1" /><polygon fill="none" id="11" points="52,50 53,51 53,52 54,53 54,54 54,53 53,52 53,51" stroke="black" stroke-width="1" /><polygon fill="none" id="12" points="30,49" stroke="black" stroke-width="1" /><polygon fill="none" id="13" points="51,48" stroke="black" stroke-width="1" /><polygon fill="none" id="14" points="31,47" stroke="black" stroke-width="1" /><polygon fill="none" id="15" points="32,45" stroke="black" stroke-width="1" /><polygon fill="none" id="16" points="27,41 26,42 25,42 26,42 27,41 28,41" stroke="black" stroke-width="1" /><polygon fill="none" id="17" points="30,40" stroke="black" stroke-width="1" /><polygon fill="none" id="18" points="53,38" stroke="black" stroke-width="1" /><polygon fill="none" id="19" points="46,38 46,42 47,43 48,43 47,42 47,41 46,40" stroke="black" stroke-width="1" /><polygon fill="none" id="20" points="35,38 34,39 33,39 34,39 35,40 36,39 36,38" stroke="black" stroke-width="1" /><polygon fill="none" id="21" points="56,33" stroke="black" stroke-width="1" /></svg>