<?xml version="1.0" encoding="utf-8" ?>
<svg baseProfile="full" height="100" version="1.1" width="100" xmlns="http://www.w3.org/2000/svg" xmlns:ev="http://www.w3.org/2001/xml-events" xmlns:xlink="http://www.w3.org/1999/xlink"><defs /><polygon fill="none" id="1" points="43,71 48,71" stroke="black" stroke-width="1" /><polygon fill="none" id="2" points="41,70" stroke="black" stroke-width="1" /><polygon fill="none" id="3" points="64,48 65,49 65,50 67,52 67,53 68,54 68,53 65,50 65,49" stroke="black" stroke-width="1" /><polygon fill="none" id="4" points="62,45" stroke="black" stroke-width="1" /><polygon fill="none" id="5" points="41,44 39,46 39,47 37,49 37,50 36,51 36,52 35,53 35,55 34,56 34,62 35,63 35,64 36,65 36,66 39,69 36,66 36,64 35,63 35,55 36,54 36,51 37,50 37,49 39,47 39,46" stroke="black" stroke-width="1" /><polygon fill="none" id="6" points="37,40 36,41 33,41 32,42 31,42 33,42 34,41 36,41 37,40 38,40" stroke="black" stroke-width="1" /><polygon fill="none" id="7" points="58,38 57,39 57,40 58,41 58,61 57,62 57,64 55,66 55,67 53,69 52,69 51,70 50,70 51,70 52,69 53,69 56,66 56,65 57,64 57,63 58,62 58,58 59,57 59,51 58,50 58,44 59,43 60,43 60,42 59,41 59,40 58,39" stroke="black" stroke-width="1" /><polygon fill="none" id="8" points="44,38 43,39 41,39 42,39 43,40 43,41 45,39 45,38" stroke="black" stroke-width="1" /><polygon fill="none" id="9" points="63,34 66,37" stroke="black" stroke-width="1" /><polygon fill="none" id="10" points="70,33 71,34" stroke="black" stroke-width="1" /></svg>