<?xml version="1.0" encoding="utf-8" ?>
<svg baseProfile="full" height="100" version="1.1" width="100" xmlns="http://www.w3.org/2000/svg" xmlns:ev="http://www.w3.org/2001/xml-events" xmlns:xlink="http://www.w3.org/1999/xlink"><defs /><polygon fill="none" id="1" points="45,70 46,70 47,71 54,71 55,70 56,70 55,70 54,71 47,71 46,70" stroke="black" stroke-width="1" /><polygon fill="none" id="2" points="69,46 70,47 70,48 72,50 72,51 75,54 75,53 71,49 71,48" stroke="black" stroke-width="1" /><polygon fill="none" id="3" points="41,40 40,41 37,41 36,42 34,42 37,42 38,41 40,41 41,40 42,40" stroke="black" stroke-width="1" /><polygon fill="none" id="4" points="63,38 63,41 64,42 64,60 63,61 63,63 62,64 62,65 58,69 59,68 60,68 61,67 61,66 63,64 63,62 64,61 64,58 65,57 65,51 64,50 64,44 65,43 66,43 66,42 65,41 65,40 64,39 64,38" stroke="black" stroke-width="1" /><polygon fill="none" id="5" points="50,37 49,38 48,38 47,39 45,39 46,39 47,40 47,42 43,46 43,47 40,50 40,51 39,52 39,53 38,54 38,56 37,57 37,61 38,62 38,64 43,69 40,66 40,65 39,64 39,54 40,53 40,51 41,50 41,49 43,47 43,46 50,39" stroke="black" stroke-width="1" /><polygon fill="none" id="6" points="77,33 78,34" stroke="black" stroke-width="1" /><polygon fill="none" id="7" points="69,33 72,36 72,37 73,38 73,37" stroke="black" stroke-width="1" /><polygon fill="none" id="8" points="74,30" stroke="black" stroke-width="1" /></svg>