<?xml version="1.0" encoding="utf-8" ?>
<svg baseProfile="full" height="100" version="1.1" width="100" xmlns="http://www.w3.org/2000/svg" xmlns:ev="http://www.w3.org/2001/xml-events" xmlns:xlink="http://www.w3.org/1999/xlink"><defs /><polygon fill="none" id="1" points="49,70 50,70" stroke="black" stroke-width="1" /><polygon fill="none" id="2" points="50,43 45,48 45,49 43,51 43,52 42,53 42,55 41,56 41,62 42,63 42,64 43,65 43,66 45,68 46,68 47,69 44,66 44,65 43,64 43,63 42,62 42,56 43,55 43,53 44,52 44,51 45,50 45,49 47,47 47,46" stroke="black" stroke-width="1" /><polygon fill="none" id="3" points="45,40 44,41 40,41 39,42 37,42 40,42 41,41 44,41 45,40 46,40" stroke="black" stroke-width="1" /><polygon fill="none" id="4" points="69,38 68,39 69,40 69,45 70,46 70,57 69,58 69,61 68,62 68,64 66,66 66,67 65,68 64,68 62,70 60,70 59,71 52,71 59,71 60,70 62,70 63,69 64,69 69,64 69,62 70,61 70,58 71,57 71,50 70,49 70,44 71,43 73,43 75,45 75,46 77,48 77,49 80,52 80,53 81,54 82,54 82,53 75,46 75,45 71,41 71,40 70,39 70,38" stroke="black" stroke-width="1" /><polygon fill="none" id="5" points="52,38 51,39 49,39 51,39 52,40 52,41 54,39 55,39 55,38" stroke="black" stroke-width="1" /><polygon fill="none" id="6" points="75,33 80,38" stroke="black" stroke-width="1" /><polygon fill="none" id="7" points="81,30 85,34 86,34 85,34" stroke="black" stroke-width="1" /></svg>