<?xml version="1.0" encoding="utf-8" ?>
<svg baseProfile="full" height="100" version="1.1" width="100" xmlns="http://www.w3.org/2000/svg" xmlns:ev="http://www.w3.org/2001/xml-events" xmlns:xlink="http://www.w3.org/1999/xlink"><defs /><polygon fill="none" id="1" points="49,32 49,33 48,34 48,38 46,40 38,40 37,39 37,41 44,41 45,40 47,40 48,41 48,45 47,46 47,50 46,51 45,51 44,52 43,52 41,54 40,54 36,58 36,59 35,60 35,62 34,63 34,66 35,67 35,68 36,68 37,69 41,69 42,68 43,68 44,67 45,67 46,66 48,66 49,67 49,68 51,68 51,67 50,66 50,64 55,59 55,58 57,56 57,55 59,53 59,52 60,51 60,50 62,48 65,48 66,49 67,49 68,50 69,50 73,54 73,62 68,67 67,67 66,68 64,68 63,69 58,69 59,70 59,71 62,71 63,70 65,70 66,69 68,69 70,67 71,67 74,64 74,63 75,62 75,60 76,59 76,58 75,57 75,54 74,53 74,52 72,50 71,50 70,49 69,49 68,48 66,48 65,47 63,47 62,46 62,45 63,44 60,44 60,46 59,47 56,47 55,48 50,48 49,47 49,45 50,44 50,41 51,40 56,40 57,39 62,39 63,38 66,38 66,36 65,37 61,37 60,38 55,38 54,39 51,39 50,38 50,36 51,35 51,32" stroke="black" stroke-width="1" /><polygon fill="none" id="2" points="45,52 47,52 48,53 48,54 47,55 47,59 48,60 48,63 44,67 43,67 42,68 38,68 36,66 36,62 37,61 37,60" stroke="black" stroke-width="1" /><polygon fill="none" id="3" points="53,49 54,48 58,48 59,49 59,50 58,51 58,52 57,53 57,54 55,56 55,57 53,59 53,60 52,61 50,61 49,60 49,51 51,49" stroke="black" stroke-width="1" /></svg>