<?xml version="1.0" encoding="utf-8" ?>
<svg baseProfile="full" height="100" version="1.1" width="100" xmlns="http://www.w3.org/2000/svg" xmlns:ev="http://www.w3.org/2001/xml-events" xmlns:xlink="http://www.w3.org/1999/xlink"><defs /><polygon fill="none" id="1" points="31,52 31,54 30,55 30,57 29,58 29,59 28,60 28,61 25,64 25,67 27,69 28,69 28,68 30,66 30,65 31,64 31,63 32,62 32,61 33,60 33,59 34,58 34,56 35,55 35,53 34,53 33,52" stroke="black" stroke-width="1" /><polygon fill="none" id="2" points="55,50 54,51 53,51 53,53 55,55 55,56 57,58 57,59 58,60 58,61 59,62 59,63 60,64 60,65 61,66 61,67 62,67 64,65 65,65 65,63 63,61 63,60 62,59 62,58 60,56 60,55 58,53 58,52 56,50" stroke="black" stroke-width="1" /><polygon fill="none" id="3" points="41,46 41,53 42,54 42,55 43,56 43,57 47,61 47,62 48,63 48,67 46,69 43,69 42,68 41,68 38,65 38,64 36,64 35,65 35,68 37,70 38,70 39,71 40,71 41,72 48,72 51,69 51,68 52,67 52,63 51,62 51,60 50,59 50,58 46,54 46,53 45,52 45,50 44,49 44,48 45,47 45,46" stroke="black" stroke-width="1" /><polygon fill="none" id="4" points="39,33 39,34 38,35 38,36 39,36 40,37 41,37 42,38 43,38 45,40 46,40 48,42 51,42 51,41 52,40 52,39 51,38 50,38 48,36 47,36 46,35 45,35 44,34 43,34 42,33" stroke="black" stroke-width="1" /><polygon fill="none" id="5" points="58,32 58,34 57,35 55,35 54,36 54,37 56,39 56,40 58,42 58,43 61,43 62,42 62,41 63,40 64,40 66,38 66,37 62,33 62,32" stroke="black" stroke-width="1" /><polygon fill="none" id="6" points="61,40 62,39 63,40 62,41" stroke="black" stroke-width="1" /><polygon fill="none" id="7" points="59,37 60,36 62,38 62,39 61,40 59,38" stroke="black" stroke-width="1" /><polygon fill="none" id="8" points="58,36 59,35 60,36 59,37" stroke="black" stroke-width="1" /><polygon fill="none" id="9" points="57,35 58,34 59,35 58,36" stroke="black" stroke-width="1" /></svg>