<?xml version="1.0" encoding="utf-8" ?>
<svg baseProfile="full" height="100" version="1.1" width="100" xmlns="http://www.w3.org/2000/svg" xmlns:ev="http://www.w3.org/2001/xml-events" xmlns:xlink="http://www.w3.org/1999/xlink"><defs /><polygon fill="none" id="1" points="38,52 38,53 37,54 37,56 35,58 35,59 34,60 34,61 30,65 30,67 31,67 33,69 34,69 35,68 35,67 37,65 37,64 40,61 40,60 41,59 41,58 42,57 42,56 43,55 43,53 42,53 41,52" stroke="black" stroke-width="1" /><polygon fill="none" id="2" points="67,50 66,51 65,51 65,53 68,56 68,57 71,60 71,61 73,63 73,64 74,65 74,66 75,67 76,67 78,65 79,65 79,63 77,61 77,60 75,58 75,57 69,51 69,50" stroke="black" stroke-width="1" /><polygon fill="none" id="3" points="50,46 50,51 51,52 51,54 52,55 52,56 58,62 58,63 59,64 59,66 56,69 52,69 51,68 50,68 48,66 47,66 46,65 46,64 44,64 42,66 42,67 44,69 45,69 46,70 47,70 48,71 49,71 50,72 58,72 59,71 60,71 61,70 62,70 62,69 63,68 63,61 62,60 62,59 55,52 55,51 54,50 54,48 55,47 55,46" stroke="black" stroke-width="1" /><polygon fill="none" id="4" points="48,33 47,34 47,36 48,36 49,37 50,37 51,38 53,38 54,39 55,39 56,40 57,40 59,42 62,42 64,40 64,39 63,39 62,38 61,38 60,37 59,37 58,36 57,36 56,35 55,35 54,34 52,34 51,33" stroke="black" stroke-width="1" /><polygon fill="none" id="5" points="73,31 72,32 71,32 71,34 70,35 67,35 66,36 66,37 71,42 71,43 74,43 75,42 75,40 76,39 77,40 78,40 79,39 80,39 80,37 74,31" stroke="black" stroke-width="1" /><polygon fill="none" id="6" points="70,35 71,34 72,34 76,38 76,39 75,40" stroke="black" stroke-width="1" /></svg>