<?xml version="1.0" encoding="utf-8" ?>
<svg baseProfile="full" height="100" version="1.1" width="100" xmlns="http://www.w3.org/2000/svg" xmlns:ev="http://www.w3.org/2001/xml-events" xmlns:xlink="http://www.w3.org/1999/xlink"><defs /><polygon fill="none" id="1" points="42,52 41,53 41,55 40,56 40,57 37,60 37,61 33,65 33,67 34,67 36,69 37,69 40,66 40,65 42,63 42,62 43,61 43,60 45,58 45,57 47,55 47,53 45,53 44,52" stroke="black" stroke-width="1" /><polygon fill="none" id="2" points="73,50 72,51 71,51 71,53 77,59 77,60 79,62 79,63 80,64 80,65 82,67 83,67 85,65 86,65 86,63 84,61 84,60 82,58 82,57 75,50" stroke="black" stroke-width="1" /><polygon fill="none" id="3" points="54,46 54,47 55,48 55,53 56,54 56,55 64,63 64,64 65,65 64,66 64,67 63,68 62,68 61,69 57,69 56,68 55,68 54,67 53,67 50,64 48,64 46,66 46,67 48,69 49,69 50,70 51,70 52,71 54,71 55,72 63,72 64,71 66,71 68,69 68,68 69,67 69,62 68,61 68,60 60,52 60,51 59,50 59,48 60,47 60,46" stroke="black" stroke-width="1" /><polygon fill="none" id="4" points="53,33 52,34 51,34 51,36 52,36 53,37 55,37 56,38 57,38 58,39 60,39 61,40 62,40 63,41 64,41 66,43 67,43 70,40 70,39 69,39 68,38 67,38 66,37 65,37 64,36 62,36 61,35 60,35 59,34 57,34 56,33" stroke="black" stroke-width="1" /><polygon fill="none" id="5" points="78,32 78,34 80,36 81,36 83,38 83,39 82,40 81,40 76,35 73,35 72,36 72,37 78,43 81,43 82,42 82,40 83,39 84,40 85,40 86,39 87,39 88,38 88,37 87,36 86,36 82,32" stroke="black" stroke-width="1" /></svg>