<?xml version="1.0" encoding="utf-8" ?>
<svg baseProfile="full" height="100" version="1.1" width="100" xmlns="http://www.w3.org/2000/svg" xmlns:ev="http://www.w3.org/2001/xml-events" xmlns:xlink="http://www.w3.org/1999/xlink"><defs /><polygon fill="none" id="1" points="36,31 35,32 35,34 36,35 36,36 37,37 37,38 36,39 27,39 27,42 28,43 32,43 33,42 38,42 39,43 39,44 40,45 40,46 39,47 33,47 32,48 27,48 27,52 29,52 30,51 36,51 37,50 40,50 41,49 43,51 43,52 44,53 44,54 45,55 44,56 43,56 42,55 34,55 33,56 32,56 29,59 29,60 28,61 28,66 29,67 29,68 31,70 32,70 33,71 35,71 36,72 48,72 48,68 46,68 45,69 38,69 37,68 35,68 31,64 31,62 34,59 35,59 36,58 41,58 42,59 44,59 45,60 46,60 48,62 49,62 51,60 51,59 50,58 50,57 49,56 49,55 47,53 47,52 46,51 46,50 45,49 46,48 47,48 48,47 50,47 51,46 52,46 53,45 54,45 54,44 53,43 53,42 52,41 51,41 49,43 48,43 47,44 46,44 45,45 44,45 42,43 42,41 43,40 45,40 46,39 47,39 48,38 49,38 49,35 48,34 47,34 46,35 45,35 44,36 43,36 42,37 41,37 39,35 39,33 38,32 38,31" stroke="black" stroke-width="1" /></svg>