<?xml version="1.0" encoding="utf-8" ?>
<svg baseProfile="full" height="100" version="1.1" width="100" xmlns="http://www.w3.org/2000/svg" xmlns:ev="http://www.w3.org/2001/xml-events" xmlns:xlink="http://www.w3.org/1999/xlink"><defs /><polygon fill="none" id="1" points="34,51 33,52 33,54 32,55 32,56 31,57 31,58 30,59 30,60 26,64 26,66 29,69 31,69 31,68 33,66 33,65 35,63 35,62 36,61 36,60 37,59 37,58 38,57 38,56 39,55 39,52 38,52 37,51" stroke="black" stroke-width="1" /><polygon fill="none" id="2" points="60,49 59,50 58,50 58,53 60,55 60,56 63,59 63,60 65,62 65,63 66,64 66,65 67,66 67,67 69,67 71,65 72,65 72,62 70,60 70,59 69,58 69,57 66,54 66,53 62,49" stroke="black" stroke-width="1" /><polygon fill="none" id="3" points="44,45 44,47 45,48 45,54 47,56 47,57 52,62 52,66 50,68 48,68 47,67 46,67 45,66 44,66 42,64 42,63 39,63 37,65 37,67 39,69 40,69 42,71 44,71 45,72 53,72 54,71 55,71 57,69 57,59 52,54 52,53 50,51 50,50 49,49 49,48 50,47 50,45" stroke="black" stroke-width="1" /><polygon fill="none" id="4" points="65,30 64,31 64,33 63,34 60,34 59,35 59,37 58,38 57,37 56,37 55,36 54,36 53,35 52,35 51,34 50,34 49,33 48,33 47,32 43,32 42,33 42,36 43,37 45,37 46,38 47,38 48,39 49,39 51,41 52,41 54,43 56,43 56,42 58,40 58,38 59,37 63,41 63,42 64,43 64,44 66,44 68,42 68,41 69,40 71,40 73,38 73,36 67,30" stroke="black" stroke-width="1" /></svg>