<?xml version="1.0" encoding="utf-8" ?>
<svg baseProfile="full" height="100" version="1.1" width="100" xmlns="http://www.w3.org/2000/svg" xmlns:ev="http://www.w3.org/2001/xml-events" xmlns:xlink="http://www.w3.org/1999/xlink"><defs /><polygon fill="none" id="1" points="37,51 37,52 36,53 36,55 34,57 34,58 33,59 33,60 29,64 29,67 30,67 32,69 34,69 35,68 35,67 37,65 37,64 40,61 40,60 41,59 41,58 42,57 42,56 43,55 43,52 42,52 41,51" stroke="black" stroke-width="1" /><polygon fill="none" id="2" points="66,49 65,50 64,50 64,53 67,56 67,57 70,60 70,61 72,63 72,64 73,65 73,66 74,67 76,67 78,65 79,65 79,62 77,60 77,59 75,57 75,56 69,50 69,49" stroke="black" stroke-width="1" /><polygon fill="none" id="3" points="49,45 49,51 50,52 50,54 51,55 51,56 57,62 57,63 58,64 58,65 55,68 52,68 51,67 50,67 48,65 47,65 46,64 46,63 43,63 41,65 41,67 43,69 44,69 45,70 46,70 47,71 48,71 49,72 58,72 59,71 60,71 61,70 62,70 62,69 63,68 63,60 62,59 62,58 55,51 55,50 54,49 54,48 55,47 55,45" stroke="black" stroke-width="1" /><polygon fill="none" id="4" points="72,30 71,31 70,31 70,33 69,34 66,34 65,35 65,37 64,38 63,38 62,37 61,37 60,36 59,36 58,35 57,35 56,34 55,34 54,33 52,33 51,32 47,32 46,33 46,36 47,36 48,37 49,37 50,38 52,38 53,39 54,39 55,40 56,40 58,42 62,42 64,40 64,38 65,37 70,42 70,43 74,43 75,42 75,41 76,40 78,40 79,39 80,39 80,36 74,30" stroke="black" stroke-width="1" /></svg>