<?xml version="1.0" encoding="utf-8" ?>
<svg baseProfile="full" height="100" version="1.1" width="100" xmlns="http://www.w3.org/2000/svg" xmlns:ev="http://www.w3.org/2001/xml-events" xmlns:xlink="http://www.w3.org/1999/xlink"><defs /><polygon fill="none" id="1" points="42,70 46,70" stroke="black" stroke-width="1" /><polygon fill="none" id="2" points="40,69" stroke="black" stroke-width="1" /><polygon fill="none" id="3" points="36,66 38,68" stroke="black" stroke-width="1" /><polygon fill="none" id="4" points="32,54 32,55 31,56 31,58 30,59 30,60 29,61 29,62 26,65 27,65 28,64 28,63 29,62 29,61 30,60 30,59 31,58 31,57 32,56" stroke="black" stroke-width="1" /><polygon fill="none" id="5" points="55,52 56,53 56,54 58,56 58,57 59,58 59,59 60,60 60,61 61,62 61,63 62,63 61,62 61,61 60,60 60,59 58,57 58,56 56,54 56,53" stroke="black" stroke-width="1" /><polygon fill="none" id="6" points="42,47 42,51 43,52 43,53 44,54 44,55 48,59 48,60 49,61 49,67 49,66 50,65 50,64 49,63 49,61 48,60 48,59 44,55 44,54 43,53 43,51 42,50" stroke="black" stroke-width="1" /><polygon fill="none" id="7" points="59,41" stroke="black" stroke-width="1" /><polygon fill="none" id="8" points="57,38" stroke="black" stroke-width="1" /><polygon fill="none" id="9" points="63,37" stroke="black" stroke-width="1" /><polygon fill="none" id="10" points="40,34 41,35 42,35 43,36 44,36 46,38 47,38 49,40 49,39 48,39 46,37 45,37 44,36 43,36 42,35 41,35" stroke="black" stroke-width="1" /><polygon fill="none" id="11" points="60,33" stroke="black" stroke-width="1" /></svg>