<?xml version="1.0" encoding="utf-8" ?>
<svg baseProfile="full" height="100" version="1.1" width="100" xmlns="http://www.w3.org/2000/svg" xmlns:ev="http://www.w3.org/2001/xml-events" xmlns:xlink="http://www.w3.org/1999/xlink"><defs /><polygon fill="none" id="1" points="40,31 39,32 39,33 40,34 40,35 41,36 41,38 40,39 30,39 30,40 31,41 31,43 36,43 37,42 43,42 44,43 44,44 45,45 45,46 44,47 37,47 36,48 30,48 30,51 31,52 33,52 34,51 40,51 41,50 45,50 46,49 47,49 48,50 48,51 49,52 49,53 50,54 50,55 49,56 48,55 38,55 37,56 36,56 35,57 34,57 32,59 32,67 35,70 36,70 37,71 40,71 41,72 54,72 54,68 52,68 51,69 43,69 42,68 39,68 35,64 35,62 38,59 39,59 40,58 46,58 47,59 49,59 50,60 51,60 52,61 53,61 54,62 55,62 57,60 57,58 55,56 55,55 53,53 53,52 51,50 51,49 52,48 53,48 54,47 56,47 57,46 59,46 60,45 60,43 59,42 59,41 58,41 57,42 56,42 55,43 54,43 53,44 51,44 50,45 49,45 48,44 48,43 47,42 47,41 48,40 50,40 51,39 53,39 54,38 55,38 55,35 54,34 53,34 52,35 51,35 50,36 48,36 47,37 46,37 44,35 44,34 43,33 43,31" stroke="black" stroke-width="1" /></svg>