<?xml version="1.0" encoding="utf-8" ?>
<svg baseProfile="full" height="100" version="1.1" width="100" xmlns="http://www.w3.org/2000/svg" xmlns:ev="http://www.w3.org/2001/xml-events" xmlns:xlink="http://www.w3.org/1999/xlink"><defs /><polygon fill="none" id="1" points="56,70 61,70" stroke="black" stroke-width="1" /><polygon fill="none" id="2" points="48,66 49,67 50,67 51,68 52,68 53,69 54,69 53,69 52,68 51,68 49,66" stroke="black" stroke-width="1" /><polygon fill="none" id="3" points="42,54 42,56 41,57 41,58 38,61 38,62 35,65 36,66 38,64 38,63 40,61 40,60 41,59 41,58 43,56 43,55 44,54" stroke="black" stroke-width="1" /><polygon fill="none" id="4" points="73,52 78,57 78,58 80,60 80,61 81,62 81,63 82,64 83,63 82,62 82,61 80,59 80,58 74,52" stroke="black" stroke-width="1" /><polygon fill="none" id="5" points="56,47 56,51 57,52 57,53 65,61 65,62 66,63 66,66 65,67 65,68 64,69 63,69 64,69 66,67 66,66 67,65 67,63 66,62 66,61 58,53 58,52 57,51 57,47" stroke="black" stroke-width="1" /><polygon fill="none" id="6" points="84,37 85,37" stroke="black" stroke-width="1" /><polygon fill="none" id="7" points="74,36 79,41" stroke="black" stroke-width="1" /><polygon fill="none" id="8" points="54,34 54,35 56,35 57,36 58,36 59,37 61,37 62,38 63,38 64,39 65,39 66,40 66,39 65,39 64,38 63,38 62,37 60,37 59,36 58,36 57,35 55,35" stroke="black" stroke-width="1" /><polygon fill="none" id="9" points="80,33 81,34" stroke="black" stroke-width="1" /></svg>