<?xml version="1.0" encoding="utf-8" ?>
<svg baseProfile="full" height="100" version="1.1" width="100" xmlns="http://www.w3.org/2000/svg" xmlns:ev="http://www.w3.org/2001/xml-events" xmlns:xlink="http://www.w3.org/1999/xlink"><defs /><polygon fill="none" id="1" points="43,43 31,55 30,55 28,57 30,59 30,60 32,58 33,58 44,47 45,47 47,49 48,49 54,55 55,55 58,58 59,58 62,61 63,61 64,62 65,62 68,65 71,62 70,61 69,61 68,60 67,60 65,58 64,58 63,57 62,57 59,54 58,54 54,50 53,50 46,43" stroke="black" stroke-width="1" /><polygon fill="none" id="2" points="57,38 56,39 56,40 57,40 59,42 59,43 61,45 61,46 63,44 63,43 58,38" stroke="black" stroke-width="1" /><polygon fill="none" id="3" points="62,34 61,35 61,36 64,39 64,40 66,42 68,40" stroke="black" stroke-width="1" /></svg>