<?xml version="1.0" encoding="utf-8" ?>
<svg baseProfile="full" height="100" version="1.1" width="100" xmlns="http://www.w3.org/2000/svg" xmlns:ev="http://www.w3.org/2001/xml-events" xmlns:xlink="http://www.w3.org/1999/xlink"><defs /><polygon fill="none" id="1" points="35,43 31,47 31,48 22,57 24,59 24,60 29,55 29,54 32,51 32,50 35,47 36,47 41,52 41,53 46,58 47,58 52,63 53,63 54,64 55,64 56,63 56,61 55,61 53,59 52,59 38,45 38,44 37,43" stroke="black" stroke-width="1" /><polygon fill="none" id="2" points="46,38 45,39 45,40 47,42 47,43 48,44 48,45 49,46 50,45 50,43 49,42 49,41" stroke="black" stroke-width="1" /><polygon fill="none" id="3" points="49,35 48,36 52,40 52,41 53,42 54,41 54,40 53,39 53,38 50,35" stroke="black" stroke-width="1" /></svg>