<?xml version="1.0" encoding="utf-8" ?>
<svg baseProfile="full" height="100" version="1.1" width="100" xmlns="http://www.w3.org/2000/svg" xmlns:ev="http://www.w3.org/2001/xml-events" xmlns:xlink="http://www.w3.org/1999/xlink"><defs /><polygon fill="none" id="1" points="39,43 35,47 35,48 28,55 27,55 25,57 27,59 27,60 37,50 37,49 39,47 41,47 52,58 53,58 56,61 57,61 60,64 62,64 64,62 63,61 62,61 60,59 59,59 57,57 56,57 53,54 52,54 41,43" stroke="black" stroke-width="1" /><polygon fill="none" id="2" points="51,38 50,39 53,42 53,43 55,45 55,46 57,44 56,43 56,42 52,38" stroke="black" stroke-width="1" /><polygon fill="none" id="3" points="56,34 54,36 55,36 57,38 57,39 59,41 59,42 60,42 61,41 61,40 59,38 59,37" stroke="black" stroke-width="1" /></svg>