<?xml version="1.0" encoding="utf-8" ?>
<svg baseProfile="full" height="100" version="1.1" width="100" xmlns="http://www.w3.org/2000/svg" xmlns:ev="http://www.w3.org/2001/xml-events" xmlns:xlink="http://www.w3.org/1999/xlink"><defs /><polygon fill="none" id="1" points="48,43 47,44 46,44 38,52 37,52 34,55 33,55 31,57 33,59 33,60 34,59 35,59 39,55 40,55 48,47 50,47 53,50 54,50 58,54 59,54 61,56 62,56 65,59 66,59 67,60 68,60 70,62 71,62 72,63 73,63 75,65 78,62 78,61 76,61 75,60 74,60 73,59 72,59 71,58 70,58 68,56 67,56 65,54 64,54 62,52 61,52 57,48 56,48 51,43" stroke="black" stroke-width="1" /><polygon fill="none" id="2" points="63,38 62,39 61,39 67,45 67,46 68,45 69,45 70,44 64,38" stroke="black" stroke-width="1" /><polygon fill="none" id="3" points="68,34 67,35 67,36 72,41 72,42 73,42 75,40 70,35 69,35" stroke="black" stroke-width="1" /></svg>