<?xml version="1.0" encoding="utf-8" ?>
<svg baseProfile="full" height="100" version="1.1" width="100" xmlns="http://www.w3.org/2000/svg" xmlns:ev="http://www.w3.org/2001/xml-events" xmlns:xlink="http://www.w3.org/1999/xlink"><defs /><polygon fill="none" id="1" points="45,31 44,32 44,34 45,35 45,36 46,37 46,38 45,39 34,39 34,42 35,43 40,43 41,42 48,42 49,43 49,44 50,45 50,46 49,47 41,47 40,48 33,48 33,49 34,50 34,52 36,52 37,51 45,51 46,50 51,50 52,49 53,50 53,51 54,52 54,53 56,55 55,56 54,56 53,55 43,55 42,56 40,56 39,57 38,57 36,59 36,60 35,61 35,65 36,66 36,67 39,70 40,70 41,71 45,71 46,72 60,72 60,69 59,68 58,68 57,69 48,69 47,68 43,68 39,64 39,62 42,59 44,59 45,58 51,58 52,59 55,59 56,60 57,60 58,61 59,61 60,62 61,62 63,60 63,58 61,56 61,55 59,53 59,52 56,49 57,48 59,48 60,47 62,47 63,46 65,46 66,45 67,45 67,44 66,43 66,42 65,41 64,41 63,42 62,42 61,43 60,43 59,44 57,44 56,45 55,45 53,43 53,42 52,41 53,40 56,40 57,39 59,39 60,38 61,38 61,35 60,34 59,34 58,35 57,35 56,36 54,36 53,37 51,37 49,35 49,34 48,33 48,31" stroke="black" stroke-width="1" /></svg>