<?xml version="1.0" encoding="utf-8" ?>
<svg baseProfile="full" height="100" version="1.1" width="100" xmlns="http://www.w3.org/2000/svg" xmlns:ev="http://www.w3.org/2001/xml-events" xmlns:xlink="http://www.w3.org/1999/xlink"><defs /><polygon fill="none" id="1" points="35,43 31,47 31,48 22,57 22,58 24,60 24,61 25,61 30,56 30,55 33,52 33,51 36,48 41,53 41,54 46,59 47,59 52,64 53,64 54,65 56,65 57,64 57,61 56,61 54,59 53,59 39,45 39,44 38,43" stroke="black" stroke-width="1" /><polygon fill="none" id="2" points="49,35 48,36 48,37 47,38 46,38 45,39 45,41 47,43 47,44 48,45 48,46 49,47 50,47 51,46 51,43 52,42 53,43 54,43 55,42 55,40 54,39 54,38 51,35" stroke="black" stroke-width="1" /><polygon fill="none" id="3" points="50,41 51,40 52,41 52,42 51,43 50,42" stroke="black" stroke-width="1" /><polygon fill="none" id="4" points="49,40 50,39 51,40 50,41" stroke="black" stroke-width="1" /><polygon fill="none" id="5" points="48,39 49,38 50,39 49,40" stroke="black" stroke-width="1" /><polygon fill="none" id="6" points="47,38 48,37 49,38 48,39" stroke="black" stroke-width="1" /></svg>