<?xml version="1.0" encoding="utf-8" ?>
<svg baseProfile="full" height="100" version="1.1" width="100" xmlns="http://www.w3.org/2000/svg" xmlns:ev="http://www.w3.org/2001/xml-events" xmlns:xlink="http://www.w3.org/1999/xlink"><defs /><polygon fill="none" id="1" points="39,43 35,47 35,48 28,55 27,55 25,57 25,58 27,60 27,61 28,61 38,51 38,50 40,48 41,48 52,59 53,59 56,62 57,62 60,65 63,65 65,63 65,62 64,61 63,61 61,59 60,59 58,57 57,57 54,54 53,54 42,43" stroke="black" stroke-width="1" /><polygon fill="none" id="2" points="56,34 54,36 54,37 53,38 51,38 50,39 50,40 53,43 53,44 55,46 55,47 56,47 58,45 58,44 59,43 61,43 62,42 62,40 60,38 60,37 57,34" stroke="black" stroke-width="1" /><polygon fill="none" id="3" points="57,42 58,41 59,42 59,43 58,44 57,43" stroke="black" stroke-width="1" /><polygon fill="none" id="4" points="56,41 57,40 58,41 57,42" stroke="black" stroke-width="1" /><polygon fill="none" id="5" points="53,38 54,37 55,37 57,39 57,40 56,41" stroke="black" stroke-width="1" /></svg>