<?xml version="1.0" encoding="utf-8" ?>
<svg baseProfile="full" height="100" version="1.1" width="100" xmlns="http://www.w3.org/2000/svg" xmlns:ev="http://www.w3.org/2001/xml-events" xmlns:xlink="http://www.w3.org/1999/xlink"><defs /><polygon fill="none" id="1" points="40,44 36,48 36,49 29,56 28,56 27,57 27,58 28,59 37,50 37,49 39,47 42,47 53,58 54,58 57,61 58,61 61,64 62,64 63,63 63,62 62,62 60,60 59,60 57,58 56,58 53,55 52,55 41,44" stroke="black" stroke-width="1" /><polygon fill="none" id="2" points="52,39 52,40 54,42 54,43 56,45 56,43" stroke="black" stroke-width="1" /><polygon fill="none" id="3" points="56,36 58,38 58,39 60,41 60,42 61,41 59,39 59,38 57,36" stroke="black" stroke-width="1" /></svg>