<?xml version="1.0" encoding="utf-8" ?>
<svg baseProfile="full" height="100" version="1.1" width="100" xmlns="http://www.w3.org/2000/svg" xmlns:ev="http://www.w3.org/2001/xml-events" xmlns:xlink="http://www.w3.org/1999/xlink"><defs /><polygon fill="none" id="1" points="44,44 32,56 31,56 30,57 30,58 31,59 32,58 33,58 44,47 46,47 48,49 49,49 55,55 56,55 59,58 60,58 63,61 64,61 65,62 66,62 68,64 69,64 70,63 70,62 69,62 68,61 67,61 65,59 64,59 63,58 62,58 59,55 58,55 54,51 53,51 46,44" stroke="black" stroke-width="1" /><polygon fill="none" id="2" points="58,39 57,40 58,40 60,42 60,43 62,45 63,44" stroke="black" stroke-width="1" /><polygon fill="none" id="3" points="62,36 65,39 65,40 66,41 67,41 67,40 63,36" stroke="black" stroke-width="1" /></svg>