<?xml version="1.0" encoding="utf-8" ?>
<svg baseProfile="full" height="100" version="1.1" width="100" xmlns="http://www.w3.org/2000/svg" xmlns:ev="http://www.w3.org/2001/xml-events" xmlns:xlink="http://www.w3.org/1999/xlink"><defs /><polygon fill="none" id="1" points="49,31 48,32 48,34 50,36 50,37 51,38 50,39 37,39 37,41 38,42 38,43 44,43 45,42 51,42 52,41 54,43 54,44 55,45 55,46 54,47 45,47 44,48 37,48 37,51 38,52 40,52 41,51 49,51 50,50 56,50 57,49 58,50 58,51 62,55 61,56 60,56 59,55 47,55 46,56 44,56 43,57 42,57 39,60 39,66 43,70 44,70 45,71 49,71 50,72 66,72 66,69 65,68 64,68 63,69 52,69 51,68 47,68 43,64 43,62 46,59 48,59 49,58 57,58 58,59 61,59 62,60 63,60 64,61 65,61 66,62 68,62 70,60 70,59 67,56 67,55 64,52 64,51 62,49 63,48 65,48 66,47 68,47 69,46 72,46 73,45 74,45 74,44 73,43 73,42 72,41 71,41 70,42 69,42 68,43 66,43 65,44 63,44 62,45 60,45 58,43 58,42 57,41 58,40 61,40 62,39 65,39 66,38 68,38 68,37 67,36 67,35 66,34 65,34 64,35 62,35 61,36 59,36 58,37 55,37 54,36 54,34 53,33 53,31" stroke="black" stroke-width="1" /><polygon fill="none" id="2" points="61,56 62,55 63,56 62,57" stroke="black" stroke-width="1" /></svg>