<?xml version="1.0" encoding="utf-8" ?>
<svg baseProfile="full" height="100" version="1.1" width="100" xmlns="http://www.w3.org/2000/svg" xmlns:ev="http://www.w3.org/2001/xml-events" xmlns:xlink="http://www.w3.org/1999/xlink"><defs /><polygon fill="none" id="1" points="34,42 30,46 30,47 21,56 21,58 23,60 23,61 25,61 30,56 30,55 33,52 33,51 35,49 36,49 40,53 40,54 45,59 46,59 51,64 52,64 53,65 56,65 57,64 57,60 56,60 54,58 53,58 39,44 39,43 38,42" stroke="black" stroke-width="1" /><polygon fill="none" id="2" points="48,34 47,35 47,36 46,37 45,37 44,38 44,41 46,43 46,44 47,45 47,46 48,47 50,47 51,46 51,44 52,43 54,43 55,42 55,39 54,38 54,37 51,34" stroke="black" stroke-width="1" /></svg>