<?xml version="1.0" encoding="utf-8" ?>
<svg baseProfile="full" height="100" version="1.1" width="100" xmlns="http://www.w3.org/2000/svg" xmlns:ev="http://www.w3.org/2001/xml-events" xmlns:xlink="http://www.w3.org/1999/xlink"><defs /><polygon fill="none" id="1" points="47,42 46,43 45,43 37,51 36,51 33,54 32,54 30,56 30,58 32,60 32,61 34,61 35,60 36,60 40,56 41,56 49,48 52,51 53,51 57,55 58,55 60,57 61,57 64,60 65,60 66,61 67,61 69,63 70,63 71,64 72,64 74,66 76,66 79,63 79,60 77,60 76,59 75,59 74,58 73,58 72,57 71,57 69,55 68,55 66,53 65,53 63,51 62,51 58,47 57,47 52,42" stroke="black" stroke-width="1" /><polygon fill="none" id="2" points="67,33 66,34 66,36 65,37 62,37 61,38 60,38 60,40 66,46 66,47 68,47 69,46 70,46 71,45 71,44 72,43 74,43 76,41 76,39 71,34 70,34 69,33" stroke="black" stroke-width="1" /></svg>