<?xml version="1.0" encoding="utf-8" ?>
<svg baseProfile="full" height="100" version="1.1" width="100" xmlns="http://www.w3.org/2000/svg" xmlns:ev="http://www.w3.org/2001/xml-events" xmlns:xlink="http://www.w3.org/1999/xlink"><defs /><polygon fill="none" id="1" points="51,42 49,44 48,44 42,50 41,50 38,53 37,53 36,54 35,54 33,56 33,58 35,60 35,61 37,61 38,60 39,60 41,58 42,58 46,54 47,54 52,49 53,49 54,48 57,51 58,51 61,54 62,54 64,56 65,56 67,58 68,58 70,60 71,60 72,61 73,61 74,62 75,62 76,63 77,63 78,64 79,64 80,65 84,65 86,63 86,60 84,60 83,59 82,59 81,58 80,58 79,57 78,57 77,56 76,56 75,55 74,55 72,53 71,53 70,52 69,52 66,49 65,49 63,47 62,47 58,43 57,43 56,42" stroke="black" stroke-width="1" /><polygon fill="none" id="2" points="72,34 72,36 71,37 67,37 66,38 66,40 72,46 72,47 74,47 75,46 76,46 77,45 77,44 78,43 81,43 83,41 83,39 82,38 81,38 77,34" stroke="black" stroke-width="1" /><polygon fill="none" id="3" points="74,40 75,39 76,40 75,41" stroke="black" stroke-width="1" /></svg>