<?xml version="1.0" encoding="utf-8" ?>
<svg baseProfile="full" height="100" version="1.1" width="100" xmlns="http://www.w3.org/2000/svg" xmlns:ev="http://www.w3.org/2001/xml-events" xmlns:xlink="http://www.w3.org/1999/xlink"><defs /><polygon fill="none" id="1" points="44,44 32,56 31,56 30,57 32,57 43,46 46,46 48,48 49,48 55,54 56,54 59,57 60,57 63,60 64,60 65,61 66,61 68,63 69,62 68,62 67,61 66,61 64,59 63,59 62,58 61,58 58,55 57,55 53,51 52,51 45,44" stroke="black" stroke-width="1" /><polygon fill="none" id="2" points="60,42 61,43" stroke="black" stroke-width="1" /><polygon fill="none" id="3" points="65,39 66,40" stroke="black" stroke-width="1" /></svg>