<?xml version="1.0" encoding="utf-8" ?>
<svg baseProfile="full" height="100" version="1.1" width="100" xmlns="http://www.w3.org/2000/svg" xmlns:ev="http://www.w3.org/2001/xml-events" xmlns:xlink="http://www.w3.org/1999/xlink"><defs /><polygon fill="none" id="1" points="49,44 48,45 47,45 39,53 38,53 35,56 34,56 33,57 34,58 38,54 39,54 47,46 51,46 54,49 55,49 59,53 60,53 62,55 63,55 66,58 67,58 68,59 69,59 71,61 72,61 73,62 74,62 75,63 76,62 75,62 74,61 73,61 72,60 71,60 70,59 69,59 67,57 66,57 64,55 63,55 61,53 60,53 56,49 55,49 50,44" stroke="black" stroke-width="1" /><polygon fill="none" id="2" points="64,40 68,44" stroke="black" stroke-width="1" /><polygon fill="none" id="3" points="69,36 73,40" stroke="black" stroke-width="1" /></svg>