<?xml version="1.0" encoding="utf-8" ?>
<svg baseProfile="full" height="100" version="1.1" width="100" xmlns="http://www.w3.org/2000/svg" xmlns:ev="http://www.w3.org/2001/xml-events" xmlns:xlink="http://www.w3.org/1999/xlink"><defs /><polygon fill="none" id="1" points="54,31 53,32 52,32 52,33 54,35 54,36 55,37 55,38 54,39 41,39 41,42 42,43 47,43 48,42 56,42 57,41 59,43 59,44 60,45 60,46 59,47 49,47 48,48 40,48 40,50 41,51 41,52 44,52 45,51 54,51 55,50 61,50 62,49 65,52 65,53 67,55 66,56 65,56 64,55 51,55 50,56 48,56 47,57 46,57 45,58 44,58 43,59 43,60 42,61 42,65 43,66 43,67 45,69 46,69 47,70 48,70 49,71 54,71 55,72 72,72 72,69 71,68 70,68 69,69 57,69 56,68 52,68 51,67 50,67 47,64 47,62 50,59 52,59 53,58 62,58 63,59 66,59 67,60 69,60 70,61 71,61 72,62 74,62 76,60 76,58 75,58 73,56 73,55 70,52 70,51 69,51 68,50 68,49 69,48 71,48 72,47 75,47 76,46 78,46 79,45 80,45 80,44 79,43 79,42 78,41 77,41 76,42 75,42 74,43 72,43 71,44 68,44 67,45 65,45 64,44 64,43 62,41 63,40 67,40 68,39 71,39 72,38 74,38 74,36 72,34 71,34 70,35 68,35 67,36 64,36 63,37 60,37 59,36 59,34 58,33 58,32 57,31" stroke="black" stroke-width="1" /></svg>