<?xml version="1.0" encoding="utf-8" ?>
<svg baseProfile="full" height="100" version="1.1" width="100" xmlns="http://www.w3.org/2000/svg" xmlns:ev="http://www.w3.org/2001/xml-events" xmlns:xlink="http://www.w3.org/1999/xlink"><defs /><polygon fill="none" id="1" points="53,44 51,46 50,46 44,52 43,52 40,55 39,55 38,56 37,56 36,57 37,58 39,56 40,56 44,52 45,52 50,47 51,47 52,46 56,46 59,49 60,49 63,52 64,52 66,54 67,54 69,56 70,56 72,58 73,58 74,59 75,59 76,60 77,60 78,61 79,61 80,62 81,62 82,63 83,62 82,62 81,61 80,61 79,60 78,60 77,59 76,59 75,58 74,58 73,57 72,57 70,55 69,55 68,54 67,54 64,51 63,51 61,49 60,49 56,45 55,45 54,44" stroke="black" stroke-width="1" /><polygon fill="none" id="2" points="78,39 79,40 80,40 79,40" stroke="black" stroke-width="1" /><polygon fill="none" id="3" points="69,39 74,44" stroke="black" stroke-width="1" /><polygon fill="none" id="4" points="75,36 76,37" stroke="black" stroke-width="1" /></svg>