<?xml version="1.0" encoding="utf-8" ?>
<svg baseProfile="full" height="100" version="1.1" width="100" xmlns="http://www.w3.org/2000/svg" xmlns:ev="http://www.w3.org/2001/xml-events" xmlns:xlink="http://www.w3.org/1999/xlink"><defs /><polygon fill="none" id="1" points="44,35 43,36 43,38 55,38 56,39 56,46 55,47 46,47 45,46 43,46 43,49 54,49 55,48 56,49 56,57 57,58 55,60 54,59 48,59 47,60 45,60 43,62 43,67 45,69 47,69 48,70 56,70 59,67 59,64 60,63 61,64 62,64 64,66 65,66 67,68 69,66 69,65 68,64 67,64 66,63 65,63 64,62 62,62 61,61 60,61 59,60 59,49 60,48 67,48 68,47 68,45 64,45 63,46 59,46 58,45 58,43 59,42 58,41 58,39 59,38 61,38 62,37 62,35 58,35 57,36 45,36" stroke="black" stroke-width="1" /><polygon fill="none" id="2" points="48,61 54,61 55,62 56,62 57,63 57,65 54,68 49,68 48,67 47,67 45,65 45,64" stroke="black" stroke-width="1" /><polygon fill="none" id="3" points="33,33 33,37 32,38 32,43 31,44 31,51 30,52 30,60 31,61 31,68 32,69 32,71 35,71 35,66 36,65 36,63 37,62 37,61 38,60 38,59 39,58 39,57 38,56 37,56 37,57 36,58 36,60 35,61 35,62 34,63 33,62 33,50 34,49 34,43 35,42 35,38 36,37 36,33" stroke="black" stroke-width="1" /><polygon fill="none" id="4" points="64,31 63,32 64,33 64,34 66,36 66,38 67,39 69,37 68,36 68,35 66,33 66,32 65,31" stroke="black" stroke-width="1" /><polygon fill="none" id="5" points="69,28 68,29 67,29 68,30 68,31 70,33 70,34 71,35 71,36 72,36 73,35 73,34 72,33 72,32 70,30 70,29" stroke="black" stroke-width="1" /></svg>