<?xml version="1.0" encoding="utf-8" ?>
<svg baseProfile="full" height="100" version="1.1" width="100" xmlns="http://www.w3.org/2000/svg" xmlns:ev="http://www.w3.org/2001/xml-events" xmlns:xlink="http://www.w3.org/1999/xlink"><defs /><polygon fill="none" id="1" points="37,32 36,33 37,34 37,35 38,36 38,39 37,40 28,40 28,41 29,42 31,42 32,41 36,41 37,40 38,40 40,42 40,43 41,44 41,47 40,48 34,48 33,49 28,49 28,51 29,50 35,50 36,49 39,49 40,48 42,48 44,50 44,51 45,52 45,53 46,54 46,55 47,56 47,57 46,58 45,58 44,57 42,57 41,56 35,56 34,57 33,57 30,60 30,61 29,62 29,65 30,66 30,67 32,69 33,69 34,70 36,70 37,71 47,71 47,69 46,70 37,70 36,69 34,69 30,65 30,61 33,58 34,58 35,57 42,57 43,58 45,58 46,59 47,59 48,60 49,60 49,58 48,57 48,56 46,54 46,53 45,52 45,51 44,50 44,48 45,47 46,47 47,46 49,46 50,45 51,45 52,44 52,43 51,43 50,44 49,44 48,45 47,45 46,46 43,46 41,44 41,40 42,39 44,39 45,38 46,38 47,37 48,37 48,36 46,36 45,37 44,37 43,38 42,38 41,39 40,39 39,38 39,37 38,36 38,34 37,33" stroke="black" stroke-width="1" /></svg>