<?xml version="1.0" encoding="utf-8" ?>
<svg baseProfile="full" height="100" version="1.1" width="100" xmlns="http://www.w3.org/2000/svg" xmlns:ev="http://www.w3.org/2001/xml-events" xmlns:xlink="http://www.w3.org/1999/xlink"><defs /><polygon fill="none" id="1" points="30,33 30,36 29,37 29,42 28,43 28,50 27,51 27,61 28,62 28,70 29,71 29,72 32,72 33,71 33,70 32,69 33,68 33,65 34,64 34,62 35,61 35,60 36,59 36,57 35,56 33,56 33,58 32,59 31,58 31,48 32,47 32,41 33,40 33,36 34,35 34,34 33,33" stroke="black" stroke-width="1" /><polygon fill="none" id="2" points="30,60 31,59 32,60 32,61 31,62 30,61" stroke="black" stroke-width="1" /><polygon fill="none" id="3" points="62,28 61,29 61,31 60,32 59,31 57,31 57,34 56,35 52,35 51,36 41,36 40,35 39,35 39,39 49,39 50,40 50,46 49,47 42,47 41,46 38,46 38,49 39,50 50,50 51,51 51,58 50,59 43,59 42,60 41,60 39,62 39,63 38,64 38,66 39,67 39,68 41,70 42,70 43,71 51,71 52,70 53,70 53,69 54,68 54,66 55,65 56,66 57,66 60,69 62,69 62,68 63,67 63,65 62,64 61,64 60,63 59,63 58,62 57,62 56,61 55,61 54,60 54,50 55,49 61,49 62,48 62,45 57,45 56,46 54,46 53,45 54,44 54,41 53,40 54,39 56,39 57,38 57,36 58,35 59,36 59,38 60,39 60,40 61,40 64,37 66,37 67,36 67,34 66,33 66,32 64,30 64,29 63,28" stroke="black" stroke-width="1" /><polygon fill="none" id="4" points="44,62 48,62 49,63 50,63 51,64 51,65 48,68 45,68 44,67 43,67 42,66 42,64" stroke="black" stroke-width="1" /><polygon fill="none" id="5" points="62,36 63,35 64,36 63,37" stroke="black" stroke-width="1" /><polygon fill="none" id="6" points="61,34 62,33 63,34 62,35" stroke="black" stroke-width="1" /><polygon fill="none" id="7" points="60,32 61,31 62,32 62,33 61,34 60,33" stroke="black" stroke-width="1" /></svg>