<?xml version="1.0" encoding="utf-8" ?>
<svg baseProfile="full" height="100" version="1.1" width="100" xmlns="http://www.w3.org/2000/svg" xmlns:ev="http://www.w3.org/2001/xml-events" xmlns:xlink="http://www.w3.org/1999/xlink"><defs /><polygon fill="none" id="1" points="33,33 33,37 32,38 32,43 31,44 31,51 30,52 30,61 31,62 31,69 32,70 32,72 36,72 36,67 37,66 37,64 38,63 38,62 39,61 39,60 40,59 40,57 39,56 37,56 37,57 36,58 36,60 35,61 34,60 34,51 35,50 35,44 36,43 36,39 37,38 37,33" stroke="black" stroke-width="1" /><polygon fill="none" id="2" points="69,28 68,29 67,29 67,30 66,31 64,31 63,32 63,33 64,34 63,35 58,35 57,36 46,36 45,35 44,35 43,36 43,39 55,39 56,40 56,46 55,47 47,47 46,46 43,46 43,50 55,50 56,51 56,58 55,59 48,59 47,60 45,60 43,62 43,68 45,70 47,70 48,71 57,71 60,68 60,66 61,65 62,65 64,67 65,67 67,69 68,69 70,67 70,65 69,64 68,64 67,63 66,63 65,62 63,62 62,61 61,61 60,60 60,50 61,49 68,49 69,48 69,45 64,45 63,46 60,46 59,45 59,44 60,43 60,42 59,41 59,40 60,39 62,39 63,38 63,36 64,35 66,37 66,39 67,40 68,40 71,37 73,37 74,36 74,34 73,33 73,32 71,30 71,29 70,28" stroke="black" stroke-width="1" /><polygon fill="none" id="3" points="49,62 54,62 55,63 56,63 57,64 57,65 54,68 50,68 49,67 48,67 46,65" stroke="black" stroke-width="1" /><polygon fill="none" id="4" points="69,36 70,35 71,36 70,37" stroke="black" stroke-width="1" /><polygon fill="none" id="5" points="68,34 69,33 70,34 69,35" stroke="black" stroke-width="1" /><polygon fill="none" id="6" points="67,33 68,32 69,33 68,34" stroke="black" stroke-width="1" /><polygon fill="none" id="7" points="66,31 67,30 68,31 67,32" stroke="black" stroke-width="1" /></svg>