<?xml version="1.0" encoding="utf-8" ?>
<svg baseProfile="full" height="100" version="1.1" width="100" xmlns="http://www.w3.org/2000/svg" xmlns:ev="http://www.w3.org/2001/xml-events" xmlns:xlink="http://www.w3.org/1999/xlink"><defs /><polygon fill="none" id="1" points="36,33 36,38 35,39 35,43 34,44 34,51 33,52 33,61 34,62 34,68 35,69 35,72 40,72 40,67 41,66 41,64 42,63 42,62 43,61 43,60 44,59 44,57 43,56 41,56 40,57 40,59 39,60 39,61 38,62 37,61 37,55 38,54 38,47 39,46 39,42 40,41 40,38 41,37 41,33" stroke="black" stroke-width="1" /><polygon fill="none" id="2" points="76,28 75,29 74,29 74,30 73,31 70,31 69,32 69,33 70,34 69,35 64,35 63,36 50,36 49,35 48,35 47,36 47,38 48,39 61,39 62,40 62,45 60,47 51,47 50,46 47,46 47,50 61,50 62,51 62,58 61,59 52,59 51,60 50,60 49,61 48,61 47,62 47,68 48,69 49,69 50,70 51,70 52,71 62,71 63,70 64,70 66,68 66,66 67,65 68,65 69,66 70,66 71,67 72,67 74,69 75,69 77,67 77,65 76,64 74,64 73,63 72,63 71,62 70,62 69,61 67,61 66,60 66,50 67,49 74,49 75,48 76,48 76,46 75,45 70,45 69,46 66,46 65,45 65,40 66,39 68,39 69,38 69,35 70,34 72,36 72,37 73,38 73,39 74,40 75,40 78,37 80,37 81,36 82,36 82,34 78,30 78,29 77,28" stroke="black" stroke-width="1" /><polygon fill="none" id="3" points="53,63 54,62 59,62 60,63 62,63 63,64 62,65 62,66 61,67 60,67 59,68 55,68 54,67 53,67 51,65 51,64 52,63" stroke="black" stroke-width="1" /><polygon fill="none" id="4" points="76,36 77,35 78,36 77,37" stroke="black" stroke-width="1" /><polygon fill="none" id="5" points="75,34 76,33 77,34 77,35 76,36 75,35" stroke="black" stroke-width="1" /><polygon fill="none" id="6" points="74,33 75,32 76,33 75,34" stroke="black" stroke-width="1" /><polygon fill="none" id="7" points="73,32 74,31 75,32 74,33" stroke="black" stroke-width="1" /></svg>