<?xml version="1.0" encoding="utf-8" ?>
<svg baseProfile="full" height="100" version="1.1" width="100" xmlns="http://www.w3.org/2000/svg" xmlns:ev="http://www.w3.org/2001/xml-events" xmlns:xlink="http://www.w3.org/1999/xlink"><defs /><polygon fill="none" id="1" points="47,36 46,37 36,37 36,38 45,38 46,39 46,46 44,48 37,48 36,47 35,47 35,49 45,49 46,50 46,60 45,61 44,61 43,60 39,60 38,61 37,61 35,63 35,67 37,69 38,69 39,70 44,70 45,69 46,69 46,68 47,67 47,64 48,63 49,63 51,65 52,65 54,67 55,66 54,65 53,65 51,63 50,63 49,62 48,62 47,61 47,49 48,48 53,48 54,47 54,46 52,46 51,47 47,47 46,46 46,45 47,44 47,41 46,40 46,39 47,38 48,38 49,37 49,36" stroke="black" stroke-width="1" /><polygon fill="none" id="2" points="38,62 39,61 44,61 46,63 46,67 44,69 39,69 38,68 37,68 36,67 36,63 37,62" stroke="black" stroke-width="1" /><polygon fill="none" id="3" points="27,34 27,41 26,42 26,50 25,51 25,61 26,62 26,71 28,71 28,65 29,64 29,62 30,61 30,59 31,58 30,58 30,60 29,61 29,63 28,64 27,64 26,63 26,52 27,51 27,43 28,42 28,37 29,36 29,34" stroke="black" stroke-width="1" /><polygon fill="none" id="4" points="52,32 52,34 53,35 53,36 54,37 54,38 54,36 53,35 53,34 52,33" stroke="black" stroke-width="1" /><polygon fill="none" id="5" points="55,30 56,31 56,32 57,33 57,34 58,35 58,34 57,33 57,32 56,31 56,30" stroke="black" stroke-width="1" /></svg>