<?xml version="1.0" encoding="utf-8" ?>
<svg baseProfile="full" height="100" version="1.1" width="100" xmlns="http://www.w3.org/2000/svg" xmlns:ev="http://www.w3.org/2001/xml-events" xmlns:xlink="http://www.w3.org/1999/xlink"><defs /><polygon fill="none" id="1" points="53,36 52,37 40,37 40,38 50,38 51,39 51,44 52,45 52,46 50,48 41,48 40,47 39,47 39,48 40,49 51,49 52,50 52,60 51,61 50,61 49,60 44,60 43,61 42,61 40,63 40,64 39,65 40,66 40,67 42,69 43,69 44,70 50,70 51,69 52,69 52,68 53,67 53,64 54,63 55,63 57,65 58,65 61,68 61,67 62,66 61,65 60,65 59,64 58,64 57,63 56,63 55,62 54,62 53,61 53,49 54,48 60,48 61,47 61,46 58,46 57,47 53,47 52,46 52,44 53,43 53,42 52,41 52,39 53,38 55,38 56,37 56,36" stroke="black" stroke-width="1" /><polygon fill="none" id="2" points="43,61 49,61 50,62 51,62 52,63 52,66 49,69 44,69 43,68 42,68 41,67 41,63" stroke="black" stroke-width="1" /><polygon fill="none" id="3" points="31,34 31,37 30,38 30,43 29,44 29,51 28,52 28,60 29,61 29,69 30,70 30,71 31,71 31,68 32,67 32,64 33,63 33,61 34,60 34,59 35,58 34,57 34,59 33,60 33,62 32,63 30,63 29,62 29,59 30,58 30,47 31,46 31,40 32,39 32,34" stroke="black" stroke-width="1" /><polygon fill="none" id="4" points="58,32 58,33 60,35 60,37 61,38 61,36 59,34 59,33" stroke="black" stroke-width="1" /><polygon fill="none" id="5" points="62,30 63,31 63,32 64,33 64,34 65,35 65,36 66,35 65,34 65,33 63,31 63,30" stroke="black" stroke-width="1" /></svg>