<?xml version="1.0" encoding="utf-8" ?>
<svg baseProfile="full" height="100" version="1.1" width="100" xmlns="http://www.w3.org/2000/svg" xmlns:ev="http://www.w3.org/2001/xml-events" xmlns:xlink="http://www.w3.org/1999/xlink"><defs /><polygon fill="none" id="1" points="59,36 58,37 44,37 44,38 56,38 57,39 57,47 56,48 46,48 45,47 44,47 44,49 54,49 55,48 56,48 57,49 57,57 58,58 58,59 56,61 55,61 54,60 49,60 48,61 46,61 44,63 44,67 46,69 48,69 49,70 56,70 59,67 59,64 60,63 61,63 62,64 63,64 65,66 66,66 67,67 68,67 69,66 68,65 67,65 66,64 65,64 64,63 62,63 61,62 60,62 59,61 59,49 60,48 67,48 68,47 68,46 65,46 64,47 59,47 58,46 58,39 59,38 61,38 62,37 62,36" stroke="black" stroke-width="1" /><polygon fill="none" id="2" points="48,61 55,61 56,62 57,62 58,63 58,66 55,69 49,69 48,68 47,68 45,66 45,64" stroke="black" stroke-width="1" /><polygon fill="none" id="3" points="34,34 34,38 33,39 33,44 32,45 32,52 31,53 31,60 32,61 32,68 33,69 33,71 35,71 35,66 36,65 36,63 37,62 37,61 38,60 38,59 39,58 38,57 38,58 37,59 37,61 36,62 36,63 35,64 34,64 33,63 33,50 34,49 34,43 35,42 35,38 36,37 36,34" stroke="black" stroke-width="1" /><polygon fill="none" id="4" points="65,32 65,34 67,36 67,38 68,38 68,36 66,34 66,33" stroke="black" stroke-width="1" /><polygon fill="none" id="5" points="69,30 69,31 71,33 71,34 72,35 72,36 73,35 72,34 72,33 70,31 70,30" stroke="black" stroke-width="1" /></svg>