<?xml version="1.0" encoding="utf-8" ?>
<svg baseProfile="full" height="100" version="1.1" width="100" xmlns="http://www.w3.org/2000/svg" xmlns:ev="http://www.w3.org/2001/xml-events" xmlns:xlink="http://www.w3.org/1999/xlink"><defs /><polygon fill="none" id="1" points="41,32 41,34 42,35 42,36 43,37 43,38 41,40 32,40 32,42 35,42 36,41 41,41 42,40 43,40 45,42 45,43 46,44 46,47 45,48 38,48 37,49 31,49 31,50 32,51 33,50 39,50 40,49 44,49 45,48 48,48 49,49 49,50 50,51 50,52 51,53 51,54 53,56 53,57 52,58 50,58 49,57 48,57 47,56 39,56 38,57 37,57 36,58 35,58 33,60 33,66 36,69 37,69 38,70 41,70 42,71 53,71 53,69 52,70 42,70 41,69 38,69 34,65 34,61 37,58 38,58 39,57 47,57 48,58 50,58 51,59 52,59 53,60 55,60 56,59 54,57 54,56 52,54 52,53 50,51 50,50 49,49 49,48 50,47 52,47 53,46 55,46 56,45 58,45 59,44 58,43 57,43 56,44 55,44 54,45 52,45 51,46 48,46 47,45 47,44 46,43 46,40 47,39 49,39 50,38 52,38 53,37 54,37 54,36 52,36 51,37 49,37 48,38 47,38 46,39 45,39 44,38 44,37 43,36 43,35 42,34 42,32" stroke="black" stroke-width="1" /></svg>