<?xml version="1.0" encoding="utf-8" ?>
<svg baseProfile="full" height="100" version="1.1" width="100" xmlns="http://www.w3.org/2000/svg" xmlns:ev="http://www.w3.org/2001/xml-events" xmlns:xlink="http://www.w3.org/1999/xlink"><defs /><polygon fill="none" id="1" points="25,32 25,39 24,40 24,48 23,49 23,62 24,63 24,72 29,72 29,66 30,65 30,63 31,62 31,60 32,59 32,56 31,55 29,55 28,56 27,55 27,53 28,52 28,44 29,43 29,38 30,37 30,32" stroke="black" stroke-width="1" /><polygon fill="none" id="2" points="54,27 53,28 53,29 52,30 50,30 49,31 49,33 48,34 45,34 44,35 37,35 36,34 34,34 33,35 33,37 34,38 34,39 43,39 44,40 44,44 42,46 38,46 37,45 33,45 33,50 43,50 44,51 44,57 43,58 37,58 36,59 35,59 33,61 33,68 35,70 36,70 37,71 45,71 46,70 47,70 47,69 48,68 48,67 49,66 50,66 53,69 55,69 55,68 56,67 56,64 55,63 54,63 52,61 51,61 50,60 49,60 48,59 48,50 49,49 54,49 55,48 55,44 50,44 49,45 48,44 48,40 51,37 52,38 52,39 55,39 57,37 58,37 59,36 59,32 58,31 58,30 57,29 57,28 56,27" stroke="black" stroke-width="1" /><polygon fill="none" id="3" points="39,63 40,62 42,62 44,64 44,65 42,67 40,67 39,66 38,66 37,65 37,64 38,63" stroke="black" stroke-width="1" /></svg>