<?xml version="1.0" encoding="utf-8" ?>
<svg baseProfile="full" height="100" version="1.1" width="100" xmlns="http://www.w3.org/2000/svg" xmlns:ev="http://www.w3.org/2001/xml-events" xmlns:xlink="http://www.w3.org/1999/xlink"><defs /><polygon fill="none" id="1" points="35,32 35,37 34,38 34,42 33,43 33,50 32,51 32,61 33,62 33,68 34,69 34,72 40,72 40,67 41,66 41,64 42,63 42,62 43,61 43,60 44,59 44,56 43,55 40,55 39,56 39,58 38,59 37,58 37,55 38,54 38,47 39,46 39,42 40,41 40,38 41,37 41,32" stroke="black" stroke-width="1" /><polygon fill="none" id="2" points="75,27 74,28 73,28 73,29 72,30 69,30 68,31 68,33 67,34 63,34 62,35 50,35 49,34 47,34 46,35 46,38 47,39 60,39 61,40 61,44 59,46 51,46 50,45 46,45 46,50 60,50 61,51 61,57 60,58 51,58 50,59 49,59 48,60 47,60 46,61 46,68 47,69 48,69 49,70 50,70 51,71 62,71 63,70 64,70 66,68 66,66 67,65 68,66 69,66 70,67 71,67 73,69 75,69 77,67 77,64 76,63 74,63 73,62 72,62 71,61 70,61 69,60 67,60 66,59 66,50 67,49 74,49 75,48 76,48 76,45 75,44 69,44 68,45 66,45 65,44 65,40 66,39 68,39 69,38 69,36 70,35 71,36 71,37 72,38 72,39 73,40 75,40 78,37 80,37 81,36 82,36 82,33 78,29 78,28 77,27" stroke="black" stroke-width="1" /><polygon fill="none" id="3" points="53,63 54,62 58,62 59,63 60,63 61,64 61,65 60,66 59,66 58,67 55,67 54,66 53,66 51,64 52,63" stroke="black" stroke-width="1" /></svg>