<?xml version="1.0" encoding="utf-8" ?>
<svg baseProfile="full" height="100" version="1.1" width="100" xmlns="http://www.w3.org/2000/svg" xmlns:ev="http://www.w3.org/2001/xml-events" xmlns:xlink="http://www.w3.org/1999/xlink"><defs /><polygon fill="none" id="1" points="39,32 39,34 38,35 38,38 37,39 37,43 36,44 36,51 35,52 35,60 36,61 36,68 37,69 37,72 43,72 43,68 44,67 44,65 46,63 46,62 47,61 47,60 48,59 48,56 47,55 43,55 43,56 42,57 41,56 41,51 42,50 42,44 43,43 43,40 44,39 44,37 45,36 45,33 44,32" stroke="black" stroke-width="1" /><polygon fill="none" id="2" points="82,27 81,28 80,28 80,29 79,30 75,30 74,31 74,33 73,34 69,34 68,35 51,35 51,39 65,39 66,40 66,45 65,46 56,46 55,45 50,45 50,49 51,50 65,50 66,51 66,56 67,57 66,58 56,58 55,59 53,59 50,62 50,67 53,70 55,70 56,71 68,71 69,70 70,70 72,68 72,66 73,65 74,66 75,66 76,67 77,67 78,68 79,68 80,69 82,69 84,67 84,64 83,63 81,63 80,62 79,62 78,61 76,61 75,60 73,60 72,59 72,50 73,49 81,49 82,48 83,48 83,46 82,45 82,44 75,44 74,45 72,45 71,44 71,40 72,39 74,39 75,38 76,38 76,37 77,36 78,37 78,38 79,39 79,40 82,40 85,37 87,37 88,36 89,36 89,33 86,30 86,29 84,27" stroke="black" stroke-width="1" /><polygon fill="none" id="3" points="58,63 59,62 64,62 65,63 66,63 67,64 64,67 60,67 59,66 57,66 56,65 56,64 57,63" stroke="black" stroke-width="1" /></svg>