<?xml version="1.0" encoding="utf-8" ?>
<svg baseProfile="full" height="100" version="1.1" width="100" xmlns="http://www.w3.org/2000/svg" xmlns:ev="http://www.w3.org/2001/xml-events" xmlns:xlink="http://www.w3.org/1999/xlink"><defs /><polygon fill="none" id="1" points="42,68" stroke="black" stroke-width="1" /><polygon fill="none" id="2" points="56,63 57,64 58,64 60,66 60,65 59,65 58,64 57,64" stroke="black" stroke-width="1" /><polygon fill="none" id="3" points="40,63 40,66" stroke="black" stroke-width="1" /><polygon fill="none" id="4" points="29,63 29,68 30,69 30,70 30,67 31,66 31,63" stroke="black" stroke-width="1" /><polygon fill="none" id="5" points="44,60 48,60" stroke="black" stroke-width="1" /><polygon fill="none" id="6" points="58,46 57,47 51,47 50,48 40,48 39,47 40,48 51,48 52,49 52,60 51,61 50,61 51,61 52,62 52,66 49,69 44,69 49,69 50,68 51,68 51,67 52,66 52,63 53,62 54,62 53,62 52,61 52,48 53,47 59,47 60,46" stroke="black" stroke-width="1" /><polygon fill="none" id="7" points="60,36" stroke="black" stroke-width="1" /><polygon fill="none" id="8" points="53,36 52,37 40,37 50,37 51,38 51,43 52,42 51,41 51,38 52,37 54,37 55,36" stroke="black" stroke-width="1" /><polygon fill="none" id="9" points="31,34 31,37 30,38 30,43 29,44 29,51 28,52 28,59 28,58 29,57 29,46 30,45 30,39 31,38" stroke="black" stroke-width="1" /><polygon fill="none" id="10" points="64,33" stroke="black" stroke-width="1" /></svg>