<?xml version="1.0" encoding="utf-8" ?>
<svg baseProfile="full" height="100" version="1.1" width="100" xmlns="http://www.w3.org/2000/svg" xmlns:ev="http://www.w3.org/2001/xml-events" xmlns:xlink="http://www.w3.org/1999/xlink"><defs /><polygon fill="none" id="1" points="62,63 63,63 65,65 66,65 67,66 67,65 66,65 65,64 64,64 63,63" stroke="black" stroke-width="1" /><polygon fill="none" id="2" points="46,61 44,63 44,66 46,68 47,68 46,68 44,66 44,63" stroke="black" stroke-width="1" /><polygon fill="none" id="3" points="49,60 53,60" stroke="black" stroke-width="1" /><polygon fill="none" id="4" points="37,59" stroke="black" stroke-width="1" /><polygon fill="none" id="5" points="44,47 44,48 53,48 45,48" stroke="black" stroke-width="1" /><polygon fill="none" id="6" points="67,36 67,37" stroke="black" stroke-width="1" /><polygon fill="none" id="7" points="59,36 58,37 44,37 56,37 57,38 57,56 58,57 58,59 56,61 57,61 58,62 58,66 55,69 49,69 55,69 58,66 58,63 59,62 60,62 59,62 58,61 58,48 59,47 66,47 67,46 65,46 64,47 58,47 57,46 57,38 58,37 60,37 61,36" stroke="black" stroke-width="1" /><polygon fill="none" id="8" points="34,34 34,38 33,39 33,44 32,45 32,52 31,53 31,59 32,60 32,67 33,68 33,70 34,70 34,65 35,64 33,64 32,63 32,49 33,48 33,42 34,41 34,37 35,36 35,34" stroke="black" stroke-width="1" /><polygon fill="none" id="9" points="71,33" stroke="black" stroke-width="1" /><polygon fill="none" id="10" points="65,33" stroke="black" stroke-width="1" /><polygon fill="none" id="11" points="69,30" stroke="black" stroke-width="1" /></svg>