<?xml version="1.0" encoding="utf-8" ?>
<svg baseProfile="full" height="100" version="1.1" width="100" xmlns="http://www.w3.org/2000/svg" xmlns:ev="http://www.w3.org/2001/xml-events" xmlns:xlink="http://www.w3.org/1999/xlink"><defs /><polygon fill="none" id="1" points="51,61" stroke="black" stroke-width="1" /><polygon fill="none" id="2" points="40,61" stroke="black" stroke-width="1" /><polygon fill="none" id="3" points="53,60 59,60" stroke="black" stroke-width="1" /><polygon fill="none" id="4" points="41,58 41,59" stroke="black" stroke-width="1" /><polygon fill="none" id="5" points="74,37" stroke="black" stroke-width="1" /><polygon fill="none" id="6" points="65,36 64,37 49,37 62,37 63,38 63,46 61,48 49,48 48,47 48,48 62,48 63,49 63,60 62,61 61,61 63,61 64,62 64,65 63,66 63,67 62,68 61,68 60,69 53,69 52,68 51,68 49,66 49,62 48,63 48,66 49,67 50,67 51,68 52,68 53,69 60,69 61,68 62,68 64,66 64,63 65,62 67,62 68,63 69,63 70,64 71,64 72,65 73,65 74,66 74,65 72,65 71,64 70,64 69,63 68,63 67,62 65,62 64,61 64,48 65,47 72,47 73,46 71,46 70,47 64,47 63,46 63,38 64,37 66,37 67,36" stroke="black" stroke-width="1" /><polygon fill="none" id="7" points="73,35" stroke="black" stroke-width="1" /><polygon fill="none" id="8" points="37,34 37,39 36,40 36,44 35,45 35,52 34,53 34,59 35,60 35,66 36,67 36,70 38,70 38,65 39,64 39,63 38,64 36,64 35,63 35,53 36,52 36,45 37,44 37,40 38,39 38,36 39,35 39,34" stroke="black" stroke-width="1" /><polygon fill="none" id="9" points="78,33 79,34" stroke="black" stroke-width="1" /><polygon fill="none" id="10" points="71,32" stroke="black" stroke-width="1" /><polygon fill="none" id="11" points="76,30" stroke="black" stroke-width="1" /></svg>