<?xml version="1.0" encoding="utf-8" ?>
<svg baseProfile="full" height="100" version="1.1" width="100" xmlns="http://www.w3.org/2000/svg" xmlns:ev="http://www.w3.org/2001/xml-events" xmlns:xlink="http://www.w3.org/1999/xlink"><defs /><polygon fill="none" id="1" points="46,32 45,33 46,34 46,35 47,36 47,39 46,40 35,40 35,41 36,42 39,42 40,41 46,41 47,40 48,40 50,42 50,43 51,44 51,47 50,48 42,48 41,49 35,49 35,51 36,50 44,50 45,49 50,49 51,48 53,48 54,49 54,50 55,51 55,52 59,56 59,57 58,58 56,58 55,57 53,57 52,56 44,56 43,57 41,57 40,58 39,58 37,60 37,61 36,62 36,64 37,65 37,66 40,69 41,69 42,70 46,70 47,71 59,71 59,70 47,70 46,69 42,69 38,65 38,61 41,58 43,58 44,57 52,57 53,58 56,58 57,59 58,59 59,60 61,60 62,59 60,57 60,56 58,54 58,53 55,50 55,48 56,47 58,47 59,46 61,46 62,45 64,45 65,44 65,43 63,43 62,44 61,44 60,45 58,45 57,46 54,46 52,44 52,43 51,42 51,40 52,39 55,39 56,38 58,38 59,37 60,37 60,36 58,36 57,37 55,37 54,38 52,38 51,39 50,39 49,38 49,37 48,36 48,35 47,34 47,32" stroke="black" stroke-width="1" /></svg>