<?xml version="1.0" encoding="utf-8" ?>
<svg baseProfile="full" height="100" version="1.1" width="100" xmlns="http://www.w3.org/2000/svg" xmlns:ev="http://www.w3.org/2001/xml-events" xmlns:xlink="http://www.w3.org/1999/xlink"><defs /><polygon fill="none" id="1" points="56,34 56,37 57,38 57,42 56,43 45,43 44,42 44,45 56,45 57,46 57,59 56,60 55,59 48,59 47,60 46,60 44,62 44,63 43,64 43,66 44,67 44,68 46,70 47,70 48,71 56,71 57,70 58,70 59,69 59,65 60,64 62,64 63,65 64,65 68,69 69,68 69,67 70,66 69,65 68,65 66,63 65,63 64,62 62,62 60,60 60,52 59,51 59,46 60,45 65,45 66,44 68,44 68,42 67,41 66,42 62,42 61,43 60,43 59,42 59,34" stroke="black" stroke-width="1" /><polygon fill="none" id="2" points="49,61 55,61 57,63 57,66 54,69 49,69 46,66 46,64" stroke="black" stroke-width="1" /><polygon fill="none" id="3" points="34,34 34,37 33,38 33,41 32,42 32,48 31,49 31,65 32,66 32,71 33,72 34,71 36,71 35,70 35,69 36,68 36,65 37,64 37,63 38,62 38,61 39,60 39,59 40,58 40,57 39,57 38,56 38,57 37,58 37,59 36,60 36,62 35,63 34,62 34,47 35,46 35,42 36,41 36,38 37,37 37,34" stroke="black" stroke-width="1" /><polygon fill="none" id="4" points="66,28 63,31 63,35 66,38 70,38 71,37 72,37 72,36 73,35 73,31 72,30 72,29 71,29 70,28" stroke="black" stroke-width="1" /><polygon fill="none" id="5" points="67,29 69,29 72,32 72,34 69,37 67,37 65,35 65,34 64,33 65,32 65,31" stroke="black" stroke-width="1" /></svg>