<?xml version="1.0" encoding="utf-8" ?>
<svg baseProfile="full" height="100" version="1.1" width="100" xmlns="http://www.w3.org/2000/svg" xmlns:ev="http://www.w3.org/2001/xml-events" xmlns:xlink="http://www.w3.org/1999/xlink"><defs /><polygon fill="none" id="1" points="62,34 62,40 63,41 63,42 62,43 48,43 48,45 62,45 63,46 63,59 62,60 61,60 60,59 53,59 52,60 51,60 50,61 49,61 48,62 48,64 47,65 48,66 48,68 49,69 50,69 51,70 52,70 53,71 61,71 62,70 64,70 65,69 65,67 66,66 65,65 66,64 68,64 69,65 70,65 71,66 72,66 75,69 76,68 76,67 77,66 76,65 75,65 74,64 73,64 72,63 71,63 70,62 69,62 68,61 67,61 66,60 66,52 65,51 65,46 66,45 71,45 72,44 75,44 75,42 74,41 73,41 72,42 68,42 67,43 66,43 65,42 65,34" stroke="black" stroke-width="1" /><polygon fill="none" id="2" points="53,62 54,61 60,61 61,62 62,62 63,63 63,66 60,69 54,69 51,66 51,63 52,62" stroke="black" stroke-width="1" /><polygon fill="none" id="3" points="37,34 37,38 36,39 36,42 35,43 35,48 34,49 34,64 35,65 35,71 36,72 37,71 39,71 39,68 40,67 40,65 41,64 41,63 42,62 42,61 43,60 43,59 44,58 44,57 43,57 42,56 42,57 41,58 41,59 40,60 40,61 38,63 37,62 37,51 38,50 38,46 39,45 39,41 40,40 40,37 41,36 41,35 40,34" stroke="black" stroke-width="1" /><polygon fill="none" id="4" points="73,28 72,29 71,29 70,30 70,31 69,32 69,34 70,35 70,36 71,37 72,37 73,38 77,38 78,37 79,37 80,36 80,35 81,34 81,32 80,31 80,30 79,29 78,29 77,28" stroke="black" stroke-width="1" /><polygon fill="none" id="5" points="74,29 76,29 79,32 79,34 76,37 74,37 71,34 71,32" stroke="black" stroke-width="1" /></svg>