<?xml version="1.0" encoding="utf-8" ?>
<svg baseProfile="full" height="100" version="1.1" width="100" xmlns="http://www.w3.org/2000/svg" xmlns:ev="http://www.w3.org/2001/xml-events" xmlns:xlink="http://www.w3.org/1999/xlink"><defs /><polygon fill="none" id="1" points="45,34 45,41 46,42 45,43 36,43 35,42 35,45 44,45 46,47 45,48 45,55 46,56 46,58 45,59 39,59 38,60 37,60 35,62 35,68 37,70 38,70 39,71 44,71 45,70 46,70 47,69 47,65 48,64 49,64 50,65 51,65 54,68 55,68 55,67 56,66 54,64 53,64 51,62 50,62 49,61 48,61 47,60 47,59 48,58 48,54 47,53 47,46 48,45 52,45 53,44 54,44 54,41 53,41 52,42 50,42 49,43 48,43 47,42 47,34" stroke="black" stroke-width="1" /><polygon fill="none" id="2" points="39,61 43,61 44,62 45,62 46,63 46,66 43,69 40,69 39,68 38,68 37,67 37,63" stroke="black" stroke-width="1" /><polygon fill="none" id="3" points="27,34 27,38 26,39 26,45 25,46 25,68 26,69 26,72 27,71 28,71 28,68 29,67 29,64 30,63 30,61 31,60 31,59 32,58 32,57 30,57 30,59 29,60 29,61 28,62 27,61 27,47 28,46 28,41 29,40 29,36 30,35 29,34" stroke="black" stroke-width="1" /><polygon fill="none" id="4" points="53,28 51,30 51,31 50,32 50,34 51,35 51,36 53,38 56,38 58,36 58,34 59,33 58,32 58,30 56,28" stroke="black" stroke-width="1" /><polygon fill="none" id="5" points="54,29 55,29 57,31 57,35 55,37 54,37 52,35 52,34 51,33 52,32 52,31" stroke="black" stroke-width="1" /></svg>