<?xml version="1.0" encoding="utf-8" ?>
<svg baseProfile="full" height="100" version="1.1" width="100" xmlns="http://www.w3.org/2000/svg" xmlns:ev="http://www.w3.org/2001/xml-events" xmlns:xlink="http://www.w3.org/1999/xlink"><defs /><polygon fill="none" id="1" points="50,34 51,35 51,42 50,43 41,43 40,42 39,43 39,45 50,45 51,46 51,59 50,60 49,59 43,59 42,60 41,60 40,61 40,62 39,63 39,67 40,68 40,69 41,70 43,70 44,71 50,71 51,70 52,70 53,69 53,65 54,64 56,64 60,68 62,68 62,67 63,66 61,64 60,64 59,63 58,63 57,62 56,62 55,61 54,61 53,60 53,59 54,58 54,53 53,52 53,46 54,45 58,45 59,44 61,44 61,41 60,41 59,42 56,42 55,43 54,43 53,42 53,34" stroke="black" stroke-width="1" /><polygon fill="none" id="2" points="44,61 49,61 51,63 51,67 49,69 44,69 41,66 41,64" stroke="black" stroke-width="1" /><polygon fill="none" id="3" points="30,34 30,40 29,41 29,46 28,47 28,66 29,67 29,72 30,72 31,71 32,71 32,66 33,65 33,63 34,62 34,61 35,60 35,59 36,58 36,57 35,57 34,56 34,57 33,58 33,61 31,63 30,62 30,52 31,51 31,44 32,43 32,39 33,38 33,34" stroke="black" stroke-width="1" /><polygon fill="none" id="4" points="59,28 57,30 57,35 58,36 58,37 59,37 60,38 63,38 66,35 66,31 63,28" stroke="black" stroke-width="1" /><polygon fill="none" id="5" points="61,29 62,29 65,32 65,34 62,37 61,37 60,36 59,36 58,35 58,32" stroke="black" stroke-width="1" /></svg>