<?xml version="1.0" encoding="utf-8" ?>
<svg baseProfile="full" height="100" version="1.1" width="100" xmlns="http://www.w3.org/2000/svg" xmlns:ev="http://www.w3.org/2001/xml-events" xmlns:xlink="http://www.w3.org/1999/xlink"><defs /><polygon fill="none" id="1" points="50,32 49,33 51,35 51,36 52,37 52,39 51,40 38,40 39,41 39,42 43,42 44,41 50,41 51,40 53,40 55,42 55,43 56,44 56,47 55,48 46,48 45,49 38,49 38,50 39,51 40,50 48,50 49,49 55,49 56,48 58,48 59,49 59,50 65,56 65,57 64,58 61,58 60,57 59,57 58,56 48,56 47,57 45,57 44,58 43,58 40,61 40,65 44,69 45,69 46,70 50,70 51,71 65,71 65,70 51,70 50,69 46,69 42,65 42,61 45,58 47,58 48,57 58,57 59,58 62,58 63,59 64,59 65,60 66,60 67,61 68,60 68,59 66,57 66,56 63,53 63,52 60,49 60,48 61,47 64,47 65,46 67,46 68,45 71,45 72,44 72,43 70,43 69,44 67,44 66,45 64,45 63,46 59,46 57,44 57,43 56,42 56,40 57,39 60,39 61,38 64,38 65,37 66,37 66,36 63,36 62,37 60,37 59,38 57,38 56,39 55,39 53,37 53,35 52,34 52,32" stroke="black" stroke-width="1" /></svg>