<?xml version="1.0" encoding="utf-8" ?>
<svg baseProfile="full" height="100" version="1.1" width="100" xmlns="http://www.w3.org/2000/svg" xmlns:ev="http://www.w3.org/2001/xml-events" xmlns:xlink="http://www.w3.org/1999/xlink"><defs /><polygon fill="none" id="1" points="67,34 67,35 68,36 68,42 67,43 54,43 53,42 53,45 67,45 68,46 68,57 69,58 67,60 66,59 58,59 57,60 55,60 53,62 53,63 52,64 52,67 55,70 57,70 58,71 67,71 68,70 69,70 70,69 71,69 71,67 72,66 72,65 73,64 75,64 77,66 78,66 79,67 80,67 81,68 83,68 83,67 84,66 83,65 82,65 81,64 80,64 79,63 78,63 77,62 75,62 74,61 73,61 72,60 72,52 71,51 71,46 72,45 78,45 79,44 82,44 82,43 81,42 81,41 80,41 79,42 74,42 73,43 72,43 71,42 71,34" stroke="black" stroke-width="1" /><polygon fill="none" id="2" points="58,62 59,61 66,61 67,62 68,62 69,63 69,64 68,65 68,67 67,68 66,68 65,69 59,69 58,68 57,68 55,66 55,64 57,62" stroke="black" stroke-width="1" /><polygon fill="none" id="3" points="41,34 41,36 40,37 40,40 39,41 39,43 38,44 38,49 37,50 37,64 38,65 38,71 43,71 43,66 44,65 44,64 46,62 46,61 47,60 47,59 48,58 48,57 47,57 46,56 45,57 45,58 44,59 44,60 43,61 43,62 42,63 40,61 40,59 41,58 41,48 42,47 42,43 43,42 43,39 44,38 44,37 45,36 45,35 44,34" stroke="black" stroke-width="1" /><polygon fill="none" id="4" points="79,28 76,31 76,35 79,38 84,38 85,37 86,37 88,35 88,31 86,29 85,29 84,28" stroke="black" stroke-width="1" /><polygon fill="none" id="5" points="80,30 81,29 83,29 86,32 86,34 83,37 81,37 80,36 79,36 78,35 78,34 77,33 78,32 78,31 79,30" stroke="black" stroke-width="1" /></svg>