<?xml version="1.0" encoding="utf-8" ?>
<svg baseProfile="full" height="100" version="1.1" width="100" xmlns="http://www.w3.org/2000/svg" xmlns:ev="http://www.w3.org/2001/xml-events" xmlns:xlink="http://www.w3.org/1999/xlink"><defs /><polygon fill="none" id="1" points="45,34 45,42 44,43 37,43 36,42 35,42 35,46 44,46 45,47 45,56 46,57 46,58 45,59 39,59 38,60 37,60 35,62 35,69 37,71 38,71 39,72 45,72 46,71 47,71 48,70 48,66 49,65 50,66 51,66 54,69 56,69 56,68 57,67 57,66 55,64 54,64 52,62 51,62 50,61 49,61 48,60 49,59 49,54 48,53 48,47 49,46 53,46 54,45 55,45 55,41 53,41 52,42 50,42 49,43 48,42 48,34" stroke="black" stroke-width="1" /><polygon fill="none" id="2" points="40,62 43,62 44,63 45,63 46,64 46,66 43,69 41,69 40,68 39,68 38,67 38,64" stroke="black" stroke-width="1" /><polygon fill="none" id="3" points="27,34 27,38 26,39 26,45 25,46 25,69 26,70 26,73 27,73 28,72 29,72 29,69 30,68 30,65 31,64 31,62 32,61 32,60 33,59 33,57 30,57 30,59 29,60 28,59 28,48 29,47 29,42 30,41 30,37 31,36 31,35 30,34" stroke="black" stroke-width="1" /><polygon fill="none" id="4" points="53,28 51,30 51,31 50,32 50,35 51,36 51,37 53,39 57,39 59,37 59,35 60,34 60,33 59,32 59,30 57,28" stroke="black" stroke-width="1" /><polygon fill="none" id="5" points="55,30 57,32 57,35 55,37 53,35 53,32" stroke="black" stroke-width="1" /></svg>