<?xml version="1.0" encoding="utf-8" ?>
<svg baseProfile="full" height="100" version="1.1" width="100" xmlns="http://www.w3.org/2000/svg" xmlns:ev="http://www.w3.org/2001/xml-events" xmlns:xlink="http://www.w3.org/1999/xlink"><defs /><polygon fill="none" id="1" points="50,34 50,35 51,36 51,42 50,43 42,43 41,42 40,42 39,43 39,46 50,46 51,47 51,58 50,59 43,59 42,60 41,60 40,61 40,62 39,63 39,68 40,69 40,70 41,71 43,71 44,72 51,72 52,71 53,71 54,70 54,66 55,65 56,65 60,69 63,69 63,68 64,67 64,66 62,64 61,64 60,63 59,63 58,62 57,62 56,61 55,61 54,60 55,59 55,53 54,52 54,47 55,46 59,46 60,45 62,45 62,41 60,41 59,42 56,42 55,43 54,42 54,34" stroke="black" stroke-width="1" /><polygon fill="none" id="2" points="45,62 49,62 51,64 51,67 49,69 45,69 42,66 42,65" stroke="black" stroke-width="1" /><polygon fill="none" id="3" points="30,34 30,40 29,41 29,46 28,47 28,67 29,68 29,73 31,73 32,72 33,72 33,67 34,66 34,64 35,63 35,62 36,61 36,60 37,59 37,57 36,57 35,56 34,56 34,57 33,58 33,61 32,62 31,61 31,53 32,52 32,45 33,44 33,40 34,39 34,34" stroke="black" stroke-width="1" /><polygon fill="none" id="4" points="59,28 57,30 57,36 58,37 58,38 59,38 60,39 64,39 67,36 67,31 64,28" stroke="black" stroke-width="1" /><polygon fill="none" id="5" points="62,30 65,33 65,34 62,37 61,36 60,36 59,35 59,33" stroke="black" stroke-width="1" /></svg>