<?xml version="1.0" encoding="utf-8" ?>
<svg baseProfile="full" height="100" version="1.1" width="100" xmlns="http://www.w3.org/2000/svg" xmlns:ev="http://www.w3.org/2001/xml-events" xmlns:xlink="http://www.w3.org/1999/xlink"><defs /><polygon fill="none" id="1" points="56,34 56,38 57,39 57,42 56,43 46,43 45,42 44,42 44,46 56,46 57,47 57,58 56,59 48,59 47,60 46,60 44,62 44,63 43,64 43,67 44,68 44,69 46,71 47,71 48,72 57,72 58,71 59,71 60,70 60,66 61,65 62,65 63,66 64,66 68,70 69,70 70,69 70,68 71,67 71,66 70,65 69,65 67,63 66,63 65,62 63,62 61,60 61,52 60,51 60,47 61,46 66,46 67,45 69,45 69,42 68,41 67,41 66,42 62,42 61,43 60,42 60,34" stroke="black" stroke-width="1" /><polygon fill="none" id="2" points="50,62 55,62 57,64 57,66 54,69 50,69 47,66 47,65" stroke="black" stroke-width="1" /><polygon fill="none" id="3" points="34,34 34,37 33,38 33,41 32,42 32,48 31,49 31,66 32,67 32,72 33,73 34,73 35,72 37,72 37,71 36,70 37,69 37,66 38,65 38,64 39,63 39,62 40,61 40,60 41,59 41,57 40,57 39,56 38,56 38,57 37,58 37,59 36,60 35,59 35,48 36,47 36,43 37,42 37,39 38,38 38,34" stroke="black" stroke-width="1" /><polygon fill="none" id="4" points="66,28 63,31 63,36 66,39 71,39 72,38 73,38 73,37 74,36 74,31 73,30 73,29 72,29 71,28" stroke="black" stroke-width="1" /><polygon fill="none" id="5" points="68,30 69,30 72,33 72,34 69,37 68,37 66,35 66,32" stroke="black" stroke-width="1" /></svg>