<?xml version="1.0" encoding="utf-8" ?>
<svg baseProfile="full" height="100" version="1.1" width="100" xmlns="http://www.w3.org/2000/svg" xmlns:ev="http://www.w3.org/2001/xml-events" xmlns:xlink="http://www.w3.org/1999/xlink"><defs /><polygon fill="none" id="1" points="62,34 62,41 63,42 62,43 48,43 48,46 62,46 63,47 63,59 62,60 61,59 53,59 52,60 51,60 50,61 49,61 48,62 48,64 47,65 47,66 48,67 48,69 49,70 50,70 51,71 52,71 53,72 62,72 63,71 65,71 66,70 66,68 67,67 67,66 68,65 69,66 70,66 71,67 72,67 75,70 76,70 77,69 77,68 78,67 78,66 77,65 76,65 75,64 74,64 73,63 72,63 71,62 70,62 69,61 68,61 67,60 67,52 66,51 66,47 67,46 72,46 73,45 76,45 76,42 75,41 73,41 72,42 68,42 67,43 66,42 66,34" stroke="black" stroke-width="1" /><polygon fill="none" id="2" points="54,63 55,62 60,62 61,63 62,63 63,64 63,66 60,69 55,69 52,66 52,64 53,63" stroke="black" stroke-width="1" /><polygon fill="none" id="3" points="37,34 37,38 36,39 36,42 35,43 35,48 34,49 34,65 35,66 35,72 36,73 37,73 38,72 40,72 40,69 41,68 41,66 42,65 42,64 43,63 43,62 44,61 44,60 45,59 45,57 44,57 43,56 42,56 42,57 41,58 41,59 40,60 40,61 39,62 38,61 38,52 39,51 39,47 40,46 40,42 41,41 41,38 42,37 42,35 41,34" stroke="black" stroke-width="1" /><polygon fill="none" id="4" points="73,28 72,29 71,29 70,30 70,31 69,32 69,35 70,36 70,37 71,38 72,38 73,39 78,39 79,38 80,38 81,37 81,36 82,35 82,32 81,31 81,30 80,29 79,29 78,28" stroke="black" stroke-width="1" /><polygon fill="none" id="5" points="75,30 76,30 79,33 79,34 76,37 75,37 72,34 72,33" stroke="black" stroke-width="1" /></svg>