<?xml version="1.0" encoding="utf-8" ?>
<svg baseProfile="full" height="100" version="1.1" width="100" xmlns="http://www.w3.org/2000/svg" xmlns:ev="http://www.w3.org/2001/xml-events" xmlns:xlink="http://www.w3.org/1999/xlink"><defs /><polygon fill="none" id="1" points="67,34 67,36 68,37 68,42 67,43 55,43 54,42 53,42 53,46 67,46 68,47 68,58 67,59 58,59 57,60 55,60 53,62 53,63 52,64 52,68 55,71 57,71 58,72 68,72 69,71 70,71 71,70 72,70 72,68 73,67 73,66 74,65 75,65 77,67 78,67 79,68 80,68 81,69 84,69 84,68 85,67 85,66 84,65 83,65 82,64 81,64 80,63 79,63 78,62 76,62 75,61 74,61 73,60 73,52 72,51 72,47 73,46 79,46 80,45 83,45 83,43 82,42 82,41 80,41 79,42 74,42 73,43 72,42 72,34" stroke="black" stroke-width="1" /><polygon fill="none" id="2" points="59,63 60,62 66,62 67,63 68,63 69,64 68,65 68,67 67,68 66,68 65,69 60,69 59,68 58,68 56,66 56,65 58,63" stroke="black" stroke-width="1" /><polygon fill="none" id="3" points="41,34 41,36 40,37 40,40 39,41 39,43 38,44 38,49 37,50 37,65 38,66 38,72 44,72 44,67 45,66 45,65 47,63 47,62 48,61 48,60 49,59 49,57 48,57 47,56 46,56 45,57 45,58 44,59 44,60 42,62 41,61 41,60 42,59 42,49 43,48 43,44 44,43 44,40 45,39 45,38 46,37 46,35 45,34" stroke="black" stroke-width="1" /><polygon fill="none" id="4" points="79,28 76,31 76,36 79,39 85,39 86,38 87,38 89,36 89,31 87,29 86,29 85,28" stroke="black" stroke-width="1" /><polygon fill="none" id="5" points="81,31 82,30 83,30 86,33 86,34 83,37 82,37 81,36 80,36 79,35 79,32 80,31" stroke="black" stroke-width="1" /></svg>