<?xml version="1.0" encoding="utf-8" ?>
<svg baseProfile="full" height="100" version="1.1" width="100" xmlns="http://www.w3.org/2000/svg" xmlns:ev="http://www.w3.org/2001/xml-events" xmlns:xlink="http://www.w3.org/1999/xlink"><defs /><polygon fill="none" id="1" points="46,35 46,41 47,42 47,43 46,44 36,44 36,45 45,45 47,47 47,48 46,49 46,55 47,56 47,59 46,60 40,60 39,61 38,61 36,63 36,68 38,70 39,70 40,71 44,71 45,70 46,70 47,69 47,65 48,64 50,64 51,65 52,65 55,68 55,66 54,65 53,65 51,63 50,63 49,62 48,62 47,61 47,59 48,58 48,55 47,54 47,46 48,45 52,45 53,44 54,44 54,42 53,43 51,43 50,44 48,44 47,43 47,35" stroke="black" stroke-width="1" /><polygon fill="none" id="2" points="39,61 44,61 45,62 46,62 47,63 47,67 44,70 40,70 39,69 38,69 37,68 37,63" stroke="black" stroke-width="1" /><polygon fill="none" id="3" points="28,35 28,39 27,40 27,46 26,47 26,68 27,69 27,71 28,71 28,68 29,67 29,64 30,63 30,61 31,60 31,59 32,58 31,58 31,60 30,61 30,62 29,63 28,63 27,62 27,47 28,46 28,41 29,40 29,35" stroke="black" stroke-width="1" /><polygon fill="none" id="4" points="54,29 52,31 52,32 51,33 51,34 52,35 52,36 54,38 56,38 58,36 58,31 56,29" stroke="black" stroke-width="1" /><polygon fill="none" id="5" points="54,29 56,29 58,31 58,36 56,38 54,38 52,36 52,35 51,34 51,33 52,32 52,31" stroke="black" stroke-width="1" /></svg>