<?xml version="1.0" encoding="utf-8" ?>
<svg baseProfile="full" height="100" version="1.1" width="100" xmlns="http://www.w3.org/2000/svg" xmlns:ev="http://www.w3.org/2001/xml-events" xmlns:xlink="http://www.w3.org/1999/xlink"><defs /><polygon fill="none" id="1" points="52,35 52,43 51,44 40,44 40,45 51,45 52,46 52,60 51,61 50,61 49,60 44,60 43,61 42,61 41,62 41,63 40,64 40,67 41,68 41,69 42,70 44,70 45,71 50,71 51,70 52,70 53,69 53,65 54,64 57,64 61,68 62,68 62,66 61,65 60,65 59,64 58,64 57,63 56,63 55,62 54,62 53,61 53,59 54,58 54,54 53,53 53,46 54,45 58,45 59,44 61,44 61,42 60,43 57,43 56,44 54,44 53,43 53,35" stroke="black" stroke-width="1" /><polygon fill="none" id="2" points="44,61 50,61 52,63 52,68 50,70 44,70 41,67 41,64" stroke="black" stroke-width="1" /><polygon fill="none" id="3" points="31,35 31,41 30,42 30,47 29,48 29,66 30,67 30,72 31,71 32,71 32,66 33,65 33,63 34,62 34,61 35,60 35,59 36,58 35,58 34,59 34,62 32,64 31,64 30,63 30,52 31,51 31,44 32,43 32,39 33,38 33,35" stroke="black" stroke-width="1" /><polygon fill="none" id="4" points="60,29 58,31 58,35 58,32 61,29 63,29 66,32 66,35 63,38 61,38 60,37 59,37 60,37 61,38 63,38 66,35 66,32 63,29" stroke="black" stroke-width="1" /></svg>