<?xml version="1.0" encoding="utf-8" ?>
<svg baseProfile="full" height="100" version="1.1" width="100" xmlns="http://www.w3.org/2000/svg" xmlns:ev="http://www.w3.org/2001/xml-events" xmlns:xlink="http://www.w3.org/1999/xlink"><defs /><polygon fill="none" id="1" points="57,35 57,37 58,38 58,43 57,44 45,44 45,45 57,45 58,46 58,60 57,61 56,61 55,60 49,60 48,61 47,61 45,63 45,64 44,65 44,66 45,67 45,68 47,70 48,70 49,71 56,71 57,70 58,70 59,69 59,65 60,64 63,64 64,65 65,65 68,68 69,68 69,66 68,66 66,64 65,64 64,63 62,63 60,61 60,53 59,52 59,46 60,45 65,45 66,44 68,44 68,43 63,43 62,44 60,44 59,43 59,35" stroke="black" stroke-width="1" /><polygon fill="none" id="2" points="49,61 56,61 58,63 58,67 55,70 49,70 46,67 46,64" stroke="black" stroke-width="1" /><polygon fill="none" id="3" points="35,35 35,38 34,39 34,42 33,43 33,49 32,50 32,65 33,66 33,71 35,71 35,69 36,68 36,65 37,64 37,63 38,62 38,61 39,60 39,59 40,58 39,58 38,59 38,60 37,61 37,63 36,64 35,64 34,63 34,47 35,46 35,42 36,41 36,38 37,37 37,35" stroke="black" stroke-width="1" /><polygon fill="none" id="4" points="67,29 64,32 64,35 67,38 70,38 71,37 72,37 72,36 73,35 73,32 72,31 72,30 71,30 70,29" stroke="black" stroke-width="1" /><polygon fill="none" id="5" points="67,29 70,29 73,32 73,35 70,38 67,38 65,36 65,35 64,34 64,33 65,32 65,31" stroke="black" stroke-width="1" /></svg>