<?xml version="1.0" encoding="utf-8" ?>
<svg baseProfile="full" height="100" version="1.1" width="100" xmlns="http://www.w3.org/2000/svg" xmlns:ev="http://www.w3.org/2001/xml-events" xmlns:xlink="http://www.w3.org/1999/xlink"><defs /><polygon fill="none" id="1" points="63,35 63,40 64,41 64,43 63,44 49,44 49,45 63,45 64,46 64,60 63,61 61,61 60,60 54,60 53,61 52,61 51,62 50,62 49,63 49,68 50,69 51,69 52,70 53,70 54,71 61,71 62,70 64,70 65,69 65,65 66,64 69,64 70,65 71,65 72,66 73,66 75,68 76,68 76,66 75,66 74,65 73,65 72,64 71,64 70,63 69,63 68,62 67,62 66,61 66,53 65,52 65,46 66,45 71,45 72,44 75,44 75,43 74,42 73,43 69,43 68,44 66,44 65,43 65,35" stroke="black" stroke-width="1" /><polygon fill="none" id="2" points="53,62 54,61 61,61 62,62 63,62 64,63 64,67 61,70 54,70 51,67 51,63 52,62" stroke="black" stroke-width="1" /><polygon fill="none" id="3" points="38,35 38,39 37,40 37,43 36,44 36,49 35,50 35,64 36,65 36,71 39,71 39,68 40,67 40,65 41,64 41,63 42,62 42,61 43,60 43,59 44,58 43,58 42,59 42,60 41,61 41,62 39,64 38,64 37,63 37,51 38,50 38,46 39,45 39,41 40,40 40,37 41,36 40,35" stroke="black" stroke-width="1" /><polygon fill="none" id="4" points="74,29 73,30 72,30 71,31 71,32 70,33 70,34 71,35 71,36 72,37 73,37 74,38 77,38 78,37 79,37 80,36 80,35 81,34 81,33 80,32 80,31 79,30 78,30 77,29" stroke="black" stroke-width="1" /><polygon fill="none" id="5" points="74,29 77,29 80,32 80,35 77,38 74,38 71,35 71,32" stroke="black" stroke-width="1" /></svg>