<?xml version="1.0" encoding="utf-8" ?>
<svg baseProfile="full" height="100" version="1.1" width="100" xmlns="http://www.w3.org/2000/svg" xmlns:ev="http://www.w3.org/2001/xml-events" xmlns:xlink="http://www.w3.org/1999/xlink"><defs /><polygon fill="none" id="1" points="39,31 39,37 38,38 37,38 36,39 31,39 30,38 29,38 29,41 36,41 37,40 38,41 38,49 37,50 36,50 35,51 34,51 30,55 30,56 29,57 29,58 28,59 28,61 27,62 27,66 28,67 28,68 29,69 33,69 34,68 35,68 37,66 38,66 39,67 39,69 40,68 41,68 41,63 45,59 45,58 47,56 47,55 48,54 48,52 49,51 49,49 50,48 52,48 53,49 54,49 55,50 56,50 57,51 57,52 58,53 58,54 59,55 59,60 58,61 58,62 57,63 57,64 56,65 55,65 53,67 52,67 51,68 47,68 47,70 48,71 51,71 52,70 53,70 54,69 55,69 56,68 57,68 59,66 59,65 61,63 61,60 62,59 62,56 61,55 61,53 60,52 60,51 56,47 54,47 53,46 52,46 51,45 51,43 49,43 49,45 48,46 45,46 44,47 41,47 40,46 40,41 41,40 45,40 46,39 51,39 52,38 54,38 54,35 53,35 52,36 49,36 48,37 45,37 44,38 42,38 41,37 41,33 42,32 42,31" stroke="black" stroke-width="1" /><polygon fill="none" id="2" points="35,53 36,52 37,52 38,53 38,63 35,66 34,66 33,67 31,67 30,66 30,65 29,64 30,63 30,60 31,59 31,58 35,54" stroke="black" stroke-width="1" /><polygon fill="none" id="3" points="43,49 44,48 47,48 48,49 47,50 47,51 46,52 46,53 44,55 44,56 43,57 43,58 41,60 40,59 40,50 41,49" stroke="black" stroke-width="1" /></svg>