<?xml version="1.0" encoding="utf-8" ?>
<svg baseProfile="full" height="100" version="1.1" width="100" xmlns="http://www.w3.org/2000/svg" xmlns:ev="http://www.w3.org/2001/xml-events" xmlns:xlink="http://www.w3.org/1999/xlink"><defs /><polygon fill="none" id="1" points="55,32 54,33 55,34 55,35 57,37 57,38 55,40 42,40 42,41 43,42 46,42 47,41 55,41 56,40 58,40 60,42 60,43 62,45 62,46 60,48 50,48 49,49 41,49 42,50 42,51 43,51 44,50 53,50 54,49 60,49 61,48 63,48 66,51 66,52 70,56 70,57 69,58 67,58 66,57 64,57 63,56 52,56 51,57 49,57 48,58 47,58 46,59 45,59 44,60 44,61 43,62 43,64 44,65 44,66 46,68 47,68 48,69 49,69 50,70 55,70 56,71 71,71 71,70 56,70 55,69 51,69 50,68 49,68 46,65 46,61 49,58 51,58 52,57 63,57 64,58 67,58 68,59 70,59 71,60 72,60 73,61 75,59 74,59 72,57 72,56 69,53 69,52 68,52 67,51 67,50 66,49 66,48 67,47 70,47 71,46 74,46 75,45 77,45 78,44 78,43 76,43 75,44 73,44 72,45 69,45 68,46 64,46 63,45 63,44 61,42 61,40 62,39 66,39 67,38 70,38 71,37 73,37 72,36 69,36 68,37 65,37 64,38 62,38 61,39 60,39 58,37 58,35 57,34 57,33 56,32" stroke="black" stroke-width="1" /></svg>