<?xml version="1.0" encoding="utf-8" ?>
<svg baseProfile="full" height="100" version="1.1" width="100" xmlns="http://www.w3.org/2000/svg" xmlns:ev="http://www.w3.org/2001/xml-events" xmlns:xlink="http://www.w3.org/1999/xlink"><defs /><polygon fill="none" id="1" points="68,35 69,36 69,43 68,44 54,44 54,45 68,45 69,46 69,57 70,58 70,59 68,61 67,61 66,60 59,60 58,61 56,61 54,63 54,64 53,65 53,67 56,70 58,70 59,71 67,71 68,70 69,70 70,69 71,69 71,67 72,66 72,65 73,64 76,64 78,66 79,66 80,67 81,67 82,68 83,68 83,66 82,66 81,65 80,65 79,64 78,64 77,63 75,63 74,62 73,62 72,61 72,53 71,52 71,46 72,45 78,45 79,44 82,44 81,43 81,42 80,43 75,43 74,44 72,44 71,43 71,35" stroke="black" stroke-width="1" /><polygon fill="none" id="2" points="58,62 59,61 67,61 68,62 69,62 70,63 70,65 69,66 69,68 68,69 67,69 66,70 59,70 58,69 57,69 55,67 55,64 57,62" stroke="black" stroke-width="1" /><polygon fill="none" id="3" points="42,35 42,37 41,38 41,41 40,42 40,44 39,45 39,50 38,51 38,64 39,65 39,71 43,71 43,66 44,65 44,64 46,62 46,61 47,60 47,59 48,58 46,58 46,59 45,60 45,61 44,62 44,63 43,64 42,64 40,62 40,59 41,58 41,48 42,47 42,43 43,42 43,39 44,38 44,37 45,36 44,35" stroke="black" stroke-width="1" /><polygon fill="none" id="4" points="80,29 77,32 77,35 80,38 84,38 85,37 86,37 88,35 88,32 86,30 85,30 84,29" stroke="black" stroke-width="1" /><polygon fill="none" id="5" points="80,30 81,29 84,29 87,32 87,35 84,38 81,38 80,37 79,37 78,36 78,35 77,34 77,33 78,32 78,31 79,30" stroke="black" stroke-width="1" /></svg>