<?xml version="1.0" encoding="utf-8" ?>
<svg baseProfile="full" height="100" version="1.1" width="100" xmlns="http://www.w3.org/2000/svg" xmlns:ev="http://www.w3.org/2001/xml-events" xmlns:xlink="http://www.w3.org/1999/xlink"><defs /><polygon fill="none" id="1" points="26,33 26,37 25,38 25,44 24,45 24,69 25,70 25,73 27,73 28,72 29,72 29,69 30,68 30,65 31,64 31,62 32,61 32,60 33,59 33,56 29,56 28,55 28,48 29,47 29,42 30,41 30,37 31,36 31,34 30,33" stroke="black" stroke-width="1" /><polygon fill="none" id="2" points="52,27 50,29 50,30 49,31 49,32 48,33 44,33 44,41 43,42 37,42 36,41 34,41 34,46 43,46 44,47 44,56 45,57 44,58 38,58 37,59 36,59 34,61 34,69 36,71 37,71 38,72 45,72 46,71 47,71 48,70 48,67 49,66 50,66 53,69 56,69 56,68 57,67 57,65 55,63 54,63 52,61 51,61 49,59 49,53 48,52 48,47 49,46 53,46 54,45 55,45 55,40 56,39 57,39 59,37 59,35 60,34 60,32 59,31 59,29 57,27" stroke="black" stroke-width="1" /><polygon fill="none" id="3" points="40,62 42,62 43,63 44,63 45,64 45,65 42,68 41,68 40,67 39,67 38,66 38,64" stroke="black" stroke-width="1" /><polygon fill="none" id="4" points="48,36 49,35 50,36 50,37 52,39 52,40 51,41 49,41 48,40" stroke="black" stroke-width="1" /><polygon fill="none" id="5" points="53,32 54,31 55,31 56,32 56,34 55,35 54,35 53,34" stroke="black" stroke-width="1" /></svg>