<?xml version="1.0" encoding="utf-8" ?>
<svg baseProfile="full" height="100" version="1.1" width="100" xmlns="http://www.w3.org/2000/svg" xmlns:ev="http://www.w3.org/2001/xml-events" xmlns:xlink="http://www.w3.org/1999/xlink"><defs /><polygon fill="none" id="1" points="29,33 29,39 28,40 28,45 27,46 27,67 28,68 28,73 31,73 32,72 33,72 33,67 34,66 34,64 35,63 35,62 36,61 36,60 37,59 37,56 36,56 35,55 33,55 33,56 32,57 31,56 31,53 32,52 32,45 33,44 33,40 34,39 34,33" stroke="black" stroke-width="1" /><polygon fill="none" id="2" points="58,27 56,29 56,36 57,37 57,38 58,38 59,39 59,40 58,41 55,41 54,40 54,33 49,33 49,35 50,36 50,41 49,42 42,42 41,41 39,41 38,42 38,46 49,46 50,47 50,57 49,58 42,58 41,59 40,59 39,60 39,61 38,62 38,68 39,69 39,70 40,71 42,71 43,72 51,72 52,71 53,71 54,70 54,66 55,65 59,69 63,69 63,68 64,67 64,65 62,63 61,63 60,62 59,62 58,61 57,61 55,59 55,52 54,51 54,47 55,46 59,46 60,45 62,45 62,40 63,39 64,39 67,36 67,30 64,27" stroke="black" stroke-width="1" /><polygon fill="none" id="3" points="45,62 48,62 50,64 50,66 48,68 45,68 42,65" stroke="black" stroke-width="1" /><polygon fill="none" id="4" points="61,31 62,31 64,33 62,35 60,35 59,34 59,33" stroke="black" stroke-width="1" /></svg>