<?xml version="1.0" encoding="utf-8" ?>
<svg baseProfile="full" height="100" version="1.1" width="100" xmlns="http://www.w3.org/2000/svg" xmlns:ev="http://www.w3.org/2001/xml-events" xmlns:xlink="http://www.w3.org/1999/xlink"><defs /><polygon fill="none" id="1" points="33,33 33,36 32,37 32,40 31,41 31,47 30,48 30,66 31,67 31,72 32,73 34,73 35,72 37,72 37,66 38,65 38,64 39,63 39,62 40,61 40,60 41,59 41,56 40,56 39,55 37,55 37,56 36,57 35,56 35,48 36,47 36,43 37,42 37,39 38,38 38,33" stroke="black" stroke-width="1" /><polygon fill="none" id="2" points="65,27 62,30 62,36 66,40 65,41 61,41 60,40 60,33 55,33 55,38 56,39 56,41 55,42 46,42 45,41 43,41 43,46 55,46 56,47 56,57 55,58 47,58 46,59 45,59 43,61 43,62 42,63 42,67 43,68 43,69 45,71 46,71 47,72 57,72 58,71 59,71 60,70 60,66 61,65 62,66 63,66 67,70 69,70 70,69 70,68 71,67 71,65 70,64 69,64 67,62 66,62 65,61 63,61 61,59 61,51 60,50 60,47 61,46 66,46 67,45 69,45 69,41 68,40 69,39 71,39 72,38 73,38 73,37 74,36 74,30 73,29 73,28 72,28 71,27" stroke="black" stroke-width="1" /><polygon fill="none" id="3" points="50,62 54,62 56,64 56,65 53,68 50,68 47,65" stroke="black" stroke-width="1" /><polygon fill="none" id="4" points="68,30 71,33 68,36 66,34 66,32" stroke="black" stroke-width="1" /></svg>