<?xml version="1.0" encoding="utf-8" ?>
<svg baseProfile="full" height="100" version="1.1" width="100" xmlns="http://www.w3.org/2000/svg" xmlns:ev="http://www.w3.org/2001/xml-events" xmlns:xlink="http://www.w3.org/1999/xlink"><defs /><polygon fill="none" id="1" points="36,33 36,37 35,38 35,41 34,42 34,47 33,48 33,65 34,66 34,72 35,73 37,73 38,72 40,72 40,69 41,68 41,66 42,65 42,64 43,63 43,62 44,61 44,60 45,59 45,56 44,56 43,55 41,55 41,56 40,57 40,58 39,59 38,58 38,52 39,51 39,47 40,46 40,42 41,41 41,38 42,37 42,34 41,33" stroke="black" stroke-width="1" /><polygon fill="none" id="2" points="72,27 71,28 70,28 69,29 69,30 68,31 68,35 69,36 69,37 70,38 71,38 72,39 72,40 71,41 67,41 66,40 66,33 61,33 61,41 60,42 47,42 47,46 61,46 62,47 62,57 61,58 52,58 51,59 50,59 49,60 48,60 47,61 47,63 46,64 46,66 47,67 47,69 48,70 49,70 50,71 51,71 52,72 62,72 63,71 65,71 66,70 66,68 68,66 69,66 70,67 71,67 74,70 76,70 77,69 77,68 78,67 78,65 77,64 76,64 75,63 74,63 73,62 72,62 71,61 70,61 69,60 68,60 67,59 67,51 66,50 66,47 67,46 72,46 73,45 76,45 76,41 75,40 76,39 78,39 79,38 80,38 81,37 81,36 82,35 82,31 81,30 81,29 80,28 79,28 78,27" stroke="black" stroke-width="1" /><polygon fill="none" id="3" points="54,63 55,62 59,62 60,63 61,63 62,64 62,65 59,68 55,68 52,65 52,64 53,63" stroke="black" stroke-width="1" /><polygon fill="none" id="4" points="75,30 78,33 75,36 72,33" stroke="black" stroke-width="1" /></svg>