<?xml version="1.0" encoding="utf-8" ?>
<svg baseProfile="full" height="100" version="1.1" width="100" xmlns="http://www.w3.org/2000/svg" xmlns:ev="http://www.w3.org/2001/xml-events" xmlns:xlink="http://www.w3.org/1999/xlink"><defs /><polygon fill="none" id="1" points="40,33 40,35 39,36 39,39 38,40 38,42 37,43 37,48 36,49 36,65 37,66 37,72 44,72 44,67 45,66 45,65 47,63 47,62 48,61 48,60 49,59 49,56 48,56 47,55 45,55 44,56 44,57 43,58 42,57 42,49 43,48 43,44 44,43 44,40 45,39 45,38 46,37 46,34 45,33" stroke="black" stroke-width="1" /><polygon fill="none" id="2" points="78,27 75,30 75,36 79,40 78,41 73,41 72,40 72,33 66,33 66,36 67,37 67,41 66,42 55,42 54,41 52,41 52,46 66,46 67,47 67,57 66,58 57,58 56,59 54,59 52,61 52,62 51,63 51,68 54,71 56,71 57,72 68,72 69,71 70,71 71,70 72,70 72,68 73,67 73,66 74,65 76,67 77,67 78,68 79,68 80,69 84,69 84,68 85,67 85,65 84,64 83,64 82,63 81,63 80,62 79,62 78,61 76,61 75,60 74,60 73,59 73,51 72,50 72,47 73,46 79,46 80,45 83,45 83,42 82,41 82,40 83,39 85,39 86,38 87,38 89,36 89,30 87,28 86,28 85,27" stroke="black" stroke-width="1" /><polygon fill="none" id="3" points="59,63 60,62 65,62 67,64 67,66 66,67 65,67 64,68 60,68 59,67 58,67 56,65 58,63" stroke="black" stroke-width="1" /><polygon fill="none" id="4" points="81,31 82,30 85,33 82,36 81,35 80,35 79,34 79,32 80,31" stroke="black" stroke-width="1" /></svg>