<?xml version="1.0" encoding="utf-8" ?>
<svg baseProfile="full" height="100" version="1.1" width="100" xmlns="http://www.w3.org/2000/svg" xmlns:ev="http://www.w3.org/2001/xml-events" xmlns:xlink="http://www.w3.org/1999/xlink"><defs /><polygon fill="none" id="1" points="40,70 43,70" stroke="black" stroke-width="1" /><polygon fill="none" id="2" points="38,69" stroke="black" stroke-width="1" /><polygon fill="none" id="3" points="46,68 45,69" stroke="black" stroke-width="1" /><polygon fill="none" id="4" points="53,65 54,66" stroke="black" stroke-width="1" /><polygon fill="none" id="5" points="36,63 36,67" stroke="black" stroke-width="1" /><polygon fill="none" id="6" points="40,60 44,60 45,61 46,61 47,62 47,63 50,63 51,64 50,63 49,63 48,62 47,62 46,61 46,60" stroke="black" stroke-width="1" /><polygon fill="none" id="7" points="46,49 46,54 47,55 47,57 47,55 46,54" stroke="black" stroke-width="1" /><polygon fill="none" id="8" points="26,47 26,67 27,68 27,70 27,67 28,66 28,63 27,63 26,62" stroke="black" stroke-width="1" /><polygon fill="none" id="9" points="51,43 50,44 36,44 45,44 46,45 47,44 51,44 52,43 53,43" stroke="black" stroke-width="1" /><polygon fill="none" id="10" points="46,35 46,40" stroke="black" stroke-width="1" /><polygon fill="none" id="11" points="28,35 28,39 27,40 27,45 27,40 28,39" stroke="black" stroke-width="1" /></svg>