<?xml version="1.0" encoding="utf-8" ?>
<svg baseProfile="full" height="100" version="1.1" width="100" xmlns="http://www.w3.org/2000/svg" xmlns:ev="http://www.w3.org/2001/xml-events" xmlns:xlink="http://www.w3.org/1999/xlink"><defs /><polygon fill="none" id="1" points="45,70 49,70" stroke="black" stroke-width="1" /><polygon fill="none" id="2" points="41,68 42,69" stroke="black" stroke-width="1" /><polygon fill="none" id="3" points="58,64 61,67 61,66 60,65 59,65" stroke="black" stroke-width="1" /><polygon fill="none" id="4" points="40,64 40,66" stroke="black" stroke-width="1" /><polygon fill="none" id="5" points="42,61 41,62" stroke="black" stroke-width="1" /><polygon fill="none" id="6" points="44,60 48,60" stroke="black" stroke-width="1" /><polygon fill="none" id="7" points="34,59" stroke="black" stroke-width="1" /><polygon fill="none" id="8" points="52,35 52,43 51,44 40,44 51,44 52,45 52,60 51,61 52,62 52,68 51,69 52,68 52,64 53,63 56,63 55,63 54,62 53,62 52,61 52,58 53,57 53,54 52,53 52,45 53,44 57,44 58,43 60,43 57,43 56,44 53,44 52,43" stroke="black" stroke-width="1" /><polygon fill="none" id="9" points="31,35 31,41 30,42 30,47 29,48 29,65 30,66 30,70 31,70 31,65 32,64 30,64 29,63 29,51 30,50 30,43 31,42 31,38 32,37 32,35" stroke="black" stroke-width="1" /></svg>