<?xml version="1.0" encoding="utf-8" ?>
<svg baseProfile="full" height="100" version="1.1" width="100" xmlns="http://www.w3.org/2000/svg" xmlns:ev="http://www.w3.org/2001/xml-events" xmlns:xlink="http://www.w3.org/1999/xlink"><defs /><polygon fill="none" id="1" points="47,61 45,63 45,64 44,65 45,66 45,67 47,69 45,67 45,63" stroke="black" stroke-width="1" /><polygon fill="none" id="2" points="37,61" stroke="black" stroke-width="1" /><polygon fill="none" id="3" points="49,60 54,60" stroke="black" stroke-width="1" /><polygon fill="none" id="4" points="38,59" stroke="black" stroke-width="1" /><polygon fill="none" id="5" points="57,35 57,36 58,37 58,43 57,44 45,44 57,44 58,45 58,60 57,61 58,62 58,67 55,70 49,70 55,70 56,69 57,69 58,68 58,64 59,63 63,63 64,64 65,64 68,67 68,66 67,66 65,64 64,64 63,63 61,63 59,61 59,53 58,52 58,45 59,44 64,44 65,43 67,43 63,43 62,44 59,44 58,43 58,35" stroke="black" stroke-width="1" /><polygon fill="none" id="6" points="35,35 35,38 34,39 34,42 33,43 33,49 32,50 32,64 33,65 33,70 34,70 34,68 35,67 35,64 34,64 33,63 33,46 34,45 34,41 35,40 35,37 36,36 36,35" stroke="black" stroke-width="1" /></svg>