<?xml version="1.0" encoding="utf-8" ?>
<svg baseProfile="full" height="100" version="1.1" width="100" xmlns="http://www.w3.org/2000/svg" xmlns:ev="http://www.w3.org/2001/xml-events" xmlns:xlink="http://www.w3.org/1999/xlink"><defs /><polygon fill="none" id="1" points="35,30 34,31 34,34 35,35 35,36 36,37 35,38 26,38 26,42 27,43 32,43 33,42 37,42 38,43 38,44 39,45 38,46 32,46 31,47 26,47 26,52 29,52 30,51 36,51 37,50 41,50 42,51 42,52 43,53 42,54 33,54 32,55 31,55 28,58 28,59 27,60 27,66 28,67 28,68 30,70 31,70 32,71 34,71 35,72 48,72 48,67 45,67 44,68 38,68 37,67 35,67 31,63 31,62 34,59 35,59 36,58 40,58 41,59 43,59 44,60 45,60 47,62 49,62 51,60 51,58 50,57 50,56 49,55 49,54 47,52 47,51 46,50 46,49 48,47 50,47 51,46 52,46 53,45 54,45 54,43 53,42 53,41 52,40 50,40 48,42 47,42 46,43 45,43 44,44 42,42 42,41 43,40 45,40 46,39 47,39 48,38 49,38 49,34 48,33 46,33 45,34 44,34 43,35 42,35 41,36 39,34 39,32 38,31 38,30" stroke="black" stroke-width="1" /></svg>