<?xml version="1.0" encoding="utf-8" ?>
<svg baseProfile="full" height="100" version="1.1" width="100" xmlns="http://www.w3.org/2000/svg" xmlns:ev="http://www.w3.org/2001/xml-events" xmlns:xlink="http://www.w3.org/1999/xlink"><defs /><polygon fill="none" id="1" points="56,61 54,63 54,64 53,65 53,66 56,69 57,69 56,69 54,67 54,63 56,61 57,61" stroke="black" stroke-width="1" /><polygon fill="none" id="2" points="59,60 65,60" stroke="black" stroke-width="1" /><polygon fill="none" id="3" points="46,58 46,59 45,60 45,61 44,62 45,61 45,60 46,59" stroke="black" stroke-width="1" /><polygon fill="none" id="4" points="69,35 69,43 68,44 54,44 68,44 69,45 69,56 70,57 70,59 68,61 69,61 70,62 70,65 69,66 69,68 68,69 67,69 66,70 59,70 66,70 67,69 68,69 69,68 70,68 70,66 71,65 71,64 72,63 76,63 78,65 79,65 80,66 81,66 82,67 82,66 81,66 80,65 79,65 78,64 77,64 76,63 74,63 73,62 72,62 71,61 71,53 70,52 70,45 71,44 77,44 78,43 80,43 75,43 74,44 71,44 70,43 70,35" stroke="black" stroke-width="1" /><polygon fill="none" id="5" points="42,35 42,37 41,38 41,41 40,42 40,44 39,45 39,50 38,51 38,63 39,64 39,70 42,70 42,65 43,64 41,64 39,62 39,58 40,57 40,47 41,46 41,42 42,41 42,38 43,37 43,35" stroke="black" stroke-width="1" /><polygon fill="none" id="6" points="87,32 87,34" stroke="black" stroke-width="1" /></svg>