<?xml version="1.0" encoding="utf-8" ?>
<svg baseProfile="full" height="100" version="1.1" width="100" xmlns="http://www.w3.org/2000/svg" xmlns:ev="http://www.w3.org/2001/xml-events" xmlns:xlink="http://www.w3.org/1999/xlink"><defs /><polygon fill="none" id="1" points="45,36 44,37 43,37 42,38 40,38 39,39 36,39 35,40 32,40 31,41 29,41 29,42 30,43 30,44 31,44 32,43 34,43 35,42 37,42 38,41 39,41 40,40 41,40 42,41 38,45 38,46 36,48 36,49 35,50 35,51 34,52 34,54 33,55 33,63 34,64 34,65 35,66 35,67 38,70 39,70 40,71 41,71 42,72 49,72 50,71 52,71 53,70 54,70 57,67 57,66 58,65 58,64 59,63 59,59 60,58 60,50 59,49 59,45 60,44 61,45 61,46 63,48 63,49 64,50 64,51 66,53 66,54 68,56 70,54 70,53 66,49 66,48 63,45 63,44 61,42 61,41 60,40 60,39 59,38 59,37 57,37 56,38 56,41 57,42 57,60 56,61 56,63 54,65 54,66 52,68 51,68 50,69 49,69 48,70 43,70 42,69 41,69 37,65 37,63 36,62 36,56 37,55 37,52 38,51 38,50 40,48 40,47 42,45 42,44 47,39 47,38 46,37 46,36" stroke="black" stroke-width="1" /><polygon fill="none" id="2" points="66,31 65,32 64,32 64,33 63,34 63,38 66,41 70,41 73,38 73,34 70,31" stroke="black" stroke-width="1" /><polygon fill="none" id="3" points="67,32 69,32 71,34 71,35 72,36 71,37 71,38 69,40 67,40 64,37 64,35" stroke="black" stroke-width="1" /></svg>