<?xml version="1.0" encoding="utf-8" ?>
<svg baseProfile="full" height="100" version="1.1" width="100" xmlns="http://www.w3.org/2000/svg" xmlns:ev="http://www.w3.org/2001/xml-events" xmlns:xlink="http://www.w3.org/1999/xlink"><defs /><polygon fill="none" id="1" points="36,36 35,37 34,37 33,38 32,38 31,39 29,39 28,40 26,40 25,41 23,41 23,42 24,43 24,44 25,44 26,43 27,43 28,42 29,42 30,41 31,41 32,40 33,40 34,41 31,44 31,45 30,46 30,47 29,48 29,49 28,50 28,51 27,52 27,56 26,57 26,62 27,63 27,65 28,66 28,67 29,68 29,69 30,70 31,70 32,71 33,71 34,72 39,72 40,71 41,71 42,70 43,70 45,68 45,67 46,66 46,64 47,63 47,59 48,58 48,51 47,50 47,45 48,44 49,45 49,46 50,47 50,49 51,50 51,51 52,52 52,53 53,54 53,55 54,56 56,54 56,53 54,51 54,50 52,48 52,47 51,46 51,45 49,43 49,42 48,41 48,40 47,39 47,37 45,37 44,38 45,39 45,43 46,44 46,58 45,59 45,62 44,63 44,65 40,69 39,69 38,70 35,70 34,69 33,69 30,66 30,65 29,64 29,54 30,53 30,51 31,50 31,49 32,48 32,47 33,46 33,45 34,44 34,43 38,39 38,38 37,37 37,36" stroke="black" stroke-width="1" /><polygon fill="none" id="2" points="53,31 52,32 51,32 51,33 50,34 50,38 53,41 56,41 58,39 58,33 56,31" stroke="black" stroke-width="1" /><polygon fill="none" id="3" points="54,32 55,32 57,34 57,38 55,40 54,40 51,37 51,35" stroke="black" stroke-width="1" /></svg>