<?xml version="1.0" encoding="utf-8" ?>
<svg baseProfile="full" height="100" version="1.1" width="100" xmlns="http://www.w3.org/2000/svg" xmlns:ev="http://www.w3.org/2001/xml-events" xmlns:xlink="http://www.w3.org/1999/xlink"><defs /><polygon fill="none" id="1" points="49,36 48,37 47,37 46,38 44,38 43,39 40,39 39,40 36,40 35,41 32,41 32,42 33,43 33,44 34,44 35,43 38,43 39,42 41,42 42,41 43,41 44,40 45,40 46,41 42,45 42,46 39,49 39,50 38,51 38,52 37,53 37,55 36,56 36,62 37,63 37,65 42,70 43,70 44,71 45,71 46,72 55,72 56,71 57,71 58,70 59,70 60,69 61,69 62,68 62,67 64,65 64,63 65,62 65,59 66,58 66,50 65,49 65,45 66,44 68,46 68,47 69,48 69,49 71,51 71,52 74,55 74,56 75,56 77,54 77,53 72,48 72,47 67,42 67,41 66,40 66,39 65,38 65,37 62,37 61,38 61,39 62,40 62,42 63,43 63,59 62,60 62,62 61,63 61,64 56,69 54,69 53,70 48,70 47,69 45,69 41,65 41,64 40,63 40,55 41,54 41,52 42,51 42,50 44,48 44,47 52,39 52,38 51,37 51,36" stroke="black" stroke-width="1" /><polygon fill="none" id="2" points="72,31 69,34 69,38 71,40 72,40 73,41 77,41 80,38 80,37 81,36 80,35 80,34 79,33 79,32 78,32 77,31" stroke="black" stroke-width="1" /><polygon fill="none" id="3" points="73,33 74,32 76,32 79,35 79,37 76,40 74,40 73,39 72,39 71,38 71,34 72,33" stroke="black" stroke-width="1" /></svg>