<?xml version="1.0" encoding="utf-8" ?>
<svg baseProfile="full" height="100" version="1.1" width="100" xmlns="http://www.w3.org/2000/svg" xmlns:ev="http://www.w3.org/2001/xml-events" xmlns:xlink="http://www.w3.org/1999/xlink"><defs /><polygon fill="none" id="1" points="59,31 57,33 57,35 56,36 56,37 57,38 57,40 56,41 54,39 54,37 51,37 50,38 50,40 51,41 51,51 52,52 52,53 51,54 51,61 50,62 50,64 48,66 48,67 47,68 46,68 45,69 44,69 43,70 40,70 39,69 38,69 34,65 34,63 33,62 33,58 34,57 34,54 35,53 35,51 37,49 37,48 38,47 38,46 41,43 41,42 43,40 43,37 42,36 40,36 39,37 38,37 37,38 36,38 35,39 33,39 32,40 29,40 28,41 26,41 26,43 27,44 27,45 29,45 30,44 32,44 33,43 34,43 35,44 35,45 33,47 33,48 32,49 32,50 31,51 31,53 30,54 30,65 31,66 31,67 32,68 32,69 34,71 35,71 36,72 37,72 38,73 45,73 46,72 48,72 52,68 52,67 53,66 53,65 54,64 54,60 55,59 55,50 56,49 57,50 57,51 58,52 58,53 59,54 59,55 61,57 62,57 64,55 64,53 61,50 61,49 59,47 59,46 57,44 57,43 56,42 56,41 57,40 59,42 64,42 66,40 66,39 67,38 67,35 66,34 66,33 64,31" stroke="black" stroke-width="1" /><polygon fill="none" id="2" points="54,48 55,47 56,48 56,49 55,50 54,49" stroke="black" stroke-width="1" /><polygon fill="none" id="3" points="34,43 35,42 36,43 35,44" stroke="black" stroke-width="1" /><polygon fill="none" id="4" points="61,33 62,33 64,35 64,38 62,40 61,40 59,38 59,35" stroke="black" stroke-width="1" /></svg>