<?xml version="1.0" encoding="utf-8" ?>
<svg baseProfile="full" height="100" version="1.1" width="100" xmlns="http://www.w3.org/2000/svg" xmlns:ev="http://www.w3.org/2001/xml-events" xmlns:xlink="http://www.w3.org/1999/xlink"><defs /><polygon fill="none" id="1" points="49,36 48,37 47,37 46,38 44,38 43,39 40,39 39,40 36,40 35,41 32,41 32,43 33,44 33,45 35,45 36,44 39,44 40,43 42,43 43,44 42,45 42,46 39,49 39,50 38,51 38,52 37,53 37,55 36,56 36,63 37,64 37,66 42,71 43,71 44,72 45,72 46,73 56,73 57,72 58,72 59,71 60,71 61,70 62,70 63,69 63,68 65,66 65,64 66,63 66,60 67,59 67,50 66,49 66,47 67,46 68,47 68,48 69,49 69,50 71,52 71,53 74,56 74,57 76,57 78,55 78,53 73,48 73,47 68,42 68,41 67,40 67,39 66,38 66,37 62,37 61,38 61,40 62,41 62,43 63,44 63,59 62,60 62,62 61,63 61,64 56,69 54,69 53,70 49,70 48,69 46,69 42,65 42,64 41,63 41,56 42,55 42,53 43,52 43,51 45,49 45,48 53,40 53,38 52,37 52,36" stroke="black" stroke-width="1" /><polygon fill="none" id="2" points="42,43 43,42 44,43 43,44" stroke="black" stroke-width="1" /><polygon fill="none" id="3" points="72,31 69,34 69,39 71,41 72,41 73,42 78,42 81,39 81,38 82,37 82,36 81,35 81,34 80,33 80,32 79,32 78,31" stroke="black" stroke-width="1" /><polygon fill="none" id="4" points="74,34 75,33 76,33 79,36 79,37 76,40 75,40 74,39 73,39 72,38 72,35 73,34" stroke="black" stroke-width="1" /></svg>