<?xml version="1.0" encoding="utf-8" ?>
<svg baseProfile="full" height="100" version="1.1" width="100" xmlns="http://www.w3.org/2000/svg" xmlns:ev="http://www.w3.org/2001/xml-events" xmlns:xlink="http://www.w3.org/1999/xlink"><defs /><polygon fill="none" id="1" points="37,37 36,38 35,38 34,39 33,39 32,40 30,40 29,41 27,41 26,42 24,42 25,43 25,44 26,43 27,43 28,42 29,42 30,41 31,41 32,40 34,40 35,41 35,42 32,45 32,46 31,47 31,48 30,49 30,50 29,51 29,52 28,53 28,57 27,58 27,62 28,63 28,65 29,66 29,67 30,68 30,69 31,70 32,70 33,71 34,71 35,72 39,72 40,71 41,71 42,70 43,70 45,68 45,67 46,66 46,64 47,63 47,59 48,58 48,52 47,51 47,45 48,44 49,44 50,45 50,46 51,47 51,49 52,50 52,51 53,52 53,53 54,54 54,55 55,55 56,54 54,52 54,51 52,49 52,48 51,47 51,46 49,44 49,43 48,42 48,41 47,40 47,38 46,38 46,43 47,44 47,59 46,60 46,63 45,64 45,66 41,70 40,70 39,71 35,71 34,70 33,70 30,67 30,66 29,65 29,54 30,53 30,51 31,50 31,49 32,48 32,47 33,46 33,45 34,44 34,43 38,39 37,38" stroke="black" stroke-width="1" /><polygon fill="none" id="2" points="54,32 53,33 52,33 52,34 51,35 51,38 54,41 56,41 58,39 58,34 56,32" stroke="black" stroke-width="1" /><polygon fill="none" id="3" points="54,32 56,32 58,34 58,39 56,41 54,41 51,38 51,35" stroke="black" stroke-width="1" /></svg>