<?xml version="1.0" encoding="utf-8" ?>
<svg baseProfile="full" height="100" version="1.1" width="100" xmlns="http://www.w3.org/2000/svg" xmlns:ev="http://www.w3.org/2001/xml-events" xmlns:xlink="http://www.w3.org/1999/xlink"><defs /><polygon fill="none" id="1" points="46,37 45,38 44,38 43,39 41,39 40,40 37,40 36,41 33,41 32,42 30,42 31,43 31,44 32,43 34,43 35,42 37,42 38,41 39,41 40,40 42,40 43,41 43,42 39,46 39,47 37,49 37,50 36,51 36,52 35,53 35,55 34,56 34,63 35,64 35,65 36,66 36,67 39,70 40,70 41,71 42,71 43,72 49,72 50,71 52,71 53,70 54,70 57,67 57,66 58,65 58,64 59,63 59,59 60,58 60,51 59,50 59,45 60,44 61,44 62,45 62,46 64,48 64,49 65,50 65,51 67,53 67,54 68,55 69,55 70,54 66,50 66,49 63,46 63,45 61,43 61,42 60,41 60,40 59,39 59,38 58,38 57,39 57,41 58,42 58,61 57,62 57,64 55,66 55,67 53,69 52,69 51,70 50,70 49,71 43,71 42,70 41,70 37,66 37,64 36,63 36,56 37,55 37,52 38,51 38,50 40,48 40,47 42,45 42,44 47,39 46,38" stroke="black" stroke-width="1" /><polygon fill="none" id="2" points="67,32 66,33 65,33 65,34 64,35 64,38 67,41 70,41 73,38 73,35 70,32" stroke="black" stroke-width="1" /><polygon fill="none" id="3" points="67,32 70,32 72,34 72,35 73,36 73,37 72,38 72,39 70,41 67,41 64,38 64,35" stroke="black" stroke-width="1" /></svg>