<?xml version="1.0" encoding="utf-8" ?>
<svg baseProfile="full" height="100" version="1.1" width="100" xmlns="http://www.w3.org/2000/svg" xmlns:ev="http://www.w3.org/2001/xml-events" xmlns:xlink="http://www.w3.org/1999/xlink"><defs /><polygon fill="none" id="1" points="50,37 49,38 48,38 47,39 45,39 44,40 41,40 40,41 37,41 36,42 33,42 34,43 34,44 35,43 38,43 39,42 41,42 42,41 43,41 44,40 46,40 47,41 47,42 43,46 43,47 40,50 40,51 39,52 39,53 38,54 38,56 37,57 37,62 38,63 38,65 43,70 44,70 45,71 46,71 47,72 55,72 56,71 57,71 58,70 59,70 60,69 61,69 62,68 62,67 64,65 64,63 65,62 65,59 66,58 66,51 65,50 65,45 66,44 67,44 69,46 69,47 70,48 70,49 72,51 72,52 75,55 75,56 77,54 72,49 72,48 67,43 67,42 66,41 66,40 65,39 65,38 63,38 62,39 63,40 63,42 64,43 64,60 63,61 63,63 62,64 62,65 57,70 55,70 54,71 48,71 47,70 45,70 41,66 41,65 40,64 40,55 41,54 41,52 42,51 42,50 44,48 44,47 52,39 51,38 51,37" stroke="black" stroke-width="1" /><polygon fill="none" id="2" points="73,32 70,35 70,38 72,40 73,40 74,41 77,41 80,38 80,35 79,34 79,33 78,33 77,32" stroke="black" stroke-width="1" /><polygon fill="none" id="3" points="73,33 74,32 77,32 80,35 80,38 77,41 74,41 73,40 72,40 71,39 71,34 72,33" stroke="black" stroke-width="1" /></svg>