<?xml version="1.0" encoding="utf-8" ?>
<svg baseProfile="full" height="100" version="1.1" width="100" xmlns="http://www.w3.org/2000/svg" xmlns:ev="http://www.w3.org/2001/xml-events" xmlns:xlink="http://www.w3.org/1999/xlink"><defs /><polygon fill="none" id="1" points="44,30 43,31 43,34 44,35 44,36 45,37 44,38 33,38 33,42 34,43 40,43 41,42 47,42 48,43 48,44 49,45 48,46 40,46 39,47 32,47 32,49 33,50 33,52 36,52 37,51 45,51 46,50 51,50 53,52 53,53 52,54 42,54 41,55 39,55 38,56 37,56 35,58 35,59 34,60 34,65 35,66 35,67 38,70 39,70 40,71 44,71 45,72 60,72 60,68 59,67 57,67 56,68 48,68 47,67 43,67 39,63 39,62 42,59 44,59 45,58 50,58 51,59 54,59 55,60 56,60 57,61 58,61 59,62 61,62 63,60 63,57 61,55 61,54 59,52 59,51 57,49 58,48 59,48 60,47 62,47 63,46 65,46 66,45 67,45 67,43 66,42 66,41 65,40 63,40 62,41 61,41 60,42 59,42 58,43 56,43 55,44 53,42 53,41 54,40 56,40 57,39 59,39 60,38 61,38 61,34 60,33 58,33 57,34 56,34 55,35 53,35 52,36 51,36 49,34 49,33 48,32 48,30" stroke="black" stroke-width="1" /></svg>