<?xml version="1.0" encoding="utf-8" ?>
<svg baseProfile="full" height="100" version="1.1" width="100" xmlns="http://www.w3.org/2000/svg" xmlns:ev="http://www.w3.org/2001/xml-events" xmlns:xlink="http://www.w3.org/1999/xlink"><defs /><polygon fill="none" id="1" points="55,37 54,38 52,38 51,39 49,39 48,40 45,40 44,41 40,41 39,42 36,42 37,43 37,44 38,43 41,43 42,42 45,42 46,41 47,41 48,40 51,40 52,41 52,42 51,43 50,43 45,48 45,49 43,51 43,52 42,53 42,55 41,56 41,63 42,64 42,65 43,66 43,67 45,69 46,69 47,70 48,70 49,71 51,71 52,72 60,72 61,71 63,71 64,70 65,70 70,65 70,63 71,62 71,59 72,58 72,50 71,49 71,45 72,44 73,44 75,46 75,47 77,49 77,50 80,53 80,54 82,56 84,54 76,46 76,45 72,41 72,40 71,39 71,38 69,38 68,39 68,40 69,41 69,46 70,47 70,57 69,58 69,61 68,62 68,64 66,66 66,67 65,68 64,68 62,70 60,70 59,71 52,71 51,70 49,70 45,66 45,65 44,64 44,63 43,62 43,57 44,56 44,54 45,53 45,52 46,51 46,50 48,48 48,47 55,40 56,40 57,39" stroke="black" stroke-width="1" /><polygon fill="none" id="2" points="80,32 79,33 78,33 77,34 77,35 76,36 76,37 78,39 78,40 79,40 80,41 84,41 85,40 86,40 88,38 88,35 86,33 85,33 84,32" stroke="black" stroke-width="1" /><polygon fill="none" id="3" points="80,32 84,32 87,35 87,38 84,41 80,41 77,38 77,35" stroke="black" stroke-width="1" /></svg>