<?xml version="1.0" encoding="utf-8" ?>
<svg baseProfile="full" height="100" version="1.1" width="100" xmlns="http://www.w3.org/2000/svg" xmlns:ev="http://www.w3.org/2001/xml-events" xmlns:xlink="http://www.w3.org/1999/xlink"><defs /><polygon fill="none" id="1" points="52,30 51,31 50,31 50,32 49,33 49,35 48,36 44,36 43,37 43,39 44,40 44,44 45,45 45,57 44,58 44,61 43,62 43,64 39,68 38,68 37,69 36,69 35,68 34,68 31,65 31,64 30,63 30,55 31,54 31,52 32,51 32,50 33,49 33,48 34,47 34,46 35,45 35,44 39,40 39,37 38,36 38,35 35,35 34,36 33,36 32,37 31,37 30,38 28,38 27,39 25,39 24,40 22,40 22,43 23,44 23,45 26,45 27,44 28,44 29,45 29,46 28,47 28,48 27,49 27,50 26,51 26,55 25,56 25,63 26,64 26,66 27,67 27,68 28,69 28,70 29,71 30,71 31,72 32,72 33,73 40,73 41,72 42,72 43,71 44,71 46,69 46,68 47,67 47,65 48,64 48,60 49,59 49,53 50,52 51,53 51,54 52,55 52,56 53,57 55,57 57,55 57,52 55,50 55,49 53,47 53,46 52,45 52,44 51,43 52,42 57,42 59,40 59,32 57,30" stroke="black" stroke-width="1" /><polygon fill="none" id="2" points="28,44 29,43 30,44 29,45" stroke="black" stroke-width="1" /><polygon fill="none" id="3" points="50,42 51,41 52,42 51,43" stroke="black" stroke-width="1" /><polygon fill="none" id="4" points="54,34 55,34 56,35 56,37 55,38 54,38 52,36" stroke="black" stroke-width="1" /></svg>