<?xml version="1.0" encoding="utf-8" ?>
<svg baseProfile="full" height="100" version="1.1" width="100" xmlns="http://www.w3.org/2000/svg" xmlns:ev="http://www.w3.org/2001/xml-events" xmlns:xlink="http://www.w3.org/1999/xlink"><defs /><polygon fill="none" id="1" points="58,30 56,32 56,34 54,36 50,36 49,37 49,40 50,41 50,51 51,52 50,53 50,60 49,61 49,63 47,65 47,66 46,67 45,67 44,68 43,68 42,69 40,69 39,68 38,68 34,64 34,62 33,61 33,58 34,57 34,54 35,53 35,51 37,49 37,48 38,47 38,46 41,43 41,42 43,40 43,36 42,35 39,35 38,36 37,36 36,37 35,37 34,38 32,38 31,39 28,39 27,40 25,40 25,43 26,44 26,45 29,45 30,44 32,44 33,45 32,46 32,47 31,48 31,49 30,50 30,52 29,53 29,65 30,66 30,67 31,68 31,69 33,71 34,71 35,72 36,72 37,73 45,73 46,72 48,72 52,68 52,67 53,66 53,65 54,64 54,60 55,59 55,52 56,51 57,52 57,53 58,54 58,55 60,57 62,57 64,55 64,52 61,49 61,48 59,46 59,45 57,43 58,42 64,42 66,40 66,39 67,38 67,34 66,33 66,32 64,30" stroke="black" stroke-width="1" /><polygon fill="none" id="2" points="32,44 33,43 34,44 33,45" stroke="black" stroke-width="1" /><polygon fill="none" id="3" points="54,38 55,37 56,38 55,39" stroke="black" stroke-width="1" /><polygon fill="none" id="4" points="61,33 63,35 63,37 61,39 59,37 59,35" stroke="black" stroke-width="1" /></svg>