<?xml version="1.0" encoding="utf-8" ?>
<svg baseProfile="full" height="100" version="1.1" width="100" xmlns="http://www.w3.org/2000/svg" xmlns:ev="http://www.w3.org/2001/xml-events" xmlns:xlink="http://www.w3.org/1999/xlink"><defs /><polygon fill="none" id="1" points="65,30 64,31 63,31 63,32 62,33 62,37 61,38 60,37 60,36 56,36 55,37 55,42 56,43 56,59 55,60 55,62 53,64 53,65 51,67 50,67 49,68 48,68 47,69 44,69 43,68 42,68 38,64 38,62 37,61 37,57 38,56 38,53 39,52 39,51 41,49 41,48 43,46 43,45 48,40 48,37 47,36 47,35 44,35 43,36 42,36 41,37 39,37 38,38 35,38 34,39 31,39 30,40 28,40 28,43 29,44 29,45 32,45 33,44 35,44 36,43 37,44 37,45 35,47 35,48 34,49 34,50 33,51 33,53 32,54 32,64 33,65 33,66 34,67 34,68 37,71 38,71 39,72 40,72 41,73 50,73 51,72 53,72 54,71 55,71 58,68 58,67 59,66 59,65 60,64 60,60 61,59 61,51 62,50 63,51 63,52 65,54 65,55 67,57 69,57 71,55 71,52 67,48 67,47 64,44 64,43 65,42 71,42 74,39 74,33 71,30" stroke="black" stroke-width="1" /><polygon fill="none" id="2" points="63,42 64,41 65,42 64,43" stroke="black" stroke-width="1" /><polygon fill="none" id="3" points="62,41 63,40 64,41 63,42" stroke="black" stroke-width="1" /><polygon fill="none" id="4" points="68,33 70,35 70,37 68,39 65,36" stroke="black" stroke-width="1" /></svg>