<?xml version="1.0" encoding="utf-8" ?>
<svg baseProfile="full" height="100" version="1.1" width="100" xmlns="http://www.w3.org/2000/svg" xmlns:ev="http://www.w3.org/2001/xml-events" xmlns:xlink="http://www.w3.org/1999/xlink"><defs /><polygon fill="none" id="1" points="71,30 68,33 68,37 67,38 66,37 66,36 61,36 60,37 60,40 61,41 61,43 62,44 62,58 61,59 61,61 60,62 60,63 55,68 53,68 52,69 49,69 48,68 46,68 42,64 42,63 41,62 41,56 42,55 42,53 43,52 43,51 45,49 45,48 53,40 53,37 52,36 52,35 48,35 47,36 46,36 45,37 43,37 42,38 39,38 38,39 35,39 34,40 31,40 31,43 32,44 32,45 35,45 36,44 39,44 40,43 41,44 41,45 38,48 38,49 37,50 37,51 36,52 36,54 35,55 35,63 36,64 36,66 41,71 42,71 43,72 44,72 45,73 56,73 57,72 58,72 59,71 60,71 61,70 62,70 63,69 63,68 65,66 65,64 66,63 66,60 67,59 67,51 68,50 70,52 70,53 73,56 73,57 76,57 78,55 78,52 73,47 73,46 69,42 70,41 71,41 72,42 78,42 81,39 81,38 82,37 82,35 81,34 81,33 80,32 80,31 79,31 78,30" stroke="black" stroke-width="1" /><polygon fill="none" id="2" points="68,41 69,40 70,41 69,42" stroke="black" stroke-width="1" /><polygon fill="none" id="3" points="74,34 75,33 78,36 75,39 74,38 73,38 72,37 72,35 73,34" stroke="black" stroke-width="1" /></svg>