<?xml version="1.0" encoding="utf-8" ?>
<svg baseProfile="full" height="100" version="1.1" width="100" xmlns="http://www.w3.org/2000/svg" xmlns:ev="http://www.w3.org/2001/xml-events" xmlns:xlink="http://www.w3.org/1999/xlink"><defs /><polygon fill="none" id="1" points="78,30 77,31 76,31 75,32 75,33 74,34 74,37 73,38 72,37 72,36 67,36 66,37 66,41 67,42 67,47 68,48 68,55 67,56 67,59 66,60 66,62 64,64 64,65 63,66 62,66 60,68 58,68 57,69 53,69 52,68 50,68 46,64 46,63 45,62 45,61 44,60 44,58 45,57 45,55 46,54 46,53 47,52 47,51 49,49 49,48 56,41 57,41 58,40 58,37 56,35 53,35 52,36 50,36 49,37 47,37 46,38 43,38 42,39 38,39 37,40 33,40 33,42 35,44 35,45 38,45 39,44 42,44 43,43 44,43 45,44 43,46 43,47 41,49 41,50 40,51 40,53 39,54 39,64 40,65 40,66 41,67 41,68 43,70 44,70 45,71 46,71 47,72 49,72 50,73 61,73 62,72 64,72 65,71 66,71 71,66 71,64 72,63 72,60 73,59 73,50 74,49 75,50 75,51 78,54 78,55 80,57 83,57 85,55 85,52 77,44 77,43 78,42 85,42 86,41 87,41 89,39 89,33 87,31 86,31 85,30" stroke="black" stroke-width="1" /><polygon fill="none" id="2" points="76,42 77,41 78,42 77,43" stroke="black" stroke-width="1" /><polygon fill="none" id="3" points="74,40 75,39 76,40 75,41" stroke="black" stroke-width="1" /><polygon fill="none" id="4" points="73,39 74,38 75,39 74,40" stroke="black" stroke-width="1" /><polygon fill="none" id="5" points="81,33 82,33 85,36 82,39 81,39 78,36" stroke="black" stroke-width="1" /></svg>