<?xml version="1.0" encoding="utf-8" ?>
<svg baseProfile="full" height="100" version="1.1" width="100" xmlns="http://www.w3.org/2000/svg" xmlns:ev="http://www.w3.org/2001/xml-events" xmlns:xlink="http://www.w3.org/1999/xlink"><defs /><polygon fill="none" id="1" points="39,71 43,71" stroke="black" stroke-width="1" /><polygon fill="none" id="2" points="37,70" stroke="black" stroke-width="1" /><polygon fill="none" id="3" points="47,69 46,70 45,70 46,70" stroke="black" stroke-width="1" /><polygon fill="none" id="4" points="33,67 35,69" stroke="black" stroke-width="1" /><polygon fill="none" id="5" points="50,66 49,67" stroke="black" stroke-width="1" /><polygon fill="none" id="6" points="53,51 53,54 52,55 52,62 51,63 51,64 51,63 52,62 52,58 53,57" stroke="black" stroke-width="1" /><polygon fill="none" id="7" points="33,50 33,51 32,52 32,54 31,55 31,63 32,64 32,65 32,64 31,63 31,56 32,55 32,52 33,51" stroke="black" stroke-width="1" /><polygon fill="none" id="8" points="58,49 59,50 59,51 60,52 60,53 61,54 61,53 59,51 59,50" stroke="black" stroke-width="1" /><polygon fill="none" id="9" points="57,47" stroke="black" stroke-width="1" /><polygon fill="none" id="10" points="35,47 34,48" stroke="black" stroke-width="1" /><polygon fill="none" id="11" points="36,45" stroke="black" stroke-width="1" /><polygon fill="none" id="12" points="30,41 29,42 28,42 30,42 31,41 32,41" stroke="black" stroke-width="1" /><polygon fill="none" id="13" points="34,40" stroke="black" stroke-width="1" /><polygon fill="none" id="14" points="52,38 52,49 52,44 53,43 54,43 54,42 52,40" stroke="black" stroke-width="1" /><polygon fill="none" id="15" points="39,38 38,39 37,39 38,39 39,40 39,41 39,40 41,38" stroke="black" stroke-width="1" /><polygon fill="none" id="16" points="65,36" stroke="black" stroke-width="1" /></svg>