<?xml version="1.0" encoding="utf-8" ?>
<svg baseProfile="full" height="100" version="1.1" width="100" xmlns="http://www.w3.org/2000/svg" xmlns:ev="http://www.w3.org/2001/xml-events" xmlns:xlink="http://www.w3.org/1999/xlink"><defs /><polygon fill="none" id="1" points="48,30 47,31 47,34 49,36 49,37 48,38 36,38 36,41 37,42 37,43 44,43 45,42 52,42 53,43 53,44 54,45 53,46 44,46 43,47 36,47 36,51 37,52 40,52 41,51 49,51 50,50 56,50 59,53 58,54 46,54 45,55 43,55 42,56 41,56 38,59 38,66 42,70 43,70 44,71 48,71 49,72 66,72 66,68 65,67 63,67 62,68 52,68 51,67 47,67 43,63 43,62 46,59 48,59 49,58 56,58 57,59 60,59 61,60 62,60 63,61 64,61 65,62 68,62 70,60 70,58 67,55 67,54 64,51 64,50 63,49 64,48 65,48 66,47 68,47 69,46 72,46 73,45 74,45 74,43 73,42 73,41 72,40 70,40 69,41 68,41 67,42 65,42 64,43 62,43 61,44 60,44 58,42 58,41 59,40 61,40 62,39 65,39 66,38 68,38 68,36 67,35 67,34 66,33 64,33 63,34 61,34 60,35 58,35 57,36 55,36 54,35 54,33 53,32 53,30" stroke="black" stroke-width="1" /></svg>