<?xml version="1.0" encoding="utf-8" ?>
<svg baseProfile="full" height="100" version="1.1" width="100" xmlns="http://www.w3.org/2000/svg" xmlns:ev="http://www.w3.org/2001/xml-events" xmlns:xlink="http://www.w3.org/1999/xlink"><defs /><polygon fill="none" id="1" points="35,52 34,53 34,55 33,56 33,57 32,58 32,59 31,60 31,61 27,65 30,68 30,67 32,65 32,64 34,62 34,61 35,60 35,59 36,58 36,57 37,56 37,55 38,54 38,53 37,53 36,52" stroke="black" stroke-width="1" /><polygon fill="none" id="2" points="61,50 60,51 59,51 59,52 61,54 61,55 64,58 64,59 66,61 66,62 67,63 67,64 68,65 68,66 70,64 71,64 71,63 69,61 69,60 68,59 68,58 65,55 65,54" stroke="black" stroke-width="1" /><polygon fill="none" id="3" points="45,46 46,47 46,53 48,55 48,56 53,61 53,63 54,64 54,65 53,66 53,67 51,69 47,69 46,68 45,68 44,67 43,67 41,65 41,64 40,64 38,66 40,68 41,68 43,70 45,70 46,71 52,71 53,70 54,70 56,68 56,60 51,55 51,54 49,52 49,51 48,50 48,47 49,46" stroke="black" stroke-width="1" /><polygon fill="none" id="4" points="64,33 63,34 62,34 61,35 61,41 62,42 63,42 64,43 68,43 70,41 70,40 71,39 71,37 70,36 70,35 68,33" stroke="black" stroke-width="1" /><polygon fill="none" id="5" points="65,34 67,34 69,36 69,40 67,42 65,42 62,39 62,37" stroke="black" stroke-width="1" /><polygon fill="none" id="6" points="44,33 43,34 43,35 44,36 46,36 47,37 48,37 49,38 50,38 52,40 53,40 55,42 55,41 57,39 56,38 55,38 54,37 53,37 52,36 51,36 50,35 49,35 48,34 47,34 46,33" stroke="black" stroke-width="1" /></svg>