<?xml version="1.0" encoding="utf-8" ?>
<svg baseProfile="full" height="100" version="1.1" width="100" xmlns="http://www.w3.org/2000/svg" xmlns:ev="http://www.w3.org/2001/xml-events" xmlns:xlink="http://www.w3.org/1999/xlink"><defs /><polygon fill="none" id="1" points="38,52 38,53 37,54 37,56 35,58 35,59 34,60 34,61 30,65 30,66 31,66 33,68 34,67 34,66 36,64 36,63 39,60 39,59 40,58 40,57 41,56 41,55 42,54 42,53 41,53 40,52" stroke="black" stroke-width="1" /><polygon fill="none" id="2" points="67,50 66,51 65,51 65,52 68,55 68,56 71,59 71,60 73,62 73,63 74,64 74,65 75,66 77,64 78,64 78,63 76,61 76,60 74,58 74,57 68,51 68,50" stroke="black" stroke-width="1" /><polygon fill="none" id="3" points="50,46 50,50 51,51 51,53 52,54 52,55 58,61 58,62 59,63 59,66 56,69 51,69 50,68 49,68 47,66 46,66 45,65 45,64 44,64 42,66 44,68 45,68 46,69 47,69 48,70 49,70 50,71 57,71 58,70 59,70 60,69 61,69 61,68 62,67 62,61 61,60 61,59 54,52 54,51 53,50 53,47 54,46" stroke="black" stroke-width="1" /><polygon fill="none" id="4" points="70,33 69,34 68,34 67,35 67,41 68,42 69,42 70,43 75,43 78,40 78,36 75,33" stroke="black" stroke-width="1" /><polygon fill="none" id="5" points="71,34 73,34 74,35 75,35 76,36 76,40 75,41 74,41 73,42 71,42 68,39 68,37" stroke="black" stroke-width="1" /><polygon fill="none" id="6" points="48,33 47,34 47,35 48,35 49,36 50,36 51,37 53,37 54,38 55,38 56,39 57,39 59,41 61,41 63,39 62,39 61,38 60,38 59,37 58,37 57,36 56,36 55,35 54,35 53,34 51,34 50,33" stroke="black" stroke-width="1" /></svg>