<?xml version="1.0" encoding="utf-8" ?>
<svg baseProfile="full" height="100" version="1.1" width="100" xmlns="http://www.w3.org/2000/svg" xmlns:ev="http://www.w3.org/2001/xml-events" xmlns:xlink="http://www.w3.org/1999/xlink"><defs /><polygon fill="none" id="1" points="53,30 52,31 51,31 51,33 53,35 53,36 54,37 53,38 40,38 40,42 41,43 47,43 48,42 57,42 58,43 58,44 59,45 58,46 48,46 47,47 39,47 39,50 40,51 40,52 44,52 45,51 54,51 55,50 62,50 64,52 64,53 63,54 50,54 49,55 47,55 46,56 45,56 44,57 43,57 42,58 42,59 41,60 41,65 42,66 42,67 44,69 45,69 46,70 47,70 48,71 53,71 54,72 72,72 72,68 71,67 69,67 68,68 57,68 56,67 52,67 51,66 50,66 47,63 47,62 50,59 52,59 53,58 61,58 62,59 65,59 66,60 68,60 69,61 70,61 71,62 74,62 76,60 76,57 75,57 73,55 73,54 70,51 70,50 69,50 68,49 69,48 71,48 72,47 75,47 76,46 78,46 79,45 80,45 80,43 79,42 79,41 78,40 76,40 75,41 74,41 73,42 71,42 70,43 67,43 66,44 65,44 64,43 64,42 63,41 64,40 67,40 68,39 71,39 72,38 74,38 74,35 72,33 70,33 69,34 67,34 66,35 63,35 62,36 60,36 59,35 59,33 58,32 58,31 57,30" stroke="black" stroke-width="1" /></svg>