<?xml version="1.0" encoding="utf-8" ?>
<svg baseProfile="full" height="100" version="1.1" width="100" xmlns="http://www.w3.org/2000/svg" xmlns:ev="http://www.w3.org/2001/xml-events" xmlns:xlink="http://www.w3.org/1999/xlink"><defs /><polygon fill="none" id="1" points="35,52 34,53 34,55 33,56 33,57 32,58 32,59 31,60 31,61 27,65 27,66 30,69 31,69 31,68 33,66 33,65 35,63 35,62 36,61 36,60 37,59 37,58 38,57 38,56 39,55 39,53 38,53 37,52" stroke="black" stroke-width="1" /><polygon fill="none" id="2" points="61,50 60,51 59,51 59,53 61,55 61,56 64,59 64,60 66,62 66,63 67,64 67,65 68,66 68,67 69,67 71,65 72,65 72,63 70,61 70,60 69,59 69,58 66,55 66,54 62,50" stroke="black" stroke-width="1" /><polygon fill="none" id="3" points="45,46 45,47 46,48 46,54 48,56 48,57 53,62 53,64 54,65 53,66 53,67 51,69 48,69 47,68 46,68 45,67 44,67 42,65 42,64 40,64 38,66 38,67 40,69 41,69 43,71 45,71 46,72 53,72 54,71 55,71 57,69 57,60 52,55 52,54 50,52 50,51 49,50 49,48 50,47 50,46" stroke="black" stroke-width="1" /><polygon fill="none" id="4" points="64,33 63,34 62,34 61,35 61,42 62,43 63,43 64,44 69,44 71,42 71,41 72,40 72,37 71,36 71,35 69,33" stroke="black" stroke-width="1" /><polygon fill="none" id="5" points="66,35 67,35 69,37 69,40 67,42 66,42 63,39 63,38" stroke="black" stroke-width="1" /><polygon fill="none" id="6" points="44,33 43,34 43,36 44,37 46,37 47,38 48,38 49,39 50,39 52,41 53,41 55,43 56,43 56,42 58,40 58,39 57,38 56,38 55,37 54,37 53,36 52,36 51,35 50,35 49,34 48,34 47,33" stroke="black" stroke-width="1" /></svg>