<?xml version="1.0" encoding="utf-8" ?>
<svg baseProfile="full" height="100" version="1.1" width="100" xmlns="http://www.w3.org/2000/svg" xmlns:ev="http://www.w3.org/2001/xml-events" xmlns:xlink="http://www.w3.org/1999/xlink"><defs /><polygon fill="none" id="1" points="29,53 29,54 28,55 28,57 27,58 27,59 26,60 26,61 25,62 25,63 24,64 24,65 23,66 24,67 25,66 25,65 26,64 26,63 27,62 27,61 28,60 28,59 29,58 29,56 30,55 30,54" stroke="black" stroke-width="1" /><polygon fill="none" id="2" points="49,51 49,54 51,56 51,57 52,58 52,59 53,60 53,61 54,62 54,63 55,64 55,65 56,64 56,63 55,62 55,61 54,60 54,59 53,58 53,57 52,56 52,55 50,53 50,52" stroke="black" stroke-width="1" /><polygon fill="none" id="3" points="37,47 37,48 38,49 38,54 40,56 40,57 43,60 43,62 44,63 44,67 41,70 37,70 33,66 32,66 32,67 34,69 35,69 37,71 41,71 42,70 43,70 44,69 44,68 45,67 45,62 44,61 44,60 43,59 43,58 40,55 40,54 39,53 39,47" stroke="black" stroke-width="1" /><polygon fill="none" id="4" points="52,34 50,36 50,37 49,38 49,39 50,40 50,41 52,43 54,43 56,41 56,40 57,39 57,38 56,37 56,36 54,34" stroke="black" stroke-width="1" /><polygon fill="none" id="5" points="52,34 54,34 56,36 56,41 54,43 52,43 50,41 50,40 49,39 49,38 50,37 50,36" stroke="black" stroke-width="1" /><polygon fill="none" id="6" points="36,34 35,35 36,36 37,36 38,37 39,37 41,39 42,39 44,41 45,40 43,38 42,38 40,36 39,36 38,35 37,35" stroke="black" stroke-width="1" /></svg>