<?xml version="1.0" encoding="utf-8" ?>
<svg baseProfile="full" height="100" version="1.1" width="100" xmlns="http://www.w3.org/2000/svg" xmlns:ev="http://www.w3.org/2001/xml-events" xmlns:xlink="http://www.w3.org/1999/xlink"><defs /><polygon fill="none" id="1" points="36,53 35,54 35,56 34,57 34,58 33,59 33,60 32,61 32,62 29,65 29,66 30,67 32,65 32,64 34,62 34,61 35,60 35,59 36,58 36,57 37,56 37,55 38,54 37,54" stroke="black" stroke-width="1" /><polygon fill="none" id="2" points="60,52 62,54 62,55 65,58 65,59 67,61 67,62 68,63 68,64 69,65 70,64 71,64 69,62 69,61 68,60 68,59 65,56 65,55 62,52" stroke="black" stroke-width="1" /><polygon fill="none" id="3" points="47,47 47,53 49,55 49,56 54,61 54,63 55,64 55,66 54,67 54,68 52,70 47,70 46,69 45,69 44,68 43,68 41,66 41,65 40,66 40,67 41,68 42,68 44,70 46,70 47,71 52,71 53,70 54,70 56,68 56,61 51,56 51,55 49,53 49,52 48,51 48,47" stroke="black" stroke-width="1" /><polygon fill="none" id="4" points="65,34 64,35 63,35 62,36 62,41 63,42 64,42 65,43 68,43 70,41 70,40 71,39 71,38 70,37 70,36 68,34" stroke="black" stroke-width="1" /><polygon fill="none" id="5" points="65,34 68,34 70,36 70,41 68,43 65,43 62,40 62,37" stroke="black" stroke-width="1" /><polygon fill="none" id="6" points="45,34 44,35 45,36 47,36 48,37 49,37 50,38 51,38 53,40 54,40 55,41 56,40 56,39 55,39 54,38 53,38 52,37 51,37 50,36 49,36 48,35 47,35 46,34" stroke="black" stroke-width="1" /></svg>