<?xml version="1.0" encoding="utf-8" ?>
<svg baseProfile="full" height="100" version="1.1" width="100" xmlns="http://www.w3.org/2000/svg" xmlns:ev="http://www.w3.org/2001/xml-events" xmlns:xlink="http://www.w3.org/1999/xlink"><defs /><polygon fill="none" id="1" points="37,70 46,70" stroke="black" stroke-width="1" /><polygon fill="none" id="2" points="34,69 35,69" stroke="black" stroke-width="1" /><polygon fill="none" id="3" points="30,66 32,68" stroke="black" stroke-width="1" /><polygon fill="none" id="4" points="29,62 29,64" stroke="black" stroke-width="1" /><polygon fill="none" id="5" points="43,57" stroke="black" stroke-width="1" /><polygon fill="none" id="6" points="33,57" stroke="black" stroke-width="1" /><polygon fill="none" id="7" points="47,56 47,57 46,58 47,58 48,59 48,58 47,57" stroke="black" stroke-width="1" /><polygon fill="none" id="8" points="35,56 40,56" stroke="black" stroke-width="1" /><polygon fill="none" id="9" points="34,48 33,49 28,49 34,49 35,48 38,48" stroke="black" stroke-width="1" /><polygon fill="none" id="10" points="41,45 41,47 42,47 43,48 43,47 44,46 45,46 42,46" stroke="black" stroke-width="1" /><polygon fill="none" id="11" points="51,43 50,44 49,44 48,45 47,45 48,45 49,44 50,44" stroke="black" stroke-width="1" /><polygon fill="none" id="12" points="28,40 29,41 30,41 31,40 35,40" stroke="black" stroke-width="1" /><polygon fill="none" id="13" points="38,37 38,39 40,41 40,42 40,39 39,39 38,38" stroke="black" stroke-width="1" /><polygon fill="none" id="14" points="46,36 45,37 44,37 43,38 42,38 43,38 44,37 45,37 46,36 47,36" stroke="black" stroke-width="1" /><polygon fill="none" id="15" points="37,34" stroke="black" stroke-width="1" /></svg>