<?xml version="1.0" encoding="utf-8" ?>
<svg baseProfile="full" height="100" version="1.1" width="100" xmlns="http://www.w3.org/2000/svg" xmlns:ev="http://www.w3.org/2001/xml-events" xmlns:xlink="http://www.w3.org/1999/xlink"><defs /><polygon fill="none" id="1" points="30,51 30,53 29,54 29,56 28,57 28,58 27,59 27,60 24,63 24,67 26,69 28,69 28,68 30,66 30,65 31,64 31,63 32,62 32,61 33,60 33,59 34,58 34,56 35,55 35,52 34,52 33,51" stroke="black" stroke-width="1" /><polygon fill="none" id="2" points="54,49 53,50 52,50 52,53 54,55 54,56 56,58 56,59 57,60 57,61 58,62 58,63 59,64 59,65 60,66 60,67 62,67 64,65 65,65 65,62 63,60 63,59 62,58 62,57 60,55 60,54 58,52 58,51 56,49" stroke="black" stroke-width="1" /><polygon fill="none" id="3" points="40,45 40,53 41,54 41,55 42,56 42,57 46,61 46,62 47,63 47,66 45,68 43,68 42,67 41,67 38,64 38,63 35,63 34,64 34,68 36,70 37,70 38,71 39,71 40,72 48,72 51,69 51,68 52,67 52,62 51,61 51,59 50,58 50,57 46,53 46,52 45,51 45,49 44,48 45,47 45,45" stroke="black" stroke-width="1" /><polygon fill="none" id="4" points="38,32 38,33 37,34 37,36 38,36 39,37 40,37 41,38 42,38 44,40 45,40 47,42 51,42 51,41 53,39 54,40 54,42 56,44 62,44 64,42 64,41 65,40 65,36 64,35 64,34 62,32 56,32 54,34 54,36 52,38 51,37 50,37 48,35 47,35 46,34 45,34 44,33 43,33 42,32" stroke="black" stroke-width="1" /><polygon fill="none" id="5" points="59,35 61,37 61,39 59,41 57,39 57,37" stroke="black" stroke-width="1" /></svg>