<?xml version="1.0" encoding="utf-8" ?>
<svg baseProfile="full" height="100" version="1.1" width="100" xmlns="http://www.w3.org/2000/svg" xmlns:ev="http://www.w3.org/2001/xml-events" xmlns:xlink="http://www.w3.org/1999/xlink"><defs /><polygon fill="none" id="1" points="37,70 40,70" stroke="black" stroke-width="1" /><polygon fill="none" id="2" points="43,68 42,69" stroke="black" stroke-width="1" /><polygon fill="none" id="3" points="32,66 34,68" stroke="black" stroke-width="1" /><polygon fill="none" id="4" points="43,60 43,61 44,62 44,66 44,62 43,61" stroke="black" stroke-width="1" /><polygon fill="none" id="5" points="40,56 42,58" stroke="black" stroke-width="1" /><polygon fill="none" id="6" points="29,54 28,55 28,57 27,58 27,59 26,60 26,61 25,62 25,63 24,64 24,65 24,64 25,63 25,62 26,61 26,60 27,59 27,58 28,57 28,55" stroke="black" stroke-width="1" /><polygon fill="none" id="7" points="49,52 49,53 51,55 51,56 52,57 52,58 53,59 53,60 54,61 54,62 55,63 54,62 54,61 53,60 53,59 52,58 52,57 51,56 51,55 49,53" stroke="black" stroke-width="1" /><polygon fill="none" id="8" points="37,47 38,48 38,53 39,54 38,53 38,47" stroke="black" stroke-width="1" /><polygon fill="none" id="9" points="56,38" stroke="black" stroke-width="1" /><polygon fill="none" id="10" points="36,35 37,35 38,36 39,36 41,38 42,38 43,39 42,38 41,38 39,36 38,36 37,35" stroke="black" stroke-width="1" /></svg>