<?xml version="1.0" encoding="utf-8" ?>
<svg baseProfile="full" height="100" version="1.1" width="100" xmlns="http://www.w3.org/2000/svg" xmlns:ev="http://www.w3.org/2001/xml-events" xmlns:xlink="http://www.w3.org/1999/xlink"><defs /><polygon fill="none" id="1" points="47,70 51,70" stroke="black" stroke-width="1" /><polygon fill="none" id="2" points="43,68 44,69 45,69 44,69" stroke="black" stroke-width="1" /><polygon fill="none" id="3" points="40,66 41,67" stroke="black" stroke-width="1" /><polygon fill="none" id="4" points="35,54 35,56 34,57 34,58 33,59 33,60 32,61 32,62 29,65 30,65 31,64 31,63 33,61 33,60 34,59 34,58 35,57 35,56 36,55 36,54" stroke="black" stroke-width="1" /><polygon fill="none" id="5" points="61,52 62,53 62,54 65,57 65,58 67,60 67,61 68,62 68,63 69,63 68,62 68,61 67,60 67,59 64,56 64,55" stroke="black" stroke-width="1" /><polygon fill="none" id="6" points="47,47 47,52 49,54 49,55 54,60 54,62 55,63 55,66 54,67 54,68 53,69 55,67 55,61 50,56 50,55 48,53 48,52 47,51" stroke="black" stroke-width="1" /><polygon fill="none" id="7" points="70,38" stroke="black" stroke-width="1" /><polygon fill="none" id="8" points="45,34 45,35 47,35 48,36 49,36 50,37 51,37 53,39 55,39 54,39 53,38 52,38 51,37 50,37 49,36 48,36 47,35 46,35" stroke="black" stroke-width="1" /></svg>