<?xml version="1.0" encoding="utf-8" ?>
<svg baseProfile="full" height="100" version="1.1" width="100" xmlns="http://www.w3.org/2000/svg" xmlns:ev="http://www.w3.org/2001/xml-events" xmlns:xlink="http://www.w3.org/1999/xlink"><defs /><polygon fill="none" id="1" points="51,70 56,70" stroke="black" stroke-width="1" /><polygon fill="none" id="2" points="49,69" stroke="black" stroke-width="1" /><polygon fill="none" id="3" points="44,66 45,67 46,67 47,68 46,67 45,67" stroke="black" stroke-width="1" /><polygon fill="none" id="4" points="39,53 39,54 38,55 38,57 36,59 36,60 35,61 35,62 32,65 33,66 33,65 35,63 35,62 38,59 38,58 39,57 39,56 40,55 40,54" stroke="black" stroke-width="1" /><polygon fill="none" id="5" points="67,52 69,54 69,55 72,58 72,59 74,61 74,62 75,63 75,64 76,63 75,62 75,61 73,59 73,58" stroke="black" stroke-width="1" /><polygon fill="none" id="6" points="51,47 51,49 52,50 52,52 53,53 53,54 59,60 59,61 60,62 60,67 58,69 59,68 60,68 60,67 61,66 61,62 60,61 60,60 53,53 53,52 52,51 52,47" stroke="black" stroke-width="1" /><polygon fill="none" id="7" points="77,37 77,39" stroke="black" stroke-width="1" /><polygon fill="none" id="8" points="49,34 50,35 51,35 52,36 54,36 55,37 56,37 57,38 58,38 60,40 60,39 59,39 58,38 57,38 56,37 55,37 54,36 53,36 52,35 50,35" stroke="black" stroke-width="1" /></svg>