<?xml version="1.0" encoding="utf-8" ?>
<svg baseProfile="full" height="100" version="1.1" width="100" xmlns="http://www.w3.org/2000/svg" xmlns:ev="http://www.w3.org/2001/xml-events" xmlns:xlink="http://www.w3.org/1999/xlink"><defs /><polygon fill="none" id="1" points="42,70 52,70" stroke="black" stroke-width="1" /><polygon fill="none" id="2" points="38,69 40,69" stroke="black" stroke-width="1" /><polygon fill="none" id="3" points="35,58 33,60 33,65 36,68 33,65 33,60" stroke="black" stroke-width="1" /><polygon fill="none" id="4" points="48,57" stroke="black" stroke-width="1" /><polygon fill="none" id="5" points="37,57" stroke="black" stroke-width="1" /><polygon fill="none" id="6" points="53,56 53,57 52,58 51,58 52,58 53,59 54,59 54,58 53,57" stroke="black" stroke-width="1" /><polygon fill="none" id="7" points="39,56 46,56" stroke="black" stroke-width="1" /><polygon fill="none" id="8" points="51,53" stroke="black" stroke-width="1" /><polygon fill="none" id="9" points="38,48 37,49 31,49 38,49 39,48 43,48" stroke="black" stroke-width="1" /><polygon fill="none" id="10" points="57,43 56,44 55,44 54,45 52,45 51,46 47,46 46,45 46,44 46,47 48,47 49,46 51,46 52,45 54,45 55,44 57,44" stroke="black" stroke-width="1" /><polygon fill="none" id="11" points="32,40 32,41 34,41 35,40 40,40" stroke="black" stroke-width="1" /><polygon fill="none" id="12" points="43,37 43,38 42,39 43,39 45,41 45,42 45,39 44,39 43,38" stroke="black" stroke-width="1" /><polygon fill="none" id="13" points="52,36 51,37 49,37 48,38 47,38 48,38 49,37 51,37 52,36 53,36" stroke="black" stroke-width="1" /><polygon fill="none" id="14" points="42,35" stroke="black" stroke-width="1" /><polygon fill="none" id="15" points="41,32 41,33" stroke="black" stroke-width="1" /></svg>