<?xml version="1.0" encoding="utf-8" ?>
<svg baseProfile="full" height="100" version="1.1" width="100" xmlns="http://www.w3.org/2000/svg" xmlns:ev="http://www.w3.org/2001/xml-events" xmlns:xlink="http://www.w3.org/1999/xlink"><defs /><polygon fill="none" id="1" points="35,43 31,47 31,48 22,57 24,59 24,60 29,55 29,54 32,51 32,50 35,47 36,47 41,52 41,53 46,58 47,58 52,63 53,63 54,64 55,64 56,63 56,61 55,61 53,59 52,59 38,45 38,44 37,43" stroke="black" stroke-width="1" /><polygon fill="none" id="2" points="48,37 46,39 46,45 48,47 51,47 52,46 53,46 53,45 54,44 54,40 53,39 53,38 52,38 51,37" stroke="black" stroke-width="1" /><polygon fill="none" id="3" points="49,38 50,38 53,41 53,43 50,46 49,46 47,44 47,40" stroke="black" stroke-width="1" /></svg>