<?xml version="1.0" encoding="utf-8" ?>
<svg baseProfile="full" height="100" version="1.1" width="100" xmlns="http://www.w3.org/2000/svg" xmlns:ev="http://www.w3.org/2001/xml-events" xmlns:xlink="http://www.w3.org/1999/xlink"><defs /><polygon fill="none" id="1" points="43,43 31,55 30,55 28,57 30,59 30,60 32,58 33,58 44,47 45,47 47,49 48,49 54,55 55,55 58,58 59,58 62,61 63,61 64,62 65,62 68,65 71,62 70,61 69,61 68,60 67,60 65,58 64,58 63,57 62,57 59,54 58,54 54,50 53,50 46,43" stroke="black" stroke-width="1" /><polygon fill="none" id="2" points="60,37 58,39 58,40 57,41 57,43 58,44 58,45 60,47 64,47 65,46 66,46 67,45 67,39 66,38 65,38 64,37" stroke="black" stroke-width="1" /><polygon fill="none" id="3" points="61,38 63,38 66,41 66,43 63,46 61,46 59,44 59,40" stroke="black" stroke-width="1" /></svg>