<?xml version="1.0" encoding="utf-8" ?>
<svg baseProfile="full" height="100" version="1.1" width="100" xmlns="http://www.w3.org/2000/svg" xmlns:ev="http://www.w3.org/2001/xml-events" xmlns:xlink="http://www.w3.org/1999/xlink"><defs /><polygon fill="none" id="1" points="39,43 35,47 35,48 28,55 27,55 25,57 27,59 27,60 37,50 37,49 39,47 41,47 52,58 53,58 56,61 57,61 60,64 62,64 64,62 63,61 62,61 60,59 59,59 57,57 56,57 53,54 52,54 41,43" stroke="black" stroke-width="1" /><polygon fill="none" id="2" points="54,37 52,39 52,40 51,41 51,43 52,44 52,45 54,47 58,47 60,45 60,44 61,43 61,41 60,40 60,39 58,37" stroke="black" stroke-width="1" /><polygon fill="none" id="3" points="55,38 57,38 59,40 59,44 57,46 55,46 53,44 53,40" stroke="black" stroke-width="1" /></svg>