<?xml version="1.0" encoding="utf-8" ?>
<svg baseProfile="full" height="100" version="1.1" width="100" xmlns="http://www.w3.org/2000/svg" xmlns:ev="http://www.w3.org/2001/xml-events" xmlns:xlink="http://www.w3.org/1999/xlink"><defs /><polygon fill="none" id="1" points="47,70 58,70" stroke="black" stroke-width="1" /><polygon fill="none" id="2" points="42,69 45,69" stroke="black" stroke-width="1" /><polygon fill="none" id="3" points="39,58 37,60 37,61 36,62 36,63 37,64 37,65 40,68 37,65 37,60" stroke="black" stroke-width="1" /><polygon fill="none" id="4" points="53,57 54,57" stroke="black" stroke-width="1" /><polygon fill="none" id="5" points="41,57 42,57" stroke="black" stroke-width="1" /><polygon fill="none" id="6" points="59,56 59,57 58,58 57,58 58,58 59,59 60,59 60,58 59,57" stroke="black" stroke-width="1" /><polygon fill="none" id="7" points="44,56 51,56" stroke="black" stroke-width="1" /><polygon fill="none" id="8" points="55,51 57,53" stroke="black" stroke-width="1" /><polygon fill="none" id="9" points="42,48 41,49 35,49 43,49 44,48 49,48" stroke="black" stroke-width="1" /><polygon fill="none" id="10" points="35,40 36,41 38,41 39,40 45,40" stroke="black" stroke-width="1" /><polygon fill="none" id="11" points="58,36 57,37 55,37 54,38 52,38 54,38 55,37 57,37 58,36 59,36" stroke="black" stroke-width="1" /><polygon fill="none" id="12" points="46,32 46,34 47,35 47,39 48,39 50,41 50,42 51,43 51,47 53,47 54,48 54,49 54,47 55,46 57,46 58,45 60,45 61,44 63,44 64,43 63,43 62,44 61,44 60,45 58,45 57,46 53,46 51,44 51,43 50,42 50,39 49,39 48,38 48,37 47,36 47,35 46,34" stroke="black" stroke-width="1" /></svg>