<?xml version="1.0" encoding="utf-8" ?>
<svg baseProfile="full" height="100" version="1.1" width="100" xmlns="http://www.w3.org/2000/svg" xmlns:ev="http://www.w3.org/2001/xml-events" xmlns:xlink="http://www.w3.org/1999/xlink"><defs /><polygon fill="none" id="1" points="52,43 50,45 49,45 43,51 42,51 39,54 38,54 37,55 36,55 34,57 36,59 36,60 37,59 38,59 40,57 41,57 45,53 46,53 51,48 52,48 53,47 55,47 58,50 59,50 62,53 63,53 65,55 66,55 68,57 69,57 71,59 72,59 73,60 74,60 75,61 76,61 77,62 78,62 79,63 80,63 81,64 83,64 85,62 85,61 83,61 82,60 81,60 80,59 79,59 78,58 77,58 76,57 75,57 74,56 73,56 71,54 70,54 69,53 68,53 65,50 64,50 62,48 61,48 57,44 56,44 55,43" stroke="black" stroke-width="1" /><polygon fill="none" id="2" points="72,37 68,41 68,43 72,47 77,47 78,46 79,46 81,44 81,40 79,38 78,38 77,37" stroke="black" stroke-width="1" /><polygon fill="none" id="3" points="73,39 74,38 76,38 79,41 79,43 76,46 74,46 73,45 72,45 71,44 71,40 72,39" stroke="black" stroke-width="1" /></svg>