<?xml version="1.0" encoding="utf-8" ?>
<svg baseProfile="full" height="100" version="1.1" width="100" xmlns="http://www.w3.org/2000/svg" xmlns:ev="http://www.w3.org/2001/xml-events" xmlns:xlink="http://www.w3.org/1999/xlink"><defs /><polygon fill="none" id="1" points="35,43 31,47 31,48 22,57 22,58 24,60 24,61 25,61 30,56 30,55 33,52 33,51 36,48 41,53 41,54 46,59 47,59 52,64 53,64 54,65 56,65 57,64 57,61 56,61 54,59 53,59 39,45 39,44 38,43" stroke="black" stroke-width="1" /><polygon fill="none" id="2" points="48,37 46,39 46,46 48,48 52,48 53,47 54,47 54,46 55,45 55,40 54,39 54,38 53,38 52,37" stroke="black" stroke-width="1" /><polygon fill="none" id="3" points="50,39 53,42 53,43 50,46 48,44 48,41" stroke="black" stroke-width="1" /></svg>