<?xml version="1.0" encoding="utf-8" ?>
<svg baseProfile="full" height="100" version="1.1" width="100" xmlns="http://www.w3.org/2000/svg" xmlns:ev="http://www.w3.org/2001/xml-events" xmlns:xlink="http://www.w3.org/1999/xlink"><defs /><polygon fill="none" id="1" points="39,43 35,47 35,48 28,55 27,55 25,57 25,58 27,60 27,61 28,61 38,51 38,50 40,48 41,48 52,59 53,59 56,62 57,62 60,65 63,65 65,63 65,62 64,61 63,61 61,59 60,59 58,57 57,57 54,54 53,54 42,43" stroke="black" stroke-width="1" /><polygon fill="none" id="2" points="54,37 52,39 52,40 51,41 51,44 52,45 52,46 54,48 59,48 61,46 61,45 62,44 62,41 61,40 61,39 59,37" stroke="black" stroke-width="1" /><polygon fill="none" id="3" points="56,39 57,39 59,41 59,44 57,46 56,46 54,44 54,41" stroke="black" stroke-width="1" /></svg>