<?xml version="1.0" encoding="utf-8" ?>
<svg baseProfile="full" height="100" version="1.1" width="100" xmlns="http://www.w3.org/2000/svg" xmlns:ev="http://www.w3.org/2001/xml-events" xmlns:xlink="http://www.w3.org/1999/xlink"><defs /><polygon fill="none" id="1" points="43,43 31,55 30,55 28,57 28,58 30,60 30,61 31,61 33,59 34,59 45,48 47,50 48,50 54,56 55,56 58,59 59,59 62,62 63,62 64,63 65,63 68,66 69,66 72,63 72,62 71,61 70,61 69,60 68,60 66,58 65,58 64,57 63,57 60,54 59,54 55,50 54,50 47,43" stroke="black" stroke-width="1" /><polygon fill="none" id="2" points="60,37 58,39 58,40 57,41 57,44 58,45 58,46 60,48 65,48 66,47 67,47 68,46 68,39 67,38 66,38 65,37" stroke="black" stroke-width="1" /><polygon fill="none" id="3" points="62,39 63,39 66,42 66,43 63,46 62,46 60,44 60,41" stroke="black" stroke-width="1" /></svg>