<?xml version="1.0" encoding="utf-8" ?>
<svg baseProfile="full" height="100" version="1.1" width="100" xmlns="http://www.w3.org/2000/svg" xmlns:ev="http://www.w3.org/2001/xml-events" xmlns:xlink="http://www.w3.org/1999/xlink"><defs /><polygon fill="none" id="1" points="48,43 47,44 46,44 38,52 37,52 34,55 33,55 31,57 31,58 33,60 33,61 34,61 35,60 36,60 40,56 41,56 49,48 50,48 53,51 54,51 58,55 59,55 61,57 62,57 65,60 66,60 67,61 68,61 70,63 71,63 72,64 73,64 75,66 76,66 79,63 79,61 77,61 76,60 75,60 74,59 73,59 72,58 71,58 69,56 68,56 66,54 65,54 63,52 62,52 58,48 57,48 52,43" stroke="black" stroke-width="1" /><polygon fill="none" id="2" points="66,37 63,40 63,45 66,48 72,48 73,47 74,47 74,46 75,45 75,40 74,39 74,38 73,38 72,37" stroke="black" stroke-width="1" /><polygon fill="none" id="3" points="68,39 70,39 73,42 73,43 70,46 68,46 66,44 66,41" stroke="black" stroke-width="1" /></svg>