<?xml version="1.0" encoding="utf-8" ?>
<svg baseProfile="full" height="100" version="1.1" width="100" xmlns="http://www.w3.org/2000/svg" xmlns:ev="http://www.w3.org/2001/xml-events" xmlns:xlink="http://www.w3.org/1999/xlink"><defs /><polygon fill="none" id="1" points="52,43 50,45 49,45 43,51 42,51 39,54 38,54 37,55 36,55 34,57 34,58 36,60 36,61 37,61 38,60 39,60 41,58 42,58 46,54 47,54 52,49 53,49 54,48 55,48 58,51 59,51 62,54 63,54 65,56 66,56 68,58 69,58 71,60 72,60 73,61 74,61 75,62 76,62 77,63 78,63 79,64 80,64 81,65 84,65 86,63 86,61 84,61 83,60 82,60 81,59 80,59 79,58 78,58 77,57 76,57 75,56 74,56 72,54 71,54 70,53 69,53 66,50 65,50 63,48 62,48 58,44 57,44 56,43" stroke="black" stroke-width="1" /><polygon fill="none" id="2" points="72,37 68,41 68,44 72,48 78,48 79,47 80,47 82,45 82,40 80,38 79,38 78,37" stroke="black" stroke-width="1" /><polygon fill="none" id="3" points="74,40 75,39 76,39 79,42 79,43 76,46 75,46 74,45 73,45 72,44 72,41 73,40" stroke="black" stroke-width="1" /></svg>