<?xml version="1.0" encoding="utf-8" ?>
<svg baseProfile="full" height="100" version="1.1" width="100" xmlns="http://www.w3.org/2000/svg" xmlns:ev="http://www.w3.org/2001/xml-events" xmlns:xlink="http://www.w3.org/1999/xlink"><defs /><polygon fill="none" id="1" points="36,44 32,48 32,49 24,57 24,58 25,59 29,55 29,54 32,51 32,50 35,47 37,47 42,52 42,53 47,58 48,58 53,63 54,63 55,64 56,63 56,62 55,62 53,60 52,60 38,46 38,45 37,44" stroke="black" stroke-width="1" /><polygon fill="none" id="2" points="49,38 47,40 47,45 49,47 51,47 52,46 53,46 53,45 54,44 54,41 53,40 53,39 52,39 51,38" stroke="black" stroke-width="1" /><polygon fill="none" id="3" points="49,38 51,38 54,41 54,44 51,47 49,47 47,45 47,40" stroke="black" stroke-width="1" /></svg>