<?xml version="1.0" encoding="utf-8" ?>
<svg baseProfile="full" height="100" version="1.1" width="100" xmlns="http://www.w3.org/2000/svg" xmlns:ev="http://www.w3.org/2001/xml-events" xmlns:xlink="http://www.w3.org/1999/xlink"><defs /><polygon fill="none" id="1" points="40,44 36,48 36,49 29,56 28,56 27,57 27,58 28,59 37,50 37,49 39,47 42,47 53,58 54,58 57,61 58,61 61,64 62,64 63,63 63,62 62,62 60,60 59,60 57,58 56,58 53,55 52,55 41,44" stroke="black" stroke-width="1" /><polygon fill="none" id="2" points="55,38 53,40 53,41 52,42 52,43 53,44 53,45 55,47 58,47 60,45 60,44 61,43 61,42 60,41 60,40 58,38" stroke="black" stroke-width="1" /><polygon fill="none" id="3" points="55,38 58,38 60,40 60,45 58,47 55,47 53,45 53,40" stroke="black" stroke-width="1" /></svg>