<?xml version="1.0" encoding="utf-8" ?>
<svg baseProfile="full" height="100" version="1.1" width="100" xmlns="http://www.w3.org/2000/svg" xmlns:ev="http://www.w3.org/2001/xml-events" xmlns:xlink="http://www.w3.org/1999/xlink"><defs /><polygon fill="none" id="1" points="49,44 48,45 47,45 39,53 38,53 35,56 34,56 33,57 33,58 34,59 35,59 39,55 40,55 48,47 51,47 54,50 55,50 59,54 60,54 62,56 63,56 66,59 67,59 68,60 69,60 71,62 72,62 73,63 74,63 75,64 76,64 78,62 76,62 75,61 74,61 73,60 72,60 71,59 70,59 68,57 67,57 65,55 64,55 62,53 61,53 57,49 56,49 51,44" stroke="black" stroke-width="1" /><polygon fill="none" id="2" points="67,38 64,41 64,44 67,47 71,47 72,46 73,46 73,45 74,44 74,41 73,40 73,39 72,39 71,38" stroke="black" stroke-width="1" /><polygon fill="none" id="3" points="67,38 71,38 74,41 74,44 71,47 67,47 65,45 65,40" stroke="black" stroke-width="1" /></svg>