<?xml version="1.0" encoding="utf-8" ?>
<svg baseProfile="full" height="100" version="1.1" width="100" xmlns="http://www.w3.org/2000/svg" xmlns:ev="http://www.w3.org/2001/xml-events" xmlns:xlink="http://www.w3.org/1999/xlink"><defs /><polygon fill="none" id="1" points="51,70 64,70" stroke="black" stroke-width="1" /><polygon fill="none" id="2" points="46,69 49,69" stroke="black" stroke-width="1" /><polygon fill="none" id="3" points="43,58 40,61 40,64 44,68 41,65 41,60" stroke="black" stroke-width="1" /><polygon fill="none" id="4" points="59,57" stroke="black" stroke-width="1" /><polygon fill="none" id="5" points="45,57 46,57" stroke="black" stroke-width="1" /><polygon fill="none" id="6" points="65,56 65,57 64,58 63,58 64,58 65,59 67,59 65,57" stroke="black" stroke-width="1" /><polygon fill="none" id="7" points="48,56 57,56" stroke="black" stroke-width="1" /><polygon fill="none" id="8" points="46,48 45,49 38,49 47,49 48,48 54,48" stroke="black" stroke-width="1" /><polygon fill="none" id="9" points="39,40 39,41 42,41 43,40 49,40" stroke="black" stroke-width="1" /><polygon fill="none" id="10" points="63,36 62,37 60,37 59,38 57,38 59,38 60,37 63,37 64,36 65,36" stroke="black" stroke-width="1" /><polygon fill="none" id="11" points="50,32 50,33 51,34 51,35 52,36 52,39 53,39 55,41 55,42 56,43 56,47 58,47 59,48 59,49 62,52 59,49 59,47 60,46 63,46 64,45 66,45 67,44 70,44 71,43 70,43 69,44 67,44 66,45 64,45 63,46 58,46 56,44 56,43 55,42 55,39 54,39 52,37 52,35 51,34 51,32" stroke="black" stroke-width="1" /></svg>