<?xml version="1.0" encoding="utf-8" ?>
<svg baseProfile="full" height="100" version="1.1" width="100" xmlns="http://www.w3.org/2000/svg" xmlns:ev="http://www.w3.org/2001/xml-events" xmlns:xlink="http://www.w3.org/1999/xlink"><defs /><polygon fill="none" id="1" points="53,44 51,46 50,46 44,52 43,52 40,55 39,55 38,56 37,56 36,57 36,58 37,59 38,59 40,57 41,57 45,53 46,53 51,48 52,48 53,47 56,47 59,50 60,50 63,53 64,53 66,55 67,55 69,57 70,57 72,59 73,59 74,60 75,60 76,61 77,61 78,62 79,62 80,63 81,63 82,64 83,64 85,62 83,62 82,61 81,61 80,60 79,60 78,59 77,59 76,58 75,58 74,57 73,57 71,55 70,55 69,54 68,54 65,51 64,51 62,49 61,49 57,45 56,45 55,44" stroke="black" stroke-width="1" /><polygon fill="none" id="2" points="73,38 69,42 69,43 73,47 77,47 78,46 79,46 81,44 81,41 79,39 78,39 77,38" stroke="black" stroke-width="1" /><polygon fill="none" id="3" points="73,39 74,38 77,38 80,41 80,44 77,47 74,47 73,46 72,46 71,45 71,40 72,39" stroke="black" stroke-width="1" /></svg>