<?xml version="1.0" encoding="utf-8" ?>
<svg baseProfile="full" height="100" version="1.1" width="100" xmlns="http://www.w3.org/2000/svg" xmlns:ev="http://www.w3.org/2001/xml-events" xmlns:xlink="http://www.w3.org/1999/xlink"><defs /><polygon fill="none" id="1" points="34,42 30,46 30,47 21,56 21,58 23,60 23,61 25,61 30,56 30,55 33,52 33,51 35,49 36,49 40,53 40,54 45,59 46,59 51,64 52,64 53,65 56,65 57,64 57,60 56,60 54,58 53,58 39,44 39,43 38,42" stroke="black" stroke-width="1" /><polygon fill="none" id="2" points="47,36 45,38 45,46 47,48 52,48 53,47 54,47 54,46 55,45 55,39 54,38 54,37 53,37 52,36" stroke="black" stroke-width="1" /><polygon fill="none" id="3" points="48,41 49,40 50,40 52,42 50,44 49,44 48,43" stroke="black" stroke-width="1" /></svg>