<?xml version="1.0" encoding="utf-8" ?>
<svg baseProfile="full" height="100" version="1.1" width="100" xmlns="http://www.w3.org/2000/svg" xmlns:ev="http://www.w3.org/2001/xml-events" xmlns:xlink="http://www.w3.org/1999/xlink"><defs /><polygon fill="none" id="1" points="38,42 34,46 34,47 27,54 26,54 24,56 24,58 26,60 26,61 28,61 38,51 38,50 40,48 51,59 52,59 55,62 56,62 59,65 63,65 65,63 65,61 64,60 63,60 61,58 60,58 58,56 57,56 54,53 53,53 42,42" stroke="black" stroke-width="1" /><polygon fill="none" id="2" points="53,36 51,38 51,39 50,40 50,44 51,45 51,46 53,48 59,48 61,46 61,45 62,44 62,40 61,39 61,38 59,36" stroke="black" stroke-width="1" /><polygon fill="none" id="3" points="56,39 58,41 58,43 56,45 54,43 54,41" stroke="black" stroke-width="1" /></svg>