<?xml version="1.0" encoding="utf-8" ?>
<svg baseProfile="full" height="100" version="1.1" width="100" xmlns="http://www.w3.org/2000/svg" xmlns:ev="http://www.w3.org/2001/xml-events" xmlns:xlink="http://www.w3.org/1999/xlink"><defs /><polygon fill="none" id="1" points="42,42 30,54 29,54 27,56 27,58 29,60 29,61 31,61 33,59 34,59 44,49 45,49 46,50 47,50 53,56 54,56 57,59 58,59 61,62 62,62 63,63 64,63 67,66 69,66 72,63 72,61 71,60 70,60 69,59 68,59 66,57 65,57 64,56 63,56 60,53 59,53 55,49 54,49 47,42" stroke="black" stroke-width="1" /><polygon fill="none" id="2" points="59,36 57,38 57,39 56,40 56,44 57,45 57,46 59,48 65,48 66,47 67,47 68,46 68,38 67,37 66,37 65,36" stroke="black" stroke-width="1" /><polygon fill="none" id="3" points="62,39 65,42 62,45 60,43 60,41" stroke="black" stroke-width="1" /></svg>