<?xml version="1.0" encoding="utf-8" ?>
<svg baseProfile="full" height="100" version="1.1" width="100" xmlns="http://www.w3.org/2000/svg" xmlns:ev="http://www.w3.org/2001/xml-events" xmlns:xlink="http://www.w3.org/1999/xlink"><defs /><polygon fill="none" id="1" points="51,42 49,44 48,44 42,50 41,50 38,53 37,53 36,54 35,54 33,56 33,58 35,60 35,61 37,61 38,60 39,60 41,58 42,58 46,54 47,54 52,49 53,49 54,48 57,51 58,51 61,54 62,54 64,56 65,56 67,58 68,58 70,60 71,60 72,61 73,61 74,62 75,62 76,63 77,63 78,64 79,64 80,65 84,65 86,63 86,60 84,60 83,59 82,59 81,58 80,58 79,57 78,57 77,56 76,56 75,55 74,55 72,53 71,53 70,52 69,52 66,49 65,49 63,47 62,47 58,43 57,43 56,42" stroke="black" stroke-width="1" /><polygon fill="none" id="2" points="71,36 67,40 67,44 71,48 78,48 79,47 80,47 82,45 82,39 80,37 79,37 78,36" stroke="black" stroke-width="1" /><polygon fill="none" id="3" points="74,40 75,39 78,42 75,45 74,44 73,44 72,43 72,41 73,40" stroke="black" stroke-width="1" /></svg>