<?xml version="1.0" encoding="utf-8" ?>
<svg baseProfile="full" height="100" version="1.1" width="100" xmlns="http://www.w3.org/2000/svg" xmlns:ev="http://www.w3.org/2001/xml-events" xmlns:xlink="http://www.w3.org/1999/xlink"><defs /><polygon fill="none" id="1" points="34,30 34,31 33,32 33,36 31,38 29,38 28,37 25,37 25,42 32,42 33,43 33,47 29,51 28,51 28,52 25,55 25,56 24,57 24,59 23,60 23,68 25,70 30,70 31,69 32,69 33,68 34,69 34,70 36,70 37,69 38,69 38,63 41,60 41,59 42,58 42,57 43,56 43,55 44,54 44,52 45,51 45,50 46,49 51,54 51,61 46,66 45,66 44,67 41,67 40,68 40,70 41,71 41,72 46,72 47,71 48,71 49,70 50,70 54,66 54,65 55,64 55,62 56,61 56,55 55,54 55,51 54,50 54,49 52,47 51,47 50,46 49,46 48,45 47,45 46,44 46,42 42,42 41,41 42,40 46,40 47,39 49,39 49,34 46,34 45,35 43,35 42,36 39,36 38,35 38,30" stroke="black" stroke-width="1" /><polygon fill="none" id="2" points="32,55 33,56 33,62 30,65 28,65 27,64 27,63 28,62 28,60 30,58 30,57" stroke="black" stroke-width="1" /><polygon fill="none" id="3" points="38,50 39,50 40,51 39,52 39,54 38,55 37,54 37,53 36,52" stroke="black" stroke-width="1" /><polygon fill="none" id="4" points="37,42 38,41 41,41 42,42 42,44 41,45 39,45 38,46 37,45" stroke="black" stroke-width="1" /><polygon fill="none" id="5" points="37,36 38,35 39,36 38,37" stroke="black" stroke-width="1" /></svg>