<?xml version="1.0" encoding="utf-8" ?>
<svg baseProfile="full" height="100" version="1.1" width="100" xmlns="http://www.w3.org/2000/svg" xmlns:ev="http://www.w3.org/2001/xml-events" xmlns:xlink="http://www.w3.org/1999/xlink"><defs /><polygon fill="none" id="1" points="56,70 70,70" stroke="black" stroke-width="1" /><polygon fill="none" id="2" points="47,58 46,59 45,59 44,60 44,61 43,62 43,63 44,64 44,65 46,67 47,67 48,68 49,68 50,69 54,69 50,69 49,68 48,68 45,65 45,60" stroke="black" stroke-width="1" /><polygon fill="none" id="3" points="64,57 65,57" stroke="black" stroke-width="1" /><polygon fill="none" id="4" points="49,57 50,57" stroke="black" stroke-width="1" /><polygon fill="none" id="5" points="52,56 62,56" stroke="black" stroke-width="1" /><polygon fill="none" id="6" points="50,48 49,49 42,49 42,50 43,49 52,49 53,48 59,48" stroke="black" stroke-width="1" /><polygon fill="none" id="7" points="42,40 43,41 45,41 46,40 54,40" stroke="black" stroke-width="1" /><polygon fill="none" id="8" points="69,36 68,37 65,37 64,38 62,38 65,38 66,37 69,37 70,36 71,36" stroke="black" stroke-width="1" /><polygon fill="none" id="9" points="55,32 55,34 57,36 57,38 56,39 58,39 60,41 60,42 62,44 62,46 61,47 63,47 66,50 66,51 70,55 70,57 69,58 68,58 70,58 71,59 73,59 71,57 71,56 68,53 68,52 67,52 66,51 66,50 65,49 65,47 66,46 69,46 70,45 73,45 74,44 76,44 77,43 76,43 75,44 73,44 72,45 69,45 68,46 63,46 62,45 62,44 60,42 60,39 59,39 57,37 57,35 56,34 56,33" stroke="black" stroke-width="1" /></svg>