<?xml version="1.0" encoding="utf-8" ?>
<svg baseProfile="full" height="100" version="1.1" width="100" xmlns="http://www.w3.org/2000/svg" xmlns:ev="http://www.w3.org/2001/xml-events" xmlns:xlink="http://www.w3.org/1999/xlink"><defs /><polygon fill="none" id="1" points="39,35 39,38 49,38 50,39 50,44 51,45 49,47 41,47 40,46 38,46 38,48 39,49 50,49 51,50 51,59 50,60 49,59 43,59 42,60 41,60 39,62 39,63 38,64 38,65 39,66 39,67 41,69 42,69 43,70 50,70 51,69 52,69 52,68 53,67 53,64 54,63 56,65 57,65 60,68 61,68 61,67 62,66 62,65 61,64 60,64 59,63 58,63 57,62 56,62 55,61 54,61 53,60 53,49 54,48 60,48 61,47 61,45 57,45 56,46 53,46 52,45 52,44 53,43 53,41 52,40 52,39 53,38 54,38 55,37 55,35 52,35 51,36 40,36" stroke="black" stroke-width="1" /><polygon fill="none" id="2" points="43,61 48,61 49,62 50,62 51,63 51,65 48,68 44,68 43,67 42,67 41,66 41,63" stroke="black" stroke-width="1" /><polygon fill="none" id="3" points="30,33 30,36 29,37 29,42 28,43 28,50 27,51 27,60 28,61 28,69 29,70 29,71 31,71 32,70 31,69 31,68 32,67 32,64 33,63 33,61 34,60 34,59 35,58 35,57 34,56 33,56 33,58 32,59 32,61 31,62 30,62 29,61 29,59 30,58 30,47 31,46 31,40 32,39 32,35 33,34 32,33" stroke="black" stroke-width="1" /><polygon fill="none" id="4" points="59,29 57,31 57,36 58,37 58,38 59,39 63,39 64,38 65,38 65,37 66,36 66,32 65,31 65,30 64,30 63,29" stroke="black" stroke-width="1" /><polygon fill="none" id="5" points="61,30 62,30 65,33 65,35 62,38 61,38 60,37 59,37 58,36 58,33" stroke="black" stroke-width="1" /></svg>