<?xml version="1.0" encoding="utf-8" ?>
<svg baseProfile="full" height="100" version="1.1" width="100" xmlns="http://www.w3.org/2000/svg" xmlns:ev="http://www.w3.org/2001/xml-events" xmlns:xlink="http://www.w3.org/1999/xlink"><defs /><polygon fill="none" id="1" points="35,35 34,36 35,37 35,38 44,38 45,39 45,45 43,47 37,47 36,46 34,46 34,49 44,49 45,50 45,59 44,60 43,59 38,59 37,60 36,60 34,62 34,67 36,69 37,69 38,70 44,70 45,69 46,69 46,68 47,67 47,64 48,63 50,65 51,65 54,68 54,67 55,66 55,65 54,64 53,64 51,62 50,62 49,61 48,61 47,60 47,49 48,48 53,48 54,47 54,45 51,45 50,46 47,46 46,45 47,44 47,40 46,39 47,38 48,38 49,37 48,36 48,35 47,35 46,36 36,36" stroke="black" stroke-width="1" /><polygon fill="none" id="2" points="38,62 39,61 43,61 45,63 45,66 43,68 39,68 38,67 37,67 36,66 36,63 37,62" stroke="black" stroke-width="1" /><polygon fill="none" id="3" points="26,33 26,40 25,41 25,49 24,50 24,61 25,62 25,71 28,71 28,65 29,64 29,62 30,61 30,59 31,58 31,57 30,56 29,57 29,59 28,60 28,62 27,63 26,62 26,52 27,51 27,43 28,42 28,37 29,36 29,33" stroke="black" stroke-width="1" /><polygon fill="none" id="4" points="53,29 51,31 51,32 50,33 50,34 51,35 51,37 53,39 56,39 58,37 58,36 59,35 59,33 58,32 58,31 56,29" stroke="black" stroke-width="1" /><polygon fill="none" id="5" points="54,30 55,30 57,32 57,36 55,38 54,38 52,36 52,35 51,34 52,33 52,32" stroke="black" stroke-width="1" /></svg>