<?xml version="1.0" encoding="utf-8" ?>
<svg baseProfile="full" height="100" version="1.1" width="100" xmlns="http://www.w3.org/2000/svg" xmlns:ev="http://www.w3.org/2001/xml-events" xmlns:xlink="http://www.w3.org/1999/xlink"><defs /><polygon fill="none" id="1" points="48,35 47,36 47,37 48,38 61,38 62,39 62,45 60,47 50,47 49,46 47,46 47,49 61,49 62,50 62,59 61,60 60,59 52,59 51,60 50,60 49,61 48,61 47,62 47,67 48,68 49,68 50,69 51,69 52,70 61,70 62,69 63,69 65,67 65,64 66,63 67,64 68,64 69,65 70,65 71,66 72,66 74,68 76,66 76,65 75,64 73,64 72,63 71,63 70,62 69,62 68,61 66,61 65,60 65,49 66,48 73,48 74,47 75,47 75,46 74,45 70,45 69,46 65,46 64,45 64,39 65,38 67,38 67,35 64,35 63,36 49,36" stroke="black" stroke-width="1" /><polygon fill="none" id="2" points="52,62 53,61 59,61 60,62 62,62 63,63 63,64 62,65 62,66 61,67 60,67 59,68 54,68 53,67 52,67 50,65 50,63 51,62" stroke="black" stroke-width="1" /><polygon fill="none" id="3" points="36,33 36,38 35,39 35,43 34,44 34,51 33,52 33,60 34,61 34,67 35,68 35,71 39,71 39,66 40,65 40,63 41,62 41,61 42,60 42,59 43,58 43,57 42,56 41,56 40,57 40,59 39,60 39,61 37,63 36,62 36,54 37,53 37,46 38,45 38,41 39,40 39,37 40,36 40,33" stroke="black" stroke-width="1" /><polygon fill="none" id="4" points="73,29 72,30 71,30 70,31 70,32 69,33 69,35 70,36 70,37 71,38 72,38 73,39 77,39 78,38 79,38 81,36 81,32 79,30 78,30 77,29" stroke="black" stroke-width="1" /><polygon fill="none" id="5" points="74,30 76,30 79,33 79,35 76,38 74,38 71,35 71,33" stroke="black" stroke-width="1" /></svg>