<?xml version="1.0" encoding="utf-8" ?>
<svg baseProfile="full" height="100" version="1.1" width="100" xmlns="http://www.w3.org/2000/svg" xmlns:ev="http://www.w3.org/2001/xml-events" xmlns:xlink="http://www.w3.org/1999/xlink"><defs /><polygon fill="none" id="1" points="43,30 43,31 42,32 42,33 41,34 41,35 39,37 39,38 36,41 36,42 30,48 30,49 29,50 30,51 30,52 35,57 35,58 38,61 38,62 41,65 41,66 43,68 43,69 44,70 44,71 45,71 47,69 46,68 46,67 43,64 43,63 40,60 40,59 35,54 35,53 32,50 32,49 41,40 41,39 43,37 43,36 45,34 45,33 46,32 44,30" stroke="black" stroke-width="1" /></svg>