<?xml version="1.0" encoding="utf-8" ?>
<svg baseProfile="full" height="100" version="1.1" width="100" xmlns="http://www.w3.org/2000/svg" xmlns:ev="http://www.w3.org/2001/xml-events" xmlns:xlink="http://www.w3.org/1999/xlink"><defs /><polygon fill="none" id="1" points="70,35 69,36 52,36 52,38 66,38 67,39 67,46 66,47 55,47 54,46 51,46 51,48 52,49 67,49 68,50 67,51 67,55 68,56 68,59 67,60 66,60 65,59 57,59 56,60 54,60 51,63 51,66 54,69 56,69 57,70 67,70 68,69 69,69 71,67 71,64 72,63 73,64 74,64 75,65 76,65 77,66 78,66 79,67 80,67 81,68 83,66 83,65 82,64 80,64 79,63 78,63 77,62 75,62 74,61 72,61 71,60 71,49 72,48 80,48 81,47 82,47 81,46 81,45 76,45 75,46 71,46 70,45 70,39 71,38 73,38 73,35" stroke="black" stroke-width="1" /><polygon fill="none" id="2" points="57,62 58,61 65,61 66,62 67,62 68,63 68,65 65,68 59,68 58,67 56,67 54,65 54,64 56,62" stroke="black" stroke-width="1" /><polygon fill="none" id="3" points="40,33 40,35 39,36 39,39 38,40 38,44 37,45 37,52 36,53 36,59 37,60 37,67 38,68 38,71 42,71 42,67 43,66 43,64 45,62 45,61 46,60 46,59 47,58 47,57 46,56 44,56 44,57 43,58 43,60 42,61 42,62 41,63 40,62 40,50 41,49 41,43 42,42 42,39 43,38 43,36 44,35 44,34 43,33" stroke="black" stroke-width="1" /><polygon fill="none" id="4" points="79,29 76,32 76,36 79,39 85,39 88,36 88,32 85,29" stroke="black" stroke-width="1" /><polygon fill="none" id="5" points="80,31 81,30 83,30 84,31 85,31 86,32 86,35 83,38 81,38 80,37 79,37 78,36 78,35 77,34 78,33 78,32 79,31" stroke="black" stroke-width="1" /></svg>