<?xml version="1.0" encoding="utf-8" ?>
<svg baseProfile="full" height="100" version="1.1" width="100" xmlns="http://www.w3.org/2000/svg" xmlns:ev="http://www.w3.org/2001/xml-events" xmlns:xlink="http://www.w3.org/1999/xlink"><defs /><polygon fill="none" id="1" points="26,33 26,40 25,41 25,49 24,50 24,62 25,63 25,72 29,72 29,66 30,65 30,63 31,62 31,60 32,59 32,57 31,56 30,56 29,57 29,59 28,60 27,59 27,53 28,52 28,44 29,43 29,38 30,37 30,33" stroke="black" stroke-width="1" /><polygon fill="none" id="2" points="53,29 51,31 51,32 50,33 50,34 49,35 47,35 46,36 37,36 36,35 35,35 34,36 34,37 35,38 35,39 44,39 45,40 45,45 43,47 38,47 37,46 34,46 34,50 44,50 45,51 45,58 44,59 38,59 37,60 36,60 34,62 34,68 36,70 37,70 38,71 45,71 46,70 47,70 47,69 48,68 48,66 49,65 50,66 51,66 54,69 55,69 55,68 56,67 56,65 55,64 54,64 52,62 51,62 50,61 49,61 48,60 48,50 49,49 54,49 55,48 55,45 51,45 50,46 49,46 48,45 48,40 50,38 51,38 53,40 57,40 59,38 59,37 60,36 60,33 59,32 59,31 57,29" stroke="black" stroke-width="1" /><polygon fill="none" id="3" points="39,63 40,62 43,62 45,64 45,66 43,68 40,68 39,67 38,67 37,66 37,64 38,63" stroke="black" stroke-width="1" /><polygon fill="none" id="4" points="49,36 50,35 51,36 50,37" stroke="black" stroke-width="1" /><polygon fill="none" id="5" points="55,31 57,33 57,36 55,38 53,36 53,33" stroke="black" stroke-width="1" /></svg>