<?xml version="1.0" encoding="utf-8" ?>
<svg baseProfile="full" height="100" version="1.1" width="100" xmlns="http://www.w3.org/2000/svg" xmlns:ev="http://www.w3.org/2001/xml-events" xmlns:xlink="http://www.w3.org/1999/xlink"><defs /><polygon fill="none" id="1" points="70,35 69,36 52,36 52,39 66,39 67,40 67,46 66,47 56,47 55,46 51,46 51,49 52,50 66,50 67,51 67,56 68,57 68,59 67,60 66,59 57,59 56,60 54,60 51,63 51,67 54,70 56,70 57,71 68,71 69,70 70,70 72,68 72,66 73,65 74,65 75,66 76,66 77,67 78,67 79,68 80,68 81,69 82,69 84,67 84,65 83,64 81,64 80,63 79,63 78,62 76,62 75,61 73,61 72,60 72,50 73,49 81,49 82,48 83,48 83,47 82,46 82,45 76,45 75,46 72,46 71,45 71,40 72,39 74,39 74,35" stroke="black" stroke-width="1" /><polygon fill="none" id="2" points="58,63 59,62 65,62 66,63 67,63 68,64 68,65 65,68 60,68 59,67 57,67 55,65 57,63" stroke="black" stroke-width="1" /><polygon fill="none" id="3" points="40,33 40,35 39,36 39,39 38,40 38,44 37,45 37,52 36,53 36,60 37,61 37,68 38,69 38,72 43,72 43,68 44,67 44,65 46,63 46,62 47,61 47,60 48,59 48,57 47,56 44,56 44,57 43,58 43,60 42,61 41,60 41,51 42,50 42,44 43,43 43,40 44,39 44,37 45,36 45,34 44,33" stroke="black" stroke-width="1" /><polygon fill="none" id="4" points="79,29 76,32 76,37 79,40 86,40 89,37 89,32 86,29" stroke="black" stroke-width="1" /><polygon fill="none" id="5" points="81,32 82,31 83,31 84,32 85,32 86,33 86,35 83,38 82,38 81,37 80,37 79,36 79,33 80,32" stroke="black" stroke-width="1" /></svg>