<?xml version="1.0" encoding="utf-8" ?>
<svg baseProfile="full" height="100" version="1.1" width="100" xmlns="http://www.w3.org/2000/svg" xmlns:ev="http://www.w3.org/2001/xml-events" xmlns:xlink="http://www.w3.org/1999/xlink"><defs /><polygon fill="none" id="1" points="65,36 64,37 48,37 49,38 62,38 63,39 63,46 61,48 50,48 49,47 48,47 48,49 62,49 63,50 63,60 62,61 61,61 60,60 53,60 52,61 51,61 50,62 49,62 48,63 48,67 49,68 50,68 51,69 52,69 53,70 61,70 62,69 63,69 65,67 65,64 66,63 67,63 68,64 69,64 70,65 71,65 72,66 73,66 74,67 75,67 76,66 75,65 73,65 72,64 71,64 70,63 69,63 68,62 66,62 65,61 65,49 66,48 73,48 74,47 75,47 74,46 71,46 70,47 65,47 64,46 64,39 65,38 67,38 67,36" stroke="black" stroke-width="1" /><polygon fill="none" id="2" points="52,62 53,61 60,61 61,62 63,62 64,63 64,65 63,66 63,67 62,68 61,68 60,69 54,69 53,68 52,68 50,66 50,63 51,62" stroke="black" stroke-width="1" /><polygon fill="none" id="3" points="37,34 37,39 36,40 36,44 35,45 35,52 34,53 34,60 35,61 35,67 36,68 36,71 39,71 39,66 40,65 40,63 41,62 41,61 42,60 42,59 43,58 42,57 41,58 41,60 40,61 40,62 38,64 37,64 36,63 36,54 37,53 37,46 38,45 38,41 39,40 39,37 40,36 40,34" stroke="black" stroke-width="1" /><polygon fill="none" id="4" points="74,30 73,31 72,31 71,32 71,33 70,34 70,35 71,36 71,37 72,38 73,38 74,39 77,39 78,38 79,38 81,36 81,33 79,31 78,31 77,30" stroke="black" stroke-width="1" /><polygon fill="none" id="5" points="74,30 77,30 80,33 80,36 77,39 74,39 71,36 71,33" stroke="black" stroke-width="1" /></svg>