<?xml version="1.0" encoding="utf-8" ?>
<svg baseProfile="full" height="100" version="1.1" width="100" xmlns="http://www.w3.org/2000/svg" xmlns:ev="http://www.w3.org/2001/xml-events" xmlns:xlink="http://www.w3.org/1999/xlink"><defs /><polygon fill="none" id="1" points="71,36 70,37 53,37 53,38 67,38 68,39 68,47 67,48 55,48 54,47 52,47 52,48 53,49 68,49 69,50 69,51 68,52 68,55 69,56 69,60 68,61 66,61 65,60 58,60 57,61 55,61 52,64 52,66 55,69 57,69 58,70 67,70 68,69 69,69 71,67 71,64 72,63 73,63 74,64 75,64 76,65 77,65 78,66 79,66 80,67 82,67 83,66 82,65 80,65 79,64 78,64 77,63 75,63 74,62 72,62 71,61 71,49 72,48 80,48 81,47 81,46 77,46 76,47 71,47 70,46 70,39 71,38 73,38 73,36" stroke="black" stroke-width="1" /><polygon fill="none" id="2" points="57,62 58,61 66,61 67,62 68,62 69,63 69,66 66,69 59,69 58,68 56,68 54,66 54,64 56,62" stroke="black" stroke-width="1" /><polygon fill="none" id="3" points="41,34 41,36 40,37 40,40 39,41 39,45 38,46 38,53 37,54 37,59 38,60 38,67 39,68 39,71 42,71 42,67 43,66 43,64 45,62 45,61 46,60 46,59 47,58 46,57 45,57 45,58 44,59 44,61 43,62 43,63 42,64 41,64 40,63 40,50 41,49 41,43 42,42 42,39 43,38 43,36 44,35 43,34" stroke="black" stroke-width="1" /><polygon fill="none" id="4" points="80,30 77,33 77,36 80,39 85,39 88,36 88,33 85,30" stroke="black" stroke-width="1" /><polygon fill="none" id="5" points="80,31 81,30 84,30 85,31 86,31 87,32 87,36 84,39 81,39 80,38 79,38 78,37 78,36 77,35 77,34 78,33 78,32 79,31" stroke="black" stroke-width="1" /></svg>