<?xml version="1.0" encoding="utf-8" ?>
<svg baseProfile="full" height="100" version="1.1" width="100" xmlns="http://www.w3.org/2000/svg" xmlns:ev="http://www.w3.org/2001/xml-events" xmlns:xlink="http://www.w3.org/1999/xlink"><defs /><polygon fill="none" id="1" points="29,32 29,35 28,36 28,41 27,42 27,49 26,50 26,61 27,62 27,70 28,71 28,72 32,72 33,71 33,65 34,64 34,62 35,61 35,60 36,59 36,56 35,55 32,55 31,54 31,48 32,47 32,41 33,40 33,36 34,35 34,33 33,32" stroke="black" stroke-width="1" /><polygon fill="none" id="2" points="58,28 56,30 56,33 55,34 51,34 50,35 41,35 40,34 38,34 38,39 48,39 49,40 49,45 48,46 42,46 41,45 37,45 37,49 38,50 49,50 50,51 50,57 49,58 42,58 41,59 40,59 38,61 38,62 37,63 37,66 38,67 38,68 40,70 41,70 42,71 51,71 52,70 53,70 53,69 54,68 54,67 55,66 56,66 59,69 62,69 62,68 63,67 63,64 62,63 61,63 60,62 59,62 58,61 57,61 56,60 55,60 54,59 54,50 55,49 61,49 62,48 62,44 56,44 55,45 54,44 54,40 56,38 58,40 64,40 65,39 66,39 66,38 67,37 67,31 66,30 66,29 65,29 64,28" stroke="black" stroke-width="1" /><polygon fill="none" id="3" points="44,62 47,62 48,63 49,63 50,64 47,67 45,67 44,66 43,66 42,65 42,64" stroke="black" stroke-width="1" /><polygon fill="none" id="4" points="61,32 62,32 64,34 62,36 60,36 59,35 59,34" stroke="black" stroke-width="1" /></svg>