<?xml version="1.0" encoding="utf-8" ?>
<svg baseProfile="full" height="100" version="1.1" width="100" xmlns="http://www.w3.org/2000/svg" xmlns:ev="http://www.w3.org/2001/xml-events" xmlns:xlink="http://www.w3.org/1999/xlink"><defs /><polygon fill="none" id="1" points="32,32 32,36 31,37 31,42 30,43 30,50 29,51 29,61 30,62 30,69 31,70 31,72 36,72 36,67 37,66 37,64 38,63 38,62 39,61 39,60 40,59 40,56 39,55 36,55 36,56 35,57 34,56 34,51 35,50 35,44 36,43 36,39 37,38 37,32" stroke="black" stroke-width="1" /><polygon fill="none" id="2" points="65,28 62,31 62,33 61,34 57,34 56,35 46,35 45,34 43,34 42,35 42,39 54,39 55,40 55,45 54,46 47,46 46,45 42,45 42,50 54,50 55,51 55,57 54,58 47,58 46,59 44,59 42,61 42,68 44,70 46,70 47,71 57,71 60,68 60,66 61,65 63,67 64,67 66,69 68,69 70,67 70,64 69,63 68,63 67,62 66,62 65,61 63,61 62,60 61,60 60,59 60,50 61,49 68,49 69,48 69,44 63,44 62,45 60,45 59,44 60,43 60,41 59,40 60,39 62,39 63,38 65,40 71,40 72,39 73,39 73,38 74,37 74,30 73,29 72,29 71,28" stroke="black" stroke-width="1" /><polygon fill="none" id="3" points="49,62 53,62 54,63 55,63 56,64 53,67 50,67 49,66 48,66 47,65 47,64" stroke="black" stroke-width="1" /><polygon fill="none" id="4" points="68,31 71,34 68,37 66,35 66,33" stroke="black" stroke-width="1" /></svg>