<?xml version="1.0" encoding="utf-8" ?>
<svg baseProfile="full" height="100" version="1.1" width="100" xmlns="http://www.w3.org/2000/svg" xmlns:ev="http://www.w3.org/2001/xml-events" xmlns:xlink="http://www.w3.org/1999/xlink"><defs /><polygon fill="none" id="1" points="39,69 43,69" stroke="black" stroke-width="1" /><polygon fill="none" id="2" points="45,68" stroke="black" stroke-width="1" /><polygon fill="none" id="3" points="37,68" stroke="black" stroke-width="1" /><polygon fill="none" id="4" points="53,65" stroke="black" stroke-width="1" /><polygon fill="none" id="5" points="26,64 26,70 27,70 27,64" stroke="black" stroke-width="1" /><polygon fill="none" id="6" points="50,63 51,64" stroke="black" stroke-width="1" /><polygon fill="none" id="7" points="35,63 35,66" stroke="black" stroke-width="1" /><polygon fill="none" id="8" points="37,61" stroke="black" stroke-width="1" /><polygon fill="none" id="9" points="39,60 42,60" stroke="black" stroke-width="1" /><polygon fill="none" id="10" points="52,46 51,47 45,47 44,48 36,48 35,47 35,48 45,48 46,49 46,60 45,61 46,62 46,66 46,63 47,62 48,62 47,62 46,61 46,48 47,47 52,47 53,46" stroke="black" stroke-width="1" /><polygon fill="none" id="11" points="46,41 46,43" stroke="black" stroke-width="1" /><polygon fill="none" id="12" points="36,37 47,37" stroke="black" stroke-width="1" /><polygon fill="none" id="13" points="58,34" stroke="black" stroke-width="1" /><polygon fill="none" id="14" points="27,34 27,41 26,42 26,50 25,51 25,60 25,51 26,50 26,42 27,41 27,36 28,35 28,34" stroke="black" stroke-width="1" /></svg>