<?xml version="1.0" encoding="utf-8" ?>
<svg baseProfile="full" height="100" version="1.1" width="100" xmlns="http://www.w3.org/2000/svg" xmlns:ev="http://www.w3.org/2001/xml-events" xmlns:xlink="http://www.w3.org/1999/xlink"><defs /><polygon fill="none" id="1" points="58,60 64,60" stroke="black" stroke-width="1" /><polygon fill="none" id="2" points="45,57 45,58 44,59 44,61 43,62 44,61 44,60 45,59" stroke="black" stroke-width="1" /><polygon fill="none" id="3" points="71,36 70,37 53,37 67,37 68,38 68,47 67,48 54,48 53,47 52,47 53,48 68,48 69,49 69,51 68,52 68,54 69,55 69,60 68,61 67,61 68,61 69,62 69,66 66,69 58,69 57,68 55,68 53,66 53,63 55,61 56,61 55,61 52,64 52,65 55,68 57,68 58,69 66,69 67,68 68,68 70,66 70,63 71,62 73,62 74,63 75,63 76,64 77,64 78,65 79,65 80,66 81,66 81,65 79,65 78,64 77,64 76,63 74,63 73,62 71,62 70,61 70,48 71,47 79,47 80,46 77,46 76,47 70,47 69,46 69,38 70,37 72,37 72,36" stroke="black" stroke-width="1" /><polygon fill="none" id="4" points="41,34 41,36 40,37 40,40 39,41 39,45 38,46 38,53 37,54 37,58 38,59 38,66 39,67 39,70 41,70 41,66 42,65 42,64 40,64 39,63 39,49 40,48 40,42 41,41 41,38 42,37 42,34" stroke="black" stroke-width="1" /><polygon fill="none" id="5" points="87,33 87,35" stroke="black" stroke-width="1" /></svg>