<?xml version="1.0" encoding="utf-8" ?>
<svg baseProfile="full" height="100" version="1.1" width="100" xmlns="http://www.w3.org/2000/svg" xmlns:ev="http://www.w3.org/2001/xml-events" xmlns:xlink="http://www.w3.org/1999/xlink"><defs /><polygon fill="none" id="1" points="35,41 34,42 34,44 35,45 35,46 36,47 36,48 37,49 35,51 33,51 32,52 31,52 30,53 29,53 30,54 30,55 32,55 33,54 34,54 35,53 36,53 37,52 39,54 39,57 40,58 40,60 41,61 41,63 42,64 42,67 43,68 43,71 45,71 46,70 46,69 45,68 45,66 44,65 44,63 43,62 43,60 42,59 42,57 41,56 41,54 40,53 40,52 42,50 44,50 45,49 48,49 49,48 54,48 56,50 56,51 57,52 56,53 56,54 54,56 53,56 52,57 46,57 46,58 47,59 47,60 50,60 51,59 53,59 54,58 55,58 56,57 57,57 58,56 58,54 59,53 59,51 58,50 58,48 57,47 56,47 55,46 49,46 48,47 45,47 44,48 42,48 41,49 39,49 38,48 38,45 37,44 37,43 36,42 36,41" stroke="black" stroke-width="1" /><polygon fill="none" id="2" points="43,38 41,40 42,40 44,42 45,42 47,44 49,42 48,41 47,41 44,38" stroke="black" stroke-width="1" /></svg>