<?xml version="1.0" encoding="utf-8" ?>
<svg baseProfile="full" height="100" version="1.1" width="100" xmlns="http://www.w3.org/2000/svg" xmlns:ev="http://www.w3.org/2001/xml-events" xmlns:xlink="http://www.w3.org/1999/xlink"><defs /><polygon fill="none" id="1" points="47,41 46,42 45,42 45,43 47,45 47,46 48,47 48,48 49,49 49,50 48,51 45,51 44,52 41,52 40,53 39,53 40,54 40,55 43,55 44,54 46,54 47,53 48,53 49,52 50,52 52,54 52,56 53,57 53,58 54,59 54,61 55,62 55,64 56,65 56,66 57,67 57,69 58,70 58,71 60,71 61,70 62,70 61,69 61,68 60,67 60,66 59,65 59,63 58,62 58,60 57,59 57,58 56,57 56,56 55,55 55,54 53,52 54,51 55,51 56,50 60,50 61,49 64,49 65,48 72,48 73,49 74,49 75,50 75,51 76,52 72,56 70,56 69,57 62,57 61,58 62,59 62,60 67,60 68,59 72,59 73,58 74,58 75,57 76,57 78,55 78,49 76,47 74,47 73,46 65,46 64,47 59,47 58,48 55,48 54,49 53,49 51,47 51,46 50,45 50,44 49,43 49,42 48,41" stroke="black" stroke-width="1" /><polygon fill="none" id="2" points="57,38 55,40 56,40 57,41 58,41 59,42 60,42 62,44 63,44 65,42 64,41 63,41 62,40 61,40 60,39 59,39 58,38" stroke="black" stroke-width="1" /></svg>