<?xml version="1.0" encoding="utf-8" ?>
<svg baseProfile="full" height="100" version="1.1" width="100" xmlns="http://www.w3.org/2000/svg" xmlns:ev="http://www.w3.org/2001/xml-events" xmlns:xlink="http://www.w3.org/1999/xlink"><defs /><polygon fill="none" id="1" points="31,41 30,42 30,44 31,45 31,46 32,47 32,48 33,49 31,51 30,51 29,52 27,52 26,53 26,54 27,55 28,55 29,54 30,54 31,53 32,53 33,52 34,53 34,55 35,56 35,58 36,59 36,62 37,63 37,66 38,67 38,71 40,71 41,70 41,69 40,68 40,66 39,65 39,62 38,61 38,59 37,58 37,55 36,54 36,53 35,52 37,50 39,50 40,49 43,49 44,48 48,48 50,50 50,54 48,56 47,56 46,57 41,57 41,59 42,60 44,60 45,59 47,59 48,58 49,58 52,55 52,49 49,46 43,46 42,47 40,47 39,48 37,48 36,49 35,49 34,48 34,46 33,45 33,43 32,42 32,41" stroke="black" stroke-width="1" /><polygon fill="none" id="2" points="38,38 37,39 37,40 39,42 40,42 41,43 41,44 42,44 43,43 43,42 39,38" stroke="black" stroke-width="1" /></svg>