<?xml version="1.0" encoding="utf-8" ?>
<svg baseProfile="full" height="100" version="1.1" width="100" xmlns="http://www.w3.org/2000/svg" xmlns:ev="http://www.w3.org/2001/xml-events" xmlns:xlink="http://www.w3.org/1999/xlink"><defs /><polygon fill="none" id="1" points="43,41 42,42 41,42 42,43 42,44 43,45 43,46 44,47 44,48 45,49 45,50 44,51 41,51 40,52 37,52 36,53 36,54 37,55 39,55 40,54 42,54 43,53 44,53 45,52 46,52 47,53 47,55 48,56 48,58 49,59 49,60 50,61 50,62 51,63 51,65 52,66 52,68 53,69 53,71 55,71 56,70 56,69 55,68 55,66 54,65 54,63 53,62 53,60 52,59 52,58 51,57 51,55 50,54 50,53 49,52 51,50 54,50 55,49 59,49 60,48 66,48 69,51 69,53 66,56 64,56 63,57 56,57 56,58 57,59 57,60 61,60 62,59 65,59 66,58 68,58 70,56 71,56 71,55 72,54 72,50 71,49 71,48 70,48 69,47 68,47 67,46 60,46 59,47 55,47 54,48 51,48 50,49 48,49 47,48 47,47 46,46 46,45 45,44 45,42 44,41" stroke="black" stroke-width="1" /><polygon fill="none" id="2" points="53,38 52,39 51,39 51,40 52,40 54,42 55,42 57,44 58,44 60,42 59,42 57,40 56,40 54,38" stroke="black" stroke-width="1" /></svg>