<?xml version="1.0" encoding="utf-8" ?>
<svg baseProfile="full" height="100" version="1.1" width="100" xmlns="http://www.w3.org/2000/svg" xmlns:ev="http://www.w3.org/2001/xml-events" xmlns:xlink="http://www.w3.org/1999/xlink"><defs /><polygon fill="none" id="1" points="38,38 37,39 37,41 39,43 40,43 41,44 41,45 42,45 43,46 42,47 40,47 39,48 37,48 36,49 35,48 35,46 34,45 34,43 33,42 33,41 31,41 30,42 30,45 31,46 31,47 32,48 32,50 31,51 30,51 29,52 27,52 26,53 26,55 27,56 29,56 30,55 31,55 32,54 33,54 34,55 34,56 35,57 35,59 36,60 36,63 37,64 37,67 38,68 38,72 41,72 42,71 42,69 41,68 41,66 40,65 40,62 39,61 39,59 38,58 38,55 37,54 37,52 38,51 40,51 41,50 44,50 45,49 48,49 50,51 50,54 48,56 47,56 46,57 41,57 41,60 42,61 45,61 46,60 48,60 49,59 50,59 53,56 53,49 50,46 44,46 43,45 44,44 44,42 40,38" stroke="black" stroke-width="1" /></svg>