<?xml version="1.0" encoding="utf-8" ?>
<svg baseProfile="full" height="100" version="1.1" width="100" xmlns="http://www.w3.org/2000/svg" xmlns:ev="http://www.w3.org/2001/xml-events" xmlns:xlink="http://www.w3.org/1999/xlink"><defs /><polygon fill="none" id="1" points="43,38 41,40 41,41 42,41 44,43 45,43 47,45 48,45 49,46 48,47 45,47 44,48 42,48 41,49 40,49 39,48 39,45 38,44 38,43 37,42 37,41 35,41 34,42 34,45 35,46 35,47 36,48 36,50 35,51 33,51 32,52 31,52 30,53 29,53 29,54 30,55 30,56 33,56 34,55 35,55 36,54 38,54 39,55 39,58 40,59 40,61 41,62 41,64 42,65 42,68 43,69 43,72 46,72 47,71 47,69 46,68 46,66 45,65 45,63 44,62 44,60 43,59 43,57 42,56 42,54 41,53 43,51 45,51 46,50 49,50 50,49 54,49 56,51 56,54 54,56 53,56 52,57 46,57 46,59 47,60 47,61 51,61 52,60 54,60 55,59 56,59 57,58 58,58 59,57 59,55 60,54 60,51 59,50 59,48 58,47 57,47 56,46 49,46 48,45 50,43 50,42 49,41 48,41 45,38" stroke="black" stroke-width="1" /></svg>