<?xml version="1.0" encoding="utf-8" ?>
<svg baseProfile="full" height="100" version="1.1" width="100" xmlns="http://www.w3.org/2000/svg" xmlns:ev="http://www.w3.org/2001/xml-events" xmlns:xlink="http://www.w3.org/1999/xlink"><defs /><polygon fill="none" id="1" points="48,38 46,40 46,41 47,41 49,43 50,43 52,45 53,45 54,46 53,47 50,47 49,48 46,48 45,49 44,48 44,47 43,46 43,45 42,44 42,42 41,41 39,41 38,42 37,42 37,43 38,44 38,45 39,46 39,47 40,48 40,49 41,50 40,51 37,51 36,52 34,52 33,53 33,55 34,56 37,56 38,55 39,55 40,54 42,54 43,55 43,57 44,58 44,59 45,60 45,62 46,63 46,65 47,66 47,69 48,70 48,72 51,72 52,71 52,69 51,68 51,66 50,65 50,63 49,62 49,60 48,59 48,57 47,56 47,55 46,54 46,53 48,51 50,51 51,50 54,50 55,49 60,49 63,52 63,53 60,56 59,56 58,57 51,57 51,59 52,60 52,61 56,61 57,60 60,60 61,59 63,59 66,56 66,49 64,47 63,47 62,46 55,46 54,45 55,44 55,42 53,40 52,40 50,38" stroke="black" stroke-width="1" /></svg>