<?xml version="1.0" encoding="utf-8" ?>
<svg baseProfile="full" height="100" version="1.1" width="100" xmlns="http://www.w3.org/2000/svg" xmlns:ev="http://www.w3.org/2001/xml-events" xmlns:xlink="http://www.w3.org/1999/xlink"><defs /><polygon fill="none" id="1" points="53,38 52,39 51,39 51,41 52,41 54,43 55,43 57,45 59,45 60,46 59,47 55,47 54,48 51,48 50,49 49,49 48,48 48,47 47,46 47,45 46,44 46,42 45,41 43,41 42,42 41,42 41,43 42,44 42,45 43,46 43,47 44,48 44,49 45,50 44,51 41,51 40,52 37,52 36,53 36,55 37,56 40,56 41,55 43,55 44,54 45,54 46,53 47,54 47,56 48,57 48,59 49,60 49,61 50,62 50,63 51,64 51,66 52,67 52,69 53,70 53,72 56,72 57,71 57,69 56,68 56,66 55,65 55,63 54,62 54,60 53,59 53,58 52,57 52,55 51,54 51,52 52,51 55,51 56,50 60,50 61,49 66,49 69,52 69,53 66,56 64,56 63,57 56,57 56,59 57,60 57,61 62,61 63,60 66,60 67,59 69,59 71,57 72,57 72,56 73,55 73,50 72,49 72,48 71,48 70,47 69,47 68,46 60,46 59,45 61,43 61,42 60,42 58,40 57,40 55,38" stroke="black" stroke-width="1" /></svg>