<?xml version="1.0" encoding="utf-8" ?>
<svg baseProfile="full" height="100" version="1.1" width="100" xmlns="http://www.w3.org/2000/svg" xmlns:ev="http://www.w3.org/2001/xml-events" xmlns:xlink="http://www.w3.org/1999/xlink"><defs /><polygon fill="none" id="1" points="57,38 55,40 55,41 56,41 57,42 58,42 59,43 60,43 62,45 64,45 65,46 64,47 59,47 58,48 55,48 54,49 52,47 52,46 51,45 51,44 50,43 50,42 49,41 47,41 46,42 45,42 45,44 47,46 47,47 48,48 48,49 49,50 48,51 45,51 44,52 41,52 40,53 39,53 39,54 40,55 40,56 44,56 45,55 47,55 48,54 49,54 50,53 52,55 52,57 53,58 53,59 54,60 54,62 55,63 55,65 56,66 56,67 57,68 57,70 58,71 58,72 61,72 62,71 63,71 63,70 62,69 62,68 61,67 61,66 60,65 60,63 59,62 59,60 58,59 58,58 57,57 57,56 56,55 56,54 55,53 57,51 61,51 62,50 65,50 66,49 72,49 73,50 74,50 75,51 75,53 72,56 70,56 69,57 62,57 61,58 61,59 62,60 62,61 68,61 69,60 73,60 74,59 75,59 76,58 77,58 79,56 79,49 77,47 75,47 74,46 65,46 64,45 66,43 66,42 65,41 64,41 63,40 62,40 61,39 60,39 59,38" stroke="black" stroke-width="1" /></svg>