<?xml version="1.0" encoding="utf-8" ?>
<svg baseProfile="full" height="100" version="1.1" width="100" xmlns="http://www.w3.org/2000/svg" xmlns:ev="http://www.w3.org/2001/xml-events" xmlns:xlink="http://www.w3.org/1999/xlink"><defs /><polygon fill="none" id="1" points="32,42 31,43 31,44 32,45 32,46 33,47 33,48 34,49 34,50 32,52 31,52 30,53 28,53 27,54 28,55 29,54 30,54 31,53 32,53 33,52 34,52 35,53 35,55 36,56 36,58 37,59 37,62 38,63 38,66 39,67 39,71 40,71 41,70 40,69 40,67 39,66 39,63 38,62 38,60 37,59 37,56 36,55 36,54 35,53 35,52 37,50 39,50 40,49 43,49 44,48 49,48 51,50 51,55 49,57 48,57 47,58 42,58 42,59 43,60 44,60 45,59 47,59 48,58 49,58 52,55 52,50 49,47 44,47 43,48 41,48 40,49 38,49 37,50 35,50 34,49 34,47 33,46 33,44 32,43" stroke="black" stroke-width="1" /><polygon fill="none" id="2" points="39,39 38,40 40,42 41,42 42,43 42,44 43,43" stroke="black" stroke-width="1" /></svg>