<?xml version="1.0" encoding="utf-8" ?>
<svg baseProfile="full" height="100" version="1.1" width="100" xmlns="http://www.w3.org/2000/svg" xmlns:ev="http://www.w3.org/2001/xml-events" xmlns:xlink="http://www.w3.org/1999/xlink"><defs /><polygon fill="none" id="1" points="36,42 35,43 35,44 36,45 36,46 37,47 37,48 38,49 38,50 36,52 34,52 33,53 32,53 31,54 31,55 32,55 33,54 34,54 35,53 36,53 37,52 38,52 40,54 40,57 41,58 41,60 42,61 42,63 43,64 43,67 44,68 44,71 45,71 46,70 45,69 45,67 44,66 44,64 43,63 43,61 42,60 42,58 41,57 41,55 40,54 40,52 42,50 44,50 45,49 48,49 49,48 55,48 57,50 57,51 58,52 58,53 57,54 57,55 55,57 54,57 53,58 47,58 48,59 48,60 50,60 51,59 53,59 54,58 55,58 56,57 57,57 58,56 58,54 59,53 59,52 58,51 58,49 57,48 56,48 55,47 50,47 49,48 46,48 45,49 43,49 42,50 39,50 38,49 38,46 37,45 37,44 36,43" stroke="black" stroke-width="1" /><polygon fill="none" id="2" points="44,39 43,40 45,42 46,42 47,43 48,43 48,42 47,42" stroke="black" stroke-width="1" /></svg>