<?xml version="1.0" encoding="utf-8" ?>
<svg baseProfile="full" height="100" version="1.1" width="100" xmlns="http://www.w3.org/2000/svg" xmlns:ev="http://www.w3.org/2001/xml-events" xmlns:xlink="http://www.w3.org/1999/xlink"><defs /><polygon fill="none" id="1" points="40,42 39,43 39,44 40,45 40,46 41,47 41,48 42,49 42,51 41,52 38,52 37,53 35,53 34,54 35,55 36,55 37,54 38,54 39,53 40,53 41,52 42,52 44,54 44,56 45,57 45,58 46,59 46,61 47,62 47,64 48,65 48,68 49,69 49,71 50,71 51,70 50,69 50,67 49,66 49,64 48,63 48,61 47,60 47,58 46,57 46,56 45,55 45,54 44,53 44,52 45,51 46,51 47,50 49,50 50,49 53,49 54,48 61,48 64,51 64,54 61,57 60,57 59,58 52,58 53,59 53,60 55,60 56,59 59,59 60,58 62,58 65,55 65,50 63,48 62,48 61,47 55,47 54,48 51,48 50,49 47,49 46,50 44,50 43,49 43,48 42,47 42,46 41,45 41,43" stroke="black" stroke-width="1" /><polygon fill="none" id="2" points="49,39 48,40 50,42 51,42 53,44 54,43 52,41 51,41" stroke="black" stroke-width="1" /></svg>