<?xml version="1.0" encoding="utf-8" ?>
<svg baseProfile="full" height="100" version="1.1" width="100" xmlns="http://www.w3.org/2000/svg" xmlns:ev="http://www.w3.org/2001/xml-events" xmlns:xlink="http://www.w3.org/1999/xlink"><defs /><polygon fill="none" id="1" points="44,42 43,43 43,44 44,45 44,46 45,47 45,48 46,49 46,51 45,52 42,52 41,53 38,53 37,54 38,55 39,55 40,54 42,54 43,53 44,53 45,52 47,52 48,53 48,55 49,56 49,58 50,59 50,60 51,61 51,62 52,63 52,65 53,66 53,68 54,69 54,71 55,71 56,70 55,69 55,67 54,66 54,64 53,63 53,61 52,60 52,59 51,58 51,56 50,55 50,54 49,53 49,52 51,50 54,50 55,49 59,49 60,48 67,48 70,51 70,54 67,57 65,57 64,58 57,58 58,59 58,60 61,60 62,59 65,59 66,58 68,58 70,56 71,56 71,55 72,54 72,51 71,50 71,49 70,49 69,48 68,48 67,47 61,47 60,48 56,48 55,49 52,49 51,50 48,50 47,49 47,48 46,47 46,46 45,45 45,43" stroke="black" stroke-width="1" /><polygon fill="none" id="2" points="54,39 53,40 52,40 53,40 55,42 56,42 58,44 59,43 57,41 56,41" stroke="black" stroke-width="1" /></svg>