<?xml version="1.0" encoding="utf-8" ?>
<svg baseProfile="full" height="100" version="1.1" width="100" xmlns="http://www.w3.org/2000/svg" xmlns:ev="http://www.w3.org/2001/xml-events" xmlns:xlink="http://www.w3.org/1999/xlink"><defs /><polygon fill="none" id="1" points="65,30 65,31 54,42 53,42 50,45 49,45 46,48 45,48 44,49 44,50 49,55 50,55 55,60 56,60 67,71 68,71 70,69 71,69 64,62 63,62 58,57 57,57 54,54 53,54 51,52 50,52 48,50 50,48 51,48 54,45 55,45 57,43 58,43 68,33 69,33 69,32 68,32 67,31 66,31" stroke="black" stroke-width="1" /></svg>