<?xml version="1.0" encoding="utf-8" ?>
<svg baseProfile="full" height="100" version="1.1" width="100" xmlns="http://www.w3.org/2000/svg" xmlns:ev="http://www.w3.org/2001/xml-events" xmlns:xlink="http://www.w3.org/1999/xlink"><defs /><polygon fill="none" id="1" points="48,42 47,43 46,43 48,45 48,46 49,47 49,48 50,49 50,51 49,52 46,52 45,53 42,53 41,54 41,55 43,55 44,54 46,54 47,53 48,53 49,52 51,52 53,54 53,56 54,57 54,58 55,59 55,61 56,62 56,64 57,65 57,66 58,67 58,69 59,70 59,71 60,71 61,70 61,69 60,68 60,67 59,66 59,64 58,63 58,61 57,60 57,59 56,58 56,57 55,56 55,55 53,53 53,52 54,51 55,51 56,50 60,50 61,49 64,49 65,48 73,48 74,49 75,49 76,50 76,51 77,52 77,53 73,57 71,57 70,58 63,58 63,60 67,60 68,59 72,59 73,58 74,58 75,57 76,57 78,55 78,50 76,48 74,48 73,47 66,47 65,48 60,48 59,49 56,49 55,50 53,50 51,48 51,47 50,46 50,45 49,44 49,43" stroke="black" stroke-width="1" /><polygon fill="none" id="2" points="58,39 57,40 58,41 59,41 60,42 61,42 63,44 64,43 64,42 63,42 62,41 61,41 60,40 59,40" stroke="black" stroke-width="1" /></svg>