<?xml version="1.0" encoding="utf-8" ?>
<svg baseProfile="full" height="100" version="1.1" width="100" xmlns="http://www.w3.org/2000/svg" xmlns:ev="http://www.w3.org/2001/xml-events" xmlns:xlink="http://www.w3.org/1999/xlink"><defs /><polygon fill="none" id="1" points="37,37 36,38 36,41 38,43 39,43 40,44 40,45 38,47 36,47 35,46 35,45 34,44 34,42 33,41 33,40 30,40 29,41 29,45 30,46 30,47 31,48 31,49 30,50 29,50 28,51 26,51 25,52 25,55 26,56 29,56 30,55 31,55 32,54 33,55 33,56 34,57 34,59 35,60 35,63 36,64 36,67 37,68 37,72 41,72 42,71 42,68 41,67 41,65 40,64 40,62 41,61 45,61 46,60 48,60 49,59 50,59 53,56 53,48 50,45 45,45 44,44 44,41 40,37" stroke="black" stroke-width="1" /><polygon fill="none" id="2" points="44,50 45,49 47,49 49,51 49,53 47,55 46,55 45,56 40,56 40,57 39,58 38,57 38,54 37,53 37,52 38,51 40,51 41,50" stroke="black" stroke-width="1" /></svg>