<?xml version="1.0" encoding="utf-8" ?>
<svg baseProfile="full" height="100" version="1.1" width="100" xmlns="http://www.w3.org/2000/svg" xmlns:ev="http://www.w3.org/2001/xml-events" xmlns:xlink="http://www.w3.org/1999/xlink"><defs /><polygon fill="none" id="1" points="42,37 40,39 40,41 41,41 43,43 44,43 46,45 45,46 44,46 43,47 41,47 40,48 39,47 39,44 38,43 38,42 37,41 37,40 34,40 33,41 33,45 34,46 34,47 35,48 35,49 34,50 32,50 31,51 30,51 29,52 28,52 28,54 29,55 29,56 33,56 34,55 35,55 36,54 37,54 38,55 38,58 39,59 39,61 40,62 40,64 41,65 41,68 42,69 42,72 46,72 47,71 47,68 46,67 46,65 45,64 45,62 46,61 51,61 52,60 54,60 55,59 56,59 57,58 58,58 59,57 59,55 60,54 60,50 59,49 59,47 58,46 57,46 56,45 50,45 49,44 50,43 50,41 49,40 48,40 45,37" stroke="black" stroke-width="1" /><polygon fill="none" id="2" points="44,60 45,59 46,60 46,61 45,62 44,61" stroke="black" stroke-width="1" /><polygon fill="none" id="3" points="49,50 50,49 53,49 55,51 55,53 53,55 52,55 51,56 45,56 45,58 44,59 43,58 43,56 42,55 42,52 43,51 45,51 46,50" stroke="black" stroke-width="1" /></svg>