<?xml version="1.0" encoding="utf-8" ?>
<svg baseProfile="full" height="100" version="1.1" width="100" xmlns="http://www.w3.org/2000/svg" xmlns:ev="http://www.w3.org/2001/xml-events" xmlns:xlink="http://www.w3.org/1999/xlink"><defs /><polygon fill="none" id="1" points="47,37 45,39 45,41 46,41 48,43 49,43 51,45 50,46 49,46 48,47 45,47 43,45 43,44 42,43 42,41 41,40 38,40 37,41 36,41 36,43 37,44 37,45 38,46 38,47 39,48 39,49 38,50 36,50 35,51 33,51 32,52 32,55 33,56 37,56 38,55 39,55 40,54 41,54 42,55 42,57 43,58 43,59 44,60 44,62 45,63 45,65 46,66 46,69 47,70 47,72 51,72 52,71 52,68 51,67 51,65 50,64 50,62 51,61 56,61 57,60 60,60 61,59 63,59 66,56 66,48 64,46 63,46 62,45 56,45 55,44 55,41 53,39 52,39 50,37" stroke="black" stroke-width="1" /><polygon fill="none" id="2" points="49,60 50,59 51,60 51,61 50,62 49,61" stroke="black" stroke-width="1" /><polygon fill="none" id="3" points="54,50 55,49 59,49 62,52 59,55 58,55 57,56 50,56 50,58 49,59 48,58 48,56 47,55 47,54 46,53 48,51 50,51 51,50" stroke="black" stroke-width="1" /></svg>