<?xml version="1.0" encoding="utf-8" ?>
<svg baseProfile="full" height="100" version="1.1" width="100" xmlns="http://www.w3.org/2000/svg" xmlns:ev="http://www.w3.org/2001/xml-events" xmlns:xlink="http://www.w3.org/1999/xlink"><defs /><polygon fill="none" id="1" points="52,37 51,38 50,38 50,41 51,41 53,43 54,43 56,45 55,46 54,46 53,47 50,47 49,48 48,47 48,46 47,45 47,44 46,43 46,41 45,40 42,40 41,41 40,41 40,43 41,44 41,45 42,46 42,47 43,48 43,49 42,50 40,50 39,51 36,51 35,52 35,55 36,56 40,56 41,55 43,55 44,54 45,54 46,55 46,56 47,57 47,59 48,60 48,61 49,62 49,63 50,64 50,66 51,67 51,69 52,70 52,72 56,72 57,71 57,68 56,67 56,65 55,64 55,62 56,61 62,61 63,60 66,60 67,59 69,59 71,57 72,57 72,56 73,55 73,49 72,48 72,47 71,47 70,46 69,46 68,45 61,45 60,44 61,43 61,41 60,41 58,39 57,39 55,37" stroke="black" stroke-width="1" /><polygon fill="none" id="2" points="54,60 55,59 56,60 56,61 55,62 54,61" stroke="black" stroke-width="1" /><polygon fill="none" id="3" points="60,50 61,49 65,49 68,52 65,55 63,55 62,56 55,56 55,58 54,59 53,58 53,57 52,56 52,54 51,53 51,52 52,51 55,51 56,50" stroke="black" stroke-width="1" /></svg>