<?xml version="1.0" encoding="utf-8" ?>
<svg baseProfile="full" height="100" version="1.1" width="100" xmlns="http://www.w3.org/2000/svg" xmlns:ev="http://www.w3.org/2001/xml-events" xmlns:xlink="http://www.w3.org/1999/xlink"><defs /><polygon fill="none" id="1" points="56,37 54,39 54,41 55,41 56,42 57,42 58,43 59,43 61,45 60,46 58,46 57,47 53,47 52,46 52,45 51,44 51,43 50,42 50,41 49,40 46,40 45,41 44,41 44,44 46,46 46,47 47,48 47,49 46,50 44,50 43,51 40,51 39,52 38,52 38,54 39,55 39,56 44,56 45,55 47,55 48,54 50,54 51,55 51,57 52,58 52,59 53,60 53,62 54,63 54,65 55,66 55,67 56,68 56,70 57,71 57,72 61,72 62,71 63,71 63,69 62,68 62,67 61,66 61,65 60,64 60,62 61,61 68,61 69,60 73,60 74,59 75,59 76,58 77,58 79,56 79,48 77,46 75,46 74,45 66,45 65,44 66,43 66,41 65,40 64,40 63,39 62,39 61,38 60,38 59,37" stroke="black" stroke-width="1" /><polygon fill="none" id="2" points="59,60 60,59 61,60 61,61 60,62 59,61" stroke="black" stroke-width="1" /><polygon fill="none" id="3" points="65,50 66,49 71,49 72,50 73,50 74,51 74,52 71,55 69,55 68,56 61,56 60,57 60,58 59,59 58,58 58,57 57,56 57,55 56,54 56,52 57,51 61,51 62,50" stroke="black" stroke-width="1" /></svg>