<?xml version="1.0" encoding="utf-8" ?>
<svg baseProfile="full" height="100" version="1.1" width="100" xmlns="http://www.w3.org/2000/svg" xmlns:ev="http://www.w3.org/2001/xml-events" xmlns:xlink="http://www.w3.org/1999/xlink"><defs /><polygon fill="none" id="1" points="39,67 39,70" stroke="black" stroke-width="1" /><polygon fill="none" id="2" points="38,63 38,65" stroke="black" stroke-width="1" /><polygon fill="none" id="3" points="37,60 37,61" stroke="black" stroke-width="1" /><polygon fill="none" id="4" points="42,58 43,59 44,58 46,58" stroke="black" stroke-width="1" /><polygon fill="none" id="5" points="48,57" stroke="black" stroke-width="1" /><polygon fill="none" id="6" points="36,56 36,57" stroke="black" stroke-width="1" /><polygon fill="none" id="7" points="35,54" stroke="black" stroke-width="1" /><polygon fill="none" id="8" points="28,53 29,53" stroke="black" stroke-width="1" /><polygon fill="none" id="9" points="31,52" stroke="black" stroke-width="1" /><polygon fill="none" id="10" points="51,50 51,54" stroke="black" stroke-width="1" /><polygon fill="none" id="11" points="34,50 33,51 34,51 35,50" stroke="black" stroke-width="1" /><polygon fill="none" id="12" points="38,49" stroke="black" stroke-width="1" /><polygon fill="none" id="13" points="41,48 42,48" stroke="black" stroke-width="1" /><polygon fill="none" id="14" points="44,47 48,47" stroke="black" stroke-width="1" /><polygon fill="none" id="15" points="33,47" stroke="black" stroke-width="1" /><polygon fill="none" id="16" points="31,43 32,44 32,45 32,44" stroke="black" stroke-width="1" /><polygon fill="none" id="17" points="39,40 40,41" stroke="black" stroke-width="1" /></svg>