<?xml version="1.0" encoding="utf-8" ?>
<svg baseProfile="full" height="100" version="1.1" width="100" xmlns="http://www.w3.org/2000/svg" xmlns:ev="http://www.w3.org/2001/xml-events" xmlns:xlink="http://www.w3.org/1999/xlink"><defs /><polygon fill="none" id="1" points="43,64 43,66 44,67 44,70 44,67 43,66" stroke="black" stroke-width="1" /><polygon fill="none" id="2" points="42,61 42,62" stroke="black" stroke-width="1" /><polygon fill="none" id="3" points="48,58 48,59 49,59 50,58 52,58" stroke="black" stroke-width="1" /><polygon fill="none" id="4" points="41,58 41,59" stroke="black" stroke-width="1" /><polygon fill="none" id="5" points="54,57" stroke="black" stroke-width="1" /><polygon fill="none" id="6" points="40,55 40,56" stroke="black" stroke-width="1" /><polygon fill="none" id="7" points="57,54 57,55 56,56 57,55" stroke="black" stroke-width="1" /><polygon fill="none" id="8" points="58,52" stroke="black" stroke-width="1" /><polygon fill="none" id="9" points="34,52 33,53 32,53 31,54 32,53 33,53 34,52 35,52" stroke="black" stroke-width="1" /><polygon fill="none" id="10" points="38,50 37,51 38,51 39,52 39,51 40,50" stroke="black" stroke-width="1" /><polygon fill="none" id="11" points="43,49" stroke="black" stroke-width="1" /><polygon fill="none" id="12" points="56,48 57,49 57,50 57,49" stroke="black" stroke-width="1" /><polygon fill="none" id="13" points="46,48 47,48" stroke="black" stroke-width="1" /><polygon fill="none" id="14" points="50,47 54,47" stroke="black" stroke-width="1" /><polygon fill="none" id="15" points="35,43 36,44 36,45 37,46 37,47 37,46 36,45 36,44" stroke="black" stroke-width="1" /><polygon fill="none" id="16" points="47,42" stroke="black" stroke-width="1" /><polygon fill="none" id="17" points="44,40 45,41" stroke="black" stroke-width="1" /></svg>