<?xml version="1.0" encoding="utf-8" ?>
<svg baseProfile="full" height="100" version="1.1" width="100" xmlns="http://www.w3.org/2000/svg" xmlns:ev="http://www.w3.org/2001/xml-events" xmlns:xlink="http://www.w3.org/1999/xlink"><defs /><polygon fill="none" id="1" points="53,58 53,59 54,59 55,58 58,58" stroke="black" stroke-width="1" /><polygon fill="none" id="2" points="44,54 44,55 45,56 45,57 46,58 46,60 47,61 47,63 48,64 48,67 49,68 49,70 49,67 48,66 48,64 47,63 47,61 46,60 46,58 45,57 45,56 44,55" stroke="black" stroke-width="1" /><polygon fill="none" id="3" points="38,52 37,53 35,53 35,54 36,53 37,53 38,52 39,52" stroke="black" stroke-width="1" /><polygon fill="none" id="4" points="47,49 48,49" stroke="black" stroke-width="1" /><polygon fill="none" id="5" points="62,48 64,50 64,54 61,57 60,57 61,57 64,54 64,50" stroke="black" stroke-width="1" /><polygon fill="none" id="6" points="51,48 52,48" stroke="black" stroke-width="1" /><polygon fill="none" id="7" points="55,47 60,47" stroke="black" stroke-width="1" /><polygon fill="none" id="8" points="39,43 40,44 40,45 41,46 41,47 42,48 42,51 43,52 43,51 44,50 45,50 43,50 42,49 42,48 41,47 41,46 40,45 40,43" stroke="black" stroke-width="1" /><polygon fill="none" id="9" points="49,40 50,41 51,41 52,42 51,41 50,41" stroke="black" stroke-width="1" /></svg>