<?xml version="1.0" encoding="utf-8" ?>
<svg baseProfile="full" height="100" version="1.1" width="100" xmlns="http://www.w3.org/2000/svg" xmlns:ev="http://www.w3.org/2001/xml-events" xmlns:xlink="http://www.w3.org/1999/xlink"><defs /><polygon fill="none" id="1" points="42,52 41,53 38,53 38,54 39,53 41,53 42,52 43,52" stroke="black" stroke-width="1" /><polygon fill="none" id="2" points="52,49 53,49" stroke="black" stroke-width="1" /><polygon fill="none" id="3" points="68,48 70,50 70,54 67,57 65,57 64,58 58,58 58,59 60,59 61,58 64,58 65,57 67,57 69,55 70,55 70,54 71,53 71,51 70,50 70,49 69,49" stroke="black" stroke-width="1" /><polygon fill="none" id="4" points="56,48 58,48" stroke="black" stroke-width="1" /><polygon fill="none" id="5" points="61,47 66,47" stroke="black" stroke-width="1" /><polygon fill="none" id="6" points="43,43 44,44 44,45 45,46 45,47 46,48 46,51 47,51 48,52 48,54 49,55 49,57 50,58 50,59 51,60 51,61 52,62 52,64 53,65 53,67 54,68 54,70 54,67 53,66 53,64 52,63 52,61 51,60 51,59 50,58 50,56 49,55 49,54 48,53 48,51 49,50 47,50 46,49 46,48 45,47 45,46 44,45 44,43" stroke="black" stroke-width="1" /><polygon fill="none" id="7" points="54,40 55,41 56,41 57,42 56,41 55,41" stroke="black" stroke-width="1" /></svg>