<?xml version="1.0" encoding="utf-8" ?>
<svg baseProfile="full" height="100" version="1.1" width="100" xmlns="http://www.w3.org/2000/svg" xmlns:ev="http://www.w3.org/2001/xml-events" xmlns:xlink="http://www.w3.org/1999/xlink"><defs /><polygon fill="none" id="1" points="53,54 53,55 54,56 54,57 55,58 55,60 56,61 56,63 57,64 57,65 58,66 58,68 59,69 59,70 60,69 59,68 59,67 58,66 58,64 57,63 57,61 56,60 56,59 55,58 55,57 54,56 54,55" stroke="black" stroke-width="1" /><polygon fill="none" id="2" points="46,52 45,53 42,53 41,54 42,54 43,53 45,53 46,52 47,52" stroke="black" stroke-width="1" /><polygon fill="none" id="3" points="74,48 75,48 76,49 76,50 77,51 77,53 73,57 71,57 70,58 63,58 63,59 66,59 67,58 71,58 72,57 73,57 74,56 75,56 77,54 77,50 75,48" stroke="black" stroke-width="1" /><polygon fill="none" id="4" points="60,48 59,49 56,49 59,49 60,48 63,48" stroke="black" stroke-width="1" /><polygon fill="none" id="5" points="66,47 72,47" stroke="black" stroke-width="1" /><polygon fill="none" id="6" points="47,43 48,44 48,45 49,46 49,47 50,48 50,51 51,51 52,52 52,51 53,50 54,50 52,50 50,48 50,47 49,46 49,45 48,44 48,43" stroke="black" stroke-width="1" /><polygon fill="none" id="7" points="58,40 59,40 60,41 61,41 62,42 63,42 62,42 61,41 60,41 59,40" stroke="black" stroke-width="1" /></svg>