<?xml version="1.0" encoding="utf-8" ?>
<svg baseProfile="full" height="100" version="1.1" width="100" xmlns="http://www.w3.org/2000/svg" xmlns:ev="http://www.w3.org/2001/xml-events" xmlns:xlink="http://www.w3.org/1999/xlink"><defs /><polygon fill="none" id="1" points="46,39 46,44 45,45 43,45 42,46 41,46 39,48 38,48 38,49 36,51 36,52 34,54 33,53 33,48 34,47 34,43 35,42 33,42 32,41 32,45 31,46 31,65 32,66 33,66 34,65 34,58 35,57 35,56 37,54 37,53 42,48 43,48 44,47 46,47 47,48 47,60 46,61 44,61 41,58 41,57 40,57 39,58 39,59 43,63 44,63 45,64 45,65 44,66 44,67 42,69 41,69 40,70 41,70 42,71 43,71 46,68 46,67 47,66 47,65 48,64 52,64 53,63 54,63 57,60 57,58 58,57 58,51 57,50 57,49 53,45 50,45 48,43 48,39" stroke="black" stroke-width="1" /><polygon fill="none" id="2" points="50,46 51,47 52,47 55,50 55,52 56,53 56,55 55,56 55,58 52,61 51,61 50,62 49,62 48,61 48,59 49,58 49,49 48,48" stroke="black" stroke-width="1" /></svg>