<?xml version="1.0" encoding="utf-8" ?>
<svg baseProfile="full" height="100" version="1.1" width="100" xmlns="http://www.w3.org/2000/svg" xmlns:ev="http://www.w3.org/2001/xml-events" xmlns:xlink="http://www.w3.org/1999/xlink"><defs /><polygon fill="none" id="1" points="41,39 41,44 40,45 38,45 37,46 36,46 33,49 33,50 32,51 32,52 30,54 29,53 29,49 30,48 30,43 31,42 30,42 29,41 28,42 28,66 29,66 30,65 30,58 31,57 31,56 32,55 32,54 34,52 34,51 37,48 38,48 39,47 41,47 42,48 42,49 41,50 41,60 40,61 39,61 37,59 37,58 36,57 35,58 35,60 38,63 39,63 40,64 40,65 39,66 39,67 37,69 36,69 36,70 37,71 39,71 39,70 41,68 41,66 43,64 46,64 47,63 48,63 49,62 49,61 51,59 51,55 52,54 51,53 51,50 50,49 50,48 47,45 44,45 43,44 43,39" stroke="black" stroke-width="1" /><polygon fill="none" id="2" points="43,47 44,46 45,47 46,47 49,50 49,58 45,62 43,62 42,61 43,60" stroke="black" stroke-width="1" /></svg>