<?xml version="1.0" encoding="utf-8" ?>
<svg baseProfile="full" height="100" version="1.1" width="100" xmlns="http://www.w3.org/2000/svg" xmlns:ev="http://www.w3.org/2001/xml-events" xmlns:xlink="http://www.w3.org/1999/xlink"><defs /><polygon fill="none" id="1" points="51,39 51,42 52,43 50,45 48,45 47,46 46,46 45,47 44,47 39,52 39,53 38,54 37,53 37,47 38,46 38,42 37,42 36,41 35,42 35,53 34,54 34,55 35,56 35,66 37,66 38,65 38,58 39,57 39,56 41,54 41,53 45,49 46,49 47,48 48,48 49,47 50,47 51,46 52,47 52,60 51,61 49,61 45,57 43,59 46,62 47,62 48,63 49,63 50,64 50,65 45,70 47,72 52,67 52,65 53,64 57,64 58,63 60,63 63,60 63,59 64,58 64,55 65,54 64,53 64,50 63,49 63,48 62,47 61,47 59,45 55,45 54,44 54,39" stroke="black" stroke-width="1" /><polygon fill="none" id="2" points="54,47 55,46 56,47 58,47 61,50 61,51 62,52 62,56 61,57 61,58 58,61 57,61 56,62 54,62 53,61 54,60" stroke="black" stroke-width="1" /></svg>