<?xml version="1.0" encoding="utf-8" ?>
<svg baseProfile="full" height="100" version="1.1" width="100" xmlns="http://www.w3.org/2000/svg" xmlns:ev="http://www.w3.org/2001/xml-events" xmlns:xlink="http://www.w3.org/1999/xlink"><defs /><polygon fill="none" id="1" points="56,39 56,42 57,43 55,45 53,45 52,46 50,46 49,47 48,47 43,52 43,53 41,55 40,54 40,52 41,51 41,47 42,46 42,42 41,42 40,41 39,42 39,45 38,46 38,63 39,64 39,66 40,66 41,65 42,65 42,63 41,62 42,61 42,58 43,57 43,56 50,49 51,49 53,47 55,47 56,46 57,47 57,60 56,61 54,61 50,57 49,57 47,59 48,60 49,60 51,62 52,62 53,63 54,63 55,64 55,65 51,69 50,69 49,70 50,70 52,72 57,67 57,66 59,64 63,64 64,63 66,63 70,59 70,58 71,57 71,51 70,50 70,49 67,46 66,46 65,45 61,45 59,43 59,39" stroke="black" stroke-width="1" /><polygon fill="none" id="2" points="61,46 62,47 64,47 67,50 67,51 68,52 68,56 67,57 67,58 64,61 63,61 62,62 60,62 59,61 59,58 60,57 60,50 59,49 59,48" stroke="black" stroke-width="1" /></svg>