<?xml version="1.0" encoding="utf-8" ?>
<svg baseProfile="full" height="100" version="1.1" width="100" xmlns="http://www.w3.org/2000/svg" xmlns:ev="http://www.w3.org/2001/xml-events" xmlns:xlink="http://www.w3.org/1999/xlink"><defs /><polygon fill="none" id="1" points="61,39 61,41 62,42 62,44 61,45 57,45 56,46 55,46 54,47 53,47 52,48 51,48 47,52 47,53 45,55 44,54 44,51 45,50 45,46 46,45 46,42 44,42 43,41 42,42 42,52 41,53 41,55 42,56 42,66 44,66 45,65 46,65 46,64 45,63 45,61 46,60 46,58 47,57 47,56 53,50 54,50 56,48 57,48 58,47 60,47 61,46 62,47 62,60 61,61 59,61 57,59 56,59 54,57 52,59 54,61 55,61 56,62 57,62 58,63 59,63 60,64 60,65 56,69 55,69 54,70 55,71 58,71 63,66 63,65 64,64 69,64 70,63 72,63 74,61 75,61 76,60 76,59 77,58 77,56 78,55 78,54 77,53 77,50 73,46 72,46 71,45 66,45 65,44 65,39" stroke="black" stroke-width="1" /><polygon fill="none" id="2" points="65,47 66,46 67,46 68,47 69,47 70,48 71,48 73,50 73,51 74,52 74,56 73,57 73,58 70,61 68,61 67,62 65,62 64,61 65,60" stroke="black" stroke-width="1" /></svg>