<?xml version="1.0" encoding="utf-8" ?>
<svg baseProfile="full" height="100" version="1.1" width="100" xmlns="http://www.w3.org/2000/svg" xmlns:ev="http://www.w3.org/2001/xml-events" xmlns:xlink="http://www.w3.org/1999/xlink"><defs /><polygon fill="none" id="1" points="41,39 41,44 40,45 38,45 37,46 36,46 33,49 33,50 32,51 32,52 31,53 30,52 30,50 31,49 31,44 32,43 32,42 31,42 30,41 29,41 28,42 28,67 30,67 31,66 31,59 32,58 32,57 33,56 33,55 35,53 35,52 38,49 39,49 40,48 41,48 42,49 41,50 41,60 40,61 38,59 38,58 37,57 36,57 35,58 35,61 38,64 39,64 40,65 39,66 39,67 37,69 36,69 36,71 37,72 40,72 40,71 42,69 42,67 44,65 47,65 48,64 49,64 50,63 50,62 52,60 52,56 53,55 53,54 52,53 52,50 51,49 51,48 48,45 45,45 44,44 44,39" stroke="black" stroke-width="1" /><polygon fill="none" id="2" points="44,49 45,48 46,48 49,51 49,58 45,62 44,61" stroke="black" stroke-width="1" /></svg>