<?xml version="1.0" encoding="utf-8" ?>
<svg baseProfile="full" height="100" version="1.1" width="100" xmlns="http://www.w3.org/2000/svg" xmlns:ev="http://www.w3.org/2001/xml-events" xmlns:xlink="http://www.w3.org/1999/xlink"><defs /><polygon fill="none" id="1" points="46,39 46,44 45,45 43,45 42,46 41,46 39,48 38,48 38,49 36,51 36,52 35,53 34,52 34,49 35,48 35,44 36,43 36,42 34,42 33,41 32,41 32,45 31,46 31,66 32,67 34,67 35,66 35,59 36,58 36,57 38,55 38,54 43,49 44,49 45,48 46,48 47,49 47,60 46,61 45,61 42,58 42,57 40,57 39,58 39,60 43,64 44,64 45,65 44,66 44,67 42,69 41,69 40,70 40,71 41,71 42,72 44,72 47,69 47,68 48,67 48,66 49,65 53,65 54,64 55,64 58,61 58,59 59,58 59,51 58,50 58,49 54,45 51,45 49,43 49,39" stroke="black" stroke-width="1" /><polygon fill="none" id="2" points="50,49 51,48 52,48 55,51 55,53 56,54 56,55 55,56 55,58 52,61 51,61 50,62 49,61 49,60 50,59" stroke="black" stroke-width="1" /></svg>