<?xml version="1.0" encoding="utf-8" ?>
<svg baseProfile="full" height="100" version="1.1" width="100" xmlns="http://www.w3.org/2000/svg" xmlns:ev="http://www.w3.org/2001/xml-events" xmlns:xlink="http://www.w3.org/1999/xlink"><defs /><polygon fill="none" id="1" points="51,39 51,44 50,45 48,45 47,46 46,46 45,47 44,47 39,52 38,51 38,48 39,47 39,42 38,42 37,41 36,41 35,42 35,53 34,54 34,56 35,57 35,67 38,67 39,66 39,59 40,58 40,57 42,55 42,54 46,50 47,50 48,49 49,49 50,48 51,48 52,49 52,60 51,61 50,61 46,57 45,57 43,59 43,60 46,63 47,63 48,64 49,64 50,65 45,70 45,71 47,73 48,73 53,68 53,66 54,65 58,65 59,64 61,64 64,61 64,60 65,59 65,56 66,55 66,54 65,53 65,50 64,49 64,48 63,47 62,47 60,45 56,45 55,44 55,39" stroke="black" stroke-width="1" /><polygon fill="none" id="2" points="55,49 56,48 58,48 61,51 61,52 62,53 62,56 61,57 61,58 58,61 57,61 56,62 55,61" stroke="black" stroke-width="1" /></svg>