<?xml version="1.0" encoding="utf-8" ?>
<svg baseProfile="full" height="100" version="1.1" width="100" xmlns="http://www.w3.org/2000/svg" xmlns:ev="http://www.w3.org/2001/xml-events" xmlns:xlink="http://www.w3.org/1999/xlink"><defs /><polygon fill="none" id="1" points="56,39 56,44 55,45 53,45 52,46 50,46 49,47 48,47 43,52 42,51 42,48 43,47 43,42 42,42 41,41 40,41 39,42 39,45 38,46 38,64 39,65 39,67 41,67 42,66 43,66 43,59 44,58 44,57 51,50 52,50 54,48 56,48 57,49 57,60 56,61 55,61 51,57 49,57 47,59 47,60 48,61 49,61 51,63 52,63 53,64 54,64 55,65 51,69 50,69 49,70 49,71 50,71 52,73 53,73 58,68 58,67 60,65 64,65 65,64 67,64 71,60 71,59 72,58 72,51 71,50 71,49 68,46 67,46 66,45 62,45 60,43 60,39" stroke="black" stroke-width="1" /><polygon fill="none" id="2" points="41,53 42,52 43,53 42,54" stroke="black" stroke-width="1" /><polygon fill="none" id="3" points="60,49 61,48 64,48 67,51 67,52 68,53 68,56 67,57 67,58 64,61 63,61 62,62 61,62 60,61 60,59 61,58 61,50" stroke="black" stroke-width="1" /></svg>