<?xml version="1.0" encoding="utf-8" ?>
<svg baseProfile="full" height="100" version="1.1" width="100" xmlns="http://www.w3.org/2000/svg" xmlns:ev="http://www.w3.org/2001/xml-events" xmlns:xlink="http://www.w3.org/1999/xlink"><defs /><polygon fill="none" id="1" points="61,39 61,42 62,43 62,44 61,45 57,45 56,46 55,46 54,47 53,47 52,48 51,48 47,52 46,51 46,47 47,46 47,42 45,42 44,41 43,41 42,42 42,52 41,53 41,56 42,57 42,67 45,67 46,66 47,66 47,64 46,63 46,62 47,61 47,59 48,58 48,57 54,51 55,51 57,49 58,49 59,48 61,48 62,49 62,60 61,61 60,61 58,59 57,59 55,57 54,57 52,59 52,60 54,62 55,62 56,63 57,63 58,64 59,64 60,65 56,69 55,69 54,70 54,71 55,72 59,72 64,67 64,66 65,65 70,65 71,64 73,64 75,62 76,62 77,61 77,60 78,59 78,57 79,56 79,54 78,53 78,50 74,46 73,46 72,45 67,45 66,44 66,39" stroke="black" stroke-width="1" /><polygon fill="none" id="2" points="45,52 46,51 47,52 47,53 46,54 45,53" stroke="black" stroke-width="1" /><polygon fill="none" id="3" points="66,48 67,47 68,48 69,48 70,49 71,49 73,51 73,52 74,53 74,56 73,57 73,58 70,61 68,61 67,62 66,61" stroke="black" stroke-width="1" /></svg>