<?xml version="1.0" encoding="utf-8" ?>
<svg baseProfile="full" height="100" version="1.1" width="100" xmlns="http://www.w3.org/2000/svg" xmlns:ev="http://www.w3.org/2001/xml-events" xmlns:xlink="http://www.w3.org/1999/xlink"><defs /><polygon fill="none" id="1" points="42,40 42,45 41,46 39,46 38,47 37,47 34,50 34,51 33,52 33,53 31,55 30,55 29,54 29,49 30,48 30,43 29,43 29,66 30,65 30,58 31,57 31,56 32,55 32,54 34,52 34,51 37,48 38,48 39,47 42,47 43,48 43,50 42,51 42,61 41,62 39,62 37,60 37,59 36,59 36,60 39,63 40,63 41,64 41,66 40,67 40,68 38,70 37,70 38,71 39,71 39,70 41,68 41,66 43,64 46,64 47,63 48,63 49,62 49,61 51,59 51,51 50,50 50,49 47,46 44,46 43,45 43,40" stroke="black" stroke-width="1" /><polygon fill="none" id="2" points="43,47 44,46 45,46 46,47 47,47 50,50 50,59 46,63 43,63 42,62 42,61 43,60" stroke="black" stroke-width="1" /></svg>