<?xml version="1.0" encoding="utf-8" ?>
<svg baseProfile="full" height="100" version="1.1" width="100" xmlns="http://www.w3.org/2000/svg" xmlns:ev="http://www.w3.org/2001/xml-events" xmlns:xlink="http://www.w3.org/1999/xlink"><defs /><polygon fill="none" id="1" points="47,40 47,45 46,46 44,46 43,47 42,47 40,49 39,49 39,50 37,52 37,53 35,55 34,55 33,54 33,48 34,47 34,43 33,43 33,46 32,47 32,65 33,66 34,65 34,58 35,57 35,56 37,54 37,53 42,48 43,48 44,47 47,47 48,48 48,61 47,62 44,62 41,59 41,58 40,59 44,63 45,63 46,64 46,66 45,67 45,68 43,70 42,70 43,71 46,68 46,67 47,66 47,65 48,64 52,64 53,63 54,63 57,60 57,58 58,57 58,52 57,51 57,50 53,46 50,46 48,44 48,40" stroke="black" stroke-width="1" /><polygon fill="none" id="2" points="50,46 51,46 52,47 53,47 56,50 56,52 57,53 57,56 56,57 56,59 53,62 52,62 51,63 49,63 48,62 48,59 49,58 49,50 48,49 48,48" stroke="black" stroke-width="1" /></svg>