<?xml version="1.0" encoding="utf-8" ?>
<svg baseProfile="full" height="100" version="1.1" width="100" xmlns="http://www.w3.org/2000/svg" xmlns:ev="http://www.w3.org/2001/xml-events" xmlns:xlink="http://www.w3.org/1999/xlink"><defs /><polygon fill="none" id="1" points="52,40 52,42 53,43 53,44 51,46 49,46 48,47 47,47 46,48 45,48 40,53 40,54 39,55 38,55 37,54 37,47 38,46 38,43 36,43 36,54 35,55 36,56 36,66 37,66 38,65 38,58 39,57 39,56 41,54 41,53 45,49 46,49 47,48 48,48 49,47 50,47 51,46 52,46 53,47 53,61 52,62 49,62 46,59 45,59 45,60 47,62 48,62 49,63 50,63 51,64 51,66 47,70 47,71 48,71 52,67 52,65 53,64 57,64 58,63 60,63 63,60 63,59 64,58 64,51 63,50 63,49 62,48 61,48 59,46 55,46 54,45 54,40" stroke="black" stroke-width="1" /><polygon fill="none" id="2" points="54,47 55,46 56,46 57,47 59,47 62,50 62,51 63,52 63,57 62,58 62,59 59,62 58,62 57,63 54,63 53,62 53,61 54,60" stroke="black" stroke-width="1" /></svg>