<?xml version="1.0" encoding="utf-8" ?>
<svg baseProfile="full" height="100" version="1.1" width="100" xmlns="http://www.w3.org/2000/svg" xmlns:ev="http://www.w3.org/2001/xml-events" xmlns:xlink="http://www.w3.org/1999/xlink"><defs /><polygon fill="none" id="1" points="57,40 57,42 58,43 58,44 56,46 54,46 53,47 51,47 50,48 49,48 44,53 44,54 42,56 41,56 40,55 40,52 41,51 41,47 42,46 42,43 40,43 40,46 39,47 39,63 40,64 40,66 41,65 42,65 42,64 41,63 41,62 42,61 42,58 43,57 43,56 50,49 51,49 53,47 55,47 56,46 57,46 58,47 58,61 57,62 54,62 50,58 49,59 49,60 50,60 52,62 53,62 54,63 55,63 56,64 56,66 52,70 51,70 52,71 53,71 57,67 57,66 59,64 63,64 64,63 66,63 70,59 70,58 71,57 71,52 70,51 70,50 67,47 66,47 65,46 61,46 59,44 59,40" stroke="black" stroke-width="1" /><polygon fill="none" id="2" points="61,46 62,46 63,47 65,47 68,50 68,51 69,52 69,57 68,58 68,59 65,62 64,62 63,63 60,63 59,62 59,58 60,57 60,51 59,50 59,48" stroke="black" stroke-width="1" /></svg>