<?xml version="1.0" encoding="utf-8" ?>
<svg baseProfile="full" height="100" version="1.1" width="100" xmlns="http://www.w3.org/2000/svg" xmlns:ev="http://www.w3.org/2001/xml-events" xmlns:xlink="http://www.w3.org/1999/xlink"><defs /><polygon fill="none" id="1" points="62,40 62,41 63,42 63,45 62,46 58,46 57,47 56,47 55,48 54,48 53,49 52,49 48,53 48,54 46,56 45,56 44,55 44,51 45,50 45,46 46,45 46,43 43,43 43,53 42,54 42,55 43,56 43,66 44,66 45,65 46,65 45,64 45,61 46,60 46,58 47,57 47,56 53,50 54,50 56,48 57,48 58,47 60,47 61,46 62,46 63,47 63,61 62,62 59,62 57,60 56,60 55,59 54,59 54,60 55,61 56,61 57,62 58,62 59,63 60,63 61,64 61,66 57,70 56,70 56,71 58,71 63,66 63,65 64,64 69,64 70,63 72,63 74,61 75,61 76,60 76,59 77,58 77,56 78,55 77,54 77,51 73,47 72,47 71,46 66,46 65,45 65,40" stroke="black" stroke-width="1" /><polygon fill="none" id="2" points="65,47 66,46 68,46 69,47 70,47 71,48 72,48 74,50 74,51 75,52 75,57 74,58 74,59 71,62 69,62 68,63 65,63 64,62 64,61 65,60" stroke="black" stroke-width="1" /></svg>