<?xml version="1.0" encoding="utf-8" ?>
<svg baseProfile="full" height="100" version="1.1" width="100" xmlns="http://www.w3.org/2000/svg" xmlns:ev="http://www.w3.org/2001/xml-events" xmlns:xlink="http://www.w3.org/1999/xlink"><defs /><polygon fill="none" id="1" points="40,38 40,43 39,44 37,44 36,45 35,45 32,48 31,47 31,44 32,43 32,41 31,41 30,40 28,40 27,41 27,67 30,67 31,66 31,59 32,58 32,57 33,56 34,57 34,61 38,65 38,66 36,68 35,68 35,71 36,72 40,72 40,71 42,69 42,67 44,65 47,65 48,64 49,64 50,63 50,62 52,60 52,56 53,55 53,53 52,52 52,49 51,48 51,47 48,44 45,44 44,43 44,38" stroke="black" stroke-width="1" /><polygon fill="none" id="2" points="38,49 39,49 40,50 40,58 39,59 38,58 38,57 37,56 35,56 34,57 33,56 33,55 35,53 35,52" stroke="black" stroke-width="1" /><polygon fill="none" id="3" points="44,49 45,48 48,51 48,57 45,60 44,59" stroke="black" stroke-width="1" /></svg>