<?xml version="1.0" encoding="utf-8" ?>
<svg baseProfile="full" height="100" version="1.1" width="100" xmlns="http://www.w3.org/2000/svg" xmlns:ev="http://www.w3.org/2001/xml-events" xmlns:xlink="http://www.w3.org/1999/xlink"><defs /><polygon fill="none" id="1" points="45,38 45,43 44,44 42,44 41,45 40,45 38,47 37,47 37,48 36,49 35,48 35,44 36,43 36,41 34,41 33,40 31,40 31,44 30,45 30,66 31,67 34,67 35,66 35,59 36,58 36,57 37,56 38,57 38,60 43,65 43,66 41,68 40,68 39,69 39,71 40,71 41,72 44,72 47,69 47,68 48,67 48,66 49,65 53,65 54,64 55,64 58,61 58,59 59,58 59,50 58,49 58,48 54,44 51,44 49,42 49,38" stroke="black" stroke-width="1" /><polygon fill="none" id="2" points="37,56 38,55 39,56 38,57" stroke="black" stroke-width="1" /><polygon fill="none" id="3" points="50,49 51,48 54,51 54,53 55,54 54,55 54,57 51,60 50,59" stroke="black" stroke-width="1" /><polygon fill="none" id="4" points="44,49 45,48 46,49 46,59 45,60 42,57 42,56 39,56 38,55 38,54 43,49" stroke="black" stroke-width="1" /><polygon fill="none" id="5" points="34,49 35,48 36,49 35,50" stroke="black" stroke-width="1" /></svg>