<?xml version="1.0" encoding="utf-8" ?>
<svg baseProfile="full" height="100" version="1.1" width="100" xmlns="http://www.w3.org/2000/svg" xmlns:ev="http://www.w3.org/2001/xml-events" xmlns:xlink="http://www.w3.org/1999/xlink"><defs /><polygon fill="none" id="1" points="50,38 50,43 49,44 47,44 46,45 45,45 44,46 43,46 39,50 38,49 38,48 39,47 39,41 38,41 37,40 35,40 34,41 34,52 33,53 33,56 34,57 34,67 38,67 39,66 39,59 40,58 40,57 42,55 42,54 46,50 47,50 48,49 49,49 50,48 51,49 51,59 50,60 46,56 44,56 42,58 42,60 45,63 46,63 48,65 44,69 44,71 46,73 48,73 53,68 53,66 54,65 58,65 59,64 61,64 64,61 64,60 65,59 65,56 66,55 66,53 65,52 65,49 64,48 64,47 63,46 62,46 60,44 56,44 55,43 55,38" stroke="black" stroke-width="1" /><polygon fill="none" id="2" points="55,49 56,48 57,48 60,51 60,52 61,53 61,55 60,56 60,57 57,60 56,60 55,59" stroke="black" stroke-width="1" /></svg>