<?xml version="1.0" encoding="utf-8" ?>
<svg baseProfile="full" height="100" version="1.1" width="100" xmlns="http://www.w3.org/2000/svg" xmlns:ev="http://www.w3.org/2001/xml-events" xmlns:xlink="http://www.w3.org/1999/xlink"><defs /><polygon fill="none" id="1" points="55,38 55,43 54,44 52,44 51,45 49,45 48,46 47,46 43,50 42,49 42,48 43,47 43,41 42,41 41,40 39,40 38,41 38,44 37,45 37,64 38,65 38,67 41,67 42,66 43,66 43,59 44,58 44,57 51,50 52,50 54,48 55,48 56,49 56,59 55,60 51,56 48,56 46,58 46,60 47,61 48,61 50,63 51,63 53,65 50,68 49,68 48,69 48,71 49,71 51,73 53,73 58,68 58,67 60,65 64,65 65,64 67,64 71,60 71,59 72,58 72,50 71,49 71,48 68,45 67,45 66,44 62,44 60,42 60,38" stroke="black" stroke-width="1" /><polygon fill="none" id="2" points="61,49 62,48 63,48 66,51 66,52 67,53 67,55 66,56 66,57 63,60 62,60 61,61 60,60 60,59 61,58" stroke="black" stroke-width="1" /></svg>