<?xml version="1.0" encoding="utf-8" ?>
<svg baseProfile="full" height="100" version="1.1" width="100" xmlns="http://www.w3.org/2000/svg" xmlns:ev="http://www.w3.org/2001/xml-events" xmlns:xlink="http://www.w3.org/1999/xlink"><defs /><polygon fill="none" id="1" points="60,38 60,42 61,43 60,44 56,44 55,45 54,45 53,46 52,46 51,47 50,47 47,50 46,49 46,47 47,46 47,41 45,41 44,40 42,40 41,41 41,51 40,52 40,56 41,57 41,67 45,67 46,66 47,66 47,63 46,62 47,61 47,59 48,58 48,57 54,51 55,51 57,49 58,49 59,48 60,48 61,49 61,59 60,60 58,58 57,58 55,56 53,56 51,58 51,60 53,62 54,62 55,63 56,63 58,65 55,68 54,68 53,69 53,71 54,72 59,72 64,67 64,66 65,65 70,65 71,64 73,64 75,62 76,62 77,61 77,60 78,59 78,57 79,56 79,53 78,52 78,49 74,45 73,45 72,44 67,44 66,43 66,38" stroke="black" stroke-width="1" /><polygon fill="none" id="2" points="66,49 67,48 68,48 69,49 70,49 72,51 72,52 73,53 73,55 72,56 72,57 69,60 67,60 66,59" stroke="black" stroke-width="1" /></svg>