<?xml version="1.0" encoding="utf-8" ?>
<svg baseProfile="full" height="100" version="1.1" width="100" xmlns="http://www.w3.org/2000/svg" xmlns:ev="http://www.w3.org/2001/xml-events" xmlns:xlink="http://www.w3.org/1999/xlink"><defs /><polygon fill="none" id="1" points="38,70" stroke="black" stroke-width="1" /><polygon fill="none" id="2" points="40,67" stroke="black" stroke-width="1" /><polygon fill="none" id="3" points="39,62 40,62 41,63 41,64 42,63 45,63 42,63 41,62" stroke="black" stroke-width="1" /><polygon fill="none" id="4" points="48,61 47,62" stroke="black" stroke-width="1" /><polygon fill="none" id="5" points="36,59" stroke="black" stroke-width="1" /><polygon fill="none" id="6" points="29,55 29,64 29,57 30,56 30,55" stroke="black" stroke-width="1" /><polygon fill="none" id="7" points="50,51 50,58" stroke="black" stroke-width="1" /><polygon fill="none" id="8" points="42,51 42,59" stroke="black" stroke-width="1" /><polygon fill="none" id="9" points="37,47" stroke="black" stroke-width="1" /><polygon fill="none" id="10" points="46,46" stroke="black" stroke-width="1" /><polygon fill="none" id="11" points="29,43 29,47" stroke="black" stroke-width="1" /><polygon fill="none" id="12" points="42,40 42,45 41,46 39,46 42,46" stroke="black" stroke-width="1" /></svg>