<?xml version="1.0" encoding="utf-8" ?>
<svg baseProfile="full" height="100" version="1.1" width="100" xmlns="http://www.w3.org/2000/svg" xmlns:ev="http://www.w3.org/2001/xml-events" xmlns:xlink="http://www.w3.org/1999/xlink"><defs /><polygon fill="none" id="1" points="45,67" stroke="black" stroke-width="1" /><polygon fill="none" id="2" points="56,50 56,51 57,52 57,56 56,57 56,59 53,62 52,62 51,63 48,63 47,62 44,62 45,62 46,63 46,65 46,64 47,63 51,63 52,62 53,62 56,59 56,57 57,56 57,52 56,51" stroke="black" stroke-width="1" /><polygon fill="none" id="3" points="48,50 48,57" stroke="black" stroke-width="1" /><polygon fill="none" id="4" points="39,49" stroke="black" stroke-width="1" /><polygon fill="none" id="5" points="42,47" stroke="black" stroke-width="1" /><polygon fill="none" id="6" points="52,46" stroke="black" stroke-width="1" /><polygon fill="none" id="7" points="33,43 33,46 32,47 32,64 33,64 33,57 34,56 34,55 33,55 32,54 32,47 33,46" stroke="black" stroke-width="1" /><polygon fill="none" id="8" points="47,40 47,45 46,46 44,46 48,46 48,45 47,44" stroke="black" stroke-width="1" /></svg>