<?xml version="1.0" encoding="utf-8" ?>
<svg baseProfile="full" height="100" version="1.1" width="100" xmlns="http://www.w3.org/2000/svg" xmlns:ev="http://www.w3.org/2001/xml-events" xmlns:xlink="http://www.w3.org/1999/xlink"><defs /><polygon fill="none" id="1" points="49,62 50,62 51,63 51,66 47,70 51,66 51,64 52,63 56,63 53,63 52,62" stroke="black" stroke-width="1" /><polygon fill="none" id="2" points="45,59 47,61" stroke="black" stroke-width="1" /><polygon fill="none" id="3" points="40,53" stroke="black" stroke-width="1" /><polygon fill="none" id="4" points="61,48 62,49 62,50 63,51 63,57 62,58 62,59 59,62 58,62 59,62 62,59 62,58 63,57 63,51 62,50 62,49" stroke="black" stroke-width="1" /><polygon fill="none" id="5" points="45,48" stroke="black" stroke-width="1" /><polygon fill="none" id="6" points="47,47" stroke="black" stroke-width="1" /><polygon fill="none" id="7" points="57,46 58,46" stroke="black" stroke-width="1" /><polygon fill="none" id="8" points="49,46" stroke="black" stroke-width="1" /><polygon fill="none" id="9" points="36,43 36,65 37,64 37,57 38,56 38,55 37,55 36,54 36,46 37,45 37,43" stroke="black" stroke-width="1" /><polygon fill="none" id="10" points="52,40 52,41 53,42 53,44 52,45 53,46 53,59 53,40" stroke="black" stroke-width="1" /></svg>