<?xml version="1.0" encoding="utf-8" ?>
<svg baseProfile="full" height="100" version="1.1" width="100" xmlns="http://www.w3.org/2000/svg" xmlns:ev="http://www.w3.org/2001/xml-events" xmlns:xlink="http://www.w3.org/1999/xlink"><defs /><polygon fill="none" id="1" points="49,59 50,59 52,61 50,59" stroke="black" stroke-width="1" /><polygon fill="none" id="2" points="66,47 68,49 68,50 69,51 69,57 68,58 68,59 65,62 64,62 65,62 69,58 69,57 70,56 70,52 69,51 69,50" stroke="black" stroke-width="1" /><polygon fill="none" id="3" points="51,47 50,48 49,48 44,53 49,48 50,48" stroke="black" stroke-width="1" /><polygon fill="none" id="4" points="63,46 64,46" stroke="black" stroke-width="1" /><polygon fill="none" id="5" points="54,46" stroke="black" stroke-width="1" /><polygon fill="none" id="6" points="40,43 40,46 39,47 39,62 40,63 40,64 41,64 40,63 40,61 41,60 41,57 42,56 40,56 39,55 39,51 40,50 40,46 41,45 41,43" stroke="black" stroke-width="1" /><polygon fill="none" id="7" points="57,40 57,41 58,42 58,44 57,45 58,46 58,61 57,62 54,62 55,62 56,63 56,66 52,70 56,66 56,65 58,63 62,63 59,63 58,62 58,57 59,56 59,51 58,50 58,47 59,46 59,45 58,44 58,40" stroke="black" stroke-width="1" /></svg>