<?xml version="1.0" encoding="utf-8" ?>
<svg baseProfile="full" height="100" version="1.1" width="100" xmlns="http://www.w3.org/2000/svg" xmlns:ev="http://www.w3.org/2001/xml-events" xmlns:xlink="http://www.w3.org/1999/xlink"><defs /><polygon fill="none" id="1" points="54,59 55,60 56,60 57,61 56,60 55,60" stroke="black" stroke-width="1" /><polygon fill="none" id="2" points="54,48 53,49 52,49 48,53 52,49 53,49" stroke="black" stroke-width="1" /><polygon fill="none" id="3" points="56,47" stroke="black" stroke-width="1" /><polygon fill="none" id="4" points="58,46 59,46" stroke="black" stroke-width="1" /><polygon fill="none" id="5" points="43,43 43,53 42,54 43,55 43,65 44,64 44,60 45,59 45,57 46,56 44,56 43,55 43,50 44,49 44,45 45,44 45,43" stroke="black" stroke-width="1" /><polygon fill="none" id="6" points="62,40 63,41 63,61 62,62 59,62 60,62 61,63 61,66 57,70 56,70 57,70 62,65 62,64 63,63 68,63 69,62 71,62 73,60 74,60 75,59 75,58 76,57 76,51 72,47 71,47 70,46 69,46 70,46 71,47 72,47 74,49 74,50 75,51 75,57 74,58 74,59 71,62 69,62 68,63 64,63 63,62 63,60 64,59 64,40" stroke="black" stroke-width="1" /></svg>