<?xml version="1.0" encoding="utf-8" ?>
<svg baseProfile="full" height="100" version="1.1" width="100" xmlns="http://www.w3.org/2000/svg" xmlns:ev="http://www.w3.org/2001/xml-events" xmlns:xlink="http://www.w3.org/1999/xlink"><defs /><polygon fill="none" id="1" points="38,40 38,58 39,59 39,60 38,61 33,61 32,62 31,62 29,64 29,68 31,70 32,70 33,71 39,71 40,70 40,69 41,68 41,66 42,65 43,65 45,67 46,67 49,70 49,69 50,68 50,67 48,65 47,65 46,64 45,64 44,63 43,63 42,62 41,62 40,61 40,52 41,51 46,51 47,50 49,50 49,49 48,48 48,47 47,47 46,48 44,48 43,49 41,49 40,48 40,40" stroke="black" stroke-width="1" /><polygon fill="none" id="2" points="33,63 38,63 39,64 39,67 37,69 33,69 31,67 31,65" stroke="black" stroke-width="1" /></svg>