<?xml version="1.0" encoding="utf-8" ?>
<svg baseProfile="full" height="100" version="1.1" width="100" xmlns="http://www.w3.org/2000/svg" xmlns:ev="http://www.w3.org/2001/xml-events" xmlns:xlink="http://www.w3.org/1999/xlink"><defs /><polygon fill="none" id="1" points="57,40 57,48 58,49 58,60 57,61 49,61 48,62 47,62 46,63 45,63 44,64 44,65 43,66 43,67 46,70 48,70 49,71 59,71 61,69 61,66 62,65 64,65 65,66 67,66 68,67 69,67 70,68 71,68 73,70 74,69 75,69 75,68 76,67 75,67 74,66 73,66 72,65 70,65 69,64 68,64 67,63 65,63 64,62 62,62 61,61 61,55 60,54 60,52 61,51 69,51 70,50 74,50 73,49 73,48 72,47 71,47 70,48 66,48 65,49 61,49 60,48 60,42 61,41 60,40" stroke="black" stroke-width="1" /><polygon fill="none" id="2" points="49,64 50,63 57,63 59,65 59,66 56,69 50,69 49,68 48,68 47,67 47,65 48,64" stroke="black" stroke-width="1" /></svg>