<?xml version="1.0" encoding="utf-8" ?>
<svg baseProfile="full" height="100" version="1.1" width="100" xmlns="http://www.w3.org/2000/svg" xmlns:ev="http://www.w3.org/2001/xml-events" xmlns:xlink="http://www.w3.org/1999/xlink"><defs /><polygon fill="none" id="1" points="43,40 43,59 44,60 43,61 37,61 36,62 35,62 33,64 33,68 35,70 36,70 37,71 44,71 46,69 46,66 47,65 48,65 49,66 50,66 52,68 53,68 55,70 56,69 56,68 57,67 56,67 54,65 53,65 52,64 51,64 50,63 48,63 46,61 46,58 45,57 45,52 46,51 52,51 53,50 55,50 55,49 54,48 54,47 53,47 52,48 49,48 48,49 46,49 45,48 45,40" stroke="black" stroke-width="1" /><polygon fill="none" id="2" points="37,63 43,63 44,64 44,66 43,67 43,68 42,69 37,69 35,67 35,65" stroke="black" stroke-width="1" /></svg>