<?xml version="1.0" encoding="utf-8" ?>
<svg baseProfile="full" height="100" version="1.1" width="100" xmlns="http://www.w3.org/2000/svg" xmlns:ev="http://www.w3.org/2001/xml-events" xmlns:xlink="http://www.w3.org/1999/xlink"><defs /><polygon fill="none" id="1" points="48,40 47,41 48,42 48,59 49,60 48,61 41,61 40,62 39,62 36,65 36,67 37,68 37,69 38,69 39,70 40,70 41,71 49,71 51,69 51,66 52,65 54,65 55,66 56,66 58,68 59,68 61,70 63,68 63,67 62,66 61,66 60,65 59,65 58,64 56,64 55,63 54,63 53,62 52,62 51,61 51,57 50,56 50,52 51,51 57,51 58,50 61,50 61,49 60,48 60,47 59,47 58,48 55,48 54,49 51,49 50,48 50,40" stroke="black" stroke-width="1" /><polygon fill="none" id="2" points="41,63 48,63 49,64 49,66 46,69 41,69 39,67 39,65" stroke="black" stroke-width="1" /></svg>