<?xml version="1.0" encoding="utf-8" ?>
<svg baseProfile="full" height="100" version="1.1" width="100" xmlns="http://www.w3.org/2000/svg" xmlns:ev="http://www.w3.org/2001/xml-events" xmlns:xlink="http://www.w3.org/1999/xlink"><defs /><polygon fill="none" id="1" points="53,40 52,41 52,42 53,43 53,60 52,61 45,61 44,62 43,62 42,63 41,63 41,64 40,65 40,68 42,70 44,70 45,71 54,71 56,69 56,66 57,65 59,65 60,66 61,66 62,67 63,67 64,68 65,68 67,70 70,67 69,67 68,66 67,66 66,65 64,65 63,64 62,64 61,63 59,63 58,62 57,62 56,61 56,56 55,55 55,52 56,51 63,51 64,50 67,50 67,49 66,48 66,47 65,47 64,48 60,48 59,49 56,49 55,48 55,42 56,41 55,40" stroke="black" stroke-width="1" /><polygon fill="none" id="2" points="45,63 52,63 54,65 54,66 51,69 46,69 45,68 44,68 43,67 43,65" stroke="black" stroke-width="1" /></svg>