<?xml version="1.0" encoding="utf-8" ?>
<svg baseProfile="full" height="100" version="1.1" width="100" xmlns="http://www.w3.org/2000/svg" xmlns:ev="http://www.w3.org/2001/xml-events" xmlns:xlink="http://www.w3.org/1999/xlink"><defs /><polygon fill="none" id="1" points="38,40 38,59 39,60 38,61 33,61 32,62 31,62 29,64 29,69 31,71 32,71 33,72 40,72 41,71 41,70 42,69 42,67 43,66 45,68 46,68 49,71 50,71 50,70 51,69 51,67 49,65 48,65 47,64 46,64 45,63 44,63 43,62 42,62 41,61 41,53 42,52 47,52 48,51 50,51 50,49 49,48 49,47 47,47 46,48 44,48 43,49 42,49 41,48 41,40" stroke="black" stroke-width="1" /><polygon fill="none" id="2" points="34,64 38,64 39,65 39,67 37,69 34,69 32,67 32,66" stroke="black" stroke-width="1" /></svg>