<?xml version="1.0" encoding="utf-8" ?>
<svg baseProfile="full" height="100" version="1.1" width="100" xmlns="http://www.w3.org/2000/svg" xmlns:ev="http://www.w3.org/2001/xml-events" xmlns:xlink="http://www.w3.org/1999/xlink"><defs /><polygon fill="none" id="1" points="43,40 43,60 42,61 37,61 36,62 35,62 33,64 33,69 35,71 36,71 37,72 45,72 47,70 47,67 48,66 49,67 50,67 52,69 53,69 55,71 56,71 57,70 57,69 58,68 58,67 57,67 55,65 54,65 53,64 52,64 51,63 49,63 47,61 47,58 46,57 46,53 47,52 53,52 54,51 56,51 56,49 55,48 55,47 53,47 52,48 49,48 48,49 47,49 46,48 46,40" stroke="black" stroke-width="1" /><polygon fill="none" id="2" points="38,64 43,64 44,65 44,66 43,67 43,68 42,69 38,69 36,67 36,66" stroke="black" stroke-width="1" /></svg>