<?xml version="1.0" encoding="utf-8" ?>
<svg baseProfile="full" height="100" version="1.1" width="100" xmlns="http://www.w3.org/2000/svg" xmlns:ev="http://www.w3.org/2001/xml-events" xmlns:xlink="http://www.w3.org/1999/xlink"><defs /><polygon fill="none" id="1" points="48,40 47,41 47,42 48,43 48,60 47,61 41,61 40,62 39,62 36,65 36,68 37,69 37,70 38,70 39,71 40,71 41,72 50,72 52,70 52,67 53,66 54,66 55,67 56,67 58,69 59,69 61,71 62,71 64,69 64,67 63,66 62,66 61,65 60,65 59,64 57,64 56,63 55,63 54,62 53,62 52,61 52,57 51,56 51,53 52,52 58,52 59,51 62,51 62,49 61,48 61,47 59,47 58,48 55,48 54,49 52,49 51,48 51,40" stroke="black" stroke-width="1" /><polygon fill="none" id="2" points="42,64 48,64 49,65 49,66 46,69 42,69 40,67 40,66" stroke="black" stroke-width="1" /></svg>