<?xml version="1.0" encoding="utf-8" ?>
<svg baseProfile="full" height="100" version="1.1" width="100" xmlns="http://www.w3.org/2000/svg" xmlns:ev="http://www.w3.org/2001/xml-events" xmlns:xlink="http://www.w3.org/1999/xlink"><defs /><polygon fill="none" id="1" points="53,40 52,41 52,43 53,44 53,60 52,61 45,61 44,62 43,62 42,63 41,63 41,64 40,65 40,69 42,71 44,71 45,72 55,72 57,70 57,67 58,66 59,66 60,67 61,67 62,68 63,68 64,69 65,69 67,71 68,71 71,68 71,67 70,67 69,66 68,66 67,65 65,65 64,64 63,64 62,63 60,63 59,62 58,62 57,61 57,56 56,55 56,53 57,52 64,52 65,51 68,51 68,49 67,48 67,47 65,47 64,48 60,48 59,49 57,49 56,48 56,43 57,42 57,41 56,40" stroke="black" stroke-width="1" /><polygon fill="none" id="2" points="46,64 52,64 54,66 51,69 47,69 46,68 45,68 44,67 44,66" stroke="black" stroke-width="1" /></svg>