<?xml version="1.0" encoding="utf-8" ?>
<svg baseProfile="full" height="100" version="1.1" width="100" xmlns="http://www.w3.org/2000/svg" xmlns:ev="http://www.w3.org/2001/xml-events" xmlns:xlink="http://www.w3.org/1999/xlink"><defs /><polygon fill="none" id="1" points="57,40 57,49 58,50 58,60 57,61 49,61 48,62 47,62 46,63 45,63 44,64 44,65 43,66 43,68 46,71 48,71 49,72 60,72 62,70 62,67 63,66 64,66 65,67 67,67 68,68 69,68 70,69 71,69 73,71 74,71 75,70 76,70 76,69 77,68 77,67 76,67 75,66 74,66 73,65 71,65 70,64 69,64 68,63 66,63 65,62 63,62 62,61 62,55 61,54 61,53 62,52 70,52 71,51 75,51 75,50 74,49 74,48 73,47 71,47 70,48 66,48 65,49 62,49 61,48 61,43 62,42 62,41 61,40" stroke="black" stroke-width="1" /><polygon fill="none" id="2" points="50,65 51,64 57,64 59,66 56,69 51,69 50,68 49,68 48,67 48,66 49,65" stroke="black" stroke-width="1" /></svg>