<?xml version="1.0" encoding="utf-8" ?>
<svg baseProfile="full" height="100" version="1.1" width="100" xmlns="http://www.w3.org/2000/svg" xmlns:ev="http://www.w3.org/2001/xml-events" xmlns:xlink="http://www.w3.org/1999/xlink"><defs /><polygon fill="none" id="1" points="39,41 39,58 40,59 40,61 39,62 34,62 33,63 32,63 30,65 30,68 32,70 33,70 34,71 39,71 40,70 40,69 41,68 41,66 42,65 44,65 46,67 47,67 49,69 50,68 48,66 47,66 46,65 45,65 44,64 43,64 42,63 41,63 40,62 40,52 41,51 46,51 47,50 49,50 48,49 48,48 47,49 45,49 44,50 41,50 40,49 40,41" stroke="black" stroke-width="1" /><polygon fill="none" id="2" points="33,63 39,63 40,64 40,68 38,70 33,70 31,68 31,65" stroke="black" stroke-width="1" /></svg>