<?xml version="1.0" encoding="utf-8" ?>
<svg baseProfile="full" height="100" version="1.1" width="100" xmlns="http://www.w3.org/2000/svg" xmlns:ev="http://www.w3.org/2001/xml-events" xmlns:xlink="http://www.w3.org/1999/xlink"><defs /><polygon fill="none" id="1" points="44,41 44,59 45,60 45,61 44,62 38,62 37,63 36,63 34,65 34,68 36,70 37,70 38,71 44,71 46,69 46,66 47,65 49,65 50,66 51,66 53,68 54,68 55,69 56,69 56,68 54,66 53,66 52,65 51,65 50,64 48,64 46,62 46,59 45,58 45,52 46,51 52,51 53,50 55,50 54,49 54,48 53,49 50,49 49,50 46,50 45,49 45,41" stroke="black" stroke-width="1" /><polygon fill="none" id="2" points="37,63 44,63 45,64 45,67 44,68 44,69 43,70 37,70 35,68 35,65" stroke="black" stroke-width="1" /></svg>