<?xml version="1.0" encoding="utf-8" ?>
<svg baseProfile="full" height="100" version="1.1" width="100" xmlns="http://www.w3.org/2000/svg" xmlns:ev="http://www.w3.org/2001/xml-events" xmlns:xlink="http://www.w3.org/1999/xlink"><defs /><polygon fill="none" id="1" points="49,41 49,59 50,60 50,61 49,62 42,62 41,63 40,63 37,66 37,67 38,68 38,69 39,69 40,70 41,70 42,71 49,71 51,69 51,66 52,65 55,65 56,66 57,66 59,68 60,68 61,69 62,69 63,68 62,67 61,67 60,66 59,66 58,65 56,65 55,64 54,64 53,63 52,63 51,62 51,58 50,57 50,52 51,51 57,51 58,50 61,50 60,49 60,48 59,49 56,49 55,50 51,50 50,49 50,41" stroke="black" stroke-width="1" /><polygon fill="none" id="2" points="41,63 49,63 50,64 50,67 47,70 41,70 39,68 39,65" stroke="black" stroke-width="1" /></svg>