<?xml version="1.0" encoding="utf-8" ?>
<svg baseProfile="full" height="100" version="1.1" width="100" xmlns="http://www.w3.org/2000/svg" xmlns:ev="http://www.w3.org/2001/xml-events" xmlns:xlink="http://www.w3.org/1999/xlink"><defs /><polygon fill="none" id="1" points="54,41 53,42 54,43 54,61 53,62 46,62 45,63 44,63 43,64 42,64 42,65 41,66 41,68 43,70 45,70 46,71 54,71 56,69 56,66 57,65 60,65 61,66 62,66 63,67 64,67 65,68 66,68 67,69 68,69 69,68 68,67 67,67 66,66 64,66 63,65 62,65 61,64 59,64 58,63 57,63 56,62 56,57 55,56 55,52 56,51 63,51 64,50 67,50 66,49 66,48 65,49 61,49 60,50 56,50 55,49 55,41" stroke="black" stroke-width="1" /><polygon fill="none" id="2" points="45,63 53,63 55,65 55,67 52,70 46,70 45,69 44,69 43,68 43,65" stroke="black" stroke-width="1" /></svg>