<?xml version="1.0" encoding="utf-8" ?>
<svg baseProfile="full" height="100" version="1.1" width="100" xmlns="http://www.w3.org/2000/svg" xmlns:ev="http://www.w3.org/2001/xml-events" xmlns:xlink="http://www.w3.org/1999/xlink"><defs /><polygon fill="none" id="1" points="43,30 43,31 42,32 42,33 41,34 41,35 39,37 39,38 36,41 36,42 30,48 30,49 29,50 29,51 30,52 30,53 35,58 35,59 38,62 38,63 41,66 41,67 43,69 43,70 44,71 44,72 46,72 48,70 48,69 47,68 47,67 44,64 44,63 41,60 41,59 36,54 36,53 33,50 42,41 42,40 44,38 44,37 46,35 46,34 47,33 47,32 45,30" stroke="black" stroke-width="1" /></svg>