<?xml version="1.0" encoding="utf-8" ?>
<svg baseProfile="full" height="100" version="1.1" width="100" xmlns="http://www.w3.org/2000/svg" xmlns:ev="http://www.w3.org/2001/xml-events" xmlns:xlink="http://www.w3.org/1999/xlink"><defs /><polygon fill="none" id="1" points="58,41 58,48 59,49 59,61 58,62 50,62 49,63 48,63 47,64 46,64 45,65 45,66 44,67 47,70 49,70 50,71 59,71 61,69 61,66 62,65 65,65 66,66 68,66 69,67 70,67 71,68 72,68 73,69 75,69 75,68 74,67 73,67 72,66 70,66 69,65 68,65 67,64 65,64 64,63 62,63 61,62 61,56 60,55 60,52 61,51 69,51 70,50 73,50 73,49 72,48 71,49 67,49 66,50 61,50 60,49 60,41" stroke="black" stroke-width="1" /><polygon fill="none" id="2" points="49,64 50,63 58,63 60,65 60,67 57,70 50,70 49,69 48,69 47,68 47,65 48,64" stroke="black" stroke-width="1" /></svg>