<?xml version="1.0" encoding="utf-8" ?>
<svg baseProfile="full" height="100" version="1.1" width="100" xmlns="http://www.w3.org/2000/svg" xmlns:ev="http://www.w3.org/2001/xml-events" xmlns:xlink="http://www.w3.org/1999/xlink"><defs /><polygon fill="none" id="1" points="37,39 37,59 36,60 32,60 31,61 30,61 28,63 28,69 30,71 31,71 32,72 40,72 41,71 41,70 42,69 42,68 43,67 44,68 45,68 48,71 50,71 50,70 51,69 51,66 49,64 48,64 47,63 46,63 45,62 44,62 43,61 42,61 41,60 41,53 42,52 47,52 48,51 50,51 50,48 49,47 49,46 46,46 45,47 43,47 42,48 41,47 41,39" stroke="black" stroke-width="1" /><polygon fill="none" id="2" points="34,64 37,64 38,65 38,66 36,68 34,68 32,66" stroke="black" stroke-width="1" /></svg>