<?xml version="1.0" encoding="utf-8" ?>
<svg baseProfile="full" height="100" version="1.1" width="100" xmlns="http://www.w3.org/2000/svg" xmlns:ev="http://www.w3.org/2001/xml-events" xmlns:xlink="http://www.w3.org/1999/xlink"><defs /><polygon fill="none" id="1" points="42,39 42,59 41,60 36,60 35,61 34,61 32,63 32,69 34,71 35,71 36,72 45,72 47,70 47,68 48,67 49,67 51,69 52,69 54,71 56,71 57,70 57,69 58,68 58,66 57,66 55,64 54,64 53,63 52,63 51,62 49,62 47,60 47,57 46,56 46,53 47,52 53,52 54,51 56,51 56,48 55,47 55,46 52,46 51,47 48,47 47,48 46,47 46,39" stroke="black" stroke-width="1" /><polygon fill="none" id="2" points="38,64 42,64 43,65 42,66 42,67 41,68 38,68 36,66" stroke="black" stroke-width="1" /></svg>