<?xml version="1.0" encoding="utf-8" ?>
<svg baseProfile="full" height="100" version="1.1" width="100" xmlns="http://www.w3.org/2000/svg" xmlns:ev="http://www.w3.org/2001/xml-events" xmlns:xlink="http://www.w3.org/1999/xlink"><defs /><polygon fill="none" id="1" points="47,39 46,40 46,42 47,43 47,59 46,60 40,60 39,61 38,61 35,64 35,68 36,69 36,70 37,70 38,71 39,71 40,72 50,72 52,70 52,67 53,66 54,67 55,67 57,69 58,69 60,71 62,71 64,69 64,66 63,65 62,65 61,64 60,64 59,63 57,63 56,62 55,62 54,61 53,61 52,60 52,56 51,55 51,53 52,52 58,52 59,51 62,51 62,48 61,47 61,46 58,46 57,47 54,47 53,48 52,48 51,47 51,39" stroke="black" stroke-width="1" /><polygon fill="none" id="2" points="42,64 47,64 48,65 45,68 42,68 40,66" stroke="black" stroke-width="1" /></svg>