<?xml version="1.0" encoding="utf-8" ?>
<svg baseProfile="full" height="100" version="1.1" width="100" xmlns="http://www.w3.org/2000/svg" xmlns:ev="http://www.w3.org/2001/xml-events" xmlns:xlink="http://www.w3.org/1999/xlink"><defs /><polygon fill="none" id="1" points="52,39 51,40 51,43 52,44 52,59 51,60 44,60 43,61 42,61 41,62 40,62 40,63 39,64 39,69 41,71 43,71 44,72 55,72 57,70 57,67 58,66 59,67 60,67 61,68 62,68 63,69 64,69 66,71 68,71 71,68 71,66 70,66 69,65 68,65 67,64 65,64 64,63 63,63 62,62 60,62 59,61 58,61 57,60 57,55 56,54 56,53 57,52 64,52 65,51 68,51 68,48 67,47 67,46 64,46 63,47 59,47 58,48 57,48 56,47 56,43 57,42 57,40 56,39" stroke="black" stroke-width="1" /><polygon fill="none" id="2" points="46,64 51,64 52,65 52,66 50,68 47,68 46,67 45,67 44,66" stroke="black" stroke-width="1" /></svg>