<?xml version="1.0" encoding="utf-8" ?>
<svg baseProfile="full" height="100" version="1.1" width="100" xmlns="http://www.w3.org/2000/svg" xmlns:ev="http://www.w3.org/2001/xml-events" xmlns:xlink="http://www.w3.org/1999/xlink"><defs /><polygon fill="none" id="1" points="56,39 56,49 57,50 57,59 56,60 48,60 47,61 46,61 45,62 44,62 43,63 43,64 42,65 42,68 45,71 47,71 48,72 60,72 62,70 62,67 63,66 64,67 66,67 67,68 68,68 69,69 70,69 72,71 74,71 75,70 76,70 76,69 77,68 77,66 76,66 75,65 74,65 73,64 71,64 70,63 69,63 68,62 66,62 65,61 63,61 62,60 62,54 61,53 62,52 70,52 71,51 75,51 75,49 74,48 74,47 73,46 70,46 69,47 65,47 64,48 62,48 61,47 61,43 62,42 62,40 61,39" stroke="black" stroke-width="1" /><polygon fill="none" id="2" points="50,65 51,64 56,64 57,65 57,66 55,68 51,68 50,67 49,67 48,66 49,65" stroke="black" stroke-width="1" /></svg>