<?xml version="1.0" encoding="utf-8" ?>
<svg baseProfile="full" height="100" version="1.1" width="100" xmlns="http://www.w3.org/2000/svg" xmlns:ev="http://www.w3.org/2001/xml-events" xmlns:xlink="http://www.w3.org/1999/xlink"><defs /><polygon fill="none" id="1" points="39,69 38,70 34,70 38,70" stroke="black" stroke-width="1" /><polygon fill="none" id="2" points="45,65 46,66 47,66 48,67 47,66 46,66" stroke="black" stroke-width="1" /><polygon fill="none" id="3" points="30,65 30,67" stroke="black" stroke-width="1" /><polygon fill="none" id="4" points="34,62 39,62 40,63 40,67 40,65 41,64 43,64 42,64 41,63 40,63 39,62" stroke="black" stroke-width="1" /><polygon fill="none" id="5" points="39,41 39,57 39,51 40,50 45,50 46,49 47,49 45,49 44,50 40,50 39,49" stroke="black" stroke-width="1" /></svg>