<?xml version="1.0" encoding="utf-8" ?>
<svg baseProfile="full" height="100" version="1.1" width="100" xmlns="http://www.w3.org/2000/svg" xmlns:ev="http://www.w3.org/2001/xml-events" xmlns:xlink="http://www.w3.org/1999/xlink"><defs /><polygon fill="none" id="1" points="34,65 34,67" stroke="black" stroke-width="1" /><polygon fill="none" id="2" points="44,41 44,58 45,59 45,61 44,62 38,62 44,62 45,63 45,67 44,68 44,69 43,70 38,70 43,70 45,68 45,65 46,64 49,64 50,65 51,65 53,67 54,67 55,68 53,66 52,66 51,65 50,65 49,64 47,64 45,62 45,59 44,58 44,51 45,50 51,50 52,49 53,49 50,49 49,50 45,50 44,49" stroke="black" stroke-width="1" /></svg>