<?xml version="1.0" encoding="utf-8" ?>
<svg baseProfile="full" height="100" version="1.1" width="100" xmlns="http://www.w3.org/2000/svg" xmlns:ev="http://www.w3.org/2001/xml-events" xmlns:xlink="http://www.w3.org/1999/xlink"><defs /><polygon fill="none" id="1" points="56,65 57,65 59,67 60,67 61,68 61,67 60,67 59,66 58,66 57,65" stroke="black" stroke-width="1" /><polygon fill="none" id="2" points="38,65 37,66 38,67 38,68" stroke="black" stroke-width="1" /><polygon fill="none" id="3" points="49,41 49,58 50,59 50,61 49,62 42,62 49,62 50,63 50,67 47,70 42,70 48,70 50,68 50,65 51,64 54,64 53,64 52,63 51,63 50,62 50,58 49,57 49,51 50,50 56,50 57,49 59,49 56,49 55,50 50,50 49,49" stroke="black" stroke-width="1" /></svg>