<?xml version="1.0" encoding="utf-8" ?>
<svg baseProfile="full" height="100" version="1.1" width="100" xmlns="http://www.w3.org/2000/svg" xmlns:ev="http://www.w3.org/2001/xml-events" xmlns:xlink="http://www.w3.org/1999/xlink"><defs /><polygon fill="none" id="1" points="42,64 42,65 41,66 41,67 43,69 44,69 43,69 42,68" stroke="black" stroke-width="1" /><polygon fill="none" id="2" points="54,41 54,61 53,62 46,62 53,62 55,64 55,67 52,70 46,70 53,70 55,68 55,65 56,64 60,64 61,65 62,65 63,66 64,66 65,67 66,67 67,68 67,67 66,67 65,66 63,66 62,65 61,65 60,64 58,64 57,63 56,63 55,62 55,57 54,56 54,51 55,50 62,50 63,49 65,49 61,49 60,50 55,50 54,49" stroke="black" stroke-width="1" /></svg>