<?xml version="1.0" encoding="utf-8" ?>
<svg baseProfile="full" height="100" version="1.1" width="100" xmlns="http://www.w3.org/2000/svg" xmlns:ev="http://www.w3.org/2001/xml-events" xmlns:xlink="http://www.w3.org/1999/xlink"><defs /><polygon fill="none" id="1" points="49,30 48,31 48,32 47,33 47,34 44,37 44,38 33,49 33,52 42,61 42,62 47,67 47,68 49,70 49,71 50,72 52,72 54,70 54,69 52,67 52,66 48,62 48,61 38,51 38,50 48,40 48,39 51,36 51,35 52,34 52,32 50,30" stroke="black" stroke-width="1" /></svg>