<?xml version="1.0" encoding="utf-8" ?>
<svg baseProfile="full" height="100" version="1.1" width="100" xmlns="http://www.w3.org/2000/svg" xmlns:ev="http://www.w3.org/2001/xml-events" xmlns:xlink="http://www.w3.org/1999/xlink"><defs /><polygon fill="none" id="1" points="46,64 45,65 45,67 47,69 48,69 47,69 46,68" stroke="black" stroke-width="1" /><polygon fill="none" id="2" points="48,63" stroke="black" stroke-width="1" /><polygon fill="none" id="3" points="58,41 58,47 59,48 59,61 58,62 50,62 58,62 60,64 60,67 57,70 50,70 58,70 60,68 60,65 61,64 65,64 66,65 68,65 69,66 70,66 71,67 72,67 73,68 74,68 73,67 72,67 71,66 69,66 68,65 67,65 66,64 64,64 63,63 61,63 60,62 60,56 59,55 59,51 60,50 68,50 69,49 72,49 67,49 66,50 60,50 59,49 59,41" stroke="black" stroke-width="1" /></svg>