<?xml version="1.0" encoding="utf-8" ?>
<svg baseProfile="full" height="100" version="1.1" width="100" xmlns="http://www.w3.org/2000/svg" xmlns:ev="http://www.w3.org/2001/xml-events" xmlns:xlink="http://www.w3.org/1999/xlink"><defs /><polygon fill="none" id="1" points="38,47 37,48 34,48 33,49 30,49 29,50 27,50 27,52 28,53 29,53 30,52 32,52 33,51 34,51 35,50 38,50 39,49 45,49 49,53 49,59 48,60 48,61 43,66 41,66 40,67 34,67 34,69 35,70 39,70 40,69 42,69 43,68 45,68 50,63 50,62 51,61 51,53 50,52 50,51 49,50 49,49 48,49 46,47" stroke="black" stroke-width="1" /></svg>