<?xml version="1.0" encoding="utf-8" ?>
<svg baseProfile="full" height="100" version="1.1" width="100" xmlns="http://www.w3.org/2000/svg" xmlns:ev="http://www.w3.org/2001/xml-events" xmlns:xlink="http://www.w3.org/1999/xlink"><defs /><polygon fill="none" id="1" points="43,47 42,48 38,48 37,49 34,49 33,50 31,50 30,51 31,52 31,53 33,53 34,52 36,52 37,51 39,51 40,50 43,50 44,49 50,49 51,50 52,50 55,53 55,60 50,65 49,65 48,66 46,66 45,67 38,67 38,68 39,69 39,70 44,70 45,69 48,69 49,68 50,68 51,67 52,67 53,66 54,66 56,64 56,63 57,62 57,60 58,59 58,54 57,53 57,52 56,51 56,50 54,48 52,48 51,47" stroke="black" stroke-width="1" /></svg>