<?xml version="1.0" encoding="utf-8" ?>
<svg baseProfile="full" height="100" version="1.1" width="100" xmlns="http://www.w3.org/2000/svg" xmlns:ev="http://www.w3.org/2001/xml-events" xmlns:xlink="http://www.w3.org/1999/xlink"><defs /><polygon fill="none" id="1" points="47,47 46,48 42,48 41,49 38,49 37,50 34,50 34,52 35,53 37,53 38,52 40,52 41,51 43,51 44,50 48,50 49,49 56,49 57,50 58,50 61,53 61,60 56,65 54,65 53,66 51,66 50,67 43,67 43,69 44,70 49,70 50,69 53,69 54,68 56,68 57,67 58,67 59,66 60,66 62,64 62,63 64,61 64,53 63,52 63,51 60,48 58,48 57,47" stroke="black" stroke-width="1" /></svg>