<?xml version="1.0" encoding="utf-8" ?>
<svg baseProfile="full" height="100" version="1.1" width="100" xmlns="http://www.w3.org/2000/svg" xmlns:ev="http://www.w3.org/2001/xml-events" xmlns:xlink="http://www.w3.org/1999/xlink"><defs /><polygon fill="none" id="1" points="52,47 51,48 46,48 45,49 42,49 41,50 37,50 37,51 38,52 38,53 40,53 41,52 44,52 45,51 48,51 49,50 53,50 54,49 62,49 63,50 64,50 67,53 67,60 63,64 62,64 61,65 60,65 59,66 56,66 55,67 47,67 47,69 48,70 54,70 55,69 59,69 60,68 62,68 63,67 64,67 65,66 66,66 69,63 69,62 70,61 70,60 71,59 71,54 70,53 70,52 66,48 64,48 63,47" stroke="black" stroke-width="1" /></svg>