<?xml version="1.0" encoding="utf-8" ?>
<svg baseProfile="full" height="100" version="1.1" width="100" xmlns="http://www.w3.org/2000/svg" xmlns:ev="http://www.w3.org/2001/xml-events" xmlns:xlink="http://www.w3.org/1999/xlink"><defs /><polygon fill="none" id="1" points="57,47 56,48 51,48 50,49 46,49 45,50 41,50 41,52 42,53 44,53 45,52 48,52 49,51 52,51 53,50 58,50 59,49 67,49 68,50 70,50 73,53 73,55 74,56 74,57 73,58 73,60 69,64 68,64 67,65 65,65 64,66 61,66 60,67 51,67 51,68 52,69 52,70 59,70 60,69 64,69 65,68 67,68 68,67 70,67 71,66 72,66 76,62 76,61 77,60 77,53 76,52 76,51 75,50 74,50 72,48 70,48 69,47" stroke="black" stroke-width="1" /></svg>