<?xml version="1.0" encoding="utf-8" ?>
<svg baseProfile="full" height="100" version="1.1" width="100" xmlns="http://www.w3.org/2000/svg" xmlns:ev="http://www.w3.org/2001/xml-events" xmlns:xlink="http://www.w3.org/1999/xlink"><defs /><polygon fill="none" id="1" points="38,47 37,48 34,48 33,49 30,49 29,50 27,50 27,53 28,54 30,54 31,53 33,53 34,52 35,52 36,51 39,51 40,50 45,50 49,54 49,59 48,60 48,61 43,66 41,66 40,67 34,67 34,70 35,71 40,71 41,70 43,70 44,69 46,69 51,64 51,63 52,62 52,53 51,52 51,51 50,50 50,49 49,49 47,47" stroke="black" stroke-width="1" /></svg>