<?xml version="1.0" encoding="utf-8" ?>
<svg baseProfile="full" height="100" version="1.1" width="100" xmlns="http://www.w3.org/2000/svg" xmlns:ev="http://www.w3.org/2001/xml-events" xmlns:xlink="http://www.w3.org/1999/xlink"><defs /><polygon fill="none" id="1" points="43,47 42,48 38,48 37,49 34,49 33,50 31,50 30,51 30,52 31,53 31,54 34,54 35,53 37,53 38,52 40,52 41,51 44,51 45,50 50,50 51,51 52,51 55,54 55,60 50,65 49,65 48,66 46,66 45,67 38,67 38,69 39,70 39,71 45,71 46,70 49,70 50,69 51,69 52,68 53,68 54,67 55,67 57,65 57,64 58,63 58,61 59,60 59,54 58,53 58,52 57,51 57,50 55,48 53,48 52,47" stroke="black" stroke-width="1" /></svg>