<?xml version="1.0" encoding="utf-8" ?>
<svg baseProfile="full" height="100" version="1.1" width="100" xmlns="http://www.w3.org/2000/svg" xmlns:ev="http://www.w3.org/2001/xml-events" xmlns:xlink="http://www.w3.org/1999/xlink"><defs /><polygon fill="none" id="1" points="47,47 46,48 42,48 41,49 38,49 37,50 34,50 34,53 35,54 38,54 39,53 41,53 42,52 44,52 45,51 49,51 50,50 56,50 57,51 58,51 61,54 61,60 56,65 54,65 53,66 51,66 50,67 43,67 43,70 44,71 50,71 51,70 54,70 55,69 57,69 58,68 59,68 60,67 61,67 63,65 63,64 65,62 65,53 64,52 64,51 61,48 59,48 58,47" stroke="black" stroke-width="1" /></svg>