<?xml version="1.0" encoding="utf-8" ?>
<svg baseProfile="full" height="100" version="1.1" width="100" xmlns="http://www.w3.org/2000/svg" xmlns:ev="http://www.w3.org/2001/xml-events" xmlns:xlink="http://www.w3.org/1999/xlink"><defs /><polygon fill="none" id="1" points="52,47 51,48 46,48 45,49 42,49 41,50 37,50 37,52 38,53 38,54 41,54 42,53 45,53 46,52 49,52 50,51 54,51 55,50 62,50 63,51 64,51 67,54 67,60 63,64 62,64 61,65 60,65 59,66 56,66 55,67 47,67 47,70 48,71 55,71 56,70 60,70 61,69 63,69 64,68 65,68 66,67 67,67 70,64 70,63 71,62 71,61 72,60 72,54 71,53 71,52 67,48 65,48 64,47" stroke="black" stroke-width="1" /></svg>