<?xml version="1.0" encoding="utf-8" ?>
<svg baseProfile="full" height="100" version="1.1" width="100" xmlns="http://www.w3.org/2000/svg" xmlns:ev="http://www.w3.org/2001/xml-events" xmlns:xlink="http://www.w3.org/1999/xlink"><defs /><polygon fill="none" id="1" points="57,47 56,48 51,48 50,49 46,49 45,50 41,50 41,53 42,54 45,54 46,53 49,53 50,52 53,52 54,51 59,51 60,50 67,50 68,51 70,51 73,54 73,56 74,57 73,58 73,60 69,64 68,64 67,65 65,65 64,66 61,66 60,67 51,67 51,69 52,70 52,71 60,71 61,70 65,70 66,69 68,69 69,68 71,68 72,67 73,67 77,63 77,62 78,61 78,53 77,52 77,51 76,50 75,50 73,48 71,48 70,47" stroke="black" stroke-width="1" /></svg>