<?xml version="1.0" encoding="utf-8" ?>
<svg baseProfile="full" height="100" version="1.1" width="100" xmlns="http://www.w3.org/2000/svg" xmlns:ev="http://www.w3.org/2001/xml-events" xmlns:xlink="http://www.w3.org/1999/xlink"><defs /><polygon fill="none" id="1" points="39,48 38,49 35,49 34,50 31,50 30,51 28,51 28,52 29,53 30,52 32,52 33,51 34,51 35,50 38,50 39,49 46,49 50,53 50,60 49,61 49,62 44,67 42,67 41,68 35,68 35,69 36,70 39,70 40,69 42,69 43,68 45,68 50,63 50,62 51,61 51,54 50,53 50,52 49,51 49,50 48,50 46,48" stroke="black" stroke-width="1" /></svg>