<?xml version="1.0" encoding="utf-8" ?>
<svg baseProfile="full" height="100" version="1.1" width="100" xmlns="http://www.w3.org/2000/svg" xmlns:ev="http://www.w3.org/2001/xml-events" xmlns:xlink="http://www.w3.org/1999/xlink"><defs /><polygon fill="none" id="1" points="44,48 43,49 39,49 38,50 35,50 34,51 32,51 32,53 33,53 34,52 36,52 37,51 39,51 40,50 43,50 44,49 51,49 52,50 53,50 56,53 56,61 51,66 50,66 49,67 47,67 46,68 39,68 40,69 40,70 44,70 45,69 48,69 49,68 50,68 51,67 52,67 53,66 54,66 56,64 56,63 57,62 57,60 58,59 58,55 57,54 57,53 56,52 56,51 54,49 52,49 51,48" stroke="black" stroke-width="1" /></svg>