<?xml version="1.0" encoding="utf-8" ?>
<svg baseProfile="full" height="100" version="1.1" width="100" xmlns="http://www.w3.org/2000/svg" xmlns:ev="http://www.w3.org/2001/xml-events" xmlns:xlink="http://www.w3.org/1999/xlink"><defs /><polygon fill="none" id="1" points="48,48 47,49 43,49 42,50 39,50 38,51 35,51 35,52 36,53 37,53 38,52 40,52 41,51 43,51 44,50 48,50 49,49 57,49 58,50 59,50 62,53 62,61 57,66 55,66 54,67 52,67 51,68 44,68 44,69 45,70 49,70 50,69 53,69 54,68 56,68 57,67 58,67 59,66 60,66 62,64 62,63 64,61 64,54 63,53 63,52 60,49 58,49 57,48" stroke="black" stroke-width="1" /></svg>