<?xml version="1.0" encoding="utf-8" ?>
<svg baseProfile="full" height="100" version="1.1" width="100" xmlns="http://www.w3.org/2000/svg" xmlns:ev="http://www.w3.org/2001/xml-events" xmlns:xlink="http://www.w3.org/1999/xlink"><defs /><polygon fill="none" id="1" points="53,48 52,49 47,49 46,50 43,50 42,51 38,51 39,52 39,53 40,53 41,52 44,52 45,51 48,51 49,50 53,50 54,49 63,49 64,50 65,50 68,53 68,61 64,65 63,65 62,66 61,66 60,67 57,67 56,68 48,68 48,69 49,70 54,70 55,69 59,69 60,68 62,68 63,67 64,67 65,66 66,66 69,63 69,62 70,61 70,60 71,59 71,55 70,54 70,53 66,49 64,49 63,48" stroke="black" stroke-width="1" /></svg>