<?xml version="1.0" encoding="utf-8" ?>
<svg baseProfile="full" height="100" version="1.1" width="100" xmlns="http://www.w3.org/2000/svg" xmlns:ev="http://www.w3.org/2001/xml-events" xmlns:xlink="http://www.w3.org/1999/xlink"><defs /><polygon fill="none" id="1" points="58,48 57,49 52,49 51,50 47,50 46,51 42,51 42,52 43,53 44,53 45,52 48,52 49,51 52,51 53,50 58,50 59,49 68,49 69,50 71,50 74,53 74,55 75,56 75,58 74,59 74,61 70,65 69,65 68,66 66,66 65,67 62,67 61,68 52,68 53,69 53,70 59,70 60,69 64,69 65,68 67,68 68,67 70,67 71,66 72,66 76,62 76,61 77,60 77,54 76,53 76,52 75,51 74,51 72,49 70,49 69,48" stroke="black" stroke-width="1" /></svg>