<?xml version="1.0" encoding="utf-8" ?>
<svg baseProfile="full" height="100" version="1.1" width="100" xmlns="http://www.w3.org/2000/svg" xmlns:ev="http://www.w3.org/2001/xml-events" xmlns:xlink="http://www.w3.org/1999/xlink"><defs /><polygon fill="none" id="1" points="37,46 36,47 33,47 32,48 29,48 28,49 26,49 26,53 27,54 30,54 31,53 33,53 34,52 35,52 36,51 39,51 40,50 44,50 48,54 48,58 47,59 47,60 42,65 40,65 39,66 33,66 33,70 34,71 40,71 41,70 43,70 44,69 46,69 51,64 51,63 52,62 52,52 51,51 51,50 50,49 50,48 49,48 47,46" stroke="black" stroke-width="1" /></svg>