<?xml version="1.0" encoding="utf-8" ?>
<svg baseProfile="full" height="100" version="1.1" width="100" xmlns="http://www.w3.org/2000/svg" xmlns:ev="http://www.w3.org/2001/xml-events" xmlns:xlink="http://www.w3.org/1999/xlink"><defs /><polygon fill="none" id="1" points="42,46 41,47 37,47 36,48 33,48 32,49 30,49 29,50 29,52 30,53 30,54 34,54 35,53 37,53 38,52 40,52 41,51 44,51 45,50 49,50 50,51 51,51 54,54 54,59 49,64 48,64 47,65 45,65 44,66 37,66 37,69 38,70 38,71 45,71 46,70 49,70 50,69 51,69 52,68 53,68 54,67 55,67 57,65 57,64 58,63 58,61 59,60 59,53 58,52 58,51 57,50 57,49 55,47 53,47 52,46" stroke="black" stroke-width="1" /></svg>