<?xml version="1.0" encoding="utf-8" ?>
<svg baseProfile="full" height="100" version="1.1" width="100" xmlns="http://www.w3.org/2000/svg" xmlns:ev="http://www.w3.org/2001/xml-events" xmlns:xlink="http://www.w3.org/1999/xlink"><defs /><polygon fill="none" id="1" points="46,46 45,47 41,47 40,48 37,48 36,49 33,49 33,53 34,54 38,54 39,53 41,53 42,52 44,52 45,51 49,51 50,50 55,50 56,51 57,51 60,54 60,59 55,64 53,64 52,65 50,65 49,66 42,66 42,70 43,71 50,71 51,70 54,70 55,69 57,69 58,68 59,68 60,67 61,67 63,65 63,64 65,62 65,52 64,51 64,50 61,47 59,47 58,46" stroke="black" stroke-width="1" /></svg>