<?xml version="1.0" encoding="utf-8" ?>
<svg baseProfile="full" height="100" version="1.1" width="100" xmlns="http://www.w3.org/2000/svg" xmlns:ev="http://www.w3.org/2001/xml-events" xmlns:xlink="http://www.w3.org/1999/xlink"><defs /><polygon fill="none" id="1" points="51,46 50,47 45,47 44,48 41,48 40,49 36,49 36,52 37,53 37,54 41,54 42,53 45,53 46,52 49,52 50,51 54,51 55,50 61,50 62,51 63,51 66,54 66,59 62,63 61,63 60,64 59,64 58,65 55,65 54,66 46,66 46,70 47,71 55,71 56,70 60,70 61,69 63,69 64,68 65,68 66,67 67,67 70,64 70,63 71,62 71,61 72,60 72,53 71,52 71,51 67,47 65,47 64,46" stroke="black" stroke-width="1" /></svg>