<?xml version="1.0" encoding="utf-8" ?>
<svg baseProfile="full" height="100" version="1.1" width="100" xmlns="http://www.w3.org/2000/svg" xmlns:ev="http://www.w3.org/2001/xml-events" xmlns:xlink="http://www.w3.org/1999/xlink"><defs /><polygon fill="none" id="1" points="56,46 55,47 50,47 49,48 45,48 44,49 40,49 40,53 41,54 45,54 46,53 49,53 50,52 53,52 54,51 59,51 60,50 66,50 67,51 69,51 72,54 72,59 68,63 67,63 66,64 64,64 63,65 60,65 59,66 50,66 50,69 51,70 51,71 60,71 61,70 65,70 66,69 68,69 69,68 71,68 72,67 73,67 77,63 77,62 78,61 78,52 77,51 77,50 76,49 75,49 73,47 71,47 70,46" stroke="black" stroke-width="1" /></svg>