<?xml version="1.0" encoding="utf-8" ?>
<svg baseProfile="full" height="100" version="1.1" width="100" xmlns="http://www.w3.org/2000/svg" xmlns:ev="http://www.w3.org/2001/xml-events" xmlns:xlink="http://www.w3.org/1999/xlink"><defs /><polygon fill="none" id="1" points="56,53 56,61 51,66 50,66 49,67 47,67 46,68 40,68 40,69 43,69 44,68 47,68 48,67 49,67 50,66 51,66 52,65 53,65 55,63 55,62 56,61 56,59 57,58 57,55 56,54" stroke="black" stroke-width="1" /><polygon fill="none" id="2" points="52,49 53,49 55,51 53,49" stroke="black" stroke-width="1" /><polygon fill="none" id="3" points="39,49 38,50 35,50 34,51 32,51 32,52 33,51 35,51 36,50 38,50 39,49 42,49" stroke="black" stroke-width="1" /><polygon fill="none" id="4" points="44,48 50,48" stroke="black" stroke-width="1" /></svg>