<?xml version="1.0" encoding="utf-8" ?>
<svg baseProfile="full" height="100" version="1.1" width="100" xmlns="http://www.w3.org/2000/svg" xmlns:ev="http://www.w3.org/2001/xml-events" xmlns:xlink="http://www.w3.org/1999/xlink"><defs /><polygon fill="none" id="1" points="58,49 59,49 62,52 62,61 57,66 55,66 54,67 52,67 51,68 44,68 45,69 48,69 49,68 52,68 53,67 55,67 56,66 57,66 58,65 59,65 61,63 61,62 63,60 63,54 62,53 62,52 59,49" stroke="black" stroke-width="1" /><polygon fill="none" id="2" points="48,48 47,49 43,49 42,50 39,50 38,51 35,51 36,52 37,51 39,51 40,50 42,50 43,49 47,49 48,48 56,48" stroke="black" stroke-width="1" /></svg>