<?xml version="1.0" encoding="utf-8" ?>
<svg baseProfile="full" height="100" version="1.1" width="100" xmlns="http://www.w3.org/2000/svg" xmlns:ev="http://www.w3.org/2001/xml-events" xmlns:xlink="http://www.w3.org/1999/xlink"><defs /><polygon fill="none" id="1" points="64,49 65,49 68,52 68,61 64,65 63,65 62,66 61,66 60,67 57,67 56,68 48,68 49,69 53,69 54,68 58,68 59,67 61,67 62,66 63,66 64,65 65,65 68,62 68,61 69,60 69,59 70,58 70,55 69,54 69,53 65,49" stroke="black" stroke-width="1" /><polygon fill="none" id="2" points="53,48 52,49 47,49 46,50 43,50 42,51 39,51 39,52 40,51 43,51 44,50 47,50 48,49 52,49 53,48 62,48" stroke="black" stroke-width="1" /></svg>