<?xml version="1.0" encoding="utf-8" ?>
<svg baseProfile="full" height="100" version="1.1" width="100" xmlns="http://www.w3.org/2000/svg" xmlns:ev="http://www.w3.org/2001/xml-events" xmlns:xlink="http://www.w3.org/1999/xlink"><defs /><polygon fill="none" id="1" points="65,30 65,31 54,42 53,42 50,45 49,45 46,48 45,48 44,49 44,51 49,56 50,56 55,61 56,61 67,72 69,72 71,70 72,70 72,69 65,62 64,62 59,57 58,57 55,54 54,54 52,52 51,52 50,51 50,50 51,49 52,49 55,46 56,46 58,44 59,44 69,34 70,34 70,32 69,32 68,31 67,31 66,30" stroke="black" stroke-width="1" /></svg>