<?xml version="1.0" encoding="utf-8" ?>
<svg baseProfile="full" height="100" version="1.1" width="100" xmlns="http://www.w3.org/2000/svg" xmlns:ev="http://www.w3.org/2001/xml-events" xmlns:xlink="http://www.w3.org/1999/xlink"><defs /><polygon fill="none" id="1" points="58,48 57,49 52,49 51,50 47,50 46,51 42,51 43,52 44,51 47,51 48,50 51,50 52,49 57,49 58,48 68,48 69,49 71,49 74,52 74,54 75,55 75,58 74,59 74,61 70,65 69,65 68,66 66,66 65,67 62,67 61,68 53,68 53,69 58,69 59,68 63,68 64,67 66,67 67,66 69,66 70,65 71,65 75,61 75,60 76,59 76,54 75,53 75,52 74,51 73,51 71,49 69,49 68,48" stroke="black" stroke-width="1" /></svg>