<?xml version="1.0" encoding="utf-8" ?>
<svg baseProfile="full" height="100" version="1.1" width="100" xmlns="http://www.w3.org/2000/svg" xmlns:ev="http://www.w3.org/2001/xml-events" xmlns:xlink="http://www.w3.org/1999/xlink"><defs /><polygon fill="none" id="1" points="45,39 44,40 44,44 43,45 36,45 36,47 43,47 44,48 44,53 43,54 42,54 40,56 39,56 36,59 36,60 35,61 35,63 34,64 34,67 36,69 41,69 42,68 44,68 45,69 47,69 47,67 46,66 50,62 50,61 52,59 52,58 53,57 53,56 54,55 54,54 55,53 57,53 58,54 59,54 62,57 62,63 61,64 61,65 59,67 58,67 57,68 55,68 54,69 51,69 52,70 52,71 56,71 57,70 58,70 59,69 60,69 62,67 63,67 63,66 64,65 64,64 65,63 65,58 64,57 64,56 60,52 57,52 56,51 56,50 55,49 54,49 52,51 51,51 50,52 47,52 46,51 46,48 47,47 50,47 51,46 56,46 57,45 58,45 58,43 55,43 54,44 50,44 49,45 47,45 46,44 47,43 47,39" stroke="black" stroke-width="1" /><polygon fill="none" id="2" points="42,56 43,56 44,57 44,64 42,66 41,66 40,67 38,67 37,66 37,62 38,61 38,60" stroke="black" stroke-width="1" /><polygon fill="none" id="3" points="48,54 49,53 51,53 52,54 52,55 51,56 51,57 49,59 49,60 47,62 46,61 46,57 45,56 47,54" stroke="black" stroke-width="1" /></svg>