<?xml version="1.0" encoding="utf-8" ?>
<svg baseProfile="full" height="100" version="1.1" width="100" xmlns="http://www.w3.org/2000/svg" xmlns:ev="http://www.w3.org/2001/xml-events" xmlns:xlink="http://www.w3.org/1999/xlink"><defs /><polygon fill="none" id="1" points="49,39 49,44 48,45 40,45 40,47 47,47 48,48 48,53 46,55 45,55 44,56 43,56 39,60 39,61 38,62 38,68 39,68 40,69 45,69 46,68 47,68 48,67 49,68 49,69 52,69 52,68 51,67 51,66 56,61 56,60 58,58 58,57 59,56 59,54 60,53 63,53 64,54 65,54 68,57 68,63 67,64 67,65 65,67 64,67 63,68 61,68 60,69 56,69 57,70 57,71 62,71 63,70 64,70 65,69 66,69 67,68 68,68 70,66 70,65 71,64 71,63 72,62 72,59 71,58 71,56 69,54 68,54 66,52 63,52 61,50 61,49 59,49 59,50 58,51 57,51 56,52 51,52 50,51 50,50 51,49 51,48 52,47 55,47 56,46 62,46 63,45 64,45 64,43 61,43 60,44 55,44 54,45 52,45 51,44 51,43 52,42 52,39" stroke="black" stroke-width="1" /><polygon fill="none" id="2" points="46,57 47,56 48,57 48,65 47,66 46,66 45,67 42,67 40,65 40,64 41,63 41,62 42,61 42,60 45,57" stroke="black" stroke-width="1" /><polygon fill="none" id="3" points="53,54 54,53 56,53 57,54 57,55 56,56 56,57 54,59 54,60 52,62 51,62 50,61 50,55 51,54" stroke="black" stroke-width="1" /></svg>