<?xml version="1.0" encoding="utf-8" ?>
<svg baseProfile="full" height="100" version="1.1" width="100" xmlns="http://www.w3.org/2000/svg" xmlns:ev="http://www.w3.org/2001/xml-events" xmlns:xlink="http://www.w3.org/1999/xlink"><defs /><polygon fill="none" id="1" points="54,39 53,40 53,44 52,45 43,45 43,46 44,47 52,47 53,48 53,53 52,54 51,54 50,55 49,55 48,56 47,56 42,61 42,63 41,64 41,67 43,69 49,69 50,68 53,68 54,69 56,69 57,68 56,67 56,66 62,60 62,59 64,57 64,56 65,55 65,54 66,53 68,53 69,54 71,54 74,57 74,58 75,59 75,62 74,63 74,64 71,67 70,67 69,68 66,68 65,69 61,69 63,71 67,71 68,70 70,70 71,69 72,69 73,68 74,68 77,65 77,64 78,63 78,58 77,57 77,56 74,53 73,53 72,52 69,52 66,49 65,49 63,51 62,51 61,52 56,52 55,51 55,48 56,47 60,47 61,46 68,46 69,45 70,45 70,43 66,43 65,44 60,44 59,45 57,45 56,44 56,42 57,41 57,40 56,39" stroke="black" stroke-width="1" /><polygon fill="none" id="2" points="51,56 52,56 53,57 53,64 51,66 50,66 49,67 45,67 44,66 44,63 46,61 46,60 48,58 49,58" stroke="black" stroke-width="1" /><polygon fill="none" id="3" points="58,54 59,53 62,53 63,54 61,56 61,57 59,59 59,60 56,63 55,62 55,55 56,54" stroke="black" stroke-width="1" /></svg>