<?xml version="1.0" encoding="utf-8" ?>
<svg baseProfile="full" height="100" version="1.1" width="100" xmlns="http://www.w3.org/2000/svg" xmlns:ev="http://www.w3.org/2001/xml-events" xmlns:xlink="http://www.w3.org/1999/xlink"><defs /><polygon fill="none" id="1" points="36,39 35,40 35,44 34,45 29,45 29,47 34,47 35,48 35,53 32,56 31,56 31,57 29,59 29,60 28,61 28,63 27,64 27,66 28,67 28,68 29,69 32,69 33,68 35,68 36,69 37,69 37,65 40,62 40,61 41,60 41,59 42,58 42,56 43,55 43,54 44,53 45,53 46,54 47,54 49,56 49,57 50,58 50,62 49,63 49,65 47,67 46,67 45,68 44,68 43,69 41,69 41,70 42,71 45,71 46,70 47,70 50,67 50,66 51,65 51,64 52,63 52,58 51,57 51,56 50,55 50,54 48,52 46,52 44,50 44,49 43,49 43,50 42,51 41,51 40,52 37,52 36,51 36,48 37,47 39,47 40,46 45,46 46,45 46,43 44,43 43,44 40,44 39,45 38,45 37,44 37,42 38,41 38,40 37,39" stroke="black" stroke-width="1" /><polygon fill="none" id="2" points="34,56 35,57 35,65 34,66 33,66 32,67 30,67 29,66 29,63 30,62 30,61 31,60 31,59" stroke="black" stroke-width="1" /><polygon fill="none" id="3" points="38,54 39,53 41,53 42,54 41,55 41,56 40,57 40,59 39,60 39,61 38,62 37,62 36,61 36,55 37,54" stroke="black" stroke-width="1" /></svg>