<?xml version="1.0" encoding="utf-8" ?>
<svg baseProfile="full" height="100" version="1.1" width="100" xmlns="http://www.w3.org/2000/svg" xmlns:ev="http://www.w3.org/2001/xml-events" xmlns:xlink="http://www.w3.org/1999/xlink"><defs /><polygon fill="none" id="1" points="40,39 40,44 39,45 32,45 33,46 33,47 39,47 40,48 40,49 39,50 39,53 36,56 35,56 33,58 33,59 32,60 32,61 31,62 31,68 32,69 37,69 38,68 39,68 40,69 42,69 42,65 45,62 45,61 47,59 47,58 48,57 48,54 49,53 51,53 52,54 53,54 55,56 55,57 56,58 56,63 55,64 55,65 53,67 52,67 51,68 50,68 49,69 46,69 47,70 47,71 50,71 51,70 52,70 53,69 54,69 58,65 58,56 54,52 52,52 50,50 50,49 48,49 48,50 47,51 46,51 45,52 42,52 41,51 41,48 42,47 44,47 45,46 51,46 52,45 52,43 50,43 49,44 45,44 44,45 43,45 42,44 42,39" stroke="black" stroke-width="1" /><polygon fill="none" id="2" points="38,56 39,56 40,57 39,58 39,62 40,63 40,64 38,66 37,66 36,67 34,67 33,66 33,62 35,60 35,59" stroke="black" stroke-width="1" /><polygon fill="none" id="3" points="43,54 44,53 46,53 47,54 47,55 46,56 46,57 44,59 44,60 42,62 41,61 41,55 42,54" stroke="black" stroke-width="1" /></svg>