<?xml version="1.0" encoding="utf-8" ?>
<svg baseProfile="full" height="100" version="1.1" width="100" xmlns="http://www.w3.org/2000/svg" xmlns:ev="http://www.w3.org/2001/xml-events" xmlns:xlink="http://www.w3.org/1999/xlink"><defs /><polygon fill="none" id="1" points="44,31 44,32 43,33 43,34 42,35 42,36 40,38 40,39 37,42 37,43 31,49 31,52 36,57 36,58 39,61 39,62 42,65 42,66 44,68 44,69 45,70 45,71 46,70 46,68 43,65 43,64 40,61 40,60 35,55 35,54 32,51 32,49 41,40 41,39 43,37 43,36 45,34 45,32" stroke="black" stroke-width="1" /></svg>