<?xml version="1.0" encoding="utf-8" ?>
<svg baseProfile="full" height="100" version="1.1" width="100" xmlns="http://www.w3.org/2000/svg" xmlns:ev="http://www.w3.org/2001/xml-events" xmlns:xlink="http://www.w3.org/1999/xlink"><defs /><polygon fill="none" id="1" points="36,39 35,40 35,44 34,45 29,45 29,48 34,48 35,49 35,53 32,56 31,56 31,57 29,59 29,60 28,61 28,63 27,64 27,67 28,68 28,69 29,70 33,70 34,69 35,69 36,70 38,70 38,66 41,63 41,62 42,61 42,60 43,59 43,57 44,56 44,55 45,54 46,55 47,55 49,57 49,58 50,59 50,62 49,63 49,65 47,67 46,67 45,68 44,68 43,69 41,69 41,71 42,72 46,72 47,71 48,71 51,68 51,67 52,66 52,65 53,64 53,58 52,57 52,56 51,55 51,54 49,52 47,52 45,50 45,49 43,49 43,50 42,51 41,51 40,52 38,52 37,51 37,49 38,48 40,48 41,47 46,47 47,46 47,43 44,43 43,44 40,44 39,45 38,44 38,43 39,42 39,40 38,39" stroke="black" stroke-width="1" /><polygon fill="none" id="2" points="34,58 35,59 35,65 34,66 33,66 32,67 31,67 30,66 30,64 31,63 31,62 32,61 32,60" stroke="black" stroke-width="1" /><polygon fill="none" id="3" points="39,55 40,54 41,55 41,56 40,57 40,59 39,60 39,61 38,62 37,61 37,56 38,55" stroke="black" stroke-width="1" /></svg>