<?xml version="1.0" encoding="utf-8" ?>
<svg baseProfile="full" height="100" version="1.1" width="100" xmlns="http://www.w3.org/2000/svg" xmlns:ev="http://www.w3.org/2001/xml-events" xmlns:xlink="http://www.w3.org/1999/xlink"><defs /><polygon fill="none" id="1" points="40,39 40,44 39,45 32,45 32,46 33,47 33,48 39,48 40,49 39,50 39,53 36,56 35,56 33,58 33,59 32,60 32,61 31,62 31,69 32,70 38,70 39,69 40,70 43,70 43,66 46,63 46,62 48,60 48,59 49,58 49,55 50,54 51,54 52,55 53,55 55,57 55,58 56,59 56,63 55,64 55,65 53,67 52,67 51,68 50,68 49,69 46,69 46,70 47,71 47,72 51,72 52,71 53,71 54,70 55,70 59,66 59,56 55,52 53,52 51,50 51,49 48,49 48,50 47,51 46,51 45,52 43,52 42,51 42,49 43,48 45,48 46,47 52,47 53,46 53,43 50,43 49,44 45,44 44,45 43,44 43,39" stroke="black" stroke-width="1" /><polygon fill="none" id="2" points="38,58 39,59 39,63 40,64 38,66 37,66 36,67 35,67 34,66 34,63 36,61 36,60" stroke="black" stroke-width="1" /><polygon fill="none" id="3" points="44,55 45,54 46,54 47,55 46,56 46,57 44,59 44,60 43,61 42,60 42,56 43,55" stroke="black" stroke-width="1" /></svg>