<?xml version="1.0" encoding="utf-8" ?>
<svg baseProfile="full" height="100" version="1.1" width="100" xmlns="http://www.w3.org/2000/svg" xmlns:ev="http://www.w3.org/2001/xml-events" xmlns:xlink="http://www.w3.org/1999/xlink"><defs /><polygon fill="none" id="1" points="45,39 44,40 44,44 43,45 36,45 36,48 43,48 44,49 44,53 43,54 42,54 40,56 39,56 36,59 36,60 35,61 35,63 34,64 34,68 36,70 42,70 43,69 44,69 45,70 48,70 48,66 51,63 51,62 53,60 53,59 54,58 54,57 55,56 55,55 56,54 57,54 58,55 59,55 62,58 62,63 61,64 61,65 59,67 58,67 57,68 55,68 54,69 51,69 51,70 52,71 52,72 57,72 58,71 59,71 60,70 61,70 63,68 64,68 64,67 65,66 65,65 66,64 66,58 65,57 65,56 61,52 58,52 57,51 57,50 56,49 54,49 52,51 51,51 50,52 48,52 47,51 47,49 48,48 51,48 52,47 57,47 58,46 59,46 59,43 55,43 54,44 50,44 49,45 48,44 48,39" stroke="black" stroke-width="1" /><polygon fill="none" id="2" points="43,57 44,58 44,64 42,66 41,66 40,67 39,67 38,66 38,63 39,62 39,61" stroke="black" stroke-width="1" /><polygon fill="none" id="3" points="49,55 50,54 51,54 52,55 51,56 51,57 49,59 49,60 48,61 47,60 47,56 48,55" stroke="black" stroke-width="1" /></svg>