<?xml version="1.0" encoding="utf-8" ?>
<svg baseProfile="full" height="100" version="1.1" width="100" xmlns="http://www.w3.org/2000/svg" xmlns:ev="http://www.w3.org/2001/xml-events" xmlns:xlink="http://www.w3.org/1999/xlink"><defs /><polygon fill="none" id="1" points="49,39 49,44 48,45 40,45 40,48 47,48 48,49 48,53 46,55 45,55 44,56 43,56 39,60 39,61 38,62 38,69 39,69 40,70 46,70 47,69 48,69 49,70 53,70 53,68 52,67 57,62 57,61 59,59 59,58 60,57 60,55 61,54 63,54 64,55 65,55 68,58 68,63 67,64 67,65 65,67 64,67 63,68 61,68 60,69 56,69 56,70 57,71 57,72 63,72 64,71 65,71 66,70 67,70 68,69 69,69 71,67 71,66 72,65 72,64 73,63 73,59 72,58 72,56 70,54 69,54 67,52 64,52 62,50 62,49 59,49 59,50 58,51 57,51 56,52 52,52 51,51 52,50 52,49 53,48 56,48 57,47 63,47 64,46 65,46 65,43 61,43 60,44 55,44 54,45 53,45 52,44 53,43 53,39" stroke="black" stroke-width="1" /><polygon fill="none" id="2" points="46,58 47,58 48,59 48,65 47,66 46,66 45,67 43,67 41,65 42,64 42,63 43,62 43,61" stroke="black" stroke-width="1" /><polygon fill="none" id="3" points="54,55 55,54 56,54 57,55 56,56 56,57 54,59 54,60 52,62 51,61 51,56 52,55" stroke="black" stroke-width="1" /></svg>