<?xml version="1.0" encoding="utf-8" ?>
<svg baseProfile="full" height="100" version="1.1" width="100" xmlns="http://www.w3.org/2000/svg" xmlns:ev="http://www.w3.org/2001/xml-events" xmlns:xlink="http://www.w3.org/1999/xlink"><defs /><polygon fill="none" id="1" points="54,39 53,40 53,44 52,45 43,45 43,47 44,48 52,48 53,49 53,53 52,54 51,54 50,55 49,55 48,56 47,56 42,61 42,63 41,64 41,68 43,70 50,70 51,69 53,69 54,70 57,70 58,69 58,68 57,67 63,61 63,60 65,58 65,57 66,56 66,55 67,54 68,54 69,55 71,55 74,58 74,59 75,60 75,62 74,63 74,64 71,67 70,67 69,68 66,68 65,69 61,69 61,70 63,72 68,72 69,71 71,71 72,70 73,70 74,69 75,69 78,66 78,65 79,64 79,58 78,57 78,56 75,53 74,53 73,52 70,52 67,49 65,49 63,51 62,51 61,52 57,52 56,51 56,49 57,48 61,48 62,47 69,47 70,46 71,46 71,43 66,43 65,44 60,44 59,45 58,45 57,44 57,43 58,42 58,40 57,39" stroke="black" stroke-width="1" /><polygon fill="none" id="2" points="52,57 53,58 53,64 51,66 50,66 49,67 46,67 45,66 45,64 47,62 47,61 49,59 50,59" stroke="black" stroke-width="1" /><polygon fill="none" id="3" points="59,55 60,54 61,54 62,55 61,56 61,57 59,59 59,60 57,62 56,61 56,56 57,55" stroke="black" stroke-width="1" /></svg>