<?xml version="1.0" encoding="utf-8" ?>
<svg baseProfile="full" height="100" version="1.1" width="100" xmlns="http://www.w3.org/2000/svg" xmlns:ev="http://www.w3.org/2001/xml-events" xmlns:xlink="http://www.w3.org/1999/xlink"><defs /><polygon fill="none" id="1" points="37,40 36,41 36,45 35,46 30,46 30,47 35,47 36,48 36,54 33,57 32,57 32,58 30,60 30,61 29,62 29,64 28,65 28,66 29,67 29,68 30,69 32,69 33,68 36,68 37,69 37,65 40,62 40,61 41,60 41,59 42,58 42,56 43,55 43,54 44,53 46,53 47,54 48,54 50,56 50,57 51,58 51,63 50,64 50,66 48,68 47,68 46,69 45,69 44,70 42,70 43,71 45,71 46,70 47,70 50,67 50,66 51,65 51,64 52,63 52,59 51,58 51,57 50,56 50,55 48,53 46,53 44,51 44,50 44,51 43,52 42,52 41,53 37,53 36,52 36,48 37,47 39,47 40,46 45,46 46,45 46,44 45,44 44,45 41,45 40,46 38,46 37,45 37,42 38,41" stroke="black" stroke-width="1" /><polygon fill="none" id="2" points="34,56 35,56 36,57 36,66 35,67 34,67 33,68 30,68 29,67 29,63 30,62 30,61 31,60 31,59" stroke="black" stroke-width="1" /><polygon fill="none" id="3" points="38,54 39,53 42,53 43,54 43,55 42,56 42,57 41,58 41,60 40,61 40,62 39,63 37,63 36,62 36,55 37,54" stroke="black" stroke-width="1" /></svg>