<?xml version="1.0" encoding="utf-8" ?>
<svg baseProfile="full" height="100" version="1.1" width="100" xmlns="http://www.w3.org/2000/svg" xmlns:ev="http://www.w3.org/2001/xml-events" xmlns:xlink="http://www.w3.org/1999/xlink"><defs /><polygon fill="none" id="1" points="41,40 41,45 40,46 34,46 34,47 40,47 41,48 41,50 40,51 40,54 37,57 36,57 34,59 34,60 33,61 33,62 32,63 32,68 33,69 37,69 38,68 40,68 41,69 42,69 42,65 45,62 45,61 47,59 47,58 48,57 48,54 49,53 52,53 53,54 54,54 56,56 56,57 57,58 57,64 56,65 56,66 54,68 53,68 52,69 51,69 50,70 48,70 48,71 50,71 51,70 52,70 53,69 54,69 58,65 58,57 54,53 52,53 50,51 50,50 49,50 49,51 48,52 47,52 46,53 42,53 41,52 41,48 42,47 44,47 45,46 51,46 52,45 52,44 51,44 50,45 46,45 45,46 43,46 42,45 42,40" stroke="black" stroke-width="1" /><polygon fill="none" id="2" points="38,56 40,56 41,57 41,58 40,59 40,62 41,63 41,65 39,67 38,67 37,68 34,68 33,67 33,62 35,60 35,59" stroke="black" stroke-width="1" /><polygon fill="none" id="3" points="43,54 44,53 47,53 48,54 48,56 47,57 47,58 45,60 45,61 43,63 42,63 41,62 41,55 42,54" stroke="black" stroke-width="1" /></svg>