<?xml version="1.0" encoding="utf-8" ?>
<svg baseProfile="full" height="100" version="1.1" width="100" xmlns="http://www.w3.org/2000/svg" xmlns:ev="http://www.w3.org/2001/xml-events" xmlns:xlink="http://www.w3.org/1999/xlink"><defs /><polygon fill="none" id="1" points="50,40 50,45 49,46 41,46 41,47 48,47 49,48 49,54 47,56 46,56 45,57 44,57 40,61 40,62 39,63 39,68 40,68 41,69 45,69 46,68 47,68 48,67 49,67 50,68 50,69 52,69 51,68 51,66 56,61 56,60 58,58 58,57 59,56 59,54 60,53 64,53 65,54 66,54 69,57 69,64 68,65 68,66 66,68 65,68 64,69 62,69 61,70 58,70 58,71 62,71 63,70 64,70 65,69 66,69 67,68 68,68 70,66 70,65 71,64 71,63 72,62 72,60 71,59 71,57 69,55 68,55 66,53 63,53 61,51 61,50 60,50 60,51 59,52 58,52 57,53 51,53 50,52 50,50 51,49 51,48 52,47 55,47 56,46 62,46 63,45 64,45 64,44 62,44 61,45 56,45 55,46 52,46 51,45 51,43 52,42 52,40" stroke="black" stroke-width="1" /><polygon fill="none" id="2" points="46,57 47,56 48,56 49,57 49,66 48,67 47,67 46,68 42,68 40,66 40,64 41,63 41,62 42,61 42,60 45,57" stroke="black" stroke-width="1" /><polygon fill="none" id="3" points="53,54 54,53 57,53 58,54 58,56 57,57 57,58 55,60 55,61 53,63 51,63 50,62 50,55 51,54" stroke="black" stroke-width="1" /></svg>