<?xml version="1.0" encoding="utf-8" ?>
<svg baseProfile="full" height="100" version="1.1" width="100" xmlns="http://www.w3.org/2000/svg" xmlns:ev="http://www.w3.org/2001/xml-events" xmlns:xlink="http://www.w3.org/1999/xlink"><defs /><polygon fill="none" id="1" points="55,40 54,41 54,45 53,46 44,46 45,47 53,47 54,48 54,54 53,55 52,55 51,56 50,56 49,57 48,57 43,62 43,64 42,65 42,67 44,69 49,69 50,68 54,68 55,69 56,69 56,66 62,60 62,59 64,57 64,56 65,55 65,54 66,53 69,53 70,54 72,54 75,57 75,58 76,59 76,63 75,64 75,65 72,68 71,68 70,69 67,69 66,70 63,70 64,71 67,71 68,70 70,70 71,69 72,69 73,68 74,68 77,65 77,64 78,63 78,59 77,58 77,57 74,54 73,54 72,53 69,53 66,50 64,52 63,52 62,53 56,53 55,52 55,48 56,47 60,47 61,46 68,46 69,45 70,45 70,44 67,44 66,45 61,45 60,46 57,46 56,45 56,42 57,41 56,40" stroke="black" stroke-width="1" /><polygon fill="none" id="2" points="51,56 53,56 54,57 54,65 52,67 51,67 50,68 45,68 44,67 44,63 46,61 46,60 48,58 49,58" stroke="black" stroke-width="1" /><polygon fill="none" id="3" points="58,54 59,53 63,53 64,54 64,55 62,57 62,58 60,60 60,61 57,64 56,64 55,63 55,55 56,54" stroke="black" stroke-width="1" /></svg>