<?xml version="1.0" encoding="utf-8" ?>
<svg baseProfile="full" height="100" version="1.1" width="100" xmlns="http://www.w3.org/2000/svg" xmlns:ev="http://www.w3.org/2001/xml-events" xmlns:xlink="http://www.w3.org/1999/xlink"><defs /><polygon fill="none" id="1" points="35,38 34,39 34,43 33,44 28,44 28,48 33,48 34,49 34,52 31,55 30,55 30,56 28,58 28,59 27,60 27,62 26,63 26,67 27,68 27,69 28,70 33,70 34,69 35,70 38,70 38,66 41,63 41,62 42,61 42,60 43,59 43,57 45,55 46,55 48,57 48,58 49,59 49,61 48,62 48,64 46,66 45,66 44,67 43,67 42,68 40,68 40,71 41,72 46,72 47,71 48,71 51,68 51,67 52,66 52,65 53,64 53,57 52,56 52,55 51,54 51,53 49,51 47,51 45,49 45,48 47,46 47,42 43,42 42,43 40,43 39,42 39,39 38,38" stroke="black" stroke-width="1" /><polygon fill="none" id="2" points="32,60 33,59 34,60 34,64 33,65 32,65 31,66 30,65 30,64 31,63 31,62 32,61" stroke="black" stroke-width="1" /><polygon fill="none" id="3" points="37,56 38,55 39,56 39,58 38,59 37,58" stroke="black" stroke-width="1" /><polygon fill="none" id="4" points="40,48 41,47 42,48 42,49 41,50 40,50 39,51 38,51 37,50 37,49 38,48" stroke="black" stroke-width="1" /></svg>