<?xml version="1.0" encoding="utf-8" ?>
<svg baseProfile="full" height="100" version="1.1" width="100" xmlns="http://www.w3.org/2000/svg" xmlns:ev="http://www.w3.org/2001/xml-events" xmlns:xlink="http://www.w3.org/1999/xlink"><defs /><polygon fill="none" id="1" points="39,38 39,43 38,44 31,44 31,46 32,47 32,48 37,48 38,49 38,52 35,55 34,55 32,57 32,58 31,59 31,60 30,61 30,69 31,70 43,70 43,66 46,63 46,62 48,60 48,59 49,58 49,55 50,54 51,55 52,55 54,57 54,58 55,59 55,62 54,63 54,64 52,66 51,66 50,67 49,67 48,68 45,68 45,70 46,71 46,72 51,72 52,71 53,71 54,70 55,70 59,66 59,55 55,51 53,51 51,49 51,48 53,46 53,42 49,42 48,43 44,43 43,42 43,38" stroke="black" stroke-width="1" /><polygon fill="none" id="2" points="36,60 37,59 38,60 38,64 37,65 36,65 35,66 34,65 34,63 36,61" stroke="black" stroke-width="1" /><polygon fill="none" id="3" points="42,56 43,55 44,55 45,56 43,58 42,57" stroke="black" stroke-width="1" /><polygon fill="none" id="4" points="45,48 46,47 47,48 47,49 46,50 45,50 44,51 43,51 42,50 42,49 43,48" stroke="black" stroke-width="1" /></svg>