<?xml version="1.0" encoding="utf-8" ?>
<svg baseProfile="full" height="100" version="1.1" width="100" xmlns="http://www.w3.org/2000/svg" xmlns:ev="http://www.w3.org/2001/xml-events" xmlns:xlink="http://www.w3.org/1999/xlink"><defs /><polygon fill="none" id="1" points="44,38 43,39 43,43 42,44 35,44 35,48 42,48 43,49 43,52 42,53 41,53 39,55 38,55 35,58 35,59 34,60 34,62 33,63 33,68 35,70 42,70 43,69 44,70 48,70 48,66 51,63 51,62 53,60 53,59 54,58 54,57 55,56 55,55 56,54 57,55 58,55 61,58 61,62 60,63 60,64 58,66 57,66 56,67 54,67 53,68 50,68 50,70 51,71 51,72 57,72 58,71 59,71 60,70 61,70 63,68 64,68 64,67 65,66 65,65 66,64 66,57 65,56 65,55 61,51 58,51 57,50 57,49 56,48 58,46 59,46 59,42 54,42 53,43 49,43 48,42 48,38" stroke="black" stroke-width="1" /><polygon fill="none" id="2" points="42,58 43,59 43,63 41,65 40,65 39,66 38,65 38,63 39,62 39,61" stroke="black" stroke-width="1" /><polygon fill="none" id="3" points="47,56 48,55 49,55 50,56 48,58 47,57" stroke="black" stroke-width="1" /><polygon fill="none" id="4" points="47,49 48,48 51,48 52,49 51,50 50,50 49,51 48,51 47,50" stroke="black" stroke-width="1" /><polygon fill="none" id="5" points="51,48 52,47 53,48 52,49" stroke="black" stroke-width="1" /></svg>