<?xml version="1.0" encoding="utf-8" ?>
<svg baseProfile="full" height="100" version="1.1" width="100" xmlns="http://www.w3.org/2000/svg" xmlns:ev="http://www.w3.org/2001/xml-events" xmlns:xlink="http://www.w3.org/1999/xlink"><defs /><polygon fill="none" id="1" points="48,38 48,43 47,44 39,44 39,48 46,48 47,49 47,52 45,54 44,54 43,55 42,55 38,59 38,60 37,61 37,69 38,69 39,70 46,70 47,69 48,70 53,70 53,66 57,62 57,61 59,59 59,58 60,57 60,55 61,54 62,54 63,55 64,55 67,58 67,62 66,63 66,64 64,66 63,66 62,67 60,67 59,68 55,68 55,70 56,71 56,72 63,72 64,71 65,71 66,70 67,70 68,69 69,69 71,67 71,66 72,65 72,64 73,63 73,58 72,57 72,55 70,53 69,53 67,51 64,51 62,49 62,48 64,46 65,46 65,42 60,42 59,43 54,43 53,42 53,38" stroke="black" stroke-width="1" /><polygon fill="none" id="2" points="46,58 47,59 47,64 46,65 45,65 44,66 43,66 42,65 42,63 43,62 43,61" stroke="black" stroke-width="1" /><polygon fill="none" id="3" points="51,56 52,55 54,55 55,56 53,58 53,59 52,60 51,59" stroke="black" stroke-width="1" /><polygon fill="none" id="4" points="56,48 57,47 58,48 58,49 57,50 56,50 55,51 53,51 52,50 52,49 53,48" stroke="black" stroke-width="1" /></svg>