<?xml version="1.0" encoding="utf-8" ?>
<svg baseProfile="full" height="100" version="1.1" width="100" xmlns="http://www.w3.org/2000/svg" xmlns:ev="http://www.w3.org/2001/xml-events" xmlns:xlink="http://www.w3.org/1999/xlink"><defs /><polygon fill="none" id="1" points="53,38 52,39 52,43 51,44 42,44 42,47 43,48 51,48 52,49 52,52 51,53 50,53 49,54 48,54 47,55 46,55 41,60 41,62 40,63 40,68 42,70 50,70 51,69 52,69 53,70 57,70 58,69 58,66 63,61 63,60 65,58 65,57 66,56 66,55 67,54 68,55 70,55 73,58 73,59 74,60 74,61 73,62 73,63 70,66 69,66 68,67 65,67 64,68 60,68 60,70 62,72 68,72 69,71 71,71 72,70 73,70 74,69 75,69 78,66 78,65 79,64 79,57 78,56 78,55 75,52 74,52 73,51 70,51 67,48 68,47 69,47 70,46 71,46 71,42 65,42 64,43 59,43 58,42 58,39 57,38" stroke="black" stroke-width="1" /><polygon fill="none" id="2" points="50,59 51,58 52,59 52,63 50,65 49,65 48,66 46,66 45,65 45,64 47,62 47,61 49,59" stroke="black" stroke-width="1" /><polygon fill="none" id="3" points="56,56 57,55 59,55 60,56 58,58 58,59 57,60 56,59" stroke="black" stroke-width="1" /><polygon fill="none" id="4" points="61,48 62,47 63,47 64,48 62,50 61,50 60,51 57,51 56,50 56,49 57,48" stroke="black" stroke-width="1" /><polygon fill="none" id="5" points="57,43 58,42 59,43 58,44" stroke="black" stroke-width="1" /></svg>