<?xml version="1.0" encoding="utf-8" ?>
<svg baseProfile="full" height="100" version="1.1" width="100" xmlns="http://www.w3.org/2000/svg" xmlns:ev="http://www.w3.org/2001/xml-events" xmlns:xlink="http://www.w3.org/1999/xlink"><defs /><polygon fill="none" id="1" points="47,68 46,69 45,69 44,70 43,70 44,70 45,69 46,69" stroke="black" stroke-width="1" /><polygon fill="none" id="2" points="30,68 31,68" stroke="black" stroke-width="1" /><polygon fill="none" id="3" points="28,65" stroke="black" stroke-width="1" /><polygon fill="none" id="4" points="50,64" stroke="black" stroke-width="1" /><polygon fill="none" id="5" points="36,63 36,66 35,67 34,67 36,67 36,64 37,63" stroke="black" stroke-width="1" /><polygon fill="none" id="6" points="51,59 51,62" stroke="black" stroke-width="1" /><polygon fill="none" id="7" points="35,55" stroke="black" stroke-width="1" /><polygon fill="none" id="8" points="47,53" stroke="black" stroke-width="1" /><polygon fill="none" id="9" points="36,53 37,53" stroke="black" stroke-width="1" /><polygon fill="none" id="10" points="42,52 44,52" stroke="black" stroke-width="1" /><polygon fill="none" id="11" points="45,44 44,45 41,45 44,45" stroke="black" stroke-width="1" /><polygon fill="none" id="12" points="36,41 36,45 35,46 30,46 38,46 37,46 36,45" stroke="black" stroke-width="1" /></svg>