<?xml version="1.0" encoding="utf-8" ?>
<svg baseProfile="full" height="100" version="1.1" width="100" xmlns="http://www.w3.org/2000/svg" xmlns:ev="http://www.w3.org/2001/xml-events" xmlns:xlink="http://www.w3.org/1999/xlink"><defs /><polygon fill="none" id="1" points="48,70 49,70" stroke="black" stroke-width="1" /><polygon fill="none" id="2" points="51,69" stroke="black" stroke-width="1" /><polygon fill="none" id="3" points="53,68" stroke="black" stroke-width="1" /><polygon fill="none" id="4" points="41,63 41,65 39,67 38,67 40,67 41,68 41,64 42,63" stroke="black" stroke-width="1" /><polygon fill="none" id="5" points="32,63 32,67 33,68 36,68 33,68 32,67" stroke="black" stroke-width="1" /><polygon fill="none" id="6" points="40,59 40,61" stroke="black" stroke-width="1" /><polygon fill="none" id="7" points="34,59" stroke="black" stroke-width="1" /><polygon fill="none" id="8" points="56,56 57,57 57,64 56,65 57,64 57,57" stroke="black" stroke-width="1" /><polygon fill="none" id="9" points="53,53" stroke="black" stroke-width="1" /><polygon fill="none" id="10" points="40,51 40,54 39,55 40,55 40,54 41,53 42,53 41,53 40,52" stroke="black" stroke-width="1" /><polygon fill="none" id="11" points="49,50 49,51 48,52 47,52 50,52 49,51" stroke="black" stroke-width="1" /><polygon fill="none" id="12" points="51,44 50,45 46,45 50,45" stroke="black" stroke-width="1" /><polygon fill="none" id="13" points="41,40 41,45 40,46 34,46 43,46 42,46 41,45" stroke="black" stroke-width="1" /></svg>