<?xml version="1.0" encoding="utf-8" ?>
<svg baseProfile="full" height="100" version="1.1" width="100" xmlns="http://www.w3.org/2000/svg" xmlns:ev="http://www.w3.org/2001/xml-events" xmlns:xlink="http://www.w3.org/1999/xlink"><defs /><polygon fill="none" id="1" points="56,69 55,70 53,70 55,70 56,69 57,69" stroke="black" stroke-width="1" /><polygon fill="none" id="2" points="59,68" stroke="black" stroke-width="1" /><polygon fill="none" id="3" points="36,62 36,64 35,65 35,66 37,68 40,68 37,68 36,67" stroke="black" stroke-width="1" /><polygon fill="none" id="4" points="37,60" stroke="black" stroke-width="1" /><polygon fill="none" id="5" points="45,58 45,65 43,67 42,67 45,67 46,68 45,67 45,65 47,63 46,63 45,62" stroke="black" stroke-width="1" /><polygon fill="none" id="6" points="63,57 63,64 62,65 62,66 62,65 63,64 63,63 64,62 64,59 63,58" stroke="black" stroke-width="1" /><polygon fill="none" id="7" points="59,53" stroke="black" stroke-width="1" /><polygon fill="none" id="8" points="54,51 53,52 52,52 53,53 53,54 53,53 54,52 55,52 55,51" stroke="black" stroke-width="1" /><polygon fill="none" id="9" points="56,44 55,45 51,45 55,45 56,44 57,44" stroke="black" stroke-width="1" /><polygon fill="none" id="10" points="46,40 45,41 45,45 44,46 37,46 44,46 45,47 45,54 44,55 43,55 44,55 46,53 47,53 46,53 45,52 45,47 46,46 49,46 46,46 45,45 45,43 46,42" stroke="black" stroke-width="1" /></svg>