<?xml version="1.0" encoding="utf-8" ?>
<svg baseProfile="full" height="100" version="1.1" width="100" xmlns="http://www.w3.org/2000/svg" xmlns:ev="http://www.w3.org/2001/xml-events" xmlns:xlink="http://www.w3.org/1999/xlink"><defs /><polygon fill="none" id="1" points="62,69 61,70 58,70 61,70 62,69 63,69" stroke="black" stroke-width="1" /><polygon fill="none" id="2" points="65,68" stroke="black" stroke-width="1" /><polygon fill="none" id="3" points="55,60" stroke="black" stroke-width="1" /><polygon fill="none" id="4" points="41,60 40,61 40,62 39,63 39,67 40,67 41,68 44,68 41,68 39,66 39,63 40,62 40,61" stroke="black" stroke-width="1" /><polygon fill="none" id="5" points="57,57" stroke="black" stroke-width="1" /><polygon fill="none" id="6" points="68,55 69,56 69,64 68,65 68,66 67,67 69,65 69,64 70,63 70,62 71,61 71,60 70,59 70,57" stroke="black" stroke-width="1" /><polygon fill="none" id="7" points="65,53" stroke="black" stroke-width="1" /><polygon fill="none" id="8" points="60,50 60,51 59,52 58,52 58,55 58,53 59,52 61,52 60,51" stroke="black" stroke-width="1" /><polygon fill="none" id="9" points="62,44 61,45 56,45 61,45 62,44 63,44" stroke="black" stroke-width="1" /><polygon fill="none" id="10" points="50,40 50,45 49,46 41,46 48,46 49,47 49,54 48,55 49,56 49,66 50,67 50,68 50,65 52,63 50,63 49,62 49,54 50,53 52,53 50,53 49,52 49,49 50,48 50,47 51,46 54,46 51,46 50,45 50,42 51,41 51,40" stroke="black" stroke-width="1" /></svg>