<?xml version="1.0" encoding="utf-8" ?>
<svg baseProfile="full" height="100" version="1.1" width="100" xmlns="http://www.w3.org/2000/svg" xmlns:ev="http://www.w3.org/2001/xml-events" xmlns:xlink="http://www.w3.org/1999/xlink"><defs /><polygon fill="none" id="1" points="67,69 66,70 64,70 66,70 67,69 69,69" stroke="black" stroke-width="1" /><polygon fill="none" id="2" points="71,68" stroke="black" stroke-width="1" /><polygon fill="none" id="3" points="45,60 43,62 43,64 42,65 42,66 44,68 48,68 44,68 43,67 43,62" stroke="black" stroke-width="1" /><polygon fill="none" id="4" points="61,59 60,60" stroke="black" stroke-width="1" /><polygon fill="none" id="5" points="48,57" stroke="black" stroke-width="1" /><polygon fill="none" id="6" points="63,56 62,57" stroke="black" stroke-width="1" /><polygon fill="none" id="7" points="73,54 75,56 75,57 76,58 76,63 75,64 75,65 73,67 76,64 76,63 77,62 77,59 76,58 76,57" stroke="black" stroke-width="1" /><polygon fill="none" id="8" points="70,53 71,53" stroke="black" stroke-width="1" /><polygon fill="none" id="9" points="65,51 64,52 63,52 64,53 64,54 64,53 65,52 67,52 66,51" stroke="black" stroke-width="1" /><polygon fill="none" id="10" points="67,44 66,45 61,45 67,45 68,44 69,44" stroke="black" stroke-width="1" /><polygon fill="none" id="11" points="55,40 54,41 54,45 53,46 45,46 53,46 54,47 54,54 53,55 52,55 53,55 54,56 54,65 52,67 51,67 54,67 55,68 55,65 56,64 55,64 54,63 54,54 55,53 57,53 55,53 54,52 54,47 55,46 59,46 56,46 55,45" stroke="black" stroke-width="1" /></svg>