<?xml version="1.0" encoding="utf-8" ?>
<svg baseProfile="full" height="100" version="1.1" width="100" xmlns="http://www.w3.org/2000/svg" xmlns:ev="http://www.w3.org/2001/xml-events" xmlns:xlink="http://www.w3.org/1999/xlink"><defs /><polygon fill="none" id="1" points="62,48 61,49 60,49 65,54 65,55 66,56 66,57 67,58 67,59 68,60 68,61 69,62 69,64 70,64 71,63 72,63 73,62 72,61 72,60 71,59 71,58 69,56 69,55 68,54 68,53 65,50 65,49 64,48" stroke="black" stroke-width="1" /><polygon fill="none" id="2" points="39,46 39,54 40,55 40,60 41,61 41,63 42,64 42,66 44,68 44,69 45,70 46,70 47,71 50,71 51,70 52,70 52,69 54,67 54,66 55,65 55,63 53,61 53,62 52,63 52,64 49,67 47,67 45,65 45,64 44,63 44,61 43,60 43,54 42,53 42,46" stroke="black" stroke-width="1" /></svg>