<?xml version="1.0" encoding="utf-8" ?>
<svg baseProfile="full" height="100" version="1.1" width="100" xmlns="http://www.w3.org/2000/svg" xmlns:ev="http://www.w3.org/2001/xml-events" xmlns:xlink="http://www.w3.org/1999/xlink"><defs /><polygon fill="none" id="1" points="68,48 67,49 66,49 71,54 71,55 72,56 72,57 74,59 74,60 75,61 75,63 76,64 77,63 78,63 79,62 80,62 78,60 78,59 77,58 77,57 75,55 75,54 71,50 71,49 70,48" stroke="black" stroke-width="1" /><polygon fill="none" id="2" points="42,46 42,49 43,50 43,58 44,59 44,62 45,63 45,64 46,65 46,66 48,68 48,69 49,70 50,70 51,71 55,71 59,67 59,66 61,64 61,63 60,63 58,61 57,62 57,63 56,64 56,65 54,67 52,67 48,63 48,61 47,60 47,54 46,53 46,46" stroke="black" stroke-width="1" /></svg>