<?xml version="1.0" encoding="utf-8" ?>
<svg baseProfile="full" height="100" version="1.1" width="100" xmlns="http://www.w3.org/2000/svg" xmlns:ev="http://www.w3.org/2001/xml-events" xmlns:xlink="http://www.w3.org/1999/xlink"><defs /><polygon fill="none" id="1" points="45,48 44,49 45,50 45,51 46,52 46,53 47,54 47,55 48,56 48,57 49,58 49,60 50,61 50,64 51,64 53,62 52,61 52,59 51,58 51,57 50,56 50,55 49,54 49,52 47,50 47,49 46,48" stroke="black" stroke-width="1" /><polygon fill="none" id="2" points="28,46 28,52 29,53 29,61 30,62 30,65 31,66 31,67 32,68 32,69 34,71 36,71 38,69 38,68 39,67 39,66 40,65 40,63 38,61 38,64 37,65 37,66 36,67 34,67 33,66 33,65 32,64 32,61 31,60 31,51 30,50 30,48 31,47 31,46" stroke="black" stroke-width="1" /></svg>