<?xml version="1.0" encoding="utf-8" ?>
<svg baseProfile="full" height="100" version="1.1" width="100" xmlns="http://www.w3.org/2000/svg" xmlns:ev="http://www.w3.org/2001/xml-events" xmlns:xlink="http://www.w3.org/1999/xlink"><defs /><polygon fill="none" id="1" points="51,48 50,49 49,49 52,52 52,53 53,54 53,55 54,56 54,57 55,58 55,59 56,60 56,62 57,63 57,64 58,63 59,63 59,61 58,60 58,58 57,57 57,56 56,55 56,54 55,53 55,52 53,50 53,49 52,48" stroke="black" stroke-width="1" /><polygon fill="none" id="2" points="32,46 32,57 33,58 33,62 34,63 34,65 35,66 35,67 36,68 36,69 38,71 41,71 43,69 43,68 44,67 44,66 45,65 45,63 43,61 43,63 42,64 42,65 40,67 39,67 37,65 37,64 36,63 36,61 35,60 35,53 34,52 34,46" stroke="black" stroke-width="1" /></svg>