<?xml version="1.0" encoding="utf-8" ?>
<svg baseProfile="full" height="100" version="1.1" width="100" xmlns="http://www.w3.org/2000/svg" xmlns:ev="http://www.w3.org/2001/xml-events" xmlns:xlink="http://www.w3.org/1999/xlink"><defs /><polygon fill="none" id="1" points="56,48 55,49 57,51 57,52 59,54 59,55 60,56 60,57 61,58 61,59 62,60 62,61 63,62 63,64 64,63 65,63 66,62 65,61 65,59 64,58 64,57 63,56 63,55 61,53 61,52 59,50 59,49 58,48" stroke="black" stroke-width="1" /><polygon fill="none" id="2" points="35,46 35,49 36,50 36,59 37,60 37,63 38,64 38,65 39,66 39,67 40,68 40,69 42,71 45,71 46,70 47,70 48,69 48,68 49,67 49,66 50,65 50,63 48,61 48,62 47,63 47,64 46,65 46,66 45,67 43,67 41,65 41,64 40,63 40,61 39,60 39,54 38,53 38,46" stroke="black" stroke-width="1" /></svg>