<?xml version="1.0" encoding="utf-8" ?>
<svg baseProfile="full" height="100" version="1.1" width="100" xmlns="http://www.w3.org/2000/svg" xmlns:ev="http://www.w3.org/2001/xml-events" xmlns:xlink="http://www.w3.org/1999/xlink"><defs /><polygon fill="none" id="1" points="45,48 44,49 44,50 45,51 45,52 46,53 46,54 47,55 47,56 48,57 48,58 49,59 49,61 50,62 50,65 52,65 54,63 54,62 53,61 53,59 52,58 52,57 51,56 51,55 50,54 50,52 48,50 48,49 47,48" stroke="black" stroke-width="1" /><polygon fill="none" id="2" points="28,46 28,53 29,54 29,62 30,63 30,66 31,67 31,68 32,69 32,70 34,72 37,72 39,70 39,69 40,68 40,67 41,66 41,63 39,61 38,61 38,64 37,65 37,66 36,67 35,67 34,66 34,65 33,64 33,61 32,60 32,51 31,50 31,49 32,48 32,46" stroke="black" stroke-width="1" /></svg>