<?xml version="1.0" encoding="utf-8" ?>
<svg baseProfile="full" height="100" version="1.1" width="100" xmlns="http://www.w3.org/2000/svg" xmlns:ev="http://www.w3.org/2001/xml-events" xmlns:xlink="http://www.w3.org/1999/xlink"><defs /><polygon fill="none" id="1" points="51,48 50,49 49,49 49,50 52,53 52,54 53,55 53,56 54,57 54,58 55,59 55,60 56,61 56,63 57,64 57,65 58,65 59,64 60,64 60,61 59,60 59,58 58,57 58,56 57,55 57,54 56,53 56,52 54,50 54,49 53,48" stroke="black" stroke-width="1" /><polygon fill="none" id="2" points="32,46 32,58 33,59 33,63 34,64 34,66 35,67 35,68 36,69 36,70 38,72 42,72 44,70 44,69 45,68 45,67 46,66 46,63 44,61 43,61 43,63 42,64 42,65 40,67 38,65 38,64 37,63 37,61 36,60 36,53 35,52 35,46" stroke="black" stroke-width="1" /></svg>