<?xml version="1.0" encoding="utf-8" ?>
<svg baseProfile="full" height="100" version="1.1" width="100" xmlns="http://www.w3.org/2000/svg" xmlns:ev="http://www.w3.org/2001/xml-events" xmlns:xlink="http://www.w3.org/1999/xlink"><defs /><polygon fill="none" id="1" points="56,48 55,49 55,50 57,52 57,53 59,55 59,56 60,57 60,58 61,59 61,60 62,61 62,62 63,63 63,65 64,65 65,64 66,64 67,63 67,62 66,61 66,59 65,58 65,57 64,56 64,55 62,53 62,52 60,50 60,49 59,48" stroke="black" stroke-width="1" /><polygon fill="none" id="2" points="35,46 35,50 36,51 36,60 37,61 37,64 38,65 38,66 39,67 39,68 40,69 40,70 42,72 46,72 47,71 48,71 49,70 49,69 50,68 50,67 51,66 51,63 49,61 48,61 48,62 47,63 47,64 46,65 46,66 45,67 44,67 42,65 42,64 41,63 41,61 40,60 40,54 39,53 39,46" stroke="black" stroke-width="1" /></svg>