<?xml version="1.0" encoding="utf-8" ?>
<svg baseProfile="full" height="100" version="1.1" width="100" xmlns="http://www.w3.org/2000/svg" xmlns:ev="http://www.w3.org/2001/xml-events" xmlns:xlink="http://www.w3.org/1999/xlink"><defs /><polygon fill="none" id="1" points="62,48 61,49 60,49 60,50 65,55 65,56 66,57 66,58 67,59 67,60 68,61 68,62 69,63 69,65 71,65 72,64 73,64 74,63 74,62 73,61 73,60 72,59 72,58 70,56 70,55 69,54 69,53 66,50 66,49 65,48" stroke="black" stroke-width="1" /><polygon fill="none" id="2" points="39,46 39,55 40,56 40,61 41,62 41,64 42,65 42,67 44,69 44,70 45,71 46,71 47,72 51,72 52,71 53,71 53,70 55,68 55,67 56,66 56,63 54,61 53,61 53,62 52,63 52,64 49,67 48,67 46,65 46,64 45,63 45,61 44,60 44,54 43,53 43,46" stroke="black" stroke-width="1" /></svg>