<?xml version="1.0" encoding="utf-8" ?>
<svg baseProfile="full" height="100" version="1.1" width="100" xmlns="http://www.w3.org/2000/svg" xmlns:ev="http://www.w3.org/2001/xml-events" xmlns:xlink="http://www.w3.org/1999/xlink"><defs /><polygon fill="none" id="1" points="68,48 67,49 66,49 66,50 71,55 71,56 72,57 72,58 74,60 74,61 75,62 75,64 76,65 77,65 78,64 79,64 80,63 81,63 81,62 79,60 79,59 78,58 78,57 76,55 76,54 72,50 72,49 71,48" stroke="black" stroke-width="1" /><polygon fill="none" id="2" points="42,46 42,50 43,51 43,59 44,60 44,63 45,64 45,65 46,66 46,67 48,69 48,70 49,71 50,71 51,72 56,72 60,68 60,67 62,65 62,63 61,63 59,61 58,61 57,62 57,63 56,64 56,65 54,67 53,67 49,63 49,61 48,60 48,54 47,53 47,46" stroke="black" stroke-width="1" /></svg>