<?xml version="1.0" encoding="utf-8" ?>
<svg baseProfile="full" height="100" version="1.1" width="100" xmlns="http://www.w3.org/2000/svg" xmlns:ev="http://www.w3.org/2001/xml-events" xmlns:xlink="http://www.w3.org/1999/xlink"><defs /><polygon fill="none" id="1" points="46,49 46,51 47,52 47,53 48,54 48,55 49,56 49,57 50,58 50,60 51,61 51,64 52,63 52,60 51,59 51,58 50,57 50,56 49,55 49,53 47,51 47,50" stroke="black" stroke-width="1" /><polygon fill="none" id="2" points="29,47 29,52 30,53 30,61 31,62 31,65 32,66 32,67 33,68 33,69 35,71 36,71 38,69 38,68 39,67 39,66 40,65 40,64 39,63 39,65 38,66 38,67 37,68 34,68 33,67 33,66 32,65 32,62 31,61 31,52 30,51 30,48 31,47" stroke="black" stroke-width="1" /></svg>