<?xml version="1.0" encoding="utf-8" ?>
<svg baseProfile="full" height="100" version="1.1" width="100" xmlns="http://www.w3.org/2000/svg" xmlns:ev="http://www.w3.org/2001/xml-events" xmlns:xlink="http://www.w3.org/1999/xlink"><defs /><polygon fill="none" id="1" points="52,49 51,50 53,52 53,53 54,54 54,55 55,56 55,57 56,58 56,59 57,60 57,62 58,63 59,63 59,62 58,61 58,59 57,58 57,57 56,56 56,55 55,54 55,53 53,51 53,50" stroke="black" stroke-width="1" /><polygon fill="none" id="2" points="33,47 33,57 34,58 34,62 35,63 35,65 36,66 36,67 37,68 37,69 39,71 41,71 43,69 43,68 44,67 44,66 45,65 45,64 44,63 44,64 43,65 43,66 41,68 39,68 37,66 37,65 36,64 36,62 35,61 35,54 34,53 34,47" stroke="black" stroke-width="1" /></svg>