<?xml version="1.0" encoding="utf-8" ?>
<svg baseProfile="full" height="100" version="1.1" width="100" xmlns="http://www.w3.org/2000/svg" xmlns:ev="http://www.w3.org/2001/xml-events" xmlns:xlink="http://www.w3.org/1999/xlink"><defs /><polygon fill="none" id="1" points="57,49 57,50 58,51 58,52 60,54 60,55 61,56 61,57 62,58 62,59 63,60 63,61 64,62 64,63 65,63 65,60 64,59 64,58 63,57 63,56 61,54 61,53 59,51 59,50 58,49" stroke="black" stroke-width="1" /><polygon fill="none" id="2" points="36,47 36,49 37,50 37,59 38,60 38,63 39,64 39,65 40,66 40,67 41,68 41,69 43,71 45,71 46,70 47,70 48,69 48,68 49,67 49,66 50,65 50,64 49,63 48,64 48,65 47,66 47,67 46,68 43,68 41,66 41,65 40,64 40,62 39,61 39,55 38,54 38,47" stroke="black" stroke-width="1" /></svg>