<?xml version="1.0" encoding="utf-8" ?>
<svg baseProfile="full" height="100" version="1.1" width="100" xmlns="http://www.w3.org/2000/svg" xmlns:ev="http://www.w3.org/2001/xml-events" xmlns:xlink="http://www.w3.org/1999/xlink"><defs /><polygon fill="none" id="1" points="63,49 62,50 66,54 66,55 67,56 67,57 68,58 68,59 69,60 69,61 70,62 70,64 71,63 72,63 72,61 71,60 71,59 69,57 69,56 68,55 68,54 65,51 65,50 64,49" stroke="black" stroke-width="1" /><polygon fill="none" id="2" points="40,47 40,54 41,55 41,60 42,61 42,63 43,64 43,66 45,68 45,69 46,70 47,70 48,71 50,71 51,70 52,70 52,69 54,67 54,66 55,65 55,64 54,63 53,64 53,65 50,68 47,68 45,66 45,65 44,64 44,62 43,61 43,55 42,54 42,47" stroke="black" stroke-width="1" /></svg>