<?xml version="1.0" encoding="utf-8" ?>
<svg baseProfile="full" height="100" version="1.1" width="100" xmlns="http://www.w3.org/2000/svg" xmlns:ev="http://www.w3.org/2001/xml-events" xmlns:xlink="http://www.w3.org/1999/xlink"><defs /><polygon fill="none" id="1" points="42,30 42,36 40,38 35,38 34,37 31,37 31,40 32,41 32,42 40,42 41,43 41,48 40,49 39,49 38,50 37,50 31,56 31,57 30,58 30,60 29,61 29,67 30,68 30,69 31,70 38,70 39,69 40,69 41,68 43,70 45,70 46,69 47,69 47,64 51,60 51,59 53,57 53,56 54,55 54,54 55,53 55,52 56,51 56,50 57,49 58,50 59,50 60,51 61,51 63,53 63,54 64,55 64,56 65,57 65,58 64,59 64,60 63,61 63,62 60,65 59,65 58,66 57,66 56,67 51,67 51,71 52,72 57,72 58,71 60,71 61,70 62,70 63,69 64,69 68,65 68,64 69,63 69,61 70,60 70,55 69,54 69,52 68,51 68,50 65,47 64,47 63,46 61,46 60,45 59,45 58,44 58,42 53,42 52,41 53,40 57,40 58,39 61,39 61,34 58,34 57,35 54,35 53,36 48,36 47,35 47,30" stroke="black" stroke-width="1" /><polygon fill="none" id="2" points="40,55 41,56 41,62 38,65 37,65 36,66 35,66 34,65 34,63 35,62 35,61 36,60 36,59" stroke="black" stroke-width="1" /><polygon fill="none" id="3" points="46,51 47,50 49,50 50,51 50,52 48,54 48,55 47,56 46,55" stroke="black" stroke-width="1" /><polygon fill="none" id="4" points="49,50 50,49 51,50 50,51" stroke="black" stroke-width="1" /><polygon fill="none" id="5" points="46,42 47,41 52,41 53,42 53,44 52,45 49,45 48,46 47,46 46,45" stroke="black" stroke-width="1" /></svg>