<?xml version="1.0" encoding="utf-8" ?>
<svg baseProfile="full" height="100" version="1.1" width="100" xmlns="http://www.w3.org/2000/svg" xmlns:ev="http://www.w3.org/2001/xml-events" xmlns:xlink="http://www.w3.org/1999/xlink"><defs /><polygon fill="none" id="1" points="66,32 55,43 54,43 51,46 50,46 47,49 46,49 45,50 50,55 51,55 56,60 57,60 68,71 70,69 64,63 63,63 58,58 57,58 54,55 53,55 51,53 50,53 48,51 48,50 50,48 51,48 54,45 55,45 57,43 58,43 68,33 69,33 68,33 67,32" stroke="black" stroke-width="1" /></svg>