<?xml version="1.0" encoding="utf-8" ?>
<svg baseProfile="full" height="100" version="1.1" width="100" xmlns="http://www.w3.org/2000/svg" xmlns:ev="http://www.w3.org/2001/xml-events" xmlns:xlink="http://www.w3.org/1999/xlink"><defs /><polygon fill="none" id="1" points="69,49 68,50 72,54 72,55 73,56 73,57 75,59 75,60 76,61 76,63 78,63 79,62 78,61 78,60 77,59 77,58 75,56 75,55 71,51 71,50 70,49" stroke="black" stroke-width="1" /><polygon fill="none" id="2" points="43,47 43,49 44,50 44,58 45,59 45,62 46,63 46,64 47,65 47,66 49,68 49,69 50,70 51,70 52,71 55,71 59,67 59,66 61,64 60,64 59,63 58,63 58,64 57,65 57,66 55,68 52,68 48,64 48,62 47,61 47,55 46,54 46,47" stroke="black" stroke-width="1" /></svg>