<?xml version="1.0" encoding="utf-8" ?>
<svg baseProfile="full" height="100" version="1.1" width="100" xmlns="http://www.w3.org/2000/svg" xmlns:ev="http://www.w3.org/2001/xml-events" xmlns:xlink="http://www.w3.org/1999/xlink"><defs /><polygon fill="none" id="1" points="44,47 43,48 43,50 44,51 44,52 45,53 45,54 46,55 46,56 47,57 47,58 48,59 48,61 49,62 49,65 52,65 54,63 54,61 53,60 53,58 52,57 52,56 51,55 51,54 50,53 50,51 48,49 48,48 47,47" stroke="black" stroke-width="1" /><polygon fill="none" id="2" points="27,45 27,53 28,54 28,62 29,63 29,66 30,67 30,68 31,69 31,70 33,72 37,72 39,70 39,69 40,68 40,67 41,66 41,62 39,60 37,60 37,63 36,64 36,65 35,66 34,65 34,64 33,63 33,60 32,59 32,50 31,49 32,48 32,45" stroke="black" stroke-width="1" /></svg>