<?xml version="1.0" encoding="utf-8" ?>
<svg baseProfile="full" height="100" version="1.1" width="100" xmlns="http://www.w3.org/2000/svg" xmlns:ev="http://www.w3.org/2001/xml-events" xmlns:xlink="http://www.w3.org/1999/xlink"><defs /><polygon fill="none" id="1" points="50,47 49,48 48,48 48,50 51,53 51,54 52,55 52,56 53,57 53,58 54,59 54,60 55,61 55,63 56,64 56,65 58,65 59,64 60,64 60,60 59,59 59,57 58,56 58,55 57,54 57,53 56,52 56,51 54,49 54,48 53,47" stroke="black" stroke-width="1" /><polygon fill="none" id="2" points="31,45 31,58 32,59 32,63 33,64 33,66 34,67 34,68 35,69 35,70 37,72 42,72 44,70 44,69 45,68 45,67 46,66 46,62 44,60 42,60 42,62 41,63 41,64 40,65 39,65 38,64 38,63 37,62 37,60 36,59 36,52 35,51 35,45" stroke="black" stroke-width="1" /></svg>