<?xml version="1.0" encoding="utf-8" ?>
<svg baseProfile="full" height="100" version="1.1" width="100" xmlns="http://www.w3.org/2000/svg" xmlns:ev="http://www.w3.org/2001/xml-events" xmlns:xlink="http://www.w3.org/1999/xlink"><defs /><polygon fill="none" id="1" points="55,47 54,48 54,50 56,52 56,53 58,55 58,56 59,57 59,58 60,59 60,60 61,61 61,62 62,63 62,65 64,65 65,64 66,64 67,63 67,61 66,60 66,58 65,57 65,56 64,55 64,54 62,52 62,51 60,49 60,48 59,47" stroke="black" stroke-width="1" /><polygon fill="none" id="2" points="34,45 34,50 35,51 35,60 36,61 36,64 37,65 37,66 38,67 38,68 39,69 39,70 41,72 46,72 47,71 48,71 49,70 49,69 50,68 50,67 51,66 51,62 49,60 47,60 47,61 46,62 46,63 45,64 45,65 44,66 42,64 42,63 41,62 41,60 40,59 40,53 39,52 39,45" stroke="black" stroke-width="1" /></svg>