<?xml version="1.0" encoding="utf-8" ?>
<svg baseProfile="full" height="100" version="1.1" width="100" xmlns="http://www.w3.org/2000/svg" xmlns:ev="http://www.w3.org/2001/xml-events" xmlns:xlink="http://www.w3.org/1999/xlink"><defs /><polygon fill="none" id="1" points="61,47 60,48 59,48 59,50 64,55 64,56 65,57 65,58 66,59 66,60 67,61 67,62 68,63 68,65 71,65 72,64 73,64 74,63 74,61 73,60 73,59 72,58 72,57 70,55 70,54 69,53 69,52 66,49 66,48 65,47" stroke="black" stroke-width="1" /><polygon fill="none" id="2" points="38,45 38,55 39,56 39,61 40,62 40,64 41,65 41,67 43,69 43,70 44,71 45,71 46,72 51,72 52,71 53,71 53,70 55,68 55,67 56,66 56,62 54,60 52,60 52,61 51,62 51,63 48,66 46,64 46,63 45,62 45,60 44,59 44,53 43,52 43,45" stroke="black" stroke-width="1" /></svg>