<?xml version="1.0" encoding="utf-8" ?>
<svg baseProfile="full" height="100" version="1.1" width="100" xmlns="http://www.w3.org/2000/svg" xmlns:ev="http://www.w3.org/2001/xml-events" xmlns:xlink="http://www.w3.org/1999/xlink"><defs /><polygon fill="none" id="1" points="67,47 66,48 65,48 65,50 70,55 70,56 71,57 71,58 73,60 73,61 74,62 74,64 75,65 77,65 78,64 79,64 80,63 81,63 81,61 79,59 79,58 78,57 78,56 76,54 76,53 72,49 72,48 71,47" stroke="black" stroke-width="1" /><polygon fill="none" id="2" points="41,45 41,50 42,51 42,59 43,60 43,63 44,64 44,65 45,66 45,67 47,69 47,70 48,71 49,71 50,72 56,72 60,68 60,67 62,65 62,62 61,62 59,60 57,60 56,61 56,62 55,63 55,64 53,66 49,62 49,60 48,59 48,53 47,52 47,45" stroke="black" stroke-width="1" /></svg>