<?xml version="1.0" encoding="utf-8" ?>
<svg baseProfile="full" height="100" version="1.1" width="100" xmlns="http://www.w3.org/2000/svg" xmlns:ev="http://www.w3.org/2001/xml-events" xmlns:xlink="http://www.w3.org/1999/xlink"><defs /><polygon fill="none" id="1" points="53,52 54,53 54,54 55,55 55,56 56,57 56,58 57,59 57,61 58,62 57,61 57,59 56,58 56,57 55,56 55,55 54,54 54,53" stroke="black" stroke-width="1" /><polygon fill="none" id="2" points="52,50" stroke="black" stroke-width="1" /><polygon fill="none" id="3" points="33,47 33,56 34,57 34,61 35,62 35,64 36,65 36,66 37,67 37,68 39,70 40,70 42,68 42,67 43,66 43,65 44,64 43,65 43,66 41,68 38,68 36,66 36,65 35,64 35,62 34,61 34,54 33,53" stroke="black" stroke-width="1" /></svg>