<?xml version="1.0" encoding="utf-8" ?>
<svg baseProfile="full" height="100" version="1.1" width="100" xmlns="http://www.w3.org/2000/svg" xmlns:ev="http://www.w3.org/2001/xml-events" xmlns:xlink="http://www.w3.org/1999/xlink"><defs /><polygon fill="none" id="1" points="57,49 58,50 58,51 60,53 60,54 61,55 61,56 62,57 62,58 63,59 63,60 64,61 64,62 64,60 63,59 63,58 62,57 62,56 60,54 60,53 58,51 58,50" stroke="black" stroke-width="1" /><polygon fill="none" id="2" points="36,47 36,48 37,49 37,58 38,59 38,62 39,63 39,64 40,65 40,66 41,67 41,68 43,70 44,70 45,69 46,69 47,68 47,67 48,66 48,65 49,64 48,64 48,65 47,66 47,67 46,68 42,68 40,66 40,65 39,64 39,62 38,61 38,55 37,54 37,47" stroke="black" stroke-width="1" /></svg>