<?xml version="1.0" encoding="utf-8" ?>
<svg baseProfile="full" height="100" version="1.1" width="100" xmlns="http://www.w3.org/2000/svg" xmlns:ev="http://www.w3.org/2001/xml-events" xmlns:xlink="http://www.w3.org/1999/xlink"><defs /><polygon fill="none" id="1" points="63,49 63,50 66,53 66,54 67,55 67,56 68,57 68,58 69,59 69,60 70,61 70,62 71,62 71,61 70,60 70,59 68,57 68,56 67,55 67,54 64,51 64,50" stroke="black" stroke-width="1" /><polygon fill="none" id="2" points="40,47 40,53 41,54 41,59 42,60 42,62 43,63 43,65 45,67 45,68 46,69 47,69 48,70 49,70 50,69 51,69 51,68 53,66 53,65 54,64 53,64 53,65 50,68 46,68 44,66 44,65 43,64 43,62 42,61 42,55 41,54 41,47" stroke="black" stroke-width="1" /></svg>