<?xml version="1.0" encoding="utf-8" ?>
<svg baseProfile="full" height="100" version="1.1" width="100" xmlns="http://www.w3.org/2000/svg" xmlns:ev="http://www.w3.org/2001/xml-events" xmlns:xlink="http://www.w3.org/1999/xlink"><defs /><polygon fill="none" id="1" points="42,29 42,30 41,31 41,32 40,33 40,34 38,36 38,37 35,40 35,41 29,47 29,48 28,49 28,51 29,52 29,53 34,58 34,59 37,62 37,63 40,66 40,67 42,69 42,70 43,71 43,72 46,72 48,70 48,68 47,67 47,66 44,63 44,62 41,59 41,58 36,53 36,52 34,50 34,49 42,41 42,40 44,38 44,37 46,35 46,34 47,33 47,31 45,29" stroke="black" stroke-width="1" /></svg>