<?xml version="1.0" encoding="utf-8" ?>
<svg baseProfile="full" height="100" version="1.1" width="100" xmlns="http://www.w3.org/2000/svg" xmlns:ev="http://www.w3.org/2001/xml-events" xmlns:xlink="http://www.w3.org/1999/xlink"><defs /><polygon fill="none" id="1" points="69,49 69,50 72,53 72,54 73,55 73,56 75,58 75,59 76,60 76,62 77,62 77,60 76,59 76,58 74,56 74,55 70,51 70,50" stroke="black" stroke-width="1" /><polygon fill="none" id="2" points="43,47 43,48 44,49 44,57 45,58 45,61 46,62 46,63 47,64 47,65 49,67 49,68 50,69 51,69 52,70 54,70 58,66 58,65 59,64 58,63 58,64 57,65 57,66 55,68 51,68 47,64 47,62 46,61 46,55 45,54 45,47" stroke="black" stroke-width="1" /></svg>