<?xml version="1.0" encoding="utf-8" ?>
<svg baseProfile="full" height="100" version="1.1" width="100" xmlns="http://www.w3.org/2000/svg" xmlns:ev="http://www.w3.org/2001/xml-events" xmlns:xlink="http://www.w3.org/1999/xlink"><defs /><polygon fill="none" id="1" points="38,47 37,48 35,48 34,49 33,49 32,50 30,50 30,52 31,53 32,53 34,51 35,51 36,50 38,50 39,49 43,49 45,51 45,53 46,54 46,57 45,58 45,61 44,62 44,63 39,68 38,68 37,69 35,69 35,70 36,71 36,72 37,72 38,71 39,71 40,70 41,70 45,66 45,65 46,64 46,63 47,62 47,59 48,58 48,53 47,52 47,50 44,47" stroke="black" stroke-width="1" /><polygon fill="none" id="2" points="36,37 36,38 35,39 35,40 36,40 37,41 39,41 40,42 41,42 43,44 44,44 44,43 45,42 45,41 44,41 43,40 42,40 41,39 40,39 39,38 37,38" stroke="black" stroke-width="1" /></svg>