<?xml version="1.0" encoding="utf-8" ?>
<svg baseProfile="full" height="100" version="1.1" width="100" xmlns="http://www.w3.org/2000/svg" xmlns:ev="http://www.w3.org/2001/xml-events" xmlns:xlink="http://www.w3.org/1999/xlink"><defs /><polygon fill="none" id="1" points="43,47 42,48 40,48 39,49 37,49 36,50 34,50 34,52 35,53 36,53 37,52 38,52 39,51 40,51 41,50 43,50 44,49 48,49 51,52 51,60 50,61 50,62 44,68 43,68 42,69 40,69 39,70 41,72 42,72 43,71 44,71 45,70 46,70 48,68 49,68 49,67 52,64 52,63 53,62 53,60 54,59 54,53 53,52 53,50 51,48 50,48 49,47" stroke="black" stroke-width="1" /><polygon fill="none" id="2" points="41,37 40,38 40,39 39,40 41,40 42,41 44,41 45,42 46,42 47,43 48,43 49,44 50,43 50,41 49,41 48,40 47,40 46,39 45,39 44,38 42,38" stroke="black" stroke-width="1" /></svg>