<?xml version="1.0" encoding="utf-8" ?>
<svg baseProfile="full" height="100" version="1.1" width="100" xmlns="http://www.w3.org/2000/svg" xmlns:ev="http://www.w3.org/2001/xml-events" xmlns:xlink="http://www.w3.org/1999/xlink"><defs /><polygon fill="none" id="1" points="53,47 52,48 48,48 47,49 45,49 44,50 42,50 41,51 42,52 42,53 44,53 45,52 46,52 47,51 49,51 50,50 53,50 54,49 59,49 60,50 61,50 62,51 62,52 63,53 63,58 62,59 62,60 61,61 61,62 56,67 55,67 54,68 53,68 52,69 48,69 48,70 50,72 51,72 52,71 54,71 55,70 56,70 57,69 58,69 60,67 61,67 63,65 63,64 65,62 65,60 66,59 66,53 65,52 65,51 64,50 64,49 63,48 61,48 60,47" stroke="black" stroke-width="1" /><polygon fill="none" id="2" points="50,37 49,38 49,39 48,40 51,40 52,41 54,41 55,42 57,42 58,43 59,43 60,44 61,44 61,43 62,42 62,41 60,41 59,40 57,40 56,39 54,39 53,38 51,38" stroke="black" stroke-width="1" /></svg>