<?xml version="1.0" encoding="utf-8" ?>
<svg baseProfile="full" height="100" version="1.1" width="100" xmlns="http://www.w3.org/2000/svg" xmlns:ev="http://www.w3.org/2001/xml-events" xmlns:xlink="http://www.w3.org/1999/xlink"><defs /><polygon fill="none" id="1" points="57,47 56,48 53,48 52,49 49,49 48,50 45,50 45,52 46,53 48,53 49,52 50,52 51,51 54,51 55,50 58,50 59,49 65,49 68,52 68,59 67,60 67,61 65,63 65,64 64,65 63,65 61,67 60,67 59,68 57,68 56,69 53,69 53,70 54,71 54,72 56,72 57,71 59,71 60,70 62,70 63,69 64,69 71,62 71,60 72,59 72,53 71,52 71,51 70,50 70,49 69,49 68,48 67,48 66,47" stroke="black" stroke-width="1" /><polygon fill="none" id="2" points="55,37 53,39 53,40 55,40 56,41 59,41 60,42 62,42 63,43 64,43 65,44 66,44 68,42 67,41 66,41 65,40 63,40 62,39 59,39 58,38 56,38" stroke="black" stroke-width="1" /></svg>