<?xml version="1.0" encoding="utf-8" ?>
<svg baseProfile="full" height="100" version="1.1" width="100" xmlns="http://www.w3.org/2000/svg" xmlns:ev="http://www.w3.org/2001/xml-events" xmlns:xlink="http://www.w3.org/1999/xlink"><defs /><polygon fill="none" id="1" points="48,47 47,48 44,48 43,49 41,49 40,50 38,50 38,52 39,53 40,53 41,52 42,52 43,51 45,51 46,50 48,50 49,49 54,49 56,51 56,52 57,53 57,59 56,60 56,61 55,62 55,63 51,67 50,67 49,68 48,68 47,69 44,69 44,70 45,71 45,72 47,72 48,71 49,71 50,70 51,70 52,69 53,69 57,65 57,64 59,62 59,60 60,59 60,53 59,52 59,51 58,50 58,49 57,48 56,48 55,47" stroke="black" stroke-width="1" /><polygon fill="none" id="2" points="46,37 44,39 44,40 46,40 47,41 49,41 50,42 51,42 52,43 53,43 54,44 55,44 55,43 56,42 56,41 55,41 54,40 52,40 51,39 49,39 48,38 47,38" stroke="black" stroke-width="1" /></svg>