<?xml version="1.0" encoding="utf-8" ?>
<svg baseProfile="full" height="100" version="1.1" width="100" xmlns="http://www.w3.org/2000/svg" xmlns:ev="http://www.w3.org/2001/xml-events" xmlns:xlink="http://www.w3.org/1999/xlink"><defs /><polygon fill="none" id="1" points="38,47 37,48 35,48 34,49 33,49 32,50 30,50 30,53 31,54 33,54 35,52 36,52 37,51 39,51 40,50 43,50 45,52 45,54 46,55 46,57 45,58 45,61 44,62 44,63 39,68 38,68 37,69 35,69 35,71 36,72 36,73 38,73 39,72 40,72 41,71 42,71 46,67 46,66 47,65 47,64 48,63 48,60 49,59 49,53 48,52 48,50 45,47" stroke="black" stroke-width="1" /><polygon fill="none" id="2" points="36,37 36,38 35,39 35,41 36,41 37,42 39,42 40,43 41,43 43,45 45,45 45,44 46,43 46,41 45,41 44,40 43,40 42,39 41,39 40,38 38,38 37,37" stroke="black" stroke-width="1" /></svg>