<?xml version="1.0" encoding="utf-8" ?>
<svg baseProfile="full" height="100" version="1.1" width="100" xmlns="http://www.w3.org/2000/svg" xmlns:ev="http://www.w3.org/2001/xml-events" xmlns:xlink="http://www.w3.org/1999/xlink"><defs /><polygon fill="none" id="1" points="43,47 42,48 40,48 39,49 37,49 36,50 34,50 34,53 35,54 37,54 38,53 39,53 40,52 41,52 42,51 44,51 45,50 48,50 51,53 51,60 50,61 50,62 44,68 43,68 42,69 40,69 39,70 39,71 41,73 43,73 44,72 45,72 46,71 47,71 49,69 50,69 50,68 53,65 53,64 54,63 54,61 55,60 55,53 54,52 54,50 52,48 51,48 50,47" stroke="black" stroke-width="1" /><polygon fill="none" id="2" points="41,37 40,38 40,39 39,40 39,41 41,41 42,42 44,42 45,43 46,43 47,44 48,44 49,45 50,45 51,44 51,41 50,41 49,40 48,40 47,39 46,39 45,38 43,38 42,37" stroke="black" stroke-width="1" /></svg>