<?xml version="1.0" encoding="utf-8" ?>
<svg baseProfile="full" height="100" version="1.1" width="100" xmlns="http://www.w3.org/2000/svg" xmlns:ev="http://www.w3.org/2001/xml-events" xmlns:xlink="http://www.w3.org/1999/xlink"><defs /><polygon fill="none" id="1" points="48,47 47,48 44,48 43,49 41,49 40,50 38,50 38,53 39,54 41,54 42,53 43,53 44,52 46,52 47,51 49,51 50,50 54,50 56,52 56,53 57,54 57,59 56,60 56,61 55,62 55,63 51,67 50,67 49,68 48,68 47,69 44,69 44,71 45,72 45,73 48,73 49,72 50,72 51,71 52,71 53,70 54,70 58,66 58,65 60,63 60,61 61,60 61,53 60,52 60,51 59,50 59,49 58,48 57,48 56,47" stroke="black" stroke-width="1" /><polygon fill="none" id="2" points="46,37 44,39 44,41 46,41 47,42 49,42 50,43 51,43 52,44 53,44 54,45 56,45 56,44 57,43 57,41 56,41 55,40 53,40 52,39 50,39 49,38 48,38 47,37" stroke="black" stroke-width="1" /></svg>