<?xml version="1.0" encoding="utf-8" ?>
<svg baseProfile="full" height="100" version="1.1" width="100" xmlns="http://www.w3.org/2000/svg" xmlns:ev="http://www.w3.org/2001/xml-events" xmlns:xlink="http://www.w3.org/1999/xlink"><defs /><polygon fill="none" id="1" points="53,47 52,48 48,48 47,49 45,49 44,50 42,50 41,51 41,52 42,53 42,54 45,54 46,53 47,53 48,52 50,52 51,51 54,51 55,50 59,50 60,51 61,51 62,52 62,53 63,54 63,58 62,59 62,60 61,61 61,62 56,67 55,67 54,68 53,68 52,69 48,69 48,71 50,73 52,73 53,72 55,72 56,71 57,71 58,70 59,70 61,68 62,68 64,66 64,65 66,63 66,61 67,60 67,53 66,52 66,51 65,50 65,49 64,48 62,48 61,47" stroke="black" stroke-width="1" /><polygon fill="none" id="2" points="50,37 49,38 49,39 48,40 48,41 51,41 52,42 54,42 55,43 57,43 58,44 59,44 60,45 62,45 62,44 63,43 63,41 61,41 60,40 58,40 57,39 55,39 54,38 52,38 51,37" stroke="black" stroke-width="1" /></svg>