<?xml version="1.0" encoding="utf-8" ?>
<svg baseProfile="full" height="100" version="1.1" width="100" xmlns="http://www.w3.org/2000/svg" xmlns:ev="http://www.w3.org/2001/xml-events" xmlns:xlink="http://www.w3.org/1999/xlink"><defs /><polygon fill="none" id="1" points="57,47 56,48 53,48 52,49 49,49 48,50 45,50 45,53 46,54 49,54 50,53 51,53 52,52 55,52 56,51 59,51 60,50 65,50 68,53 68,59 67,60 67,61 65,63 65,64 64,65 63,65 61,67 60,67 59,68 57,68 56,69 53,69 53,71 54,72 54,73 57,73 58,72 60,72 61,71 63,71 64,70 65,70 72,63 72,61 73,60 73,53 72,52 72,51 71,50 71,49 70,49 69,48 68,48 67,47" stroke="black" stroke-width="1" /><polygon fill="none" id="2" points="55,37 53,39 53,41 55,41 56,42 59,42 60,43 62,43 63,44 64,44 65,45 67,45 69,43 69,42 68,41 67,41 66,40 64,40 63,39 60,39 59,38 57,38 56,37" stroke="black" stroke-width="1" /></svg>