<?xml version="1.0" encoding="utf-8" ?>
<svg baseProfile="full" height="100" version="1.1" width="100" xmlns="http://www.w3.org/2000/svg" xmlns:ev="http://www.w3.org/2001/xml-events" xmlns:xlink="http://www.w3.org/1999/xlink"><defs /><polygon fill="none" id="1" points="39,48 38,49 36,49 35,50 34,50 33,51 31,51 31,52 32,53 34,51 35,51 36,50 38,50 39,49 44,49 46,51 46,53 47,54 47,58 46,59 46,62 45,63 45,64 40,69 39,69 38,70 36,70 37,71 37,72 38,71 39,71 40,70 41,70 45,66 45,65 46,64 46,63 47,62 47,59 48,58 48,54 47,53 47,51 44,48" stroke="black" stroke-width="1" /><polygon fill="none" id="2" points="37,39 36,40 37,40 38,41 40,41 41,42 42,42 44,44 44,43 45,42 44,42 43,41 42,41 41,40 40,40 39,39" stroke="black" stroke-width="1" /></svg>