<?xml version="1.0" encoding="utf-8" ?>
<svg baseProfile="full" height="100" version="1.1" width="100" xmlns="http://www.w3.org/2000/svg" xmlns:ev="http://www.w3.org/2001/xml-events" xmlns:xlink="http://www.w3.org/1999/xlink"><defs /><polygon fill="none" id="1" points="44,48 43,49 41,49 40,50 38,50 37,51 35,51 35,52 36,53 37,52 38,52 39,51 40,51 41,50 43,50 44,49 49,49 52,52 52,61 51,62 51,63 45,69 44,69 43,70 41,70 41,71 42,72 43,71 44,71 45,70 46,70 48,68 49,68 49,67 52,64 52,63 53,62 53,60 54,59 54,54 53,53 53,51 51,49 50,49 49,48" stroke="black" stroke-width="1" /><polygon fill="none" id="2" points="41,39 41,40 42,40 43,41 45,41 46,42 47,42 48,43 50,43 50,42 49,42 48,41 47,41 46,40 45,40 44,39" stroke="black" stroke-width="1" /></svg>