<?xml version="1.0" encoding="utf-8" ?>
<svg baseProfile="full" height="100" version="1.1" width="100" xmlns="http://www.w3.org/2000/svg" xmlns:ev="http://www.w3.org/2001/xml-events" xmlns:xlink="http://www.w3.org/1999/xlink"><defs /><polygon fill="none" id="1" points="49,48 48,49 45,49 44,50 42,50 41,51 39,51 39,52 40,53 41,52 42,52 43,51 45,51 46,50 48,50 49,49 55,49 57,51 57,52 58,53 58,60 57,61 57,62 56,63 56,64 52,68 51,68 50,69 49,69 48,70 45,70 46,71 46,72 47,72 48,71 49,71 50,70 51,70 52,69 53,69 57,65 57,64 59,62 59,60 60,59 60,54 59,53 59,52 58,51 58,50 57,49 56,49 55,48" stroke="black" stroke-width="1" /><polygon fill="none" id="2" points="46,39 45,40 47,40 48,41 50,41 51,42 52,42 53,43 54,43 55,44 55,43 56,42 55,42 54,41 52,41 51,40 49,40 48,39" stroke="black" stroke-width="1" /></svg>