<?xml version="1.0" encoding="utf-8" ?>
<svg baseProfile="full" height="100" version="1.1" width="100" xmlns="http://www.w3.org/2000/svg" xmlns:ev="http://www.w3.org/2001/xml-events" xmlns:xlink="http://www.w3.org/1999/xlink"><defs /><polygon fill="none" id="1" points="54,48 53,49 49,49 48,50 46,50 45,51 43,51 43,53 44,53 45,52 46,52 47,51 49,51 50,50 53,50 54,49 60,49 61,50 62,50 63,51 63,52 64,53 64,59 63,60 63,61 62,62 62,63 57,68 56,68 55,69 54,69 53,70 49,70 51,72 52,71 54,71 55,70 56,70 57,69 58,69 60,67 61,67 63,65 63,64 65,62 65,60 66,59 66,54 65,53 65,52 64,51 64,50 63,49 61,49 60,48" stroke="black" stroke-width="1" /><polygon fill="none" id="2" points="50,39 50,40 52,40 53,41 55,41 56,42 58,42 59,43 60,43 61,44 61,43 62,42 60,42 59,41 57,41 56,40 54,40 53,39" stroke="black" stroke-width="1" /></svg>