<?xml version="1.0" encoding="utf-8" ?>
<svg baseProfile="full" height="100" version="1.1" width="100" xmlns="http://www.w3.org/2000/svg" xmlns:ev="http://www.w3.org/2001/xml-events" xmlns:xlink="http://www.w3.org/1999/xlink"><defs /><polygon fill="none" id="1" points="58,48 57,49 54,49 53,50 50,50 49,51 46,51 46,52 47,53 48,53 49,52 50,52 51,51 54,51 55,50 58,50 59,49 66,49 69,52 69,60 68,61 68,62 66,64 66,65 65,66 64,66 62,68 61,68 60,69 58,69 57,70 54,70 55,71 55,72 56,72 57,71 59,71 60,70 62,70 63,69 64,69 71,62 71,60 72,59 72,54 71,53 71,52 70,51 70,50 69,50 68,49 67,49 66,48" stroke="black" stroke-width="1" /><polygon fill="none" id="2" points="55,39 54,40 56,40 57,41 60,41 61,42 63,42 64,43 65,43 66,44 67,43 67,42 66,42 65,41 63,41 62,40 59,40 58,39" stroke="black" stroke-width="1" /></svg>