<?xml version="1.0" encoding="utf-8" ?>
<svg baseProfile="full" height="100" version="1.1" width="100" xmlns="http://www.w3.org/2000/svg" xmlns:ev="http://www.w3.org/2001/xml-events" xmlns:xlink="http://www.w3.org/1999/xlink"><defs /><polygon fill="none" id="1" points="35,36 35,37 34,38 34,41 35,41 36,42 38,42 39,43 40,43 42,45 41,46 37,46 36,47 34,47 33,48 32,48 31,49 29,49 29,53 30,54 33,54 35,52 36,52 37,51 39,51 40,50 42,50 44,52 44,54 45,55 45,56 44,57 44,60 43,61 43,62 38,67 37,67 36,68 34,68 34,71 35,72 35,73 38,73 39,72 40,72 41,71 42,71 46,67 46,66 47,65 47,64 48,63 48,60 49,59 49,52 48,51 48,49 45,46 45,44 46,43 46,40 45,40 44,39 43,39 42,38 41,38 40,37 38,37 37,36" stroke="black" stroke-width="1" /></svg>