<?xml version="1.0" encoding="utf-8" ?>
<svg baseProfile="full" height="100" version="1.1" width="100" xmlns="http://www.w3.org/2000/svg" xmlns:ev="http://www.w3.org/2001/xml-events" xmlns:xlink="http://www.w3.org/1999/xlink"><defs /><polygon fill="none" id="1" points="40,36 39,37 39,38 38,39 38,41 40,41 41,42 43,42 44,43 45,43 46,44 47,44 48,45 47,46 42,46 41,47 39,47 38,48 36,48 35,49 33,49 33,53 34,54 37,54 38,53 39,53 40,52 41,52 42,51 44,51 45,50 47,50 50,53 50,59 49,60 49,61 43,67 42,67 41,68 39,68 38,69 38,71 40,73 43,73 44,72 45,72 46,71 47,71 49,69 50,69 50,68 53,65 53,64 54,63 54,61 55,60 55,52 54,51 54,49 52,47 51,47 50,46 50,45 51,44 51,40 50,40 49,39 48,39 47,38 46,38 45,37 43,37 42,36" stroke="black" stroke-width="1" /></svg>