<?xml version="1.0" encoding="utf-8" ?>
<svg baseProfile="full" height="100" version="1.1" width="100" xmlns="http://www.w3.org/2000/svg" xmlns:ev="http://www.w3.org/2001/xml-events" xmlns:xlink="http://www.w3.org/1999/xlink"><defs /><polygon fill="none" id="1" points="45,36 43,38 43,41 45,41 46,42 48,42 49,43 50,43 51,44 52,44 53,45 52,46 47,46 46,47 43,47 42,48 40,48 39,49 37,49 37,53 38,54 41,54 42,53 43,53 44,52 46,52 47,51 49,51 50,50 53,50 55,52 55,53 56,54 56,58 55,59 55,60 54,61 54,62 50,66 49,66 48,67 47,67 46,68 43,68 43,71 44,72 44,73 48,73 49,72 50,72 51,71 52,71 53,70 54,70 58,66 58,65 60,63 60,61 61,60 61,52 60,51 60,50 59,49 59,48 58,47 57,47 56,46 56,44 57,43 57,40 56,40 55,39 53,39 52,38 50,38 49,37 48,37 47,36" stroke="black" stroke-width="1" /></svg>