<?xml version="1.0" encoding="utf-8" ?>
<svg baseProfile="full" height="100" version="1.1" width="100" xmlns="http://www.w3.org/2000/svg" xmlns:ev="http://www.w3.org/2001/xml-events" xmlns:xlink="http://www.w3.org/1999/xlink"><defs /><polygon fill="none" id="1" points="49,36 48,37 48,38 47,39 47,41 50,41 51,42 53,42 54,43 56,43 57,44 58,44 59,45 58,46 52,46 51,47 47,47 46,48 44,48 43,49 41,49 40,50 40,52 41,53 41,54 45,54 46,53 47,53 48,52 50,52 51,51 54,51 55,50 58,50 59,51 60,51 61,52 61,53 62,54 62,57 61,58 61,59 60,60 60,61 55,66 54,66 53,67 52,67 51,68 47,68 47,71 49,73 52,73 53,72 55,72 56,71 57,71 58,70 59,70 61,68 62,68 64,66 64,65 66,63 66,61 67,60 67,52 66,51 66,50 65,49 65,48 64,47 62,47 61,46 62,45 62,44 63,43 63,40 61,40 60,39 58,39 57,38 55,38 54,37 52,37 51,36" stroke="black" stroke-width="1" /></svg>