<?xml version="1.0" encoding="utf-8" ?>
<svg baseProfile="full" height="100" version="1.1" width="100" xmlns="http://www.w3.org/2000/svg" xmlns:ev="http://www.w3.org/2001/xml-events" xmlns:xlink="http://www.w3.org/1999/xlink"><defs /><polygon fill="none" id="1" points="54,36 52,38 52,41 54,41 55,42 58,42 59,43 61,43 62,44 63,44 64,45 63,46 56,46 55,47 52,47 51,48 48,48 47,49 44,49 44,53 45,54 49,54 50,53 51,53 52,52 55,52 56,51 59,51 60,50 64,50 67,53 67,58 66,59 66,60 64,62 64,63 63,64 62,64 60,66 59,66 58,67 56,67 55,68 52,68 52,71 53,72 53,73 57,73 58,72 60,72 61,71 63,71 64,70 65,70 72,63 72,61 73,60 73,52 72,51 72,50 71,49 71,48 70,48 69,47 68,47 67,46 67,45 69,43 69,41 68,40 67,40 66,39 64,39 63,38 60,38 59,37 57,37 56,36" stroke="black" stroke-width="1" /></svg>