<?xml version="1.0" encoding="utf-8" ?>
<svg baseProfile="full" height="100" version="1.1" width="100" xmlns="http://www.w3.org/2000/svg" xmlns:ev="http://www.w3.org/2001/xml-events" xmlns:xlink="http://www.w3.org/1999/xlink"><defs /><polygon fill="none" id="1" points="44,65 40,69 39,69 38,70 37,70 38,70 39,69 40,69" stroke="black" stroke-width="1" /><polygon fill="none" id="2" points="45,63" stroke="black" stroke-width="1" /><polygon fill="none" id="3" points="46,59 46,61" stroke="black" stroke-width="1" /><polygon fill="none" id="4" points="47,54 47,57" stroke="black" stroke-width="1" /><polygon fill="none" id="5" points="46,51 46,52" stroke="black" stroke-width="1" /><polygon fill="none" id="6" points="31,51 32,51" stroke="black" stroke-width="1" /><polygon fill="none" id="7" points="34,50" stroke="black" stroke-width="1" /><polygon fill="none" id="8" points="36,49 37,49" stroke="black" stroke-width="1" /><polygon fill="none" id="9" points="39,48 43,48" stroke="black" stroke-width="1" /><polygon fill="none" id="10" points="37,39 38,40 40,40 41,41 42,41 43,42 42,41 41,41 40,40 39,40 38,39" stroke="black" stroke-width="1" /></svg>