<?xml version="1.0" encoding="utf-8" ?>
<svg baseProfile="full" height="100" version="1.1" width="100" xmlns="http://www.w3.org/2000/svg" xmlns:ev="http://www.w3.org/2001/xml-events" xmlns:xlink="http://www.w3.org/1999/xlink"><defs /><polygon fill="none" id="1" points="38,50 37,51 35,51 37,51 38,50 39,50" stroke="black" stroke-width="1" /><polygon fill="none" id="2" points="50,49 52,51 52,61 51,62 51,63 45,69 44,69 43,70 41,70 43,70 44,69 45,69 47,67 48,67 48,66 51,63 51,62 52,61 52,59 53,58 53,54 52,53 52,51" stroke="black" stroke-width="1" /><polygon fill="none" id="3" points="41,49 42,49" stroke="black" stroke-width="1" /><polygon fill="none" id="4" points="44,48 48,48" stroke="black" stroke-width="1" /><polygon fill="none" id="5" points="41,39 42,39 43,40 45,40 46,41 47,41 48,42 49,42 48,42 47,41 46,41 45,40 44,40 43,39" stroke="black" stroke-width="1" /></svg>