<?xml version="1.0" encoding="utf-8" ?>
<svg baseProfile="full" height="100" version="1.1" width="100" xmlns="http://www.w3.org/2000/svg" xmlns:ev="http://www.w3.org/2001/xml-events" xmlns:xlink="http://www.w3.org/1999/xlink"><defs /><polygon fill="none" id="1" points="56,49 57,50 57,51 58,52 58,60 57,61 57,62 56,63 56,64 52,68 51,68 50,69 49,69 48,70 46,70 46,71 47,70 48,70 49,69 50,69 51,68 52,68 56,64 56,63 58,61 58,59 59,58 59,54 58,53 58,52 57,51 57,50" stroke="black" stroke-width="1" /><polygon fill="none" id="2" points="45,49 44,50 42,50 41,51 39,51 41,51 42,50 44,50 45,49 47,49" stroke="black" stroke-width="1" /><polygon fill="none" id="3" points="49,48 54,48" stroke="black" stroke-width="1" /><polygon fill="none" id="4" points="46,39 47,39 48,40 50,40 51,41 52,41 53,42 54,42 53,41 51,41 50,40 48,40 47,39" stroke="black" stroke-width="1" /></svg>