<?xml version="1.0" encoding="utf-8" ?>
<svg baseProfile="full" height="100" version="1.1" width="100" xmlns="http://www.w3.org/2000/svg" xmlns:ev="http://www.w3.org/2001/xml-events" xmlns:xlink="http://www.w3.org/1999/xlink"><defs /><polygon fill="none" id="1" points="61,49 62,49 63,50 63,51 64,52 64,59 63,60 63,61 62,62 62,63 57,68 56,68 55,69 54,69 53,70 50,70 53,70 54,69 55,69 56,68 57,68 59,66 60,66 62,64 62,63 64,61 64,59 65,58 65,54 64,53 64,52 63,51 63,50 62,49" stroke="black" stroke-width="1" /><polygon fill="none" id="2" points="49,49 48,50 46,50 45,51 43,51 43,52 44,51 45,51 46,50 48,50 49,49 52,49" stroke="black" stroke-width="1" /><polygon fill="none" id="3" points="54,48 59,48" stroke="black" stroke-width="1" /><polygon fill="none" id="4" points="50,39 52,39 53,40 55,40 56,41 58,41 59,42 60,42 59,42 58,41 56,41 55,40 53,40 52,39" stroke="black" stroke-width="1" /></svg>