<?xml version="1.0" encoding="utf-8" ?>
<svg baseProfile="full" height="100" version="1.1" width="100" xmlns="http://www.w3.org/2000/svg" xmlns:ev="http://www.w3.org/2001/xml-events" xmlns:xlink="http://www.w3.org/1999/xlink"><defs /><polygon fill="none" id="1" points="67,49 69,51 69,60 68,61 68,62 66,64 66,65 65,66 64,66 62,68 61,68 60,69 58,69 57,70 55,70 55,71 56,70 58,70 59,69 61,69 62,68 63,68 70,61 70,59 71,58 71,54 70,53 70,52 69,51 69,50 68,50" stroke="black" stroke-width="1" /><polygon fill="none" id="2" points="58,48 57,49 54,49 53,50 50,50 49,51 46,51 47,52 48,51 49,51 50,50 53,50 54,49 57,49 58,48 65,48" stroke="black" stroke-width="1" /><polygon fill="none" id="3" points="55,39 56,39 57,40 60,40 61,41 63,41 64,42 66,42 65,42 64,41 62,41 61,40 58,40 57,39" stroke="black" stroke-width="1" /></svg>