<?xml version="1.0" encoding="utf-8" ?>
<svg baseProfile="full" height="100" version="1.1" width="100" xmlns="http://www.w3.org/2000/svg" xmlns:ev="http://www.w3.org/2001/xml-events" xmlns:xlink="http://www.w3.org/1999/xlink"><defs /><polygon fill="none" id="1" points="43,49 42,50 34,50 34,52 35,53 37,53 38,52 43,52 44,51 46,51 47,52 42,57 42,58 37,63 37,64 31,70 33,72 37,68 37,67 40,64 41,64 43,62 45,62 47,64 47,70 48,70 49,71 58,71 58,69 57,68 56,69 50,69 49,68 49,62 47,60 44,60 43,59 50,52 50,50 49,49" stroke="black" stroke-width="1" /><polygon fill="none" id="2" points="40,39 38,41 39,42 41,42 42,43 43,43 44,44 45,44 46,45 48,45 49,44 49,43 48,43 47,42 46,42 45,41 44,41 43,40 41,40" stroke="black" stroke-width="1" /></svg>