<?xml version="1.0" encoding="utf-8" ?>
<svg baseProfile="full" height="100" version="1.1" width="100" xmlns="http://www.w3.org/2000/svg" xmlns:ev="http://www.w3.org/2001/xml-events" xmlns:xlink="http://www.w3.org/1999/xlink"><defs /><polygon fill="none" id="1" points="53,49 52,50 42,50 42,52 43,53 45,53 46,52 52,52 53,51 56,51 57,52 42,67 41,67 38,70 39,71 40,71 41,72 49,64 50,64 51,63 52,63 53,62 56,62 57,63 57,69 58,70 59,70 60,71 71,71 71,69 70,68 69,68 68,69 61,69 60,68 60,62 58,60 54,60 53,59 59,53 60,53 62,51 60,49" stroke="black" stroke-width="1" /><polygon fill="none" id="2" points="48,39 48,40 47,41 47,42 50,42 51,43 53,43 54,44 55,44 56,45 59,45 60,44 60,43 59,43 58,42 56,42 55,41 53,41 52,40 50,40 49,39" stroke="black" stroke-width="1" /></svg>