<?xml version="1.0" encoding="utf-8" ?>
<svg baseProfile="full" height="100" version="1.1" width="100" xmlns="http://www.w3.org/2000/svg" xmlns:ev="http://www.w3.org/2001/xml-events" xmlns:xlink="http://www.w3.org/1999/xlink"><defs /><polygon fill="none" id="1" points="58,49 57,50 45,50 45,51 46,52 46,53 49,53 50,52 57,52 58,51 62,51 63,52 62,53 61,53 55,59 54,59 47,66 46,66 43,69 42,69 42,70 44,72 45,72 52,65 53,65 55,63 57,63 58,62 61,62 62,63 62,69 63,70 64,70 65,71 77,71 77,68 76,68 75,69 67,69 65,67 65,62 63,60 59,60 58,59 61,56 62,56 67,51 68,51 66,49" stroke="black" stroke-width="1" /><polygon fill="none" id="2" points="53,39 51,41 52,42 55,42 56,43 58,43 59,44 61,44 62,45 64,45 65,44 65,43 64,43 63,42 61,42 60,41 58,41 57,40 55,40 54,39" stroke="black" stroke-width="1" /></svg>