<?xml version="1.0" encoding="utf-8" ?>
<svg baseProfile="full" height="100" version="1.1" width="100" xmlns="http://www.w3.org/2000/svg" xmlns:ev="http://www.w3.org/2001/xml-events" xmlns:xlink="http://www.w3.org/1999/xlink"><defs /><polygon fill="none" id="1" points="39,49 38,50 30,50 30,51 31,52 31,53 33,53 34,52 38,52 39,51 41,51 42,52 38,56 38,57 36,59 36,60 32,64 32,65 28,69 28,70 29,71 29,72 30,72 30,71 32,69 32,68 38,62 40,62 41,63 41,67 42,68 42,70 43,71 51,71 51,68 50,68 49,69 45,69 43,67 43,61 42,60 39,60 38,59 42,55 42,54 45,51 44,50 44,49" stroke="black" stroke-width="1" /><polygon fill="none" id="2" points="35,39 35,40 34,41 34,42 36,42 37,43 38,43 39,44 40,44 41,45 42,45 43,44 43,43 42,42 41,42 40,41 39,41 38,40 37,40 36,39" stroke="black" stroke-width="1" /></svg>