<?xml version="1.0" encoding="utf-8" ?>
<svg baseProfile="full" height="100" version="1.1" width="100" xmlns="http://www.w3.org/2000/svg" xmlns:ev="http://www.w3.org/2001/xml-events" xmlns:xlink="http://www.w3.org/1999/xlink"><defs /><polygon fill="none" id="1" points="48,49 47,50 38,50 38,52 39,53 41,53 42,52 48,52 49,51 51,51 52,52 45,59 45,60 37,68 36,68 35,69 35,70 37,72 46,63 47,63 48,62 50,62 52,64 52,69 54,71 64,71 64,68 63,68 62,69 56,69 54,67 54,62 53,61 53,60 49,60 48,59 56,51 56,50 55,49" stroke="black" stroke-width="1" /><polygon fill="none" id="2" points="44,39 43,40 43,42 46,42 47,43 48,43 49,44 50,44 51,45 53,45 54,44 54,43 53,42 51,42 50,41 49,41 48,40 46,40 45,39" stroke="black" stroke-width="1" /></svg>