<?xml version="1.0" encoding="utf-8" ?>
<svg baseProfile="full" height="100" version="1.1" width="100" xmlns="http://www.w3.org/2000/svg" xmlns:ev="http://www.w3.org/2001/xml-events" xmlns:xlink="http://www.w3.org/1999/xlink"><defs /><polygon fill="none" id="1" points="64,29 64,30 53,41 52,41 49,44 48,44 45,47 44,47 43,48 43,51 48,56 49,56 54,61 55,61 66,72 69,72 71,70 72,70 72,68 65,61 64,61 59,56 58,56 55,53 54,53 52,51 51,51 50,50 51,49 52,49 55,46 56,46 58,44 59,44 69,34 70,34 70,31 69,31 68,30 67,30 66,29" stroke="black" stroke-width="1" /></svg>