<?xml version="1.0" encoding="utf-8" ?>
<svg baseProfile="full" height="100" version="1.1" width="100" xmlns="http://www.w3.org/2000/svg" xmlns:ev="http://www.w3.org/2001/xml-events" xmlns:xlink="http://www.w3.org/1999/xlink"><defs /><polygon fill="none" id="1" points="39,49 38,50 30,50 30,52 31,53 31,54 34,54 35,53 39,53 40,54 38,56 38,57 36,59 36,60 32,64 32,65 28,69 28,71 29,72 29,73 31,73 31,72 33,70 33,69 39,63 40,63 41,64 41,68 42,69 42,71 43,72 52,72 52,68 50,68 49,69 46,69 44,67 44,61 43,60 41,60 40,59 43,56 43,55 46,52 46,51 45,50 45,49" stroke="black" stroke-width="1" /><polygon fill="none" id="2" points="39,53 40,52 41,53 40,54" stroke="black" stroke-width="1" /><polygon fill="none" id="3" points="35,39 35,40 34,41 34,43 36,43 37,44 38,44 39,45 40,45 41,46 43,46 44,45 44,43 43,42 42,42 41,41 40,41 39,40 38,40 37,39" stroke="black" stroke-width="1" /></svg>