<?xml version="1.0" encoding="utf-8" ?>
<svg baseProfile="full" height="100" version="1.1" width="100" xmlns="http://www.w3.org/2000/svg" xmlns:ev="http://www.w3.org/2001/xml-events" xmlns:xlink="http://www.w3.org/1999/xlink"><defs /><polygon fill="none" id="1" points="43,49 42,50 34,50 34,53 35,54 38,54 39,53 44,53 45,54 42,57 42,58 37,63 37,64 31,70 31,71 33,73 34,73 38,69 38,68 41,65 42,65 44,63 45,63 47,65 47,71 48,71 49,72 59,72 59,69 58,68 57,68 56,69 51,69 50,68 50,62 48,60 46,60 45,59 51,53 51,50 50,49" stroke="black" stroke-width="1" /><polygon fill="none" id="2" points="44,53 45,52 46,53 45,54" stroke="black" stroke-width="1" /><polygon fill="none" id="3" points="40,39 38,41 38,42 39,43 41,43 42,44 43,44 44,45 45,45 46,46 49,46 50,45 50,43 49,43 48,42 47,42 46,41 45,41 44,40 42,40 41,39" stroke="black" stroke-width="1" /></svg>