<?xml version="1.0" encoding="utf-8" ?>
<svg baseProfile="full" height="100" version="1.1" width="100" xmlns="http://www.w3.org/2000/svg" xmlns:ev="http://www.w3.org/2001/xml-events" xmlns:xlink="http://www.w3.org/1999/xlink"><defs /><polygon fill="none" id="1" points="48,49 47,50 38,50 38,53 39,54 42,54 43,53 49,53 50,54 45,59 45,60 37,68 36,68 35,69 35,71 37,73 38,73 47,64 48,64 49,63 50,63 52,65 52,70 54,72 65,72 65,68 63,68 62,69 57,69 55,67 55,62 54,61 54,60 51,60 50,59 57,52 57,50 56,49" stroke="black" stroke-width="1" /><polygon fill="none" id="2" points="49,53 50,52 51,53 50,54" stroke="black" stroke-width="1" /><polygon fill="none" id="3" points="44,39 43,40 43,43 46,43 47,44 48,44 49,45 50,45 51,46 54,46 55,45 55,43 54,42 52,42 51,41 50,41 49,40 47,40 46,39" stroke="black" stroke-width="1" /></svg>