<?xml version="1.0" encoding="utf-8" ?>
<svg baseProfile="full" height="100" version="1.1" width="100" xmlns="http://www.w3.org/2000/svg" xmlns:ev="http://www.w3.org/2001/xml-events" xmlns:xlink="http://www.w3.org/1999/xlink"><defs /><polygon fill="none" id="1" points="53,49 52,50 42,50 42,53 43,54 46,54 47,53 53,53 54,52 55,52 56,53 42,67 41,67 38,70 38,71 39,72 40,72 41,73 42,73 50,65 51,65 52,64 53,64 54,63 56,63 57,64 57,70 58,71 59,71 60,72 72,72 72,69 71,68 69,68 68,69 62,69 61,68 61,62 59,60 56,60 55,59 60,54 61,54 63,52 63,51 61,49" stroke="black" stroke-width="1" /><polygon fill="none" id="2" points="48,39 48,40 47,41 47,43 50,43 51,44 53,44 54,45 55,45 56,46 60,46 61,45 61,43 60,43 59,42 57,42 56,41 54,41 53,40 51,40 50,39" stroke="black" stroke-width="1" /></svg>