<?xml version="1.0" encoding="utf-8" ?>
<svg baseProfile="full" height="100" version="1.1" width="100" xmlns="http://www.w3.org/2000/svg" xmlns:ev="http://www.w3.org/2001/xml-events" xmlns:xlink="http://www.w3.org/1999/xlink"><defs /><polygon fill="none" id="1" points="58,49 57,50 45,50 45,52 46,53 46,54 50,54 51,53 58,53 59,52 60,52 61,53 55,59 54,59 47,66 46,66 43,69 42,69 42,71 44,73 46,73 53,66 54,66 56,64 58,64 59,63 61,63 62,64 62,70 63,71 64,71 65,72 78,72 78,68 76,68 75,69 68,69 66,67 66,62 64,60 61,60 60,59 62,57 63,57 68,52 69,52 69,51 67,49" stroke="black" stroke-width="1" /><polygon fill="none" id="2" points="53,39 51,41 51,42 52,43 55,43 56,44 58,44 59,45 61,45 62,46 65,46 66,45 66,43 65,43 64,42 62,42 61,41 59,41 58,40 56,40 55,39" stroke="black" stroke-width="1" /></svg>