<?xml version="1.0" encoding="utf-8" ?>
<svg baseProfile="full" height="100" version="1.1" width="100" xmlns="http://www.w3.org/2000/svg" xmlns:ev="http://www.w3.org/2001/xml-events" xmlns:xlink="http://www.w3.org/1999/xlink"><defs /><polygon fill="none" id="1" points="40,50 39,51 31,51 32,52 32,53 33,53 34,52 38,52 39,51 42,51 43,52 43,53 39,57 39,58 37,60 37,61 33,65 33,66 29,70 30,71 30,72 30,71 32,69 32,68 38,62 41,62 42,63 42,67 43,68 43,70 44,71 51,71 51,69 50,70 45,70 43,68 43,62 42,61 39,61 38,60 38,59 42,55 42,54 44,52 44,50" stroke="black" stroke-width="1" /><polygon fill="none" id="2" points="36,40 36,41 35,42 37,42 38,43 39,43 40,44 41,44 42,45 43,44 42,43 41,43 40,42 39,42 38,41 37,41" stroke="black" stroke-width="1" /></svg>