<?xml version="1.0" encoding="utf-8" ?>
<svg baseProfile="full" height="100" version="1.1" width="100" xmlns="http://www.w3.org/2000/svg" xmlns:ev="http://www.w3.org/2001/xml-events" xmlns:xlink="http://www.w3.org/1999/xlink"><defs /><polygon fill="none" id="1" points="44,50 43,51 35,51 35,52 36,53 37,53 38,52 43,52 44,51 47,51 48,52 48,53 43,58 43,59 38,64 38,65 33,70 33,71 34,71 37,68 37,67 40,64 41,64 43,62 46,62 48,64 48,70 49,70 50,71 58,71 58,70 50,70 49,69 49,63 47,61 44,61 43,60 43,59 50,52 50,51 49,50" stroke="black" stroke-width="1" /><polygon fill="none" id="2" points="40,41 40,42 42,42 43,43 44,43 45,44 46,44 47,45 48,45 49,44 48,44 47,43 46,43 45,42 44,42 43,41" stroke="black" stroke-width="1" /></svg>