<?xml version="1.0" encoding="utf-8" ?>
<svg baseProfile="full" height="100" version="1.1" width="100" xmlns="http://www.w3.org/2000/svg" xmlns:ev="http://www.w3.org/2001/xml-events" xmlns:xlink="http://www.w3.org/1999/xlink"><defs /><polygon fill="none" id="1" points="49,50 48,51 39,51 39,52 40,53 41,53 42,52 48,52 49,51 52,51 53,52 53,53 46,60 46,61 38,69 37,69 36,70 37,71 38,71 46,63 47,63 48,62 51,62 53,64 53,69 55,71 64,71 64,69 63,70 56,70 54,68 54,63 53,62 53,61 49,61 48,60 48,59 56,51 55,50" stroke="black" stroke-width="1" /><polygon fill="none" id="2" points="45,40 44,41 44,42 47,42 48,43 49,43 50,44 51,44 52,45 53,45 54,44 53,43 51,43 50,42 49,42 48,41 46,41" stroke="black" stroke-width="1" /></svg>