<?xml version="1.0" encoding="utf-8" ?>
<svg baseProfile="full" height="100" version="1.1" width="100" xmlns="http://www.w3.org/2000/svg" xmlns:ev="http://www.w3.org/2001/xml-events" xmlns:xlink="http://www.w3.org/1999/xlink"><defs /><polygon fill="none" id="1" points="54,50 53,51 43,51 43,52 44,53 45,53 46,52 52,52 53,51 57,51 58,52 58,53 43,68 42,68 40,70 40,71 42,71 49,64 50,64 51,63 52,63 53,62 57,62 58,63 58,69 59,70 60,70 61,71 71,71 71,70 70,69 69,70 61,70 60,69 60,63 58,61 54,61 53,60 53,59 59,53 60,53 61,52 61,51 60,50" stroke="black" stroke-width="1" /><polygon fill="none" id="2" points="49,40 49,41 48,42 51,42 52,43 54,43 55,44 56,44 57,45 59,45 60,44 59,44 58,43 56,43 55,42 53,42 52,41 50,41" stroke="black" stroke-width="1" /></svg>