<?xml version="1.0" encoding="utf-8" ?>
<svg baseProfile="full" height="100" version="1.1" width="100" xmlns="http://www.w3.org/2000/svg" xmlns:ev="http://www.w3.org/2001/xml-events" xmlns:xlink="http://www.w3.org/1999/xlink"><defs /><polygon fill="none" id="1" points="36,57 39,60 39,61 42,64 42,65 44,67 44,68 45,69 45,68 42,65 42,64 39,61 39,60" stroke="black" stroke-width="1" /><polygon fill="none" id="2" points="31,49 31,51 34,54 31,51" stroke="black" stroke-width="1" /><polygon fill="none" id="3" points="44,32 43,33 43,34 42,35 42,36 40,38 40,39 37,42 40,39 40,38 42,36 42,35 44,33" stroke="black" stroke-width="1" /></svg>