<?xml version="1.0" encoding="utf-8" ?>
<svg baseProfile="full" height="100" version="1.1" width="100" xmlns="http://www.w3.org/2000/svg" xmlns:ev="http://www.w3.org/2001/xml-events" xmlns:xlink="http://www.w3.org/1999/xlink"><defs /><polygon fill="none" id="1" points="59,50 58,51 46,51 47,52 47,53 49,53 50,52 57,52 58,51 63,51 64,52 64,53 63,54 62,54 56,60 55,60 48,67 47,67 44,70 43,70 45,72 52,65 53,65 55,63 57,63 58,62 62,62 63,63 63,69 64,70 65,70 66,71 77,71 77,69 76,70 67,70 65,68 65,63 63,61 59,61 58,60 58,59 61,56 62,56 67,51 66,50" stroke="black" stroke-width="1" /><polygon fill="none" id="2" points="54,40 53,41 53,42 56,42 57,43 59,43 60,44 62,44 63,45 64,45 65,44 64,44 63,43 61,43 60,42 58,42 57,41 55,41" stroke="black" stroke-width="1" /></svg>