<?xml version="1.0" encoding="utf-8" ?>
<svg baseProfile="full" height="100" version="1.1" width="100" xmlns="http://www.w3.org/2000/svg" xmlns:ev="http://www.w3.org/2001/xml-events" xmlns:xlink="http://www.w3.org/1999/xlink"><defs /><polygon fill="none" id="1" points="38,48 37,49 29,49 29,52 30,53 30,54 34,54 35,53 37,53 38,54 37,55 37,56 35,58 35,59 31,63 31,64 27,68 27,71 28,72 28,73 31,73 31,72 33,70 33,69 39,63 40,64 40,68 41,69 41,71 42,72 52,72 52,67 49,67 48,68 46,68 44,66 44,60 43,59 42,59 41,58 43,56 43,55 46,52 46,50 45,49 45,48" stroke="black" stroke-width="1" /><polygon fill="none" id="2" points="34,38 34,39 33,40 33,43 35,43 36,44 37,44 38,45 39,45 40,46 43,46 44,45 44,42 43,41 42,41 41,40 40,40 39,39 38,39 37,38" stroke="black" stroke-width="1" /></svg>