<?xml version="1.0" encoding="utf-8" ?>
<svg baseProfile="full" height="100" version="1.1" width="100" xmlns="http://www.w3.org/2000/svg" xmlns:ev="http://www.w3.org/2001/xml-events" xmlns:xlink="http://www.w3.org/1999/xlink"><defs /><polygon fill="none" id="1" points="42,48 41,49 33,49 33,53 34,54 38,54 39,53 42,53 43,54 41,56 41,57 36,62 36,63 30,69 30,71 32,73 34,73 38,69 38,68 41,65 42,65 44,63 46,65 46,71 47,71 48,72 59,72 59,68 58,67 56,67 55,68 51,68 50,67 50,61 48,59 47,59 46,58 51,53 51,49 50,48" stroke="black" stroke-width="1" /><polygon fill="none" id="2" points="39,38 37,40 37,42 38,43 40,43 41,44 42,44 43,45 44,45 45,46 49,46 50,45 50,42 49,42 48,41 47,41 46,40 45,40 44,39 42,39 41,38" stroke="black" stroke-width="1" /></svg>