<?xml version="1.0" encoding="utf-8" ?>
<svg baseProfile="full" height="100" version="1.1" width="100" xmlns="http://www.w3.org/2000/svg" xmlns:ev="http://www.w3.org/2001/xml-events" xmlns:xlink="http://www.w3.org/1999/xlink"><defs /><polygon fill="none" id="1" points="47,48 46,49 37,49 37,53 38,54 42,54 43,53 47,53 48,54 44,58 44,59 36,67 35,67 34,68 34,71 36,73 38,73 47,64 48,64 49,63 51,65 51,70 53,72 65,72 65,67 62,67 61,68 57,68 55,66 55,61 54,60 54,59 52,59 51,58 57,52 57,49 56,48" stroke="black" stroke-width="1" /><polygon fill="none" id="2" points="43,38 42,39 42,43 45,43 46,44 47,44 48,45 49,45 50,46 54,46 55,45 55,42 54,41 52,41 51,40 50,40 49,39 47,39 46,38" stroke="black" stroke-width="1" /></svg>