<?xml version="1.0" encoding="utf-8" ?>
<svg baseProfile="full" height="100" version="1.1" width="100" xmlns="http://www.w3.org/2000/svg" xmlns:ev="http://www.w3.org/2001/xml-events" xmlns:xlink="http://www.w3.org/1999/xlink"><defs /><polygon fill="none" id="1" points="52,48 51,49 41,49 41,53 42,54 46,54 47,53 52,53 53,54 41,66 40,66 37,69 37,71 38,72 39,72 40,73 42,73 50,65 51,65 52,64 53,64 54,63 55,63 56,64 56,70 57,71 58,71 59,72 72,72 72,68 71,67 68,67 67,68 62,68 61,67 61,61 59,59 57,59 56,58 60,54 61,54 63,52 63,50 61,48" stroke="black" stroke-width="1" /><polygon fill="none" id="2" points="47,38 47,39 46,40 46,43 49,43 50,44 52,44 53,45 54,45 55,46 60,46 61,45 61,42 60,42 59,41 57,41 56,40 54,40 53,39 51,39 50,38" stroke="black" stroke-width="1" /></svg>