<?xml version="1.0" encoding="utf-8" ?>
<svg baseProfile="full" height="100" version="1.1" width="100" xmlns="http://www.w3.org/2000/svg" xmlns:ev="http://www.w3.org/2001/xml-events" xmlns:xlink="http://www.w3.org/1999/xlink"><defs /><polygon fill="none" id="1" points="57,48 56,49 44,49 44,52 45,53 45,54 50,54 51,53 57,53 58,54 54,58 53,58 46,65 45,65 42,68 41,68 41,71 43,73 46,73 53,66 54,66 56,64 58,64 59,63 60,63 61,64 61,70 62,71 63,71 64,72 78,72 78,67 75,67 74,68 68,68 66,66 66,61 64,59 62,59 61,58 62,57 63,57 68,52 69,52 69,50 67,48" stroke="black" stroke-width="1" /><polygon fill="none" id="2" points="52,38 50,40 50,42 51,43 54,43 55,44 57,44 58,45 60,45 61,46 65,46 66,45 66,42 65,42 64,41 62,41 61,40 59,40 58,39 56,39 55,38" stroke="black" stroke-width="1" /></svg>