<?xml version="1.0" encoding="utf-8" ?>
<svg baseProfile="full" height="100" version="1.1" width="100" xmlns="http://www.w3.org/2000/svg" xmlns:ev="http://www.w3.org/2001/xml-events" xmlns:xlink="http://www.w3.org/1999/xlink"><defs /><polygon fill="none" id="1" points="43,69 44,70 50,70 44,70" stroke="black" stroke-width="1" /><polygon fill="none" id="2" points="31,68 30,69" stroke="black" stroke-width="1" /><polygon fill="none" id="3" points="37,60 37,61 33,65 37,61 41,61 42,62 42,66 42,62 41,61 38,61" stroke="black" stroke-width="1" /><polygon fill="none" id="4" points="32,51 32,52 33,51 37,51" stroke="black" stroke-width="1" /><polygon fill="none" id="5" points="40,50 42,50 43,51 43,50" stroke="black" stroke-width="1" /><polygon fill="none" id="6" points="36,41 37,41 38,42 39,42 40,43 41,43 40,43 39,42 38,42 37,41" stroke="black" stroke-width="1" /></svg>