<?xml version="1.0" encoding="utf-8" ?>
<svg baseProfile="full" height="100" version="1.1" width="100" xmlns="http://www.w3.org/2000/svg" xmlns:ev="http://www.w3.org/2001/xml-events" xmlns:xlink="http://www.w3.org/1999/xlink"><defs /><polygon fill="none" id="1" points="50,70 57,70" stroke="black" stroke-width="1" /><polygon fill="none" id="2" points="36,67 33,70" stroke="black" stroke-width="1" /><polygon fill="none" id="3" points="42,60 38,64 39,63 40,63 42,61 46,61 48,63 48,69 48,63 46,61 43,61" stroke="black" stroke-width="1" /><polygon fill="none" id="4" points="35,51 36,52 37,51 42,51" stroke="black" stroke-width="1" /><polygon fill="none" id="5" points="44,50 47,50 48,51 48,52 49,51 48,50" stroke="black" stroke-width="1" /><polygon fill="none" id="6" points="40,41 42,41 43,42 44,42 45,43 46,43 47,44 46,43 45,43 44,42 43,42 42,41" stroke="black" stroke-width="1" /></svg>