<?xml version="1.0" encoding="utf-8" ?>
<svg baseProfile="full" height="100" version="1.1" width="100" xmlns="http://www.w3.org/2000/svg" xmlns:ev="http://www.w3.org/2001/xml-events" xmlns:xlink="http://www.w3.org/1999/xlink"><defs /><polygon fill="none" id="1" points="47,59 46,60 46,61 38,69 37,69 37,70 45,62 46,62 47,61 51,61 53,63 53,68 55,70 63,70 55,70 53,68 53,63 52,62 52,61 48,61 47,60" stroke="black" stroke-width="1" /><polygon fill="none" id="2" points="39,51 40,52 41,51 47,51" stroke="black" stroke-width="1" /><polygon fill="none" id="3" points="49,50 52,50 53,51 53,52 54,51 54,50" stroke="black" stroke-width="1" /><polygon fill="none" id="4" points="44,41 47,41 48,42 49,42 50,43 51,43 52,44 52,43 50,43 49,42 48,42 47,41" stroke="black" stroke-width="1" /></svg>