<?xml version="1.0" encoding="utf-8" ?>
<svg baseProfile="full" height="100" version="1.1" width="100" xmlns="http://www.w3.org/2000/svg" xmlns:ev="http://www.w3.org/2001/xml-events" xmlns:xlink="http://www.w3.org/1999/xlink"><defs /><polygon fill="none" id="1" points="61,70 70,70" stroke="black" stroke-width="1" /><polygon fill="none" id="2" points="52,59 43,68 42,68 40,70 41,70 48,63 49,63 50,62 51,62 52,61 57,61 58,62 58,68 59,69 59,63 57,61 53,61 52,60" stroke="black" stroke-width="1" /><polygon fill="none" id="3" points="43,51 44,52 45,51 51,51" stroke="black" stroke-width="1" /><polygon fill="none" id="4" points="54,50 57,50 58,51 58,52 59,52 60,51 59,50" stroke="black" stroke-width="1" /><polygon fill="none" id="5" points="49,41 51,41 52,42 54,42 55,43 56,43 57,44 58,44 57,43 55,43 54,42 52,42 51,41" stroke="black" stroke-width="1" /></svg>