<?xml version="1.0" encoding="utf-8" ?>
<svg baseProfile="full" height="100" version="1.1" width="100" xmlns="http://www.w3.org/2000/svg" xmlns:ev="http://www.w3.org/2001/xml-events" xmlns:xlink="http://www.w3.org/1999/xlink"><defs /><polygon fill="none" id="1" points="57,59 56,60 55,60 48,67 47,67 44,70 45,70 51,64 52,64 54,62 56,62 57,61 62,61 63,62 63,68 64,69 65,69 66,70 76,70 66,70 64,68 64,63 62,61 58,61 57,60" stroke="black" stroke-width="1" /><polygon fill="none" id="2" points="62,54 61,55" stroke="black" stroke-width="1" /><polygon fill="none" id="3" points="47,51 47,52 48,52 49,51 56,51" stroke="black" stroke-width="1" /><polygon fill="none" id="4" points="59,50 63,50 64,51 64,52 65,51 65,50" stroke="black" stroke-width="1" /><polygon fill="none" id="5" points="53,41 56,41 57,42 59,42 60,43 62,43 63,44 62,43 60,43 59,42 57,42 56,41" stroke="black" stroke-width="1" /></svg>