<?xml version="1.0" encoding="utf-8" ?>
<svg baseProfile="full" height="100" version="1.1" width="100" xmlns="http://www.w3.org/2000/svg" xmlns:ev="http://www.w3.org/2001/xml-events" xmlns:xlink="http://www.w3.org/1999/xlink"><defs /><polygon fill="none" id="1" points="46,43 45,44 45,46 51,52 51,51 52,50 52,49" stroke="black" stroke-width="1" /><polygon fill="none" id="2" points="35,40 34,41 34,43 35,44 35,46 33,48 31,48 30,47 29,47 29,50 34,50 35,51 35,56 33,58 32,58 28,62 28,68 30,70 31,70 32,71 35,71 36,70 36,59 38,57 45,57 46,58 47,58 48,59 48,60 49,61 49,63 48,64 48,65 45,68 44,68 43,69 40,69 40,71 44,71 45,70 46,70 47,69 48,69 49,68 49,67 50,66 50,65 51,64 51,61 50,60 50,58 48,56 47,56 46,55 39,55 38,56 37,56 36,55 36,50 37,49 41,49 42,48 42,46 40,46 39,47 37,47 36,46 36,42 37,41 36,40" stroke="black" stroke-width="1" /><polygon fill="none" id="3" points="34,59 35,60 35,67 33,69 32,69 29,66 29,65 30,64 30,63" stroke="black" stroke-width="1" /></svg>