<?xml version="1.0" encoding="utf-8" ?>
<svg baseProfile="full" height="100" version="1.1" width="100" xmlns="http://www.w3.org/2000/svg" xmlns:ev="http://www.w3.org/2001/xml-events" xmlns:xlink="http://www.w3.org/1999/xlink"><defs /><polygon fill="none" id="1" points="57,43 57,44 56,45 59,48 60,48 64,52 64,51 65,50 65,49 62,46 61,46 58,43" stroke="black" stroke-width="1" /><polygon fill="none" id="2" points="43,40 43,47 42,48 39,48 38,47 36,47 36,50 41,50 42,49 43,50 43,56 41,58 40,58 38,60 37,60 35,62 35,64 34,65 35,66 35,68 36,69 37,69 38,70 39,70 40,71 44,71 45,70 45,69 46,68 46,61 45,60 45,59 47,57 56,57 57,58 59,58 60,59 60,60 61,61 61,64 57,68 55,68 54,69 49,69 50,70 50,71 55,71 56,70 58,70 59,69 60,69 63,66 63,64 64,63 64,62 63,61 63,59 60,56 59,56 58,55 48,55 47,56 46,56 45,55 45,50 46,49 51,49 52,48 53,48 53,47 52,46 50,46 49,47 46,47 45,46 45,45 46,44 46,40" stroke="black" stroke-width="1" /><polygon fill="none" id="3" points="42,59 43,60 43,68 42,69 40,69 37,66 37,64" stroke="black" stroke-width="1" /></svg>