<?xml version="1.0" encoding="utf-8" ?>
<svg baseProfile="full" height="100" version="1.1" width="100" xmlns="http://www.w3.org/2000/svg" xmlns:ev="http://www.w3.org/2001/xml-events" xmlns:xlink="http://www.w3.org/1999/xlink"><defs /><polygon fill="none" id="1" points="63,43 61,45 62,46 63,46 65,48 66,48 70,52 72,50 72,49 71,48 70,48 68,46 67,46 64,43" stroke="black" stroke-width="1" /><polygon fill="none" id="2" points="47,40 47,44 48,45 48,46 46,48 42,48 41,47 40,47 39,48 39,50 45,50 46,49 48,51 48,56 47,57 46,57 45,58 44,58 43,59 42,59 38,63 38,67 41,70 42,70 43,71 49,71 50,70 50,59 52,57 62,57 63,58 64,58 67,61 67,64 64,67 63,67 62,68 60,68 59,69 54,69 55,70 55,71 61,71 62,70 64,70 65,69 66,69 69,66 69,65 70,64 70,60 69,59 69,58 68,57 67,57 66,56 64,56 63,55 53,55 52,56 51,56 50,55 50,50 51,49 56,49 57,48 58,48 58,46 55,46 54,47 51,47 50,46 50,42 51,41 50,40" stroke="black" stroke-width="1" /><polygon fill="none" id="3" points="46,59 47,59 48,60 48,63 47,64 47,65 48,66 48,67 46,69 44,69 41,66 41,64" stroke="black" stroke-width="1" /></svg>