<?xml version="1.0" encoding="utf-8" ?>
<svg baseProfile="full" height="100" version="1.1" width="100" xmlns="http://www.w3.org/2000/svg" xmlns:ev="http://www.w3.org/2001/xml-events" xmlns:xlink="http://www.w3.org/1999/xlink"><defs /><polygon fill="none" id="1" points="52,43 50,45 53,48 54,48 56,50 56,51 57,52 59,50 59,49 57,47 56,47" stroke="black" stroke-width="1" /><polygon fill="none" id="2" points="39,40 39,47 38,48 35,48 34,47 32,47 32,50 38,50 39,51 39,56 37,58 36,58 34,60 33,60 33,61 31,63 31,67 34,70 35,70 36,71 40,71 41,70 41,59 43,57 51,57 52,58 53,58 54,59 54,60 55,61 55,64 51,68 49,68 48,69 44,69 45,70 45,71 50,71 51,70 52,70 53,69 54,69 56,67 56,66 57,65 57,59 54,56 53,56 52,55 44,55 43,56 42,56 41,55 41,50 42,49 46,49 47,48 47,46 45,46 44,47 42,47 41,46 41,40" stroke="black" stroke-width="1" /><polygon fill="none" id="3" points="38,59 39,60 39,68 38,69 36,69 33,66 33,64" stroke="black" stroke-width="1" /></svg>