<?xml version="1.0" encoding="utf-8" ?>
<svg baseProfile="full" height="100" version="1.1" width="100" xmlns="http://www.w3.org/2000/svg" xmlns:ev="http://www.w3.org/2001/xml-events" xmlns:xlink="http://www.w3.org/1999/xlink"><defs /><polygon fill="none" id="1" points="69,43 67,45 68,46 69,46 71,48 72,48 75,51 76,51 77,52 77,51 78,50 79,50 79,49 78,49 76,47 75,47 74,46 73,46 70,43" stroke="black" stroke-width="1" /><polygon fill="none" id="2" points="52,40 52,46 50,48 46,48 45,47 43,47 43,50 51,50 52,51 52,56 50,58 48,58 47,59 46,59 44,61 43,61 43,62 42,63 42,64 41,65 41,66 42,67 42,68 43,69 44,69 45,70 46,70 47,71 53,71 55,69 55,60 54,59 55,58 56,58 57,57 68,57 69,58 70,58 73,61 73,64 70,67 69,67 68,68 66,68 65,69 59,69 60,70 60,71 67,71 68,70 70,70 71,69 72,69 73,68 74,68 76,66 76,63 77,62 76,61 76,59 74,57 73,57 72,56 70,56 69,55 58,55 57,56 56,56 55,55 55,50 56,49 61,49 62,48 64,48 63,47 63,46 60,46 59,47 55,47 54,46 55,45 55,40" stroke="black" stroke-width="1" /><polygon fill="none" id="3" points="50,60 51,59 52,60 52,68 51,69 48,69 45,66 45,64 49,60" stroke="black" stroke-width="1" /></svg>