<?xml version="1.0" encoding="utf-8" ?>
<svg baseProfile="full" height="100" version="1.1" width="100" xmlns="http://www.w3.org/2000/svg" xmlns:ev="http://www.w3.org/2001/xml-events" xmlns:xlink="http://www.w3.org/1999/xlink"><defs /><polygon fill="none" id="1" points="46,43 45,44 45,47 51,53 52,53 52,52 53,51 53,49 47,43" stroke="black" stroke-width="1" /><polygon fill="none" id="2" points="35,40 34,41 34,44 35,45 35,46 33,48 32,48 31,47 29,47 29,51 34,51 35,52 35,56 33,58 32,58 28,62 28,69 30,71 31,71 32,72 36,72 37,71 37,60 39,58 45,58 46,59 47,59 48,60 48,61 49,62 49,63 48,64 48,65 45,68 44,68 43,69 40,69 40,72 45,72 46,71 47,71 48,70 49,70 50,69 50,68 51,67 51,66 52,65 52,61 51,60 51,58 49,56 48,56 47,55 39,55 38,56 37,55 37,51 38,50 42,50 43,49 43,46 40,46 39,47 38,47 37,46 37,43 38,42 38,41 37,40" stroke="black" stroke-width="1" /><polygon fill="none" id="3" points="34,61 35,62 35,67 33,69 30,66 31,65 31,64" stroke="black" stroke-width="1" /></svg>