<?xml version="1.0" encoding="utf-8" ?>
<svg baseProfile="full" height="100" version="1.1" width="100" xmlns="http://www.w3.org/2000/svg" xmlns:ev="http://www.w3.org/2001/xml-events" xmlns:xlink="http://www.w3.org/1999/xlink"><defs /><polygon fill="none" id="1" points="52,43 50,45 50,46 53,49 54,49 56,51 56,52 57,53 58,53 60,51 60,49 58,47 57,47 53,43" stroke="black" stroke-width="1" /><polygon fill="none" id="2" points="39,40 39,47 38,48 36,48 35,47 32,47 32,51 38,51 39,52 39,56 37,58 36,58 34,60 33,60 33,61 31,63 31,68 34,71 35,71 36,72 41,72 42,71 42,60 44,58 51,58 52,59 53,59 54,60 54,61 55,62 55,64 51,68 49,68 48,69 44,69 44,70 45,71 45,72 51,72 52,71 53,71 54,70 55,70 57,68 57,67 58,66 58,59 55,56 54,56 53,55 44,55 43,56 42,55 42,51 43,50 47,50 48,49 48,46 45,46 44,47 43,47 42,46 42,40" stroke="black" stroke-width="1" /><polygon fill="none" id="3" points="38,61 39,62 39,68 38,69 37,69 34,66 34,65" stroke="black" stroke-width="1" /></svg>