<?xml version="1.0" encoding="utf-8" ?>
<svg baseProfile="full" height="100" version="1.1" width="100" xmlns="http://www.w3.org/2000/svg" xmlns:ev="http://www.w3.org/2001/xml-events" xmlns:xlink="http://www.w3.org/1999/xlink"><defs /><polygon fill="none" id="1" points="57,43 57,44 56,45 56,46 59,49 60,49 64,53 65,53 65,52 66,51 66,49 63,46 62,46 59,43" stroke="black" stroke-width="1" /><polygon fill="none" id="2" points="43,40 43,47 42,48 40,48 39,47 36,47 36,51 42,51 43,52 43,56 41,58 40,58 38,60 37,60 35,62 35,64 34,65 34,66 35,67 35,69 36,70 37,70 38,71 39,71 40,72 45,72 46,71 46,70 47,69 47,61 46,60 48,58 56,58 57,59 59,59 60,60 60,61 61,62 61,64 57,68 55,68 54,69 49,69 49,70 50,71 50,72 56,72 57,71 59,71 60,70 61,70 64,67 64,65 65,64 65,62 64,61 64,59 61,56 60,56 59,55 48,55 47,56 46,55 46,51 47,50 52,50 53,49 54,49 54,47 53,46 50,46 49,47 47,47 46,46 47,45 47,40" stroke="black" stroke-width="1" /><polygon fill="none" id="3" points="42,61 43,62 43,68 42,69 41,69 38,66 38,65" stroke="black" stroke-width="1" /></svg>