<?xml version="1.0" encoding="utf-8" ?>
<svg baseProfile="full" height="100" version="1.1" width="100" xmlns="http://www.w3.org/2000/svg" xmlns:ev="http://www.w3.org/2001/xml-events" xmlns:xlink="http://www.w3.org/1999/xlink"><defs /><polygon fill="none" id="1" points="63,43 61,45 61,46 62,47 63,47 65,49 66,49 70,53 71,53 73,51 73,49 72,48 71,48 69,46 68,46 65,43" stroke="black" stroke-width="1" /><polygon fill="none" id="2" points="47,40 47,45 48,46 46,48 43,48 42,47 40,47 39,48 39,51 47,51 48,52 48,56 47,57 46,57 45,58 44,58 43,59 42,59 38,63 38,68 41,71 42,71 43,72 50,72 51,71 51,60 53,58 62,58 63,59 64,59 67,62 67,64 64,67 63,67 62,68 60,68 59,69 54,69 54,70 55,71 55,72 62,72 63,71 65,71 66,70 67,70 70,67 70,66 71,65 71,60 70,59 70,58 69,57 68,57 67,56 65,56 64,55 53,55 52,56 51,55 51,51 52,50 57,50 58,49 59,49 59,46 55,46 54,47 52,47 51,46 51,43 52,42 52,41 51,40" stroke="black" stroke-width="1" /><polygon fill="none" id="3" points="47,60 48,61 48,63 47,64 47,66 48,67 46,69 45,69 42,66 42,65" stroke="black" stroke-width="1" /></svg>