<?xml version="1.0" encoding="utf-8" ?>
<svg baseProfile="full" height="100" version="1.1" width="100" xmlns="http://www.w3.org/2000/svg" xmlns:ev="http://www.w3.org/2001/xml-events" xmlns:xlink="http://www.w3.org/1999/xlink"><defs /><polygon fill="none" id="1" points="69,43 67,45 67,46 68,47 69,47 71,49 72,49 75,52 76,52 77,53 78,53 78,52 79,51 80,51 80,49 79,49 77,47 76,47 75,46 74,46 71,43" stroke="black" stroke-width="1" /><polygon fill="none" id="2" points="52,40 52,46 50,48 47,48 46,47 43,47 43,51 51,51 52,52 52,56 50,58 48,58 47,59 46,59 44,61 43,61 43,62 42,63 42,64 41,65 41,67 42,68 42,69 43,70 44,70 45,71 46,71 47,72 54,72 56,70 56,60 58,58 68,58 69,59 70,59 73,62 73,64 70,67 69,67 68,68 66,68 65,69 59,69 59,70 60,71 60,72 68,72 69,71 71,71 72,70 73,70 74,69 75,69 77,67 77,64 78,63 78,62 77,61 77,59 75,57 74,57 73,56 71,56 70,55 58,55 57,56 56,55 56,51 57,50 62,50 63,49 65,49 65,48 64,47 64,46 60,46 59,47 57,47 56,46 56,40" stroke="black" stroke-width="1" /><polygon fill="none" id="3" points="50,61 51,61 52,62 52,68 51,69 49,69 46,66 46,65" stroke="black" stroke-width="1" /></svg>