<?xml version="1.0" encoding="utf-8" ?>
<svg baseProfile="full" height="100" version="1.1" width="100" xmlns="http://www.w3.org/2000/svg" xmlns:ev="http://www.w3.org/2001/xml-events" xmlns:xlink="http://www.w3.org/1999/xlink"><defs /><polygon fill="none" id="1" points="46,45 46,46 51,51 52,50 47,45" stroke="black" stroke-width="1" /><polygon fill="none" id="2" points="36,41 35,42 35,43 36,44 36,47 34,49 31,49 30,48 30,50 35,50 36,51 36,57 34,59 33,59 29,63 29,68 31,70 32,70 33,71 35,71 36,70 36,59 38,57 46,57 47,58 48,58 49,59 49,60 50,61 50,64 49,65 49,66 46,69 45,69 44,70 41,70 41,71 44,71 45,70 46,70 47,69 48,69 49,68 49,67 50,66 50,65 51,64 51,62 50,61 50,59 48,57 47,57 46,56 40,56 39,57 37,57 36,56 36,50 37,49 41,49 42,48 42,47 41,47 40,48 37,48 36,47" stroke="black" stroke-width="1" /><polygon fill="none" id="3" points="34,59 35,59 36,60 36,68 34,70 32,70 29,67 29,65 30,64 30,63" stroke="black" stroke-width="1" /></svg>