<?xml version="1.0" encoding="utf-8" ?>
<svg baseProfile="full" height="100" version="1.1" width="100" xmlns="http://www.w3.org/2000/svg" xmlns:ev="http://www.w3.org/2001/xml-events" xmlns:xlink="http://www.w3.org/1999/xlink"><defs /><polygon fill="none" id="1" points="52,45 52,46 54,48 55,48 57,50 57,51 58,51 59,50 57,48 56,48 53,45" stroke="black" stroke-width="1" /><polygon fill="none" id="2" points="40,41 40,48 39,49 35,49 34,48 33,48 33,50 39,50 40,51 40,57 38,59 37,59 35,61 34,61 34,62 32,64 32,67 35,70 36,70 37,71 40,71 41,70 41,59 43,57 52,57 53,58 54,58 55,59 55,60 56,61 56,65 52,69 50,69 49,70 46,70 46,71 50,71 51,70 52,70 53,69 54,69 56,67 56,66 57,65 57,60 54,57 53,57 52,56 45,56 44,57 42,57 41,56 41,50 42,49 46,49 47,48 47,47 46,47 45,48 42,48 41,47 41,41" stroke="black" stroke-width="1" /><polygon fill="none" id="3" points="38,59 39,59 40,60 40,69 39,70 36,70 33,67 33,64" stroke="black" stroke-width="1" /></svg>