<?xml version="1.0" encoding="utf-8" ?>
<svg baseProfile="full" height="100" version="1.1" width="100" xmlns="http://www.w3.org/2000/svg" xmlns:ev="http://www.w3.org/2001/xml-events" xmlns:xlink="http://www.w3.org/1999/xlink"><defs /><polygon fill="none" id="1" points="58,44 58,46 60,48 61,48 64,51 65,50 62,47 61,47" stroke="black" stroke-width="1" /><polygon fill="none" id="2" points="44,41 44,48 43,49 39,49 38,48 37,48 37,50 41,50 42,49 43,49 44,50 44,57 42,59 41,59 39,61 38,61 36,63 36,68 37,69 38,69 39,70 40,70 41,71 44,71 45,70 45,69 46,68 46,62 45,61 45,59 47,57 57,57 58,58 60,58 61,59 61,60 62,61 62,65 58,69 56,69 55,70 51,70 51,71 55,71 56,70 58,70 59,69 60,69 63,66 63,64 64,63 63,62 63,60 60,57 59,57 58,56 49,56 48,57 46,57 45,56 45,50 46,49 51,49 52,48 53,48 52,47 51,47 50,48 46,48 45,47 45,45 46,44 46,41" stroke="black" stroke-width="1" /><polygon fill="none" id="3" points="42,59 43,59 44,60 44,69 43,70 40,70 37,67 37,64" stroke="black" stroke-width="1" /></svg>