<?xml version="1.0" encoding="utf-8" ?>
<svg baseProfile="full" height="100" version="1.1" width="100" xmlns="http://www.w3.org/2000/svg" xmlns:ev="http://www.w3.org/2001/xml-events" xmlns:xlink="http://www.w3.org/1999/xlink"><defs /><polygon fill="none" id="1" points="64,44 63,45 63,46 64,46 66,48 67,48 70,51 71,51 72,50 71,49 70,49 68,47 67,47" stroke="black" stroke-width="1" /><polygon fill="none" id="2" points="48,41 48,44 49,45 49,47 47,49 42,49 41,48 40,49 40,50 45,50 46,49 47,49 49,51 49,57 48,58 47,58 46,59 45,59 44,60 43,60 39,64 39,67 42,70 43,70 44,71 49,71 50,70 50,59 52,57 63,57 64,58 65,58 68,61 68,65 65,68 64,68 63,69 61,69 60,70 56,70 56,71 61,71 62,70 64,70 65,69 66,69 69,66 69,65 70,64 70,61 69,60 69,59 68,58 67,58 66,57 64,57 63,56 54,56 53,57 51,57 50,56 50,50 51,49 56,49 57,48 58,48 58,47 56,47 55,48 51,48 50,47 50,41" stroke="black" stroke-width="1" /><polygon fill="none" id="3" points="46,59 48,59 49,60 49,64 48,65 49,66 49,68 47,70 44,70 41,67 41,64" stroke="black" stroke-width="1" /></svg>