<?xml version="1.0" encoding="utf-8" ?>
<svg baseProfile="full" height="100" version="1.1" width="100" xmlns="http://www.w3.org/2000/svg" xmlns:ev="http://www.w3.org/2001/xml-events" xmlns:xlink="http://www.w3.org/1999/xlink"><defs /><polygon fill="none" id="1" points="70,44 69,45 69,46 70,46 72,48 73,48 76,51 77,51 78,50 79,50 78,50 76,48 75,48 74,47 73,47" stroke="black" stroke-width="1" /><polygon fill="none" id="2" points="53,41 53,47 51,49 46,49 45,48 44,48 44,50 52,50 53,51 53,57 51,59 49,59 48,60 47,60 45,62 44,62 44,63 43,64 43,65 42,66 43,67 43,68 44,69 45,69 46,70 47,70 48,71 53,71 55,69 55,61 54,60 54,59 55,58 56,58 57,57 69,57 70,58 71,58 74,61 74,65 71,68 70,68 69,69 67,69 66,70 61,70 61,71 67,71 68,70 70,70 71,69 72,69 73,68 74,68 76,66 76,60 74,58 73,58 72,57 70,57 69,56 59,56 58,57 56,57 55,56 55,50 56,49 61,49 62,48 63,48 63,47 61,47 60,48 55,48 54,47 54,46 55,45 55,41" stroke="black" stroke-width="1" /><polygon fill="none" id="3" points="50,60 51,59 52,59 53,60 53,69 52,70 48,70 45,67 45,64 49,60" stroke="black" stroke-width="1" /></svg>