<?xml version="1.0" encoding="utf-8" ?>
<svg baseProfile="full" height="100" version="1.1" width="100" xmlns="http://www.w3.org/2000/svg" xmlns:ev="http://www.w3.org/2001/xml-events" xmlns:xlink="http://www.w3.org/1999/xlink"><defs /><polygon fill="none" id="1" points="34,39 33,40 33,44 34,45 32,47 31,46 28,46 28,51 33,51 34,52 34,55 32,57 31,57 27,61 27,69 29,71 30,71 31,72 36,72 37,71 37,60 39,58 44,58 45,59 46,59 47,60 47,61 48,62 47,63 47,64 44,67 43,67 42,68 39,68 39,72 45,72 46,71 47,71 48,70 49,70 50,69 50,68 51,67 51,66 52,65 52,60 51,59 51,57 49,55 48,55 47,54 38,54 37,53 37,51 38,50 42,50 43,49 43,48 44,47 50,53 52,53 52,52 53,51 53,48 47,42 45,42 44,43 44,44 43,45 39,45 38,46 37,45 37,43 38,42 38,40 37,39" stroke="black" stroke-width="1" /><polygon fill="none" id="2" points="33,62 34,63 34,66 33,67 32,67 31,66 31,64" stroke="black" stroke-width="1" /></svg>