<?xml version="1.0" encoding="utf-8" ?>
<svg baseProfile="full" height="100" version="1.1" width="100" xmlns="http://www.w3.org/2000/svg" xmlns:ev="http://www.w3.org/2001/xml-events" xmlns:xlink="http://www.w3.org/1999/xlink"><defs /><polygon fill="none" id="1" points="42,39 42,46 41,47 40,47 39,46 35,46 35,51 41,51 42,52 42,55 40,57 39,57 37,59 36,59 34,61 34,63 33,64 33,66 34,67 34,69 35,70 36,70 37,71 38,71 39,72 45,72 46,71 46,70 47,69 49,71 49,72 56,72 57,71 59,71 60,70 61,70 64,67 64,65 65,64 65,61 64,60 64,58 61,55 60,55 59,54 47,54 46,53 46,51 47,50 52,50 53,49 54,49 54,47 55,46 58,49 59,49 63,53 65,53 65,52 66,51 66,48 63,45 62,45 59,42 56,42 56,43 55,44 55,45 54,46 53,45 49,45 48,46 47,45 47,39" stroke="black" stroke-width="1" /><polygon fill="none" id="2" points="41,62 42,63 42,67 41,68 38,65" stroke="black" stroke-width="1" /><polygon fill="none" id="3" points="47,59 48,58 55,58 56,59 58,59 59,60 59,61 60,62 60,63 56,67 54,67 53,68 48,68 47,67" stroke="black" stroke-width="1" /></svg>