<?xml version="1.0" encoding="utf-8" ?>
<svg baseProfile="full" height="100" version="1.1" width="100" xmlns="http://www.w3.org/2000/svg" xmlns:ev="http://www.w3.org/2001/xml-events" xmlns:xlink="http://www.w3.org/1999/xlink"><defs /><polygon fill="none" id="1" points="46,39 46,46 45,47 43,47 42,46 39,46 38,47 38,51 46,51 47,52 47,55 46,56 45,56 44,57 43,57 42,58 41,58 37,62 37,68 40,71 41,71 42,72 50,72 51,71 51,60 53,58 61,58 62,59 63,59 66,62 66,63 63,66 62,66 61,67 59,67 58,68 53,68 53,70 54,71 54,72 62,72 63,71 65,71 66,70 67,70 70,67 70,66 71,65 71,59 70,58 70,57 69,56 68,56 67,55 65,55 64,54 52,54 51,53 51,51 52,50 57,50 58,49 59,49 59,47 60,46 61,47 62,47 64,49 65,49 69,53 71,53 73,51 73,48 72,47 71,47 69,45 68,45 65,42 62,42 59,45 54,45 53,46 52,46 51,45 51,43 52,42 52,40 51,39" stroke="black" stroke-width="1" /><polygon fill="none" id="2" points="45,62 46,63 46,67 45,68 42,65" stroke="black" stroke-width="1" /><polygon fill="none" id="3" points="45,62 46,61 47,62 46,63" stroke="black" stroke-width="1" /></svg>