<?xml version="1.0" encoding="utf-8" ?>
<svg baseProfile="full" height="100" version="1.1" width="100" xmlns="http://www.w3.org/2000/svg" xmlns:ev="http://www.w3.org/2001/xml-events" xmlns:xlink="http://www.w3.org/1999/xlink"><defs /><polygon fill="none" id="1" points="51,39 51,45 49,47 47,47 46,46 42,46 42,51 50,51 51,52 51,55 49,57 47,57 46,58 45,58 43,60 42,60 42,61 41,62 41,63 40,64 40,67 41,68 41,69 42,70 43,70 44,71 45,71 46,72 54,72 56,70 56,60 58,58 67,58 68,59 69,59 72,62 72,63 69,66 68,66 67,67 65,67 64,68 58,68 58,70 59,71 59,72 68,72 69,71 71,71 72,70 73,70 74,69 75,69 77,67 77,64 78,63 78,61 77,60 77,58 75,56 74,56 73,55 71,55 70,54 57,54 56,53 56,51 57,50 62,50 63,49 65,49 65,47 66,46 67,47 68,47 70,49 71,49 74,52 75,52 76,53 78,53 78,52 79,51 80,51 80,48 79,48 77,46 76,46 75,45 74,45 71,42 68,42 66,44 66,46 65,47 64,46 64,45 59,45 58,46 57,46 56,45 56,39" stroke="black" stroke-width="1" /><polygon fill="none" id="2" points="50,61 51,62 51,67 50,68 49,68 46,65" stroke="black" stroke-width="1" /></svg>