<?xml version="1.0" encoding="utf-8" ?>
<svg baseProfile="full" height="100" version="1.1" width="100" xmlns="http://www.w3.org/2000/svg" xmlns:ev="http://www.w3.org/2001/xml-events" xmlns:xlink="http://www.w3.org/1999/xlink"><defs /><polygon fill="none" id="1" points="41,70 43,70" stroke="black" stroke-width="1" /><polygon fill="none" id="2" points="45,69" stroke="black" stroke-width="1" /><polygon fill="none" id="3" points="35,69 34,70 33,70 34,70" stroke="black" stroke-width="1" /><polygon fill="none" id="4" points="48,67 47,68" stroke="black" stroke-width="1" /><polygon fill="none" id="5" points="49,65" stroke="black" stroke-width="1" /><polygon fill="none" id="6" points="29,63" stroke="black" stroke-width="1" /><polygon fill="none" id="7" points="50,62 50,63" stroke="black" stroke-width="1" /><polygon fill="none" id="8" points="49,59" stroke="black" stroke-width="1" /><polygon fill="none" id="9" points="47,57" stroke="black" stroke-width="1" /><polygon fill="none" id="10" points="36,57 35,58" stroke="black" stroke-width="1" /><polygon fill="none" id="11" points="40,56 45,56" stroke="black" stroke-width="1" /><polygon fill="none" id="12" points="41,47 40,48 35,48 34,49 30,49 35,49 36,48 40,48" stroke="black" stroke-width="1" /><polygon fill="none" id="13" points="46,45 50,49" stroke="black" stroke-width="1" /><polygon fill="none" id="14" points="35,42" stroke="black" stroke-width="1" /></svg>