<?xml version="1.0" encoding="utf-8" ?>
<svg baseProfile="full" height="100" version="1.1" width="100" xmlns="http://www.w3.org/2000/svg" xmlns:ev="http://www.w3.org/2001/xml-events" xmlns:xlink="http://www.w3.org/1999/xlink"><defs /><polygon fill="none" id="1" points="50,69 49,70 46,70 49,70 50,69 51,69" stroke="black" stroke-width="1" /><polygon fill="none" id="2" points="55,66 53,68" stroke="black" stroke-width="1" /><polygon fill="none" id="3" points="32,64 32,66" stroke="black" stroke-width="1" /><polygon fill="none" id="4" points="34,61" stroke="black" stroke-width="1" /><polygon fill="none" id="5" points="55,59 56,60 56,64 56,60" stroke="black" stroke-width="1" /><polygon fill="none" id="6" points="53,57" stroke="black" stroke-width="1" /><polygon fill="none" id="7" points="45,56 51,56" stroke="black" stroke-width="1" /><polygon fill="none" id="8" points="56,48 57,49 57,50 57,49" stroke="black" stroke-width="1" /><polygon fill="none" id="9" points="52,45 54,47" stroke="black" stroke-width="1" /><polygon fill="none" id="10" points="40,41 40,48 39,49 34,49 33,48 33,49 39,49 40,50 40,57 39,58 40,59 40,69 39,70 37,70 39,70 40,69 40,58 41,57 40,56 40,49 41,48 45,48 46,47 45,48 41,48 40,47" stroke="black" stroke-width="1" /></svg>