<?xml version="1.0" encoding="utf-8" ?>
<svg baseProfile="full" height="100" version="1.1" width="100" xmlns="http://www.w3.org/2000/svg" xmlns:ev="http://www.w3.org/2001/xml-events" xmlns:xlink="http://www.w3.org/1999/xlink"><defs /><polygon fill="none" id="1" points="51,70 54,70" stroke="black" stroke-width="1" /><polygon fill="none" id="2" points="56,69 57,69" stroke="black" stroke-width="1" /><polygon fill="none" id="3" points="38,61 36,63 36,67 37,68 36,67 36,63" stroke="black" stroke-width="1" /><polygon fill="none" id="4" points="61,59 62,60 62,65 59,68 62,65 62,60" stroke="black" stroke-width="1" /><polygon fill="none" id="5" points="49,56 57,56 58,57 59,57 58,57 57,56" stroke="black" stroke-width="1" /><polygon fill="none" id="6" points="37,48 37,49 40,49 38,49" stroke="black" stroke-width="1" /><polygon fill="none" id="7" points="58,45 60,47 61,47 63,49 61,47 60,47" stroke="black" stroke-width="1" /><polygon fill="none" id="8" points="44,41 44,57 43,58 44,59 44,69 43,70 41,70 43,70 44,69 44,68 45,67 45,62 44,61 44,58 45,57 44,56 44,49 45,48 50,48 51,47 50,48 45,48 44,47 44,44 45,43 45,41" stroke="black" stroke-width="1" /></svg>