<?xml version="1.0" encoding="utf-8" ?>
<svg baseProfile="full" height="100" version="1.1" width="100" xmlns="http://www.w3.org/2000/svg" xmlns:ev="http://www.w3.org/2001/xml-events" xmlns:xlink="http://www.w3.org/1999/xlink"><defs /><polygon fill="none" id="1" points="43,60 39,64 39,66 42,69 40,67 40,63" stroke="black" stroke-width="1" /><polygon fill="none" id="2" points="64,57 65,57 68,60 68,65 65,68 64,68 63,69 61,69 60,70 56,70 60,70 61,69 63,69 64,68 65,68 68,65 68,64 69,63 69,61 68,60 68,59 67,58 66,58 65,57" stroke="black" stroke-width="1" /><polygon fill="none" id="3" points="54,56 62,56" stroke="black" stroke-width="1" /><polygon fill="none" id="4" points="40,49 44,49" stroke="black" stroke-width="1" /><polygon fill="none" id="5" points="63,45 64,45 66,47 67,47 70,50 70,49 69,49 67,47 66,47 64,45" stroke="black" stroke-width="1" /><polygon fill="none" id="6" points="48,41 48,43 49,44 49,47 48,48 48,49 49,50 49,57 48,58 47,58 48,58 49,59 49,68 47,70 44,70 48,70 49,69 49,58 50,57 49,56 49,49 50,48 55,48 56,47 57,47 56,47 55,48 50,48 49,47 49,41" stroke="black" stroke-width="1" /></svg>