<?xml version="1.0" encoding="utf-8" ?>
<svg baseProfile="full" height="100" version="1.1" width="100" xmlns="http://www.w3.org/2000/svg" xmlns:ev="http://www.w3.org/2001/xml-events" xmlns:xlink="http://www.w3.org/1999/xlink"><defs /><polygon fill="none" id="1" points="46,30 46,36 44,38 39,38 38,37 34,37 34,39 35,40 35,42 45,42 46,43 45,44 45,48 44,49 43,49 42,50 41,50 39,52 38,52 34,56 34,57 33,58 33,60 32,61 32,67 33,68 33,69 34,69 35,70 42,70 43,69 44,69 45,68 46,68 47,69 47,70 49,70 50,69 52,69 52,64 56,60 56,59 58,57 58,56 60,54 60,53 61,52 61,51 63,49 64,50 65,50 66,51 67,51 71,55 71,60 66,65 65,65 64,66 62,66 61,67 56,67 56,70 57,71 57,72 63,72 64,71 66,71 67,70 69,70 71,68 72,68 75,65 75,64 76,63 76,61 77,60 77,56 76,55 76,52 75,51 75,50 73,48 72,48 71,47 70,47 69,46 67,46 66,45 65,45 64,44 64,42 58,42 57,41 58,40 63,40 64,39 67,39 67,34 64,34 63,35 59,35 58,36 53,36 52,35 52,30" stroke="black" stroke-width="1" /><polygon fill="none" id="2" points="44,55 45,56 45,60 46,61 42,65 41,65 40,66 39,66 37,64 37,63 38,62 38,61" stroke="black" stroke-width="1" /><polygon fill="none" id="3" points="52,50 54,50 55,51 55,52 53,54 53,55 51,57 50,56 50,52" stroke="black" stroke-width="1" /><polygon fill="none" id="4" points="54,50 55,49 56,50 55,51" stroke="black" stroke-width="1" /><polygon fill="none" id="5" points="51,42 52,41 57,41 58,42 58,44 57,45 54,45 53,46 52,46 51,45" stroke="black" stroke-width="1" /></svg>