<?xml version="1.0" encoding="utf-8" ?>
<svg baseProfile="full" height="100" version="1.1" width="100" xmlns="http://www.w3.org/2000/svg" xmlns:ev="http://www.w3.org/2001/xml-events" xmlns:xlink="http://www.w3.org/1999/xlink"><defs /><polygon fill="none" id="1" points="66,32 55,43 54,43 51,46 50,46 47,49 46,49 46,50 50,54 51,54 56,59 57,59 67,69 68,69 68,68 63,63 62,63 57,58 56,58 53,55 52,55 50,53 49,53 47,51 47,49 49,47 50,47 53,44 54,44 56,42 57,42 66,33" stroke="black" stroke-width="1" /></svg>