<?xml version="1.0" encoding="utf-8" ?>
<svg baseProfile="full" height="100" version="1.1" width="100" xmlns="http://www.w3.org/2000/svg" xmlns:ev="http://www.w3.org/2001/xml-events" xmlns:xlink="http://www.w3.org/1999/xlink"><defs /><polygon fill="none" id="1" points="47,60 45,62 44,62 44,63 43,64 43,67 44,68 45,68 46,69 44,67 44,63" stroke="black" stroke-width="1" /><polygon fill="none" id="2" points="49,59" stroke="black" stroke-width="1" /><polygon fill="none" id="3" points="70,57 71,57 74,60 74,65 71,68 70,68 69,69 67,69 66,70 61,70 66,70 67,69 69,69 70,68 71,68 72,67 73,67 75,65 75,60 73,58 72,58 71,57" stroke="black" stroke-width="1" /><polygon fill="none" id="4" points="59,56 68,56" stroke="black" stroke-width="1" /><polygon fill="none" id="5" points="69,45 70,45 72,47 73,47 76,50 76,49 75,48 74,48 73,47 72,47 70,45" stroke="black" stroke-width="1" /><polygon fill="none" id="6" points="53,41 53,47 51,49 45,49 44,48 44,49 52,49 53,50 53,57 52,58 53,59 53,69 52,70 48,70 52,70 54,68 54,61 53,60 53,58 54,57 55,57 54,56 54,49 55,48 60,48 61,47 62,47 61,47 60,48 54,48 53,47 53,45 54,44 54,41" stroke="black" stroke-width="1" /></svg>