<?xml version="1.0" encoding="utf-8" ?>
<svg baseProfile="full" height="100" version="1.1" width="100" xmlns="http://www.w3.org/2000/svg" xmlns:ev="http://www.w3.org/2001/xml-events" xmlns:xlink="http://www.w3.org/1999/xlink"><defs /><polygon fill="none" id="1" points="46,32 46,33 47,34 47,42 46,43 45,43 44,44 38,44 37,43 36,43 36,46 45,46 46,45 47,46 47,58 46,59 46,62 45,63 45,64 40,69 39,69 38,70 40,72 41,72 46,67 46,66 47,65 47,64 48,63 48,61 49,60 49,46 50,45 53,45 54,44 55,44 55,41 54,41 53,42 51,42 50,43 49,42 49,32" stroke="black" stroke-width="1" /><polygon fill="none" id="2" points="28,32 28,36 27,37 27,42 26,43 26,62 27,63 27,68 28,69 29,69 30,68 30,63 31,62 31,60 32,59 32,58 33,57 33,55 32,54 31,55 31,57 30,58 30,59 29,60 28,59 28,46 29,45 29,38 30,37 30,33 29,33" stroke="black" stroke-width="1" /></svg>