<?xml version="1.0" encoding="utf-8" ?>
<svg baseProfile="full" height="100" version="1.1" width="100" xmlns="http://www.w3.org/2000/svg" xmlns:ev="http://www.w3.org/2001/xml-events" xmlns:xlink="http://www.w3.org/1999/xlink"><defs /><polygon fill="none" id="1" points="52,32 52,34 53,35 53,42 52,43 51,43 50,44 42,44 41,43 40,43 40,46 51,46 52,45 53,46 53,57 52,58 52,61 51,62 51,63 45,69 44,69 43,70 45,72 46,72 48,70 49,70 52,67 52,66 53,65 53,64 54,63 54,62 55,61 55,55 56,54 56,48 55,47 55,46 56,45 60,45 61,44 62,44 62,41 61,41 60,42 58,42 57,43 56,43 55,42 55,32" stroke="black" stroke-width="1" /><polygon fill="none" id="2" points="32,32 31,33 31,39 30,40 30,46 29,47 29,58 30,59 30,65 31,66 31,69 33,69 33,67 34,66 34,63 35,62 35,60 36,59 36,58 37,57 37,55 36,54 35,55 35,57 34,58 34,59 33,60 32,60 31,59 31,51 32,50 32,42 33,41 33,37 34,36 34,33 33,33" stroke="black" stroke-width="1" /></svg>