<?xml version="1.0" encoding="utf-8" ?>
<svg baseProfile="full" height="100" version="1.1" width="100" xmlns="http://www.w3.org/2000/svg" xmlns:ev="http://www.w3.org/2001/xml-events" xmlns:xlink="http://www.w3.org/1999/xlink"><defs /><polygon fill="none" id="1" points="58,32 58,35 59,36 59,42 58,43 56,43 55,44 47,44 46,43 45,43 45,46 57,46 58,45 59,46 59,57 58,58 58,60 57,61 57,62 56,63 56,64 52,68 51,68 50,69 49,69 48,70 50,72 51,72 52,71 53,71 59,65 59,64 60,63 60,62 61,61 61,57 62,56 62,46 63,45 66,45 67,44 69,44 69,41 68,41 67,42 64,42 63,43 61,41 62,40 62,38 61,37 61,32" stroke="black" stroke-width="1" /><polygon fill="none" id="2" points="35,32 35,36 34,37 34,41 33,42 33,48 32,49 32,56 33,57 33,63 34,64 34,68 35,69 37,69 37,66 38,65 38,63 39,62 39,60 40,59 40,58 41,57 41,56 42,55 41,55 40,54 39,55 39,56 38,57 38,59 36,61 35,60 35,47 36,46 36,41 37,40 37,36 38,35 38,33 37,33 36,32" stroke="black" stroke-width="1" /></svg>