<?xml version="1.0" encoding="utf-8" ?>
<svg baseProfile="full" height="100" version="1.1" width="100" xmlns="http://www.w3.org/2000/svg" xmlns:ev="http://www.w3.org/2001/xml-events" xmlns:xlink="http://www.w3.org/1999/xlink"><defs /><polygon fill="none" id="1" points="64,32 64,36 65,37 65,42 64,43 62,43 61,44 51,44 50,43 49,43 49,46 63,46 64,45 65,46 65,56 64,57 64,60 63,61 63,62 57,68 56,68 55,69 53,69 53,70 55,72 56,72 57,71 58,71 59,70 60,70 65,65 65,64 66,63 66,62 67,61 67,58 68,57 68,46 69,45 73,45 74,44 76,44 76,41 75,41 74,42 71,42 70,43 69,43 68,42 68,32" stroke="black" stroke-width="1" /><polygon fill="none" id="2" points="39,32 38,33 38,37 37,38 37,42 36,43 36,50 35,51 35,54 36,55 36,62 37,63 37,67 38,68 38,69 40,69 41,68 41,66 42,65 42,62 43,61 43,60 44,59 44,58 46,56 46,55 45,55 44,54 43,55 43,56 42,57 42,59 40,61 39,60 39,46 40,45 40,40 41,39 41,36 42,35 42,33 40,33" stroke="black" stroke-width="1" /></svg>