<?xml version="1.0" encoding="utf-8" ?>
<svg baseProfile="full" height="100" version="1.1" width="100" xmlns="http://www.w3.org/2000/svg" xmlns:ev="http://www.w3.org/2001/xml-events" xmlns:xlink="http://www.w3.org/1999/xlink"><defs /><polygon fill="none" id="1" points="51,30 51,36 50,37 49,37 48,38 42,38 41,37 38,37 38,42 49,42 50,43 50,47 48,49 47,49 46,50 45,50 44,51 43,51 36,58 36,60 35,61 35,67 36,68 36,69 37,69 38,70 46,70 47,69 48,69 49,68 50,68 52,70 54,70 55,69 57,69 57,66 56,65 56,64 57,63 58,63 61,60 61,59 65,55 65,54 66,53 66,52 67,51 67,50 68,49 69,49 70,50 72,50 74,52 75,52 76,53 76,54 77,55 77,56 78,57 78,58 77,59 77,60 76,61 76,62 74,64 73,64 72,65 71,65 70,66 68,66 67,67 62,67 61,68 61,70 63,72 69,72 70,71 72,71 73,70 75,70 76,69 77,69 79,67 80,67 82,65 82,64 83,63 83,60 84,59 84,56 83,55 83,52 78,47 76,47 75,46 73,46 72,45 71,45 70,44 70,43 69,42 64,42 64,44 63,45 58,45 57,46 56,46 55,45 55,42 56,41 62,41 63,40 69,40 70,39 73,39 73,34 70,34 69,35 65,35 64,36 58,36 57,37 56,36 56,34 57,33 57,30" stroke="black" stroke-width="1" /><polygon fill="none" id="2" points="48,55 49,54 50,55 50,61 46,65 44,65 43,66 42,66 41,65 41,62 43,60 43,59 47,55" stroke="black" stroke-width="1" /><polygon fill="none" id="3" points="55,51 56,50 59,50 60,51 60,52 58,54 58,55 56,57 55,56" stroke="black" stroke-width="1" /><polygon fill="none" id="4" points="59,50 60,49 61,50 60,51" stroke="black" stroke-width="1" /></svg>