<?xml version="1.0" encoding="utf-8" ?>
<svg baseProfile="full" height="100" version="1.1" width="100" xmlns="http://www.w3.org/2000/svg" xmlns:ev="http://www.w3.org/2001/xml-events" xmlns:xlink="http://www.w3.org/1999/xlink"><defs /><polygon fill="none" id="1" points="46,32 46,34 47,35 47,42 46,43 45,43 44,44 39,44 38,43 36,43 36,47 46,47 47,48 47,58 46,59 46,62 45,63 45,64 40,69 39,69 38,70 38,71 40,73 42,73 47,68 47,67 48,66 48,65 49,64 49,62 50,61 50,47 51,46 54,46 55,45 56,45 56,41 54,41 53,42 51,42 50,41 50,32" stroke="black" stroke-width="1" /><polygon fill="none" id="2" points="28,32 28,36 27,37 27,42 26,43 26,63 27,64 27,69 28,70 30,70 31,69 31,64 32,63 32,61 33,60 33,59 34,58 34,55 33,54 32,54 31,55 31,57 30,58 29,57 29,47 30,46 30,39 31,38 31,33 30,33 29,32" stroke="black" stroke-width="1" /></svg>