<?xml version="1.0" encoding="utf-8" ?>
<svg baseProfile="full" height="100" version="1.1" width="100" xmlns="http://www.w3.org/2000/svg" xmlns:ev="http://www.w3.org/2001/xml-events" xmlns:xlink="http://www.w3.org/1999/xlink"><defs /><polygon fill="none" id="1" points="52,32 52,35 53,36 53,42 52,43 51,43 50,44 43,44 42,43 40,43 40,47 52,47 53,48 53,57 52,58 52,61 51,62 51,63 45,69 44,69 43,70 43,71 45,73 47,73 49,71 50,71 53,68 53,67 54,66 54,65 55,64 55,63 56,62 56,56 57,55 57,48 56,47 57,46 61,46 62,45 63,45 63,41 61,41 60,42 58,42 57,43 56,42 56,32" stroke="black" stroke-width="1" /><polygon fill="none" id="2" points="32,32 31,33 31,39 30,40 30,46 29,47 29,59 30,60 30,66 31,67 31,70 34,70 34,68 35,67 35,64 36,63 36,61 37,60 37,59 38,58 38,55 37,54 36,54 35,55 35,57 34,58 34,59 33,60 32,59 32,52 33,51 33,43 34,42 34,38 35,37 35,33 34,33 33,32" stroke="black" stroke-width="1" /></svg>