<?xml version="1.0" encoding="utf-8" ?>
<svg baseProfile="full" height="100" version="1.1" width="100" xmlns="http://www.w3.org/2000/svg" xmlns:ev="http://www.w3.org/2001/xml-events" xmlns:xlink="http://www.w3.org/1999/xlink"><defs /><polygon fill="none" id="1" points="58,32 58,36 59,37 59,42 58,43 56,43 55,44 48,44 47,43 45,43 45,47 58,47 59,48 59,57 58,58 58,60 57,61 57,62 56,63 56,64 52,68 51,68 50,69 49,69 48,70 48,71 50,73 52,73 53,72 54,72 60,66 60,65 61,64 61,63 62,62 62,58 63,57 63,47 64,46 67,46 68,45 70,45 70,41 68,41 67,42 64,42 63,41 63,38 62,37 62,32" stroke="black" stroke-width="1" /><polygon fill="none" id="2" points="35,32 35,36 34,37 34,41 33,42 33,48 32,49 32,57 33,58 33,64 34,65 34,69 35,70 38,70 38,67 39,66 39,64 40,63 40,61 41,60 41,59 42,58 42,57 43,56 43,55 42,55 41,54 40,54 39,55 39,56 38,57 38,59 37,60 36,59 36,48 37,47 37,42 38,41 38,37 39,36 39,33 38,33 37,32" stroke="black" stroke-width="1" /></svg>