<?xml version="1.0" encoding="utf-8" ?>
<svg baseProfile="full" height="100" version="1.1" width="100" xmlns="http://www.w3.org/2000/svg" xmlns:ev="http://www.w3.org/2001/xml-events" xmlns:xlink="http://www.w3.org/1999/xlink"><defs /><polygon fill="none" id="1" points="64,32 64,37 65,38 65,42 64,43 62,43 61,44 52,44 51,43 49,43 49,47 64,47 65,48 65,56 64,57 64,60 63,61 63,62 57,68 56,68 55,69 53,69 53,71 55,73 57,73 58,72 59,72 60,71 61,71 66,66 66,65 67,64 67,63 68,62 68,59 69,58 69,47 70,46 74,46 75,45 77,45 77,41 75,41 74,42 71,42 70,43 69,42 69,32" stroke="black" stroke-width="1" /><polygon fill="none" id="2" points="39,32 38,33 38,37 37,38 37,42 36,43 36,50 35,51 35,55 36,56 36,63 37,64 37,68 38,69 38,70 41,70 42,69 42,67 43,66 43,63 44,62 44,61 45,60 45,59 47,57 47,55 46,55 45,54 44,54 43,55 43,56 42,57 42,59 41,60 40,59 40,47 41,46 41,41 42,40 42,37 43,36 43,33 41,33 40,32" stroke="black" stroke-width="1" /></svg>