<?xml version="1.0" encoding="utf-8" ?>
<svg baseProfile="full" height="100" version="1.1" width="100" xmlns="http://www.w3.org/2000/svg" xmlns:ev="http://www.w3.org/2001/xml-events" xmlns:xlink="http://www.w3.org/1999/xlink"><defs /><polygon fill="none" id="1" points="70,32 70,38 71,39 71,42 70,43 68,43 67,44 57,44 56,43 54,43 54,47 70,47 71,48 71,56 70,57 70,60 68,62 68,63 64,67 63,67 62,68 61,68 60,69 58,69 57,70 57,71 58,71 59,72 60,72 61,73 63,73 65,71 66,71 67,70 68,70 72,66 72,65 73,64 73,63 74,62 74,60 75,59 75,53 76,52 76,50 75,49 75,47 76,46 81,46 82,45 84,45 84,41 81,41 80,42 77,42 76,43 75,42 75,32" stroke="black" stroke-width="1" /><polygon fill="none" id="2" points="42,32 42,36 41,37 41,40 40,41 40,45 39,46 39,60 40,61 40,65 41,66 41,69 42,70 45,70 46,69 46,66 47,65 47,63 48,62 48,61 49,60 49,59 51,57 51,55 50,55 49,54 48,54 47,55 47,56 46,57 46,58 44,60 43,59 43,49 44,48 44,44 45,43 45,40 46,39 46,37 47,36 47,33 45,33 44,32" stroke="black" stroke-width="1" /></svg>