<?xml version="1.0" encoding="utf-8" ?>
<svg baseProfile="full" height="100" version="1.1" width="100" xmlns="http://www.w3.org/2000/svg" xmlns:ev="http://www.w3.org/2001/xml-events" xmlns:xlink="http://www.w3.org/1999/xlink"><defs /><polygon fill="none" id="1" points="29,34 29,37 28,38 28,43 27,44 27,62 28,63 28,68 29,69 30,68 30,63 31,62 31,60 32,59 32,58 33,57 33,56 32,56 32,58 31,59 31,60 30,61 29,61 28,60 28,46 29,45 29,38 30,37 30,34" stroke="black" stroke-width="1" /><polygon fill="none" id="2" points="47,33 48,34 48,43 47,44 46,44 45,45 38,45 37,44 37,46 45,46 46,45 47,45 48,46 48,59 47,60 47,63 46,64 46,65 41,70 40,70 40,71 41,72 46,67 46,66 47,65 47,64 48,63 48,61 49,60 49,46 50,45 53,45 54,44 55,44 55,42 54,43 52,43 51,44 50,44 49,43 49,33" stroke="black" stroke-width="1" /></svg>