<?xml version="1.0" encoding="utf-8" ?>
<svg baseProfile="full" height="100" version="1.1" width="100" xmlns="http://www.w3.org/2000/svg" xmlns:ev="http://www.w3.org/2001/xml-events" xmlns:xlink="http://www.w3.org/1999/xlink"><defs /><polygon fill="none" id="1" points="32,34 32,40 31,41 31,47 30,48 30,58 31,59 31,65 32,66 32,69 33,69 33,67 34,66 34,63 35,62 35,60 36,59 36,58 37,57 37,56 36,56 36,58 35,59 35,60 34,61 32,61 31,60 31,51 32,50 32,42 33,41 33,37 34,36 34,34" stroke="black" stroke-width="1" /><polygon fill="none" id="2" points="53,33 53,34 54,35 54,43 53,44 52,44 51,45 42,45 41,44 41,46 51,46 52,45 53,45 54,46 54,58 53,59 53,62 52,63 52,64 46,70 45,70 45,71 46,72 48,70 49,70 52,67 52,66 53,65 53,64 54,63 54,62 55,61 55,55 56,54 56,49 55,48 55,46 56,45 60,45 61,44 62,44 62,42 61,43 59,43 58,44 56,44 55,43 55,33" stroke="black" stroke-width="1" /></svg>