<?xml version="1.0" encoding="utf-8" ?>
<svg baseProfile="full" height="100" version="1.1" width="100" xmlns="http://www.w3.org/2000/svg" xmlns:ev="http://www.w3.org/2001/xml-events" xmlns:xlink="http://www.w3.org/1999/xlink"><defs /><polygon fill="none" id="1" points="59,33 59,35 60,36 60,43 59,44 57,44 56,45 47,45 46,44 46,46 57,46 58,45 59,45 60,46 60,58 59,59 59,61 58,62 58,63 57,64 57,65 53,69 52,69 51,70 50,70 50,71 51,72 52,71 53,71 59,65 59,64 60,63 60,62 61,61 61,57 62,56 62,46 63,45 66,45 67,44 69,44 69,42 68,43 65,43 64,44 63,44 61,42 61,41 62,40 62,39 61,38 61,33" stroke="black" stroke-width="1" /><polygon fill="none" id="2" points="36,33 36,37 35,38 35,42 34,43 34,49 33,50 33,56 34,57 34,63 35,64 35,68 36,69 37,69 37,66 38,65 38,63 39,62 39,60 40,59 40,58 41,57 41,56 40,56 40,57 39,58 39,60 37,62 36,62 35,61 35,47 36,46 36,41 37,40 37,36 38,35 38,34 37,34" stroke="black" stroke-width="1" /></svg>