<?xml version="1.0" encoding="utf-8" ?>
<svg baseProfile="full" height="100" version="1.1" width="100" xmlns="http://www.w3.org/2000/svg" xmlns:ev="http://www.w3.org/2001/xml-events" xmlns:xlink="http://www.w3.org/1999/xlink"><defs /><polygon fill="none" id="1" points="39,34 39,38 38,39 38,43 37,44 37,51 36,52 36,54 37,55 37,62 38,63 38,67 39,68 39,69 40,69 41,68 41,66 42,65 42,62 43,61 43,60 44,59 44,58 46,56 44,56 44,57 43,58 43,60 41,62 40,62 39,61 39,46 40,45 40,40 41,39 41,36 42,35 42,34" stroke="black" stroke-width="1" /><polygon fill="none" id="2" points="65,33 65,36 66,37 66,43 65,44 63,44 62,45 51,45 50,44 50,46 63,46 64,45 65,45 66,46 66,57 65,58 65,61 64,62 64,63 58,69 57,69 56,70 54,70 56,72 57,71 58,71 59,70 60,70 65,65 65,64 66,63 66,62 67,61 67,58 68,57 68,46 69,45 73,45 74,44 76,44 76,42 75,43 72,43 71,44 69,44 68,43 68,33" stroke="black" stroke-width="1" /></svg>