<?xml version="1.0" encoding="utf-8" ?>
<svg baseProfile="full" height="100" version="1.1" width="100" xmlns="http://www.w3.org/2000/svg" xmlns:ev="http://www.w3.org/2001/xml-events" xmlns:xlink="http://www.w3.org/1999/xlink"><defs /><polygon fill="none" id="1" points="36,67" stroke="black" stroke-width="1" /><polygon fill="none" id="2" points="52,64 48,68 47,68 46,69 43,69 43,70 44,70 45,69 46,69 47,68 48,68" stroke="black" stroke-width="1" /><polygon fill="none" id="3" points="25,62 25,66 27,68 28,68 27,68 25,66" stroke="black" stroke-width="1" /><polygon fill="none" id="4" points="35,61 35,64 34,65 35,65 35,63 36,62 36,61" stroke="black" stroke-width="1" /><polygon fill="none" id="5" points="26,59 26,60" stroke="black" stroke-width="1" /><polygon fill="none" id="6" points="28,56 27,57" stroke="black" stroke-width="1" /><polygon fill="none" id="7" points="41,54" stroke="black" stroke-width="1" /><polygon fill="none" id="8" points="53,53 53,62 53,60 54,59 54,57 53,56" stroke="black" stroke-width="1" /><polygon fill="none" id="9" points="30,53" stroke="black" stroke-width="1" /><polygon fill="none" id="10" points="42,52" stroke="black" stroke-width="1" /><polygon fill="none" id="11" points="50,49 52,51" stroke="black" stroke-width="1" /><polygon fill="none" id="12" points="44,44 44,46 43,47 41,47 42,47 43,48 43,49 43,48 44,47 46,47 45,47 44,46" stroke="black" stroke-width="1" /><polygon fill="none" id="13" points="27,40 31,40" stroke="black" stroke-width="1" /><polygon fill="none" id="14" points="45,37 44,38 41,38 44,38 45,37 47,37" stroke="black" stroke-width="1" /><polygon fill="none" id="15" points="36,32 36,33 35,34 35,38 34,39 35,40 35,49 33,51 34,51 34,50 36,48 37,48 36,48 35,47 35,40 36,39 39,39 36,39 35,38 35,34 36,33" stroke="black" stroke-width="1" /></svg>