<?xml version="1.0" encoding="utf-8" ?>
<svg baseProfile="full" height="100" version="1.1" width="100" xmlns="http://www.w3.org/2000/svg" xmlns:ev="http://www.w3.org/2001/xml-events" xmlns:xlink="http://www.w3.org/1999/xlink"><defs /><polygon fill="none" id="1" points="71,33 71,37 72,38 72,43 71,44 69,44 68,45 56,45 55,44 55,46 69,46 70,45 71,45 72,46 72,57 71,58 71,61 69,63 69,64 65,68 64,68 63,69 62,69 61,70 59,70 60,71 61,71 62,72 64,70 65,70 66,69 67,69 71,65 71,64 72,63 72,62 73,61 73,59 74,58 74,52 75,51 74,50 74,46 75,45 80,45 81,44 83,44 83,42 82,42 81,43 78,43 77,44 75,44 74,43 74,33" stroke="black" stroke-width="1" /><polygon fill="none" id="2" points="43,33 43,37 42,38 42,41 41,42 41,46 40,47 40,59 41,60 41,64 42,65 42,68 43,69 44,69 45,68 45,65 46,64 46,62 47,61 47,60 48,59 48,58 50,56 48,56 48,57 47,58 47,59 44,62 43,62 42,61 42,48 43,47 43,43 44,42 44,39 45,38 45,36 46,35 46,34 44,34" stroke="black" stroke-width="1" /></svg>