<?xml version="1.0" encoding="utf-8" ?>
<svg baseProfile="full" height="100" version="1.1" width="100" xmlns="http://www.w3.org/2000/svg" xmlns:ev="http://www.w3.org/2001/xml-events" xmlns:xlink="http://www.w3.org/1999/xlink"><defs /><polygon fill="none" id="1" points="45,31 45,34 46,35 46,41 45,42 44,42 43,43 39,43 38,42 35,42 35,47 45,47 46,48 46,57 45,58 45,61 44,62 44,63 39,68 38,68 37,69 37,71 39,73 42,73 47,68 47,67 48,66 48,65 49,64 49,62 50,61 50,47 51,46 54,46 55,45 56,45 56,40 53,40 52,41 51,41 50,40 50,31" stroke="black" stroke-width="1" /><polygon fill="none" id="2" points="27,31 27,35 26,36 26,41 25,42 25,63 26,64 26,69 27,70 30,70 31,69 31,64 32,63 32,61 33,60 33,59 34,58 34,54 33,53 31,53 30,54 29,53 29,47 30,46 30,39 31,38 31,32 30,32 29,31" stroke="black" stroke-width="1" /></svg>