<?xml version="1.0" encoding="utf-8" ?>
<svg baseProfile="full" height="100" version="1.1" width="100" xmlns="http://www.w3.org/2000/svg" xmlns:ev="http://www.w3.org/2001/xml-events" xmlns:xlink="http://www.w3.org/1999/xlink"><defs /><polygon fill="none" id="1" points="51,31 51,35 52,36 52,41 51,42 50,42 49,43 43,43 42,42 39,42 39,47 51,47 52,48 52,56 51,57 51,60 50,61 50,62 44,68 43,68 42,69 42,71 44,73 47,73 49,71 50,71 53,68 53,67 54,66 54,65 55,64 55,63 56,62 56,56 57,55 57,47 58,46 61,46 62,45 63,45 63,40 60,40 59,41 57,41 56,40 56,31" stroke="black" stroke-width="1" /><polygon fill="none" id="2" points="31,31 30,32 30,38 29,39 29,45 28,46 28,59 29,60 29,66 30,67 30,70 34,70 34,68 35,67 35,64 36,63 36,61 37,60 37,59 38,58 38,54 37,53 35,53 34,54 34,56 33,57 32,56 32,52 33,51 33,43 34,42 34,38 35,37 35,32 34,32 33,31" stroke="black" stroke-width="1" /></svg>