<?xml version="1.0" encoding="utf-8" ?>
<svg baseProfile="full" height="100" version="1.1" width="100" xmlns="http://www.w3.org/2000/svg" xmlns:ev="http://www.w3.org/2001/xml-events" xmlns:xlink="http://www.w3.org/1999/xlink"><defs /><polygon fill="none" id="1" points="57,31 57,36 58,37 58,41 57,42 55,42 54,43 48,43 47,42 44,42 44,47 57,47 58,48 58,56 57,57 57,59 56,60 56,61 55,62 55,63 51,67 50,67 49,68 48,68 47,69 47,71 49,73 52,73 53,72 54,72 60,66 60,65 61,64 61,63 62,62 62,58 63,57 63,47 64,46 67,46 68,45 70,45 70,40 67,40 66,41 64,41 63,40 63,37 62,36 62,31" stroke="black" stroke-width="1" /><polygon fill="none" id="2" points="34,31 34,35 33,36 33,40 32,41 32,47 31,48 31,57 32,58 32,64 33,65 33,69 34,70 38,70 38,67 39,66 39,64 40,63 40,61 41,60 41,59 42,58 42,57 43,56 43,54 42,54 41,53 39,53 38,54 38,55 37,56 36,55 36,48 37,47 37,42 38,41 38,37 39,36 39,32 38,32 37,31" stroke="black" stroke-width="1" /></svg>