<?xml version="1.0" encoding="utf-8" ?>
<svg baseProfile="full" height="100" version="1.1" width="100" xmlns="http://www.w3.org/2000/svg" xmlns:ev="http://www.w3.org/2001/xml-events" xmlns:xlink="http://www.w3.org/1999/xlink"><defs /><polygon fill="none" id="1" points="69,31 69,38 70,39 70,41 69,42 67,42 66,43 57,43 56,42 53,42 53,47 69,47 70,48 70,55 69,56 69,59 67,61 67,62 63,66 62,66 61,67 60,67 59,68 57,68 56,69 56,71 57,71 58,72 59,72 60,73 63,73 65,71 66,71 67,70 68,70 72,66 72,65 73,64 73,63 74,62 74,60 75,59 75,53 76,52 76,49 75,48 75,47 76,46 81,46 82,45 84,45 84,40 80,40 79,41 76,41 75,40 75,31" stroke="black" stroke-width="1" /><polygon fill="none" id="2" points="41,31 41,35 40,36 40,39 39,40 39,44 38,45 38,60 39,61 39,65 40,66 40,69 41,70 45,70 46,69 46,66 47,65 47,63 48,62 48,61 49,60 49,59 51,57 51,54 50,54 49,53 47,53 46,54 46,55 45,56 45,57 44,58 43,57 43,49 44,48 44,44 45,43 45,40 46,39 46,37 47,36 47,32 45,32 44,31" stroke="black" stroke-width="1" /></svg>