<?xml version="1.0" encoding="utf-8" ?>
<svg baseProfile="full" height="100" version="1.1" width="100" xmlns="http://www.w3.org/2000/svg" xmlns:ev="http://www.w3.org/2001/xml-events" xmlns:xlink="http://www.w3.org/1999/xlink"><defs /><polygon fill="none" id="1" points="45,66 41,70 40,70 41,70" stroke="black" stroke-width="1" /><polygon fill="none" id="2" points="46,64" stroke="black" stroke-width="1" /><polygon fill="none" id="3" points="32,56" stroke="black" stroke-width="1" /><polygon fill="none" id="4" points="37,45 44,45" stroke="black" stroke-width="1" /><polygon fill="none" id="5" points="28,38 28,43 27,44 27,61 28,62 28,67 29,67 29,62 30,61 28,61 27,60 27,45 28,44" stroke="black" stroke-width="1" /><polygon fill="none" id="6" points="29,34 29,36" stroke="black" stroke-width="1" /><polygon fill="none" id="7" points="48,33 48,43 47,44 46,44 47,44 48,45 48,59 47,60 47,62 47,60 48,59 48,45 49,44 52,44 53,43 54,43 52,43 51,44 49,44 48,43" stroke="black" stroke-width="1" /></svg>