<?xml version="1.0" encoding="utf-8" ?>
<svg baseProfile="full" height="100" version="1.1" width="100" xmlns="http://www.w3.org/2000/svg" xmlns:ev="http://www.w3.org/2001/xml-events" xmlns:xlink="http://www.w3.org/1999/xlink"><defs /><polygon fill="none" id="1" points="31,61 31,64 32,65 32,68 32,66 33,65 33,62 34,61" stroke="black" stroke-width="1" /><polygon fill="none" id="2" points="36,56" stroke="black" stroke-width="1" /><polygon fill="none" id="3" points="41,45 50,45" stroke="black" stroke-width="1" /><polygon fill="none" id="4" points="32,34 32,40 31,41 31,47 30,48 30,57 30,50 31,49 31,41 32,40 32,36 33,35 33,34" stroke="black" stroke-width="1" /><polygon fill="none" id="5" points="53,33 54,34 54,43 53,44 52,44 53,44 54,45 54,58 53,59 53,62 52,63 52,64 46,70 45,70 46,70 47,69 48,69 51,66 51,65 52,64 52,63 53,62 53,61 54,60 54,54 55,53 55,49 54,48 54,45 55,44 59,44 60,43 61,43 59,43 58,44 55,44 54,43 54,33" stroke="black" stroke-width="1" /></svg>