<?xml version="1.0" encoding="utf-8" ?>
<svg baseProfile="full" height="100" version="1.1" width="100" xmlns="http://www.w3.org/2000/svg" xmlns:ev="http://www.w3.org/2001/xml-events" xmlns:xlink="http://www.w3.org/1999/xlink"><defs /><polygon fill="none" id="1" points="39,58" stroke="black" stroke-width="1" /><polygon fill="none" id="2" points="40,56" stroke="black" stroke-width="1" /><polygon fill="none" id="3" points="36,34 36,37 35,38 35,42 34,43 34,49 33,50 33,55 34,56 34,62 35,63 35,67 36,68 36,65 37,64 37,62 38,61 37,62 35,62 34,61 34,46 35,45 35,40 36,39 36,35 37,34" stroke="black" stroke-width="1" /><polygon fill="none" id="4" points="59,33 59,34 60,35 60,43 59,44 57,44 56,45 46,45 56,45 57,44 59,44 60,45 60,58 59,59 59,61 58,62 58,63 57,64 57,65 53,69 52,69 51,70 50,70 52,70 58,64 58,63 59,62 59,61 60,60 60,56 61,55 61,45 62,44 65,44 66,43 68,43 65,43 64,44 62,44 60,42 60,40 61,39 60,38 60,33" stroke="black" stroke-width="1" /></svg>