<?xml version="1.0" encoding="utf-8" ?>
<svg baseProfile="full" height="100" version="1.1" width="100" xmlns="http://www.w3.org/2000/svg" xmlns:ev="http://www.w3.org/2001/xml-events" xmlns:xlink="http://www.w3.org/1999/xlink"><defs /><polygon fill="none" id="1" points="43,58" stroke="black" stroke-width="1" /><polygon fill="none" id="2" points="44,56" stroke="black" stroke-width="1" /><polygon fill="none" id="3" points="39,34 39,38 38,39 38,43 37,44 37,51 36,52 36,53 37,54 37,61 38,62 38,66 39,67 39,68 40,67 40,65 41,64 41,62 39,62 38,61 38,45 39,44 39,39 40,38 40,35 41,34" stroke="black" stroke-width="1" /><polygon fill="none" id="4" points="65,33 65,35 66,36 66,43 65,44 63,44 62,45 50,45 62,45 63,44 65,44 66,45 66,57 65,58 65,61 64,62 64,63 58,69 57,69 56,70 55,70 57,70 58,69 59,69 64,64 64,63 65,62 65,61 66,60 66,57 67,56 67,45 68,44 72,44 73,43 75,43 72,43 71,44 68,44 67,43 67,33" stroke="black" stroke-width="1" /></svg>