<?xml version="1.0" encoding="utf-8" ?>
<svg baseProfile="full" height="100" version="1.1" width="100" xmlns="http://www.w3.org/2000/svg" xmlns:ev="http://www.w3.org/2001/xml-events" xmlns:xlink="http://www.w3.org/1999/xlink"><defs /><polygon fill="none" id="1" points="29,60 29,62 28,63 28,65 29,66 29,67 30,68 32,68 30,68 29,67 29,66 28,65 28,63 29,62" stroke="black" stroke-width="1" /><polygon fill="none" id="2" points="44,58" stroke="black" stroke-width="1" /><polygon fill="none" id="3" points="30,58" stroke="black" stroke-width="1" /><polygon fill="none" id="4" points="46,55 45,56" stroke="black" stroke-width="1" /><polygon fill="none" id="5" points="47,53" stroke="black" stroke-width="1" /><polygon fill="none" id="6" points="34,53 31,56" stroke="black" stroke-width="1" /><polygon fill="none" id="7" points="58,51 59,52 59,53 60,54 60,61 59,62 59,63 58,64 58,65 57,66 56,66 54,68 53,68 52,69 48,69 49,70 50,70 51,69 52,69 53,68 54,68 55,67 56,67 58,65 58,64 60,62 60,59 61,58 61,57 60,56 60,54 59,53 59,52" stroke="black" stroke-width="1" /><polygon fill="none" id="8" points="54,48 55,48 56,49 55,48" stroke="black" stroke-width="1" /><polygon fill="none" id="9" points="50,44 50,46 49,47 46,47 52,47 51,47 50,46" stroke="black" stroke-width="1" /><polygon fill="none" id="10" points="30,40 35,40" stroke="black" stroke-width="1" /><polygon fill="none" id="11" points="50,37 49,38 46,38 50,38 51,37 53,37" stroke="black" stroke-width="1" /><polygon fill="none" id="12" points="40,32 40,38 39,39 38,39 39,40 39,50 38,51 37,51 38,51 39,52 39,64 38,65 39,65 40,66 40,67 40,62 41,61 40,61 39,60 39,49 40,48 42,48 40,48 39,47 39,40 40,39 44,39 41,39 40,38" stroke="black" stroke-width="1" /></svg>