<?xml version="1.0" encoding="utf-8" ?>
<svg baseProfile="full" height="100" version="1.1" width="100" xmlns="http://www.w3.org/2000/svg" xmlns:ev="http://www.w3.org/2001/xml-events" xmlns:xlink="http://www.w3.org/1999/xlink"><defs /><polygon fill="none" id="1" points="47,58" stroke="black" stroke-width="1" /><polygon fill="none" id="2" points="48,56" stroke="black" stroke-width="1" /><polygon fill="none" id="3" points="43,34 43,37 42,38 42,41 41,42 41,46 40,47 40,58 41,59 41,63 42,64 42,67 43,68 44,67 44,64 45,63 45,61 46,60 44,62 42,62 41,61 41,47 42,46 42,42 43,41 43,38 44,37 44,35 45,34" stroke="black" stroke-width="1" /><polygon fill="none" id="4" points="71,33 71,36 72,37 72,43 71,44 69,44 68,45 55,45 68,45 69,44 71,44 72,45 72,57 71,58 71,61 69,63 69,64 65,68 64,68 63,69 62,69 61,70 60,70 62,70 63,69 64,69 65,68 66,68 70,64 70,63 71,62 71,61 72,60 72,58 73,57 73,45 74,44 79,44 80,43 82,43 82,42 81,43 78,43 77,44 74,44 73,43 73,33" stroke="black" stroke-width="1" /></svg>