<?xml version="1.0" encoding="utf-8" ?>
<svg baseProfile="full" height="100" version="1.1" width="100" xmlns="http://www.w3.org/2000/svg" xmlns:ev="http://www.w3.org/2001/xml-events" xmlns:xlink="http://www.w3.org/1999/xlink"><defs /><polygon fill="none" id="1" points="37,55 36,56 36,57 35,58 35,59 34,60 34,65 38,69 40,69 41,70 43,70 44,71 61,71 62,70 65,70 65,67 63,67 62,68 58,68 57,69 45,69 44,68 41,68 37,64 37,60 40,57 40,56 39,56 38,55" stroke="black" stroke-width="1" /><polygon fill="none" id="2" points="38,38 38,41 51,41 52,42 50,44 49,44 48,45 47,45 46,46 46,47 47,48 48,48 50,46 51,46 53,44 54,44 56,42 57,42 58,41 60,41 61,40 61,38 56,38 55,39 42,39 41,38" stroke="black" stroke-width="1" /><polygon fill="none" id="3" points="51,41 52,40 53,41 52,42" stroke="black" stroke-width="1" /></svg>