<?xml version="1.0" encoding="utf-8" ?>
<svg baseProfile="full" height="100" version="1.1" width="100" xmlns="http://www.w3.org/2000/svg" xmlns:ev="http://www.w3.org/2001/xml-events" xmlns:xlink="http://www.w3.org/1999/xlink"><defs /><polygon fill="none" id="1" points="30,55 29,56 29,57 28,58 28,59 27,60 27,64 28,65 28,66 29,67 29,68 30,68 32,70 34,70 35,71 49,71 50,70 52,70 52,67 50,67 49,68 46,68 45,69 36,69 35,68 33,68 30,65 30,64 29,63 29,61 30,60 30,59 32,57 32,56 31,56" stroke="black" stroke-width="1" /><polygon fill="none" id="2" points="30,38 30,41 40,41 41,40 42,41 42,42 41,43 40,43 37,46 36,46 38,48 42,44 43,44 45,42 46,42 47,41 48,41 49,40 49,38 45,38 44,39 34,39 33,38" stroke="black" stroke-width="1" /></svg>