<?xml version="1.0" encoding="utf-8" ?>
<svg baseProfile="full" height="100" version="1.1" width="100" xmlns="http://www.w3.org/2000/svg" xmlns:ev="http://www.w3.org/2001/xml-events" xmlns:xlink="http://www.w3.org/1999/xlink"><defs /><polygon fill="none" id="1" points="33,55 33,56 32,57 32,58 31,59 31,66 34,69 36,69 37,70 39,70 40,71 55,71 56,70 59,70 58,69 58,67 56,67 55,68 52,68 51,69 40,69 39,68 37,68 33,64 33,60 36,57 36,56 35,56 34,55" stroke="black" stroke-width="1" /><polygon fill="none" id="2" points="34,38 34,41 46,41 47,42 45,44 44,44 42,46 41,46 41,47 42,48 43,48 46,45 47,45 49,43 50,43 52,41 54,41 55,40 55,38 50,38 49,39 38,39 37,38" stroke="black" stroke-width="1" /></svg>