<?xml version="1.0" encoding="utf-8" ?>
<svg baseProfile="full" height="100" version="1.1" width="100" xmlns="http://www.w3.org/2000/svg" xmlns:ev="http://www.w3.org/2001/xml-events" xmlns:xlink="http://www.w3.org/1999/xlink"><defs /><polygon fill="none" id="1" points="41,55 39,57 39,58 38,59 38,60 37,61 37,64 38,65 38,66 39,67 40,67 42,69 44,69 45,70 48,70 49,71 67,71 68,70 72,70 72,67 69,67 68,68 63,68 62,69 49,69 48,68 45,68 41,64 41,60 44,57 44,56 43,56 42,55" stroke="black" stroke-width="1" /><polygon fill="none" id="2" points="41,38 42,39 42,41 56,41 57,40 58,41 58,42 57,43 56,43 55,44 54,44 53,45 52,45 51,46 50,46 50,47 51,47 52,48 53,48 55,46 56,46 58,44 59,44 60,43 61,43 62,42 63,42 64,41 66,41 67,40 67,38 62,38 61,39 46,39 45,38" stroke="black" stroke-width="1" /></svg>