<?xml version="1.0" encoding="utf-8" ?>
<svg baseProfile="full" height="100" version="1.1" width="100" xmlns="http://www.w3.org/2000/svg" xmlns:ev="http://www.w3.org/2001/xml-events" xmlns:xlink="http://www.w3.org/1999/xlink"><defs /><polygon fill="none" id="1" points="44,61 44,63 42,65 43,65 44,66 44,67 45,67 45,66 44,65 44,63 46,61" stroke="black" stroke-width="1" /><polygon fill="none" id="2" points="49,58 48,59" stroke="black" stroke-width="1" /><polygon fill="none" id="3" points="51,55 50,56" stroke="black" stroke-width="1" /><polygon fill="none" id="4" points="52,53" stroke="black" stroke-width="1" /><polygon fill="none" id="5" points="39,52 33,58 33,59 32,60 32,62 31,63 31,65 32,66 32,67 33,68 36,68 33,68 32,67 32,61 33,60 33,59 34,58 34,57" stroke="black" stroke-width="1" /><polygon fill="none" id="6" points="53,51" stroke="black" stroke-width="1" /><polygon fill="none" id="7" points="60,48 61,48 62,49 63,49 65,51 65,52 66,53 66,54 67,55 67,60 66,61 66,62 65,63 65,64 62,67 61,67 60,68 59,68 58,69 53,69 54,70 55,70 56,69 58,69 59,68 60,68 61,67 62,67 66,63 66,62 67,61 67,59 68,58 68,57 67,56 67,54 66,53 66,52 63,49 62,49 61,48" stroke="black" stroke-width="1" /><polygon fill="none" id="8" points="55,44 55,46 54,47 51,47 53,47 54,48 54,49 54,48 55,47 58,47 57,47 56,46 56,44" stroke="black" stroke-width="1" /><polygon fill="none" id="9" points="34,40 39,40" stroke="black" stroke-width="1" /><polygon fill="none" id="10" points="44,32 44,38 43,39 44,40 44,44 43,45 43,50 42,51 41,51 42,51 43,52 43,59 43,58 44,57 44,53 43,52 43,50 44,49 44,40 45,39 50,39 51,38 55,38 56,37 59,37 56,37 55,38 50,38 49,39 45,39 44,38 44,36 45,35 45,32" stroke="black" stroke-width="1" /></svg>