<?xml version="1.0" encoding="utf-8" ?>
<svg baseProfile="full" height="100" version="1.1" width="100" xmlns="http://www.w3.org/2000/svg" xmlns:ev="http://www.w3.org/2001/xml-events" xmlns:xlink="http://www.w3.org/1999/xlink"><defs /><polygon fill="none" id="1" points="45,55 42,58 42,59 41,60 41,65 44,68 45,68 46,69 48,69 49,70 52,70 53,71 74,71 75,70 78,70 78,67 75,67 74,68 69,68 68,69 54,69 53,68 50,68 49,67 48,67 47,66 46,66 45,65 45,64 44,63 44,62 45,61 45,60 48,57 48,56 47,56 46,55" stroke="black" stroke-width="1" /><polygon fill="none" id="2" points="45,38 45,40 46,41 61,41 62,40 63,41 63,42 62,43 61,43 60,44 59,44 58,45 57,45 56,46 55,46 55,47 56,47 57,48 58,48 60,46 61,46 62,45 63,45 65,43 66,43 67,42 69,42 70,41 72,41 73,40 74,40 74,39 73,38 67,38 66,39 50,39 49,38" stroke="black" stroke-width="1" /></svg>