<?xml version="1.0" encoding="utf-8" ?>
<svg baseProfile="full" height="100" version="1.1" width="100" xmlns="http://www.w3.org/2000/svg" xmlns:ev="http://www.w3.org/2001/xml-events" xmlns:xlink="http://www.w3.org/1999/xlink"><defs /><polygon fill="none" id="1" points="30,55 29,56 29,57 28,58 28,59 27,60 27,65 28,66 28,67 29,68 29,69 30,69 32,71 34,71 35,72 50,72 51,71 53,71 53,67 50,67 49,68 46,68 45,69 37,69 36,68 34,68 31,65 31,64 30,63 30,62 31,61 31,60 33,58 33,56 32,56 31,55" stroke="black" stroke-width="1" /><polygon fill="none" id="2" points="30,38 30,42 39,42 40,43 37,46 36,46 36,47 38,49 39,49 43,45 44,45 46,43 47,43 48,42 49,42 50,41 50,38 45,38 44,39 35,39 34,38" stroke="black" stroke-width="1" /></svg>