<?xml version="1.0" encoding="utf-8" ?>
<svg baseProfile="full" height="100" version="1.1" width="100" xmlns="http://www.w3.org/2000/svg" xmlns:ev="http://www.w3.org/2001/xml-events" xmlns:xlink="http://www.w3.org/1999/xlink"><defs /><polygon fill="none" id="1" points="33,55 33,56 32,57 32,58 31,59 31,67 34,70 36,70 37,71 39,71 40,72 56,72 57,71 60,71 60,70 59,69 59,67 56,67 55,68 52,68 51,69 41,69 40,68 38,68 34,64 34,61 37,58 37,56 36,56 35,55" stroke="black" stroke-width="1" /><polygon fill="none" id="2" points="34,38 34,42 45,42 46,43 45,44 44,44 42,46 41,46 41,48 42,49 44,49 47,46 48,46 50,44 51,44 53,42 55,42 56,41 56,38 50,38 49,39 39,39 38,38" stroke="black" stroke-width="1" /></svg>