<?xml version="1.0" encoding="utf-8" ?>
<svg baseProfile="full" height="100" version="1.1" width="100" xmlns="http://www.w3.org/2000/svg" xmlns:ev="http://www.w3.org/2001/xml-events" xmlns:xlink="http://www.w3.org/1999/xlink"><defs /><polygon fill="none" id="1" points="37,55 36,56 36,57 35,58 35,59 34,60 34,66 38,70 40,70 41,71 43,71 44,72 62,72 63,71 66,71 66,67 63,67 62,68 58,68 57,69 46,69 45,68 42,68 38,64 38,61 41,58 41,56 40,56 39,55" stroke="black" stroke-width="1" /><polygon fill="none" id="2" points="38,38 38,42 50,42 51,43 50,44 49,44 48,45 47,45 46,46 46,48 47,49 49,49 51,47 52,47 54,45 55,45 57,43 58,43 59,42 61,42 62,41 62,38 56,38 55,39 43,39 42,38" stroke="black" stroke-width="1" /></svg>