<?xml version="1.0" encoding="utf-8" ?>
<svg baseProfile="full" height="100" version="1.1" width="100" xmlns="http://www.w3.org/2000/svg" xmlns:ev="http://www.w3.org/2001/xml-events" xmlns:xlink="http://www.w3.org/1999/xlink"><defs /><polygon fill="none" id="1" points="41,55 39,57 39,58 38,59 38,60 37,61 37,65 38,66 38,67 39,68 40,68 42,70 44,70 45,71 48,71 49,72 68,72 69,71 73,71 73,67 69,67 68,68 63,68 62,69 50,69 49,68 46,68 42,64 42,61 45,58 45,56 44,56 43,55" stroke="black" stroke-width="1" /><polygon fill="none" id="2" points="41,38 41,39 42,40 42,42 55,42 56,43 55,44 54,44 53,45 52,45 51,46 50,46 50,48 51,48 52,49 54,49 56,47 57,47 59,45 60,45 61,44 62,44 63,43 64,43 65,42 67,42 68,41 68,38 62,38 61,39 47,39 46,38" stroke="black" stroke-width="1" /></svg>