<?xml version="1.0" encoding="utf-8" ?>
<svg baseProfile="full" height="100" version="1.1" width="100" xmlns="http://www.w3.org/2000/svg" xmlns:ev="http://www.w3.org/2001/xml-events" xmlns:xlink="http://www.w3.org/1999/xlink"><defs /><polygon fill="none" id="1" points="45,55 42,58 42,59 41,60 41,66 44,69 45,69 46,70 48,70 49,71 52,71 53,72 75,72 76,71 79,71 79,67 75,67 74,68 69,68 68,69 55,69 54,68 51,68 50,67 49,67 48,66 47,66 46,65 46,64 45,63 46,62 46,61 49,58 49,56 48,56 47,55" stroke="black" stroke-width="1" /><polygon fill="none" id="2" points="45,38 45,41 46,42 60,42 61,43 60,44 59,44 58,45 57,45 56,46 55,46 55,48 56,48 57,49 59,49 61,47 62,47 63,46 64,46 66,44 67,44 68,43 70,43 71,42 73,42 74,41 75,41 75,39 74,38 67,38 66,39 51,39 50,38" stroke="black" stroke-width="1" /></svg>