<?xml version="1.0" encoding="utf-8" ?>
<svg baseProfile="full" height="100" version="1.1" width="100" xmlns="http://www.w3.org/2000/svg" xmlns:ev="http://www.w3.org/2001/xml-events" xmlns:xlink="http://www.w3.org/1999/xlink"><defs /><polygon fill="none" id="1" points="30,57 30,58 29,59 29,60 28,61 28,64 29,65 29,66 30,67 30,68 31,68 33,70 35,70 36,71 49,71 50,70 52,70 52,68 51,68 50,69 47,69 46,70 36,70 35,69 33,69 30,66 30,65 29,64 29,61 30,60 30,59 32,57" stroke="black" stroke-width="1" /><polygon fill="none" id="2" points="31,39 31,41 40,41 41,40 42,40 43,41 43,43 42,44 41,44 38,47 39,47 42,44 43,44 45,42 46,42 47,41 48,41 49,40 49,39 46,39 45,40 34,40 33,39" stroke="black" stroke-width="1" /></svg>