<?xml version="1.0" encoding="utf-8" ?>
<svg baseProfile="full" height="100" version="1.1" width="100" xmlns="http://www.w3.org/2000/svg" xmlns:ev="http://www.w3.org/2001/xml-events" xmlns:xlink="http://www.w3.org/1999/xlink"><defs /><polygon fill="none" id="1" points="34,56 34,57 33,58 33,59 32,60 32,66 35,69 37,69 38,70 40,70 41,71 55,71 56,70 58,70 58,68 57,68 56,69 53,69 52,70 40,70 39,69 37,69 33,65 33,60 36,57 35,57" stroke="black" stroke-width="1" /><polygon fill="none" id="2" points="35,39 35,41 47,41 48,42 48,43 46,45 45,45 43,47 42,47 43,48 46,45 47,45 49,43 50,43 52,41 54,41 55,40 55,39 51,39 50,40 38,40 37,39" stroke="black" stroke-width="1" /></svg>