<?xml version="1.0" encoding="utf-8" ?>
<svg baseProfile="full" height="100" version="1.1" width="100" xmlns="http://www.w3.org/2000/svg" xmlns:ev="http://www.w3.org/2001/xml-events" xmlns:xlink="http://www.w3.org/1999/xlink"><defs /><polygon fill="none" id="1" points="38,56 37,57 37,58 36,59 36,60 35,61 35,65 39,69 41,69 42,70 44,70 45,71 61,71 62,70 65,70 65,68 64,68 63,69 59,69 58,70 45,70 44,69 41,69 37,65 37,60 40,57 39,57" stroke="black" stroke-width="1" /><polygon fill="none" id="2" points="39,39 39,41 51,41 52,40 53,40 54,41 54,42 51,45 50,45 49,46 48,46 47,47 48,48 50,46 51,46 53,44 54,44 56,42 57,42 58,41 60,41 61,40 61,39 57,39 56,40 42,40 41,39" stroke="black" stroke-width="1" /></svg>