<?xml version="1.0" encoding="utf-8" ?>
<svg baseProfile="full" height="100" version="1.1" width="100" xmlns="http://www.w3.org/2000/svg" xmlns:ev="http://www.w3.org/2001/xml-events" xmlns:xlink="http://www.w3.org/1999/xlink"><defs /><polygon fill="none" id="1" points="42,56 40,58 40,59 39,60 39,61 38,62 38,64 39,65 39,66 40,67 41,67 43,69 45,69 46,70 49,70 50,71 67,71 68,70 72,70 72,68 70,68 69,69 64,69 63,70 49,70 48,69 45,69 41,65 41,60 44,57 43,57" stroke="black" stroke-width="1" /><polygon fill="none" id="2" points="43,39 43,41 56,41 57,40 58,40 59,41 59,43 58,44 57,44 56,45 55,45 54,46 53,46 52,47 51,47 52,47 53,48 55,46 56,46 58,44 59,44 60,43 61,43 62,42 63,42 64,41 66,41 67,40 67,39 63,39 62,40 46,40 45,39" stroke="black" stroke-width="1" /></svg>