<?xml version="1.0" encoding="utf-8" ?>
<svg baseProfile="full" height="100" version="1.1" width="100" xmlns="http://www.w3.org/2000/svg" xmlns:ev="http://www.w3.org/2001/xml-events" xmlns:xlink="http://www.w3.org/1999/xlink"><defs /><polygon fill="none" id="1" points="54,58 53,59" stroke="black" stroke-width="1" /><polygon fill="none" id="2" points="56,55 55,56" stroke="black" stroke-width="1" /><polygon fill="none" id="3" points="43,52 41,54 40,54 36,58 36,59 35,60 35,62 34,63 34,65 35,66 35,67 36,67 37,68 40,68 37,68 35,66 35,61 36,60 36,59" stroke="black" stroke-width="1" /><polygon fill="none" id="4" points="66,48 67,48 68,49 69,49 73,53 73,62 68,67 67,67 66,68 64,68 63,69 59,69 59,70 61,70 62,69 64,69 65,68 67,68 69,66 70,66 73,63 73,62 74,61 74,59 75,58 74,57 74,54 73,53 73,52 71,50 70,50 69,49 68,49 67,48" stroke="black" stroke-width="1" /><polygon fill="none" id="5" points="60,44 60,46 59,47 56,47 58,47 59,48 59,50 58,51 58,52 57,53 58,52 58,51 59,50 59,49 61,47 64,47 62,47 61,46 61,44" stroke="black" stroke-width="1" /><polygon fill="none" id="6" points="37,40 43,40" stroke="black" stroke-width="1" /><polygon fill="none" id="7" points="49,32 49,33 48,34 48,38 47,39 48,40 48,45 47,46 47,50 46,51 45,51 47,51 48,52 48,54 47,55 47,58 48,59 48,63 46,65 48,65 49,66 49,67 50,67 49,66 49,63 51,61 49,61 48,60 48,50 50,48 52,48 49,48 48,47 48,44 49,43 49,40 50,39 55,39 56,38 61,38 62,37 65,37 61,37 60,38 55,38 54,39 50,39 49,38 49,35 50,34 50,32" stroke="black" stroke-width="1" /></svg>