<?xml version="1.0" encoding="utf-8" ?>
<svg baseProfile="full" height="100" version="1.1" width="100" xmlns="http://www.w3.org/2000/svg" xmlns:ev="http://www.w3.org/2001/xml-events" xmlns:xlink="http://www.w3.org/1999/xlink"><defs /><polygon fill="none" id="1" points="46,56 43,59 43,60 42,61 42,65 45,68 46,68 47,69 49,69 50,70 53,70 54,71 74,71 75,70 78,70 78,68 76,68 75,69 70,69 69,70 54,70 53,69 50,69 49,68 48,68 47,67 46,67 45,66 45,65 44,64 44,62 45,61 45,60 48,57 47,57" stroke="black" stroke-width="1" /><polygon fill="none" id="2" points="46,39 46,40 47,41 61,41 62,40 63,40 64,41 64,43 63,44 62,44 61,45 60,45 59,46 58,46 57,47 56,47 57,47 58,48 60,46 61,46 62,45 63,45 65,43 66,43 67,42 69,42 70,41 72,41 73,40 74,40 73,39 68,39 67,40 50,40 49,39" stroke="black" stroke-width="1" /></svg>