<?xml version="1.0" encoding="utf-8" ?>
<svg baseProfile="full" height="100" version="1.1" width="100" xmlns="http://www.w3.org/2000/svg" xmlns:ev="http://www.w3.org/2001/xml-events" xmlns:xlink="http://www.w3.org/1999/xlink"><defs /><polygon fill="none" id="1" points="29,54 28,55 28,56 27,57 27,58 26,59 26,65 27,66 27,67 28,68 28,69 29,69 31,71 33,71 34,72 50,72 51,71 53,71 53,66 49,66 48,67 45,67 44,68 37,68 36,67 34,67 31,64 31,63 30,62 31,61 31,60 33,58 33,55 32,55 31,54" stroke="black" stroke-width="1" /><polygon fill="none" id="2" points="29,37 29,42 37,42 38,43 36,45 35,45 35,47 37,49 39,49 43,45 44,45 46,43 47,43 48,42 49,42 50,41 50,37 44,37 43,38 35,38 34,37" stroke="black" stroke-width="1" /></svg>