<?xml version="1.0" encoding="utf-8" ?>
<svg baseProfile="full" height="100" version="1.1" width="100" xmlns="http://www.w3.org/2000/svg" xmlns:ev="http://www.w3.org/2001/xml-events" xmlns:xlink="http://www.w3.org/1999/xlink"><defs /><polygon fill="none" id="1" points="32,54 32,55 31,56 31,57 30,58 30,67 33,70 35,70 36,71 38,71 39,72 56,72 57,71 60,71 60,69 59,68 59,66 55,66 54,67 51,67 50,68 41,68 40,67 38,67 34,63 34,61 37,58 37,55 36,55 35,54" stroke="black" stroke-width="1" /><polygon fill="none" id="2" points="33,37 33,42 42,42 43,43 41,45 40,45 40,48 41,49 44,49 47,46 48,46 50,44 51,44 53,42 55,42 56,41 56,37 49,37 48,38 39,38 38,37" stroke="black" stroke-width="1" /></svg>