<?xml version="1.0" encoding="utf-8" ?>
<svg baseProfile="full" height="100" version="1.1" width="100" xmlns="http://www.w3.org/2000/svg" xmlns:ev="http://www.w3.org/2001/xml-events" xmlns:xlink="http://www.w3.org/1999/xlink"><defs /><polygon fill="none" id="1" points="36,54 35,55 35,56 34,57 34,58 33,59 33,66 37,70 39,70 40,71 42,71 43,72 62,72 63,71 66,71 66,66 62,66 61,67 57,67 56,68 46,68 45,67 42,67 38,63 38,61 41,58 41,55 40,55 39,54" stroke="black" stroke-width="1" /><polygon fill="none" id="2" points="37,37 37,42 47,42 48,43 47,44 46,44 45,45 45,48 46,49 49,49 51,47 52,47 54,45 55,45 57,43 58,43 59,42 61,42 62,41 62,37 55,37 54,38 43,38 42,37" stroke="black" stroke-width="1" /></svg>