<?xml version="1.0" encoding="utf-8" ?>
<svg baseProfile="full" height="100" version="1.1" width="100" xmlns="http://www.w3.org/2000/svg" xmlns:ev="http://www.w3.org/2001/xml-events" xmlns:xlink="http://www.w3.org/1999/xlink"><defs /><polygon fill="none" id="1" points="40,54 38,56 38,57 37,58 37,59 36,60 36,65 37,66 37,67 38,68 39,68 41,70 43,70 44,71 47,71 48,72 68,72 69,71 73,71 73,66 68,66 67,67 62,67 61,68 50,68 49,67 46,67 42,63 42,61 45,58 45,55 44,55 43,54" stroke="black" stroke-width="1" /><polygon fill="none" id="2" points="40,37 40,39 41,40 41,42 52,42 53,43 52,44 51,44 50,45 49,45 49,48 50,48 51,49 54,49 56,47 57,47 59,45 60,45 61,44 62,44 63,43 64,43 65,42 67,42 68,41 68,37 61,37 60,38 47,38 46,37" stroke="black" stroke-width="1" /></svg>