<?xml version="1.0" encoding="utf-8" ?>
<svg baseProfile="full" height="100" version="1.1" width="100" xmlns="http://www.w3.org/2000/svg" xmlns:ev="http://www.w3.org/2001/xml-events" xmlns:xlink="http://www.w3.org/1999/xlink"><defs /><polygon fill="none" id="1" points="44,54 41,57 41,58 40,59 40,66 43,69 44,69 45,70 47,70 48,71 51,71 52,72 75,72 76,71 79,71 79,66 74,66 73,67 68,67 67,68 55,68 54,67 51,67 50,66 49,66 48,65 47,65 46,64 46,61 49,58 49,55 48,55 47,54" stroke="black" stroke-width="1" /><polygon fill="none" id="2" points="44,37 44,41 45,42 57,42 58,43 57,44 56,44 55,45 54,45 54,48 55,48 56,49 59,49 61,47 62,47 63,46 64,46 66,44 67,44 68,43 70,43 71,42 73,42 74,41 75,41 75,38 74,37 66,37 65,38 51,38 50,37" stroke="black" stroke-width="1" /></svg>