<?xml version="1.0" encoding="utf-8" ?>
<svg baseProfile="full" height="100" version="1.1" width="100" xmlns="http://www.w3.org/2000/svg" xmlns:ev="http://www.w3.org/2001/xml-events" xmlns:xlink="http://www.w3.org/1999/xlink"><defs /><polygon fill="none" id="1" points="33,69 34,69" stroke="black" stroke-width="1" /><polygon fill="none" id="2" points="51,68 50,69 47,69 46,70 36,70 48,70 49,69 51,69" stroke="black" stroke-width="1" /><polygon fill="none" id="3" points="30,67" stroke="black" stroke-width="1" /><polygon fill="none" id="4" points="29,65" stroke="black" stroke-width="1" /><polygon fill="none" id="5" points="28,61 28,63" stroke="black" stroke-width="1" /><polygon fill="none" id="6" points="29,59" stroke="black" stroke-width="1" /><polygon fill="none" id="7" points="30,57" stroke="black" stroke-width="1" /><polygon fill="none" id="8" points="46,39 45,40 43,40 43,42 44,41 45,41 46,40 47,40 48,39" stroke="black" stroke-width="1" /><polygon fill="none" id="9" points="31,39 31,40 39,40 33,40 32,39" stroke="black" stroke-width="1" /></svg>