<?xml version="1.0" encoding="utf-8" ?>
<svg baseProfile="full" height="100" version="1.1" width="100" xmlns="http://www.w3.org/2000/svg" xmlns:ev="http://www.w3.org/2001/xml-events" xmlns:xlink="http://www.w3.org/1999/xlink"><defs /><polygon fill="none" id="1" points="42,69 43,69" stroke="black" stroke-width="1" /><polygon fill="none" id="2" points="64,68 63,69 59,69 58,70 45,70 60,70 61,69 64,69" stroke="black" stroke-width="1" /><polygon fill="none" id="3" points="37,57 37,58 36,59 36,60 35,61 35,64 39,68 36,65 36,59 38,57" stroke="black" stroke-width="1" /><polygon fill="none" id="4" points="48,46" stroke="black" stroke-width="1" /><polygon fill="none" id="5" points="50,45" stroke="black" stroke-width="1" /><polygon fill="none" id="6" points="57,39 56,40 54,40 54,42 53,43 55,41 56,41 57,40 59,40 60,39" stroke="black" stroke-width="1" /><polygon fill="none" id="7" points="39,39 39,40 50,40 41,40 40,39" stroke="black" stroke-width="1" /></svg>