<?xml version="1.0" encoding="utf-8" ?>
<svg baseProfile="full" height="100" version="1.1" width="100" xmlns="http://www.w3.org/2000/svg" xmlns:ev="http://www.w3.org/2001/xml-events" xmlns:xlink="http://www.w3.org/1999/xlink"><defs /><polygon fill="none" id="1" points="46,69 47,69" stroke="black" stroke-width="1" /><polygon fill="none" id="2" points="70,68 69,69 64,69 63,70 50,70 66,70 67,69 71,69 71,68" stroke="black" stroke-width="1" /><polygon fill="none" id="3" points="41,57 40,58 40,59 39,60 39,61 38,62 38,63 39,64 39,65 40,66 41,66 43,68 40,65 40,59 42,57" stroke="black" stroke-width="1" /><polygon fill="none" id="4" points="53,46" stroke="black" stroke-width="1" /><polygon fill="none" id="5" points="55,45" stroke="black" stroke-width="1" /><polygon fill="none" id="6" points="63,39 62,40 59,40 59,42 60,42 61,41 62,41 63,40 65,40 66,39" stroke="black" stroke-width="1" /><polygon fill="none" id="7" points="43,39 43,40 55,40 45,40 44,39" stroke="black" stroke-width="1" /></svg>