<?xml version="1.0" encoding="utf-8" ?>
<svg baseProfile="full" height="100" version="1.1" width="100" xmlns="http://www.w3.org/2000/svg" xmlns:ev="http://www.w3.org/2001/xml-events" xmlns:xlink="http://www.w3.org/1999/xlink"><defs /><polygon fill="none" id="1" points="43,31 43,37 41,39 34,39 33,38 32,38 32,39 33,40 33,41 40,41 41,40 42,40 43,41 43,43 42,44 42,49 41,50 40,50 39,51 38,51 32,57 32,58 31,59 31,61 30,62 30,66 31,67 31,68 32,69 37,69 38,68 39,68 40,67 41,67 42,66 43,67 43,68 44,69 45,68 46,68 46,65 45,64 50,59 50,58 52,56 52,55 53,54 53,53 54,52 54,51 55,50 55,49 56,48 58,48 59,49 60,49 61,50 62,50 64,52 64,53 65,54 65,55 66,56 66,59 65,60 65,61 64,62 64,63 61,66 60,66 59,67 58,67 57,68 52,68 52,70 53,71 56,71 57,70 59,70 60,69 61,69 62,68 63,68 67,64 67,63 68,62 68,60 69,59 69,56 68,55 68,53 67,52 67,51 64,48 63,48 62,47 60,47 59,46 58,46 57,45 57,43 54,43 54,45 53,46 50,46 49,47 47,47 46,48 45,47 45,41 46,40 51,40 52,39 56,39 57,38 60,38 60,35 59,35 58,36 55,36 54,37 49,37 48,38 46,38 45,37 46,36 46,31" stroke="black" stroke-width="1" /><polygon fill="none" id="2" points="41,52 42,53 42,60 43,61 43,62 39,66 38,66 37,67 34,67 33,66 33,62 34,61 34,60 35,59 35,58" stroke="black" stroke-width="1" /><polygon fill="none" id="3" points="48,49 49,48 52,48 53,49 52,50 52,51 51,52 51,53 49,55 49,56 47,58 47,59 46,60 45,60 44,59 45,58 45,52 44,51 46,49" stroke="black" stroke-width="1" /></svg>