<?xml version="1.0" encoding="utf-8" ?>
<svg baseProfile="full" height="100" version="1.1" width="100" xmlns="http://www.w3.org/2000/svg" xmlns:ev="http://www.w3.org/2001/xml-events" xmlns:xlink="http://www.w3.org/1999/xlink"><defs /><polygon fill="none" id="1" points="46,67" stroke="black" stroke-width="1" /><polygon fill="none" id="2" points="47,52 46,53 45,53 38,60 38,62 37,63 37,65 38,66 38,67 39,67 40,68 44,68 40,68 39,67 39,60 41,58 41,57 45,53 46,53" stroke="black" stroke-width="1" /><polygon fill="none" id="3" points="64,51 62,53 62,54 60,56 63,53 63,52" stroke="black" stroke-width="1" /><polygon fill="none" id="4" points="75,49 76,50 77,50 78,51 78,52 79,53 79,54 80,55 80,60 79,61 79,62 78,63 78,64 76,66 75,66 74,67 73,67 72,68 70,68 69,69 64,69 65,70 67,70 68,69 70,69 71,68 73,68 74,67 75,67 77,65 78,65 80,63 80,62 81,61 81,54 76,49" stroke="black" stroke-width="1" /><polygon fill="none" id="5" points="72,48 73,48" stroke="black" stroke-width="1" /><polygon fill="none" id="6" points="57,48" stroke="black" stroke-width="1" /><polygon fill="none" id="7" points="66,44 66,46 65,47 60,47 64,47 65,48 65,49 65,48 66,47 70,47 68,47 67,46 67,44" stroke="black" stroke-width="1" /><polygon fill="none" id="8" points="40,40 47,40" stroke="black" stroke-width="1" /><polygon fill="none" id="9" points="53,32 53,38 52,39 51,39 52,40 52,49 50,51 49,51 51,51 52,52 52,63 50,65 52,65 53,66 53,67 54,67 54,66 53,65 53,63 55,61 56,61 59,58 56,61 53,61 52,60 52,58 53,57 53,53 52,52 52,50 53,49 53,40 54,39 60,39 61,38 67,38 68,37 71,37 67,37 66,38 60,38 59,39 55,39 54,38 54,32" stroke="black" stroke-width="1" /></svg>