<?xml version="1.0" encoding="utf-8" ?>
<svg baseProfile="full" height="100" version="1.1" width="100" xmlns="http://www.w3.org/2000/svg" xmlns:ev="http://www.w3.org/2001/xml-events" xmlns:xlink="http://www.w3.org/1999/xlink"><defs /><polygon fill="none" id="1" points="50,69 52,69" stroke="black" stroke-width="1" /><polygon fill="none" id="2" points="76,68 75,69 70,69 69,70 54,70 73,70 74,69 77,69 77,68" stroke="black" stroke-width="1" /><polygon fill="none" id="3" points="45,57 43,59 43,60 42,61 42,64 45,67 46,67 47,68 48,68 47,68 46,67 45,67 44,66 44,65 43,64 43,61 44,60 44,59 46,57" stroke="black" stroke-width="1" /><polygon fill="none" id="4" points="58,46" stroke="black" stroke-width="1" /><polygon fill="none" id="5" points="60,45" stroke="black" stroke-width="1" /><polygon fill="none" id="6" points="62,44" stroke="black" stroke-width="1" /><polygon fill="none" id="7" points="68,39 67,40 64,40 64,42 65,42 66,41 68,41 69,40 71,40 72,39" stroke="black" stroke-width="1" /><polygon fill="none" id="8" points="46,39 47,40 60,40 49,40 48,39" stroke="black" stroke-width="1" /></svg>