<?xml version="1.0" encoding="utf-8" ?>
<svg baseProfile="full" height="100" version="1.1" width="100" xmlns="http://www.w3.org/2000/svg" xmlns:ev="http://www.w3.org/2001/xml-events" xmlns:xlink="http://www.w3.org/1999/xlink"><defs /><polygon fill="none" id="1" points="46,32 45,33 46,34 46,35 47,36 47,37 49,39 49,41 48,42 43,42 42,43 33,43 33,45 34,46 35,45 45,45 46,44 51,44 52,45 52,46 53,47 53,48 54,49 54,50 58,54 58,55 57,56 56,55 54,55 53,54 42,54 41,55 40,55 39,56 38,56 36,58 36,59 35,60 35,65 39,69 40,69 41,70 44,70 45,71 59,71 59,68 57,68 56,69 46,69 45,68 42,68 38,64 38,60 41,57 42,57 43,56 52,56 53,57 56,57 57,58 58,58 59,59 60,59 61,60 63,58 63,57 61,55 61,54 58,51 58,50 56,48 56,47 54,45 54,43 55,42 58,42 59,41 61,41 62,40 64,40 65,39 65,38 64,37 62,37 61,38 60,38 59,39 57,39 56,40 54,40 53,41 51,39 51,38 50,37 50,35 49,34 49,33 48,32" stroke="black" stroke-width="1" /></svg>