<?xml version="1.0" encoding="utf-8" ?>
<svg baseProfile="full" height="100" version="1.1" width="100" xmlns="http://www.w3.org/2000/svg" xmlns:ev="http://www.w3.org/2001/xml-events" xmlns:xlink="http://www.w3.org/1999/xlink"><defs /><polygon fill="none" id="1" points="36,32 36,33 37,34 37,35 38,36 38,38 39,39 39,41 38,42 35,42 34,43 26,43 26,45 27,46 28,45 36,45 37,44 40,44 42,46 42,48 44,50 44,51 45,52 45,53 46,54 45,55 43,55 42,54 34,54 33,55 32,55 31,56 30,56 30,57 28,59 28,65 29,66 29,67 31,69 32,69 33,70 35,70 36,71 47,71 47,68 46,68 45,69 37,69 36,68 34,68 33,67 32,67 31,66 31,65 30,64 30,60 33,57 34,57 35,56 41,56 42,57 44,57 45,58 46,58 48,60 49,60 51,58 50,57 50,56 48,54 48,53 47,52 47,51 45,49 45,48 44,47 44,46 43,45 43,43 44,42 46,42 47,41 49,41 50,40 51,40 52,39 52,38 51,37 49,37 47,39 46,39 45,40 43,40 42,41 41,40 41,38 40,37 40,35 39,34 39,32" stroke="black" stroke-width="1" /><polygon fill="none" id="2" points="45,55 46,54 47,55 46,56" stroke="black" stroke-width="1" /></svg>