<?xml version="1.0" encoding="utf-8" ?>
<svg baseProfile="full" height="100" version="1.1" width="100" xmlns="http://www.w3.org/2000/svg" xmlns:ev="http://www.w3.org/2001/xml-events" xmlns:xlink="http://www.w3.org/1999/xlink"><defs /><polygon fill="none" id="1" points="41,32 41,34 42,35 42,36 43,37 43,38 44,39 44,41 43,42 39,42 38,43 29,43 30,44 30,45 40,45 41,44 45,44 47,46 47,47 48,48 48,49 50,51 50,52 52,54 52,55 51,56 50,55 48,55 47,54 38,54 37,55 36,55 35,56 34,56 32,58 32,60 31,61 31,63 32,64 32,66 35,69 36,69 37,70 39,70 40,71 53,71 53,68 52,68 51,69 41,69 40,68 38,68 34,64 34,60 37,57 38,57 39,56 46,56 47,57 50,57 51,58 52,58 53,59 54,59 55,60 57,58 57,57 55,55 55,54 52,51 52,50 51,49 51,48 49,46 49,45 48,44 50,42 52,42 53,41 55,41 56,40 58,40 59,39 58,38 58,37 56,37 55,38 54,38 53,39 51,39 50,40 49,40 48,41 46,39 46,38 45,37 45,35 44,34 44,33 43,32" stroke="black" stroke-width="1" /></svg>