<?xml version="1.0" encoding="utf-8" ?>
<svg baseProfile="full" height="100" version="1.1" width="100" xmlns="http://www.w3.org/2000/svg" xmlns:ev="http://www.w3.org/2001/xml-events" xmlns:xlink="http://www.w3.org/1999/xlink"><defs /><polygon fill="none" id="1" points="50,32 50,34 52,36 52,37 53,38 53,39 54,40 54,41 53,42 47,42 46,43 36,43 36,45 49,45 50,44 56,44 57,45 57,46 58,47 58,48 64,54 64,55 63,56 62,55 59,55 58,54 47,54 46,55 44,55 43,56 42,56 39,59 39,60 38,61 38,63 39,64 39,65 40,66 40,67 41,68 42,68 43,69 44,69 45,70 48,70 49,71 65,71 65,68 63,68 62,69 51,69 50,68 46,68 42,64 42,60 45,57 47,57 48,56 57,56 58,57 61,57 62,58 64,58 65,59 66,59 67,60 68,59 69,59 70,58 70,57 64,51 64,50 62,48 62,47 59,44 59,43 60,42 64,42 65,41 67,41 68,40 71,40 72,39 72,38 71,37 68,37 67,38 66,38 65,39 62,39 61,40 59,40 58,41 56,39 56,38 55,37 55,35 54,34 54,33 53,32" stroke="black" stroke-width="1" /></svg>