<?xml version="1.0" encoding="utf-8" ?>
<svg baseProfile="full" height="100" version="1.1" width="100" xmlns="http://www.w3.org/2000/svg" xmlns:ev="http://www.w3.org/2001/xml-events" xmlns:xlink="http://www.w3.org/1999/xlink"><defs /><polygon fill="none" id="1" points="47,41 46,42 45,42 45,43 48,46 48,47 49,48 49,49 50,50 50,52 51,53 51,55 52,56 52,58 53,59 53,61 54,61 55,60 56,60 56,59 55,58 55,56 54,55 54,53 53,52 53,51 52,50 52,49 51,48 51,47 50,46 50,45 49,44 49,43 48,42 48,41" stroke="black" stroke-width="1" /><polygon fill="none" id="2" points="25,39 25,40 26,41 26,57 27,58 27,62 28,63 28,65 29,66 29,67 30,68 30,69 32,71 35,71 37,69 37,68 38,67 38,66 39,65 39,63 40,62 40,60 39,59 38,59 38,60 37,61 37,64 34,67 33,67 31,65 31,64 30,63 30,61 29,60 29,53 28,52 28,39" stroke="black" stroke-width="1" /></svg>