<?xml version="1.0" encoding="utf-8" ?>
<svg baseProfile="full" height="100" version="1.1" width="100" xmlns="http://www.w3.org/2000/svg" xmlns:ev="http://www.w3.org/2001/xml-events" xmlns:xlink="http://www.w3.org/1999/xlink"><defs /><polygon fill="none" id="1" points="55,32 54,33 56,35 56,36 58,38 58,39 59,40 59,41 58,42 52,42 51,43 39,43 39,44 40,45 54,45 55,44 61,44 62,45 62,46 65,49 65,50 68,53 69,53 70,54 70,55 69,56 68,56 67,55 65,55 64,54 51,54 50,55 48,55 47,56 46,56 45,57 44,57 43,58 43,59 42,60 42,65 45,68 46,68 47,69 48,69 49,70 53,70 54,71 71,71 71,68 69,68 68,69 55,69 54,68 50,68 46,64 46,63 45,62 46,61 46,60 49,57 51,57 52,56 62,56 63,57 67,57 68,58 70,58 71,59 72,59 73,60 74,59 75,59 76,58 76,57 70,51 70,50 65,45 65,43 66,42 70,42 71,41 74,41 75,40 77,40 78,39 79,39 77,37 74,37 73,38 72,38 71,39 68,39 67,40 65,40 64,41 61,38 61,37 60,36 60,35 59,34 59,33 58,32" stroke="black" stroke-width="1" /></svg>