<?xml version="1.0" encoding="utf-8" ?>
<svg baseProfile="full" height="100" version="1.1" width="100" xmlns="http://www.w3.org/2000/svg" xmlns:ev="http://www.w3.org/2001/xml-events" xmlns:xlink="http://www.w3.org/1999/xlink"><defs /><polygon fill="none" id="1" points="36,32 36,34 37,35 37,36 38,37 38,39 39,40 39,41 38,42 35,42 34,43 26,43 26,46 27,47 28,47 29,46 37,46 38,45 40,45 42,47 42,49 44,51 44,52 45,53 45,54 44,55 43,54 34,54 33,55 32,55 31,56 30,56 30,57 28,59 28,66 29,67 29,68 31,70 32,70 33,71 35,71 36,72 48,72 48,68 46,68 45,69 38,69 37,68 35,68 34,67 33,67 32,66 32,65 31,64 31,61 34,58 35,58 36,57 41,57 42,58 44,58 45,59 46,59 48,61 50,61 52,59 52,58 51,57 51,56 49,54 49,53 48,52 48,51 46,49 46,48 45,47 45,46 44,45 44,44 45,43 47,43 48,42 50,42 51,41 52,41 53,40 53,38 52,37 49,37 47,39 46,39 45,40 43,40 42,39 42,38 41,37 41,35 40,34 40,32" stroke="black" stroke-width="1" /></svg>