<?xml version="1.0" encoding="utf-8" ?>
<svg baseProfile="full" height="100" version="1.1" width="100" xmlns="http://www.w3.org/2000/svg" xmlns:ev="http://www.w3.org/2001/xml-events" xmlns:xlink="http://www.w3.org/1999/xlink"><defs /><polygon fill="none" id="1" points="46,32 45,33 45,34 46,35 46,36 47,37 47,38 49,40 49,41 48,42 43,42 42,43 33,43 33,46 34,47 35,47 36,46 46,46 47,45 51,45 52,46 52,47 53,48 53,49 54,50 54,51 57,54 56,55 55,55 54,54 42,54 41,55 40,55 39,56 38,56 36,58 36,59 35,60 35,66 39,70 40,70 41,71 44,71 45,72 60,72 60,68 57,68 56,69 47,69 46,68 43,68 39,64 39,61 42,58 43,58 44,57 52,57 53,58 56,58 57,59 58,59 59,60 60,60 61,61 62,61 64,59 64,57 62,55 62,54 59,51 59,50 57,48 57,47 55,45 55,44 56,43 59,43 60,42 62,42 63,41 65,41 66,40 66,38 65,37 62,37 61,38 60,38 59,39 57,39 56,40 53,40 52,39 52,38 51,37 51,35 50,34 50,33 49,32" stroke="black" stroke-width="1" /></svg>