<?xml version="1.0" encoding="utf-8" ?>
<svg baseProfile="full" height="100" version="1.1" width="100" xmlns="http://www.w3.org/2000/svg" xmlns:ev="http://www.w3.org/2001/xml-events" xmlns:xlink="http://www.w3.org/1999/xlink"><defs /><polygon fill="none" id="1" points="50,32 50,35 52,37 52,38 53,39 53,40 54,41 53,42 47,42 46,43 36,43 36,46 50,46 51,45 56,45 57,46 57,47 58,48 58,49 63,54 62,55 60,55 59,54 47,54 46,55 44,55 43,56 42,56 39,59 39,60 38,61 38,64 39,65 39,66 40,67 40,68 41,69 42,69 43,70 44,70 45,71 48,71 49,72 66,72 66,68 63,68 62,69 52,69 51,68 47,68 43,64 43,61 46,58 48,58 49,57 57,57 58,58 61,58 62,59 64,59 65,60 66,60 67,61 68,61 69,60 70,60 71,59 71,57 65,51 65,50 63,48 63,47 60,44 61,43 65,43 66,42 68,42 69,41 72,41 73,40 73,38 72,37 68,37 67,38 66,38 65,39 62,39 61,40 58,40 57,39 57,38 56,37 56,35 55,34 55,33 54,32" stroke="black" stroke-width="1" /></svg>