<?xml version="1.0" encoding="utf-8" ?>
<svg baseProfile="full" height="100" version="1.1" width="100" xmlns="http://www.w3.org/2000/svg" xmlns:ev="http://www.w3.org/2001/xml-events" xmlns:xlink="http://www.w3.org/1999/xlink"><defs /><polygon fill="none" id="1" points="55,32 54,33 54,34 56,36 56,37 58,39 58,40 59,41 58,42 52,42 51,43 39,43 39,45 40,46 55,46 56,45 61,45 62,46 62,47 65,50 65,51 68,54 67,55 66,55 65,54 51,54 50,55 48,55 47,56 46,56 45,57 44,57 43,58 43,59 42,60 42,66 45,69 46,69 47,70 48,70 49,71 53,71 54,72 72,72 72,68 69,68 68,69 56,69 55,68 51,68 47,64 47,61 50,58 52,58 53,57 62,57 63,58 67,58 68,59 70,59 71,60 72,60 73,61 74,61 75,60 76,60 77,59 77,57 71,51 71,50 66,45 66,44 67,43 71,43 72,42 75,42 76,41 78,41 79,40 80,40 80,39 78,37 74,37 73,38 72,38 71,39 68,39 67,40 64,40 62,38 62,37 61,36 61,35 60,34 60,33 59,32" stroke="black" stroke-width="1" /><polygon fill="none" id="2" points="68,55 69,54 70,55 69,56" stroke="black" stroke-width="1" /></svg>