<?xml version="1.0" encoding="utf-8" ?>
<svg baseProfile="full" height="100" version="1.1" width="100" xmlns="http://www.w3.org/2000/svg" xmlns:ev="http://www.w3.org/2001/xml-events" xmlns:xlink="http://www.w3.org/1999/xlink"><defs /><polygon fill="none" id="1" points="37,33 38,34 38,35 39,36 39,38 40,39 40,42 39,43 36,43 35,44 27,44 27,45 36,45 37,44 41,44 43,46 43,48 45,50 45,51 46,52 46,53 48,55 48,56 47,57 46,57 45,56 43,56 42,55 35,55 34,56 33,56 32,57 31,57 31,58 29,60 29,65 30,66 30,67 32,69 33,69 34,70 36,70 37,71 47,71 47,69 46,70 37,70 36,69 34,69 33,68 32,68 31,67 31,66 30,65 30,60 33,57 34,57 35,56 42,56 43,57 45,57 46,58 47,58 49,60 50,59 50,57 48,55 48,54 47,53 47,52 45,50 45,49 44,48 44,47 43,46 43,43 44,42 46,42 47,41 49,41 50,40 51,40 52,39 51,38 50,38 48,40 47,40 46,41 44,41 43,42 42,42 41,41 41,39 40,38 40,36 39,35 39,33" stroke="black" stroke-width="1" /></svg>