<?xml version="1.0" encoding="utf-8" ?>
<svg baseProfile="full" height="100" version="1.1" width="100" xmlns="http://www.w3.org/2000/svg" xmlns:ev="http://www.w3.org/2001/xml-events" xmlns:xlink="http://www.w3.org/1999/xlink"><defs /><polygon fill="none" id="1" points="42,33 42,34 43,35 43,36 44,37 44,38 45,39 45,42 44,43 40,43 39,44 31,44 31,45 40,45 41,44 46,44 48,46 48,47 49,48 49,49 51,51 51,52 53,54 53,56 52,57 51,57 50,56 48,56 47,55 39,55 38,56 37,56 36,57 35,57 33,59 33,61 32,62 32,63 33,64 33,66 36,69 37,69 38,70 40,70 41,71 53,71 53,69 52,70 41,70 40,69 38,69 34,65 34,60 37,57 38,57 39,56 47,56 48,57 51,57 52,58 53,58 54,59 56,59 57,58 55,56 55,55 52,52 52,51 51,50 51,49 49,47 49,46 48,45 48,44 50,42 52,42 53,41 55,41 56,40 58,40 58,38 57,38 56,39 55,39 54,40 52,40 51,41 50,41 49,42 48,42 46,40 46,39 45,38 45,36 44,35 44,34 43,33" stroke="black" stroke-width="1" /></svg>