<?xml version="1.0" encoding="utf-8" ?>
<svg baseProfile="full" height="100" version="1.1" width="100" xmlns="http://www.w3.org/2000/svg" xmlns:ev="http://www.w3.org/2001/xml-events" xmlns:xlink="http://www.w3.org/1999/xlink"><defs /><polygon fill="none" id="1" points="47,33 47,35 48,36 48,37 50,39 50,42 49,43 44,43 43,44 34,44 34,45 45,45 46,44 52,44 53,45 53,46 54,47 54,48 55,49 55,50 59,54 59,56 58,57 57,57 56,56 54,56 53,55 43,55 42,56 41,56 40,57 39,57 37,59 37,60 36,61 36,65 40,69 41,69 42,70 45,70 46,71 59,71 59,69 58,69 57,70 46,70 45,69 42,69 38,65 38,60 41,57 42,57 43,56 53,56 54,57 57,57 58,58 59,58 60,59 62,59 63,58 61,56 61,55 58,52 58,51 56,49 56,48 54,46 54,43 55,42 58,42 59,41 61,41 62,40 64,40 65,39 64,38 63,38 62,39 61,39 60,40 58,40 57,41 55,41 54,42 53,42 51,40 51,39 50,38 50,36 49,35 49,34 48,33" stroke="black" stroke-width="1" /></svg>