<?xml version="1.0" encoding="utf-8" ?>
<svg baseProfile="full" height="100" version="1.1" width="100" xmlns="http://www.w3.org/2000/svg" xmlns:ev="http://www.w3.org/2001/xml-events" xmlns:xlink="http://www.w3.org/1999/xlink"><defs /><polygon fill="none" id="1" points="51,33 51,34 53,36 53,37 54,38 54,39 55,40 55,42 54,43 48,43 47,44 37,44 37,45 49,45 50,44 57,44 58,45 58,46 59,47 59,48 65,54 65,56 64,57 63,57 62,56 59,56 58,55 48,55 47,56 45,56 44,57 43,57 40,60 40,61 39,62 39,63 40,64 40,65 41,66 41,67 42,68 43,68 44,69 45,69 46,70 49,70 50,71 65,71 65,69 64,69 63,70 51,70 50,69 46,69 42,65 42,60 45,57 47,57 48,56 58,56 59,57 62,57 63,58 65,58 66,59 69,59 70,58 64,52 64,51 62,49 62,48 59,45 59,43 60,42 64,42 65,41 67,41 68,40 71,40 72,39 71,38 69,38 68,39 67,39 66,40 63,40 62,41 60,41 59,42 58,42 56,40 56,39 55,38 55,36 54,35 54,34 53,33" stroke="black" stroke-width="1" /></svg>