<?xml version="1.0" encoding="utf-8" ?>
<svg baseProfile="full" height="100" version="1.1" width="100" xmlns="http://www.w3.org/2000/svg" xmlns:ev="http://www.w3.org/2001/xml-events" xmlns:xlink="http://www.w3.org/1999/xlink"><defs /><polygon fill="none" id="1" points="35,31 35,34 36,35 36,36 37,37 37,39 38,40 37,41 34,41 33,42 25,42 25,46 26,47 28,47 29,46 37,46 38,45 39,45 41,47 41,49 43,51 43,52 42,53 33,53 32,54 31,54 30,55 29,55 29,56 27,58 27,66 28,67 28,68 30,70 31,70 32,71 34,71 35,72 48,72 48,67 45,67 44,68 38,68 37,67 35,67 34,66 33,66 32,65 32,64 31,63 31,61 34,58 35,58 36,57 40,57 41,58 43,58 44,59 45,59 47,61 50,61 52,59 52,57 51,56 51,55 49,53 49,52 48,51 48,50 46,48 46,47 45,46 45,45 44,44 45,43 47,43 48,42 50,42 51,41 52,41 53,40 53,37 52,36 48,36 46,38 45,38 44,39 43,39 42,38 42,37 41,36 41,34 40,33 40,31" stroke="black" stroke-width="1" /></svg>