<?xml version="1.0" encoding="utf-8" ?>
<svg baseProfile="full" height="100" version="1.1" width="100" xmlns="http://www.w3.org/2000/svg" xmlns:ev="http://www.w3.org/2001/xml-events" xmlns:xlink="http://www.w3.org/1999/xlink"><defs /><polygon fill="none" id="1" points="40,31 40,35 41,36 41,37 42,38 42,39 43,40 42,41 38,41 37,42 28,42 28,44 29,45 29,46 41,46 42,45 44,45 46,47 46,48 47,49 47,50 49,52 48,53 37,53 36,54 35,54 34,55 33,55 31,57 31,59 30,60 30,64 31,65 31,67 34,70 35,70 36,71 38,71 39,72 54,72 54,67 51,67 50,68 42,68 41,67 39,67 35,63 35,61 38,58 39,58 40,57 45,57 46,58 49,58 50,59 51,59 52,60 53,60 54,61 56,61 58,59 58,56 56,54 56,53 53,50 53,49 52,48 52,47 50,45 50,44 51,43 53,43 54,42 56,42 57,41 59,41 60,40 60,38 59,37 59,36 55,36 54,37 53,37 52,38 50,38 49,39 48,39 47,38 47,37 46,36 46,34 45,33 45,32 44,31" stroke="black" stroke-width="1" /></svg>