<?xml version="1.0" encoding="utf-8" ?>
<svg baseProfile="full" height="100" version="1.1" width="100" xmlns="http://www.w3.org/2000/svg" xmlns:ev="http://www.w3.org/2001/xml-events" xmlns:xlink="http://www.w3.org/1999/xlink"><defs /><polygon fill="none" id="1" points="45,31 44,32 44,34 45,35 45,36 46,37 46,38 48,40 47,41 42,41 41,42 32,42 32,46 33,47 35,47 36,46 46,46 47,45 50,45 51,46 51,47 52,48 52,49 53,50 53,51 54,52 53,53 41,53 40,54 39,54 38,55 37,55 35,57 35,58 34,59 34,66 38,70 39,70 40,71 43,71 44,72 60,72 60,67 56,67 55,68 47,68 46,67 43,67 39,63 39,61 42,58 43,58 44,57 51,57 52,58 55,58 56,59 57,59 58,60 59,60 60,61 62,61 64,59 64,56 62,54 62,53 59,50 59,49 57,47 57,46 55,44 56,43 59,43 60,42 62,42 63,41 65,41 66,40 66,37 65,36 61,36 60,37 59,37 58,38 56,38 55,39 53,39 52,38 52,37 51,36 51,34 50,33 50,32 49,31" stroke="black" stroke-width="1" /></svg>