<?xml version="1.0" encoding="utf-8" ?>
<svg baseProfile="full" height="100" version="1.1" width="100" xmlns="http://www.w3.org/2000/svg" xmlns:ev="http://www.w3.org/2001/xml-events" xmlns:xlink="http://www.w3.org/1999/xlink"><defs /><polygon fill="none" id="1" points="49,31 49,35 51,37 51,38 52,39 52,40 51,41 46,41 45,42 35,42 35,46 50,46 51,45 55,45 56,46 56,47 57,48 57,49 60,52 59,53 46,53 45,54 43,54 42,55 41,55 38,58 38,59 37,60 37,64 38,65 38,66 39,67 39,68 40,69 41,69 42,70 43,70 44,71 47,71 48,72 66,72 66,67 62,67 61,68 52,68 51,67 47,67 43,63 43,61 46,58 48,58 49,57 56,57 57,58 60,58 61,59 63,59 64,60 65,60 66,61 68,61 69,60 70,60 71,59 71,56 65,50 65,49 63,47 63,46 61,44 62,43 65,43 66,42 68,42 69,41 72,41 73,40 73,37 72,36 67,36 66,37 65,37 64,38 61,38 60,39 58,39 57,38 57,37 56,36 56,34 55,33 55,32 54,31" stroke="black" stroke-width="1" /><polygon fill="none" id="2" points="59,53 60,52 61,53 60,54" stroke="black" stroke-width="1" /></svg>