<?xml version="1.0" encoding="utf-8" ?>
<svg baseProfile="full" height="100" version="1.1" width="100" xmlns="http://www.w3.org/2000/svg" xmlns:ev="http://www.w3.org/2001/xml-events" xmlns:xlink="http://www.w3.org/1999/xlink"><defs /><polygon fill="none" id="1" points="54,31 53,32 53,34 55,36 55,37 57,39 57,40 56,41 51,41 50,42 38,42 38,45 39,46 55,46 56,45 60,45 61,46 61,47 64,50 64,51 65,52 64,53 50,53 49,54 47,54 46,55 45,55 44,56 43,56 42,57 42,58 41,59 41,66 44,69 45,69 46,70 47,70 48,71 52,71 53,72 72,72 72,67 68,67 67,68 56,68 55,67 51,67 47,63 47,61 50,58 52,58 53,57 61,57 62,58 66,58 67,59 69,59 70,60 71,60 72,61 74,61 75,60 76,60 77,59 77,56 71,50 71,49 66,44 67,43 71,43 72,42 75,42 76,41 78,41 79,40 80,40 80,38 78,36 73,36 72,37 71,37 70,38 67,38 66,39 64,39 62,37 62,36 61,35 61,34 60,33 60,32 59,31" stroke="black" stroke-width="1" /></svg>