<?xml version="1.0" encoding="utf-8" ?>
<svg baseProfile="full" height="100" version="1.1" width="100" xmlns="http://www.w3.org/2000/svg" xmlns:ev="http://www.w3.org/2001/xml-events" xmlns:xlink="http://www.w3.org/1999/xlink"><defs /><polygon fill="none" id="1" points="37,70 46,70" stroke="black" stroke-width="1" /><polygon fill="none" id="2" points="34,69 35,69" stroke="black" stroke-width="1" /><polygon fill="none" id="3" points="32,68" stroke="black" stroke-width="1" /><polygon fill="none" id="4" points="30,66" stroke="black" stroke-width="1" /><polygon fill="none" id="5" points="29,60 29,64" stroke="black" stroke-width="1" /><polygon fill="none" id="6" points="31,57" stroke="black" stroke-width="1" /><polygon fill="none" id="7" points="48,56 47,57 46,57 47,57 48,58 49,58 49,57" stroke="black" stroke-width="1" /><polygon fill="none" id="8" points="43,56 44,56" stroke="black" stroke-width="1" /><polygon fill="none" id="9" points="33,56" stroke="black" stroke-width="1" /><polygon fill="none" id="10" points="35,55 41,55" stroke="black" stroke-width="1" /><polygon fill="none" id="11" points="46,52" stroke="black" stroke-width="1" /><polygon fill="none" id="12" points="43,47" stroke="black" stroke-width="1" /><polygon fill="none" id="13" points="44,41 45,41" stroke="black" stroke-width="1" /><polygon fill="none" id="14" points="40,39 40,42 39,43 36,43 35,44 27,44 35,44 36,43 41,43 42,44 42,42 41,42 40,41" stroke="black" stroke-width="1" /><polygon fill="none" id="15" points="50,38 48,40 47,40 48,40 49,39 50,39" stroke="black" stroke-width="1" /><polygon fill="none" id="16" points="39,36 39,37" stroke="black" stroke-width="1" /><polygon fill="none" id="17" points="38,33 38,34" stroke="black" stroke-width="1" /></svg>