<?xml version="1.0" encoding="utf-8" ?>
<svg baseProfile="full" height="100" version="1.1" width="100" xmlns="http://www.w3.org/2000/svg" xmlns:ev="http://www.w3.org/2001/xml-events" xmlns:xlink="http://www.w3.org/1999/xlink"><defs /><polygon fill="none" id="1" points="41,70 52,70" stroke="black" stroke-width="1" /><polygon fill="none" id="2" points="38,69 39,69" stroke="black" stroke-width="1" /><polygon fill="none" id="3" points="35,57 33,59 33,61 32,62 33,63 33,65 36,68 33,65 33,59" stroke="black" stroke-width="1" /><polygon fill="none" id="4" points="48,56 49,56" stroke="black" stroke-width="1" /><polygon fill="none" id="5" points="37,56" stroke="black" stroke-width="1" /><polygon fill="none" id="6" points="39,55 46,55" stroke="black" stroke-width="1" /><polygon fill="none" id="7" points="53,54 53,56 52,57 53,57 54,58 55,58 55,57 54,56 54,55" stroke="black" stroke-width="1" /><polygon fill="none" id="8" points="51,51" stroke="black" stroke-width="1" /><polygon fill="none" id="9" points="49,48 50,49" stroke="black" stroke-width="1" /><polygon fill="none" id="10" points="48,46" stroke="black" stroke-width="1" /><polygon fill="none" id="11" points="45,39 45,42 44,43 40,43 39,44 31,44 39,44 40,43 46,43 47,44 47,43 48,42 47,42 45,40" stroke="black" stroke-width="1" /><polygon fill="none" id="12" points="57,38 56,39 55,39 54,40 52,40 51,41 50,41 51,41 52,40 54,40 55,39 57,39" stroke="black" stroke-width="1" /><polygon fill="none" id="13" points="42,33 43,34 43,35 44,36 44,37 44,36 43,35 43,34" stroke="black" stroke-width="1" /></svg>