<?xml version="1.0" encoding="utf-8" ?>
<svg baseProfile="full" height="100" version="1.1" width="100" xmlns="http://www.w3.org/2000/svg" xmlns:ev="http://www.w3.org/2001/xml-events" xmlns:xlink="http://www.w3.org/1999/xlink"><defs /><polygon fill="none" id="1" points="58,69 57,70 46,70 58,70" stroke="black" stroke-width="1" /><polygon fill="none" id="2" points="42,69 44,69" stroke="black" stroke-width="1" /><polygon fill="none" id="3" points="39,57 37,59 37,60 36,61 36,64 40,68 37,65 37,59" stroke="black" stroke-width="1" /><polygon fill="none" id="4" points="54,56 55,56" stroke="black" stroke-width="1" /><polygon fill="none" id="5" points="41,56" stroke="black" stroke-width="1" /><polygon fill="none" id="6" points="43,55 52,55" stroke="black" stroke-width="1" /><polygon fill="none" id="7" points="59,54 59,56 58,57 59,57 60,58 61,58 61,57 60,56 60,55" stroke="black" stroke-width="1" /><polygon fill="none" id="8" points="54,47 55,48 55,49 57,51 55,49 55,48" stroke="black" stroke-width="1" /><polygon fill="none" id="9" points="50,39 50,42 49,43 44,43 43,44 34,44 44,44 45,43 52,43 53,44 53,45 53,42 52,42 50,40" stroke="black" stroke-width="1" /><polygon fill="none" id="10" points="63,38 62,39 61,39 60,40 58,40 57,41 55,41 57,41 58,40 60,40 61,39 63,39" stroke="black" stroke-width="1" /><polygon fill="none" id="11" points="47,33 47,34 48,35 48,36 49,37 49,36 48,35 48,34" stroke="black" stroke-width="1" /></svg>