<?xml version="1.0" encoding="utf-8" ?>
<svg baseProfile="full" height="100" version="1.1" width="100" xmlns="http://www.w3.org/2000/svg" xmlns:ev="http://www.w3.org/2001/xml-events" xmlns:xlink="http://www.w3.org/1999/xlink"><defs /><polygon fill="none" id="1" points="46,69 49,69 50,70 64,70 64,69 63,70 50,70 49,69" stroke="black" stroke-width="1" /><polygon fill="none" id="2" points="43,57 40,60 40,61 39,62 40,63 40,64 41,65 41,66 42,67 43,67 44,68 41,65 41,59" stroke="black" stroke-width="1" /><polygon fill="none" id="3" points="59,56 61,56" stroke="black" stroke-width="1" /><polygon fill="none" id="4" points="45,56 46,56" stroke="black" stroke-width="1" /><polygon fill="none" id="5" points="48,55 57,55" stroke="black" stroke-width="1" /><polygon fill="none" id="6" points="65,54 65,56 64,57 63,57 65,57 66,58 68,58 68,57" stroke="black" stroke-width="1" /><polygon fill="none" id="7" points="69,38 68,39 67,39 66,40 63,40 62,41 60,41 63,41 64,40 66,40 67,39 70,39 70,38" stroke="black" stroke-width="1" /><polygon fill="none" id="8" points="51,33 53,35 53,36 54,37 54,38 55,39 55,42 54,43 48,43 47,44 37,44 48,44 49,43 57,43 58,44 58,45 59,46 59,47 63,51 61,49 61,48 58,45 58,42 57,42 55,40 55,39 54,38 54,36 53,35 53,34 52,33" stroke="black" stroke-width="1" /></svg>