<?xml version="1.0" encoding="utf-8" ?>
<svg baseProfile="full" height="100" version="1.1" width="100" xmlns="http://www.w3.org/2000/svg" xmlns:ev="http://www.w3.org/2001/xml-events" xmlns:xlink="http://www.w3.org/1999/xlink"><defs /><polygon fill="none" id="1" points="70,69 69,70 55,70 70,70" stroke="black" stroke-width="1" /><polygon fill="none" id="2" points="50,69 53,69" stroke="black" stroke-width="1" /><polygon fill="none" id="3" points="47,57 46,58 45,58 44,59 44,60 43,61 43,64 46,67 47,67 48,68 45,65 45,64 44,63 44,61 45,60 45,59" stroke="black" stroke-width="1" /><polygon fill="none" id="4" points="49,56 50,56" stroke="black" stroke-width="1" /><polygon fill="none" id="5" points="52,55 63,55 64,56 66,56 64,56 63,55" stroke="black" stroke-width="1" /><polygon fill="none" id="6" points="71,54 71,56 70,57 69,57 71,57 72,58 74,58 74,57" stroke="black" stroke-width="1" /><polygon fill="none" id="7" points="75,38 74,39 73,39 72,40 69,40 68,41 66,41 69,41 70,40 73,40 74,39 76,39 76,38" stroke="black" stroke-width="1" /><polygon fill="none" id="8" points="56,33 57,34 57,35 59,37 59,38 60,39 60,42 59,43 53,43 52,44 41,44 53,44 54,43 62,43 63,44 63,45 66,48 66,49 69,52 69,51 64,46 64,42 63,42 60,39 60,38 59,37 59,36 58,35 58,34 57,33" stroke="black" stroke-width="1" /></svg>