<?xml version="1.0" encoding="utf-8" ?>
<svg baseProfile="full" height="100" version="1.1" width="100" xmlns="http://www.w3.org/2000/svg" xmlns:ev="http://www.w3.org/2001/xml-events" xmlns:xlink="http://www.w3.org/1999/xlink"><defs /><polygon fill="none" id="1" points="31,33 31,67 32,68 32,69 34,71 35,71 36,72 42,72 43,71 44,71 45,70 46,70 51,65 51,64 53,62 53,61 54,60 53,59 53,58 52,57 51,58 51,60 50,61 50,62 47,65 47,66 45,68 44,68 43,69 42,69 41,70 37,70 33,66 33,34 34,33" stroke="black" stroke-width="1" /></svg>