<?xml version="1.0" encoding="utf-8" ?>
<svg baseProfile="full" height="100" version="1.1" width="100" xmlns="http://www.w3.org/2000/svg" xmlns:ev="http://www.w3.org/2001/xml-events" xmlns:xlink="http://www.w3.org/1999/xlink"><defs /><polygon fill="none" id="1" points="35,33 35,52 34,53 34,63 35,64 35,67 36,68 36,69 38,71 40,71 41,72 47,72 48,71 50,71 51,70 52,70 59,63 59,62 60,61 60,59 58,57 58,59 57,60 57,61 49,69 47,69 46,70 42,70 41,69 40,69 38,67 38,65 37,64 37,47 38,46 38,33" stroke="black" stroke-width="1" /></svg>