<?xml version="1.0" encoding="utf-8" ?>
<svg baseProfile="full" height="100" version="1.1" width="100" xmlns="http://www.w3.org/2000/svg" xmlns:ev="http://www.w3.org/2001/xml-events" xmlns:xlink="http://www.w3.org/1999/xlink"><defs /><polygon fill="none" id="1" points="38,33 39,34 39,45 38,46 38,64 39,65 39,67 40,68 40,69 41,70 42,70 43,71 44,71 45,72 53,72 54,71 56,71 57,70 58,70 61,67 62,67 64,65 64,64 67,61 67,59 65,57 64,58 64,59 63,60 63,61 56,68 55,68 54,69 53,69 52,70 46,70 45,69 44,69 43,68 43,67 42,66 42,62 41,61 42,60 42,33" stroke="black" stroke-width="1" /></svg>