<?xml version="1.0" encoding="utf-8" ?>
<svg baseProfile="full" height="100" version="1.1" width="100" xmlns="http://www.w3.org/2000/svg" xmlns:ev="http://www.w3.org/2001/xml-events" xmlns:xlink="http://www.w3.org/1999/xlink"><defs /><polygon fill="none" id="1" points="42,33 42,34 43,35 43,40 42,41 42,64 43,65 43,67 44,68 44,69 45,70 46,70 47,71 49,71 50,72 58,72 59,71 61,71 62,70 63,70 64,69 65,69 67,67 68,67 73,62 73,61 74,60 74,59 73,59 72,58 72,57 70,59 70,60 62,68 61,68 60,69 58,69 57,70 51,70 50,69 49,69 46,66 46,33" stroke="black" stroke-width="1" /></svg>