<?xml version="1.0" encoding="utf-8" ?>
<svg baseProfile="full" height="100" version="1.1" width="100" xmlns="http://www.w3.org/2000/svg" xmlns:ev="http://www.w3.org/2001/xml-events" xmlns:xlink="http://www.w3.org/1999/xlink"><defs /><polygon fill="none" id="1" points="46,33 46,64 47,65 47,67 48,68 48,69 49,69 51,71 53,71 54,72 63,72 64,71 67,71 68,70 69,70 70,69 71,69 72,68 73,68 81,60 78,57 77,58 77,59 69,67 68,67 67,68 66,68 65,69 63,69 62,70 56,70 55,69 53,69 51,67 51,66 50,65 50,36 51,35 51,33" stroke="black" stroke-width="1" /></svg>