<?xml version="1.0" encoding="utf-8" ?>
<svg baseProfile="full" height="100" version="1.1" width="100" xmlns="http://www.w3.org/2000/svg" xmlns:ev="http://www.w3.org/2001/xml-events" xmlns:xlink="http://www.w3.org/1999/xlink"><defs /><polygon fill="none" id="1" points="31,33 31,68 32,69 32,70 34,72 35,72 36,73 43,73 44,72 45,72 46,71 47,71 52,66 52,65 54,63 54,62 55,61 55,60 54,59 54,58 53,57 52,57 51,58 51,60 50,61 50,62 47,65 47,66 45,68 44,68 43,69 42,69 41,70 38,70 34,66 34,35 35,34 35,33" stroke="black" stroke-width="1" /></svg>