<?xml version="1.0" encoding="utf-8" ?>
<svg baseProfile="full" height="100" version="1.1" width="100" xmlns="http://www.w3.org/2000/svg" xmlns:ev="http://www.w3.org/2001/xml-events" xmlns:xlink="http://www.w3.org/1999/xlink"><defs /><polygon fill="none" id="1" points="35,33 35,52 34,53 34,64 35,65 35,68 36,69 36,70 38,72 40,72 41,73 48,73 49,72 51,72 52,71 53,71 60,64 60,63 61,62 61,59 59,57 58,57 58,59 57,60 57,61 49,69 47,69 46,70 43,70 42,69 41,69 39,67 39,65 38,64 38,48 39,47 39,33" stroke="black" stroke-width="1" /></svg>