<?xml version="1.0" encoding="utf-8" ?>
<svg baseProfile="full" height="100" version="1.1" width="100" xmlns="http://www.w3.org/2000/svg" xmlns:ev="http://www.w3.org/2001/xml-events" xmlns:xlink="http://www.w3.org/1999/xlink"><defs /><polygon fill="none" id="1" points="38,33 38,34 39,35 39,45 38,46 38,65 39,66 39,68 40,69 40,70 41,71 42,71 43,72 44,72 45,73 54,73 55,72 57,72 58,71 59,71 62,68 63,68 65,66 65,65 68,62 68,59 66,57 65,57 64,58 64,59 63,60 63,61 56,68 55,68 54,69 53,69 52,70 47,70 46,69 45,69 44,68 44,67 43,66 43,33" stroke="black" stroke-width="1" /></svg>