<?xml version="1.0" encoding="utf-8" ?>
<svg baseProfile="full" height="100" version="1.1" width="100" xmlns="http://www.w3.org/2000/svg" xmlns:ev="http://www.w3.org/2001/xml-events" xmlns:xlink="http://www.w3.org/1999/xlink"><defs /><polygon fill="none" id="1" points="42,33 42,35 43,36 43,40 42,41 42,65 43,66 43,68 44,69 44,70 45,71 46,71 47,72 49,72 50,73 59,73 60,72 62,72 63,71 64,71 65,70 66,70 68,68 69,68 74,63 74,62 75,61 75,59 74,59 73,58 73,57 72,57 70,59 70,60 62,68 61,68 60,69 58,69 57,70 52,70 51,69 50,69 47,66 47,33" stroke="black" stroke-width="1" /></svg>