<?xml version="1.0" encoding="utf-8" ?>
<svg baseProfile="full" height="100" version="1.1" width="100" xmlns="http://www.w3.org/2000/svg" xmlns:ev="http://www.w3.org/2001/xml-events" xmlns:xlink="http://www.w3.org/1999/xlink"><defs /><polygon fill="none" id="1" points="46,33 46,65 47,66 47,68 48,69 48,70 49,70 51,72 53,72 54,73 64,73 65,72 68,72 69,71 70,71 71,70 72,70 73,69 74,69 82,61 82,60 79,57 78,57 77,58 77,59 69,67 68,67 67,68 66,68 65,69 63,69 62,70 57,70 56,69 54,69 52,67 52,66 51,65 51,37 52,36 52,33" stroke="black" stroke-width="1" /></svg>