<?xml version="1.0" encoding="utf-8" ?>
<svg baseProfile="full" height="100" version="1.1" width="100" xmlns="http://www.w3.org/2000/svg" xmlns:ev="http://www.w3.org/2001/xml-events" xmlns:xlink="http://www.w3.org/1999/xlink"><defs /><polygon fill="none" id="1" points="36,34 36,53 35,54 35,63 36,64 36,67 37,68 37,69 39,71 41,71 42,72 47,72 48,71 50,71 51,70 52,70 59,63 59,62 60,61 60,60 59,59 59,60 58,61 58,62 50,70 48,70 47,71 42,71 41,70 40,70 38,68 38,66 37,65 37,47 38,46 38,34" stroke="black" stroke-width="1" /></svg>