<?xml version="1.0" encoding="utf-8" ?>
<svg baseProfile="full" height="100" version="1.1" width="100" xmlns="http://www.w3.org/2000/svg" xmlns:ev="http://www.w3.org/2001/xml-events" xmlns:xlink="http://www.w3.org/1999/xlink"><defs /><polygon fill="none" id="1" points="40,34 40,46 39,47 39,64 40,65 40,67 41,68 41,69 42,70 43,70 44,71 45,71 46,72 53,72 54,71 56,71 57,70 58,70 61,67 62,67 64,65 64,64 67,61 67,60 66,59 65,59 65,60 64,61 64,62 57,69 56,69 55,70 54,70 53,71 46,71 45,70 44,70 43,69 43,68 42,67 42,63 41,62 41,61 42,60 42,34" stroke="black" stroke-width="1" /></svg>