<?xml version="1.0" encoding="utf-8" ?>
<svg baseProfile="full" height="100" version="1.1" width="100" xmlns="http://www.w3.org/2000/svg" xmlns:ev="http://www.w3.org/2001/xml-events" xmlns:xlink="http://www.w3.org/1999/xlink"><defs /><polygon fill="none" id="1" points="43,34 44,35 44,41 43,42 43,64 44,65 44,67 45,68 45,69 46,70 47,70 48,71 50,71 51,72 58,72 59,71 61,71 62,70 63,70 64,69 65,69 67,67 68,67 73,62 73,61 74,60 73,60 72,59 71,60 71,61 63,69 62,69 61,70 59,70 58,71 51,71 50,70 49,70 46,67 46,34" stroke="black" stroke-width="1" /></svg>