<?xml version="1.0" encoding="utf-8" ?>
<svg baseProfile="full" height="100" version="1.1" width="100" xmlns="http://www.w3.org/2000/svg" xmlns:ev="http://www.w3.org/2001/xml-events" xmlns:xlink="http://www.w3.org/1999/xlink"><defs /><polygon fill="none" id="1" points="70,41 69,42 68,42 68,43 73,48 73,49 76,52 76,53 77,54 77,55 78,56 78,57 79,58 79,60 80,61 82,61 83,60 84,60 84,59 83,58 83,57 82,56 82,55 81,54 81,53 79,51 79,50 77,48 77,47 72,42 72,41" stroke="black" stroke-width="1" /><polygon fill="none" id="2" points="38,39 38,47 39,48 39,54 40,55 40,59 41,60 41,62 42,63 42,64 43,65 43,66 47,70 48,70 49,71 53,71 55,69 56,69 57,68 57,67 59,65 59,64 60,63 60,62 61,61 60,60 59,60 58,59 57,59 56,60 56,62 55,63 55,64 52,67 49,67 47,65 47,64 46,63 46,62 45,61 45,60 44,59 44,57 43,56 43,49 42,48 42,40 43,39" stroke="black" stroke-width="1" /></svg>