<?xml version="1.0" encoding="utf-8" ?>
<svg baseProfile="full" height="100" version="1.1" width="100" xmlns="http://www.w3.org/2000/svg" xmlns:ev="http://www.w3.org/2001/xml-events" xmlns:xlink="http://www.w3.org/1999/xlink"><defs /><polygon fill="none" id="1" points="47,34 47,64 48,65 48,67 49,68 49,69 50,69 52,71 54,71 55,72 63,72 64,71 67,71 68,70 69,70 70,69 71,69 72,68 73,68 80,61 80,60 79,59 78,59 78,60 70,68 69,68 68,69 67,69 66,70 64,70 63,71 56,71 55,70 53,70 51,68 51,67 50,66 50,36 51,35 51,34" stroke="black" stroke-width="1" /></svg>