<?xml version="1.0" encoding="utf-8" ?>
<svg baseProfile="full" height="100" version="1.1" width="100" xmlns="http://www.w3.org/2000/svg" xmlns:ev="http://www.w3.org/2001/xml-events" xmlns:xlink="http://www.w3.org/1999/xlink"><defs /><polygon fill="none" id="1" points="30,32 30,68 31,69 31,70 33,72 34,72 35,73 43,73 44,72 45,72 46,71 47,71 52,66 52,65 54,63 54,62 55,61 55,59 54,58 54,57 53,56 51,56 50,57 50,59 49,60 49,61 46,64 46,65 44,67 43,67 42,68 41,68 40,69 38,69 34,65 34,35 35,34 35,32" stroke="black" stroke-width="1" /></svg>