<?xml version="1.0" encoding="utf-8" ?>
<svg baseProfile="full" height="100" version="1.1" width="100" xmlns="http://www.w3.org/2000/svg" xmlns:ev="http://www.w3.org/2001/xml-events" xmlns:xlink="http://www.w3.org/1999/xlink"><defs /><polygon fill="none" id="1" points="34,32 34,51 33,52 33,64 34,65 34,68 35,69 35,70 37,72 39,72 40,73 48,73 49,72 51,72 52,71 53,71 60,64 60,63 61,62 61,58 59,56 57,56 57,58 56,59 56,60 48,68 46,68 45,69 43,69 42,68 41,68 39,66 39,64 38,63 38,48 39,47 39,32" stroke="black" stroke-width="1" /></svg>