<?xml version="1.0" encoding="utf-8" ?>
<svg baseProfile="full" height="100" version="1.1" width="100" xmlns="http://www.w3.org/2000/svg" xmlns:ev="http://www.w3.org/2001/xml-events" xmlns:xlink="http://www.w3.org/1999/xlink"><defs /><polygon fill="none" id="1" points="37,32 37,34 38,35 38,44 37,45 37,65 38,66 38,68 39,69 39,70 40,71 41,71 42,72 43,72 44,73 54,73 55,72 57,72 58,71 59,71 62,68 63,68 65,66 65,65 68,62 68,58 66,56 64,56 63,57 63,58 62,59 62,60 55,67 54,67 53,68 52,68 51,69 47,69 46,68 45,68 44,67 44,66 43,65 43,32" stroke="black" stroke-width="1" /></svg>