<?xml version="1.0" encoding="utf-8" ?>
<svg baseProfile="full" height="100" version="1.1" width="100" xmlns="http://www.w3.org/2000/svg" xmlns:ev="http://www.w3.org/2001/xml-events" xmlns:xlink="http://www.w3.org/1999/xlink"><defs /><polygon fill="none" id="1" points="41,32 41,35 42,36 42,39 41,40 41,65 42,66 42,68 43,69 43,70 44,71 45,71 46,72 48,72 49,73 59,73 60,72 62,72 63,71 64,71 65,70 66,70 68,68 69,68 74,63 74,62 75,61 75,58 74,58 73,57 73,56 71,56 69,58 69,59 61,67 60,67 59,68 57,68 56,69 52,69 51,68 50,68 47,65 47,32" stroke="black" stroke-width="1" /></svg>