<?xml version="1.0" encoding="utf-8" ?>
<svg baseProfile="full" height="100" version="1.1" width="100" xmlns="http://www.w3.org/2000/svg" xmlns:ev="http://www.w3.org/2001/xml-events" xmlns:xlink="http://www.w3.org/1999/xlink"><defs /><polygon fill="none" id="1" points="45,32 45,65 46,66 46,68 47,69 47,70 48,70 50,72 52,72 53,73 64,73 65,72 68,72 69,71 70,71 71,70 72,70 73,69 74,69 82,61 82,59 79,56 77,56 76,57 76,58 68,66 67,66 66,67 65,67 64,68 62,68 61,69 57,69 56,68 54,68 52,66 52,65 51,64 51,37 52,36 52,32" stroke="black" stroke-width="1" /></svg>