<?xml version="1.0" encoding="utf-8" ?>
<svg baseProfile="full" height="100" version="1.1" width="100" xmlns="http://www.w3.org/2000/svg" xmlns:ev="http://www.w3.org/2001/xml-events" xmlns:xlink="http://www.w3.org/1999/xlink"><defs /><polygon fill="none" id="1" points="46,71 52,71" stroke="black" stroke-width="1" /><polygon fill="none" id="2" points="44,70" stroke="black" stroke-width="1" /><polygon fill="none" id="3" points="65,59 65,60 64,61 64,62 57,69 56,69 55,70 54,70 55,70 56,69 57,69 60,66 61,66 63,64 63,63 66,60" stroke="black" stroke-width="1" /><polygon fill="none" id="4" points="40,34 40,46 39,47 39,63 40,64 40,66 41,67 41,68 42,69 42,68 41,67 41,63 40,62 40,60 41,59 41,34" stroke="black" stroke-width="1" /></svg>