<?xml version="1.0" encoding="utf-8" ?>
<svg baseProfile="full" height="100" version="1.1" width="100" xmlns="http://www.w3.org/2000/svg" xmlns:ev="http://www.w3.org/2001/xml-events" xmlns:xlink="http://www.w3.org/1999/xlink"><defs /><polygon fill="none" id="1" points="78,59 78,60 70,68 69,68 68,69 67,69 66,70 64,70 66,70 67,69 68,69 69,68 70,68 71,67 72,67 79,60" stroke="black" stroke-width="1" /><polygon fill="none" id="2" points="47,34 47,63 48,64 48,66 49,67 49,68 50,68 52,70 54,70 55,71 62,71 55,71 54,70 52,70 50,68 50,67 49,66 49,35 50,34" stroke="black" stroke-width="1" /></svg>