<?xml version="1.0" encoding="utf-8" ?>
<svg baseProfile="full" height="100" version="1.1" width="100" xmlns="http://www.w3.org/2000/svg" xmlns:ev="http://www.w3.org/2001/xml-events" xmlns:xlink="http://www.w3.org/1999/xlink"><defs /><polygon fill="none" id="1" points="56,30 56,38 55,39 54,38 47,38 46,39 32,39 33,40 32,41 54,41 55,40 56,41 56,46 55,47 54,47 53,46 49,46 48,47 47,47 44,50 44,57 47,60 48,60 49,61 53,61 54,60 55,60 56,59 57,60 57,61 55,63 55,64 54,65 53,65 51,67 50,67 49,68 48,68 47,69 46,69 45,70 44,70 46,72 48,72 49,71 50,71 51,70 52,70 53,69 54,69 58,65 58,64 60,62 60,58 61,57 61,54 60,53 60,51 59,50 59,41 60,40 75,40 76,41 76,38 60,38 59,37 59,32 60,31 60,30" stroke="black" stroke-width="1" /><polygon fill="none" id="2" points="50,48 53,48 56,51 56,57 55,58 54,58 53,59 50,59 47,56 47,54 46,53 47,52 47,51" stroke="black" stroke-width="1" /></svg>