<?xml version="1.0" encoding="utf-8" ?>
<svg baseProfile="full" height="100" version="1.1" width="100" xmlns="http://www.w3.org/2000/svg" xmlns:ev="http://www.w3.org/2001/xml-events" xmlns:xlink="http://www.w3.org/1999/xlink"><defs /><polygon fill="none" id="1" points="53,41 52,42 51,42 51,43 53,45 53,46 55,48 55,49 56,50 56,51 57,52 57,53 58,54 58,56 59,57 59,60 60,61 61,61 62,60 63,60 63,59 62,58 62,56 61,55 61,54 60,53 60,52 59,51 59,50 58,49 58,48 57,47 57,46 56,45 56,44 54,42 54,41" stroke="black" stroke-width="1" /><polygon fill="none" id="2" points="29,39 29,53 30,54 30,60 31,61 31,64 32,65 32,66 33,67 33,68 35,70 36,70 37,71 39,71 40,70 41,70 41,69 43,67 43,66 44,65 44,64 45,63 45,60 44,59 42,59 42,62 41,63 41,65 39,67 37,67 35,65 35,64 34,63 34,61 33,60 33,57 32,56 32,39" stroke="black" stroke-width="1" /></svg>