<?xml version="1.0" encoding="utf-8" ?>
<svg baseProfile="full" height="100" version="1.1" width="100" xmlns="http://www.w3.org/2000/svg" xmlns:ev="http://www.w3.org/2001/xml-events" xmlns:xlink="http://www.w3.org/1999/xlink"><defs /><polygon fill="none" id="1" points="41,30 41,37 40,38 34,38 33,39 24,39 24,42 39,42 40,41 41,42 41,46 40,47 39,46 35,46 33,48 33,49 32,50 32,58 33,59 33,60 35,62 39,62 40,63 40,64 36,68 35,68 34,69 33,69 32,70 32,71 34,73 36,73 38,71 39,71 42,68 42,67 43,66 43,65 44,64 44,61 45,60 45,53 44,52 44,42 45,41 53,41 54,42 56,42 56,38 45,38 44,37 44,30" stroke="black" stroke-width="1" /><polygon fill="none" id="2" points="39,62 40,61 41,62 40,63" stroke="black" stroke-width="1" /><polygon fill="none" id="3" points="36,50 37,49 38,49 41,52 41,56 40,57 40,58 39,59 37,59 35,57 35,52 36,51" stroke="black" stroke-width="1" /></svg>