<?xml version="1.0" encoding="utf-8" ?>
<svg baseProfile="full" height="100" version="1.1" width="100" xmlns="http://www.w3.org/2000/svg" xmlns:ev="http://www.w3.org/2001/xml-events" xmlns:xlink="http://www.w3.org/1999/xlink"><defs /><polygon fill="none" id="1" points="42,31 42,38 41,39 35,39 34,40 25,40 25,41 38,41 39,40 41,40 42,41 42,47 41,48 39,48 38,47 36,47 34,49 34,50 33,51 33,57 34,58 34,59 36,61 38,61 39,60 40,60 41,59 42,59 43,60 43,61 42,62 42,63 41,64 41,65 37,69 36,69 35,70 34,70 34,71 35,72 37,70 38,70 41,67 41,66 42,65 42,64 43,63 43,60 44,59 44,54 43,53 43,41 44,40 54,40 55,41 55,39 44,39 43,38 43,31" stroke="black" stroke-width="1" /><polygon fill="none" id="2" points="35,49 36,48 39,48 42,51 42,57 41,58 41,59 40,60 36,60 34,58 34,51 35,50" stroke="black" stroke-width="1" /></svg>