<?xml version="1.0" encoding="utf-8" ?>
<svg baseProfile="full" height="100" version="1.1" width="100" xmlns="http://www.w3.org/2000/svg" xmlns:ev="http://www.w3.org/2001/xml-events" xmlns:xlink="http://www.w3.org/1999/xlink"><defs /><polygon fill="none" id="1" points="47,31 47,39 46,40 45,40 44,39 39,39 38,40 28,40 28,41 44,41 45,40 46,40 47,41 47,47 46,48 44,48 43,47 41,47 40,48 39,48 38,49 38,50 37,51 37,57 38,58 38,59 39,60 40,60 41,61 43,61 44,60 45,60 46,59 47,59 48,60 48,62 46,64 46,65 44,67 43,67 40,70 38,70 38,71 39,72 40,71 41,71 42,70 43,70 47,66 47,65 48,64 48,63 49,62 49,52 48,51 48,41 49,40 62,40 62,39 49,39 48,38 48,33 49,32 49,31" stroke="black" stroke-width="1" /><polygon fill="none" id="2" points="41,48 44,48 47,51 47,58 45,60 41,60 39,58 39,57 38,56 38,52 39,51 39,50" stroke="black" stroke-width="1" /></svg>