<?xml version="1.0" encoding="utf-8" ?>
<svg baseProfile="full" height="100" version="1.1" width="100" xmlns="http://www.w3.org/2000/svg" xmlns:ev="http://www.w3.org/2001/xml-events" xmlns:xlink="http://www.w3.org/1999/xlink"><defs /><polygon fill="none" id="1" points="59,41 58,42 57,42 57,43 59,45 59,46 61,48 61,49 63,51 63,52 64,53 64,55 65,56 65,57 66,58 66,60 67,61 68,61 69,60 70,60 70,59 69,58 69,57 68,56 68,54 67,53 67,52 66,51 66,50 64,48 64,47 63,46 63,45 60,42 60,41" stroke="black" stroke-width="1" /><polygon fill="none" id="2" points="32,39 32,51 33,52 33,58 34,59 34,62 35,63 35,65 37,67 37,68 39,70 40,70 41,71 44,71 48,67 48,66 49,65 49,64 50,63 50,60 49,60 48,59 47,59 47,62 46,63 46,64 43,67 41,67 39,65 39,64 38,63 38,62 37,61 37,58 36,57 36,51 35,50 35,39" stroke="black" stroke-width="1" /></svg>