<?xml version="1.0" encoding="utf-8" ?>
<svg baseProfile="full" height="100" version="1.1" width="100" xmlns="http://www.w3.org/2000/svg" xmlns:ev="http://www.w3.org/2001/xml-events" xmlns:xlink="http://www.w3.org/1999/xlink"><defs /><polygon fill="none" id="1" points="45,29 45,36 44,37 37,37 36,38 26,38 26,42 44,42 45,43 45,44 44,45 39,45 38,46 37,46 36,47 36,48 35,49 35,58 36,59 36,60 37,61 38,61 39,62 43,62 44,63 42,65 41,65 38,68 36,68 35,69 35,71 37,73 40,73 41,72 42,72 43,71 44,71 48,67 48,66 49,65 49,64 50,63 50,50 49,49 49,42 50,41 60,41 61,42 63,42 63,37 50,37 49,36 49,34 50,33 50,29" stroke="black" stroke-width="1" /><polygon fill="none" id="2" points="42,49 45,52 45,56 43,58 42,58 40,56 40,55 39,54 39,53 40,52 40,51" stroke="black" stroke-width="1" /></svg>