<?xml version="1.0" encoding="utf-8" ?>
<svg baseProfile="full" height="100" version="1.1" width="100" xmlns="http://www.w3.org/2000/svg" xmlns:ev="http://www.w3.org/2001/xml-events" xmlns:xlink="http://www.w3.org/1999/xlink"><defs /><polygon fill="none" id="1" points="50,29 50,36 49,37 42,37 41,38 29,38 29,42 49,42 50,43 50,44 49,45 43,45 39,49 39,58 43,62 48,62 49,63 48,64 47,64 44,67 43,67 42,68 41,68 40,69 39,69 39,71 41,73 45,73 46,72 47,72 49,70 50,70 53,67 53,66 55,64 55,61 56,60 56,52 55,51 55,42 56,41 67,41 68,42 70,42 70,37 56,37 55,36 55,29" stroke="black" stroke-width="1" /><polygon fill="none" id="2" points="46,50 47,49 50,52 50,56 49,57 48,57 47,58 46,58 44,56 44,54 43,53 44,52 44,51 45,50" stroke="black" stroke-width="1" /></svg>