<?xml version="1.0" encoding="utf-8" ?>
<svg baseProfile="full" height="100" version="1.1" width="100" xmlns="http://www.w3.org/2000/svg" xmlns:ev="http://www.w3.org/2001/xml-events" xmlns:xlink="http://www.w3.org/1999/xlink"><defs /><polygon fill="none" id="1" points="60,29 60,36 59,37 50,37 49,38 34,38 34,42 59,42 60,43 60,44 59,45 52,45 51,46 50,46 47,49 47,58 50,61 51,61 52,62 57,62 58,63 55,66 54,66 53,67 52,67 51,68 49,68 48,69 47,69 47,71 49,73 54,73 55,72 56,72 57,71 58,71 59,70 60,70 66,64 66,62 67,61 67,52 66,51 66,42 67,41 80,41 81,42 84,42 84,37 67,37 66,36 66,29" stroke="black" stroke-width="1" /><polygon fill="none" id="2" points="55,50 56,49 57,49 60,52 60,56 59,57 58,57 57,58 56,58 55,57 54,57 53,56 53,55 52,54 52,53 53,52 53,51 54,50" stroke="black" stroke-width="1" /></svg>