<?xml version="1.0" encoding="utf-8" ?>
<svg baseProfile="full" height="100" version="1.1" width="100" xmlns="http://www.w3.org/2000/svg" xmlns:ev="http://www.w3.org/2001/xml-events" xmlns:xlink="http://www.w3.org/1999/xlink"><defs /><polygon fill="none" id="1" points="45,60 47,60" stroke="black" stroke-width="1" /><polygon fill="none" id="2" points="42,50 41,51 41,56 42,57 42,56 41,55 41,51" stroke="black" stroke-width="1" /><polygon fill="none" id="3" points="45,47 44,48 45,47 47,47" stroke="black" stroke-width="1" /><polygon fill="none" id="4" points="44,39 43,40 31,40 48,40 48,39" stroke="black" stroke-width="1" /><polygon fill="none" id="5" points="52,31 52,47 51,48 50,48 52,50 52,58 53,59 53,62 51,64 51,65 50,66 49,66 46,69 45,69 44,70 43,70 43,71 44,70 45,70 47,68 48,68 51,65 51,64 53,62 53,59 54,58 54,54 53,53 53,40 54,39 68,39 54,39 53,38 53,31" stroke="black" stroke-width="1" /></svg>