<?xml version="1.0" encoding="utf-8" ?>
<svg baseProfile="full" height="100" version="1.1" width="100" xmlns="http://www.w3.org/2000/svg" xmlns:ev="http://www.w3.org/2001/xml-events" xmlns:xlink="http://www.w3.org/1999/xlink"><defs /><polygon fill="none" id="1" points="50,60 52,60" stroke="black" stroke-width="1" /><polygon fill="none" id="2" points="48,48 45,51 45,56 48,59 46,57 46,55 45,54 45,52 46,51 46,50" stroke="black" stroke-width="1" /><polygon fill="none" id="3" points="50,47 52,47" stroke="black" stroke-width="1" /><polygon fill="none" id="4" points="48,39 47,40 34,40 53,40 53,39" stroke="black" stroke-width="1" /><polygon fill="none" id="5" points="57,31 57,47 56,48 55,48 57,50 57,58 58,59 58,62 56,64 56,65 55,66 54,66 52,68 51,68 50,69 49,69 48,70 47,70 47,71 48,70 49,70 50,69 51,69 52,68 53,68 57,64 57,63 59,61 59,57 60,56 60,55 59,54 59,52 58,51 58,40 59,39 75,39 59,39 58,38 58,31" stroke="black" stroke-width="1" /></svg>