<?xml version="1.0" encoding="utf-8" ?>
<svg baseProfile="full" height="100" version="1.1" width="100" xmlns="http://www.w3.org/2000/svg" xmlns:ev="http://www.w3.org/2001/xml-events" xmlns:xlink="http://www.w3.org/1999/xlink"><defs /><polygon fill="none" id="1" points="65,41 64,42 62,42 62,43 63,43 65,45 65,46 67,48 67,49 69,51 69,52 70,53 70,54 71,55 71,56 72,57 72,58 73,59 73,61 75,61 76,60 77,60 77,59 76,58 76,57 75,56 75,54 73,52 73,51 72,50 72,49 70,47 70,46 66,42 66,41" stroke="black" stroke-width="1" /><polygon fill="none" id="2" points="35,39 35,50 36,51 36,57 37,58 37,61 38,62 38,63 39,64 39,65 40,66 40,67 43,70 44,70 45,71 48,71 49,70 50,70 53,67 53,66 54,65 54,64 55,63 55,60 54,60 53,59 52,59 52,61 51,62 51,63 50,64 50,65 48,67 45,67 43,65 43,64 42,63 42,62 41,61 41,59 40,58 40,53 39,52 39,39" stroke="black" stroke-width="1" /></svg>