<?xml version="1.0" encoding="utf-8" ?>
<svg baseProfile="full" height="100" version="1.1" width="100" xmlns="http://www.w3.org/2000/svg" xmlns:ev="http://www.w3.org/2001/xml-events" xmlns:xlink="http://www.w3.org/1999/xlink"><defs /><polygon fill="none" id="1" points="45,33 45,44 44,45 34,45 33,44 33,35 30,35 30,41 31,42 31,44 29,46 23,46 23,48 30,48 31,49 31,52 30,53 30,64 31,65 31,67 33,69 34,69 35,70 52,70 52,67 49,67 48,68 36,68 35,67 34,67 33,66 33,48 34,47 44,47 45,48 45,57 44,58 42,58 40,56 39,56 40,57 40,59 41,60 46,60 47,59 47,47 48,46 56,46 56,44 48,44 47,43 47,33" stroke="black" stroke-width="1" /></svg>