<?xml version="1.0" encoding="utf-8" ?>
<svg baseProfile="full" height="100" version="1.1" width="100" xmlns="http://www.w3.org/2000/svg" xmlns:ev="http://www.w3.org/2001/xml-events" xmlns:xlink="http://www.w3.org/1999/xlink"><defs /><polygon fill="none" id="1" points="56,33 56,44 55,45 42,45 41,44 41,35 38,35 38,45 37,46 36,45 34,45 33,46 28,46 29,47 29,48 37,48 38,49 38,66 41,69 43,69 44,70 65,70 65,67 62,67 61,68 45,68 44,67 43,67 41,65 41,48 42,47 56,47 57,48 56,49 56,57 55,58 53,58 52,57 51,57 50,56 49,56 50,57 50,59 51,59 52,60 58,60 59,59 59,47 60,46 61,46 62,47 63,46 70,46 70,44 60,44 59,43 59,33" stroke="black" stroke-width="1" /></svg>