<?xml version="1.0" encoding="utf-8" ?>
<svg baseProfile="full" height="100" version="1.1" width="100" xmlns="http://www.w3.org/2000/svg" xmlns:ev="http://www.w3.org/2001/xml-events" xmlns:xlink="http://www.w3.org/1999/xlink"><defs /><polygon fill="none" id="1" points="50,33 50,34 51,35 51,44 50,45 38,45 37,44 37,35 34,35 34,43 35,44 33,46 32,46 31,45 30,46 25,46 26,47 26,48 34,48 35,49 34,50 34,65 35,66 35,67 37,69 39,69 40,70 58,70 58,67 56,67 55,68 41,68 40,67 39,67 37,65 37,48 38,47 50,47 51,48 51,56 49,58 48,58 47,57 46,57 45,56 44,56 45,57 45,59 46,59 47,60 52,60 53,59 53,47 54,46 63,46 63,44 54,44 53,43 53,33" stroke="black" stroke-width="1" /></svg>