<?xml version="1.0" encoding="utf-8" ?>
<svg baseProfile="full" height="100" version="1.1" width="100" xmlns="http://www.w3.org/2000/svg" xmlns:ev="http://www.w3.org/2001/xml-events" xmlns:xlink="http://www.w3.org/1999/xlink"><defs /><polygon fill="none" id="1" points="62,33 62,44 61,45 46,45 45,44 45,35 42,35 42,44 40,46 39,45 37,45 36,46 31,46 31,48 41,48 42,49 42,66 45,69 48,69 49,70 72,70 71,69 71,67 68,67 67,68 50,68 49,67 47,67 46,66 46,65 45,64 45,48 46,47 61,47 62,48 62,57 61,58 58,58 57,57 56,57 55,56 54,56 54,57 55,58 55,59 56,59 57,60 64,60 65,59 65,47 66,46 67,46 68,47 69,47 70,46 77,46 77,44 66,44 65,43 65,33" stroke="black" stroke-width="1" /></svg>