<?xml version="1.0" encoding="utf-8" ?>
<svg baseProfile="full" height="100" version="1.1" width="100" xmlns="http://www.w3.org/2000/svg" xmlns:ev="http://www.w3.org/2001/xml-events" xmlns:xlink="http://www.w3.org/1999/xlink"><defs /><polygon fill="none" id="1" points="47,31 48,32 47,33 47,37 45,39 38,39 37,38 35,38 36,39 36,41 44,41 45,40 46,40 47,41 47,44 46,45 46,49 45,50 44,50 43,51 42,51 40,53 39,53 35,57 35,58 34,59 34,61 33,62 33,66 34,67 34,68 35,68 36,69 41,69 42,68 43,68 44,67 45,67 46,66 47,66 48,67 48,69 49,68 51,68 51,66 50,65 50,64 55,59 55,58 57,56 57,55 59,53 59,52 60,51 60,50 62,48 64,48 65,49 66,49 67,50 68,50 72,54 72,61 67,66 66,66 65,67 63,67 62,68 57,68 57,69 58,70 58,71 62,71 63,70 65,70 66,69 68,69 70,67 71,67 74,64 74,63 75,62 75,60 76,59 76,57 75,56 75,53 74,52 74,51 72,49 71,49 70,48 69,48 68,47 66,47 65,46 63,46 62,45 63,44 63,43 59,43 59,45 58,46 55,46 54,47 50,47 49,46 49,45 50,44 50,41 51,40 56,40 57,39 62,39 63,38 66,38 66,35 65,35 64,36 60,36 59,37 54,37 53,38 51,38 50,37 50,36 51,35 51,31" stroke="black" stroke-width="1" /><polygon fill="none" id="2" points="45,52 46,52 47,53 46,54 46,59 47,60 47,62 43,66 42,66 41,67 38,67 36,65 36,62 37,61 37,60" stroke="black" stroke-width="1" /><polygon fill="none" id="3" points="53,49 54,48 57,48 58,49 57,50 57,51 56,52 56,53 54,55 54,56 52,58 52,59 51,60 50,60 49,59 49,51 51,49" stroke="black" stroke-width="1" /></svg>