<?xml version="1.0" encoding="utf-8" ?>
<svg baseProfile="full" height="100" version="1.1" width="100" xmlns="http://www.w3.org/2000/svg" xmlns:ev="http://www.w3.org/2001/xml-events" xmlns:xlink="http://www.w3.org/1999/xlink"><defs /><polygon fill="none" id="1" points="67,33 67,40 68,41 68,43 66,45 50,45 49,44 49,39 50,38 50,36 49,35 46,35 46,44 44,46 43,45 41,45 40,46 34,46 34,48 45,48 46,49 46,66 49,69 52,69 53,70 78,70 78,67 74,67 73,68 54,68 53,67 52,67 49,64 49,48 50,47 67,47 68,48 68,50 67,51 67,53 68,54 68,56 66,58 63,58 62,57 61,57 60,56 59,56 59,58 60,59 61,59 62,60 69,60 70,59 71,59 71,47 72,46 73,46 74,47 76,47 77,46 85,46 84,45 84,44 72,44 71,43 71,33" stroke="black" stroke-width="1" /></svg>