<?xml version="1.0" encoding="utf-8" ?>
<svg baseProfile="full" height="100" version="1.1" width="100" xmlns="http://www.w3.org/2000/svg" xmlns:ev="http://www.w3.org/2001/xml-events" xmlns:xlink="http://www.w3.org/1999/xlink"><defs /><polygon fill="none" id="1" points="45,33 45,44 44,45 35,45 34,44 34,35 30,35 30,42 31,43 31,44 29,46 23,46 23,49 30,49 31,50 31,52 30,53 30,65 31,66 31,68 33,70 34,70 35,71 53,71 53,67 49,67 48,68 37,68 36,67 35,67 34,66 34,49 35,48 44,48 45,49 45,57 44,58 43,58 41,56 39,56 39,57 40,58 40,60 41,61 47,61 48,60 48,48 49,47 57,47 57,44 49,44 48,43 48,33" stroke="black" stroke-width="1" /></svg>