<?xml version="1.0" encoding="utf-8" ?>
<svg baseProfile="full" height="100" version="1.1" width="100" xmlns="http://www.w3.org/2000/svg" xmlns:ev="http://www.w3.org/2001/xml-events" xmlns:xlink="http://www.w3.org/1999/xlink"><defs /><polygon fill="none" id="1" points="50,33 50,35 51,36 51,44 50,45 39,45 38,44 38,35 34,35 34,45 33,46 32,45 31,45 30,46 25,46 25,47 26,48 26,49 33,49 34,50 34,66 35,67 35,68 37,70 39,70 40,71 59,71 59,67 56,67 55,68 42,68 41,67 40,67 38,65 38,49 39,48 50,48 51,49 51,56 49,58 48,57 47,57 46,56 44,56 44,57 45,58 45,60 46,60 47,61 53,61 54,60 54,48 55,47 64,47 64,44 55,44 54,43 54,33" stroke="black" stroke-width="1" /></svg>