<?xml version="1.0" encoding="utf-8" ?>
<svg baseProfile="full" height="100" version="1.1" width="100" xmlns="http://www.w3.org/2000/svg" xmlns:ev="http://www.w3.org/2001/xml-events" xmlns:xlink="http://www.w3.org/1999/xlink"><defs /><polygon fill="none" id="1" points="56,33 56,44 55,45 43,45 42,44 42,35 38,35 38,44 37,45 34,45 33,46 28,46 28,47 29,48 29,49 37,49 38,50 38,67 41,70 43,70 44,71 66,71 66,67 62,67 61,68 46,68 45,67 44,67 42,65 42,49 43,48 55,48 56,49 56,57 55,58 54,58 53,57 52,57 51,56 49,56 49,57 50,58 50,60 51,60 52,61 59,61 60,60 60,48 61,47 62,48 63,48 64,47 71,47 71,44 61,44 60,43 60,33" stroke="black" stroke-width="1" /></svg>