<?xml version="1.0" encoding="utf-8" ?>
<svg baseProfile="full" height="100" version="1.1" width="100" xmlns="http://www.w3.org/2000/svg" xmlns:ev="http://www.w3.org/2001/xml-events" xmlns:xlink="http://www.w3.org/1999/xlink"><defs /><polygon fill="none" id="1" points="62,33 62,44 61,45 47,45 46,44 46,35 42,35 42,44 41,45 37,45 36,46 31,46 31,49 41,49 42,50 42,67 45,70 48,70 49,71 73,71 73,70 72,69 72,67 68,67 67,68 51,68 50,67 48,67 47,66 47,65 46,64 46,49 47,48 61,48 62,49 62,57 61,58 59,58 58,57 57,57 56,56 54,56 54,58 55,59 55,60 56,60 57,61 65,61 66,60 66,48 67,47 68,48 70,48 71,47 78,47 78,44 67,44 66,43 66,33" stroke="black" stroke-width="1" /></svg>