<?xml version="1.0" encoding="utf-8" ?>
<svg baseProfile="full" height="100" version="1.1" width="100" xmlns="http://www.w3.org/2000/svg" xmlns:ev="http://www.w3.org/2001/xml-events" xmlns:xlink="http://www.w3.org/1999/xlink"><defs /><polygon fill="none" id="1" points="67,33 67,41 68,42 68,43 66,45 51,45 50,44 50,40 51,39 51,36 50,35 46,35 46,44 45,45 41,45 40,46 34,46 34,49 45,49 46,50 46,67 49,70 52,70 53,71 79,71 79,67 74,67 73,68 55,68 54,67 53,67 50,64 50,49 51,48 67,48 68,49 68,50 67,51 67,54 68,55 68,56 66,58 64,58 63,57 62,57 61,56 59,56 59,59 60,60 61,60 62,61 70,61 71,60 72,60 72,48 73,47 74,48 77,48 78,47 86,47 86,46 85,45 85,44 73,44 72,43 72,33" stroke="black" stroke-width="1" /></svg>