<?xml version="1.0" encoding="utf-8" ?>
<svg baseProfile="full" height="100" version="1.1" width="100" xmlns="http://www.w3.org/2000/svg" xmlns:ev="http://www.w3.org/2001/xml-events" xmlns:xlink="http://www.w3.org/1999/xlink"><defs /><polygon fill="none" id="1" points="46,34 46,45 45,46 34,46 33,45 33,36 31,36 31,41 32,42 32,45 30,47 24,47 24,48 31,48 32,49 32,53 31,54 31,64 32,65 32,67 34,69 35,69 36,70 52,70 52,68 50,68 49,69 36,69 35,68 34,68 33,67 33,48 34,47 45,47 46,48 46,58 45,59 42,59 41,58 41,59 42,60 46,60 47,59 47,47 48,46 56,46 56,45 48,45 47,44 47,34" stroke="black" stroke-width="1" /></svg>