<?xml version="1.0" encoding="utf-8" ?>
<svg baseProfile="full" height="100" version="1.1" width="100" xmlns="http://www.w3.org/2000/svg" xmlns:ev="http://www.w3.org/2001/xml-events" xmlns:xlink="http://www.w3.org/1999/xlink"><defs /><polygon fill="none" id="1" points="51,34 52,35 52,45 51,46 38,46 37,45 37,36 35,36 35,43 36,44 36,45 34,47 27,47 27,48 35,48 36,49 36,50 35,51 35,65 36,66 36,67 38,69 40,69 41,70 58,70 58,68 57,68 56,69 41,69 40,68 39,68 37,66 37,48 38,47 51,47 52,48 52,57 50,59 48,59 47,58 46,58 46,59 47,59 48,60 52,60 53,59 53,47 54,46 63,46 63,45 54,45 53,44 53,34" stroke="black" stroke-width="1" /></svg>