<?xml version="1.0" encoding="utf-8" ?>
<svg baseProfile="full" height="100" version="1.1" width="100" xmlns="http://www.w3.org/2000/svg" xmlns:ev="http://www.w3.org/2001/xml-events" xmlns:xlink="http://www.w3.org/1999/xlink"><defs /><polygon fill="none" id="1" points="57,34 57,45 56,46 42,46 41,45 41,36 39,36 39,46 38,47 37,47 36,46 35,46 34,47 30,47 30,48 38,48 39,49 39,66 42,69 44,69 45,70 65,70 65,68 63,68 62,69 45,69 44,68 43,68 41,66 41,48 42,47 57,47 58,48 58,49 57,50 57,58 56,59 53,59 52,58 51,58 51,59 52,59 53,60 58,60 59,59 59,47 60,46 70,46 70,45 60,45 59,44 59,34" stroke="black" stroke-width="1" /></svg>