<?xml version="1.0" encoding="utf-8" ?>
<svg baseProfile="full" height="100" version="1.1" width="100" xmlns="http://www.w3.org/2000/svg" xmlns:ev="http://www.w3.org/2001/xml-events" xmlns:xlink="http://www.w3.org/1999/xlink"><defs /><polygon fill="none" id="1" points="63,34 63,45 62,46 46,46 45,45 45,36 43,36 43,45 41,47 40,47 39,46 38,46 37,47 32,47 32,48 42,48 43,49 43,66 46,69 49,69 50,70 71,70 71,68 69,68 68,69 50,69 49,68 47,68 46,67 46,66 45,65 45,48 46,47 62,47 63,48 63,58 62,59 58,59 57,58 56,58 55,57 56,58 56,59 57,59 58,60 64,60 65,59 65,47 66,46 68,46 69,47 70,46 77,46 77,45 66,45 65,44 65,34" stroke="black" stroke-width="1" /></svg>