<?xml version="1.0" encoding="utf-8" ?>
<svg baseProfile="full" height="100" version="1.1" width="100" xmlns="http://www.w3.org/2000/svg" xmlns:ev="http://www.w3.org/2001/xml-events" xmlns:xlink="http://www.w3.org/1999/xlink"><defs /><polygon fill="none" id="1" points="47,41 46,42 45,42 45,44 48,47 48,48 49,49 49,50 50,51 50,53 51,54 51,56 52,57 52,59 53,60 53,62 55,62 56,61 57,61 57,59 56,58 56,56 55,55 55,53 54,52 54,51 53,50 53,49 52,48 52,47 51,46 51,45 50,44 50,43 49,42 49,41" stroke="black" stroke-width="1" /><polygon fill="none" id="2" points="25,39 25,41 26,42 26,58 27,59 27,63 28,64 28,66 29,67 29,68 30,69 30,70 32,72 36,72 38,70 38,69 39,68 39,67 40,66 40,64 41,63 41,60 40,59 38,59 38,60 37,61 37,64 34,67 32,65 32,64 31,63 31,61 30,60 30,53 29,52 29,39" stroke="black" stroke-width="1" /></svg>