<?xml version="1.0" encoding="utf-8" ?>
<svg baseProfile="full" height="100" version="1.1" width="100" xmlns="http://www.w3.org/2000/svg" xmlns:ev="http://www.w3.org/2001/xml-events" xmlns:xlink="http://www.w3.org/1999/xlink"><defs /><polygon fill="none" id="1" points="68,34 68,40 69,41 69,44 67,46 50,46 49,45 49,39 50,38 50,37 49,36 47,36 47,45 45,47 44,47 43,46 42,46 41,47 35,47 35,48 46,48 47,49 47,66 50,69 53,69 54,70 78,70 78,68 75,68 74,69 54,69 53,68 52,68 49,65 49,48 50,47 68,47 69,48 69,51 68,52 68,53 69,54 69,57 67,59 63,59 62,58 61,58 60,57 60,58 61,59 62,59 63,60 69,60 70,59 71,59 71,47 72,46 74,46 75,47 76,47 77,46 84,46 84,45 72,45 71,44 71,34" stroke="black" stroke-width="1" /></svg>