<?xml version="1.0" encoding="utf-8" ?>
<svg baseProfile="full" height="100" version="1.1" width="100" xmlns="http://www.w3.org/2000/svg" xmlns:ev="http://www.w3.org/2001/xml-events" xmlns:xlink="http://www.w3.org/1999/xlink"><defs /><polygon fill="none" id="1" points="44,32 44,43 43,44 35,44 34,43 34,34 29,34 29,42 30,43 28,45 22,45 22,49 29,49 30,50 30,51 29,52 29,65 30,66 30,68 32,70 33,70 34,71 53,71 53,66 48,66 47,67 37,67 36,66 35,66 34,65 34,49 35,48 43,48 44,49 44,56 43,57 41,55 38,55 38,57 39,58 39,60 40,61 47,61 48,60 48,48 49,47 57,47 57,43 49,43 48,42 48,32" stroke="black" stroke-width="1" /></svg>