<?xml version="1.0" encoding="utf-8" ?>
<svg baseProfile="full" height="100" version="1.1" width="100" xmlns="http://www.w3.org/2000/svg" xmlns:ev="http://www.w3.org/2001/xml-events" xmlns:xlink="http://www.w3.org/1999/xlink"><defs /><polygon fill="none" id="1" points="49,32 49,35 50,36 50,43 49,44 39,44 38,43 38,34 33,34 33,43 32,44 30,44 29,45 24,45 24,47 25,48 25,49 32,49 33,50 33,66 34,67 34,68 36,70 38,70 39,71 59,71 59,66 55,66 54,67 42,67 41,66 40,66 38,64 38,49 39,48 49,48 50,49 50,55 49,56 47,56 46,55 43,55 43,57 44,58 44,60 45,60 46,61 53,61 54,60 54,48 55,47 64,47 64,43 55,43 54,42 54,32" stroke="black" stroke-width="1" /></svg>