<?xml version="1.0" encoding="utf-8" ?>
<svg baseProfile="full" height="100" version="1.1" width="100" xmlns="http://www.w3.org/2000/svg" xmlns:ev="http://www.w3.org/2001/xml-events" xmlns:xlink="http://www.w3.org/1999/xlink"><defs /><polygon fill="none" id="1" points="55,32 55,43 54,44 43,44 42,43 42,34 37,34 37,43 36,44 33,44 32,45 27,45 27,47 28,48 28,49 36,49 37,50 37,67 40,70 42,70 43,71 66,71 66,66 61,66 60,67 46,67 45,66 44,66 42,64 42,49 43,48 54,48 55,49 55,56 54,57 53,56 52,56 51,55 48,55 48,57 49,58 49,60 50,60 51,61 59,61 60,60 60,49 61,48 63,48 64,47 71,47 71,43 61,43 60,42 60,32" stroke="black" stroke-width="1" /></svg>