<?xml version="1.0" encoding="utf-8" ?>
<svg baseProfile="full" height="100" version="1.1" width="100" xmlns="http://www.w3.org/2000/svg" xmlns:ev="http://www.w3.org/2001/xml-events" xmlns:xlink="http://www.w3.org/1999/xlink"><defs /><polygon fill="none" id="1" points="66,32 66,41 67,42 65,44 51,44 50,43 50,40 51,39 51,35 50,34 45,34 45,43 44,44 40,44 39,45 33,45 33,49 44,49 45,50 45,67 48,70 51,70 52,71 79,71 79,66 73,66 72,67 55,67 54,66 53,66 50,63 50,49 51,48 66,48 67,49 66,50 66,54 67,55 65,57 64,57 63,56 62,56 61,55 58,55 58,59 59,60 60,60 61,61 70,61 71,60 72,60 72,49 73,48 77,48 78,47 86,47 86,45 85,44 85,43 73,43 72,42 72,32" stroke="black" stroke-width="1" /></svg>