<?xml version="1.0" encoding="utf-8" ?>
<svg baseProfile="full" height="100" version="1.1" width="100" xmlns="http://www.w3.org/2000/svg" xmlns:ev="http://www.w3.org/2001/xml-events" xmlns:xlink="http://www.w3.org/1999/xlink"><defs /><polygon fill="none" id="1" points="50,68 49,69 36,69 51,69 51,68" stroke="black" stroke-width="1" /><polygon fill="none" id="2" points="34,68" stroke="black" stroke-width="1" /><polygon fill="none" id="3" points="46,34 46,45 45,46 33,46 32,45 32,36 31,36 31,40 32,41 32,45 30,47 24,47 31,47 32,48 32,53 31,54 31,63 32,64 32,66 32,47 33,46 45,46 46,47 46,58 45,59 42,59 45,59 46,58 46,46 47,45 55,45 47,45 46,44" stroke="black" stroke-width="1" /></svg>