<?xml version="1.0" encoding="utf-8" ?>
<svg baseProfile="full" height="100" version="1.1" width="100" xmlns="http://www.w3.org/2000/svg" xmlns:ev="http://www.w3.org/2001/xml-events" xmlns:xlink="http://www.w3.org/1999/xlink"><defs /><polygon fill="none" id="1" points="57,68 56,69 41,69 57,69" stroke="black" stroke-width="1" /><polygon fill="none" id="2" points="46,58" stroke="black" stroke-width="1" /><polygon fill="none" id="3" points="52,34 52,45 51,46 37,46 36,45 36,36 35,36 35,42 36,43 36,45 34,47 27,47 35,47 36,48 36,50 35,51 35,64 36,65 36,66 38,68 39,68 38,68 36,66 36,47 37,46 51,46 52,47 52,57 50,59 48,59 51,59 52,58 52,46 53,45 62,45 53,45 52,44" stroke="black" stroke-width="1" /></svg>