<?xml version="1.0" encoding="utf-8" ?>
<svg baseProfile="full" height="100" version="1.1" width="100" xmlns="http://www.w3.org/2000/svg" xmlns:ev="http://www.w3.org/2001/xml-events" xmlns:xlink="http://www.w3.org/1999/xlink"><defs /><polygon fill="none" id="1" points="63,68 62,69 45,69 64,69 64,68" stroke="black" stroke-width="1" /><polygon fill="none" id="2" points="51,58" stroke="black" stroke-width="1" /><polygon fill="none" id="3" points="57,34 57,45 56,46 41,46 40,45 40,36 39,36 39,46 38,47 36,47 35,46 34,47 30,47 38,47 39,48 39,65 42,68 43,68 42,68 40,66 40,47 41,46 57,46 58,47 58,49 57,50 57,58 56,59 53,59 57,59 58,58 58,46 59,45 69,45 59,45 58,44 58,34" stroke="black" stroke-width="1" /></svg>