<?xml version="1.0" encoding="utf-8" ?>
<svg baseProfile="full" height="100" version="1.1" width="100" xmlns="http://www.w3.org/2000/svg" xmlns:ev="http://www.w3.org/2001/xml-events" xmlns:xlink="http://www.w3.org/1999/xlink"><defs /><polygon fill="none" id="1" points="69,68 68,69 50,69 70,69 70,68" stroke="black" stroke-width="1" /><polygon fill="none" id="2" points="56,58" stroke="black" stroke-width="1" /><polygon fill="none" id="3" points="63,34 63,45 62,46 45,46 44,45 44,36 43,36 43,45 41,47 39,47 38,46 37,47 32,47 42,47 43,48 43,65 46,68 48,68 46,68 45,67 45,66 44,65 44,47 45,46 62,46 63,47 63,58 62,59 58,59 63,59 64,58 64,46 65,45 76,45 65,45 64,44 64,34" stroke="black" stroke-width="1" /></svg>