<?xml version="1.0" encoding="utf-8" ?>
<svg baseProfile="full" height="100" version="1.1" width="100" xmlns="http://www.w3.org/2000/svg" xmlns:ev="http://www.w3.org/2001/xml-events" xmlns:xlink="http://www.w3.org/1999/xlink"><defs /><polygon fill="none" id="1" points="53,41 52,42 51,42 51,44 53,46 53,47 55,49 55,50 56,51 56,52 57,53 57,54 58,55 58,57 59,58 59,61 60,62 62,62 63,61 64,61 64,59 63,58 63,56 62,55 62,54 61,53 61,52 60,51 60,50 59,49 59,48 58,47 58,46 57,45 57,44 55,42 55,41" stroke="black" stroke-width="1" /><polygon fill="none" id="2" points="29,39 29,54 30,55 30,61 31,62 31,65 32,66 32,67 33,68 33,69 35,71 36,71 37,72 40,72 41,71 42,71 42,70 44,68 44,67 45,66 45,65 46,64 46,60 45,59 42,59 42,62 41,63 41,65 39,67 38,67 36,65 36,64 35,63 35,61 34,60 34,57 33,56 33,39" stroke="black" stroke-width="1" /></svg>