<?xml version="1.0" encoding="utf-8" ?>
<svg baseProfile="full" height="100" version="1.1" width="100" xmlns="http://www.w3.org/2000/svg" xmlns:ev="http://www.w3.org/2001/xml-events" xmlns:xlink="http://www.w3.org/1999/xlink"><defs /><polygon fill="none" id="1" points="75,68 74,69 54,69 77,69 77,68" stroke="black" stroke-width="1" /><polygon fill="none" id="2" points="61,58" stroke="black" stroke-width="1" /><polygon fill="none" id="3" points="68,34 68,39 69,40 69,44 67,46 49,46 48,45 48,38 49,37 48,36 47,36 47,45 45,47 43,47 42,46 41,47 35,47 46,47 47,48 47,65 50,68 52,68 51,68 48,65 48,47 49,46 68,46 69,47 69,51 68,52 69,53 69,57 67,59 63,59 68,59 69,58 70,58 70,46 71,45 74,45 75,46 76,45 83,45 71,45 70,44 70,34" stroke="black" stroke-width="1" /></svg>