<?xml version="1.0" encoding="utf-8" ?>
<svg baseProfile="full" height="100" version="1.1" width="100" xmlns="http://www.w3.org/2000/svg" xmlns:ev="http://www.w3.org/2001/xml-events" xmlns:xlink="http://www.w3.org/1999/xlink"><defs /><polygon fill="none" id="1" points="69,33 68,34 57,34 56,35 44,35 44,38 51,38 52,37 60,37 61,36 65,36 66,37 64,39 63,39 61,41 60,41 57,44 56,44 53,47 52,47 50,49 49,49 48,50 40,50 39,51 36,51 37,52 37,54 38,54 39,53 44,53 45,52 51,52 52,51 57,51 58,50 60,50 61,51 58,54 57,54 55,56 55,57 54,58 54,60 53,61 53,63 54,64 54,65 55,66 55,67 56,68 57,68 58,69 59,69 60,70 61,70 62,71 66,71 67,72 75,72 75,69 68,69 67,68 63,68 62,67 61,67 60,66 59,66 58,65 58,64 57,63 57,59 58,58 58,57 62,53 63,53 64,52 65,52 66,51 68,51 69,50 73,50 74,49 82,49 82,48 81,47 81,46 77,46 76,47 68,47 67,48 61,48 60,49 56,49 55,48 57,46 58,46 59,45 60,45 62,43 63,43 66,40 67,40 70,37 71,37 72,36 72,35 70,33" stroke="black" stroke-width="1" /></svg>