<?xml version="1.0" encoding="utf-8" ?>
<svg baseProfile="full" height="100" version="1.1" width="100" xmlns="http://www.w3.org/2000/svg" xmlns:ev="http://www.w3.org/2001/xml-events" xmlns:xlink="http://www.w3.org/1999/xlink"><defs /><polygon fill="none" id="1" points="46,33 45,34 38,34 37,35 29,35 29,36 30,37 30,38 34,38 35,37 39,37 40,36 43,36 44,37 38,43 38,44 32,50 27,50 26,51 24,51 24,52 25,53 25,54 26,53 29,53 30,52 34,52 35,51 38,51 39,50 40,50 41,51 37,55 37,56 36,57 36,61 35,62 36,63 36,66 38,68 38,69 39,69 41,71 44,71 45,72 50,72 49,71 49,69 45,69 44,68 42,68 41,67 40,67 39,66 39,65 38,64 38,58 39,57 39,56 44,51 45,51 46,50 48,50 49,49 54,49 54,46 51,46 50,47 45,47 44,48 41,48 40,49 37,49 36,48 39,45 40,45 41,44 41,43 48,36 48,35" stroke="black" stroke-width="1" /></svg>