<?xml version="1.0" encoding="utf-8" ?>
<svg baseProfile="full" height="100" version="1.1" width="100" xmlns="http://www.w3.org/2000/svg" xmlns:ev="http://www.w3.org/2001/xml-events" xmlns:xlink="http://www.w3.org/1999/xlink"><defs /><polygon fill="none" id="1" points="52,33 51,34 43,34 42,35 33,35 33,38 38,38 39,37 44,37 45,36 49,36 50,37 49,38 48,38 36,50 30,50 29,51 27,51 27,52 28,53 28,54 29,53 33,53 34,52 38,52 39,51 43,51 44,50 45,50 46,51 41,56 41,58 40,59 40,65 41,66 41,67 43,69 44,69 45,70 46,70 47,71 49,71 50,72 56,72 56,69 51,69 50,68 47,68 46,67 45,67 43,65 43,63 42,62 42,61 43,60 43,57 49,51 51,51 52,50 55,50 56,49 61,49 61,46 57,46 56,47 51,47 50,48 46,48 45,49 42,49 41,48 44,45 45,45 54,36 54,35" stroke="black" stroke-width="1" /></svg>