<?xml version="1.0" encoding="utf-8" ?>
<svg baseProfile="full" height="100" version="1.1" width="100" xmlns="http://www.w3.org/2000/svg" xmlns:ev="http://www.w3.org/2001/xml-events" xmlns:xlink="http://www.w3.org/1999/xlink"><defs /><polygon fill="none" id="1" points="58,33 57,34 48,34 47,35 37,35 37,38 42,38 43,37 49,37 50,36 54,36 55,37 52,40 51,40 43,48 42,48 40,50 34,50 33,51 30,51 30,52 31,53 31,54 32,53 37,53 38,52 43,52 44,51 48,51 49,50 50,50 51,51 46,56 46,57 45,58 45,60 44,61 44,62 45,63 45,66 48,69 49,69 50,70 51,70 52,71 55,71 56,72 62,72 62,69 57,69 56,68 52,68 50,66 49,66 48,65 48,64 47,63 47,60 48,59 48,57 53,52 54,52 55,51 56,51 57,50 61,50 62,49 68,49 68,47 67,46 64,46 63,47 57,47 56,48 51,48 50,49 47,49 46,48 49,45 50,45 57,38 58,38 60,36 60,35" stroke="black" stroke-width="1" /></svg>