<?xml version="1.0" encoding="utf-8" ?>
<svg baseProfile="full" height="100" version="1.1" width="100" xmlns="http://www.w3.org/2000/svg" xmlns:ev="http://www.w3.org/2001/xml-events" xmlns:xlink="http://www.w3.org/1999/xlink"><defs /><polygon fill="none" id="1" points="63,33 62,34 52,34 51,35 40,35 41,36 41,38 46,38 47,37 54,37 55,36 60,36 61,37 60,38 59,38 56,41 55,41 50,46 49,46 46,49 45,49 44,50 37,50 36,51 33,51 33,52 34,53 34,54 35,54 36,53 40,53 41,52 47,52 48,51 53,51 54,50 55,50 56,51 50,57 50,58 49,59 49,65 53,69 54,69 55,70 56,70 57,71 61,71 62,72 68,72 68,69 62,69 61,68 58,68 57,67 56,67 55,66 54,66 53,65 53,64 52,63 52,60 53,59 53,57 58,52 59,52 60,51 62,51 63,50 67,50 68,49 75,49 75,48 74,47 74,46 70,46 69,47 63,47 62,48 56,48 55,49 51,49 50,48 51,47 52,47 54,45 55,45 58,42 59,42 64,37 65,37 66,36 66,35 64,33" stroke="black" stroke-width="1" /></svg>