<?xml version="1.0" encoding="utf-8" ?>
<svg baseProfile="full" height="100" version="1.1" width="100" xmlns="http://www.w3.org/2000/svg" xmlns:ev="http://www.w3.org/2001/xml-events" xmlns:xlink="http://www.w3.org/1999/xlink"><defs /><polygon fill="none" id="1" points="59,41 58,42 57,42 57,44 59,46 59,47 61,49 61,50 63,52 63,53 64,54 64,56 65,57 65,58 66,59 66,61 67,62 69,62 70,61 71,61 71,59 70,58 70,57 69,56 69,54 68,53 68,52 67,51 67,50 65,48 65,47 64,46 64,45 61,42 61,41" stroke="black" stroke-width="1" /><polygon fill="none" id="2" points="32,39 32,52 33,53 33,59 34,60 34,63 35,64 35,66 37,68 37,69 39,71 40,71 41,72 45,72 49,68 49,67 50,66 50,65 51,64 51,60 50,60 49,59 47,59 47,62 46,63 46,64 43,67 42,67 40,65 40,64 39,63 39,62 38,61 38,58 37,57 37,51 36,50 36,39" stroke="black" stroke-width="1" /></svg>