<?xml version="1.0" encoding="utf-8" ?>
<svg baseProfile="full" height="100" version="1.1" width="100" xmlns="http://www.w3.org/2000/svg" xmlns:ev="http://www.w3.org/2001/xml-events" xmlns:xlink="http://www.w3.org/1999/xlink"><defs /><polygon fill="none" id="1" points="46,33 45,34 38,34 37,35 29,35 29,37 30,38 30,39 35,39 36,38 40,38 41,37 42,37 43,38 38,43 38,44 32,50 27,50 26,51 24,51 24,53 25,54 25,55 26,55 27,54 30,54 31,53 35,53 36,52 38,52 39,53 37,55 37,56 36,57 36,61 35,62 35,63 36,64 36,67 38,69 38,70 39,70 41,72 44,72 45,73 51,73 51,72 50,71 50,69 46,69 45,68 43,68 42,67 41,67 40,66 40,65 39,64 39,59 40,58 40,57 45,52 46,52 47,51 49,51 50,50 55,50 55,46 51,46 50,47 45,47 44,48 41,48 40,49 39,49 38,48 40,46 41,46 42,45 42,44 49,37 49,35 47,33" stroke="black" stroke-width="1" /></svg>