<?xml version="1.0" encoding="utf-8" ?>
<svg baseProfile="full" height="100" version="1.1" width="100" xmlns="http://www.w3.org/2000/svg" xmlns:ev="http://www.w3.org/2001/xml-events" xmlns:xlink="http://www.w3.org/1999/xlink"><defs /><polygon fill="none" id="1" points="52,33 51,34 43,34 42,35 33,35 33,39 39,39 40,38 45,38 46,37 47,37 48,38 36,50 30,50 29,51 27,51 27,53 28,54 28,55 29,55 30,54 34,54 35,53 39,53 40,52 43,52 44,53 41,56 41,58 40,59 40,66 41,67 41,68 43,70 44,70 45,71 46,71 47,72 49,72 50,73 57,73 57,69 52,69 51,68 48,68 47,67 46,67 44,65 44,63 43,62 44,61 44,58 50,52 52,52 53,51 56,51 57,50 62,50 62,46 57,46 56,47 51,47 50,48 46,48 45,49 44,49 43,48 45,46 46,46 55,37 55,35 53,33" stroke="black" stroke-width="1" /></svg>