<?xml version="1.0" encoding="utf-8" ?>
<svg baseProfile="full" height="100" version="1.1" width="100" xmlns="http://www.w3.org/2000/svg" xmlns:ev="http://www.w3.org/2001/xml-events" xmlns:xlink="http://www.w3.org/1999/xlink"><defs /><polygon fill="none" id="1" points="58,33 57,34 48,34 47,35 37,35 37,39 43,39 44,38 50,38 51,37 53,37 54,38 52,40 51,40 43,48 42,48 40,50 34,50 33,51 30,51 30,53 31,54 31,55 32,55 33,54 38,54 39,53 44,53 45,52 48,52 49,53 46,56 46,57 45,58 45,60 44,61 44,63 45,64 45,67 48,70 49,70 50,71 51,71 52,72 55,72 56,73 63,73 63,69 58,69 57,68 53,68 51,66 50,66 49,65 49,64 48,63 48,61 49,60 49,58 54,53 55,53 56,52 57,52 58,51 62,51 63,50 69,50 69,47 68,46 64,46 63,47 57,47 56,48 51,48 50,49 49,49 48,48 50,46 51,46 58,39 59,39 61,37 61,35 59,33" stroke="black" stroke-width="1" /></svg>