<?xml version="1.0" encoding="utf-8" ?>
<svg baseProfile="full" height="100" version="1.1" width="100" xmlns="http://www.w3.org/2000/svg" xmlns:ev="http://www.w3.org/2001/xml-events" xmlns:xlink="http://www.w3.org/1999/xlink"><defs /><polygon fill="none" id="1" points="63,33 62,34 52,34 51,35 40,35 40,36 41,37 41,39 47,39 48,38 55,38 56,37 58,37 59,38 56,41 55,41 50,46 49,46 46,49 45,49 44,50 37,50 36,51 33,51 33,53 34,54 34,55 36,55 37,54 41,54 42,53 48,53 49,52 53,52 54,53 50,57 50,58 49,59 49,66 53,70 54,70 55,71 56,71 57,72 61,72 62,73 69,73 69,69 63,69 62,68 59,68 58,67 57,67 56,66 55,66 54,65 54,64 53,63 53,61 54,60 54,58 59,53 60,53 61,52 63,52 64,51 68,51 69,50 76,50 76,48 75,47 75,46 70,46 69,47 63,47 62,48 56,48 55,49 54,49 53,48 55,46 56,46 59,43 60,43 65,38 66,38 67,37 67,35 65,33" stroke="black" stroke-width="1" /></svg>