<?xml version="1.0" encoding="utf-8" ?>
<svg baseProfile="full" height="100" version="1.1" width="100" xmlns="http://www.w3.org/2000/svg" xmlns:ev="http://www.w3.org/2001/xml-events" xmlns:xlink="http://www.w3.org/1999/xlink"><defs /><polygon fill="none" id="1" points="69,33 68,34 57,34 56,35 44,35 44,39 52,39 53,38 61,38 62,37 64,37 65,38 64,39 63,39 61,41 60,41 57,44 56,44 53,47 52,47 50,49 49,49 48,50 40,50 39,51 36,51 36,52 37,53 37,55 39,55 40,54 45,54 46,53 52,53 53,52 58,52 59,53 58,54 57,54 55,56 55,57 54,58 54,60 53,61 53,64 54,65 54,66 55,67 55,68 56,69 57,69 58,70 59,70 60,71 61,71 62,72 66,72 67,73 76,73 76,69 69,69 68,68 64,68 63,67 62,67 61,66 60,66 59,65 59,64 58,63 58,60 59,59 59,58 63,54 64,54 65,53 66,53 67,52 69,52 70,51 74,51 75,50 83,50 83,48 82,47 82,46 77,46 76,47 68,47 67,48 61,48 60,49 58,49 57,48 58,47 59,47 60,46 61,46 63,44 64,44 67,41 68,41 71,38 72,38 73,37 73,35 71,33" stroke="black" stroke-width="1" /><polygon fill="none" id="2" points="58,52 59,51 60,52 59,53" stroke="black" stroke-width="1" /></svg>