<?xml version="1.0" encoding="utf-8" ?>
<svg baseProfile="full" height="100" version="1.1" width="100" xmlns="http://www.w3.org/2000/svg" xmlns:ev="http://www.w3.org/2001/xml-events" xmlns:xlink="http://www.w3.org/1999/xlink"><defs /><polygon fill="none" id="1" points="39,35 38,36 30,36 31,37 31,38 34,38 35,37 39,37 40,36 44,36 45,37 45,38 39,44 39,45 33,51 28,51 27,52 25,52 26,53 29,53 30,52 34,52 35,51 38,51 39,50 41,50 42,51 42,52 38,56 38,57 37,58 37,66 39,68 39,69 40,69 42,71 45,71 46,72 49,72 49,70 45,70 44,69 42,69 41,68 40,68 39,67 39,66 38,65 38,58 39,57 39,56 44,51 45,51 46,50 48,50 49,49 54,49 54,47 52,47 51,48 46,48 45,49 42,49 41,50 37,50 36,49 36,48 39,45 40,45 41,44 41,43 48,36 47,35" stroke="black" stroke-width="1" /></svg>