<?xml version="1.0" encoding="utf-8" ?>
<svg baseProfile="full" height="100" version="1.1" width="100" xmlns="http://www.w3.org/2000/svg" xmlns:ev="http://www.w3.org/2001/xml-events" xmlns:xlink="http://www.w3.org/1999/xlink"><defs /><polygon fill="none" id="1" points="44,35 43,36 34,36 34,38 38,38 39,37 44,37 45,36 50,36 51,37 51,38 50,39 49,39 37,51 31,51 30,52 28,52 29,53 33,53 34,52 38,52 39,51 43,51 44,50 46,50 47,51 47,52 42,57 42,59 41,60 41,65 42,66 42,67 44,69 45,69 46,70 47,70 48,71 50,71 51,72 56,72 56,70 51,70 50,69 47,69 46,68 45,68 43,66 43,64 42,63 42,61 43,60 43,57 49,51 51,51 52,50 55,50 56,49 61,49 61,47 58,47 57,48 52,48 51,49 47,49 46,50 42,50 41,49 41,48 44,45 45,45 54,36 53,35" stroke="black" stroke-width="1" /></svg>