<?xml version="1.0" encoding="utf-8" ?>
<svg baseProfile="full" height="100" version="1.1" width="100" xmlns="http://www.w3.org/2000/svg" xmlns:ev="http://www.w3.org/2001/xml-events" xmlns:xlink="http://www.w3.org/1999/xlink"><defs /><polygon fill="none" id="1" points="49,35 48,36 38,36 38,38 42,38 43,37 49,37 50,36 55,36 56,37 56,38 53,41 52,41 44,49 43,49 41,51 35,51 34,52 31,52 32,53 37,53 38,52 43,52 44,51 48,51 49,50 51,50 52,51 52,52 47,57 47,58 46,59 46,61 45,62 46,63 46,66 49,69 50,69 51,70 52,70 53,71 56,71 57,72 62,72 62,70 57,70 56,69 52,69 50,67 49,67 48,66 48,65 47,64 47,60 48,59 48,57 53,52 54,52 55,51 56,51 57,50 61,50 62,49 68,49 68,48 67,47 65,47 64,48 58,48 57,49 52,49 51,50 47,50 46,49 46,48 49,45 50,45 57,38 58,38 60,36 59,35" stroke="black" stroke-width="1" /></svg>