<?xml version="1.0" encoding="utf-8" ?>
<svg baseProfile="full" height="100" version="1.1" width="100" xmlns="http://www.w3.org/2000/svg" xmlns:ev="http://www.w3.org/2001/xml-events" xmlns:xlink="http://www.w3.org/1999/xlink"><defs /><polygon fill="none" id="1" points="64,34 63,35 53,35 52,36 42,36 42,38 46,38 47,37 54,37 55,36 61,36 62,37 62,38 61,39 60,39 57,42 56,42 51,47 50,47 47,50 46,50 45,51 38,51 37,52 34,52 35,53 35,54 36,53 40,53 41,52 47,52 48,51 53,51 54,50 56,50 57,51 57,52 51,58 51,59 50,60 50,65 54,69 55,69 56,70 57,70 58,71 62,71 63,72 68,72 68,70 62,70 61,69 58,69 57,68 56,68 55,67 54,67 53,66 53,65 52,64 52,60 53,59 53,57 58,52 59,52 60,51 62,51 63,50 67,50 68,49 75,49 74,48 74,47 71,47 70,48 64,48 63,49 57,49 56,50 51,50 50,49 50,48 51,47 52,47 54,45 55,45 58,42 59,42 64,37 65,37 66,36" stroke="black" stroke-width="1" /></svg>