<?xml version="1.0" encoding="utf-8" ?>
<svg baseProfile="full" height="100" version="1.1" width="100" xmlns="http://www.w3.org/2000/svg" xmlns:ev="http://www.w3.org/2001/xml-events" xmlns:xlink="http://www.w3.org/1999/xlink"><defs /><polygon fill="none" id="1" points="65,41 64,42 62,42 62,44 63,44 65,46 65,47 67,49 67,50 69,52 69,53 70,54 70,55 71,56 71,57 72,58 72,59 73,60 73,62 76,62 77,61 78,61 78,59 77,58 77,57 76,56 76,54 74,52 74,51 73,50 73,49 71,47 71,46 67,42 67,41" stroke="black" stroke-width="1" /><polygon fill="none" id="2" points="35,39 35,51 36,52 36,58 37,59 37,62 38,63 38,64 39,65 39,66 40,67 40,68 43,71 44,71 45,72 49,72 50,71 51,71 54,68 54,67 55,66 55,65 56,64 56,60 55,60 54,59 52,59 52,61 51,62 51,63 50,64 50,65 48,67 46,67 44,65 44,64 43,63 43,62 42,61 42,59 41,58 41,53 40,52 40,39" stroke="black" stroke-width="1" /></svg>