<?xml version="1.0" encoding="utf-8" ?>
<svg baseProfile="full" height="100" version="1.1" width="100" xmlns="http://www.w3.org/2000/svg" xmlns:ev="http://www.w3.org/2001/xml-events" xmlns:xlink="http://www.w3.org/1999/xlink"><defs /><polygon fill="none" id="1" points="70,34 69,35 58,35 57,36 45,36 45,38 51,38 52,37 60,37 61,36 66,36 67,37 67,38 65,40 64,40 62,42 61,42 58,45 57,45 54,48 53,48 51,50 50,50 49,51 41,51 40,52 38,52 38,54 39,53 44,53 45,52 51,52 52,51 57,51 58,50 61,50 62,51 62,52 59,55 58,55 56,57 56,58 55,59 55,61 54,62 54,63 55,64 55,65 56,66 56,67 57,68 58,68 59,69 60,69 61,70 62,70 63,71 67,71 68,72 75,72 75,70 68,70 67,69 63,69 62,68 61,68 60,67 59,67 58,66 58,65 57,64 57,59 58,58 58,57 62,53 63,53 64,52 65,52 66,51 68,51 69,50 73,50 74,49 82,49 81,48 81,47 78,47 77,48 69,48 68,49 62,49 61,50 56,50 55,49 55,48 57,46 58,46 59,45 60,45 62,43 63,43 66,40 67,40 70,37 71,37 72,36" stroke="black" stroke-width="1" /></svg>