<?xml version="1.0" encoding="utf-8" ?>
<svg baseProfile="full" height="100" version="1.1" width="100" xmlns="http://www.w3.org/2000/svg" xmlns:ev="http://www.w3.org/2001/xml-events" xmlns:xlink="http://www.w3.org/1999/xlink"><defs /><polygon fill="none" id="1" points="45,32 44,33 37,33 36,34 28,34 28,37 29,38 29,39 35,39 36,38 39,38 40,39 37,42 37,43 31,49 26,49 25,50 23,50 23,53 24,54 24,55 26,55 27,54 30,54 31,53 35,53 36,54 36,55 35,56 35,60 34,61 34,63 35,64 35,67 37,69 37,70 38,70 40,72 43,72 44,73 51,73 51,71 50,70 50,68 46,68 45,67 43,67 42,66 41,66 40,65 40,64 39,63 39,59 40,58 40,57 45,52 46,52 47,51 49,51 50,50 55,50 55,45 50,45 49,46 44,46 43,47 42,47 41,46 42,45 42,44 49,37 49,34 47,32" stroke="black" stroke-width="1" /><polygon fill="none" id="2" points="35,53 36,52 37,53 36,54" stroke="black" stroke-width="1" /></svg>