<?xml version="1.0" encoding="utf-8" ?>
<svg baseProfile="full" height="100" version="1.1" width="100" xmlns="http://www.w3.org/2000/svg" xmlns:ev="http://www.w3.org/2001/xml-events" xmlns:xlink="http://www.w3.org/1999/xlink"><defs /><polygon fill="none" id="1" points="51,32 50,33 42,33 41,34 32,34 32,39 39,39 40,38 44,38 45,39 35,49 29,49 28,50 26,50 26,53 27,54 27,55 29,55 30,54 34,54 35,53 39,53 40,52 41,52 42,53 40,55 40,57 39,58 39,66 40,67 40,68 42,70 43,70 44,71 45,71 46,72 48,72 49,73 57,73 57,68 52,68 51,67 48,67 47,66 46,66 44,64 44,58 50,52 52,52 53,51 56,51 57,50 62,50 62,45 56,45 55,46 50,46 49,47 47,47 46,46 55,37 55,34 53,32" stroke="black" stroke-width="1" /></svg>