<?xml version="1.0" encoding="utf-8" ?>
<svg baseProfile="full" height="100" version="1.1" width="100" xmlns="http://www.w3.org/2000/svg" xmlns:ev="http://www.w3.org/2001/xml-events" xmlns:xlink="http://www.w3.org/1999/xlink"><defs /><polygon fill="none" id="1" points="57,32 56,33 47,33 46,34 36,34 36,39 43,39 44,38 49,38 50,39 42,47 41,47 39,49 33,49 32,50 29,50 29,53 30,54 30,55 32,55 33,54 38,54 39,53 44,53 45,52 46,52 47,53 45,55 45,56 44,57 44,59 43,60 43,63 44,64 44,67 47,70 48,70 49,71 50,71 51,72 54,72 55,73 63,73 63,68 58,68 57,67 53,67 51,65 50,65 49,64 49,63 48,62 48,61 49,60 49,58 54,53 55,53 56,52 57,52 58,51 62,51 63,50 69,50 69,46 68,45 63,45 62,46 56,46 55,47 52,47 51,46 58,39 59,39 61,37 61,34 59,32" stroke="black" stroke-width="1" /><polygon fill="none" id="2" points="50,38 51,37 52,38 51,39" stroke="black" stroke-width="1" /></svg>