<?xml version="1.0" encoding="utf-8" ?>
<svg baseProfile="full" height="100" version="1.1" width="100" xmlns="http://www.w3.org/2000/svg" xmlns:ev="http://www.w3.org/2001/xml-events" xmlns:xlink="http://www.w3.org/1999/xlink"><defs /><polygon fill="none" id="1" points="62,32 61,33 51,33 50,34 39,34 39,36 40,37 40,39 47,39 48,38 55,38 56,39 55,40 54,40 49,45 48,45 45,48 44,48 43,49 36,49 35,50 32,50 32,53 33,54 33,55 36,55 37,54 41,54 42,53 48,53 49,52 51,52 52,53 49,56 49,57 48,58 48,66 52,70 53,70 54,71 55,71 56,72 60,72 61,73 69,73 69,68 63,68 62,67 59,67 58,66 57,66 56,65 55,65 54,64 54,63 53,62 53,61 54,60 54,58 59,53 60,53 61,52 63,52 64,51 68,51 69,50 76,50 76,47 75,46 75,45 69,45 68,46 62,46 61,47 57,47 56,46 59,43 60,43 65,38 66,38 67,37 67,34 65,32" stroke="black" stroke-width="1" /><polygon fill="none" id="2" points="55,38 56,37 57,38 56,39" stroke="black" stroke-width="1" /></svg>