<?xml version="1.0" encoding="utf-8" ?>
<svg baseProfile="full" height="100" version="1.1" width="100" xmlns="http://www.w3.org/2000/svg" xmlns:ev="http://www.w3.org/2001/xml-events" xmlns:xlink="http://www.w3.org/1999/xlink"><defs /><polygon fill="none" id="1" points="68,32 67,33 56,33 55,34 43,34 43,39 52,39 53,38 60,38 61,39 60,40 59,40 56,43 55,43 52,46 51,46 49,48 48,48 47,49 39,49 38,50 35,50 35,52 36,53 36,55 39,55 40,54 45,54 46,53 52,53 53,52 55,52 56,53 54,55 54,56 53,57 53,59 52,60 52,64 53,65 53,66 54,67 54,68 55,69 56,69 57,70 58,70 59,71 60,71 61,72 65,72 66,73 76,73 76,68 69,68 68,67 64,67 63,66 62,66 61,65 60,65 59,64 59,63 58,62 58,60 59,59 59,58 63,54 64,54 65,53 66,53 67,52 69,52 70,51 74,51 75,50 83,50 83,47 82,46 82,45 76,45 75,46 67,46 66,47 62,47 61,46 63,44 64,44 67,41 68,41 71,38 72,38 73,37 73,34 71,32" stroke="black" stroke-width="1" /></svg>