<?xml version="1.0" encoding="utf-8" ?>
<svg baseProfile="full" height="100" version="1.1" width="100" xmlns="http://www.w3.org/2000/svg" xmlns:ev="http://www.w3.org/2001/xml-events" xmlns:xlink="http://www.w3.org/1999/xlink"><defs /><polygon fill="none" id="1" points="39,68 40,68 42,70 45,70 46,71 48,71 48,70 44,70 43,69 41,69 40,68" stroke="black" stroke-width="1" /><polygon fill="none" id="2" points="37,58 37,65 38,66 37,65" stroke="black" stroke-width="1" /><polygon fill="none" id="3" points="38,56" stroke="black" stroke-width="1" /><polygon fill="none" id="4" points="35,49 33,51 28,51 27,52 26,52 28,52 29,51 33,51 34,50 37,50 36,50" stroke="black" stroke-width="1" /><polygon fill="none" id="5" points="52,47 51,48 46,48 45,49 42,49 42,51 43,50 44,50 45,49 47,49 48,48 53,48 53,47" stroke="black" stroke-width="1" /><polygon fill="none" id="6" points="40,43 39,44" stroke="black" stroke-width="1" /><polygon fill="none" id="7" points="39,35 38,36 31,36 31,37 33,37 34,36 38,36 39,35 44,35 45,36 45,37 46,36 46,35" stroke="black" stroke-width="1" /></svg>