<?xml version="1.0" encoding="utf-8" ?>
<svg baseProfile="full" height="100" version="1.1" width="100" xmlns="http://www.w3.org/2000/svg" xmlns:ev="http://www.w3.org/2001/xml-events" xmlns:xlink="http://www.w3.org/1999/xlink"><defs /><polygon fill="none" id="1" points="42,57 42,59 41,60 41,64 42,65 42,66 44,68 45,68 46,69 47,69 48,70 50,70 51,71 55,71 55,70 50,70 49,69 46,69 45,68 44,68 42,66 42,64 41,63 41,60 42,59" stroke="black" stroke-width="1" /><polygon fill="none" id="2" points="40,48 37,51 31,51 30,52 29,52 32,52 33,51 37,51 38,50 42,50 41,50 40,49" stroke="black" stroke-width="1" /><polygon fill="none" id="3" points="58,47 57,48 52,48 51,49 47,49 47,51 48,50 50,50 51,49 54,49 55,48 60,48 60,47" stroke="black" stroke-width="1" /><polygon fill="none" id="4" points="49,39 44,44" stroke="black" stroke-width="1" /><polygon fill="none" id="5" points="44,35 43,36 34,36 34,37 37,37 38,36 43,36 44,35 50,35 51,36 51,37 52,36 52,35" stroke="black" stroke-width="1" /></svg>