<?xml version="1.0" encoding="utf-8" ?>
<svg baseProfile="full" height="100" version="1.1" width="100" xmlns="http://www.w3.org/2000/svg" xmlns:ev="http://www.w3.org/2001/xml-events" xmlns:xlink="http://www.w3.org/1999/xlink"><defs /><polygon fill="none" id="1" points="47,57 47,58 46,59 46,65 49,68 50,68 51,69 52,69 53,70 56,70 57,71 61,71 61,70 56,70 55,69 51,69 49,67 48,67 47,66 47,65 46,64 46,59 47,58" stroke="black" stroke-width="1" /><polygon fill="none" id="2" points="45,48 44,49 43,49 41,51 35,51 34,52 32,52 36,52 37,51 42,51 43,50 47,50 46,50 45,49" stroke="black" stroke-width="1" /><polygon fill="none" id="3" points="65,47 64,48 58,48 57,49 52,49 52,51 53,51 54,50 55,50 56,49 60,49 61,48 67,48 66,47" stroke="black" stroke-width="1" /><polygon fill="none" id="4" points="52,41 49,44" stroke="black" stroke-width="1" /><polygon fill="none" id="5" points="49,35 48,36 38,36 38,37 41,37 42,36 48,36 49,35 55,35 56,36 56,37 57,37 58,36 58,35" stroke="black" stroke-width="1" /></svg>