<?xml version="1.0" encoding="utf-8" ?>
<svg baseProfile="full" height="100" version="1.1" width="100" xmlns="http://www.w3.org/2000/svg" xmlns:ev="http://www.w3.org/2001/xml-events" xmlns:xlink="http://www.w3.org/1999/xlink"><defs /><polygon fill="none" id="1" points="52,57 51,58 51,59 50,60 50,64 54,68 55,68 56,69 57,69 58,70 62,70 63,71 67,71 67,70 61,70 60,69 57,69 56,68 55,68 54,67 53,67 52,66 52,65 51,64 51,59 52,58" stroke="black" stroke-width="1" /><polygon fill="none" id="2" points="49,48 47,50 46,50 45,51 38,51 37,52 35,52 39,52 40,51 46,51 47,50 52,50 50,50 49,49" stroke="black" stroke-width="1" /><polygon fill="none" id="3" points="71,47 70,48 64,48 63,49 57,49 57,51 58,51 59,50 61,50 62,49 66,49 67,48 73,48 73,47" stroke="black" stroke-width="1" /><polygon fill="none" id="4" points="56,42 54,44" stroke="black" stroke-width="1" /><polygon fill="none" id="5" points="60,39 58,41" stroke="black" stroke-width="1" /><polygon fill="none" id="6" points="53,35 52,36 42,36 42,37 45,37 46,36 53,36 54,35 61,35 62,36 62,37 63,36 64,36 64,35" stroke="black" stroke-width="1" /></svg>