<?xml version="1.0" encoding="utf-8" ?>
<svg baseProfile="full" height="100" version="1.1" width="100" xmlns="http://www.w3.org/2000/svg" xmlns:ev="http://www.w3.org/2001/xml-events" xmlns:xlink="http://www.w3.org/1999/xlink"><defs /><polygon fill="none" id="1" points="70,41 69,42 68,42 68,44 73,49 73,50 76,53 76,54 77,55 77,56 78,57 78,58 79,59 79,61 80,62 83,62 84,61 85,61 85,59 84,58 84,57 83,56 83,55 82,54 82,53 80,51 80,50 78,48 78,47 73,42 73,41" stroke="black" stroke-width="1" /><polygon fill="none" id="2" points="38,39 38,48 39,49 39,55 40,56 40,60 41,61 41,63 42,64 42,65 43,66 43,67 47,71 48,71 49,72 54,72 56,70 57,70 58,69 58,68 60,66 60,65 61,64 61,63 62,62 62,61 61,60 60,60 59,59 57,59 56,60 56,62 55,63 55,64 52,67 50,67 48,65 48,64 47,63 47,62 46,61 46,60 45,59 45,57 44,56 44,49 43,48 43,41 44,40 44,39" stroke="black" stroke-width="1" /></svg>