<?xml version="1.0" encoding="utf-8" ?>
<svg baseProfile="full" height="100" version="1.1" width="100" xmlns="http://www.w3.org/2000/svg" xmlns:ev="http://www.w3.org/2001/xml-events" xmlns:xlink="http://www.w3.org/1999/xlink"><defs /><polygon fill="none" id="1" points="58,55 56,57 56,58 55,59 55,61 54,62 55,63 55,64 56,65 56,66 57,67 58,67 59,68 60,68 61,69 62,69 63,70 67,70 68,71 74,71 74,70 67,70 66,69 62,69 61,68 60,68 59,67 58,67 57,66 57,65 56,64 56,58 57,57 57,56" stroke="black" stroke-width="1" /><polygon fill="none" id="2" points="53,48 51,50 50,50 49,51 41,51 40,52 38,52 43,52 44,51 50,51 51,50 56,50 55,50 54,49 54,48" stroke="black" stroke-width="1" /><polygon fill="none" id="3" points="78,47 77,48 69,48 68,49 62,49 62,52 63,51 64,51 65,50 67,50 68,49 72,49 73,48 80,48 80,47" stroke="black" stroke-width="1" /><polygon fill="none" id="4" points="57,45" stroke="black" stroke-width="1" /><polygon fill="none" id="5" points="64,40 62,42 61,42 59,44 61,42 62,42" stroke="black" stroke-width="1" /><polygon fill="none" id="6" points="58,35 57,36 45,36 45,37 50,37 51,36 59,36 60,35 66,35 67,36 67,38 66,39 69,36 70,36 70,35" stroke="black" stroke-width="1" /></svg>