<?xml version="1.0" encoding="utf-8" ?>
<svg baseProfile="full" height="100" version="1.1" width="100" xmlns="http://www.w3.org/2000/svg" xmlns:ev="http://www.w3.org/2001/xml-events" xmlns:xlink="http://www.w3.org/1999/xlink"><defs /><polygon fill="none" id="1" points="57,61 56,62 56,64 60,68 61,68 62,69 65,69 66,70 83,70 83,67 79,67 78,68 67,68 66,67 64,67 63,66 62,66 60,64 60,62 59,61" stroke="black" stroke-width="1" /><polygon fill="none" id="2" points="72,47 71,48 63,48 62,49 59,49 59,50 60,51 60,52 61,52 62,51 67,51 68,50 80,50 80,47" stroke="black" stroke-width="1" /><polygon fill="none" id="3" points="52,32 52,33 51,34 51,37 50,38 50,39 48,41 39,41 38,40 36,40 36,43 48,43 49,44 48,45 48,46 47,47 47,49 46,50 46,51 45,52 45,53 44,54 44,55 43,56 43,58 42,59 42,60 41,61 41,62 40,63 40,64 38,66 38,67 36,69 36,70 38,70 39,71 40,71 41,70 41,69 42,68 42,67 43,66 43,65 44,64 44,63 45,62 45,61 46,60 46,59 47,58 47,56 48,55 48,54 49,53 49,51 50,50 50,49 51,48 51,46 52,45 52,44 54,42 64,42 64,39 60,39 59,40 54,40 53,39 54,38 54,36 55,35 55,34 56,33 56,32" stroke="black" stroke-width="1" /></svg>