<?xml version="1.0" encoding="utf-8" ?>
<svg baseProfile="full" height="100" version="1.1" width="100" xmlns="http://www.w3.org/2000/svg" xmlns:ev="http://www.w3.org/2001/xml-events" xmlns:xlink="http://www.w3.org/1999/xlink"><defs /><polygon fill="none" id="1" points="38,61 37,62 37,63 38,64 38,66 41,69 43,69 44,70 55,70 55,67 53,67 52,68 45,68 44,67 43,67 40,64 40,62 39,61" stroke="black" stroke-width="1" /><polygon fill="none" id="2" points="48,47 47,48 42,48 41,49 39,49 40,50 40,52 41,51 44,51 45,50 53,50 53,47" stroke="black" stroke-width="1" /><polygon fill="none" id="3" points="35,31 34,32 34,39 32,41 26,41 25,40 24,40 24,43 31,43 32,44 32,47 31,48 31,50 30,51 30,54 29,55 29,57 28,58 28,60 27,61 27,63 26,64 26,66 25,67 25,68 24,69 24,70 25,70 26,71 27,71 27,69 28,68 28,66 29,65 29,63 30,62 30,59 31,58 31,56 32,55 32,53 33,52 33,48 34,47 34,44 36,42 42,42 42,39 40,39 39,40 36,40 35,39 36,38 36,35 37,34 37,32 36,32" stroke="black" stroke-width="1" /></svg>