<?xml version="1.0" encoding="utf-8" ?>
<svg baseProfile="full" height="100" version="1.1" width="100" xmlns="http://www.w3.org/2000/svg" xmlns:ev="http://www.w3.org/2001/xml-events" xmlns:xlink="http://www.w3.org/1999/xlink"><defs /><polygon fill="none" id="1" points="42,61 42,64 43,65 43,66 46,69 48,69 49,70 62,70 62,67 59,67 58,68 50,68 49,67 48,67 45,64 45,62 44,61" stroke="black" stroke-width="1" /><polygon fill="none" id="2" points="54,47 53,48 47,48 46,49 44,49 45,50 45,52 46,51 50,51 51,50 60,50 60,47" stroke="black" stroke-width="1" /><polygon fill="none" id="3" points="39,31 39,34 38,35 38,39 36,41 29,41 28,40 27,40 27,43 36,43 37,44 36,45 36,46 35,47 35,50 34,51 34,53 33,54 33,56 32,57 32,59 31,60 31,62 30,63 30,64 29,65 29,66 28,67 28,68 27,69 27,70 28,70 29,71 30,71 30,70 31,69 31,67 32,66 32,65 33,64 33,62 34,61 34,59 35,58 35,56 36,55 36,53 37,52 37,50 38,49 38,46 39,45 39,44 41,42 47,42 48,41 48,39 45,39 44,40 41,40 40,39 40,37 41,36 41,34 42,33 42,32 40,32" stroke="black" stroke-width="1" /></svg>