<?xml version="1.0" encoding="utf-8" ?>
<svg baseProfile="full" height="100" version="1.1" width="100" xmlns="http://www.w3.org/2000/svg" xmlns:ev="http://www.w3.org/2001/xml-events" xmlns:xlink="http://www.w3.org/1999/xlink"><defs /><polygon fill="none" id="1" points="47,61 47,64 48,65 48,66 50,68 51,68 52,69 54,69 55,70 69,70 69,67 66,67 65,68 56,68 55,67 53,67 50,64 50,62 49,61" stroke="black" stroke-width="1" /><polygon fill="none" id="2" points="60,47 59,48 52,48 51,49 49,49 50,50 50,52 51,51 56,51 57,50 66,50 66,47" stroke="black" stroke-width="1" /><polygon fill="none" id="3" points="43,32 43,35 42,36 42,39 40,41 33,41 32,40 30,40 30,43 40,43 41,44 40,45 40,46 39,47 39,49 38,50 38,52 37,53 37,55 36,56 36,58 35,59 35,60 34,61 34,62 33,63 33,65 31,67 31,68 30,69 30,70 32,70 33,71 34,70 34,69 35,68 35,66 36,65 36,64 37,63 37,62 38,61 38,59 39,58 39,56 40,55 40,53 41,52 41,50 42,49 42,47 43,46 43,44 45,42 53,42 53,39 50,39 49,40 45,40 44,39 45,38 45,36 46,35 46,33 47,32" stroke="black" stroke-width="1" /></svg>