<?xml version="1.0" encoding="utf-8" ?>
<svg baseProfile="full" height="100" version="1.1" width="100" xmlns="http://www.w3.org/2000/svg" xmlns:ev="http://www.w3.org/2001/xml-events" xmlns:xlink="http://www.w3.org/1999/xlink"><defs /><polygon fill="none" id="1" points="52,61 51,62 52,63 52,64 53,65 53,66 55,68 56,68 57,69 59,69 60,70 76,70 76,67 73,67 72,68 61,68 60,67 58,67 55,64 55,62 54,61" stroke="black" stroke-width="1" /><polygon fill="none" id="2" points="66,47 65,48 57,48 56,49 54,49 54,50 55,51 55,52 56,51 62,51 63,50 73,50 73,47" stroke="black" stroke-width="1" /><polygon fill="none" id="3" points="47,32 47,36 46,37 46,39 44,41 36,41 35,40 33,40 33,43 44,43 45,44 44,45 44,46 43,47 43,49 42,50 42,52 41,53 41,55 40,56 40,57 39,58 39,59 38,60 38,61 37,62 37,63 36,64 36,65 35,66 35,67 33,69 33,70 35,70 36,71 37,71 37,70 38,69 38,68 39,67 39,66 40,65 40,64 41,63 41,61 42,60 42,59 43,58 43,56 44,55 44,53 45,52 45,51 46,50 46,48 47,47 47,44 48,43 49,43 50,42 58,42 59,41 58,40 58,39 55,39 54,40 50,40 49,39 49,38 50,37 50,35 51,34 51,32" stroke="black" stroke-width="1" /></svg>