<?xml version="1.0" encoding="utf-8" ?>
<svg baseProfile="full" height="100" version="1.1" width="100" xmlns="http://www.w3.org/2000/svg" xmlns:ev="http://www.w3.org/2001/xml-events" xmlns:xlink="http://www.w3.org/1999/xlink"><defs /><polygon fill="none" id="1" points="48,42 47,43 46,43 49,46 49,47 50,48 50,49 51,50 51,52 52,53 52,55 53,56 53,58 54,59 54,61 55,60 56,60 55,59 55,57 54,56 54,54 53,53 53,52 52,51 52,50 51,49 51,48 50,47 50,46 49,45 49,44 48,43" stroke="black" stroke-width="1" /><polygon fill="none" id="2" points="26,40 27,41 27,57 28,58 28,62 29,63 29,65 30,66 30,67 31,68 31,69 33,71 35,71 37,69 37,68 38,67 38,66 39,65 39,63 40,62 40,61 39,60 39,61 38,62 38,65 35,68 33,68 31,66 31,65 30,64 30,62 29,61 29,54 28,53 28,40" stroke="black" stroke-width="1" /></svg>