<?xml version="1.0" encoding="utf-8" ?>
<svg baseProfile="full" height="100" version="1.1" width="100" xmlns="http://www.w3.org/2000/svg" xmlns:ev="http://www.w3.org/2001/xml-events" xmlns:xlink="http://www.w3.org/1999/xlink"><defs /><polygon fill="none" id="1" points="38,61 37,62 37,64 38,65 38,67 41,70 43,70 44,71 56,71 56,67 53,67 52,68 46,68 45,67 44,67 41,64 41,62 40,61" stroke="black" stroke-width="1" /><polygon fill="none" id="2" points="48,47 47,48 42,48 41,49 39,49 39,50 40,51 40,53 41,53 42,52 45,52 46,51 54,51 54,47" stroke="black" stroke-width="1" /><polygon fill="none" id="3" points="35,31 34,32 34,39 32,41 27,41 26,40 24,40 24,44 31,44 32,45 32,47 31,48 31,50 30,51 30,54 29,55 29,57 28,58 28,60 27,61 27,63 26,64 26,66 25,67 25,68 24,69 24,71 25,71 26,72 28,72 28,70 29,69 29,67 30,66 30,64 31,63 31,60 32,59 32,57 33,56 33,54 34,53 34,49 35,48 35,45 37,43 43,43 43,39 40,39 39,40 38,40 37,39 37,36 38,35 38,32 37,32 36,31" stroke="black" stroke-width="1" /></svg>