<?xml version="1.0" encoding="utf-8" ?>
<svg baseProfile="full" height="100" version="1.1" width="100" xmlns="http://www.w3.org/2000/svg" xmlns:ev="http://www.w3.org/2001/xml-events" xmlns:xlink="http://www.w3.org/1999/xlink"><defs /><polygon fill="none" id="1" points="42,61 42,65 43,66 43,67 46,70 48,70 49,71 63,71 63,67 59,67 58,68 51,68 50,67 49,67 46,64 46,62 45,61" stroke="black" stroke-width="1" /><polygon fill="none" id="2" points="54,47 53,48 47,48 46,49 44,49 44,50 45,51 45,53 46,53 47,52 51,52 52,51 61,51 61,47" stroke="black" stroke-width="1" /><polygon fill="none" id="3" points="39,31 39,34 38,35 38,39 36,41 30,41 29,40 27,40 27,44 35,44 36,45 36,46 35,47 35,50 34,51 34,53 33,54 33,56 32,57 32,59 31,60 31,62 30,63 30,64 29,65 29,66 28,67 28,68 27,69 27,71 28,71 29,72 31,72 31,71 32,70 32,68 33,67 33,66 34,65 34,63 35,62 35,60 36,59 36,57 37,56 37,54 38,53 38,51 39,50 39,47 40,46 40,45 42,43 48,43 49,42 49,39 45,39 44,40 42,40 41,39 41,38 42,37 42,35 43,34 43,32 41,32 40,31" stroke="black" stroke-width="1" /></svg>