<?xml version="1.0" encoding="utf-8" ?>
<svg baseProfile="full" height="100" version="1.1" width="100" xmlns="http://www.w3.org/2000/svg" xmlns:ev="http://www.w3.org/2001/xml-events" xmlns:xlink="http://www.w3.org/1999/xlink"><defs /><polygon fill="none" id="1" points="47,61 47,65 48,66 48,67 50,69 51,69 52,70 54,70 55,71 70,71 70,67 66,67 65,68 57,68 56,67 54,67 51,64 51,62 50,61" stroke="black" stroke-width="1" /><polygon fill="none" id="2" points="60,47 59,48 52,48 51,49 49,49 49,50 50,51 50,53 51,53 52,52 57,52 58,51 67,51 67,47" stroke="black" stroke-width="1" /><polygon fill="none" id="3" points="43,32 43,35 42,36 42,39 40,41 34,41 33,40 30,40 30,44 39,44 40,45 40,46 39,47 39,49 38,50 38,52 37,53 37,55 36,56 36,58 35,59 35,60 34,61 34,62 33,63 33,65 31,67 31,68 30,69 30,71 32,71 33,72 34,72 35,71 35,70 36,69 36,67 37,66 37,65 38,64 38,63 39,62 39,60 40,59 40,57 41,56 41,54 42,53 42,51 43,50 43,48 44,47 44,45 46,43 54,43 54,39 50,39 49,40 47,40 46,39 46,37 47,36 47,34 48,33 48,32" stroke="black" stroke-width="1" /></svg>