<?xml version="1.0" encoding="utf-8" ?>
<svg baseProfile="full" height="100" version="1.1" width="100" xmlns="http://www.w3.org/2000/svg" xmlns:ev="http://www.w3.org/2001/xml-events" xmlns:xlink="http://www.w3.org/1999/xlink"><defs /><polygon fill="none" id="1" points="52,61 51,62 51,63 52,64 52,65 53,66 53,67 55,69 56,69 57,70 59,70 60,71 77,71 77,67 73,67 72,68 62,68 61,67 59,67 56,64 56,62 55,61" stroke="black" stroke-width="1" /><polygon fill="none" id="2" points="66,47 65,48 57,48 56,49 54,49 54,51 55,52 55,53 56,53 57,52 63,52 64,51 74,51 74,47" stroke="black" stroke-width="1" /><polygon fill="none" id="3" points="47,32 47,36 46,37 46,39 44,41 37,41 36,40 33,40 33,44 43,44 44,45 44,46 43,47 43,49 42,50 42,52 41,53 41,55 40,56 40,57 39,58 39,59 38,60 38,61 37,62 37,63 36,64 36,65 35,66 35,67 33,69 33,71 35,71 36,72 38,72 38,71 39,70 39,69 40,68 40,67 41,66 41,65 42,64 42,62 43,61 43,60 44,59 44,57 45,56 45,54 46,53 46,52 47,51 47,49 48,48 48,45 49,44 50,44 51,43 59,43 60,42 60,41 59,40 59,39 55,39 54,40 51,40 50,39 51,38 51,36 52,35 52,32" stroke="black" stroke-width="1" /></svg>