<?xml version="1.0" encoding="utf-8" ?>
<svg baseProfile="full" height="100" version="1.1" width="100" xmlns="http://www.w3.org/2000/svg" xmlns:ev="http://www.w3.org/2001/xml-events" xmlns:xlink="http://www.w3.org/1999/xlink"><defs /><polygon fill="none" id="1" points="57,61 56,62 56,65 60,69 61,69 62,70 65,70 66,71 84,71 84,67 79,67 78,68 68,68 67,67 65,67 64,66 63,66 61,64 61,62 60,61" stroke="black" stroke-width="1" /><polygon fill="none" id="2" points="72,47 71,48 63,48 62,49 59,49 59,51 60,52 60,53 62,53 63,52 68,52 69,51 81,51 81,47" stroke="black" stroke-width="1" /><polygon fill="none" id="3" points="52,32 52,33 51,34 51,37 50,38 50,39 48,41 40,41 39,40 36,40 36,44 47,44 48,45 48,46 47,47 47,49 46,50 46,51 45,52 45,53 44,54 44,55 43,56 43,58 42,59 42,60 41,61 41,62 40,63 40,64 38,66 38,67 36,69 36,71 38,71 39,72 41,72 42,71 42,70 43,69 43,68 44,67 44,66 45,65 45,64 46,63 46,62 47,61 47,60 48,59 48,57 49,56 49,55 50,54 50,52 51,51 51,50 52,49 52,47 53,46 53,45 55,43 65,43 65,39 60,39 59,40 56,40 55,39 55,37 56,36 56,35 57,34 57,32" stroke="black" stroke-width="1" /></svg>