<?xml version="1.0" encoding="utf-8" ?>
<svg baseProfile="full" height="100" version="1.1" width="100" xmlns="http://www.w3.org/2000/svg" xmlns:ev="http://www.w3.org/2001/xml-events" xmlns:xlink="http://www.w3.org/1999/xlink"><defs /><polygon fill="none" id="1" points="39,62 38,63 39,64 39,66 42,69 44,69 45,70 55,70 55,68 54,68 53,69 45,69 44,68 43,68 40,65 40,63" stroke="black" stroke-width="1" /><polygon fill="none" id="2" points="49,48 48,49 43,49 42,50 41,50 41,51 44,51 45,50 53,50 53,48" stroke="black" stroke-width="1" /><polygon fill="none" id="3" points="35,33 35,40 33,42 26,42 25,41 25,43 32,43 33,44 33,48 32,49 32,51 31,52 31,55 30,56 30,58 29,59 29,61 28,62 28,64 27,65 27,67 26,68 26,69 25,70 26,70 27,71 27,69 28,68 28,66 29,65 29,63 30,62 30,59 31,58 31,56 32,55 32,53 33,52 33,48 34,47 34,44 36,42 42,42 42,40 41,40 40,41 36,41 35,40 35,39 36,38 36,35 37,34 37,33" stroke="black" stroke-width="1" /></svg>