<?xml version="1.0" encoding="utf-8" ?>
<svg baseProfile="full" height="100" version="1.1" width="100" xmlns="http://www.w3.org/2000/svg" xmlns:ev="http://www.w3.org/2001/xml-events" xmlns:xlink="http://www.w3.org/1999/xlink"><defs /><polygon fill="none" id="1" points="43,62 43,64 44,65 44,66 47,69 49,69 50,70 62,70 62,68 60,68 59,69 50,69 49,68 48,68 45,65 45,63 44,62" stroke="black" stroke-width="1" /><polygon fill="none" id="2" points="55,48 54,49 48,49 47,50 46,50 46,51 50,51 51,50 60,50 60,48" stroke="black" stroke-width="1" /><polygon fill="none" id="3" points="40,33 40,35 39,36 39,40 37,42 29,42 28,41 28,43 37,43 38,44 38,45 37,46 37,47 36,48 36,51 35,52 35,54 34,55 34,57 33,58 33,60 32,61 32,63 31,64 31,65 30,66 30,67 29,68 29,69 28,70 29,70 30,71 30,70 31,69 31,67 32,66 32,65 33,64 33,62 34,61 34,59 35,58 35,56 36,55 36,53 37,52 37,50 38,49 38,46 39,45 39,44 41,42 47,42 48,41 48,40 46,40 45,41 41,41 40,40 40,37 41,36 41,34 42,33" stroke="black" stroke-width="1" /></svg>