<?xml version="1.0" encoding="utf-8" ?>
<svg baseProfile="full" height="100" version="1.1" width="100" xmlns="http://www.w3.org/2000/svg" xmlns:ev="http://www.w3.org/2001/xml-events" xmlns:xlink="http://www.w3.org/1999/xlink"><defs /><polygon fill="none" id="1" points="48,62 48,64 49,65 49,66 51,68 52,68 53,69 55,69 56,70 69,70 69,68 67,68 66,69 56,69 55,68 53,68 50,65 50,63 49,62" stroke="black" stroke-width="1" /><polygon fill="none" id="2" points="61,48 60,49 53,49 52,50 51,50 51,51 56,51 57,50 66,50 66,48" stroke="black" stroke-width="1" /><polygon fill="none" id="3" points="44,33 44,36 43,37 43,40 41,42 33,42 32,41 31,41 31,43 41,43 42,44 42,45 41,46 41,47 40,48 40,50 39,51 39,53 38,54 38,56 37,57 37,59 36,60 36,61 35,62 35,63 34,64 34,66 32,68 32,69 31,70 34,70 34,69 35,68 35,66 36,65 36,64 37,63 37,62 38,61 38,59 39,58 39,56 40,55 40,53 41,52 41,50 42,49 42,47 43,46 43,44 45,42 53,42 53,40 51,40 50,41 45,41 44,40 44,39 45,38 45,36 46,35 46,33" stroke="black" stroke-width="1" /></svg>