<?xml version="1.0" encoding="utf-8" ?>
<svg baseProfile="full" height="100" version="1.1" width="100" xmlns="http://www.w3.org/2000/svg" xmlns:ev="http://www.w3.org/2001/xml-events" xmlns:xlink="http://www.w3.org/1999/xlink"><defs /><polygon fill="none" id="1" points="53,62 53,64 54,65 54,66 56,68 57,68 58,69 60,69 61,70 76,70 76,68 74,68 73,69 61,69 60,68 58,68 55,65 55,63 54,62" stroke="black" stroke-width="1" /><polygon fill="none" id="2" points="67,48 66,49 58,49 57,50 55,50 56,51 62,51 63,50 73,50 73,48" stroke="black" stroke-width="1" /><polygon fill="none" id="3" points="48,33 48,37 47,38 47,40 45,42 36,42 35,41 34,41 34,43 45,43 46,44 46,45 45,46 45,47 44,48 44,50 43,51 43,53 42,54 42,56 41,57 41,58 40,59 40,60 39,61 39,62 38,63 38,64 37,65 37,66 36,67 36,68 34,70 36,70 37,71 37,70 38,69 38,68 39,67 39,66 40,65 40,64 41,63 41,61 42,60 42,59 43,58 43,56 44,55 44,53 45,52 45,51 46,50 46,48 47,47 47,44 48,43 49,43 50,42 58,42 58,40 56,40 55,41 50,41 49,40 49,38 50,37 50,35 51,34 51,33" stroke="black" stroke-width="1" /></svg>