<?xml version="1.0" encoding="utf-8" ?>
<svg baseProfile="full" height="100" version="1.1" width="100" xmlns="http://www.w3.org/2000/svg" xmlns:ev="http://www.w3.org/2001/xml-events" xmlns:xlink="http://www.w3.org/1999/xlink"><defs /><polygon fill="none" id="1" points="54,42 53,43 52,43 54,45 54,46 56,48 56,49 57,50 57,51 58,52 58,53 59,54 59,56 60,57 60,60 61,61 62,60 63,60 62,59 62,57 61,56 61,55 60,54 60,53 59,52 59,51 58,50 58,49 57,48 57,47 56,46 56,45 54,43" stroke="black" stroke-width="1" /><polygon fill="none" id="2" points="30,40 30,53 31,54 31,60 32,61 32,64 33,65 33,66 34,67 34,68 36,70 37,70 38,71 39,71 40,70 41,70 41,69 43,67 43,66 44,65 44,64 45,63 45,61 44,60 43,60 43,63 42,64 42,66 40,68 37,68 35,66 35,65 34,64 34,62 33,61 33,58 32,57 32,40" stroke="black" stroke-width="1" /></svg>