<?xml version="1.0" encoding="utf-8" ?>
<svg baseProfile="full" height="100" version="1.1" width="100" xmlns="http://www.w3.org/2000/svg" xmlns:ev="http://www.w3.org/2001/xml-events" xmlns:xlink="http://www.w3.org/1999/xlink"><defs /><polygon fill="none" id="1" points="58,62 57,63 57,64 61,68 62,68 63,69 66,69 67,70 83,70 83,68 80,68 79,69 67,69 66,68 64,68 63,67 62,67 60,65 60,63 59,62" stroke="black" stroke-width="1" /><polygon fill="none" id="2" points="73,48 72,49 64,49 63,50 60,50 61,51 61,52 62,51 67,51 68,50 80,50 80,48" stroke="black" stroke-width="1" /><polygon fill="none" id="3" points="53,33 53,34 52,35 52,38 51,39 51,40 49,42 39,42 38,41 37,41 37,43 49,43 50,44 50,45 49,46 49,47 48,48 48,50 47,51 47,52 46,53 46,54 45,55 45,56 44,57 44,59 43,60 43,61 42,62 42,63 41,64 41,65 39,67 39,68 37,70 39,70 40,71 41,70 41,69 42,68 42,67 43,66 43,65 44,64 44,63 45,62 45,61 46,60 46,59 47,58 47,56 48,55 48,54 49,53 49,51 50,50 50,49 51,48 51,46 52,45 52,44 54,42 64,42 64,40 61,40 60,41 54,41 53,40 53,39 54,38 54,36 55,35 55,34 56,33" stroke="black" stroke-width="1" /></svg>