<?xml version="1.0" encoding="utf-8" ?>
<svg baseProfile="full" height="100" version="1.1" width="100" xmlns="http://www.w3.org/2000/svg" xmlns:ev="http://www.w3.org/2001/xml-events" xmlns:xlink="http://www.w3.org/1999/xlink"><defs /><polygon fill="none" id="1" points="41,60 41,65 42,66 42,67 45,70 47,70 48,71 63,71 63,66 58,66 57,67 51,67 50,66 49,66 46,63 46,61 45,60" stroke="black" stroke-width="1" /><polygon fill="none" id="2" points="53,46 52,47 46,47 45,48 43,48 43,50 44,51 44,53 46,53 47,52 51,52 52,51 61,51 61,46" stroke="black" stroke-width="1" /><polygon fill="none" id="3" points="38,30 38,33 37,34 37,38 35,40 30,40 29,39 26,39 26,44 34,44 35,45 34,46 34,49 33,50 33,52 32,53 32,55 31,56 31,58 30,59 30,61 29,62 29,63 28,64 28,65 27,66 27,67 26,68 26,71 27,71 28,72 31,72 31,71 32,70 32,68 33,67 33,66 34,65 34,63 35,62 35,60 36,59 36,57 37,56 37,54 38,53 38,51 39,50 39,47 40,46 40,45 42,43 48,43 49,42 49,38 44,38 43,39 42,39 41,38 42,37 42,35 43,34 43,31 41,31 40,30" stroke="black" stroke-width="1" /></svg>