<?xml version="1.0" encoding="utf-8" ?>
<svg baseProfile="full" height="100" version="1.1" width="100" xmlns="http://www.w3.org/2000/svg" xmlns:ev="http://www.w3.org/2001/xml-events" xmlns:xlink="http://www.w3.org/1999/xlink"><defs /><polygon fill="none" id="1" points="46,60 46,65 47,66 47,67 49,69 50,69 51,70 53,70 54,71 70,71 70,66 65,66 64,67 57,67 56,66 54,66 51,63 51,61 50,60" stroke="black" stroke-width="1" /><polygon fill="none" id="2" points="59,46 58,47 51,47 50,48 48,48 48,50 49,51 49,53 51,53 52,52 57,52 58,51 67,51 67,46" stroke="black" stroke-width="1" /><polygon fill="none" id="3" points="42,31 42,34 41,35 41,38 39,40 34,40 33,39 29,39 29,44 38,44 39,45 38,46 38,48 37,49 37,51 36,52 36,54 35,55 35,57 34,58 34,59 33,60 33,61 32,62 32,64 30,66 30,67 29,68 29,71 31,71 32,72 34,72 35,71 35,70 36,69 36,67 37,66 37,65 38,64 38,63 39,62 39,60 40,59 40,57 41,56 41,54 42,53 42,51 43,50 43,48 44,47 44,45 46,43 54,43 54,38 49,38 48,39 47,39 46,38 46,37 47,36 47,34 48,33 48,31" stroke="black" stroke-width="1" /></svg>