<?xml version="1.0" encoding="utf-8" ?>
<svg baseProfile="full" height="100" version="1.1" width="100" xmlns="http://www.w3.org/2000/svg" xmlns:ev="http://www.w3.org/2001/xml-events" xmlns:xlink="http://www.w3.org/1999/xlink"><defs /><polygon fill="none" id="1" points="51,60 50,61 50,63 51,64 51,65 52,66 52,67 54,69 55,69 56,70 58,70 59,71 77,71 77,66 72,66 71,67 62,67 61,66 59,66 56,63 56,61 55,60" stroke="black" stroke-width="1" /><polygon fill="none" id="2" points="65,46 64,47 56,47 55,48 53,48 53,51 54,52 54,53 56,53 57,52 63,52 64,51 74,51 74,46" stroke="black" stroke-width="1" /><polygon fill="none" id="3" points="46,31 46,35 45,36 45,38 43,40 37,40 36,39 32,39 32,44 42,44 43,45 42,46 42,48 41,49 41,51 40,52 40,54 39,55 39,56 38,57 38,58 37,59 37,60 36,61 36,62 35,63 35,64 34,65 34,66 32,68 32,71 34,71 35,72 38,72 38,71 39,70 39,69 40,68 40,67 41,66 41,65 42,64 42,62 43,61 43,60 44,59 44,57 45,56 45,54 46,53 46,52 47,51 47,49 48,48 48,45 49,44 50,44 51,43 59,43 60,42 60,40 59,39 59,38 54,38 53,39 52,39 51,38 51,36 52,35 52,31" stroke="black" stroke-width="1" /></svg>