<?xml version="1.0" encoding="utf-8" ?>
<svg baseProfile="full" height="100" version="1.1" width="100" xmlns="http://www.w3.org/2000/svg" xmlns:ev="http://www.w3.org/2001/xml-events" xmlns:xlink="http://www.w3.org/1999/xlink"><defs /><polygon fill="none" id="1" points="56,60 55,61 55,65 59,69 60,69 61,70 64,70 65,71 84,71 84,66 78,66 77,67 68,67 67,66 65,66 64,65 63,65 61,63 61,61 60,60" stroke="black" stroke-width="1" /><polygon fill="none" id="2" points="71,46 70,47 62,47 61,48 58,48 58,51 59,52 59,53 62,53 63,52 68,52 69,51 81,51 81,46" stroke="black" stroke-width="1" /><polygon fill="none" id="3" points="51,31 51,32 50,33 50,36 49,37 49,38 47,40 40,40 39,39 35,39 35,44 46,44 47,45 46,46 46,48 45,49 45,50 44,51 44,52 43,53 43,54 42,55 42,57 41,58 41,59 40,60 40,61 39,62 39,63 37,65 37,66 35,68 35,71 37,71 38,72 41,72 42,71 42,70 43,69 43,68 44,67 44,66 45,65 45,64 46,63 46,62 47,61 47,60 48,59 48,57 49,56 49,55 50,54 50,52 51,51 51,50 52,49 52,47 53,46 53,45 55,43 65,43 65,38 59,38 58,39 56,39 55,38 55,37 56,36 56,35 57,34 57,31" stroke="black" stroke-width="1" /></svg>