<?xml version="1.0" encoding="utf-8" ?>
<svg baseProfile="full" height="100" version="1.1" width="100" xmlns="http://www.w3.org/2000/svg" xmlns:ev="http://www.w3.org/2001/xml-events" xmlns:xlink="http://www.w3.org/1999/xlink"><defs /><polygon fill="none" id="1" points="54,68 53,69 45,69 54,69" stroke="black" stroke-width="1" /><polygon fill="none" id="2" points="39,63 39,65 42,68 43,68 42,68 39,65" stroke="black" stroke-width="1" /><polygon fill="none" id="3" points="29,59 29,61 28,62 28,64 27,65 27,67 26,68 26,69 26,68 27,67 27,65 28,64 28,62 29,61" stroke="black" stroke-width="1" /><polygon fill="none" id="4" points="30,56 30,57" stroke="black" stroke-width="1" /><polygon fill="none" id="5" points="32,49 32,51 31,52 31,54 31,52 32,51" stroke="black" stroke-width="1" /><polygon fill="none" id="6" points="49,48 48,49 43,49 42,50 41,50 43,50 44,49 52,49 52,48" stroke="black" stroke-width="1" /><polygon fill="none" id="7" points="41,40 40,41 34,41 33,42 25,42 32,42 33,43 33,46 33,43 35,41 41,41" stroke="black" stroke-width="1" /><polygon fill="none" id="8" points="35,33 35,37 35,34 36,33" stroke="black" stroke-width="1" /></svg>