<?xml version="1.0" encoding="utf-8" ?>
<svg baseProfile="full" height="100" version="1.1" width="100" xmlns="http://www.w3.org/2000/svg" xmlns:ev="http://www.w3.org/2001/xml-events" xmlns:xlink="http://www.w3.org/1999/xlink"><defs /><polygon fill="none" id="1" points="67,68 66,69 56,69 68,69 68,68" stroke="black" stroke-width="1" /><polygon fill="none" id="2" points="53,68 54,68" stroke="black" stroke-width="1" /><polygon fill="none" id="3" points="48,62 48,63 49,64 49,65 51,67 49,65 49,63" stroke="black" stroke-width="1" /><polygon fill="none" id="4" points="61,48 60,49 53,49 52,50 51,50 55,50 56,49 65,49 65,48" stroke="black" stroke-width="1" /><polygon fill="none" id="5" points="44,33 44,36 43,37 43,40 41,42 32,42 31,41 31,42 41,42 42,43 42,45 41,46 41,47 40,48 40,50 39,51 39,53 38,54 38,56 37,57 37,59 36,60 36,61 35,62 35,63 34,64 34,66 32,68 32,69 33,69 33,68 34,67 34,65 35,64 35,63 36,62 36,61 37,60 37,58 38,57 38,55 39,54 39,52 40,51 40,49 41,48 41,46 42,45 42,43 44,41 52,41 52,40 51,40 50,41 44,41 43,40 43,38 44,37 44,35 45,34 45,33" stroke="black" stroke-width="1" /></svg>