<?xml version="1.0" encoding="utf-8" ?>
<svg baseProfile="full" height="100" version="1.1" width="100" xmlns="http://www.w3.org/2000/svg" xmlns:ev="http://www.w3.org/2001/xml-events" xmlns:xlink="http://www.w3.org/1999/xlink"><defs /><polygon fill="none" id="1" points="74,68 73,69 61,69 75,69 75,68" stroke="black" stroke-width="1" /><polygon fill="none" id="2" points="58,68 59,68" stroke="black" stroke-width="1" /><polygon fill="none" id="3" points="53,62 53,63 54,64 54,65 56,67 54,65 54,63" stroke="black" stroke-width="1" /><polygon fill="none" id="4" points="67,48 66,49 58,49 57,50 56,50 61,50 62,49 72,49 72,48" stroke="black" stroke-width="1" /><polygon fill="none" id="5" points="48,33 48,37 47,38 47,40 45,42 35,42 34,41 34,42 45,42 46,43 46,45 45,46 45,47 44,48 44,50 43,51 43,53 42,54 42,56 41,57 41,58 40,59 40,60 39,61 39,62 38,63 38,64 37,65 37,66 36,67 36,68 35,69 36,69 37,68 37,67 38,66 38,65 39,64 39,63 40,62 40,60 41,59 41,58 42,57 42,55 43,54 43,52 44,51 44,50 45,49 45,47 46,46 46,43 47,42 48,42 49,41 57,41 57,40 56,40 55,41 49,41 48,40 48,37 49,36 49,34 50,33" stroke="black" stroke-width="1" /></svg>