<?xml version="1.0" encoding="utf-8" ?>
<svg baseProfile="full" height="100" version="1.1" width="100" xmlns="http://www.w3.org/2000/svg" xmlns:ev="http://www.w3.org/2001/xml-events" xmlns:xlink="http://www.w3.org/1999/xlink"><defs /><polygon fill="none" id="1" points="60,42 59,43 58,43 60,45 60,46 62,48 62,49 64,51 64,52 65,53 65,55 66,56 66,57 67,58 67,60 68,61 69,60 70,60 69,59 69,58 68,57 68,55 67,54 67,53 66,52 66,51 64,49 64,48 63,47 63,46 60,43" stroke="black" stroke-width="1" /><polygon fill="none" id="2" points="33,40 33,51 34,52 34,58 35,59 35,62 36,63 36,65 38,67 38,68 40,70 41,70 42,71 44,71 48,67 48,66 49,65 49,64 50,63 50,61 49,61 48,60 48,63 47,64 47,65 44,68 41,68 39,66 39,65 38,64 38,63 37,62 37,59 36,58 36,52 35,51 35,40" stroke="black" stroke-width="1" /></svg>