<?xml version="1.0" encoding="utf-8" ?>
<svg baseProfile="full" height="100" version="1.1" width="100" xmlns="http://www.w3.org/2000/svg" xmlns:ev="http://www.w3.org/2001/xml-events" xmlns:xlink="http://www.w3.org/1999/xlink"><defs /><polygon fill="none" id="1" points="80,68 79,69 67,69 82,69 82,68" stroke="black" stroke-width="1" /><polygon fill="none" id="2" points="58,62 57,63 61,67 62,67 63,68 65,68 63,68 62,67 61,67 59,65 59,63" stroke="black" stroke-width="1" /><polygon fill="none" id="3" points="73,48 72,49 64,49 63,50 61,50 66,50 67,49 79,49 79,48" stroke="black" stroke-width="1" /><polygon fill="none" id="4" points="53,33 53,34 52,35 52,38 51,39 51,40 49,42 38,42 37,41 37,42 49,42 50,43 50,45 49,46 49,47 48,48 48,50 47,51 47,52 46,53 46,54 45,55 45,56 44,57 44,59 43,60 43,61 42,62 42,63 41,64 41,65 39,67 39,68 38,69 40,69 40,68 41,67 41,66 42,65 42,64 43,63 43,62 44,61 44,60 45,59 45,58 46,57 46,55 47,54 47,53 48,52 48,50 49,49 49,48 50,47 50,45 51,44 51,43 53,41 63,41 63,40 61,40 60,41 53,41 52,40 52,38 53,37 53,35 54,34 54,33" stroke="black" stroke-width="1" /></svg>