<?xml version="1.0" encoding="utf-8" ?>
<svg baseProfile="full" height="100" version="1.1" width="100" xmlns="http://www.w3.org/2000/svg" xmlns:ev="http://www.w3.org/2001/xml-events" xmlns:xlink="http://www.w3.org/1999/xlink"><defs /><polygon fill="none" id="1" points="51,31 51,36 50,37 50,39 49,40 48,40 47,39 36,39 36,42 48,42 49,43 49,44 48,45 48,47 47,48 47,50 46,51 46,52 45,53 45,54 44,55 44,56 43,57 43,59 44,59 45,60 47,60 50,57 51,57 52,56 53,56 54,55 55,55 56,54 57,54 58,53 61,53 62,52 70,52 71,53 73,53 76,56 76,58 77,59 76,60 76,61 72,65 71,65 70,66 69,66 68,67 65,67 64,68 55,68 54,69 53,69 52,68 51,68 50,69 52,71 62,71 63,70 68,70 69,69 71,69 72,68 73,68 74,67 75,67 76,66 77,66 78,65 78,64 80,62 80,57 79,56 79,55 76,52 75,52 74,51 72,51 71,50 61,50 60,51 58,51 57,52 55,52 54,53 53,53 51,55 50,55 49,56 48,55 48,53 49,52 49,51 51,49 51,47 52,46 52,43 53,42 58,42 59,41 69,41 70,40 73,40 72,39 72,37 71,37 70,38 65,38 64,39 54,39 53,38 54,37 54,35 55,34 55,33 56,32 55,31" stroke="black" stroke-width="1" /></svg>