<?xml version="1.0" encoding="utf-8" ?>
<svg baseProfile="full" height="100" version="1.1" width="100" xmlns="http://www.w3.org/2000/svg" xmlns:ev="http://www.w3.org/2001/xml-events" xmlns:xlink="http://www.w3.org/1999/xlink"><defs /><polygon fill="none" id="1" points="34,31 34,38 32,40 31,40 30,39 24,39 24,42 32,42 33,43 32,44 32,47 31,48 31,51 30,52 30,55 29,56 29,59 30,60 31,60 37,54 38,54 39,53 40,53 41,52 46,52 47,53 48,53 50,55 50,56 51,57 51,60 50,61 50,63 47,66 46,66 45,67 43,67 42,68 34,68 34,70 35,71 41,71 42,70 45,70 46,69 47,69 48,68 49,68 52,65 52,64 53,63 53,56 52,55 52,54 49,51 48,51 47,50 41,50 40,51 38,51 36,53 35,53 33,55 32,54 32,52 33,51 33,49 34,48 34,43 35,42 39,42 40,41 46,41 47,40 48,40 48,37 47,37 46,38 43,38 42,39 36,39 35,38 36,37 36,34 37,33 37,31" stroke="black" stroke-width="1" /></svg>