<?xml version="1.0" encoding="utf-8" ?>
<svg baseProfile="full" height="100" version="1.1" width="100" xmlns="http://www.w3.org/2000/svg" xmlns:ev="http://www.w3.org/2001/xml-events" xmlns:xlink="http://www.w3.org/1999/xlink"><defs /><polygon fill="none" id="1" points="39,31 39,32 38,33 38,38 36,40 35,39 27,39 27,42 36,42 37,43 36,44 36,47 35,48 35,50 34,51 34,54 33,55 33,56 32,57 32,59 33,60 35,60 40,55 41,55 42,54 43,54 44,53 46,53 47,52 52,52 53,53 54,53 57,56 57,62 53,66 52,66 51,67 48,67 47,68 38,68 38,69 39,70 39,71 46,71 47,70 50,70 51,69 53,69 54,68 55,68 59,64 59,62 60,61 60,57 59,56 59,54 57,52 56,52 55,51 54,51 53,50 46,50 45,51 43,51 42,52 41,52 37,56 36,55 36,53 37,52 37,50 38,49 38,46 39,45 39,43 40,42 44,42 45,41 52,41 53,40 54,40 54,37 53,37 52,38 49,38 48,39 41,39 40,38 40,36 41,35 41,31" stroke="black" stroke-width="1" /></svg>