<?xml version="1.0" encoding="utf-8" ?>
<svg baseProfile="full" height="100" version="1.1" width="100" xmlns="http://www.w3.org/2000/svg" xmlns:ev="http://www.w3.org/2001/xml-events" xmlns:xlink="http://www.w3.org/1999/xlink"><defs /><polygon fill="none" id="1" points="43,31 43,34 42,35 42,39 41,40 40,40 39,39 30,39 30,42 40,42 41,43 41,44 40,45 40,47 39,48 39,50 38,51 38,53 37,54 37,56 36,57 36,59 37,60 39,60 43,56 44,56 45,55 46,55 47,54 48,54 49,53 51,53 52,52 58,52 59,53 60,53 63,56 63,57 64,58 64,59 63,60 63,62 60,65 59,65 58,66 57,66 56,67 54,67 53,68 46,68 45,69 44,68 42,68 42,69 43,70 43,71 52,71 53,70 56,70 57,69 59,69 60,68 61,68 62,67 63,67 65,65 65,64 66,63 66,61 67,60 67,58 66,57 66,55 63,52 62,52 61,51 60,51 59,50 51,50 50,51 48,51 47,52 46,52 45,53 44,53 41,56 40,55 40,53 41,52 41,51 42,50 42,47 43,46 43,43 44,42 49,42 50,41 58,41 59,40 60,40 60,37 59,37 58,38 54,38 53,39 45,39 44,38 45,37 45,34 46,33 46,31" stroke="black" stroke-width="1" /></svg>