<?xml version="1.0" encoding="utf-8" ?>
<svg baseProfile="full" height="100" version="1.1" width="100" xmlns="http://www.w3.org/2000/svg" xmlns:ev="http://www.w3.org/2001/xml-events" xmlns:xlink="http://www.w3.org/1999/xlink"><defs /><polygon fill="none" id="1" points="47,31 47,35 46,36 46,39 45,40 44,40 43,39 33,39 33,42 44,42 45,43 45,44 44,45 44,47 43,48 43,50 42,51 42,53 41,54 41,55 40,56 40,57 39,58 39,59 40,59 41,60 43,60 46,57 47,57 49,55 50,55 51,54 53,54 54,53 56,53 57,52 64,52 65,53 66,53 67,54 68,54 69,55 69,56 70,57 70,60 69,61 69,62 66,65 65,65 64,66 63,66 62,67 59,67 58,68 50,68 49,69 48,68 47,68 46,69 48,71 57,71 58,70 62,70 63,69 65,69 66,68 67,68 68,67 69,67 73,63 73,55 71,53 70,53 68,51 66,51 65,50 56,50 55,51 53,51 52,52 51,52 50,53 49,53 48,54 47,54 45,56 44,55 44,53 45,52 45,51 46,50 46,48 47,47 47,44 49,42 54,42 55,41 63,41 64,40 66,40 66,37 65,37 64,38 59,38 58,39 50,39 49,38 49,37 50,36 50,34 51,33 51,31" stroke="black" stroke-width="1" /></svg>