<?xml version="1.0" encoding="utf-8" ?>
<svg baseProfile="full" height="100" version="1.1" width="100" xmlns="http://www.w3.org/2000/svg" xmlns:ev="http://www.w3.org/2001/xml-events" xmlns:xlink="http://www.w3.org/1999/xlink"><defs /><polygon fill="none" id="1" points="66,42 65,43 63,43 64,43 66,45 66,46 68,48 68,49 70,51 70,52 71,53 71,54 72,55 72,56 73,57 73,58 74,59 74,61 75,61 76,60 77,60 76,59 76,58 75,57 75,55 73,53 73,52 72,51 72,50 70,48 70,47 66,43" stroke="black" stroke-width="1" /><polygon fill="none" id="2" points="36,40 36,50 37,51 37,57 38,58 38,61 39,62 39,63 40,64 40,65 41,66 41,67 44,70 45,70 46,71 48,71 49,70 50,70 53,67 53,66 54,65 54,64 55,63 55,61 54,61 53,60 53,62 52,63 52,64 51,65 51,66 49,68 45,68 43,66 43,65 42,64 42,63 41,62 41,60 40,59 40,54 39,53 39,40" stroke="black" stroke-width="1" /></svg>