<?xml version="1.0" encoding="utf-8" ?>
<svg baseProfile="full" height="100" version="1.1" width="100" xmlns="http://www.w3.org/2000/svg" xmlns:ev="http://www.w3.org/2001/xml-events" xmlns:xlink="http://www.w3.org/1999/xlink"><defs /><polygon fill="none" id="1" points="34,31 34,38 32,40 31,39 24,39 24,43 31,43 32,44 32,47 31,48 31,51 30,52 30,55 29,56 29,60 30,61 32,61 38,55 39,55 40,54 41,54 42,53 46,53 47,54 48,54 50,56 50,57 51,58 51,60 50,61 50,63 47,66 46,66 45,67 43,67 42,68 34,68 34,71 35,72 42,72 43,71 46,71 47,70 48,70 49,69 50,69 53,66 53,65 54,64 54,56 53,55 53,54 50,51 49,51 48,50 41,50 40,51 38,51 36,53 35,53 34,52 34,50 35,49 35,44 36,43 40,43 41,42 47,42 48,41 49,41 49,37 47,37 46,38 43,38 42,39 38,39 37,38 37,35 38,34 38,31" stroke="black" stroke-width="1" /><polygon fill="none" id="2" points="33,53 34,52 35,53 34,54" stroke="black" stroke-width="1" /></svg>