<?xml version="1.0" encoding="utf-8" ?>
<svg baseProfile="full" height="100" version="1.1" width="100" xmlns="http://www.w3.org/2000/svg" xmlns:ev="http://www.w3.org/2001/xml-events" xmlns:xlink="http://www.w3.org/1999/xlink"><defs /><polygon fill="none" id="1" points="39,31 39,32 38,33 38,38 37,39 27,39 27,43 35,43 36,44 36,47 35,48 35,50 34,51 34,54 33,55 33,56 32,57 32,60 33,61 36,61 41,56 42,56 43,55 44,55 45,54 47,54 48,53 52,53 53,54 54,54 57,57 57,62 53,66 52,66 51,67 48,67 47,68 38,68 38,70 39,71 39,72 47,72 48,71 51,71 52,70 54,70 55,69 56,69 60,65 60,63 61,62 61,57 60,56 60,54 58,52 57,52 56,51 55,51 54,50 46,50 45,51 43,51 42,52 41,52 39,54 38,53 38,51 39,50 39,47 40,46 40,44 41,43 45,43 46,42 53,42 54,41 55,41 55,37 53,37 52,38 49,38 48,39 42,39 41,38 41,37 42,36 42,31" stroke="black" stroke-width="1" /><polygon fill="none" id="2" points="37,54 38,53 39,54 38,55" stroke="black" stroke-width="1" /></svg>