<?xml version="1.0" encoding="utf-8" ?>
<svg baseProfile="full" height="100" version="1.1" width="100" xmlns="http://www.w3.org/2000/svg" xmlns:ev="http://www.w3.org/2001/xml-events" xmlns:xlink="http://www.w3.org/1999/xlink"><defs /><polygon fill="none" id="1" points="43,31 43,34 42,35 42,39 41,40 40,39 30,39 30,43 40,43 41,44 40,45 40,47 39,48 39,50 38,51 38,53 37,54 37,56 36,57 36,60 37,61 40,61 44,57 45,57 46,56 47,56 48,55 49,55 50,54 52,54 53,53 58,53 59,54 60,54 63,57 63,58 64,59 63,60 63,62 60,65 59,65 58,66 57,66 56,67 54,67 53,68 42,68 42,70 43,71 43,72 53,72 54,71 57,71 58,70 60,70 61,69 62,69 63,68 64,68 66,66 66,65 67,64 67,62 68,61 68,58 67,57 67,55 64,52 63,52 62,51 61,51 60,50 51,50 50,51 48,51 47,52 46,52 45,53 44,53 43,54 42,53 42,52 43,51 43,48 44,47 44,44 45,43 50,43 51,42 59,42 60,41 61,41 61,37 59,37 58,38 54,38 53,39 47,39 46,38 46,35 47,34 47,31" stroke="black" stroke-width="1" /><polygon fill="none" id="2" points="41,54 42,53 43,54 42,55" stroke="black" stroke-width="1" /></svg>