<?xml version="1.0" encoding="utf-8" ?>
<svg baseProfile="full" height="100" version="1.1" width="100" xmlns="http://www.w3.org/2000/svg" xmlns:ev="http://www.w3.org/2001/xml-events" xmlns:xlink="http://www.w3.org/1999/xlink"><defs /><polygon fill="none" id="1" points="47,31 47,35 46,36 46,39 45,40 44,39 33,39 33,43 44,43 45,44 44,45 44,47 43,48 43,50 42,51 42,53 41,54 41,55 40,56 40,57 39,58 39,60 40,60 41,61 44,61 47,58 48,58 50,56 51,56 52,55 54,55 55,54 57,54 58,53 64,53 65,54 66,54 67,55 68,55 69,56 69,57 70,58 70,60 69,61 69,62 66,65 65,65 64,66 63,66 62,67 59,67 58,68 47,68 46,69 46,70 48,72 58,72 59,71 63,71 64,70 66,70 67,69 68,69 69,68 70,68 74,64 74,55 72,53 71,53 69,51 67,51 66,50 56,50 55,51 53,51 52,52 51,52 50,53 49,53 48,54 47,54 46,53 46,52 47,51 47,49 48,48 48,45 50,43 55,43 56,42 64,42 65,41 67,41 67,37 65,37 64,38 59,38 58,39 51,39 50,38 51,37 51,35 52,34 52,31" stroke="black" stroke-width="1" /><polygon fill="none" id="2" points="45,54 46,53 47,54 46,55" stroke="black" stroke-width="1" /></svg>