<?xml version="1.0" encoding="utf-8" ?>
<svg baseProfile="full" height="100" version="1.1" width="100" xmlns="http://www.w3.org/2000/svg" xmlns:ev="http://www.w3.org/2001/xml-events" xmlns:xlink="http://www.w3.org/1999/xlink"><defs /><polygon fill="none" id="1" points="51,31 51,36 50,37 50,39 49,40 48,39 36,39 36,43 48,43 49,44 48,45 48,47 47,48 47,50 46,51 46,52 45,53 45,54 44,55 44,56 43,57 43,60 44,60 45,61 48,61 51,58 52,58 53,57 54,57 55,56 56,56 57,55 58,55 59,54 62,54 63,53 70,53 71,54 73,54 76,57 76,61 72,65 71,65 70,66 69,66 68,67 65,67 64,68 55,68 54,69 53,68 51,68 50,69 50,70 52,72 63,72 64,71 69,71 70,70 72,70 73,69 74,69 75,68 76,68 77,67 78,67 79,66 79,65 81,63 81,57 80,56 80,55 77,52 76,52 75,51 73,51 72,50 61,50 60,51 58,51 57,52 55,52 54,53 53,53 51,55 50,55 49,54 50,53 50,52 52,50 52,48 53,47 53,44 54,43 59,43 60,42 70,42 71,41 74,41 74,40 73,39 73,37 71,37 70,38 65,38 64,39 56,39 55,38 55,36 56,35 56,34 57,33 57,32 56,31" stroke="black" stroke-width="1" /></svg>