<?xml version="1.0" encoding="utf-8" ?>
<svg baseProfile="full" height="100" version="1.1" width="100" xmlns="http://www.w3.org/2000/svg" xmlns:ev="http://www.w3.org/2001/xml-events" xmlns:xlink="http://www.w3.org/1999/xlink"><defs /><polygon fill="none" id="1" points="35,32 35,39 33,41 31,41 30,40 25,40 25,42 33,42 34,43 34,44 33,45 33,48 32,49 32,52 31,53 31,56 30,57 30,59 31,60 37,54 38,54 39,53 40,53 41,52 47,52 48,53 49,53 51,55 51,56 52,57 52,61 51,62 51,64 48,67 47,67 46,68 44,68 43,69 35,69 35,70 36,71 41,71 42,70 45,70 46,69 47,69 48,68 49,68 52,65 52,64 53,63 53,57 52,56 52,55 49,52 48,52 47,51 42,51 41,52 39,52 37,54 36,54 34,56 33,56 32,55 32,52 33,51 33,49 34,48 34,43 35,42 39,42 40,41 46,41 47,40 48,40 48,38 47,39 44,39 43,40 36,40 35,39 35,38 36,37 36,34 37,33 37,32" stroke="black" stroke-width="1" /></svg>