<?xml version="1.0" encoding="utf-8" ?>
<svg baseProfile="full" height="100" version="1.1" width="100" xmlns="http://www.w3.org/2000/svg" xmlns:ev="http://www.w3.org/2001/xml-events" xmlns:xlink="http://www.w3.org/1999/xlink"><defs /><polygon fill="none" id="1" points="40,32 40,33 39,34 39,39 37,41 36,41 35,40 28,40 28,42 37,42 38,43 38,44 37,45 37,48 36,49 36,51 35,52 35,55 34,56 34,57 33,58 33,59 34,60 35,60 40,55 41,55 42,54 43,54 44,53 46,53 47,52 53,52 54,53 55,53 58,56 58,63 54,67 53,67 52,68 49,68 48,69 39,69 40,70 40,71 46,71 47,70 50,70 51,69 53,69 54,68 55,68 59,64 59,62 60,61 60,58 59,57 59,55 57,53 56,53 55,52 54,52 53,51 47,51 46,52 44,52 43,53 42,53 38,57 37,57 36,56 36,53 37,52 37,50 38,49 38,46 39,45 39,43 40,42 44,42 45,41 52,41 53,40 54,40 54,38 53,39 50,39 49,40 41,40 40,39 40,36 41,35 41,32" stroke="black" stroke-width="1" /></svg>