<?xml version="1.0" encoding="utf-8" ?>
<svg baseProfile="full" height="100" version="1.1" width="100" xmlns="http://www.w3.org/2000/svg" xmlns:ev="http://www.w3.org/2001/xml-events" xmlns:xlink="http://www.w3.org/1999/xlink"><defs /><polygon fill="none" id="1" points="44,32 44,35 43,36 43,40 42,41 40,41 39,40 31,40 31,42 41,42 42,43 42,45 41,46 41,48 40,49 40,51 39,52 39,54 38,55 38,57 37,58 37,59 38,60 39,60 43,56 44,56 45,55 46,55 47,54 48,54 49,53 51,53 52,52 59,52 60,53 61,53 64,56 64,57 65,58 65,60 64,61 64,63 61,66 60,66 59,67 58,67 57,68 55,68 54,69 47,69 46,70 45,70 44,69 43,69 44,70 44,71 52,71 53,70 56,70 57,69 59,69 60,68 61,68 62,67 63,67 65,65 65,64 66,63 66,61 67,60 67,59 66,58 66,56 63,53 62,53 61,52 60,52 59,51 52,51 51,52 49,52 48,53 47,53 46,54 45,54 42,57 41,57 40,56 40,53 41,52 41,51 42,50 42,47 43,46 43,43 44,42 49,42 50,41 58,41 59,40 60,40 60,38 59,39 55,39 54,40 45,40 44,39 44,38 45,37 45,34 46,33 46,32" stroke="black" stroke-width="1" /></svg>