<?xml version="1.0" encoding="utf-8" ?>
<svg baseProfile="full" height="100" version="1.1" width="100" xmlns="http://www.w3.org/2000/svg" xmlns:ev="http://www.w3.org/2001/xml-events" xmlns:xlink="http://www.w3.org/1999/xlink"><defs /><polygon fill="none" id="1" points="48,32 48,36 47,37 47,40 46,41 44,41 43,40 34,40 34,42 45,42 46,43 46,45 45,46 45,48 44,49 44,51 43,52 43,54 42,55 42,56 41,57 41,58 40,59 41,59 42,60 43,60 46,57 47,57 49,55 50,55 51,54 53,54 54,53 56,53 57,52 65,52 66,53 67,53 68,54 69,54 70,55 70,56 71,57 71,61 70,62 70,63 67,66 66,66 65,67 64,67 63,68 60,68 59,69 51,69 50,70 49,70 48,69 48,70 49,71 57,71 58,70 62,70 63,69 65,69 66,68 67,68 68,67 69,67 73,63 73,56 71,54 70,54 68,52 66,52 65,51 57,51 56,52 54,52 53,53 52,53 51,54 50,54 49,55 48,55 46,57 45,57 44,56 44,53 45,52 45,51 46,50 46,48 47,47 47,44 49,42 54,42 55,41 63,41 64,40 66,40 66,38 65,39 60,39 59,40 50,40 49,39 49,37 50,36 50,34 51,33 51,32" stroke="black" stroke-width="1" /></svg>