<?xml version="1.0" encoding="utf-8" ?>
<svg baseProfile="full" height="100" version="1.1" width="100" xmlns="http://www.w3.org/2000/svg" xmlns:ev="http://www.w3.org/2001/xml-events" xmlns:xlink="http://www.w3.org/1999/xlink"><defs /><polygon fill="none" id="1" points="52,31 52,37 51,38 50,38 49,39 41,39 40,38 39,38 39,41 48,41 49,40 50,40 51,41 51,48 49,50 48,50 47,51 46,51 45,52 44,52 37,59 37,61 36,62 36,66 37,67 37,68 38,68 39,69 45,69 46,68 47,68 48,67 49,67 50,66 51,66 52,67 52,68 53,69 54,68 56,68 56,67 55,66 55,65 54,64 56,62 57,62 60,59 60,58 64,54 64,53 65,52 65,51 66,50 66,49 67,48 70,48 71,49 73,49 75,51 76,51 77,52 77,53 78,54 78,55 79,56 79,59 78,60 78,61 77,62 77,63 75,65 74,65 73,66 72,66 71,67 69,67 68,68 63,68 62,69 64,71 68,71 69,70 71,70 72,69 74,69 75,68 76,68 78,66 79,66 81,64 81,63 82,62 82,59 83,58 83,57 82,56 82,53 77,48 75,48 74,47 72,47 71,46 69,46 68,45 69,44 68,43 65,43 65,45 64,46 59,46 58,47 56,47 55,48 54,47 54,41 55,40 61,40 62,39 68,39 69,38 72,38 72,35 71,35 70,36 66,36 65,37 59,37 58,38 56,38 55,37 55,33 56,32 56,31" stroke="black" stroke-width="1" /><polygon fill="none" id="2" points="49,52 50,52 51,53 51,62 47,66 45,66 44,67 41,67 40,66 40,61 42,59 42,58 46,54 47,54" stroke="black" stroke-width="1" /><polygon fill="none" id="3" points="58,49 59,48 63,48 64,49 61,52 61,53 59,55 59,56 55,60 54,60 53,59 54,58 54,52 53,51 55,49" stroke="black" stroke-width="1" /></svg>