<?xml version="1.0" encoding="utf-8" ?>
<svg baseProfile="full" height="100" version="1.1" width="100" xmlns="http://www.w3.org/2000/svg" xmlns:ev="http://www.w3.org/2001/xml-events" xmlns:xlink="http://www.w3.org/1999/xlink"><defs /><polygon fill="none" id="1" points="71,42 70,43 69,43 74,48 74,49 77,52 77,53 78,54 78,55 79,56 79,57 80,58 80,60 81,61 82,61 83,60 84,60 83,59 83,58 82,57 82,56 81,55 81,54 79,52 79,51 77,49 77,48 72,43 72,42" stroke="black" stroke-width="1" /><polygon fill="none" id="2" points="39,40 39,47 40,48 40,54 41,55 41,59 42,60 42,62 43,63 43,64 44,65 44,66 48,70 49,70 50,71 53,71 55,69 56,69 57,68 57,67 59,65 59,64 60,63 60,61 59,61 58,60 57,61 57,63 56,64 56,65 53,68 49,68 47,66 47,65 46,64 46,63 45,62 45,61 44,60 44,58 43,57 43,50 42,49 42,40" stroke="black" stroke-width="1" /></svg>