<?xml version="1.0" encoding="utf-8" ?>
<svg baseProfile="full" height="100" version="1.1" width="100" xmlns="http://www.w3.org/2000/svg" xmlns:ev="http://www.w3.org/2001/xml-events" xmlns:xlink="http://www.w3.org/1999/xlink"><defs /><polygon fill="none" id="1" points="52,32 52,37 51,38 51,40 50,41 48,41 47,40 37,40 37,42 49,42 50,43 50,45 49,46 49,48 48,49 48,51 47,52 47,53 46,54 46,55 45,56 45,57 44,58 44,59 45,59 46,60 47,60 50,57 51,57 52,56 53,56 54,55 55,55 56,54 57,54 58,53 61,53 62,52 71,52 72,53 74,53 77,56 77,58 78,59 78,60 77,61 77,62 73,66 72,66 71,67 70,67 69,68 66,68 65,69 56,69 55,70 53,70 52,69 52,70 53,71 62,71 63,70 68,70 69,69 71,69 72,68 73,68 74,67 75,67 76,66 77,66 78,65 78,64 80,62 80,58 79,57 79,56 76,53 75,53 74,52 72,52 71,51 62,51 61,52 59,52 58,53 56,53 55,54 54,54 52,56 51,56 50,57 49,57 48,56 48,53 49,52 49,51 51,49 51,47 52,46 52,43 53,42 58,42 59,41 69,41 70,40 72,40 72,38 71,39 66,39 65,40 54,40 53,39 53,38 54,37 54,35 55,34 55,32" stroke="black" stroke-width="1" /></svg>