<?xml version="1.0" encoding="utf-8" ?>
<svg baseProfile="full" height="100" version="1.1" width="100" xmlns="http://www.w3.org/2000/svg" xmlns:ev="http://www.w3.org/2001/xml-events" xmlns:xlink="http://www.w3.org/1999/xlink"><defs /><polygon fill="none" id="1" points="33,30 33,37 32,38 23,38 23,43 30,43 31,44 31,46 30,47 30,50 29,51 29,54 28,55 28,60 29,61 32,61 38,55 39,55 40,54 41,54 42,53 45,53 46,54 47,54 49,56 49,57 50,58 50,59 49,60 49,62 46,65 45,65 44,66 42,66 41,67 33,67 33,71 34,72 42,72 43,71 46,71 47,70 48,70 49,69 50,69 53,66 53,65 54,64 54,55 53,54 53,53 50,50 49,50 48,49 40,49 39,50 37,50 35,52 34,51 34,50 35,49 35,44 36,43 40,43 41,42 47,42 48,41 49,41 49,36 46,36 45,37 42,37 41,38 38,38 37,37 37,35 38,34 38,30" stroke="black" stroke-width="1" /></svg>