<?xml version="1.0" encoding="utf-8" ?>
<svg baseProfile="full" height="100" version="1.1" width="100" xmlns="http://www.w3.org/2000/svg" xmlns:ev="http://www.w3.org/2001/xml-events" xmlns:xlink="http://www.w3.org/1999/xlink"><defs /><polygon fill="none" id="1" points="38,30 38,31 37,32 37,37 36,38 26,38 26,43 34,43 35,44 35,46 34,47 34,49 33,50 33,53 32,54 32,55 31,56 31,60 32,61 36,61 41,56 42,56 43,55 44,55 45,54 47,54 48,53 51,53 52,54 53,54 56,57 56,61 52,65 51,65 50,66 47,66 46,67 37,67 37,70 38,71 38,72 47,72 48,71 51,71 52,70 54,70 55,69 56,69 60,65 60,63 61,62 61,56 60,55 60,53 58,51 57,51 56,50 55,50 54,49 45,49 44,50 42,50 41,51 40,51 39,50 39,47 40,46 40,44 41,43 45,43 46,42 53,42 54,41 55,41 55,36 52,36 51,37 48,37 47,38 42,38 41,37 42,36 42,30" stroke="black" stroke-width="1" /><polygon fill="none" id="2" points="38,51 39,50 40,51 39,52" stroke="black" stroke-width="1" /></svg>