<?xml version="1.0" encoding="utf-8" ?>
<svg baseProfile="full" height="100" version="1.1" width="100" xmlns="http://www.w3.org/2000/svg" xmlns:ev="http://www.w3.org/2001/xml-events" xmlns:xlink="http://www.w3.org/1999/xlink"><defs /><polygon fill="none" id="1" points="42,30 42,33 41,34 41,37 40,38 29,38 29,43 38,43 39,44 39,46 38,47 38,49 37,50 37,52 36,53 36,55 35,56 35,60 36,61 40,61 44,57 45,57 46,56 47,56 48,55 49,55 50,54 52,54 53,53 57,53 58,54 59,54 62,57 62,61 59,64 58,64 57,65 56,65 55,66 53,66 52,67 41,67 41,70 42,71 42,72 53,72 54,71 57,71 58,70 60,70 61,69 62,69 63,68 64,68 66,66 66,65 67,64 67,62 68,61 68,57 67,56 67,54 64,51 63,51 62,50 61,50 60,49 50,49 49,50 47,50 46,51 45,51 44,52 43,51 43,48 44,47 44,44 45,43 50,43 51,42 59,42 60,41 61,41 61,36 58,36 57,37 53,37 52,38 47,38 46,37 46,35 47,34 47,30" stroke="black" stroke-width="1" /></svg>