<?xml version="1.0" encoding="utf-8" ?>
<svg baseProfile="full" height="100" version="1.1" width="100" xmlns="http://www.w3.org/2000/svg" xmlns:ev="http://www.w3.org/2001/xml-events" xmlns:xlink="http://www.w3.org/1999/xlink"><defs /><polygon fill="none" id="1" points="46,30 46,34 45,35 45,37 44,38 32,38 32,43 42,43 43,44 43,46 42,47 42,49 41,50 41,52 40,53 40,54 39,55 39,56 38,57 38,60 39,60 40,61 44,61 47,58 48,58 50,56 51,56 52,55 54,55 55,54 57,54 58,53 63,53 64,54 65,54 66,55 67,55 68,56 68,57 69,58 69,59 68,60 68,61 65,64 64,64 63,65 62,65 61,66 58,66 57,67 46,67 45,68 45,70 47,72 58,72 59,71 63,71 64,70 66,70 67,69 68,69 69,68 70,68 74,64 74,54 72,52 71,52 69,50 67,50 66,49 55,49 54,50 52,50 51,51 50,51 49,52 48,52 47,51 47,49 48,48 48,45 50,43 55,43 56,42 64,42 65,41 67,41 67,36 64,36 63,37 58,37 57,38 52,38 51,37 51,35 52,34 52,30" stroke="black" stroke-width="1" /><polygon fill="none" id="2" points="46,52 47,51 48,52 47,53" stroke="black" stroke-width="1" /></svg>