<?xml version="1.0" encoding="utf-8" ?>
<svg baseProfile="full" height="100" version="1.1" width="100" xmlns="http://www.w3.org/2000/svg" xmlns:ev="http://www.w3.org/2001/xml-events" xmlns:xlink="http://www.w3.org/1999/xlink"><defs /><polygon fill="none" id="1" points="50,30 50,35 49,36 49,37 48,38 35,38 35,43 46,43 47,44 47,46 46,47 46,49 45,50 45,51 44,52 44,53 43,54 43,55 42,56 42,60 43,60 44,61 48,61 51,58 52,58 53,57 54,57 55,56 56,56 57,55 58,55 59,54 62,54 63,53 69,53 70,54 72,54 75,57 75,60 71,64 70,64 69,65 68,65 67,66 64,66 63,67 50,67 49,68 49,70 51,72 63,72 64,71 69,71 70,70 72,70 73,69 74,69 75,68 76,68 77,67 78,67 79,66 79,65 81,63 81,56 80,55 80,54 77,51 76,51 75,50 73,50 72,49 60,49 59,50 57,50 56,51 54,51 53,52 52,52 51,51 52,50 52,48 53,47 53,44 54,43 59,43 60,42 70,42 71,41 74,41 74,39 73,38 73,36 70,36 69,37 64,37 63,38 56,38 55,37 55,36 56,35 56,34 57,33 57,31 56,30" stroke="black" stroke-width="1" /><polygon fill="none" id="2" points="50,52 51,51 52,52 51,53" stroke="black" stroke-width="1" /></svg>