<?xml version="1.0" encoding="utf-8" ?>
<svg baseProfile="full" height="100" version="1.1" width="100" xmlns="http://www.w3.org/2000/svg" xmlns:ev="http://www.w3.org/2001/xml-events" xmlns:xlink="http://www.w3.org/1999/xlink"><defs /><polygon fill="none" id="1" points="52,57 52,61 51,62 51,64 48,67 47,67 46,68 44,68 43,69 35,69 36,70 40,70 41,69 44,69 45,68 46,68 47,67 48,67 51,64 51,63 52,62" stroke="black" stroke-width="1" /><polygon fill="none" id="2" points="51,55" stroke="black" stroke-width="1" /><polygon fill="none" id="3" points="31,53 31,56 30,57 30,58 31,58 33,56 32,56 31,55" stroke="black" stroke-width="1" /><polygon fill="none" id="4" points="48,52" stroke="black" stroke-width="1" /><polygon fill="none" id="5" points="39,52" stroke="black" stroke-width="1" /><polygon fill="none" id="6" points="42,51 46,51" stroke="black" stroke-width="1" /><polygon fill="none" id="7" points="32,49 32,50" stroke="black" stroke-width="1" /><polygon fill="none" id="8" points="33,45 33,47" stroke="black" stroke-width="1" /><polygon fill="none" id="9" points="44,39 43,40 34,40 33,41 30,41 29,40 25,40 25,41 38,41 39,40 45,40 46,39 47,39" stroke="black" stroke-width="1" /><polygon fill="none" id="10" points="35,32 35,36 35,33 36,32" stroke="black" stroke-width="1" /></svg>