<?xml version="1.0" encoding="utf-8" ?>
<svg baseProfile="full" height="100" version="1.1" width="100" xmlns="http://www.w3.org/2000/svg" xmlns:ev="http://www.w3.org/2001/xml-events" xmlns:xlink="http://www.w3.org/1999/xlink"><defs /><polygon fill="none" id="1" points="56,53 58,55 58,63 54,67 53,67 52,68 49,68 48,69 40,69 40,70 45,70 46,69 49,69 50,68 52,68 53,67 54,67 58,63 58,61 59,60 59,58 58,57 58,55" stroke="black" stroke-width="1" /><polygon fill="none" id="2" points="42,53" stroke="black" stroke-width="1" /><polygon fill="none" id="3" points="54,52" stroke="black" stroke-width="1" /><polygon fill="none" id="4" points="44,52 45,52" stroke="black" stroke-width="1" /><polygon fill="none" id="5" points="47,51 52,51" stroke="black" stroke-width="1" /><polygon fill="none" id="6" points="40,32 40,33 39,34 39,39 37,41 35,41 34,40 28,40 28,41 37,41 38,42 38,44 37,45 37,48 36,49 36,51 35,52 35,55 34,56 34,57 33,58 34,59 36,57 35,56 35,52 36,51 36,49 37,48 37,45 38,44 38,42 39,41 43,41 44,40 51,40 52,39 53,39 50,39 49,40 40,40 39,39 39,35 40,34" stroke="black" stroke-width="1" /></svg>