<?xml version="1.0" encoding="utf-8" ?>
<svg baseProfile="full" height="100" version="1.1" width="100" xmlns="http://www.w3.org/2000/svg" xmlns:ev="http://www.w3.org/2001/xml-events" xmlns:xlink="http://www.w3.org/1999/xlink"><defs /><polygon fill="none" id="1" points="45,54" stroke="black" stroke-width="1" /><polygon fill="none" id="2" points="62,53 64,55 64,56 65,57 65,60 64,61 64,63 61,66 60,66 59,67 58,67 57,68 55,68 54,69 47,69 46,70 44,70 51,70 52,69 55,69 56,68 58,68 59,67 60,67 61,66 62,66 64,64 64,63 65,62 65,60 66,59 65,58 65,56" stroke="black" stroke-width="1" /><polygon fill="none" id="3" points="47,53" stroke="black" stroke-width="1" /><polygon fill="none" id="4" points="60,52" stroke="black" stroke-width="1" /><polygon fill="none" id="5" points="49,52 50,52" stroke="black" stroke-width="1" /><polygon fill="none" id="6" points="52,51 58,51" stroke="black" stroke-width="1" /><polygon fill="none" id="7" points="44,32 44,35 43,36 43,40 42,41 39,41 38,40 31,40 31,41 41,41 42,42 42,45 41,46 41,48 40,49 40,51 39,52 39,54 38,55 38,57 37,58 38,59 40,57 39,56 39,52 40,51 40,50 41,49 41,46 42,45 42,42 43,41 48,41 49,40 57,40 58,39 59,39 55,39 54,40 44,40 43,39 43,37 44,36 44,33 45,32" stroke="black" stroke-width="1" /></svg>