<?xml version="1.0" encoding="utf-8" ?>
<svg baseProfile="full" height="100" version="1.1" width="100" xmlns="http://www.w3.org/2000/svg" xmlns:ev="http://www.w3.org/2001/xml-events" xmlns:xlink="http://www.w3.org/1999/xlink"><defs /><polygon fill="none" id="1" points="70,54 70,55 71,56 71,61 70,62 70,63 67,66 66,66 65,67 64,67 63,68 60,68 59,69 51,69 50,70 49,70 56,70 57,69 61,69 62,68 64,68 65,67 66,67 67,66 68,66 72,62 72,56" stroke="black" stroke-width="1" /><polygon fill="none" id="2" points="52,53" stroke="black" stroke-width="1" /><polygon fill="none" id="3" points="66,52 67,52 68,53 67,52" stroke="black" stroke-width="1" /><polygon fill="none" id="4" points="54,52 55,52" stroke="black" stroke-width="1" /><polygon fill="none" id="5" points="57,51 64,51" stroke="black" stroke-width="1" /><polygon fill="none" id="6" points="48,32 48,36 47,37 47,40 46,41 43,41 42,40 34,40 34,41 45,41 46,42 46,45 45,46 45,48 44,49 44,51 43,52 43,54 42,55 42,56 41,57 41,58 42,59 44,57 43,56 43,52 44,51 44,50 45,49 45,47 46,46 46,43 48,41 53,41 54,40 62,40 63,39 65,39 60,39 59,40 49,40 48,39 48,36 49,35 49,33 50,32" stroke="black" stroke-width="1" /></svg>