<?xml version="1.0" encoding="utf-8" ?>
<svg baseProfile="full" height="100" version="1.1" width="100" xmlns="http://www.w3.org/2000/svg" xmlns:ev="http://www.w3.org/2001/xml-events" xmlns:xlink="http://www.w3.org/1999/xlink"><defs /><polygon fill="none" id="1" points="46,40 45,41 44,41 44,44 47,47 47,48 48,49 48,50 49,51 49,53 50,54 50,56 51,57 51,59 52,60 52,62 55,62 56,61 57,61 57,58 56,57 56,55 55,54 55,52 54,51 54,50 53,49 53,48 52,47 52,46 51,45 51,44 50,43 50,42 49,41 49,40" stroke="black" stroke-width="1" /><polygon fill="none" id="2" points="24,38 24,41 25,42 25,58 26,59 26,63 27,64 27,66 28,67 28,68 29,69 29,70 31,72 36,72 38,70 38,69 39,68 39,67 40,66 40,64 41,63 41,59 40,58 37,58 37,59 36,60 36,63 34,65 33,65 32,64 32,63 31,62 31,60 30,59 30,52 29,51 29,38" stroke="black" stroke-width="1" /></svg>