<?xml version="1.0" encoding="utf-8" ?>
<svg baseProfile="full" height="100" version="1.1" width="100" xmlns="http://www.w3.org/2000/svg" xmlns:ev="http://www.w3.org/2001/xml-events" xmlns:xlink="http://www.w3.org/1999/xlink"><defs /><polygon fill="none" id="1" points="54,54" stroke="black" stroke-width="1" /><polygon fill="none" id="2" points="75,53 77,55 77,57 78,58 78,60 77,61 77,62 73,66 72,66 71,67 70,67 69,68 66,68 65,69 56,69 55,70 53,70 61,70 62,69 67,69 68,68 70,68 71,67 72,67 73,66 74,66 75,65 76,65 77,64 77,63 79,61 79,58 78,57 78,56" stroke="black" stroke-width="1" /><polygon fill="none" id="3" points="56,53" stroke="black" stroke-width="1" /><polygon fill="none" id="4" points="72,52 73,52" stroke="black" stroke-width="1" /><polygon fill="none" id="5" points="59,52 60,52" stroke="black" stroke-width="1" /><polygon fill="none" id="6" points="62,51 70,51" stroke="black" stroke-width="1" /><polygon fill="none" id="7" points="52,32 52,37 51,38 51,40 50,41 47,41 46,40 37,40 37,41 49,41 50,42 50,45 49,46 49,48 48,49 48,51 47,52 47,53 46,54 46,55 45,56 45,57 44,58 45,58 46,59 48,57 47,56 47,52 48,51 48,50 50,48 50,46 51,45 51,42 52,41 57,41 58,40 68,40 69,39 71,39 66,39 65,40 53,40 52,39 52,37 53,36 53,34 54,33 54,32" stroke="black" stroke-width="1" /></svg>