<?xml version="1.0" encoding="utf-8" ?>
<svg baseProfile="full" height="100" version="1.1" width="100" xmlns="http://www.w3.org/2000/svg" xmlns:ev="http://www.w3.org/2001/xml-events" xmlns:xlink="http://www.w3.org/1999/xlink"><defs /><polygon fill="none" id="1" points="43,40 42,41 37,41 36,42 33,42 32,43 29,43 28,44 26,44 27,45 27,46 28,47 29,47 30,46 32,46 33,45 35,45 36,44 38,44 39,43 43,43 44,42 51,42 52,43 53,43 57,47 57,48 58,49 58,54 57,55 57,57 52,62 51,62 50,63 49,63 48,64 46,64 45,65 41,65 40,66 36,66 37,67 37,68 38,69 40,69 41,68 46,68 47,67 49,67 50,66 51,66 52,65 53,65 54,64 55,64 58,61 58,60 59,59 59,58 60,57 60,54 61,53 61,51 60,50 60,47 59,46 59,45 55,41 53,41 52,40" stroke="black" stroke-width="1" /></svg>