<?xml version="1.0" encoding="utf-8" ?>
<svg baseProfile="full" height="100" version="1.1" width="100" xmlns="http://www.w3.org/2000/svg" xmlns:ev="http://www.w3.org/2001/xml-events" xmlns:xlink="http://www.w3.org/1999/xlink"><defs /><polygon fill="none" id="1" points="47,40 46,41 42,41 41,42 37,42 36,43 33,43 32,44 29,44 30,45 30,46 31,47 33,47 34,46 36,46 37,45 39,45 40,44 43,44 44,43 48,43 49,42 57,42 58,43 59,43 60,44 61,44 62,45 62,46 64,48 64,55 63,56 63,57 58,62 57,62 56,63 55,63 54,64 51,64 50,65 45,65 44,66 40,66 41,67 41,68 42,69 45,69 46,68 51,68 52,67 54,67 55,66 57,66 58,65 59,65 60,64 61,64 66,59 66,58 67,57 67,47 65,45 65,44 64,43 63,43 61,41 59,41 58,40" stroke="black" stroke-width="1" /></svg>