<?xml version="1.0" encoding="utf-8" ?>
<svg baseProfile="full" height="100" version="1.1" width="100" xmlns="http://www.w3.org/2000/svg" xmlns:ev="http://www.w3.org/2001/xml-events" xmlns:xlink="http://www.w3.org/1999/xlink"><defs /><polygon fill="none" id="1" points="38,40 37,41 33,41 32,42 29,42 28,43 26,43 25,44 24,44 24,46 25,47 26,47 27,46 28,46 29,45 31,45 32,44 34,44 35,43 38,43 39,42 45,42 46,43 47,43 50,46 50,47 51,48 51,56 50,57 50,58 45,63 44,63 43,64 41,64 40,65 36,65 35,66 32,66 33,67 33,68 34,69 36,69 37,68 40,68 41,67 43,67 44,66 45,66 46,65 47,65 49,63 50,63 50,62 52,60 52,59 53,58 53,56 54,55 54,49 53,48 53,46 52,45 52,44 50,42 49,42 48,41 47,41 46,40" stroke="black" stroke-width="1" /></svg>