<?xml version="1.0" encoding="utf-8" ?>
<svg baseProfile="full" height="100" version="1.1" width="100" xmlns="http://www.w3.org/2000/svg" xmlns:ev="http://www.w3.org/2001/xml-events" xmlns:xlink="http://www.w3.org/1999/xlink"><defs /><polygon fill="none" id="1" points="52,40 51,41 46,41 45,42 41,42 40,43 36,43 35,44 32,44 33,45 33,46 34,47 36,47 37,46 39,46 40,45 43,45 44,44 47,44 48,43 53,43 54,42 63,42 64,43 65,43 66,44 67,44 69,46 69,47 70,48 70,50 71,51 71,53 70,54 70,56 68,58 68,59 67,60 66,60 64,62 63,62 62,63 60,63 59,64 56,64 55,65 50,65 49,66 44,66 46,68 46,69 49,69 50,68 56,68 57,67 60,67 61,66 63,66 64,65 65,65 66,64 67,64 69,62 70,62 72,60 72,59 73,58 73,57 74,56 74,48 73,47 73,46 69,42 68,42 67,41 65,41 64,40" stroke="black" stroke-width="1" /></svg>