<?xml version="1.0" encoding="utf-8" ?>
<svg baseProfile="full" height="100" version="1.1" width="100" xmlns="http://www.w3.org/2000/svg" xmlns:ev="http://www.w3.org/2001/xml-events" xmlns:xlink="http://www.w3.org/1999/xlink"><defs /><polygon fill="none" id="1" points="52,40 51,41 50,41 50,44 52,46 52,47 54,49 54,50 55,51 55,52 56,53 56,54 57,55 57,57 58,58 58,61 59,62 62,62 63,61 64,61 64,58 63,57 63,55 62,54 62,53 61,52 61,51 60,50 60,49 59,48 59,47 58,46 58,45 57,44 57,43 55,41 55,40" stroke="black" stroke-width="1" /><polygon fill="none" id="2" points="28,38 28,54 29,55 29,61 30,62 30,65 31,66 31,67 32,68 32,69 34,71 35,71 36,72 40,72 41,71 42,71 42,70 44,68 44,67 45,66 45,65 46,64 46,59 45,58 41,58 41,61 40,62 40,64 38,66 36,64 36,63 35,62 35,60 34,59 34,56 33,55 33,38" stroke="black" stroke-width="1" /></svg>