<?xml version="1.0" encoding="utf-8" ?>
<svg baseProfile="full" height="100" version="1.1" width="100" xmlns="http://www.w3.org/2000/svg" xmlns:ev="http://www.w3.org/2001/xml-events" xmlns:xlink="http://www.w3.org/1999/xlink"><defs /><polygon fill="none" id="1" points="57,40 56,41 50,41 49,42 44,42 43,43 39,43 38,44 35,44 36,45 36,46 37,47 39,47 40,46 43,46 44,45 47,45 48,44 51,44 52,43 58,43 59,42 68,42 69,43 71,43 72,44 73,44 76,47 76,48 77,49 77,55 76,56 76,57 73,60 72,60 70,62 69,62 68,63 66,63 65,64 62,64 61,65 54,65 53,66 48,66 50,68 50,69 54,69 55,68 61,68 62,67 65,67 66,66 69,66 70,65 71,65 72,64 73,64 74,63 75,63 80,58 80,57 81,56 81,48 79,46 79,45 77,43 76,43 75,42 74,42 73,41 71,41 70,40" stroke="black" stroke-width="1" /></svg>