<?xml version="1.0" encoding="utf-8" ?>
<svg baseProfile="full" height="100" version="1.1" width="100" xmlns="http://www.w3.org/2000/svg" xmlns:ev="http://www.w3.org/2001/xml-events" xmlns:xlink="http://www.w3.org/1999/xlink"><defs /><polygon fill="none" id="1" points="38,40 37,41 33,41 32,42 29,42 28,43 26,43 25,44 24,44 24,47 25,48 27,48 28,47 29,47 30,46 32,46 33,45 35,45 36,44 39,44 40,43 45,43 46,44 47,44 50,47 50,48 51,49 51,56 50,57 50,58 45,63 44,63 43,64 41,64 40,65 36,65 35,66 32,66 32,67 33,68 33,69 34,70 37,70 38,69 41,69 42,68 44,68 45,67 46,67 47,66 48,66 50,64 51,64 51,63 53,61 53,60 54,59 54,57 55,56 55,49 54,48 54,46 53,45 53,44 51,42 50,42 49,41 48,41 47,40" stroke="black" stroke-width="1" /></svg>