<?xml version="1.0" encoding="utf-8" ?>
<svg baseProfile="full" height="100" version="1.1" width="100" xmlns="http://www.w3.org/2000/svg" xmlns:ev="http://www.w3.org/2001/xml-events" xmlns:xlink="http://www.w3.org/1999/xlink"><defs /><polygon fill="none" id="1" points="43,40 42,41 37,41 36,42 33,42 32,43 29,43 28,44 26,44 26,45 27,46 27,47 28,48 30,48 31,47 33,47 34,46 36,46 37,45 39,45 40,44 44,44 45,43 51,43 52,44 53,44 57,48 57,49 58,50 58,54 57,55 57,57 52,62 51,62 50,63 49,63 48,64 46,64 45,65 41,65 40,66 36,66 36,67 37,68 37,69 38,70 41,70 42,69 47,69 48,68 50,68 51,67 52,67 53,66 54,66 55,65 56,65 59,62 59,61 60,60 60,59 61,58 61,55 62,54 62,51 61,50 61,47 60,46 60,45 56,41 54,41 53,40" stroke="black" stroke-width="1" /></svg>