<?xml version="1.0" encoding="utf-8" ?>
<svg baseProfile="full" height="100" version="1.1" width="100" xmlns="http://www.w3.org/2000/svg" xmlns:ev="http://www.w3.org/2001/xml-events" xmlns:xlink="http://www.w3.org/1999/xlink"><defs /><polygon fill="none" id="1" points="47,40 46,41 42,41 41,42 37,42 36,43 33,43 32,44 29,44 29,45 30,46 30,47 31,48 34,48 35,47 37,47 38,46 40,46 41,45 44,45 45,44 49,44 50,43 57,43 58,44 59,44 60,45 61,45 62,46 62,47 64,49 64,55 63,56 63,57 58,62 57,62 56,63 55,63 54,64 51,64 50,65 45,65 44,66 40,66 40,67 41,68 41,69 42,70 46,70 47,69 52,69 53,68 55,68 56,67 58,67 59,66 60,66 61,65 62,65 67,60 67,59 68,58 68,47 66,45 66,44 65,43 64,43 62,41 60,41 59,40" stroke="black" stroke-width="1" /></svg>