<?xml version="1.0" encoding="utf-8" ?>
<svg baseProfile="full" height="100" version="1.1" width="100" xmlns="http://www.w3.org/2000/svg" xmlns:ev="http://www.w3.org/2001/xml-events" xmlns:xlink="http://www.w3.org/1999/xlink"><defs /><polygon fill="none" id="1" points="52,40 51,41 46,41 45,42 41,42 40,43 36,43 35,44 32,44 32,45 33,46 33,47 34,48 37,48 38,47 40,47 41,46 44,46 45,45 48,45 49,44 54,44 55,43 63,43 64,44 65,44 66,45 67,45 69,47 69,48 70,49 70,51 71,52 71,53 70,54 70,56 68,58 68,59 67,60 66,60 64,62 63,62 62,63 60,63 59,64 56,64 55,65 50,65 49,66 44,66 44,67 46,69 46,70 50,70 51,69 57,69 58,68 61,68 62,67 64,67 65,66 66,66 67,65 68,65 70,63 71,63 73,61 73,60 74,59 74,58 75,57 75,48 74,47 74,46 70,42 69,42 68,41 66,41 65,40" stroke="black" stroke-width="1" /></svg>