<?xml version="1.0" encoding="utf-8" ?>
<svg baseProfile="full" height="100" version="1.1" width="100" xmlns="http://www.w3.org/2000/svg" xmlns:ev="http://www.w3.org/2001/xml-events" xmlns:xlink="http://www.w3.org/1999/xlink"><defs /><polygon fill="none" id="1" points="57,40 56,41 50,41 49,42 44,42 43,43 39,43 38,44 35,44 35,45 36,46 36,47 37,48 40,48 41,47 44,47 45,46 48,46 49,45 52,45 53,44 59,44 60,43 68,43 69,44 71,44 72,45 73,45 76,48 76,49 77,50 77,55 76,56 76,57 73,60 72,60 70,62 69,62 68,63 66,63 65,64 62,64 61,65 54,65 53,66 48,66 48,67 50,69 50,70 55,70 56,69 62,69 63,68 66,68 67,67 70,67 71,66 72,66 73,65 74,65 75,64 76,64 81,59 81,58 82,57 82,48 80,46 80,45 78,43 77,43 76,42 75,42 74,41 72,41 71,40" stroke="black" stroke-width="1" /></svg>