<?xml version="1.0" encoding="utf-8" ?>
<svg baseProfile="full" height="100" version="1.1" width="100" xmlns="http://www.w3.org/2000/svg" xmlns:ev="http://www.w3.org/2001/xml-events" xmlns:xlink="http://www.w3.org/1999/xlink"><defs /><polygon fill="none" id="1" points="39,41 38,42 34,42 33,43 30,43 29,44 27,44 26,45 25,45 25,46 26,47 27,46 28,46 29,45 31,45 32,44 34,44 35,43 38,43 39,42 46,42 47,43 48,43 51,46 51,47 52,48 52,57 51,58 51,59 46,64 45,64 44,65 42,65 41,66 37,66 36,67 34,67 34,68 35,69 36,69 37,68 40,68 41,67 43,67 44,66 45,66 46,65 47,65 49,63 50,63 50,62 52,60 52,59 53,58 53,56 54,55 54,50 53,49 53,47 52,46 52,45 50,43 49,43 48,42 47,42 46,41" stroke="black" stroke-width="1" /></svg>