<?xml version="1.0" encoding="utf-8" ?>
<svg baseProfile="full" height="100" version="1.1" width="100" xmlns="http://www.w3.org/2000/svg" xmlns:ev="http://www.w3.org/2001/xml-events" xmlns:xlink="http://www.w3.org/1999/xlink"><defs /><polygon fill="none" id="1" points="44,41 43,42 38,42 37,43 34,43 33,44 30,44 29,45 28,45 28,46 29,47 30,46 32,46 33,45 35,45 36,44 38,44 39,43 43,43 44,42 52,42 53,43 54,43 58,47 58,48 59,49 59,55 58,56 58,58 53,63 52,63 51,64 50,64 49,65 47,65 46,66 42,66 41,67 38,67 38,68 39,69 40,69 41,68 46,68 47,67 49,67 50,66 51,66 52,65 53,65 54,64 55,64 58,61 58,60 59,59 59,58 60,57 60,54 61,53 61,52 60,51 60,48 59,47 59,46 55,42 53,42 52,41" stroke="black" stroke-width="1" /></svg>