<?xml version="1.0" encoding="utf-8" ?>
<svg baseProfile="full" height="100" version="1.1" width="100" xmlns="http://www.w3.org/2000/svg" xmlns:ev="http://www.w3.org/2001/xml-events" xmlns:xlink="http://www.w3.org/1999/xlink"><defs /><polygon fill="none" id="1" points="48,41 47,42 43,42 42,43 38,43 37,44 34,44 33,45 31,45 31,46 32,47 33,47 34,46 36,46 37,45 39,45 40,44 43,44 44,43 48,43 49,42 58,42 59,43 60,43 61,44 62,44 63,45 63,46 65,48 65,56 64,57 64,58 59,63 58,63 57,64 56,64 55,65 52,65 51,66 46,66 45,67 42,67 42,68 43,69 45,69 46,68 51,68 52,67 54,67 55,66 57,66 58,65 59,65 60,64 61,64 66,59 66,58 67,57 67,48 65,46 65,45 64,44 63,44 61,42 59,42 58,41" stroke="black" stroke-width="1" /></svg>