<?xml version="1.0" encoding="utf-8" ?>
<svg baseProfile="full" height="100" version="1.1" width="100" xmlns="http://www.w3.org/2000/svg" xmlns:ev="http://www.w3.org/2001/xml-events" xmlns:xlink="http://www.w3.org/1999/xlink"><defs /><polygon fill="none" id="1" points="53,41 52,42 47,42 46,43 42,43 41,44 37,44 36,45 34,45 34,46 35,47 36,47 37,46 39,46 40,45 43,45 44,44 47,44 48,43 53,43 54,42 64,42 65,43 66,43 67,44 68,44 70,46 70,47 71,48 71,50 72,51 72,54 71,55 71,57 69,59 69,60 68,61 67,61 65,63 64,63 63,64 61,64 60,65 57,65 56,66 51,66 50,67 46,67 47,68 47,69 49,69 50,68 56,68 57,67 60,67 61,66 63,66 64,65 65,65 66,64 67,64 69,62 70,62 72,60 72,59 73,58 73,57 74,56 74,49 73,48 73,47 69,43 68,43 67,42 65,42 64,41" stroke="black" stroke-width="1" /></svg>