<?xml version="1.0" encoding="utf-8" ?>
<svg baseProfile="full" height="100" version="1.1" width="100" xmlns="http://www.w3.org/2000/svg" xmlns:ev="http://www.w3.org/2001/xml-events" xmlns:xlink="http://www.w3.org/1999/xlink"><defs /><polygon fill="none" id="1" points="58,40 57,41 56,41 56,44 58,46 58,47 60,49 60,50 62,52 62,53 63,54 63,56 64,57 64,58 65,59 65,61 66,62 69,62 70,61 71,61 71,58 70,57 70,56 69,55 69,53 68,52 68,51 67,50 67,49 65,47 65,46 64,45 64,44 61,41 61,40" stroke="black" stroke-width="1" /><polygon fill="none" id="2" points="31,38 31,52 32,53 32,59 33,60 33,63 34,64 34,66 36,68 36,69 38,71 39,71 40,72 45,72 49,68 49,67 50,66 50,65 51,64 51,59 50,59 49,58 46,58 46,61 45,62 45,63 42,66 40,64 40,63 39,62 39,61 38,60 38,57 37,56 37,50 36,49 36,38" stroke="black" stroke-width="1" /></svg>