<?xml version="1.0" encoding="utf-8" ?>
<svg baseProfile="full" height="100" version="1.1" width="100" xmlns="http://www.w3.org/2000/svg" xmlns:ev="http://www.w3.org/2001/xml-events" xmlns:xlink="http://www.w3.org/1999/xlink"><defs /><polygon fill="none" id="1" points="58,41 57,42 51,42 50,43 45,43 44,44 40,44 39,45 37,45 37,46 38,47 39,47 40,46 43,46 44,45 47,45 48,44 51,44 52,43 58,43 59,42 69,42 70,43 72,43 73,44 74,44 77,47 77,48 78,49 78,56 77,57 77,58 74,61 73,61 71,63 70,63 69,64 67,64 66,65 63,65 62,66 55,66 54,67 50,67 51,68 51,69 54,69 55,68 61,68 62,67 65,67 66,66 69,66 70,65 71,65 72,64 73,64 74,63 75,63 80,58 80,57 81,56 81,49 79,47 79,46 77,44 76,44 75,43 74,43 73,42 71,42 70,41" stroke="black" stroke-width="1" /></svg>