<?xml version="1.0" encoding="utf-8" ?>
<svg baseProfile="full" height="100" version="1.1" width="100" xmlns="http://www.w3.org/2000/svg" xmlns:ev="http://www.w3.org/2001/xml-events" xmlns:xlink="http://www.w3.org/1999/xlink"><defs /><polygon fill="none" id="1" points="37,39 36,40 32,40 31,41 28,41 27,42 25,42 24,43 23,43 23,47 24,48 27,48 28,47 29,47 30,46 32,46 33,45 35,45 36,44 39,44 40,43 44,43 45,44 46,44 49,47 49,48 50,49 50,55 49,56 49,57 44,62 43,62 42,63 40,63 39,64 35,64 34,65 31,65 31,67 32,68 32,69 33,70 37,70 38,69 41,69 42,68 44,68 45,67 46,67 47,66 48,66 50,64 51,64 51,63 53,61 53,60 54,59 54,57 55,56 55,48 54,47 54,45 53,44 53,43 51,41 50,41 49,40 48,40 47,39" stroke="black" stroke-width="1" /></svg>