<?xml version="1.0" encoding="utf-8" ?>
<svg baseProfile="full" height="100" version="1.1" width="100" xmlns="http://www.w3.org/2000/svg" xmlns:ev="http://www.w3.org/2001/xml-events" xmlns:xlink="http://www.w3.org/1999/xlink"><defs /><polygon fill="none" id="1" points="42,39 41,40 36,40 35,41 32,41 31,42 28,42 27,43 25,43 25,45 26,46 26,47 27,48 30,48 31,47 33,47 34,46 36,46 37,45 39,45 40,44 44,44 45,43 50,43 51,44 52,44 56,48 56,49 57,50 57,53 56,54 56,56 51,61 50,61 49,62 48,62 47,63 45,63 44,64 40,64 39,65 35,65 35,67 36,68 36,69 37,70 41,70 42,69 47,69 48,68 50,68 51,67 52,67 53,66 54,66 55,65 56,65 59,62 59,61 60,60 60,59 61,58 61,55 62,54 62,50 61,49 61,46 60,45 60,44 56,40 54,40 53,39" stroke="black" stroke-width="1" /></svg>