<?xml version="1.0" encoding="utf-8" ?>
<svg baseProfile="full" height="100" version="1.1" width="100" xmlns="http://www.w3.org/2000/svg" xmlns:ev="http://www.w3.org/2001/xml-events" xmlns:xlink="http://www.w3.org/1999/xlink"><defs /><polygon fill="none" id="1" points="46,39 45,40 41,40 40,41 36,41 35,42 32,42 31,43 28,43 28,45 29,46 29,47 30,48 34,48 35,47 37,47 38,46 40,46 41,45 44,45 45,44 49,44 50,43 56,43 57,44 58,44 59,45 60,45 61,46 61,47 63,49 63,54 62,55 62,56 57,61 56,61 55,62 54,62 53,63 50,63 49,64 44,64 43,65 39,65 39,67 40,68 40,69 41,70 46,70 47,69 52,69 53,68 55,68 56,67 58,67 59,66 60,66 61,65 62,65 67,60 67,59 68,58 68,46 66,44 66,43 65,42 64,42 62,40 60,40 59,39" stroke="black" stroke-width="1" /></svg>