<?xml version="1.0" encoding="utf-8" ?>
<svg baseProfile="full" height="100" version="1.1" width="100" xmlns="http://www.w3.org/2000/svg" xmlns:ev="http://www.w3.org/2001/xml-events" xmlns:xlink="http://www.w3.org/1999/xlink"><defs /><polygon fill="none" id="1" points="51,39 50,40 45,40 44,41 40,41 39,42 35,42 34,43 31,43 31,45 32,46 32,47 33,48 37,48 38,47 40,47 41,46 44,46 45,45 48,45 49,44 54,44 55,43 62,43 63,44 64,44 65,45 66,45 68,47 68,48 69,49 69,51 70,52 69,53 69,55 67,57 67,58 66,59 65,59 63,61 62,61 61,62 59,62 58,63 55,63 54,64 49,64 48,65 43,65 43,67 45,69 45,70 50,70 51,69 57,69 58,68 61,68 62,67 64,67 65,66 66,66 67,65 68,65 70,63 71,63 73,61 73,60 74,59 74,58 75,57 75,47 74,46 74,45 70,41 69,41 68,40 66,40 65,39" stroke="black" stroke-width="1" /></svg>