<?xml version="1.0" encoding="utf-8" ?>
<svg baseProfile="full" height="100" version="1.1" width="100" xmlns="http://www.w3.org/2000/svg" xmlns:ev="http://www.w3.org/2001/xml-events" xmlns:xlink="http://www.w3.org/1999/xlink"><defs /><polygon fill="none" id="1" points="56,39 55,40 49,40 48,41 43,41 42,42 38,42 37,43 34,43 34,45 35,46 35,47 36,48 40,48 41,47 44,47 45,46 48,46 49,45 52,45 53,44 59,44 60,43 67,43 68,44 70,44 71,45 72,45 75,48 75,49 76,50 76,54 75,55 75,56 72,59 71,59 69,61 68,61 67,62 65,62 64,63 61,63 60,64 53,64 52,65 47,65 47,67 49,69 49,70 55,70 56,69 62,69 63,68 66,68 67,67 70,67 71,66 72,66 73,65 74,65 75,64 76,64 81,59 81,58 82,57 82,47 80,45 80,44 78,42 77,42 76,41 75,41 74,40 72,40 71,39" stroke="black" stroke-width="1" /></svg>