<?xml version="1.0" encoding="utf-8" ?>
<svg baseProfile="full" height="100" version="1.1" width="100" xmlns="http://www.w3.org/2000/svg" xmlns:ev="http://www.w3.org/2001/xml-events" xmlns:xlink="http://www.w3.org/1999/xlink"><defs /><polygon fill="none" id="1" points="49,43 51,45 51,46 52,47 52,57 51,58 51,59 46,64 45,64 44,65 42,65 41,66 37,66 36,67 34,67 35,68 36,67 39,67 40,66 42,66 43,65 44,65 45,64 46,64 48,62 49,62 49,61 51,59 51,58 52,57 52,55 53,54 53,50 52,49 52,47 51,46 51,45" stroke="black" stroke-width="1" /><polygon fill="none" id="2" points="47,42" stroke="black" stroke-width="1" /><polygon fill="none" id="3" points="34,42 33,43 30,43 29,44 27,44 26,45 25,45 27,45 28,44 30,44 31,43 33,43 34,42 37,42" stroke="black" stroke-width="1" /><polygon fill="none" id="4" points="39,41 45,41" stroke="black" stroke-width="1" /></svg>