<?xml version="1.0" encoding="utf-8" ?>
<svg baseProfile="full" height="100" version="1.1" width="100" xmlns="http://www.w3.org/2000/svg" xmlns:ev="http://www.w3.org/2001/xml-events" xmlns:xlink="http://www.w3.org/1999/xlink"><defs /><polygon fill="none" id="1" points="53,42 54,42 58,46 58,47 59,48 59,55 58,56 58,58 53,63 52,63 51,64 50,64 49,65 47,65 46,66 42,66 41,67 38,67 39,68 40,67 45,67 46,66 48,66 49,65 50,65 51,64 52,64 53,63 54,63 57,60 57,59 58,58 58,57 59,56 59,53 60,52 59,51 59,48 58,47 58,46 54,42" stroke="black" stroke-width="1" /><polygon fill="none" id="2" points="38,42 37,43 34,43 33,44 30,44 29,45 28,45 31,45 32,44 34,44 35,43 37,43 38,42 42,42" stroke="black" stroke-width="1" /><polygon fill="none" id="3" points="44,41 51,41" stroke="black" stroke-width="1" /></svg>