<?xml version="1.0" encoding="utf-8" ?>
<svg baseProfile="full" height="100" version="1.1" width="100" xmlns="http://www.w3.org/2000/svg" xmlns:ev="http://www.w3.org/2001/xml-events" xmlns:xlink="http://www.w3.org/1999/xlink"><defs /><polygon fill="none" id="1" points="63,44 63,45 65,47 65,56 64,57 64,58 59,63 58,63 57,64 56,64 55,65 52,65 51,66 46,66 45,67 42,67 43,68 44,68 45,67 50,67 51,66 53,66 54,65 56,65 57,64 58,64 59,63 60,63 65,58 65,57 66,56 66,48 64,46 64,45" stroke="black" stroke-width="1" /><polygon fill="none" id="2" points="59,42 60,42 61,43 60,42" stroke="black" stroke-width="1" /><polygon fill="none" id="3" points="48,41 47,42 43,42 42,43 38,43 37,44 34,44 33,45 31,45 32,46 33,45 35,45 36,44 38,44 39,43 42,43 43,42 47,42 48,41 57,41" stroke="black" stroke-width="1" /></svg>