<?xml version="1.0" encoding="utf-8" ?>
<svg baseProfile="full" height="100" version="1.1" width="100" xmlns="http://www.w3.org/2000/svg" xmlns:ev="http://www.w3.org/2001/xml-events" xmlns:xlink="http://www.w3.org/1999/xlink"><defs /><polygon fill="none" id="1" points="65,42 66,42 67,43 68,43 70,45 70,46 71,47 71,49 72,50 72,54 71,55 71,57 69,59 69,60 68,61 67,61 65,63 64,63 63,64 61,64 60,65 57,65 56,66 51,66 50,67 47,67 47,68 48,68 49,67 55,67 56,66 59,66 60,65 62,65 63,64 64,64 65,63 66,63 68,61 69,61 71,59 71,58 72,57 72,56 73,55 73,49 72,48 72,47 68,43 67,43 66,42" stroke="black" stroke-width="1" /><polygon fill="none" id="2" points="53,41 52,42 47,42 46,43 42,43 41,44 37,44 36,45 34,45 35,46 36,45 38,45 39,44 42,44 43,43 46,43 47,42 52,42 53,41 63,41" stroke="black" stroke-width="1" /></svg>