<?xml version="1.0" encoding="utf-8" ?>
<svg baseProfile="full" height="100" version="1.1" width="100" xmlns="http://www.w3.org/2000/svg" xmlns:ev="http://www.w3.org/2001/xml-events" xmlns:xlink="http://www.w3.org/1999/xlink"><defs /><polygon fill="none" id="1" points="64,40 63,41 61,41 61,44 62,44 64,46 64,47 66,49 66,50 68,52 68,53 69,54 69,55 70,56 70,57 71,58 71,59 72,60 72,62 76,62 77,61 78,61 78,58 77,57 77,56 76,55 76,53 74,51 74,50 73,49 73,48 71,46 71,45 67,41 67,40" stroke="black" stroke-width="1" /><polygon fill="none" id="2" points="34,38 34,51 35,52 35,58 36,59 36,62 37,63 37,64 38,65 38,66 39,67 39,68 42,71 43,71 44,72 49,72 50,71 51,71 54,68 54,67 55,66 55,65 56,64 56,59 55,59 54,58 51,58 51,60 50,61 50,62 49,63 49,64 47,66 46,66 44,64 44,63 43,62 43,61 42,60 42,58 41,57 41,52 40,51 40,38" stroke="black" stroke-width="1" /></svg>