<?xml version="1.0" encoding="utf-8" ?>
<svg baseProfile="full" height="100" version="1.1" width="100" xmlns="http://www.w3.org/2000/svg" xmlns:ev="http://www.w3.org/2001/xml-events" xmlns:xlink="http://www.w3.org/1999/xlink"><defs /><polygon fill="none" id="1" points="58,41 57,42 51,42 50,43 45,43 44,44 40,44 39,45 37,45 38,46 39,45 42,45 43,44 46,44 47,43 50,43 51,42 57,42 58,41 69,41 70,42 72,42 73,43 74,43 77,46 77,47 78,48 78,56 77,57 77,58 74,61 73,61 71,63 70,63 69,64 67,64 66,65 63,65 62,66 55,66 54,67 51,67 51,68 53,68 54,67 60,67 61,66 64,66 65,65 68,65 69,64 70,64 71,63 72,63 73,62 74,62 79,57 79,56 80,55 80,49 78,47 78,46 76,44 75,44 74,43 73,43 72,42 70,42 69,41" stroke="black" stroke-width="1" /></svg>