<?xml version="1.0" encoding="utf-8" ?>
<svg baseProfile="full" height="100" version="1.1" width="100" xmlns="http://www.w3.org/2000/svg" xmlns:ev="http://www.w3.org/2001/xml-events" xmlns:xlink="http://www.w3.org/1999/xlink"><defs /><polygon fill="none" id="1" points="79,35 78,36 66,36 65,37 54,37 53,38 44,38 43,39 35,39 35,40 36,41 36,42 41,42 42,41 49,41 50,40 57,40 58,39 63,39 64,40 63,41 62,41 61,42 60,42 57,45 56,45 54,47 54,48 53,49 53,50 52,51 52,54 51,55 51,57 52,58 52,61 53,62 53,63 57,67 58,67 59,68 60,68 61,69 64,69 65,70 69,70 70,71 75,71 75,68 73,68 72,67 66,67 65,66 63,66 62,65 61,65 60,64 59,64 57,62 57,61 56,60 56,59 55,58 55,53 56,52 56,51 57,50 57,49 63,43 64,43 66,41 67,41 68,40 71,40 72,39 76,39 77,38 81,38 81,35" stroke="black" stroke-width="1" /></svg>