<?xml version="1.0" encoding="utf-8" ?>
<svg baseProfile="full" height="100" version="1.1" width="100" xmlns="http://www.w3.org/2000/svg" xmlns:ev="http://www.w3.org/2001/xml-events" xmlns:xlink="http://www.w3.org/1999/xlink"><defs /><polygon fill="none" id="1" points="65,35 64,36 55,36 54,37 45,37 44,38 37,38 36,39 30,39 30,42 34,42 35,41 41,41 42,40 47,40 48,39 52,39 53,40 51,42 50,42 45,47 45,48 44,49 44,51 43,52 43,61 44,62 44,63 49,68 50,68 51,69 53,69 54,70 58,70 59,71 63,71 62,70 62,68 61,68 60,67 55,67 54,66 52,66 50,64 49,64 48,63 48,62 47,61 47,60 46,59 46,52 47,51 47,49 55,41 56,41 57,40 59,40 60,39 63,39 64,38 67,38 67,35" stroke="black" stroke-width="1" /></svg>