<?xml version="1.0" encoding="utf-8" ?>
<svg baseProfile="full" height="100" version="1.1" width="100" xmlns="http://www.w3.org/2000/svg" xmlns:ev="http://www.w3.org/2001/xml-events" xmlns:xlink="http://www.w3.org/1999/xlink"><defs /><polygon fill="none" id="1" points="69,40 68,41 67,41 67,44 72,49 72,50 75,53 75,54 76,55 76,56 77,57 77,58 78,59 78,61 79,62 83,62 84,61 85,61 85,58 84,57 84,56 83,55 83,54 82,53 82,52 80,50 80,49 78,47 78,46 73,41 73,40" stroke="black" stroke-width="1" /><polygon fill="none" id="2" points="37,38 37,48 38,49 38,55 39,56 39,60 40,61 40,63 41,64 41,65 42,66 42,67 46,71 47,71 48,72 54,72 56,70 57,70 58,69 58,68 60,66 60,65 61,64 61,63 62,62 62,60 61,59 60,59 59,58 56,58 55,59 55,61 54,62 54,63 51,66 50,66 48,64 48,63 47,62 47,61 46,60 46,59 45,58 45,56 44,55 44,48 43,47 43,41 44,40 44,38" stroke="black" stroke-width="1" /></svg>