<?xml version="1.0" encoding="utf-8" ?>
<svg baseProfile="full" height="100" version="1.1" width="100" xmlns="http://www.w3.org/2000/svg" xmlns:ev="http://www.w3.org/2001/xml-events" xmlns:xlink="http://www.w3.org/1999/xlink"><defs /><polygon fill="none" id="1" points="52,35 51,36 44,36 43,37 36,37 35,38 30,38 29,39 24,39 24,43 28,43 29,42 33,42 34,41 38,41 39,40 40,40 41,41 37,45 37,46 36,47 36,48 35,49 35,52 34,53 34,61 35,62 35,64 37,66 37,67 39,69 40,69 41,70 42,70 43,71 46,71 47,72 51,72 51,68 50,67 45,67 44,66 43,66 42,65 41,65 40,64 40,63 38,61 38,51 39,50 39,49 41,47 41,46 45,42 46,42 47,41 48,41 49,40 51,40 52,39 55,39 55,36 54,35" stroke="black" stroke-width="1" /></svg>