<?xml version="1.0" encoding="utf-8" ?>
<svg baseProfile="full" height="100" version="1.1" width="100" xmlns="http://www.w3.org/2000/svg" xmlns:ev="http://www.w3.org/2001/xml-events" xmlns:xlink="http://www.w3.org/1999/xlink"><defs /><polygon fill="none" id="1" points="59,35 58,36 50,36 49,37 41,37 40,38 33,38 32,39 27,39 27,43 32,43 33,42 37,42 38,41 43,41 44,40 45,40 46,41 41,46 41,47 40,48 40,50 39,51 39,62 40,63 40,65 44,69 45,69 46,70 48,70 49,71 52,71 53,72 57,72 57,68 56,67 50,67 49,66 48,66 43,61 43,59 42,58 42,54 43,53 43,51 44,50 44,49 46,47 46,46 49,43 50,43 52,41 54,41 55,40 57,40 58,39 61,39 61,35" stroke="black" stroke-width="1" /></svg>