<?xml version="1.0" encoding="utf-8" ?>
<svg baseProfile="full" height="100" version="1.1" width="100" xmlns="http://www.w3.org/2000/svg" xmlns:ev="http://www.w3.org/2001/xml-events" xmlns:xlink="http://www.w3.org/1999/xlink"><defs /><polygon fill="none" id="1" points="65,35 64,36 55,36 54,37 45,37 44,38 37,38 36,39 30,39 30,43 35,43 36,42 42,42 43,41 48,41 49,40 51,40 52,41 51,42 50,42 45,47 45,48 44,49 44,51 43,52 43,62 44,63 44,64 49,69 50,69 51,70 53,70 54,71 58,71 59,72 64,72 64,71 63,70 63,68 62,68 61,67 56,67 55,66 53,66 51,64 50,64 49,63 49,62 48,61 48,60 47,59 47,53 48,52 48,50 56,42 57,42 58,41 60,41 61,40 64,40 65,39 68,39 68,35" stroke="black" stroke-width="1" /></svg>