<?xml version="1.0" encoding="utf-8" ?>
<svg baseProfile="full" height="100" version="1.1" width="100" xmlns="http://www.w3.org/2000/svg" xmlns:ev="http://www.w3.org/2001/xml-events" xmlns:xlink="http://www.w3.org/1999/xlink"><defs /><polygon fill="none" id="1" points="72,35 71,36 61,36 60,37 50,37 49,38 41,38 40,39 32,39 32,40 33,41 33,43 39,43 40,42 46,42 47,41 53,41 54,40 56,40 57,41 56,42 55,42 49,48 49,49 48,50 48,51 47,52 47,61 48,62 48,63 49,64 49,65 51,67 52,67 54,69 55,69 56,70 58,70 59,71 63,71 64,72 70,72 70,68 69,67 61,67 60,66 58,66 56,64 55,64 54,63 54,62 52,60 52,52 53,51 53,50 60,43 61,43 62,42 63,42 64,41 66,41 67,40 70,40 71,39 75,39 75,35" stroke="black" stroke-width="1" /></svg>