<?xml version="1.0" encoding="utf-8" ?>
<svg baseProfile="full" height="100" version="1.1" width="100" xmlns="http://www.w3.org/2000/svg" xmlns:ev="http://www.w3.org/2001/xml-events" xmlns:xlink="http://www.w3.org/1999/xlink"><defs /><polygon fill="none" id="1" points="53,36 52,37 45,37 44,38 37,38 36,39 31,39 30,40 25,40 25,42 27,42 28,41 32,41 33,40 37,40 38,39 43,39 44,40 44,41 43,42 42,42 38,46 38,47 37,48 37,49 36,50 36,53 35,54 35,60 36,61 36,63 38,65 38,66 40,68 41,68 42,69 43,69 44,70 47,70 48,71 50,71 50,69 49,68 44,68 43,67 42,67 41,66 40,66 39,65 39,64 37,62 37,50 38,49 38,48 40,46 40,45 44,41 45,41 46,40 47,40 48,39 50,39 51,38 54,38 54,37" stroke="black" stroke-width="1" /></svg>