<?xml version="1.0" encoding="utf-8" ?>
<svg baseProfile="full" height="100" version="1.1" width="100" xmlns="http://www.w3.org/2000/svg" xmlns:ev="http://www.w3.org/2001/xml-events" xmlns:xlink="http://www.w3.org/1999/xlink"><defs /><polygon fill="none" id="1" points="66,36 65,37 56,37 55,38 46,38 45,39 38,39 37,40 31,40 31,42 34,42 35,41 41,41 42,40 47,40 48,39 53,39 54,40 54,41 52,43 51,43 46,48 46,49 45,50 45,52 44,53 44,61 45,62 45,63 50,68 51,68 52,69 54,69 55,70 59,70 60,71 62,71 62,69 61,69 60,68 55,68 54,67 52,67 50,65 49,65 48,64 48,63 47,62 47,61 46,60 46,52 47,51 47,49 55,41 56,41 57,40 59,40 60,39 63,39 64,38 67,38 67,36" stroke="black" stroke-width="1" /></svg>