<?xml version="1.0" encoding="utf-8" ?>
<svg baseProfile="full" height="100" version="1.1" width="100" xmlns="http://www.w3.org/2000/svg" xmlns:ev="http://www.w3.org/2001/xml-events" xmlns:xlink="http://www.w3.org/1999/xlink"><defs /><polygon fill="none" id="1" points="39,61 38,62 38,64 38,62" stroke="black" stroke-width="1" /><polygon fill="none" id="2" points="51,50 51,51 52,52 52,54 53,55 53,57 54,58 54,59 54,57 53,56 53,54 52,53 52,52 51,51" stroke="black" stroke-width="1" /><polygon fill="none" id="3" points="50,48" stroke="black" stroke-width="1" /><polygon fill="none" id="4" points="49,46" stroke="black" stroke-width="1" /><polygon fill="none" id="5" points="47,43 48,44" stroke="black" stroke-width="1" /><polygon fill="none" id="6" points="27,40 27,56 28,57 28,61 29,62 29,64 30,65 30,66 31,67 31,68 33,70 34,70 36,68 36,67 37,66 35,68 32,68 30,66 30,65 29,64 29,62 28,61 28,54 27,53" stroke="black" stroke-width="1" /></svg>