<?xml version="1.0" encoding="utf-8" ?>
<svg baseProfile="full" height="100" version="1.1" width="100" xmlns="http://www.w3.org/2000/svg" xmlns:ev="http://www.w3.org/2001/xml-events" xmlns:xlink="http://www.w3.org/1999/xlink"><defs /><polygon fill="none" id="1" points="51,34 50,35 43,35 42,36 35,36 34,37 29,37 28,38 23,38 23,43 28,43 29,42 33,42 34,41 37,41 38,42 36,44 36,45 35,46 35,47 34,48 34,51 33,52 33,61 34,62 34,64 36,66 36,67 38,69 39,69 40,70 41,70 42,71 45,71 46,72 51,72 51,67 50,66 45,66 44,65 43,65 42,64 41,64 40,63 40,62 38,60 38,51 39,50 39,49 41,47 41,46 45,42 46,42 47,41 48,41 49,40 51,40 52,39 55,39 55,35 54,34" stroke="black" stroke-width="1" /></svg>