<?xml version="1.0" encoding="utf-8" ?>
<svg baseProfile="full" height="100" version="1.1" width="100" xmlns="http://www.w3.org/2000/svg" xmlns:ev="http://www.w3.org/2001/xml-events" xmlns:xlink="http://www.w3.org/1999/xlink"><defs /><polygon fill="none" id="1" points="64,34 63,35 54,35 53,36 44,36 43,37 36,37 35,38 29,38 29,43 35,43 36,42 42,42 43,41 47,41 48,42 44,46 44,47 43,48 43,50 42,51 42,62 43,63 43,64 48,69 49,69 50,70 52,70 53,71 57,71 58,72 64,72 64,70 63,69 63,67 62,67 61,66 56,66 55,65 53,65 51,63 50,63 49,62 49,61 48,60 48,59 47,58 47,53 48,52 48,50 56,42 57,42 58,41 60,41 61,40 64,40 65,39 68,39 68,34" stroke="black" stroke-width="1" /></svg>