<?xml version="1.0" encoding="utf-8" ?>
<svg baseProfile="full" height="100" version="1.1" width="100" xmlns="http://www.w3.org/2000/svg" xmlns:ev="http://www.w3.org/2001/xml-events" xmlns:xlink="http://www.w3.org/1999/xlink"><defs /><polygon fill="none" id="1" points="78,34 77,35 65,35 64,36 53,36 52,37 43,37 42,38 34,38 34,41 35,42 35,43 42,43 43,42 50,42 51,41 57,41 58,42 56,44 55,44 53,46 53,47 52,48 52,49 51,50 51,53 50,54 50,58 51,59 51,62 52,63 52,64 56,68 57,68 58,69 59,69 60,70 63,70 64,71 68,71 69,72 76,72 76,67 74,67 73,66 67,66 66,65 64,65 63,64 62,64 61,63 60,63 58,61 58,60 57,59 57,58 56,57 56,54 57,53 57,52 58,51 58,50 64,44 65,44 67,42 68,42 69,41 72,41 73,40 77,40 78,39 82,39 82,34" stroke="black" stroke-width="1" /></svg>