<?xml version="1.0" encoding="utf-8" ?>
<svg baseProfile="full" height="100" version="1.1" width="100" xmlns="http://www.w3.org/2000/svg" xmlns:ev="http://www.w3.org/2001/xml-events" xmlns:xlink="http://www.w3.org/1999/xlink"><defs /><polygon fill="none" id="1" points="36,50 36,53 35,54 35,59 36,60 36,62 38,64 38,65 40,67 41,67 42,68 43,68 44,69 47,69 48,70 49,70 49,69 48,68 43,68 42,67 41,67 40,66 39,66 38,65 38,64 36,62" stroke="black" stroke-width="1" /><polygon fill="none" id="2" points="37,48" stroke="black" stroke-width="1" /><polygon fill="none" id="3" points="39,45 38,46" stroke="black" stroke-width="1" /><polygon fill="none" id="4" points="45,37 44,38 37,38 36,39 31,39 30,40 25,40 25,41 26,41 27,40 31,40 32,39 36,39 37,38 43,38 44,39 44,40 45,39 46,39 47,38 49,38 50,37 53,37" stroke="black" stroke-width="1" /></svg>