<?xml version="1.0" encoding="utf-8" ?>
<svg baseProfile="full" height="100" version="1.1" width="100" xmlns="http://www.w3.org/2000/svg" xmlns:ev="http://www.w3.org/2001/xml-events" xmlns:xlink="http://www.w3.org/1999/xlink"><defs /><polygon fill="none" id="1" points="51,43 46,48 46,49 45,50 45,52 44,53 44,60 45,61 45,62 50,67 51,67 52,68 54,68 55,69 59,69 60,70 61,70 61,69 60,69 59,68 54,68 53,67 51,67 49,65 48,65 47,64 47,63 46,62 46,61 45,60 45,51 46,50 46,48" stroke="black" stroke-width="1" /><polygon fill="none" id="2" points="66,36 65,37 56,37 55,38 46,38 45,39 38,39 37,40 31,40 31,41 33,41 34,40 40,40 41,39 46,39 47,38 53,38 54,39 54,40 55,40 56,39 58,39 59,38 62,38 63,37 66,37" stroke="black" stroke-width="1" /></svg>