<?xml version="1.0" encoding="utf-8" ?>
<svg baseProfile="full" height="100" version="1.1" width="100" xmlns="http://www.w3.org/2000/svg" xmlns:ev="http://www.w3.org/2001/xml-events" xmlns:xlink="http://www.w3.org/1999/xlink"><defs /><polygon fill="none" id="1" points="53,43 54,44 54,45 56,47 56,48 57,49 57,50 58,51 58,52 59,53 59,55 60,56 60,59 61,59 61,57 60,56 60,55 59,54 59,53 58,52 58,51 57,50 57,49 56,48 56,47 55,46 55,45" stroke="black" stroke-width="1" /><polygon fill="none" id="2" points="30,40 30,52 31,53 31,59 32,60 32,63 33,64 33,65 34,66 34,67 36,69 37,69 38,70 39,69 40,69 40,68 42,66 42,65 43,64 43,63 44,62 44,61 43,60 43,63 42,64 42,66 40,68 36,68 34,66 34,65 33,64 33,62 32,61 32,58 31,57 31,40" stroke="black" stroke-width="1" /></svg>