<?xml version="1.0" encoding="utf-8" ?>
<svg baseProfile="full" height="100" version="1.1" width="100" xmlns="http://www.w3.org/2000/svg" xmlns:ev="http://www.w3.org/2001/xml-events" xmlns:xlink="http://www.w3.org/1999/xlink"><defs /><polygon fill="none" id="1" points="61,43 58,46 57,46 55,48 55,49 54,50 54,51 53,52 53,55 52,56 53,57 53,60 54,61 54,62 58,66 59,66 60,67 61,67 62,68 65,68 66,69 70,69 71,70 74,70 74,69 72,69 71,68 65,68 64,67 62,67 61,66 60,66 59,65 58,65 56,63 56,62 55,61 55,60 54,59 54,52 55,51 55,50 56,49 56,48" stroke="black" stroke-width="1" /><polygon fill="none" id="2" points="63,42" stroke="black" stroke-width="1" /><polygon fill="none" id="3" points="80,36 79,37 67,37 66,38 55,38 54,39 45,39 44,40 37,40 37,41 40,41 41,40 48,40 49,39 56,39 57,38 64,38 65,39 65,40 66,40 67,39 70,39 71,38 75,38 76,37 80,37" stroke="black" stroke-width="1" /></svg>