<?xml version="1.0" encoding="utf-8" ?>
<svg baseProfile="full" height="100" version="1.1" width="100" xmlns="http://www.w3.org/2000/svg" xmlns:ev="http://www.w3.org/2001/xml-events" xmlns:xlink="http://www.w3.org/1999/xlink"><defs /><polygon fill="none" id="1" points="36,33 36,34 37,35 37,37 38,38 38,41 39,42 39,44 40,45 40,47 41,48 41,50 40,51 39,51 38,52 37,52 32,57 32,58 31,59 31,66 34,69 35,69 36,70 38,70 39,71 55,71 56,70 59,70 58,69 58,67 56,67 55,68 52,68 51,69 40,69 39,68 37,68 33,64 33,62 34,61 34,60 35,59 35,58 38,55 39,55 41,53 42,53 44,51 45,51 46,50 48,50 49,49 50,49 51,48 52,48 53,47 55,47 56,46 57,46 56,45 56,44 55,43 54,44 53,44 52,45 50,45 49,46 48,46 47,47 46,47 45,48 44,48 42,46 42,43 41,42 41,40 40,39 40,33" stroke="black" stroke-width="1" /></svg>