<?xml version="1.0" encoding="utf-8" ?>
<svg baseProfile="full" height="100" version="1.1" width="100" xmlns="http://www.w3.org/2000/svg" xmlns:ev="http://www.w3.org/2001/xml-events" xmlns:xlink="http://www.w3.org/1999/xlink"><defs /><polygon fill="none" id="1" points="44,33 45,34 45,37 46,38 46,40 47,41 47,43 48,44 48,45 49,46 49,47 50,48 50,50 49,51 48,51 47,52 46,52 45,53 44,53 38,59 38,62 37,63 38,64 38,66 40,68 41,68 42,69 43,69 44,70 47,70 48,71 67,71 68,70 72,70 72,69 71,68 71,67 69,67 68,68 63,68 62,69 49,69 48,68 45,68 41,64 41,61 42,60 42,59 45,56 46,56 48,54 49,54 50,53 51,53 52,52 53,52 54,51 56,51 57,50 58,50 59,49 61,49 62,48 64,48 65,47 68,47 69,46 70,46 68,44 68,43 67,43 66,44 64,44 63,45 62,45 61,46 59,46 58,47 56,47 55,48 53,48 52,47 52,45 51,44 51,42 50,41 50,38 49,37 49,34 48,33" stroke="black" stroke-width="1" /></svg>