<?xml version="1.0" encoding="utf-8" ?>
<svg baseProfile="full" height="100" version="1.1" width="100" xmlns="http://www.w3.org/2000/svg" xmlns:ev="http://www.w3.org/2001/xml-events" xmlns:xlink="http://www.w3.org/1999/xlink"><defs /><polygon fill="none" id="1" points="59,43 60,44 60,45 62,47 62,48 64,50 64,51 65,52 65,54 66,55 66,56 67,57 67,59 68,59 68,58 67,57 67,55 66,54 66,53 65,52 65,51 63,49 63,48 62,47 62,46" stroke="black" stroke-width="1" /><polygon fill="none" id="2" points="33,40 33,50 34,51 34,57 35,58 35,61 36,62 36,64 38,66 38,67 40,69 41,69 42,70 43,70 47,66 47,65 48,64 48,63 49,62 49,61 48,61 48,63 47,64 47,65 44,68 40,68 38,66 38,65 37,64 37,63 36,62 36,59 35,58 35,52 34,51 34,40" stroke="black" stroke-width="1" /></svg>