<?xml version="1.0" encoding="utf-8" ?>
<svg baseProfile="full" height="100" version="1.1" width="100" xmlns="http://www.w3.org/2000/svg" xmlns:ev="http://www.w3.org/2001/xml-events" xmlns:xlink="http://www.w3.org/1999/xlink"><defs /><polygon fill="none" id="1" points="48,33 49,34 49,36 50,37 50,39 51,40 51,41 52,42 52,44 53,45 53,46 54,47 54,48 55,49 55,50 54,51 52,51 51,52 50,52 49,53 48,53 46,55 45,55 42,58 42,60 41,61 41,65 45,69 47,69 48,70 52,70 53,71 73,71 74,70 78,70 78,68 77,67 75,67 74,68 69,68 68,69 54,69 53,68 50,68 49,67 48,67 45,64 45,61 46,60 46,59 49,56 50,56 51,55 52,55 53,54 54,54 55,53 56,53 57,52 58,52 59,51 61,51 62,50 64,50 65,49 67,49 68,48 70,48 71,47 74,47 75,46 76,46 75,45 75,44 74,43 73,43 72,44 70,44 69,45 67,45 66,46 64,46 63,47 62,47 61,48 58,48 57,47 57,45 56,44 56,43 55,42 55,41 54,40 54,37 53,36 53,33" stroke="black" stroke-width="1" /></svg>