<?xml version="1.0" encoding="utf-8" ?>
<svg baseProfile="full" height="100" version="1.1" width="100" xmlns="http://www.w3.org/2000/svg" xmlns:ev="http://www.w3.org/2001/xml-events" xmlns:xlink="http://www.w3.org/1999/xlink"><defs /><polygon fill="none" id="1" points="36,33 36,35 37,36 37,38 38,39 38,42 39,43 39,45 40,46 40,48 41,49 41,50 40,51 39,51 38,52 37,52 32,57 32,58 31,59 31,67 34,70 35,70 36,71 38,71 39,72 56,72 57,71 60,71 60,70 59,69 59,67 56,67 55,68 52,68 51,69 41,69 40,68 38,68 34,64 34,63 35,62 35,61 36,60 36,59 39,56 40,56 42,54 43,54 45,52 46,52 47,51 49,51 50,50 51,50 52,49 53,49 54,48 56,48 57,47 58,47 58,46 57,45 57,44 56,43 55,43 54,44 53,44 52,45 50,45 49,46 48,46 47,47 46,47 45,48 43,46 43,43 42,42 42,40 41,39 41,33" stroke="black" stroke-width="1" /></svg>