<?xml version="1.0" encoding="utf-8" ?>
<svg baseProfile="full" height="100" version="1.1" width="100" xmlns="http://www.w3.org/2000/svg" xmlns:ev="http://www.w3.org/2001/xml-events" xmlns:xlink="http://www.w3.org/1999/xlink"><defs /><polygon fill="none" id="1" points="33,34 34,35 34,38 35,39 35,43 36,44 36,46 37,47 37,48 38,49 38,50 35,53 34,53 30,57 30,58 29,59 29,61 28,62 28,64 29,65 29,67 31,69 32,69 33,70 35,70 36,71 49,71 50,70 52,70 52,69 51,68 50,69 47,69 46,70 36,70 35,69 33,69 30,66 30,60 31,59 31,58 36,53 37,53 39,51 40,51 41,50 42,50 43,49 44,49 45,48 46,48 47,47 49,47 50,46 49,45 48,45 47,46 46,46 45,47 44,47 43,48 42,48 41,49 39,49 38,48 38,47 37,46 37,43 36,42 36,38 35,37 35,34" stroke="black" stroke-width="1" /></svg>