<?xml version="1.0" encoding="utf-8" ?>
<svg baseProfile="full" height="100" version="1.1" width="100" xmlns="http://www.w3.org/2000/svg" xmlns:ev="http://www.w3.org/2001/xml-events" xmlns:xlink="http://www.w3.org/1999/xlink"><defs /><polygon fill="none" id="1" points="42,34 42,37 43,38 43,40 44,41 44,43 45,44 45,46 46,47 46,48 47,49 47,50 45,52 44,52 42,54 41,54 36,59 36,61 35,62 35,65 36,66 36,67 37,68 38,68 39,69 40,69 41,70 44,70 45,71 61,71 62,70 65,70 65,69 64,68 63,69 58,69 57,70 45,70 44,69 41,69 37,65 37,61 38,60 38,59 42,55 43,55 45,53 46,53 47,52 48,52 49,51 51,51 52,50 53,50 54,49 56,49 57,48 58,48 59,47 62,47 62,45 60,45 59,46 57,46 56,47 55,47 54,48 52,48 51,49 49,49 47,47 47,45 46,44 46,42 45,41 45,38 44,37 44,34" stroke="black" stroke-width="1" /></svg>