<?xml version="1.0" encoding="utf-8" ?>
<svg baseProfile="full" height="100" version="1.1" width="100" xmlns="http://www.w3.org/2000/svg" xmlns:ev="http://www.w3.org/2001/xml-events" xmlns:xlink="http://www.w3.org/1999/xlink"><defs /><polygon fill="none" id="1" points="46,34 46,37 47,38 47,40 48,41 48,43 49,44 49,45 50,46 50,47 51,48 51,51 50,52 49,52 48,53 47,53 46,54 45,54 39,60 39,66 41,68 42,68 43,69 44,69 45,70 48,70 49,71 67,71 68,70 72,70 71,69 71,68 70,68 69,69 64,69 63,70 49,70 48,69 45,69 41,65 41,61 42,60 42,59 45,56 46,56 48,54 49,54 50,53 51,53 52,52 53,52 54,51 56,51 57,50 58,50 59,49 61,49 62,48 64,48 65,47 68,47 69,46 68,45 68,44 67,45 65,45 64,46 63,46 62,47 60,47 59,48 57,48 56,49 53,49 52,48 52,46 51,45 51,43 50,42 50,39 49,38 49,35 48,34" stroke="black" stroke-width="1" /></svg>