<?xml version="1.0" encoding="utf-8" ?>
<svg baseProfile="full" height="100" version="1.1" width="100" xmlns="http://www.w3.org/2000/svg" xmlns:ev="http://www.w3.org/2001/xml-events" xmlns:xlink="http://www.w3.org/1999/xlink"><defs /><polygon fill="none" id="1" points="65,43 66,44 66,45 68,47 68,48 70,50 70,51 71,52 71,53 72,54 72,55 73,56 73,57 74,58 74,60 75,59 75,58 74,57 74,55 72,53 72,52 71,51 71,50 69,48 69,47" stroke="black" stroke-width="1" /><polygon fill="none" id="2" points="36,40 36,49 37,50 37,56 38,57 38,60 39,61 39,62 40,63 40,64 41,65 41,66 44,69 45,69 46,70 47,70 48,69 49,69 52,66 52,65 53,64 53,63 54,62 54,61 53,61 53,62 52,63 52,64 51,65 51,66 49,68 44,68 42,66 42,65 41,64 41,63 40,62 40,60 39,59 39,54 38,53 38,40" stroke="black" stroke-width="1" /></svg>