<?xml version="1.0" encoding="utf-8" ?>
<svg baseProfile="full" height="100" version="1.1" width="100" xmlns="http://www.w3.org/2000/svg" xmlns:ev="http://www.w3.org/2001/xml-events" xmlns:xlink="http://www.w3.org/1999/xlink"><defs /><polygon fill="none" id="1" points="50,34 50,36 51,37 51,39 52,40 52,41 53,42 53,44 54,45 54,46 55,47 55,48 56,49 56,51 55,52 53,52 52,53 51,53 50,54 49,54 47,56 46,56 43,59 43,61 42,62 42,65 46,69 48,69 49,70 53,70 54,71 73,71 74,70 78,70 78,69 77,68 76,68 75,69 70,69 69,70 54,70 53,69 50,69 49,68 48,68 45,65 45,61 46,60 46,59 49,56 50,56 51,55 52,55 53,54 54,54 55,53 56,53 57,52 58,52 59,51 61,51 62,50 64,50 65,49 67,49 68,48 70,48 71,47 74,47 75,46 75,45 74,44 73,45 71,45 70,46 68,46 67,47 65,47 64,48 63,48 62,49 58,49 57,48 57,46 56,45 56,44 55,43 55,42 54,41 54,38 53,37 53,34" stroke="black" stroke-width="1" /></svg>