<?xml version="1.0" encoding="utf-8" ?>
<svg baseProfile="full" height="100" version="1.1" width="100" xmlns="http://www.w3.org/2000/svg" xmlns:ev="http://www.w3.org/2001/xml-events" xmlns:xlink="http://www.w3.org/1999/xlink"><defs /><polygon fill="none" id="1" points="31,32 31,35 32,36 32,39 33,40 33,44 34,45 34,47 35,48 35,49 33,51 32,51 28,55 28,56 27,57 27,59 26,60 26,65 27,66 27,68 29,70 30,70 31,71 33,71 34,72 50,72 51,71 53,71 53,67 52,66 49,66 48,67 45,67 44,68 37,68 36,67 34,67 31,64 31,61 32,60 32,59 37,54 38,54 40,52 41,52 42,51 43,51 44,50 45,50 46,49 47,49 48,48 50,48 51,47 51,44 50,43 50,42 48,42 47,43 46,43 45,44 44,44 43,45 42,45 41,46 40,46 38,44 38,41 37,40 37,36 36,35 36,32" stroke="black" stroke-width="1" /></svg>