<?xml version="1.0" encoding="utf-8" ?>
<svg baseProfile="full" height="100" version="1.1" width="100" xmlns="http://www.w3.org/2000/svg" xmlns:ev="http://www.w3.org/2001/xml-events" xmlns:xlink="http://www.w3.org/1999/xlink"><defs /><polygon fill="none" id="1" points="47,32 47,34 48,35 48,37 49,38 49,40 50,41 50,42 51,43 51,45 52,46 52,47 53,48 53,49 52,50 51,50 50,51 49,51 48,52 47,52 45,54 44,54 41,57 41,59 40,60 40,66 44,70 46,70 47,71 51,71 52,72 74,72 75,71 79,71 79,67 78,66 74,66 73,67 68,67 67,68 55,68 54,67 51,67 50,66 49,66 46,63 46,62 47,61 47,60 50,57 51,57 52,56 53,56 54,55 55,55 56,54 57,54 58,53 59,53 60,52 62,52 63,51 65,51 66,50 68,50 69,49 71,49 72,48 75,48 76,47 77,47 77,45 76,44 76,43 75,42 72,42 71,43 69,43 68,44 66,44 65,45 63,45 62,46 61,46 60,47 59,47 58,46 58,44 57,43 57,42 56,41 56,40 55,39 55,36 54,35 54,32" stroke="black" stroke-width="1" /></svg>