<?xml version="1.0" encoding="utf-8" ?>
<svg baseProfile="full" height="100" version="1.1" width="100" xmlns="http://www.w3.org/2000/svg" xmlns:ev="http://www.w3.org/2001/xml-events" xmlns:xlink="http://www.w3.org/1999/xlink"><defs /><polygon fill="none" id="1" points="47,69 46,70 36,70 48,70 49,69 51,69" stroke="black" stroke-width="1" /><polygon fill="none" id="2" points="33,69 34,69" stroke="black" stroke-width="1" /><polygon fill="none" id="3" points="34,53 30,57 30,58 29,59 29,61 28,62 28,63 29,64 29,66 31,68 29,66 29,59 30,58 30,57" stroke="black" stroke-width="1" /><polygon fill="none" id="4" points="37,47" stroke="black" stroke-width="1" /><polygon fill="none" id="5" points="48,45 47,46 46,46 45,47 44,47 43,48 42,48 41,49 38,49 38,50 36,52 38,50 39,50 40,49 41,49 42,48 43,48 44,47 45,47 46,46 48,46" stroke="black" stroke-width="1" /><polygon fill="none" id="6" points="34,34 34,37 35,38 35,42 36,43 36,45 36,43 35,42 35,38 34,37" stroke="black" stroke-width="1" /></svg>