<?xml version="1.0" encoding="utf-8" ?>
<svg baseProfile="full" height="100" version="1.1" width="100" xmlns="http://www.w3.org/2000/svg" xmlns:ev="http://www.w3.org/2001/xml-events" xmlns:xlink="http://www.w3.org/1999/xlink"><defs /><polygon fill="none" id="1" points="37,69 38,69" stroke="black" stroke-width="1" /><polygon fill="none" id="2" points="57,68 56,69 53,69 52,70 40,70 54,70 55,69 57,69" stroke="black" stroke-width="1" /><polygon fill="none" id="3" points="54,45 53,46 51,46 50,47 49,47 48,48 47,48 46,49 43,49 42,48 42,51 41,52 40,52 39,53 38,53 33,58 33,59 32,60 32,65 35,68 32,65 32,61 33,60 33,59 34,58 34,57 37,54 38,54 40,52 41,52 43,50 44,50 45,49 47,49 48,48 49,48 50,47 51,47 52,46 54,46 55,45" stroke="black" stroke-width="1" /><polygon fill="none" id="4" points="38,34 38,36 39,37 39,40 40,41 40,43 41,44 41,46 41,44 40,43 40,41 39,40 39,34" stroke="black" stroke-width="1" /></svg>