<?xml version="1.0" encoding="utf-8" ?>
<svg baseProfile="full" height="100" version="1.1" width="100" xmlns="http://www.w3.org/2000/svg" xmlns:ev="http://www.w3.org/2001/xml-events" xmlns:xlink="http://www.w3.org/1999/xlink"><defs /><polygon fill="none" id="1" points="58,69 57,70 45,70 60,70 61,69 64,69" stroke="black" stroke-width="1" /><polygon fill="none" id="2" points="41,69 43,69" stroke="black" stroke-width="1" /><polygon fill="none" id="3" points="42,34 42,36 43,37 43,39 44,40 44,42 45,43 45,45 46,46 46,47 47,48 47,50 45,52 44,52 42,54 41,54 36,59 36,61 35,62 35,64 36,65 36,66 37,67 38,67 39,68 36,65 36,60 37,59 37,58 41,54 42,54 44,52 45,52 46,51 47,51 48,50 50,50 51,49 52,49 53,48 55,48 56,47 57,47 58,46 61,46 61,45 60,45 59,46 57,46 56,47 55,47 54,48 52,48 51,49 48,49 46,47 46,45 45,44 45,42 44,41 44,38 43,37 43,34" stroke="black" stroke-width="1" /></svg>