<?xml version="1.0" encoding="utf-8" ?>
<svg baseProfile="full" height="100" version="1.1" width="100" xmlns="http://www.w3.org/2000/svg" xmlns:ev="http://www.w3.org/2001/xml-events" xmlns:xlink="http://www.w3.org/1999/xlink"><defs /><polygon fill="none" id="1" points="45,69 47,69" stroke="black" stroke-width="1" /><polygon fill="none" id="2" points="70,68 69,69 64,69 63,70 49,70 66,70 67,69 70,69" stroke="black" stroke-width="1" /><polygon fill="none" id="3" points="46,34 46,36 47,37 47,39 48,40 48,42 49,43 49,44 50,45 50,46 51,47 51,51 50,52 49,52 48,53 47,53 46,54 45,54 39,60 39,65 41,67 42,67 43,68 40,65 40,60 41,59 41,58 44,55 45,55 47,53 48,53 49,52 50,52 51,51 52,51 53,50 55,50 56,49 57,49 58,48 60,48 61,47 63,47 64,46 67,46 67,45 65,45 64,46 63,46 62,47 60,47 59,48 57,48 56,49 52,49 51,48 51,46 50,45 50,43 49,42 49,39 48,38 48,35 47,34" stroke="black" stroke-width="1" /></svg>