<?xml version="1.0" encoding="utf-8" ?>
<svg baseProfile="full" height="100" version="1.1" width="100" xmlns="http://www.w3.org/2000/svg" xmlns:ev="http://www.w3.org/2001/xml-events" xmlns:xlink="http://www.w3.org/1999/xlink"><defs /><polygon fill="none" id="1" points="35,31 35,32 34,33 34,37 32,39 28,39 27,38 26,38 26,41 32,41 33,40 34,41 34,48 30,52 29,52 29,53 26,56 26,57 25,58 25,60 24,61 24,67 26,69 29,69 30,68 31,68 33,66 34,66 35,67 35,69 36,68 37,68 37,66 36,65 36,64 37,63 37,62 40,59 40,58 41,57 41,56 42,55 42,54 43,53 43,51 44,50 44,49 45,48 47,48 52,53 52,62 47,67 46,67 45,68 42,68 41,69 42,70 42,71 45,71 46,70 47,70 48,69 49,69 53,65 53,64 54,63 54,61 55,60 55,56 54,55 54,52 53,51 53,50 51,48 50,48 49,47 48,47 47,46 46,46 45,45 45,43 43,43 43,45 42,46 40,46 39,47 37,47 36,46 36,41 37,40 40,40 41,39 45,39 46,38 48,38 48,35 47,35 46,36 44,36 43,37 40,37 39,38 37,38 36,37 36,35 37,34 37,31" stroke="black" stroke-width="1" /><polygon fill="none" id="2" points="31,53 32,52 33,52 34,53 34,63 31,66 30,66 29,67 28,67 26,65 26,62 27,61 27,59 29,57 29,56 31,54" stroke="black" stroke-width="1" /><polygon fill="none" id="3" points="38,49 39,48 41,48 42,49 42,50 41,51 41,52 40,53 40,55 39,56 39,57 38,58 38,59 37,60 36,60 35,59 35,56 36,55 36,54 35,53 35,51 37,49" stroke="black" stroke-width="1" /></svg>