<?xml version="1.0" encoding="utf-8" ?>
<svg baseProfile="full" height="100" version="1.1" width="100" xmlns="http://www.w3.org/2000/svg" xmlns:ev="http://www.w3.org/2001/xml-events" xmlns:xlink="http://www.w3.org/1999/xlink"><defs /><polygon fill="none" id="1" points="71,42 70,43 74,47 74,48 77,51 77,52 78,53 78,54 79,55 79,56 80,57 80,59 81,60 82,59 82,58 81,57 81,56 80,55 80,54 78,52 78,51 76,49 76,48 71,43" stroke="black" stroke-width="1" /><polygon fill="none" id="2" points="39,40 39,46 40,47 40,53 41,54 41,58 42,59 42,61 43,62 43,63 44,64 44,65 48,69 49,69 50,70 52,70 54,68 55,68 56,67 56,66 58,64 58,63 59,62 59,61 57,61 57,63 56,64 56,65 53,68 48,68 46,66 46,65 45,64 45,63 44,62 44,61 43,60 43,58 42,57 42,50 41,49 41,40" stroke="black" stroke-width="1" /></svg>