<?xml version="1.0" encoding="utf-8" ?>
<svg baseProfile="full" height="100" version="1.1" width="100" xmlns="http://www.w3.org/2000/svg" xmlns:ev="http://www.w3.org/2001/xml-events" xmlns:xlink="http://www.w3.org/1999/xlink"><defs /><polygon fill="none" id="1" points="44,46 44,53 45,54 45,59 44,60 43,60 42,59 38,59 37,60 36,60 34,62 34,68 35,69 35,70 36,71 37,71 38,72 44,72 46,70 46,69 47,68 47,65 48,64 49,64 53,68 54,68 56,66 55,65 54,65 52,63 51,63 50,62 49,62 47,60 47,52 46,51 46,48 47,47 46,46" stroke="black" stroke-width="1" /><polygon fill="none" id="2" points="38,62 39,61 42,61 43,62 44,62 45,63 45,67 42,70 39,70 38,69 37,69 36,68 36,63 37,62" stroke="black" stroke-width="1" /><polygon fill="none" id="3" points="48,38 47,39 47,41 54,48 55,48 55,47 56,46" stroke="black" stroke-width="1" /><polygon fill="none" id="4" points="34,31 34,34 33,35 33,39 32,40 24,40 24,41 25,42 25,43 31,43 32,44 31,45 31,46 30,47 30,49 29,50 29,52 28,53 28,54 27,55 27,56 26,57 26,58 25,59 25,60 24,61 24,62 25,63 26,63 27,62 27,61 28,60 28,59 29,58 29,56 30,55 30,54 31,53 31,51 32,50 32,48 33,47 33,44 35,42 40,42 41,41 42,41 42,39 41,38 40,39 38,39 37,40 36,40 35,39 35,37 36,36 36,33 37,32 36,31" stroke="black" stroke-width="1" /></svg>