<?xml version="1.0" encoding="utf-8" ?>
<svg baseProfile="full" height="100" version="1.1" width="100" xmlns="http://www.w3.org/2000/svg" xmlns:ev="http://www.w3.org/2001/xml-events" xmlns:xlink="http://www.w3.org/1999/xlink"><defs /><polygon fill="none" id="1" points="50,46 50,58 51,59 50,60 49,60 48,59 43,59 42,60 41,60 38,63 38,67 39,68 39,69 41,71 42,71 43,72 49,72 50,71 51,71 52,70 52,69 53,68 53,65 54,64 55,64 57,66 58,66 60,68 61,68 63,66 62,65 61,65 60,64 59,64 58,63 57,63 56,62 55,62 53,60 53,55 52,54 52,46" stroke="black" stroke-width="1" /><polygon fill="none" id="2" points="43,61 48,61 49,62 50,62 51,63 51,64 50,65 50,68 48,70 44,70 43,69 42,69 40,67 40,64" stroke="black" stroke-width="1" /><polygon fill="none" id="3" points="54,38 52,40 54,42 55,42 60,47 60,48 61,48 63,46 56,39 55,39" stroke="black" stroke-width="1" /><polygon fill="none" id="4" points="38,31 38,36 37,37 37,39 36,40 28,40 28,43 34,43 35,44 35,46 34,47 34,48 33,49 33,50 32,51 32,53 31,54 31,55 30,56 30,57 28,59 28,60 27,61 27,62 28,63 30,63 30,62 31,61 31,60 32,59 32,58 33,57 33,56 34,55 34,53 35,52 35,51 36,50 36,49 37,48 37,46 38,45 38,43 39,42 45,42 46,41 47,41 47,38 46,38 45,39 43,39 42,40 40,40 39,39 39,38 40,37 40,35 41,34 41,31" stroke="black" stroke-width="1" /></svg>