<?xml version="1.0" encoding="utf-8" ?>
<svg baseProfile="full" height="100" version="1.1" width="100" xmlns="http://www.w3.org/2000/svg" xmlns:ev="http://www.w3.org/2001/xml-events" xmlns:xlink="http://www.w3.org/1999/xlink"><defs /><polygon fill="none" id="1" points="66,46 66,48 67,49 67,59 66,60 65,60 64,59 57,59 56,60 55,60 54,61 53,61 51,63 51,68 53,70 54,70 55,71 56,71 57,72 66,72 67,71 68,71 70,69 70,68 71,67 71,65 72,64 73,64 74,65 75,65 76,66 77,66 78,67 79,67 80,68 82,68 84,66 83,65 82,65 81,64 79,64 78,63 76,63 75,62 73,62 72,61 71,61 70,60 71,59 71,58 70,57 70,46" stroke="black" stroke-width="1" /><polygon fill="none" id="2" points="57,62 58,61 64,61 65,62 66,62 67,63 67,67 64,70 58,70 57,69 56,69 54,67 54,64 56,62" stroke="black" stroke-width="1" /><polygon fill="none" id="3" points="72,38 70,40 72,42 73,42 74,43 75,43 78,46 79,46 81,48 82,48 84,46 81,43 80,43 78,41 77,41 76,40 75,40 73,38" stroke="black" stroke-width="1" /><polygon fill="none" id="4" points="51,31 51,33 50,34 50,37 49,38 49,39 48,40 37,40 37,43 46,43 47,44 47,45 46,46 46,47 44,49 44,50 43,51 43,52 42,53 42,54 40,56 40,57 36,61 36,62 37,62 38,63 40,63 40,62 42,60 42,59 45,56 45,55 46,54 46,53 47,52 47,51 48,50 48,49 49,48 49,47 50,46 50,45 51,44 51,43 52,42 60,42 61,41 63,41 63,38 62,38 61,39 57,39 56,40 54,40 53,39 53,37 54,36 54,34 55,33 55,31" stroke="black" stroke-width="1" /></svg>