<?xml version="1.0" encoding="utf-8" ?>
<svg baseProfile="full" height="100" version="1.1" width="100" xmlns="http://www.w3.org/2000/svg" xmlns:ev="http://www.w3.org/2001/xml-events" xmlns:xlink="http://www.w3.org/1999/xlink"><defs /><polygon fill="none" id="1" points="55,46 55,48 56,49 56,59 55,60 54,60 53,59 47,59 46,60 45,60 43,62 43,63 42,64 42,67 43,68 43,69 45,71 47,71 48,72 55,72 56,71 57,71 58,70 58,68 59,67 59,65 60,64 61,64 62,65 63,65 65,67 66,67 67,68 68,68 70,66 69,65 68,65 67,64 66,64 65,63 64,63 63,62 61,62 59,60 59,57 58,56 58,46" stroke="black" stroke-width="1" /><polygon fill="none" id="2" points="48,61 53,61 54,62 55,62 56,63 56,67 53,70 48,70 45,67 45,64" stroke="black" stroke-width="1" /><polygon fill="none" id="3" points="60,38 58,40 60,42 61,42 67,48 68,48 70,46 65,41 64,41 61,38" stroke="black" stroke-width="1" /><polygon fill="none" id="4" points="43,31 42,32 42,36 41,37 41,39 40,40 31,40 31,43 38,43 39,44 39,45 38,46 38,48 37,49 37,50 36,51 36,52 35,53 35,54 34,55 34,56 32,58 32,59 30,61 30,62 31,63 33,63 33,62 35,60 35,59 36,58 36,57 37,56 37,55 38,54 38,53 39,52 39,51 40,50 40,49 41,48 41,46 42,45 42,44 44,42 50,42 51,41 52,41 52,38 51,39 48,39 47,40 45,40 44,39 44,37 45,36 45,33 46,32 46,31" stroke="black" stroke-width="1" /></svg>