<?xml version="1.0" encoding="utf-8" ?>
<svg baseProfile="full" height="100" version="1.1" width="100" xmlns="http://www.w3.org/2000/svg" xmlns:ev="http://www.w3.org/2001/xml-events" xmlns:xlink="http://www.w3.org/1999/xlink"><defs /><polygon fill="none" id="1" points="61,46 61,55 62,56 62,59 61,60 60,60 59,59 52,59 51,60 50,60 49,61 48,61 47,62 47,63 46,64 46,66 47,67 47,69 48,70 49,70 50,71 51,71 52,72 60,72 61,71 62,71 64,69 64,68 65,67 65,65 66,64 67,64 68,65 69,65 70,66 71,66 72,67 73,67 74,68 75,68 77,66 76,65 75,65 74,64 72,64 71,63 70,63 69,62 67,62 65,60 65,57 64,56 64,46" stroke="black" stroke-width="1" /><polygon fill="none" id="2" points="52,62 53,61 58,61 59,62 61,62 62,63 62,66 61,67 61,68 60,69 59,69 58,70 53,70 52,69 51,69 50,68 50,67 49,66 49,65 50,64 50,63 51,62" stroke="black" stroke-width="1" /><polygon fill="none" id="3" points="66,38 64,40 66,42 67,42 69,44 70,44 74,48 75,48 77,46 73,42 72,42 70,40 69,40 67,38" stroke="black" stroke-width="1" /><polygon fill="none" id="4" points="47,31 47,32 46,33 46,36 45,37 45,39 44,40 34,40 34,43 42,43 43,44 43,45 42,46 42,47 41,48 41,49 40,50 40,51 39,52 39,53 37,55 37,56 35,58 35,59 33,61 33,62 34,63 36,63 38,61 38,60 40,58 40,57 41,56 41,55 42,54 42,53 43,52 43,51 44,50 44,49 45,48 45,47 46,46 46,44 48,42 55,42 56,41 58,41 57,40 57,38 56,39 52,39 51,40 49,40 48,39 48,38 49,37 49,36 50,35 50,33 51,32 51,31" stroke="black" stroke-width="1" /></svg>