<?xml version="1.0" encoding="utf-8" ?>
<svg baseProfile="full" height="100" version="1.1" width="100" xmlns="http://www.w3.org/2000/svg" xmlns:ev="http://www.w3.org/2001/xml-events" xmlns:xlink="http://www.w3.org/1999/xlink"><defs /><polygon fill="none" id="1" points="44,46 44,54 45,55 45,59 44,60 43,59 38,59 37,60 36,60 34,62 34,69 35,70 35,71 36,72 37,72 38,73 45,73 47,71 47,70 48,69 48,66 49,65 53,69 55,69 57,67 57,66 56,65 55,65 53,63 52,63 51,62 50,62 48,60 48,52 47,51 47,49 48,48 48,47 47,46" stroke="black" stroke-width="1" /><polygon fill="none" id="2" points="39,63 40,62 42,62 43,63 44,63 45,64 45,67 42,70 40,70 39,69 38,69 37,68 37,64 38,63" stroke="black" stroke-width="1" /><polygon fill="none" id="3" points="48,38 47,39 47,42 54,49 56,49 56,48 57,47 57,46 49,38" stroke="black" stroke-width="1" /><polygon fill="none" id="4" points="34,31 34,34 33,35 33,39 32,40 24,40 24,42 25,43 25,44 30,44 31,45 31,46 30,47 30,49 29,50 29,52 28,53 28,54 27,55 27,56 26,57 26,58 25,59 25,60 24,61 24,63 25,64 27,64 28,63 28,62 29,61 29,60 30,59 30,57 31,56 31,55 32,54 32,52 33,51 33,49 34,48 34,45 36,43 41,43 42,42 43,42 43,39 42,38 41,38 40,39 38,39 37,40 36,39 36,38 37,37 37,34 38,33 38,32 37,31" stroke="black" stroke-width="1" /></svg>