<?xml version="1.0" encoding="utf-8" ?>
<svg baseProfile="full" height="100" version="1.1" width="100" xmlns="http://www.w3.org/2000/svg" xmlns:ev="http://www.w3.org/2001/xml-events" xmlns:xlink="http://www.w3.org/1999/xlink"><defs /><polygon fill="none" id="1" points="55,46 55,49 56,50 56,59 55,60 54,59 47,59 46,60 45,60 43,62 43,63 42,64 42,68 43,69 43,70 45,72 47,72 48,73 56,73 57,72 58,72 59,71 59,69 60,68 60,66 61,65 62,66 63,66 65,68 66,68 67,69 69,69 71,67 71,66 70,65 69,65 68,64 67,64 66,63 65,63 64,62 62,62 60,60 60,57 59,56 59,46" stroke="black" stroke-width="1" /><polygon fill="none" id="2" points="49,62 53,62 54,63 55,63 56,64 56,67 53,70 49,70 46,67 46,65" stroke="black" stroke-width="1" /><polygon fill="none" id="3" points="60,38 58,40 58,41 60,43 61,43 67,49 69,49 71,47 71,46 66,41 65,41 62,38" stroke="black" stroke-width="1" /><polygon fill="none" id="4" points="43,31 42,32 42,36 41,37 41,39 40,40 31,40 31,44 38,44 39,45 38,46 38,48 37,49 37,50 36,51 36,52 35,53 35,54 34,55 34,56 32,58 32,59 30,61 30,63 31,64 34,64 34,63 36,61 36,60 37,59 37,58 38,57 38,56 39,55 39,54 40,53 40,52 41,51 41,50 42,49 42,47 43,46 43,45 45,43 51,43 52,42 53,42 53,38 52,38 51,39 48,39 47,40 46,40 45,39 45,38 46,37 46,34 47,33 47,31" stroke="black" stroke-width="1" /></svg>