<?xml version="1.0" encoding="utf-8" ?>
<svg baseProfile="full" height="100" version="1.1" width="100" xmlns="http://www.w3.org/2000/svg" xmlns:ev="http://www.w3.org/2001/xml-events" xmlns:xlink="http://www.w3.org/1999/xlink"><defs /><polygon fill="none" id="1" points="61,46 61,56 62,57 62,59 61,60 60,59 52,59 51,60 50,60 49,61 48,61 47,62 47,63 46,64 46,67 47,68 47,70 48,71 49,71 50,72 51,72 52,73 61,73 62,72 63,72 65,70 65,69 66,68 66,66 67,65 68,66 69,66 70,67 71,67 72,68 73,68 74,69 76,69 78,67 78,66 77,65 76,65 75,64 73,64 72,63 71,63 70,62 68,62 66,60 66,57 65,56 65,46" stroke="black" stroke-width="1" /><polygon fill="none" id="2" points="53,63 54,62 58,62 59,63 61,63 62,64 62,66 61,67 61,68 60,69 59,69 58,70 54,70 53,69 52,69 51,68 51,67 50,66 51,65 51,64 52,63" stroke="black" stroke-width="1" /><polygon fill="none" id="3" points="66,38 64,40 64,41 66,43 67,43 69,45 70,45 74,49 76,49 78,47 78,46 74,42 73,42 71,40 70,40 68,38" stroke="black" stroke-width="1" /><polygon fill="none" id="4" points="47,31 47,32 46,33 46,36 45,37 45,39 44,40 34,40 34,44 42,44 43,45 42,46 42,47 41,48 41,49 40,50 40,51 39,52 39,53 37,55 37,56 35,58 35,59 33,61 33,63 34,64 37,64 39,62 39,61 41,59 41,58 42,57 42,56 43,55 43,54 44,53 44,52 45,51 45,50 46,49 46,48 47,47 47,45 49,43 56,43 57,42 59,42 59,41 58,40 58,38 57,38 56,39 52,39 51,40 50,40 49,39 50,38 50,37 51,36 51,34 52,33 52,31" stroke="black" stroke-width="1" /></svg>