<?xml version="1.0" encoding="utf-8" ?>
<svg baseProfile="full" height="100" version="1.1" width="100" xmlns="http://www.w3.org/2000/svg" xmlns:ev="http://www.w3.org/2001/xml-events" xmlns:xlink="http://www.w3.org/1999/xlink"><defs /><polygon fill="none" id="1" points="66,46 66,49 67,50 67,59 66,60 65,59 57,59 56,60 55,60 54,61 53,61 51,63 51,69 53,71 54,71 55,72 56,72 57,73 67,73 68,72 69,72 71,70 71,69 72,68 72,66 73,65 74,66 75,66 76,67 77,67 78,68 79,68 80,69 83,69 85,67 85,66 84,65 83,65 82,64 80,64 79,63 77,63 76,62 74,62 72,60 72,58 71,57 71,46" stroke="black" stroke-width="1" /><polygon fill="none" id="2" points="58,63 59,62 64,62 65,63 66,63 67,64 67,67 64,70 59,70 58,69 57,69 55,67 55,65 57,63" stroke="black" stroke-width="1" /><polygon fill="none" id="3" points="72,38 70,40 70,41 72,43 73,43 74,44 75,44 78,47 79,47 81,49 83,49 85,47 85,46 82,43 81,43 79,41 78,41 77,40 76,40 74,38" stroke="black" stroke-width="1" /><polygon fill="none" id="4" points="51,31 51,33 50,34 50,37 49,38 49,39 48,40 37,40 37,44 46,44 47,45 46,46 46,47 44,49 44,50 43,51 43,52 42,53 42,54 40,56 40,57 36,61 36,63 37,63 38,64 41,64 41,63 43,61 43,60 46,57 46,56 47,55 47,54 48,53 48,52 49,51 49,50 50,49 50,48 51,47 51,46 52,45 52,44 53,43 61,43 62,42 64,42 64,38 62,38 61,39 57,39 56,40 55,40 54,39 54,38 55,37 55,35 56,34 56,31" stroke="black" stroke-width="1" /></svg>