<?xml version="1.0" encoding="utf-8" ?>
<svg baseProfile="full" height="100" version="1.1" width="100" xmlns="http://www.w3.org/2000/svg" xmlns:ev="http://www.w3.org/2001/xml-events" xmlns:xlink="http://www.w3.org/1999/xlink"><defs /><polygon fill="none" id="1" points="45,47 45,53 46,54 46,60 45,61 43,61 42,60 39,60 38,61 37,61 35,63 35,68 36,69 36,70 37,71 38,71 39,72 44,72 46,70 46,69 47,68 47,65 48,64 50,64 54,68 55,67 55,66 54,66 52,64 51,64 50,63 49,63 47,61 47,53 46,52 46,47" stroke="black" stroke-width="1" /><polygon fill="none" id="2" points="38,62 39,61 43,61 44,62 45,62 46,63 46,68 43,71 39,71 38,70 37,70 36,69 36,63 37,62" stroke="black" stroke-width="1" /><polygon fill="none" id="3" points="48,40 48,41 55,48 55,46 49,40" stroke="black" stroke-width="1" /><polygon fill="none" id="4" points="35,32 35,35 34,36 34,40 33,41 25,41 26,42 26,43 32,43 33,44 33,45 32,46 32,47 31,48 31,50 30,51 30,53 29,54 29,55 28,56 28,57 27,58 27,59 26,60 26,61 25,62 26,63 27,62 27,61 28,60 28,59 29,58 29,56 30,55 30,54 31,53 31,51 32,50 32,48 33,47 33,44 35,42 40,42 41,41 42,41 42,40 39,40 38,41 36,41 35,40 35,37 36,36 36,32" stroke="black" stroke-width="1" /></svg>