<?xml version="1.0" encoding="utf-8" ?>
<svg baseProfile="full" height="100" version="1.1" width="100" xmlns="http://www.w3.org/2000/svg" xmlns:ev="http://www.w3.org/2001/xml-events" xmlns:xlink="http://www.w3.org/1999/xlink"><defs /><polygon fill="none" id="1" points="51,47 51,58 52,59 52,60 51,61 49,61 48,60 44,60 43,61 42,61 39,64 39,67 40,68 40,69 42,71 43,71 44,72 49,72 50,71 51,71 52,70 52,69 53,68 53,65 54,64 56,64 58,66 59,66 61,68 62,67 62,66 61,66 60,65 59,65 58,64 57,64 56,63 55,63 53,61 53,56 52,55 52,47" stroke="black" stroke-width="1" /><polygon fill="none" id="2" points="43,61 49,61 50,62 51,62 52,63 52,65 51,66 51,69 49,71 44,71 43,70 42,70 40,68 40,64" stroke="black" stroke-width="1" /><polygon fill="none" id="3" points="54,40 54,41 55,42 56,42 61,47 61,48 62,47 62,46 56,40" stroke="black" stroke-width="1" /><polygon fill="none" id="4" points="39,32 39,37 38,38 38,40 37,41 29,41 29,43 35,43 36,44 36,47 35,48 35,49 34,50 34,51 33,52 33,54 32,55 32,56 31,57 31,58 29,60 29,61 28,62 29,63 30,63 30,62 31,61 31,60 32,59 32,58 33,57 33,56 34,55 34,53 35,52 35,51 36,50 36,49 37,48 37,46 38,45 38,43 39,42 45,42 46,41 47,41 47,39 46,40 44,40 43,41 40,41 39,40 39,38 40,37 40,35 41,34 41,32" stroke="black" stroke-width="1" /></svg>