<?xml version="1.0" encoding="utf-8" ?>
<svg baseProfile="full" height="100" version="1.1" width="100" xmlns="http://www.w3.org/2000/svg" xmlns:ev="http://www.w3.org/2001/xml-events" xmlns:xlink="http://www.w3.org/1999/xlink"><defs /><polygon fill="none" id="1" points="56,47 56,48 57,49 57,60 56,61 54,61 53,60 48,60 47,61 46,61 44,63 44,64 43,65 43,67 44,68 44,69 46,71 48,71 49,72 55,72 56,71 57,71 58,70 58,68 59,67 59,65 60,64 62,64 63,65 64,65 66,67 67,67 68,68 69,67 69,66 68,66 67,65 66,65 65,64 64,64 63,63 61,63 59,61 59,58 58,57 58,47" stroke="black" stroke-width="1" /><polygon fill="none" id="2" points="48,61 54,61 55,62 56,62 57,63 57,68 54,71 48,71 45,68 45,64" stroke="black" stroke-width="1" /><polygon fill="none" id="3" points="61,39 60,40 60,41 61,42 62,42 68,48 69,47 69,46 65,42 64,42" stroke="black" stroke-width="1" /><polygon fill="none" id="4" points="44,32 43,33 43,37 42,38 42,40 41,41 32,41 32,43 39,43 40,44 40,46 39,47 39,49 38,50 38,51 37,52 37,53 36,54 36,55 35,56 35,57 33,59 33,60 31,62 32,63 33,63 33,62 35,60 35,59 36,58 36,57 37,56 37,55 38,54 38,53 39,52 39,51 40,50 40,49 41,48 41,46 42,45 42,44 44,42 50,42 51,41 52,41 52,40 49,40 48,41 45,41 44,40 44,37 45,36 45,33 46,32" stroke="black" stroke-width="1" /></svg>