<?xml version="1.0" encoding="utf-8" ?>
<svg baseProfile="full" height="100" version="1.1" width="100" xmlns="http://www.w3.org/2000/svg" xmlns:ev="http://www.w3.org/2001/xml-events" xmlns:xlink="http://www.w3.org/1999/xlink"><defs /><polygon fill="none" id="1" points="62,47 62,55 63,56 63,60 62,61 60,61 59,60 53,60 52,61 51,61 50,62 49,62 48,63 48,64 47,65 47,66 48,67 48,69 49,70 50,70 51,71 52,71 53,72 60,72 61,71 62,71 64,69 64,68 65,67 65,65 66,64 68,64 69,65 70,65 71,66 72,66 73,67 74,67 75,68 76,67 76,66 75,66 74,65 72,65 71,64 70,64 69,63 67,63 65,61 65,58 64,57 64,47" stroke="black" stroke-width="1" /><polygon fill="none" id="2" points="52,62 53,61 59,61 60,62 62,62 63,63 63,67 62,68 62,69 61,70 60,70 59,71 53,71 52,70 51,70 50,69 50,68 49,67 49,65 50,64 50,63 51,62" stroke="black" stroke-width="1" /><polygon fill="none" id="3" points="67,39 66,40 66,41 67,42 68,42 70,44 71,44 75,48 76,47 76,46 73,43 72,43 70,41 69,41" stroke="black" stroke-width="1" /><polygon fill="none" id="4" points="48,32 48,33 47,34 47,37 46,38 46,40 45,41 35,41 35,43 43,43 44,44 44,46 43,47 43,48 42,49 42,50 41,51 41,52 40,53 40,54 38,56 38,57 36,59 36,60 34,62 35,63 36,63 38,61 38,60 40,58 40,57 41,56 41,55 42,54 42,53 43,52 43,51 44,50 44,49 45,48 45,47 46,46 46,44 48,42 55,42 56,41 57,41 57,40 53,40 52,41 49,41 48,40 48,38 49,37 49,36 50,35 50,33 51,32" stroke="black" stroke-width="1" /></svg>