<?xml version="1.0" encoding="utf-8" ?>
<svg baseProfile="full" height="100" version="1.1" width="100" xmlns="http://www.w3.org/2000/svg" xmlns:ev="http://www.w3.org/2001/xml-events" xmlns:xlink="http://www.w3.org/1999/xlink"><defs /><polygon fill="none" id="1" points="67,47 67,48 68,49 68,60 67,61 65,61 64,60 58,60 57,61 56,61 55,62 54,62 52,64 52,68 54,70 55,70 56,71 57,71 58,72 66,72 67,71 68,71 70,69 70,68 71,67 71,65 72,64 74,64 75,65 76,65 77,66 78,66 79,67 80,67 81,68 82,68 83,67 83,66 82,66 81,65 79,65 78,64 76,64 75,63 73,63 72,62 71,62 70,61 70,60 71,59 70,58 70,47" stroke="black" stroke-width="1" /><polygon fill="none" id="2" points="57,62 58,61 65,61 66,62 67,62 68,63 68,68 65,71 58,71 57,70 56,70 54,68 54,64 56,62" stroke="black" stroke-width="1" /><polygon fill="none" id="3" points="73,39 72,40 72,41 73,42 74,42 75,43 76,43 79,46 80,46 82,48 83,47 83,46 81,44 80,44 78,42 77,42 76,41 75,41" stroke="black" stroke-width="1" /><polygon fill="none" id="4" points="52,32 52,34 51,35 51,38 50,39 50,40 49,41 38,41 38,43 47,43 48,44 48,46 47,47 47,48 45,50 45,51 44,52 44,53 43,54 43,55 41,57 41,58 37,62 38,62 39,63 40,63 40,62 42,60 42,59 45,56 45,55 46,54 46,53 47,52 47,51 48,50 48,49 49,48 49,47 50,46 50,45 51,44 51,43 52,42 60,42 61,41 63,41 63,39 62,40 58,40 57,41 54,41 53,40 53,37 54,36 54,34 55,33 55,32" stroke="black" stroke-width="1" /></svg>