<?xml version="1.0" encoding="utf-8" ?>
<svg baseProfile="full" height="100" version="1.1" width="100" xmlns="http://www.w3.org/2000/svg" xmlns:ev="http://www.w3.org/2001/xml-events" xmlns:xlink="http://www.w3.org/1999/xlink"><defs /><polygon fill="none" id="1" points="47,37 46,38 46,42 48,44 47,45 43,45 43,54 44,55 44,57 43,58 37,58 36,59 35,59 33,61 33,69 34,70 34,71 35,72 36,72 37,73 45,73 47,71 47,70 48,69 48,67 49,66 52,69 55,69 57,67 57,65 56,64 55,64 53,62 52,62 51,61 50,61 48,59 48,51 47,50 47,49 48,48 48,46 49,45 53,49 56,49 56,48 57,47 57,45 49,37" stroke="black" stroke-width="1" /><polygon fill="none" id="2" points="39,63 40,62 41,62 42,63 43,63 44,64 44,66 41,69 40,69 39,68 38,68 37,67 37,64 38,63" stroke="black" stroke-width="1" /><polygon fill="none" id="3" points="47,45 48,44 49,45 48,46" stroke="black" stroke-width="1" /><polygon fill="none" id="4" points="33,30 33,33 32,34 32,38 31,39 23,39 23,42 24,43 24,44 29,44 30,45 29,46 29,48 28,49 28,51 27,52 27,53 26,54 26,55 25,56 25,57 24,58 24,59 23,60 23,63 24,64 27,64 28,63 28,62 29,61 29,60 30,59 30,57 31,56 31,55 32,54 32,52 33,51 33,49 34,48 34,45 36,43 41,43 42,42 43,42 43,38 42,37 40,37 39,38 38,38 37,37 37,34 38,33 38,31 37,30" stroke="black" stroke-width="1" /></svg>