<?xml version="1.0" encoding="utf-8" ?>
<svg baseProfile="full" height="100" version="1.1" width="100" xmlns="http://www.w3.org/2000/svg" xmlns:ev="http://www.w3.org/2001/xml-events" xmlns:xlink="http://www.w3.org/1999/xlink"><defs /><polygon fill="none" id="1" points="49,45 49,57 48,58 42,58 41,59 40,59 37,62 37,68 38,69 38,70 40,72 41,72 42,73 50,73 51,72 52,72 53,71 53,70 54,69 54,67 55,66 56,67 57,67 59,69 62,69 64,67 64,65 63,64 62,64 61,63 60,63 59,62 58,62 57,61 56,61 54,59 54,54 53,53 53,45" stroke="black" stroke-width="1" /><polygon fill="none" id="2" points="44,62 47,62 49,64 49,67 47,69 45,69 44,68 43,68 41,66 41,65" stroke="black" stroke-width="1" /><polygon fill="none" id="3" points="53,37 51,39 51,41 53,43 54,43 59,48 59,49 62,49 64,47 64,45 57,38 56,38 55,37" stroke="black" stroke-width="1" /><polygon fill="none" id="4" points="37,30 37,35 36,36 36,38 35,39 27,39 27,44 33,44 34,45 33,46 33,47 32,48 32,49 31,50 31,52 30,53 30,54 29,55 29,56 27,58 27,59 26,60 26,63 27,64 31,64 31,63 32,62 32,61 33,60 33,59 34,58 34,57 35,56 35,54 36,53 36,52 37,51 37,50 38,49 38,47 39,46 39,44 40,43 46,43 47,42 48,42 48,37 45,37 44,38 42,38 41,37 41,36 42,35 42,30" stroke="black" stroke-width="1" /></svg>