<?xml version="1.0" encoding="utf-8" ?>
<svg baseProfile="full" height="100" version="1.1" width="100" xmlns="http://www.w3.org/2000/svg" xmlns:ev="http://www.w3.org/2001/xml-events" xmlns:xlink="http://www.w3.org/1999/xlink"><defs /><polygon fill="none" id="1" points="54,45 54,49 55,50 55,57 54,58 46,58 45,59 44,59 42,61 42,62 41,63 41,68 42,69 42,70 44,72 46,72 47,73 56,73 57,72 58,72 59,71 59,69 60,68 60,67 61,66 62,66 64,68 65,68 66,69 69,69 71,67 71,65 70,64 69,64 68,63 67,63 66,62 65,62 64,61 62,61 60,59 60,56 59,55 59,45" stroke="black" stroke-width="1" /><polygon fill="none" id="2" points="49,62 52,62 53,63 54,63 55,64 55,66 52,69 49,69 46,66 46,65" stroke="black" stroke-width="1" /><polygon fill="none" id="3" points="59,37 57,39 57,41 59,43 60,43 66,49 69,49 71,47 71,45 66,40 65,40 62,37" stroke="black" stroke-width="1" /><polygon fill="none" id="4" points="42,30 41,31 41,35 40,36 40,38 39,39 30,39 30,44 36,44 37,45 37,47 36,48 36,49 35,50 35,51 34,52 34,53 33,54 33,55 31,57 31,58 29,60 29,63 30,64 34,64 34,63 36,61 36,60 37,59 37,58 38,57 38,56 39,55 39,54 40,53 40,52 41,51 41,50 42,49 42,47 43,46 43,45 45,43 51,43 52,42 53,42 53,37 51,37 50,38 47,38 46,37 46,34 47,33 47,30" stroke="black" stroke-width="1" /><polygon fill="none" id="5" points="45,38 46,37 47,38 46,39" stroke="black" stroke-width="1" /></svg>