<?xml version="1.0" encoding="utf-8" ?>
<svg baseProfile="full" height="100" version="1.1" width="100" xmlns="http://www.w3.org/2000/svg" xmlns:ev="http://www.w3.org/2001/xml-events" xmlns:xlink="http://www.w3.org/1999/xlink"><defs /><polygon fill="none" id="1" points="60,45 60,56 61,57 60,58 51,58 50,59 49,59 48,60 47,60 46,61 46,62 45,63 45,67 46,68 46,70 47,71 48,71 49,72 50,72 51,73 61,73 62,72 63,72 65,70 65,69 66,68 66,67 67,66 68,66 69,67 70,67 71,68 72,68 73,69 76,69 78,67 78,65 77,64 76,64 75,63 73,63 72,62 71,62 70,61 68,61 66,59 66,56 65,55 65,45" stroke="black" stroke-width="1" /><polygon fill="none" id="2" points="53,63 54,62 57,62 58,63 60,63 61,64 61,65 60,66 60,67 59,68 58,68 57,69 54,69 53,68 52,68 51,67 51,64 52,63" stroke="black" stroke-width="1" /><polygon fill="none" id="3" points="65,37 63,39 63,41 65,43 66,43 68,45 69,45 73,49 76,49 78,47 78,45 74,41 73,41 71,39 70,39 68,37" stroke="black" stroke-width="1" /><polygon fill="none" id="4" points="46,30 46,31 45,32 45,35 44,36 44,38 43,39 33,39 33,44 40,44 41,45 41,46 40,47 40,48 39,49 39,50 38,51 38,52 36,54 36,55 34,57 34,58 32,60 32,63 33,64 37,64 39,62 39,61 41,59 41,58 42,57 42,56 43,55 43,54 44,53 44,52 45,51 45,50 46,49 46,48 47,47 47,45 49,43 56,43 57,42 59,42 59,40 58,39 58,37 56,37 55,38 51,38 50,37 51,36 51,34 52,33 52,30" stroke="black" stroke-width="1" /></svg>