<?xml version="1.0" encoding="utf-8" ?>
<svg baseProfile="full" height="100" version="1.1" width="100" xmlns="http://www.w3.org/2000/svg" xmlns:ev="http://www.w3.org/2001/xml-events" xmlns:xlink="http://www.w3.org/1999/xlink"><defs /><polygon fill="none" id="1" points="65,45 65,49 66,50 66,57 65,58 56,58 55,59 54,59 53,60 52,60 50,62 50,69 52,71 53,71 54,72 55,72 56,73 67,73 68,72 69,72 71,70 71,69 72,68 72,67 73,66 74,66 75,67 76,67 77,68 78,68 79,69 83,69 85,67 85,65 84,64 83,64 82,63 80,63 79,62 77,62 76,61 74,61 72,59 72,57 71,56 71,45" stroke="black" stroke-width="1" /><polygon fill="none" id="2" points="58,63 59,62 63,62 64,63 65,63 66,64 66,66 63,69 59,69 58,68 57,68 55,66 55,65 57,63" stroke="black" stroke-width="1" /><polygon fill="none" id="3" points="71,37 69,39 69,41 71,43 72,43 73,44 74,44 77,47 78,47 80,49 83,49 85,47 85,45 82,42 81,42 79,40 78,40 77,39 76,39 74,37" stroke="black" stroke-width="1" /><polygon fill="none" id="4" points="50,30 50,32 49,33 49,36 48,37 48,38 47,39 36,39 36,44 44,44 45,45 45,46 43,48 43,49 42,50 42,51 41,52 41,53 39,55 39,56 35,60 35,63 36,63 37,64 41,64 41,63 43,61 43,60 46,57 46,56 47,55 47,54 48,53 48,52 49,51 49,50 50,49 50,48 51,47 51,46 52,45 52,44 53,43 61,43 62,42 64,42 64,37 61,37 60,38 56,38 55,37 55,35 56,34 56,30" stroke="black" stroke-width="1" /><polygon fill="none" id="5" points="54,38 55,37 56,38 55,39" stroke="black" stroke-width="1" /></svg>