<?xml version="1.0" encoding="utf-8" ?>
<svg baseProfile="full" height="100" version="1.1" width="100" xmlns="http://www.w3.org/2000/svg" xmlns:ev="http://www.w3.org/2001/xml-events" xmlns:xlink="http://www.w3.org/1999/xlink"><defs /><polygon fill="none" id="1" points="37,70" stroke="black" stroke-width="1" /><polygon fill="none" id="2" points="45,69 43,71 39,71 43,71" stroke="black" stroke-width="1" /><polygon fill="none" id="3" points="51,64 53,66 54,66 53,66" stroke="black" stroke-width="1" /><polygon fill="none" id="4" points="35,63 35,67" stroke="black" stroke-width="1" /><polygon fill="none" id="5" points="37,61" stroke="black" stroke-width="1" /><polygon fill="none" id="6" points="39,60 41,60" stroke="black" stroke-width="1" /><polygon fill="none" id="7" points="28,56 28,57 27,58 27,59 26,60 26,61 26,60 27,59 27,58 28,57" stroke="black" stroke-width="1" /><polygon fill="none" id="8" points="29,54" stroke="black" stroke-width="1" /><polygon fill="none" id="9" points="30,51 30,52" stroke="black" stroke-width="1" /><polygon fill="none" id="10" points="31,48 31,49" stroke="black" stroke-width="1" /><polygon fill="none" id="11" points="45,47 45,52 46,53 46,60 45,61 44,61 45,61 46,62 46,67 46,64 47,63 49,63 48,63 46,61 46,53 45,52" stroke="black" stroke-width="1" /><polygon fill="none" id="12" points="32,46" stroke="black" stroke-width="1" /><polygon fill="none" id="13" points="48,40 54,46" stroke="black" stroke-width="1" /><polygon fill="none" id="14" points="35,32 35,35 34,36 34,40 33,41 26,41 26,42 33,42 34,41 39,41 40,40 41,40 39,40 38,41 35,41 34,40 34,36 35,35" stroke="black" stroke-width="1" /></svg>