<?xml version="1.0" encoding="utf-8" ?>
<svg baseProfile="full" height="100" version="1.1" width="100" xmlns="http://www.w3.org/2000/svg" xmlns:ev="http://www.w3.org/2001/xml-events" xmlns:xlink="http://www.w3.org/1999/xlink"><defs /><polygon fill="none" id="1" points="44,71 48,71" stroke="black" stroke-width="1" /><polygon fill="none" id="2" points="42,70" stroke="black" stroke-width="1" /><polygon fill="none" id="3" points="57,64 58,65 59,65 60,66 61,66 60,66 59,65 58,65" stroke="black" stroke-width="1" /><polygon fill="none" id="4" points="39,64 39,66" stroke="black" stroke-width="1" /><polygon fill="none" id="5" points="44,60 47,60" stroke="black" stroke-width="1" /><polygon fill="none" id="6" points="51,47 51,57 52,58 52,60 51,61 50,61 51,61 52,62 52,65 51,66 51,69 50,70 51,69 51,68 52,67 52,64 53,63 55,63 54,63 52,61 52,56 51,55" stroke="black" stroke-width="1" /><polygon fill="none" id="7" points="54,40 55,41 56,41 61,46 55,40" stroke="black" stroke-width="1" /><polygon fill="none" id="8" points="38,38 38,40 37,41 29,41 29,42 35,42 36,43 36,47 35,48 35,49 34,50 34,51 33,52 33,54 32,55 32,56 31,57 31,58 29,60 29,62 29,61 30,60 30,59 31,58 31,57 32,56 32,55 33,54 33,52 34,51 34,50 35,49 35,48 36,47 36,45 37,44 37,42 38,41 44,41 45,40 46,40 44,40 43,41 39,41 38,40" stroke="black" stroke-width="1" /><polygon fill="none" id="9" points="39,32 39,36 39,34 40,33 40,32" stroke="black" stroke-width="1" /></svg>