<?xml version="1.0" encoding="utf-8" ?>
<svg baseProfile="full" height="100" version="1.1" width="100" xmlns="http://www.w3.org/2000/svg" xmlns:ev="http://www.w3.org/2001/xml-events" xmlns:xlink="http://www.w3.org/1999/xlink"><defs /><polygon fill="none" id="1" points="46,61 44,63 44,64 43,65 43,66 44,67 44,68 46,70 44,68 44,63" stroke="black" stroke-width="1" /><polygon fill="none" id="2" points="48,60 52,60" stroke="black" stroke-width="1" /><polygon fill="none" id="3" points="56,47 57,48 57,60 56,61 55,61 56,61 57,62 57,68 54,71 49,71 54,71 55,70 56,70 57,69 57,67 58,66 58,64 59,63 62,63 63,64 64,64 66,66 68,66 67,66 66,65 65,65 64,64 63,64 62,63 60,63 58,61 58,58 57,57 57,47" stroke="black" stroke-width="1" /><polygon fill="none" id="4" points="60,40 61,41 62,41 67,46 68,46 64,42 63,42 61,40" stroke="black" stroke-width="1" /><polygon fill="none" id="5" points="44,32 43,33 43,37 42,38 42,40 41,41 32,41 32,42 39,42 40,43 40,46 39,47 39,49 38,50 38,51 37,52 37,53 36,54 36,55 35,56 35,57 33,59 33,60 32,61 32,62 32,61 34,59 34,58 35,57 35,56 36,55 36,54 37,53 37,52 38,51 38,50 39,49 39,48 40,47 40,45 41,44 41,43 43,41 49,41 50,40 51,40 49,40 48,41 44,41 43,40 43,36 44,35" stroke="black" stroke-width="1" /></svg>