<?xml version="1.0" encoding="utf-8" ?>
<svg baseProfile="full" height="100" version="1.1" width="100" xmlns="http://www.w3.org/2000/svg" xmlns:ev="http://www.w3.org/2001/xml-events" xmlns:xlink="http://www.w3.org/1999/xlink"><defs /><polygon fill="none" id="1" points="56,70" stroke="black" stroke-width="1" /><polygon fill="none" id="2" points="54,62 52,64 52,67 54,69 53,68 53,63" stroke="black" stroke-width="1" /><polygon fill="none" id="3" points="56,61" stroke="black" stroke-width="1" /><polygon fill="none" id="4" points="58,60 63,60" stroke="black" stroke-width="1" /><polygon fill="none" id="5" points="67,47 68,48 68,60 67,61 66,61 67,61 68,62 68,68 65,71 58,71 65,71 66,70 67,70 69,68 69,67 70,66 70,64 71,63 74,63 75,64 76,64 77,65 78,65 79,66 80,66 81,67 82,66 81,66 80,65 78,65 77,64 75,64 74,63 72,63 71,62 70,62 69,61 69,47" stroke="black" stroke-width="1" /><polygon fill="none" id="6" points="72,40 73,41 74,41 75,42 76,42 79,45 80,45 81,46 82,46 80,44 79,44 77,42 76,42 75,41 74,41 73,40" stroke="black" stroke-width="1" /><polygon fill="none" id="7" points="52,32 52,34 51,35 51,38 50,39 50,40 49,41 38,41 38,42 47,42 48,43 48,46 47,47 47,48 45,50 45,51 44,52 44,53 43,54 43,55 41,57 41,58 38,61 39,62 39,61 41,59 41,58 44,55 44,54 45,53 45,52 46,51 46,50 47,49 47,48 48,47 48,46 49,45 49,44 50,43 50,42 51,41 59,41 60,40 62,40 58,40 57,41 53,41 52,40 52,36 53,35 53,33 54,32" stroke="black" stroke-width="1" /></svg>