<?xml version="1.0" encoding="utf-8" ?>
<svg baseProfile="full" height="100" version="1.1" width="100" xmlns="http://www.w3.org/2000/svg" xmlns:ev="http://www.w3.org/2001/xml-events" xmlns:xlink="http://www.w3.org/1999/xlink"><defs /><polygon fill="none" id="1" points="50,58 49,59 49,61 50,62 50,64 53,67 54,67 55,68 57,68 58,69 75,69 75,65 74,66 70,66 69,67 59,67 58,66 56,66 53,63 53,58" stroke="black" stroke-width="1" /><polygon fill="none" id="2" points="55,39 54,40 52,40 52,43 54,43 55,42 73,42 73,39" stroke="black" stroke-width="1" /><polygon fill="none" id="3" points="38,34 38,38 37,39 37,43 36,44 36,50 35,51 35,60 36,61 36,71 40,71 40,67 41,66 41,65 42,64 42,62 43,61 43,60 44,59 44,58 45,57 44,56 43,56 42,57 42,58 41,59 41,61 40,62 39,62 38,61 38,55 39,54 39,46 40,45 40,41 41,40 41,38 42,37 42,35 41,34" stroke="black" stroke-width="1" /></svg>