<?xml version="1.0" encoding="utf-8" ?>
<svg baseProfile="full" height="100" version="1.1" width="100" xmlns="http://www.w3.org/2000/svg" xmlns:ev="http://www.w3.org/2001/xml-events" xmlns:xlink="http://www.w3.org/1999/xlink"><defs /><polygon fill="none" id="1" points="36,58 36,63 37,64 37,66 38,67 39,67 40,68 41,68 42,69 54,69 54,65 53,66 51,66 50,67 43,67 42,66 41,66 38,63 38,58" stroke="black" stroke-width="1" /><polygon fill="none" id="2" points="40,39 39,40 37,40 38,41 38,43 39,43 40,42 53,42 53,39" stroke="black" stroke-width="1" /><polygon fill="none" id="3" points="28,34 28,37 27,38 27,43 26,44 26,71 29,71 29,66 30,65 30,63 31,62 31,60 32,59 32,56 31,56 31,57 30,58 30,61 29,62 28,61 28,46 29,45 29,39 30,38 30,34" stroke="black" stroke-width="1" /></svg>