<?xml version="1.0" encoding="utf-8" ?>
<svg baseProfile="full" height="100" version="1.1" width="100" xmlns="http://www.w3.org/2000/svg" xmlns:ev="http://www.w3.org/2001/xml-events" xmlns:xlink="http://www.w3.org/1999/xlink"><defs /><polygon fill="none" id="1" points="41,58 40,59 40,61 41,62 41,65 43,67 44,67 45,68 46,68 47,69 61,69 61,65 60,66 58,66 57,67 48,67 47,66 46,66 43,63 43,58" stroke="black" stroke-width="1" /><polygon fill="none" id="2" points="45,39 44,40 42,40 42,43 44,43 45,42 59,42 59,39" stroke="black" stroke-width="1" /><polygon fill="none" id="3" points="31,34 31,40 30,41 30,46 29,47 29,64 30,65 30,71 33,71 33,65 34,64 34,62 35,61 35,60 36,59 36,58 37,57 36,56 35,56 34,57 34,60 32,62 31,61 31,51 32,50 32,43 33,42 33,38 34,37 34,34" stroke="black" stroke-width="1" /></svg>