<?xml version="1.0" encoding="utf-8" ?>
<svg baseProfile="full" height="100" version="1.1" width="100" xmlns="http://www.w3.org/2000/svg" xmlns:ev="http://www.w3.org/2001/xml-events" xmlns:xlink="http://www.w3.org/1999/xlink"><defs /><polygon fill="none" id="1" points="45,58 45,63 46,64 46,65 48,67 49,67 50,68 52,68 53,69 68,69 68,65 67,66 64,66 63,67 53,67 52,66 51,66 48,63 48,58" stroke="black" stroke-width="1" /><polygon fill="none" id="2" points="50,39 49,40 47,40 47,43 49,43 50,42 66,42 66,39" stroke="black" stroke-width="1" /><polygon fill="none" id="3" points="35,34 35,37 34,38 34,42 33,43 33,48 32,49 32,62 33,63 33,71 36,71 37,70 36,69 36,68 37,67 37,65 38,64 38,62 39,61 39,60 40,59 40,58 41,57 40,56 39,56 38,57 38,59 37,60 37,61 36,62 35,61 35,48 36,47 36,42 37,41 37,38 38,37 38,35 37,34" stroke="black" stroke-width="1" /></svg>