<?xml version="1.0" encoding="utf-8" ?>
<svg baseProfile="full" height="100" version="1.1" width="100" xmlns="http://www.w3.org/2000/svg" xmlns:ev="http://www.w3.org/2001/xml-events" xmlns:xlink="http://www.w3.org/1999/xlink"><defs /><polygon fill="none" id="1" points="54,58 54,63 55,64 55,65 56,66 57,66 58,67 59,67 60,68 62,68 63,69 82,69 82,66 77,66 76,67 64,67 63,66 61,66 58,63 58,58" stroke="black" stroke-width="1" /><polygon fill="none" id="2" points="60,39 59,40 56,40 56,43 59,43 60,42 79,42 79,39" stroke="black" stroke-width="1" /><polygon fill="none" id="3" points="42,34 42,37 41,38 41,41 40,42 40,46 39,47 39,66 40,67 40,71 44,71 44,67 45,66 45,64 46,63 46,62 47,61 47,60 48,59 48,58 49,57 48,56 46,56 46,58 45,59 45,61 44,62 43,62 42,61 42,49 43,48 43,44 44,43 44,40 45,39 45,37 46,36 46,35 45,34" stroke="black" stroke-width="1" /></svg>