<?xml version="1.0" encoding="utf-8" ?>
<svg baseProfile="full" height="100" version="1.1" width="100" xmlns="http://www.w3.org/2000/svg" xmlns:ev="http://www.w3.org/2001/xml-events" xmlns:xlink="http://www.w3.org/1999/xlink"><defs /><polygon fill="none" id="1" points="36,58 36,64 37,65 37,67 38,68 39,68 40,69 41,69 42,70 55,70 55,65 54,65 53,66 51,66 50,67 44,67 43,66 42,66 39,63 39,58" stroke="black" stroke-width="1" /><polygon fill="none" id="2" points="40,39 39,40 37,40 37,41 38,42 38,44 40,44 41,43 54,43 54,39" stroke="black" stroke-width="1" /><polygon fill="none" id="3" points="28,34 28,37 27,38 27,43 26,44 26,72 30,72 30,67 31,66 31,64 32,63 32,61 33,60 33,56 31,56 31,57 30,58 29,57 29,47 30,46 30,40 31,39 31,34" stroke="black" stroke-width="1" /></svg>