<?xml version="1.0" encoding="utf-8" ?>
<svg baseProfile="full" height="100" version="1.1" width="100" xmlns="http://www.w3.org/2000/svg" xmlns:ev="http://www.w3.org/2001/xml-events" xmlns:xlink="http://www.w3.org/1999/xlink"><defs /><polygon fill="none" id="1" points="41,58 40,59 40,62 41,63 41,66 43,68 44,68 45,69 46,69 47,70 62,70 62,65 61,65 60,66 58,66 57,67 49,67 48,66 47,66 44,63 44,58" stroke="black" stroke-width="1" /><polygon fill="none" id="2" points="45,39 44,40 42,40 42,44 45,44 46,43 60,43 60,39" stroke="black" stroke-width="1" /><polygon fill="none" id="3" points="31,34 31,40 30,41 30,46 29,47 29,65 30,66 30,72 34,72 34,66 35,65 35,63 36,62 36,61 37,60 37,59 38,58 38,57 37,56 35,56 34,57 34,60 33,61 32,60 32,52 33,51 33,44 34,43 34,39 35,38 35,34" stroke="black" stroke-width="1" /></svg>