<?xml version="1.0" encoding="utf-8" ?>
<svg baseProfile="full" height="100" version="1.1" width="100" xmlns="http://www.w3.org/2000/svg" xmlns:ev="http://www.w3.org/2001/xml-events" xmlns:xlink="http://www.w3.org/1999/xlink"><defs /><polygon fill="none" id="1" points="45,58 45,64 46,65 46,66 48,68 49,68 50,69 52,69 53,70 69,70 69,65 68,65 67,66 64,66 63,67 54,67 53,66 52,66 49,63 49,58" stroke="black" stroke-width="1" /><polygon fill="none" id="2" points="50,39 49,40 47,40 47,44 50,44 51,43 67,43 67,39" stroke="black" stroke-width="1" /><polygon fill="none" id="3" points="35,34 35,37 34,38 34,42 33,43 33,48 32,49 32,63 33,64 33,72 37,72 38,71 38,70 37,69 38,68 38,66 39,65 39,63 40,62 40,61 41,60 41,59 42,58 42,57 41,56 39,56 38,57 38,59 37,60 36,59 36,49 37,48 37,43 38,42 38,39 39,38 39,35 38,34" stroke="black" stroke-width="1" /></svg>