<?xml version="1.0" encoding="utf-8" ?>
<svg baseProfile="full" height="100" version="1.1" width="100" xmlns="http://www.w3.org/2000/svg" xmlns:ev="http://www.w3.org/2001/xml-events" xmlns:xlink="http://www.w3.org/1999/xlink"><defs /><polygon fill="none" id="1" points="50,58 49,59 49,62 50,63 50,65 53,68 54,68 55,69 57,69 58,70 76,70 76,65 75,65 74,66 70,66 69,67 60,67 59,66 57,66 54,63 54,58" stroke="black" stroke-width="1" /><polygon fill="none" id="2" points="55,39 54,40 52,40 52,44 55,44 56,43 74,43 74,39" stroke="black" stroke-width="1" /><polygon fill="none" id="3" points="38,34 38,38 37,39 37,43 36,44 36,50 35,51 35,61 36,62 36,72 41,72 41,68 42,67 42,66 43,65 43,63 44,62 44,61 45,60 45,59 46,58 46,57 45,56 43,56 42,57 42,58 41,59 41,61 40,62 39,61 39,56 40,55 40,47 41,46 41,42 42,41 42,39 43,38 43,35 42,34" stroke="black" stroke-width="1" /></svg>