<?xml version="1.0" encoding="utf-8" ?>
<svg baseProfile="full" height="100" version="1.1" width="100" xmlns="http://www.w3.org/2000/svg" xmlns:ev="http://www.w3.org/2001/xml-events" xmlns:xlink="http://www.w3.org/1999/xlink"><defs /><polygon fill="none" id="1" points="54,58 54,64 55,65 55,66 56,67 57,67 58,68 59,68 60,69 62,69 63,70 83,70 83,66 77,66 76,67 65,67 64,66 62,66 59,63 59,58" stroke="black" stroke-width="1" /><polygon fill="none" id="2" points="60,39 59,40 56,40 56,44 60,44 61,43 80,43 80,39" stroke="black" stroke-width="1" /><polygon fill="none" id="3" points="42,34 42,37 41,38 41,41 40,42 40,46 39,47 39,67 40,68 40,72 45,72 45,68 46,67 46,65 47,64 47,63 48,62 48,61 49,60 49,59 50,58 50,57 49,56 46,56 46,58 45,59 45,61 44,62 43,61 43,50 44,49 44,45 45,44 45,41 46,40 46,38 47,37 47,35 46,34" stroke="black" stroke-width="1" /></svg>