<?xml version="1.0" encoding="utf-8" ?>
<svg baseProfile="full" height="100" version="1.1" width="100" xmlns="http://www.w3.org/2000/svg" xmlns:ev="http://www.w3.org/2001/xml-events" xmlns:xlink="http://www.w3.org/1999/xlink"><defs /><polygon fill="none" id="1" points="37,59 37,63 38,64 38,66 39,67 40,67 41,68 42,68 43,69 54,69 54,67 52,67 51,68 43,68 42,67 41,67 38,64 38,59" stroke="black" stroke-width="1" /><polygon fill="none" id="2" points="41,40 40,41 39,41 39,43 40,42 53,42 53,40" stroke="black" stroke-width="1" /><polygon fill="none" id="3" points="29,35 29,38 28,39 28,44 27,45 27,71 29,71 29,66 30,65 30,63 31,62 31,60 32,59 32,57 32,58 31,59 31,62 30,63 29,63 28,62 28,46 29,45 29,39 30,38 30,35" stroke="black" stroke-width="1" /></svg>