<?xml version="1.0" encoding="utf-8" ?>
<svg baseProfile="full" height="100" version="1.1" width="100" xmlns="http://www.w3.org/2000/svg" xmlns:ev="http://www.w3.org/2001/xml-events" xmlns:xlink="http://www.w3.org/1999/xlink"><defs /><polygon fill="none" id="1" points="42,59 41,60 41,61 42,62 42,65 44,67 45,67 46,68 47,68 48,69 61,69 61,67 59,67 58,68 48,68 47,67 46,67 43,64 43,59" stroke="black" stroke-width="1" /><polygon fill="none" id="2" points="46,40 45,41 43,41 43,43 44,43 45,42 59,42 59,40" stroke="black" stroke-width="1" /><polygon fill="none" id="3" points="32,35 32,41 31,42 31,47 30,48 30,64 31,65 31,71 33,71 33,65 34,64 34,62 35,61 35,60 36,59 36,57 35,58 35,61 33,63 32,63 31,62 31,51 32,50 32,43 33,42 33,38 34,37 34,35" stroke="black" stroke-width="1" /></svg>