<?xml version="1.0" encoding="utf-8" ?>
<svg baseProfile="full" height="100" version="1.1" width="100" xmlns="http://www.w3.org/2000/svg" xmlns:ev="http://www.w3.org/2001/xml-events" xmlns:xlink="http://www.w3.org/1999/xlink"><defs /><polygon fill="none" id="1" points="46,59 46,63 47,64 47,65 49,67 50,67 51,68 53,68 54,69 68,69 68,67 65,67 64,68 53,68 52,67 51,67 48,64 48,59" stroke="black" stroke-width="1" /><polygon fill="none" id="2" points="51,40 50,41 48,41 48,43 49,43 50,42 66,42 66,40" stroke="black" stroke-width="1" /><polygon fill="none" id="3" points="36,35 36,38 35,39 35,43 34,44 34,49 33,50 33,62 34,63 34,71 36,71 36,68 37,67 37,65 38,64 38,62 39,61 39,60 40,59 40,57 39,58 39,60 38,61 38,62 37,63 36,63 35,62 35,48 36,47 36,42 37,41 37,38 38,37 38,36 37,35" stroke="black" stroke-width="1" /></svg>