<?xml version="1.0" encoding="utf-8" ?>
<svg baseProfile="full" height="100" version="1.1" width="100" xmlns="http://www.w3.org/2000/svg" xmlns:ev="http://www.w3.org/2001/xml-events" xmlns:xlink="http://www.w3.org/1999/xlink"><defs /><polygon fill="none" id="1" points="51,59 50,60 50,61 51,62 51,64 54,67 55,67 56,68 58,68 59,69 75,69 75,67 71,67 70,68 59,68 58,67 56,67 53,64 53,59" stroke="black" stroke-width="1" /><polygon fill="none" id="2" points="56,40 55,41 53,41 53,43 54,43 55,42 73,42 73,40" stroke="black" stroke-width="1" /><polygon fill="none" id="3" points="39,35 39,39 38,40 38,44 37,45 37,51 36,52 36,60 37,61 37,71 40,71 40,67 41,66 41,65 42,64 42,62 43,61 43,60 44,59 44,57 43,58 43,59 42,60 42,62 41,63 39,63 38,62 38,55 39,54 39,46 40,45 40,41 41,40 41,38 42,37 42,36 41,35" stroke="black" stroke-width="1" /></svg>