<?xml version="1.0" encoding="utf-8" ?>
<svg baseProfile="full" height="100" version="1.1" width="100" xmlns="http://www.w3.org/2000/svg" xmlns:ev="http://www.w3.org/2001/xml-events" xmlns:xlink="http://www.w3.org/1999/xlink"><defs /><polygon fill="none" id="1" points="57,42 56,43 52,43 51,44 48,44 47,45 43,45 42,46 41,46 42,47 42,49 44,49 45,48 47,48 48,47 50,47 51,46 53,46 54,45 58,45 59,44 65,44 66,45 67,45 70,48 70,49 71,50 71,54 70,55 70,57 69,58 69,59 64,64 63,64 61,66 59,66 58,67 56,67 55,68 51,68 51,69 52,69 54,71 56,71 57,70 59,70 60,69 62,69 63,68 64,68 65,67 66,67 69,64 70,64 71,63 71,62 72,61 72,60 73,59 73,58 74,57 74,54 75,53 75,51 74,50 74,48 73,47 73,46 70,43 68,43 67,42" stroke="black" stroke-width="1" /><polygon fill="none" id="2" points="51,30 51,31 50,32 51,33 55,33 56,34 58,34 59,35 61,35 62,36 63,36 64,37 66,37 68,35 67,34 66,34 65,33 63,33 62,32 60,32 59,31 56,31 55,30" stroke="black" stroke-width="1" /></svg>