<?xml version="1.0" encoding="utf-8" ?>
<svg baseProfile="full" height="100" version="1.1" width="100" xmlns="http://www.w3.org/2000/svg" xmlns:ev="http://www.w3.org/2001/xml-events" xmlns:xlink="http://www.w3.org/1999/xlink"><defs /><polygon fill="none" id="1" points="55,59 55,63 56,64 56,65 57,66 58,66 59,67 60,67 61,68 63,68 64,69 82,69 82,67 78,67 77,68 64,68 63,67 61,67 58,64 58,59" stroke="black" stroke-width="1" /><polygon fill="none" id="2" points="61,40 60,41 57,41 57,43 59,43 60,42 79,42 79,40" stroke="black" stroke-width="1" /><polygon fill="none" id="3" points="43,35 43,38 42,39 42,42 41,43 41,47 40,48 40,66 41,67 41,71 44,71 44,67 45,66 45,64 46,63 46,62 47,61 47,60 48,59 48,57 47,57 47,59 46,60 46,62 45,63 43,63 42,62 42,49 43,48 43,44 44,43 44,40 45,39 45,37 46,36 45,35" stroke="black" stroke-width="1" /></svg>