<?xml version="1.0" encoding="utf-8" ?>
<svg baseProfile="full" height="100" version="1.1" width="100" xmlns="http://www.w3.org/2000/svg" xmlns:ev="http://www.w3.org/2001/xml-events" xmlns:xlink="http://www.w3.org/1999/xlink"><defs /><polygon fill="none" id="1" points="35,57 35,64 36,65 36,67 37,68 38,68 39,69 40,69 41,70 55,70 55,64 53,64 52,65 50,65 49,66 44,66 43,65 42,65 39,62 39,57" stroke="black" stroke-width="1" /><polygon fill="none" id="2" points="39,38 38,39 36,39 36,41 37,42 37,44 40,44 41,43 54,43 54,38" stroke="black" stroke-width="1" /><polygon fill="none" id="3" points="27,33 27,36 26,37 26,42 25,43 25,72 30,72 30,67 31,66 31,64 32,63 32,61 33,60 33,55 30,55 29,54 29,47 30,46 30,40 31,39 31,33" stroke="black" stroke-width="1" /></svg>