<?xml version="1.0" encoding="utf-8" ?>
<svg baseProfile="full" height="100" version="1.1" width="100" xmlns="http://www.w3.org/2000/svg" xmlns:ev="http://www.w3.org/2001/xml-events" xmlns:xlink="http://www.w3.org/1999/xlink"><defs /><polygon fill="none" id="1" points="44,38 43,39 41,39 41,44 45,44 46,43 60,43 60,38" stroke="black" stroke-width="1" /><polygon fill="none" id="2" points="30,33 30,39 29,40 29,45 28,46 28,65 29,66 29,72 34,72 34,66 35,65 35,63 36,62 36,61 37,60 37,59 38,58 39,59 39,62 40,63 40,66 42,68 43,68 44,69 45,69 46,70 62,70 62,64 60,64 59,65 57,65 56,66 49,66 48,65 47,65 44,62 44,57 40,57 39,58 38,57 38,56 37,55 34,55 33,56 32,55 32,52 33,51 33,44 34,43 34,39 35,38 35,33" stroke="black" stroke-width="1" /></svg>