<?xml version="1.0" encoding="utf-8" ?>
<svg baseProfile="full" height="100" version="1.1" width="100" xmlns="http://www.w3.org/2000/svg" xmlns:ev="http://www.w3.org/2001/xml-events" xmlns:xlink="http://www.w3.org/1999/xlink"><defs /><polygon fill="none" id="1" points="44,57 44,64 45,65 45,66 47,68 48,68 49,69 51,69 52,70 69,70 69,64 67,64 66,65 63,65 62,66 54,66 53,65 52,65 49,62 49,57" stroke="black" stroke-width="1" /><polygon fill="none" id="2" points="49,38 48,39 46,39 46,44 50,44 51,43 67,43 67,38" stroke="black" stroke-width="1" /><polygon fill="none" id="3" points="34,33 34,36 33,37 33,41 32,42 32,47 31,48 31,63 32,64 32,72 37,72 38,71 38,66 39,65 39,63 40,62 40,61 41,60 41,59 42,58 42,56 41,55 38,55 37,56 36,55 36,49 37,48 37,43 38,42 38,39 39,38 39,34 38,33" stroke="black" stroke-width="1" /></svg>