<?xml version="1.0" encoding="utf-8" ?>
<svg baseProfile="full" height="100" version="1.1" width="100" xmlns="http://www.w3.org/2000/svg" xmlns:ev="http://www.w3.org/2001/xml-events" xmlns:xlink="http://www.w3.org/1999/xlink"><defs /><polygon fill="none" id="1" points="49,57 48,58 48,62 49,63 49,65 52,68 53,68 54,69 56,69 57,70 76,70 76,64 74,64 73,65 69,65 68,66 60,66 59,65 57,65 54,62 54,57" stroke="black" stroke-width="1" /><polygon fill="none" id="2" points="54,38 53,39 51,39 51,44 55,44 56,43 74,43 74,38" stroke="black" stroke-width="1" /><polygon fill="none" id="3" points="37,33 37,37 36,38 36,42 35,43 35,49 34,50 34,61 35,62 35,72 41,72 41,68 42,67 42,66 43,65 43,63 44,62 44,61 45,60 45,59 46,58 46,56 45,55 42,55 41,56 40,55 40,47 41,46 41,42 42,41 42,39 43,38 43,34 42,33" stroke="black" stroke-width="1" /><polygon fill="none" id="4" points="39,56 40,55 41,56 41,57 40,58 39,57" stroke="black" stroke-width="1" /></svg>