<?xml version="1.0" encoding="utf-8" ?>
<svg baseProfile="full" height="100" version="1.1" width="100" xmlns="http://www.w3.org/2000/svg" xmlns:ev="http://www.w3.org/2001/xml-events" xmlns:xlink="http://www.w3.org/1999/xlink"><defs /><polygon fill="none" id="1" points="53,57 53,64 54,65 54,66 55,67 56,67 57,68 58,68 59,69 61,69 62,70 83,70 83,65 76,65 75,66 65,66 64,65 62,65 59,62 59,57" stroke="black" stroke-width="1" /><polygon fill="none" id="2" points="59,38 58,39 55,39 55,44 60,44 61,43 80,43 80,38" stroke="black" stroke-width="1" /><polygon fill="none" id="3" points="41,33 41,36 40,37 40,40 39,41 39,45 38,46 38,67 39,68 39,72 45,72 45,68 46,67 46,65 47,64 47,63 48,62 48,61 49,60 49,59 50,58 50,56 49,55 45,55 45,57 44,58 43,57 43,50 44,49 44,45 45,44 45,41 46,40 46,38 47,37 47,34 46,33" stroke="black" stroke-width="1" /></svg>