<?xml version="1.0" encoding="utf-8" ?>
<svg baseProfile="full" height="100" version="1.1" width="100" xmlns="http://www.w3.org/2000/svg" xmlns:ev="http://www.w3.org/2001/xml-events" xmlns:xlink="http://www.w3.org/1999/xlink"><defs /><polygon fill="none" id="1" points="52,67 51,68 43,68 53,68 53,67" stroke="black" stroke-width="1" /><polygon fill="none" id="2" points="41,67" stroke="black" stroke-width="1" /><polygon fill="none" id="3" points="38,65 39,66" stroke="black" stroke-width="1" /><polygon fill="none" id="4" points="37,59 37,62" stroke="black" stroke-width="1" /><polygon fill="none" id="5" points="41,40 40,41 39,41 52,41 52,40" stroke="black" stroke-width="1" /><polygon fill="none" id="6" points="28,39 28,44 27,45 27,70 28,70 28,65 29,64 29,63 28,63 27,62 27,45 28,44" stroke="black" stroke-width="1" /><polygon fill="none" id="7" points="29,35 29,37" stroke="black" stroke-width="1" /></svg>