<?xml version="1.0" encoding="utf-8" ?>
<svg baseProfile="full" height="100" version="1.1" width="100" xmlns="http://www.w3.org/2000/svg" xmlns:ev="http://www.w3.org/2001/xml-events" xmlns:xlink="http://www.w3.org/1999/xlink"><defs /><polygon fill="none" id="1" points="59,67 58,68 48,68 60,68 60,67" stroke="black" stroke-width="1" /><polygon fill="none" id="2" points="46,67" stroke="black" stroke-width="1" /><polygon fill="none" id="3" points="42,59 41,60 42,61 42,64 44,66 42,64" stroke="black" stroke-width="1" /><polygon fill="none" id="4" points="35,58" stroke="black" stroke-width="1" /><polygon fill="none" id="5" points="46,40 45,41 43,41 43,42 44,41 58,41 58,40" stroke="black" stroke-width="1" /><polygon fill="none" id="6" points="32,35 32,41 31,42 31,47 30,48 30,63 31,64 31,70 32,70 32,64 33,63 31,63 30,62 30,50 31,49 31,42 32,41 32,37 33,36 33,35" stroke="black" stroke-width="1" /></svg>