<?xml version="1.0" encoding="utf-8" ?>
<svg baseProfile="full" height="100" version="1.1" width="100" xmlns="http://www.w3.org/2000/svg" xmlns:ev="http://www.w3.org/2001/xml-events" xmlns:xlink="http://www.w3.org/1999/xlink"><defs /><polygon fill="none" id="1" points="65,67 64,68 54,68 67,68 67,67" stroke="black" stroke-width="1" /><polygon fill="none" id="2" points="51,67" stroke="black" stroke-width="1" /><polygon fill="none" id="3" points="46,59 46,62 47,63 47,64 49,66 47,64 47,59" stroke="black" stroke-width="1" /><polygon fill="none" id="4" points="39,58" stroke="black" stroke-width="1" /><polygon fill="none" id="5" points="51,40 50,41 48,41 48,42 49,41 65,41 65,40" stroke="black" stroke-width="1" /><polygon fill="none" id="6" points="36,35 36,38 35,39 35,43 34,44 34,49 33,50 33,61 34,62 34,70 35,70 35,67 36,66 36,64 37,63 35,63 34,62 34,47 35,46 35,41 36,40 36,37 37,36" stroke="black" stroke-width="1" /></svg>