<?xml version="1.0" encoding="utf-8" ?>
<svg baseProfile="full" height="100" version="1.1" width="100" xmlns="http://www.w3.org/2000/svg" xmlns:ev="http://www.w3.org/2001/xml-events" xmlns:xlink="http://www.w3.org/1999/xlink"><defs /><polygon fill="none" id="1" points="71,67 70,68 59,68 74,68 74,67" stroke="black" stroke-width="1" /><polygon fill="none" id="2" points="56,67 57,67" stroke="black" stroke-width="1" /><polygon fill="none" id="3" points="42,60" stroke="black" stroke-width="1" /><polygon fill="none" id="4" points="51,59 50,60 51,61 51,63 54,66 52,64 52,59" stroke="black" stroke-width="1" /><polygon fill="none" id="5" points="43,58" stroke="black" stroke-width="1" /><polygon fill="none" id="6" points="56,40 55,41 53,41 53,42 54,41 72,41 72,40" stroke="black" stroke-width="1" /><polygon fill="none" id="7" points="39,35 39,39 38,40 38,44 37,45 37,51 36,52 36,59 37,60 37,70 39,70 39,66 40,65 40,64 41,63 38,63 37,62 37,54 38,53 38,45 39,44 39,40 40,39 40,37 41,36 40,35" stroke="black" stroke-width="1" /></svg>