<?xml version="1.0" encoding="utf-8" ?>
<svg baseProfile="full" height="100" version="1.1" width="100" xmlns="http://www.w3.org/2000/svg" xmlns:ev="http://www.w3.org/2001/xml-events" xmlns:xlink="http://www.w3.org/1999/xlink"><defs /><polygon fill="none" id="1" points="38,42 37,43 35,43 34,44 32,44 31,45 29,45 28,46 27,46 28,47 28,49 29,49 30,48 31,48 32,47 33,47 34,46 35,46 36,45 38,45 39,44 43,44 44,45 45,45 46,46 46,48 47,49 47,56 46,57 46,59 45,60 45,61 39,67 38,67 37,68 34,68 34,69 36,71 37,71 38,70 39,70 40,69 41,69 47,63 47,62 48,61 48,59 49,58 49,47 48,46 48,45 46,43 45,43 44,42" stroke="black" stroke-width="1" /><polygon fill="none" id="2" points="34,30 34,31 33,32 34,33 36,33 37,34 38,34 39,35 40,35 41,36 42,36 43,37 44,37 45,36 45,34 44,34 43,33 42,33 41,32 40,32 39,31 38,31 37,30" stroke="black" stroke-width="1" /></svg>