<?xml version="1.0" encoding="utf-8" ?>
<svg baseProfile="full" height="100" version="1.1" width="100" xmlns="http://www.w3.org/2000/svg" xmlns:ev="http://www.w3.org/2001/xml-events" xmlns:xlink="http://www.w3.org/1999/xlink"><defs /><polygon fill="none" id="1" points="78,67 77,68 64,68 81,68 81,67" stroke="black" stroke-width="1" /><polygon fill="none" id="2" points="61,67 62,67" stroke="black" stroke-width="1" /><polygon fill="none" id="3" points="46,60" stroke="black" stroke-width="1" /><polygon fill="none" id="4" points="55,59 55,62 56,63 56,64 57,65 58,65 59,66 57,64 57,59" stroke="black" stroke-width="1" /><polygon fill="none" id="5" points="47,57 47,58" stroke="black" stroke-width="1" /><polygon fill="none" id="6" points="61,40 60,41 57,41 57,42 58,42 59,41 78,41 78,40" stroke="black" stroke-width="1" /><polygon fill="none" id="7" points="43,35 43,38 42,39 42,42 41,43 41,47 40,48 40,65 41,66 41,70 43,70 43,66 44,65 44,63 42,63 41,62 41,48 42,47 42,43 43,42 43,39 44,38 44,35" stroke="black" stroke-width="1" /></svg>