<?xml version="1.0" encoding="utf-8" ?>
<svg baseProfile="full" height="100" version="1.1" width="100" xmlns="http://www.w3.org/2000/svg" xmlns:ev="http://www.w3.org/2001/xml-events" xmlns:xlink="http://www.w3.org/1999/xlink"><defs /><polygon fill="none" id="1" points="50,33 50,41 49,42 47,42 46,43 44,43 43,44 42,44 41,45 40,45 38,47 36,45 36,43 35,42 35,39 34,38 34,37 33,38 32,38 32,41 33,42 33,44 34,45 34,46 35,47 35,49 34,50 34,51 32,53 32,54 31,55 31,56 30,57 30,67 31,68 31,69 32,69 33,70 36,70 37,69 38,69 43,64 45,66 45,65 46,64 46,63 45,62 45,60 46,59 46,58 47,57 47,56 48,55 48,54 49,53 49,51 50,50 50,48 51,47 51,45 52,44 57,44 58,45 59,45 60,46 61,46 64,49 64,50 65,51 65,55 66,56 65,57 65,61 64,62 63,62 62,61 61,61 60,60 54,60 53,61 52,61 50,63 50,68 53,71 59,71 60,70 61,70 62,69 63,69 64,68 64,67 65,66 66,66 68,68 68,69 69,70 71,68 71,67 69,65 68,65 67,64 67,62 68,61 68,51 67,50 67,49 66,48 66,47 63,44 62,44 61,43 60,43 59,42 53,42 52,41 52,39 53,38 53,34 52,34 51,33" stroke="black" stroke-width="1" /><polygon fill="none" id="2" points="54,63 55,62 59,62 60,63 61,63 63,65 60,68 59,68 58,69 54,69 52,67 52,64 53,63" stroke="black" stroke-width="1" /><polygon fill="none" id="3" points="36,52 38,54 38,56 39,57 39,58 41,60 41,62 40,63 40,64 36,68 34,68 32,66 32,60 33,59 33,57 34,56 34,54" stroke="black" stroke-width="1" /><polygon fill="none" id="4" points="46,45 47,44 48,44 49,45 48,46 48,48 47,49 47,51 46,52 46,54 45,55 45,56 43,58 41,56 41,55 40,54 40,53 39,52 39,51 38,50 38,49 39,48 40,48 41,47 42,47 43,46 44,46 45,45" stroke="black" stroke-width="1" /></svg>