<?xml version="1.0" encoding="utf-8" ?>
<svg baseProfile="full" height="100" version="1.1" width="100" xmlns="http://www.w3.org/2000/svg" xmlns:ev="http://www.w3.org/2001/xml-events" xmlns:xlink="http://www.w3.org/1999/xlink"><defs /><polygon fill="none" id="1" points="55,33 55,40 53,42 52,42 51,43 48,43 47,44 46,44 45,45 44,45 42,47 40,45 40,43 39,42 39,40 38,39 38,37 37,37 36,38 35,38 35,40 36,41 36,43 37,44 37,45 38,46 38,47 39,48 39,49 35,53 35,54 34,55 34,56 33,57 33,67 36,70 40,70 41,69 42,69 47,64 48,64 49,65 50,65 51,64 51,63 49,61 51,59 51,58 52,57 52,56 53,55 53,54 54,53 54,51 55,50 55,48 56,47 56,45 57,44 63,44 64,45 65,45 66,46 67,46 71,50 71,51 72,52 72,61 71,62 69,62 68,61 67,61 66,60 59,60 58,61 57,61 55,63 55,68 57,70 58,70 59,71 65,71 66,70 68,70 72,66 76,70 78,68 78,67 76,65 75,65 74,64 74,62 75,61 75,51 74,50 74,49 73,48 73,47 72,46 71,46 69,44 68,44 67,43 66,43 65,42 58,42 57,41 57,39 58,38 58,36 59,35 59,34 57,34 56,33" stroke="black" stroke-width="1" /><polygon fill="none" id="2" points="59,63 60,62 64,62 65,63 68,63 69,64 69,65 66,68 65,68 64,69 60,69 59,68 58,68 57,67 57,64 58,63" stroke="black" stroke-width="1" /><polygon fill="none" id="3" points="38,53 39,52 40,52 41,53 41,54 42,55 42,56 43,57 43,58 46,61 44,63 44,64 41,67 40,67 39,68 37,68 36,67 36,66 35,65 35,60 36,59 36,57 37,56 37,55 38,54" stroke="black" stroke-width="1" /><polygon fill="none" id="4" points="50,45 51,44 53,44 54,45 53,46 53,48 52,49 52,51 51,52 51,53 50,54 50,55 49,56 49,57 48,58 47,58 45,56 45,55 44,54 44,53 43,52 43,51 42,50 42,49 43,48 44,48 45,47 46,47 47,46 48,46 49,45" stroke="black" stroke-width="1" /></svg>