<?xml version="1.0" encoding="utf-8" ?>
<svg baseProfile="full" height="100" version="1.1" width="100" xmlns="http://www.w3.org/2000/svg" xmlns:ev="http://www.w3.org/2001/xml-events" xmlns:xlink="http://www.w3.org/1999/xlink"><defs /><polygon fill="none" id="1" points="40,33 40,41 39,42 38,42 37,43 35,43 34,44 33,44 30,47 29,46 29,43 28,42 28,39 27,38 27,37 26,38 25,38 25,39 26,40 26,43 27,44 27,46 28,47 28,50 26,52 26,53 25,54 25,56 24,57 24,67 25,68 25,69 26,70 29,70 33,66 33,65 34,64 35,65 36,65 37,64 37,63 36,62 36,60 37,59 37,57 38,56 38,54 39,53 39,51 40,50 40,47 41,46 41,45 42,44 46,44 51,49 51,50 52,51 52,61 51,62 50,62 49,61 48,61 47,60 43,60 40,63 40,68 41,69 41,70 42,70 43,71 47,71 48,70 49,70 51,68 51,67 52,66 55,69 55,70 57,68 57,67 53,63 54,62 54,50 53,49 53,48 52,47 52,46 49,43 48,43 47,42 42,42 41,41 41,40 42,39 42,35 43,34 42,34 41,33" stroke="black" stroke-width="1" /><polygon fill="none" id="2" points="44,62 47,62 48,63 49,63 50,64 50,66 48,68 47,68 46,69 43,69 42,68 42,67 41,66 41,65" stroke="black" stroke-width="1" /><polygon fill="none" id="3" points="29,52 30,53 30,55 31,56 31,57 32,58 32,59 33,60 33,62 32,63 32,64 28,68 27,68 26,67 26,64 25,63 26,62 26,57 27,56 27,54" stroke="black" stroke-width="1" /><polygon fill="none" id="4" points="37,44 38,44 39,45 39,46 38,47 38,50 37,51 37,53 36,54 36,57 35,58 34,58 33,57 33,56 32,55 32,53 31,52 31,51 30,50 34,46 35,46" stroke="black" stroke-width="1" /></svg>