<?xml version="1.0" encoding="utf-8" ?>
<svg baseProfile="full" height="100" version="1.1" width="100" xmlns="http://www.w3.org/2000/svg" xmlns:ev="http://www.w3.org/2001/xml-events" xmlns:xlink="http://www.w3.org/1999/xlink"><defs /><polygon fill="none" id="1" points="45,33 45,41 44,42 42,42 41,43 40,43 39,44 38,44 37,45 36,45 34,47 33,46 33,45 32,44 32,41 31,40 31,37 30,37 29,38 28,38 28,39 29,40 29,41 30,42 30,45 31,46 31,47 32,48 32,49 30,51 30,52 29,53 29,54 28,55 28,56 27,57 27,67 28,68 28,69 29,70 33,70 39,64 40,65 41,65 42,64 42,63 40,61 41,60 41,59 42,58 42,57 43,56 43,54 44,53 44,51 45,50 45,48 46,47 46,45 47,44 51,44 52,45 53,45 54,46 55,46 57,48 57,49 58,50 58,52 59,53 59,61 58,62 57,62 56,61 54,61 53,60 48,60 45,63 45,68 48,71 53,71 54,70 55,70 59,66 62,69 62,70 64,68 64,67 62,65 61,65 60,64 60,62 61,61 61,50 60,49 60,48 55,43 54,43 53,42 48,42 47,41 47,38 48,37 48,34 47,34 46,33" stroke="black" stroke-width="1" /><polygon fill="none" id="2" points="49,62 53,62 54,63 55,63 57,65 54,68 53,68 52,69 49,69 47,67 47,64" stroke="black" stroke-width="1" /><polygon fill="none" id="3" points="31,53 32,52 34,54 34,56 35,57 35,58 37,60 37,62 36,63 36,64 32,68 31,68 29,66 29,59 30,58 30,55 31,54" stroke="black" stroke-width="1" /><polygon fill="none" id="4" points="41,45 42,44 43,44 44,45 44,46 43,47 43,49 42,50 42,52 41,53 41,55 40,56 40,57 39,58 38,58 37,57 37,55 36,54 36,53 35,52 35,51 34,50 38,46 39,46 40,45" stroke="black" stroke-width="1" /></svg>