<?xml version="1.0" encoding="utf-8" ?>
<svg baseProfile="full" height="100" version="1.1" width="100" xmlns="http://www.w3.org/2000/svg" xmlns:ev="http://www.w3.org/2001/xml-events" xmlns:xlink="http://www.w3.org/1999/xlink"><defs /><polygon fill="none" id="1" points="43,42 42,43 39,43 38,44 36,44 35,45 32,45 31,46 30,46 31,47 31,48 32,49 33,49 34,48 35,48 36,47 37,47 38,46 40,46 41,45 43,45 44,44 49,44 52,47 52,48 53,49 53,55 52,56 52,58 51,59 51,60 50,61 50,62 47,65 46,65 44,67 42,67 41,68 39,68 39,70 40,71 42,71 43,70 44,70 45,69 46,69 47,68 48,68 53,63 53,62 54,61 54,60 55,59 55,56 56,55 56,50 55,49 55,46 52,43 51,43 50,42" stroke="black" stroke-width="1" /><polygon fill="none" id="2" points="39,30 38,31 38,33 41,33 42,34 43,34 44,35 45,35 46,36 47,36 48,37 50,37 50,36 51,35 50,34 49,34 48,33 47,33 46,32 45,32 44,31 42,31 41,30" stroke="black" stroke-width="1" /></svg>