<?xml version="1.0" encoding="utf-8" ?>
<svg baseProfile="full" height="100" version="1.1" width="100" xmlns="http://www.w3.org/2000/svg" xmlns:ev="http://www.w3.org/2001/xml-events" xmlns:xlink="http://www.w3.org/1999/xlink"><defs /><polygon fill="none" id="1" points="60,33 60,40 58,42 56,42 55,43 53,43 52,44 50,44 49,45 48,45 46,47 45,47 44,46 44,45 43,44 43,42 42,41 42,39 41,38 41,37 40,38 38,38 38,40 39,41 39,42 40,43 40,44 41,45 41,46 42,47 42,49 41,50 41,51 37,55 37,56 36,57 36,67 39,70 44,70 45,69 46,69 51,64 52,64 54,66 56,64 56,63 55,63 54,62 54,60 57,57 57,56 58,55 58,54 59,53 59,51 60,50 60,48 61,47 61,45 62,44 69,44 70,45 71,45 72,46 73,46 75,48 76,48 77,49 77,50 78,51 78,54 79,55 79,56 78,57 78,61 77,62 76,62 75,61 73,61 72,60 64,60 63,61 62,61 60,63 60,68 62,70 63,70 64,71 71,71 72,70 74,70 75,69 76,69 77,68 77,67 78,66 79,66 83,70 86,67 85,67 83,65 82,65 80,63 81,62 81,61 82,60 82,51 81,50 81,49 77,45 76,45 75,44 74,44 73,43 72,43 71,42 64,42 63,41 63,38 64,37 64,34 62,34 61,33" stroke="black" stroke-width="1" /><polygon fill="none" id="2" points="65,62 70,62 71,63 74,63 76,65 75,66 74,66 72,68 71,68 70,69 65,69 62,66 62,65" stroke="black" stroke-width="1" /><polygon fill="none" id="3" points="43,52 44,52 45,53 45,54 46,55 46,56 47,57 47,58 50,61 48,63 48,64 46,66 45,66 43,68 41,68 39,66 39,59 40,58 40,56 41,55 41,54" stroke="black" stroke-width="1" /><polygon fill="none" id="4" points="55,45 56,44 58,44 59,45 58,46 58,47 57,48 57,49 56,50 56,52 55,53 55,54 54,55 54,56 52,58 51,58 49,56 49,55 48,54 48,53 47,52 47,51 46,50 46,49 47,48 48,48 49,47 50,47 51,46 52,46 53,45" stroke="black" stroke-width="1" /></svg>