<?xml version="1.0" encoding="utf-8" ?>
<svg baseProfile="full" height="100" version="1.1" width="100" xmlns="http://www.w3.org/2000/svg" xmlns:ev="http://www.w3.org/2001/xml-events" xmlns:xlink="http://www.w3.org/1999/xlink"><defs /><polygon fill="none" id="1" points="40,33 40,41 39,42 38,42 37,43 35,43 34,44 33,44 31,46 30,45 30,43 29,42 29,39 28,38 28,37 27,37 26,38 25,38 25,40 26,41 26,44 27,45 27,47 28,48 28,50 26,52 26,53 25,54 25,56 24,57 24,68 25,69 25,70 26,71 30,71 35,66 37,66 38,65 38,63 37,62 37,61 38,60 38,58 39,57 39,55 40,54 40,52 41,51 41,48 42,47 42,46 43,45 46,45 51,50 51,51 52,52 52,61 51,62 50,61 49,61 48,60 43,60 40,63 40,69 41,70 41,71 42,71 43,72 48,72 49,71 50,71 53,68 55,70 55,71 56,71 58,69 58,67 55,64 55,50 54,49 54,48 53,47 53,46 50,43 49,43 48,42 43,42 42,41 43,40 43,36 44,35 44,34 43,34 42,33" stroke="black" stroke-width="1" /><polygon fill="none" id="2" points="45,63 47,63 48,64 49,64 50,65 50,66 48,68 47,68 46,69 44,69 43,68 43,67 42,66" stroke="black" stroke-width="1" /><polygon fill="none" id="3" points="28,55 29,54 30,55 30,56 31,57 31,58 32,59 32,60 33,61 33,62 32,63 32,64 28,68 27,67 27,58 28,57" stroke="black" stroke-width="1" /><polygon fill="none" id="4" points="36,47 37,46 38,47 38,50 37,51 37,53 36,54 36,57 35,58 34,57 34,56 33,55 33,53 32,52 32,50 35,47" stroke="black" stroke-width="1" /><polygon fill="none" id="5" points="37,46 38,45 39,46 38,47" stroke="black" stroke-width="1" /></svg>