<?xml version="1.0" encoding="utf-8" ?>
<svg baseProfile="full" height="100" version="1.1" width="100" xmlns="http://www.w3.org/2000/svg" xmlns:ev="http://www.w3.org/2001/xml-events" xmlns:xlink="http://www.w3.org/1999/xlink"><defs /><polygon fill="none" id="1" points="45,33 45,41 44,42 42,42 41,43 40,43 39,44 38,44 37,45 36,45 35,46 33,44 33,41 32,40 32,37 30,37 29,38 28,38 28,40 29,41 29,42 30,43 30,46 31,47 31,48 32,49 30,51 30,52 29,53 29,54 28,55 28,56 27,57 27,68 28,69 28,70 29,71 34,71 39,66 42,66 43,65 43,63 42,62 42,60 43,59 43,58 44,57 44,55 45,54 45,52 46,51 46,49 47,48 47,46 48,45 51,45 52,46 53,46 54,47 55,47 57,49 57,50 58,51 58,53 59,54 59,61 58,62 57,61 55,61 54,60 48,60 45,63 45,69 48,72 54,72 55,71 56,71 59,68 60,68 62,70 62,71 63,71 65,69 65,67 63,65 62,65 61,64 61,63 62,62 62,50 61,49 61,48 56,43 55,43 54,42 49,42 48,41 48,39 49,38 49,34 48,34 47,33" stroke="black" stroke-width="1" /><polygon fill="none" id="2" points="50,63 53,63 54,64 55,64 56,65 56,66 54,68 53,68 52,69 50,69 48,67 48,65" stroke="black" stroke-width="1" /><polygon fill="none" id="3" points="33,54 34,55 34,57 35,58 35,59 37,61 37,62 36,63 36,64 32,68 30,66 30,60 31,59 31,56" stroke="black" stroke-width="1" /><polygon fill="none" id="4" points="40,47 41,46 42,46 43,47 43,49 42,50 42,52 41,53 41,55 40,56 40,57 39,58 38,57 38,55 37,54 37,53 36,52 36,50 39,47" stroke="black" stroke-width="1" /><polygon fill="none" id="5" points="42,46 43,45 44,46 43,47" stroke="black" stroke-width="1" /></svg>