<?xml version="1.0" encoding="utf-8" ?>
<svg baseProfile="full" height="100" version="1.1" width="100" xmlns="http://www.w3.org/2000/svg" xmlns:ev="http://www.w3.org/2001/xml-events" xmlns:xlink="http://www.w3.org/1999/xlink"><defs /><polygon fill="none" id="1" points="50,33 50,41 49,42 47,42 46,43 44,43 43,44 42,44 41,45 40,45 39,46 38,46 37,45 37,43 36,42 36,39 35,38 35,37 34,37 33,38 32,38 32,42 33,43 33,45 34,46 34,47 35,48 35,49 34,50 34,51 32,53 32,54 31,55 31,56 30,57 30,68 31,69 31,70 32,70 33,71 37,71 38,70 39,70 43,66 44,66 45,67 46,67 46,66 47,65 47,63 46,62 46,61 47,60 47,59 48,58 48,57 49,56 49,55 50,54 50,52 51,51 51,49 52,48 52,46 53,45 57,45 58,46 59,46 60,47 61,47 64,50 64,51 65,52 65,61 64,62 63,61 62,61 61,60 54,60 53,61 52,61 50,63 50,69 53,72 60,72 61,71 62,71 63,70 64,70 65,69 65,68 66,67 68,69 68,70 69,71 70,71 72,69 72,67 70,65 69,65 68,64 68,63 69,62 69,51 68,50 68,49 67,48 67,47 64,44 63,44 62,43 61,43 60,42 54,42 53,41 53,40 54,39 54,34 53,34 52,33" stroke="black" stroke-width="1" /><polygon fill="none" id="2" points="55,64 56,63 59,63 60,64 61,64 62,65 62,66 60,68 59,68 58,69 55,69 53,67 53,65 54,64" stroke="black" stroke-width="1" /><polygon fill="none" id="3" points="35,55 36,54 37,54 38,55 38,57 39,58 39,59 41,61 41,62 40,63 40,64 36,68 35,68 33,66 33,61 34,60 34,58 35,57" stroke="black" stroke-width="1" /><polygon fill="none" id="4" points="45,47 46,46 47,46 48,47 48,48 47,49 47,51 46,52 46,54 45,55 45,56 44,57 43,57 42,56 42,55 41,54 41,53 40,52 40,51 39,50 40,49 41,49 42,48 43,48 44,47" stroke="black" stroke-width="1" /></svg>