<?xml version="1.0" encoding="utf-8" ?>
<svg baseProfile="full" height="100" version="1.1" width="100" xmlns="http://www.w3.org/2000/svg" xmlns:ev="http://www.w3.org/2001/xml-events" xmlns:xlink="http://www.w3.org/1999/xlink"><defs /><polygon fill="none" id="1" points="55,33 55,40 53,42 52,42 51,43 48,43 47,44 46,44 45,45 44,45 43,46 42,46 41,45 41,43 40,42 40,40 39,39 39,37 37,37 36,38 35,38 35,41 36,42 36,44 37,45 37,46 38,47 38,48 39,49 35,53 35,54 34,55 34,56 33,57 33,68 36,71 41,71 42,70 43,70 48,65 49,66 51,66 52,65 52,63 51,62 51,61 52,60 52,59 53,58 53,57 54,56 54,55 55,54 55,52 56,51 56,49 57,48 57,46 58,45 63,45 64,46 65,46 66,47 67,47 71,51 71,52 72,53 72,61 71,62 70,62 69,61 68,61 67,60 59,60 58,61 57,61 55,63 55,69 57,71 58,71 59,72 66,72 67,71 69,71 72,68 73,68 76,71 77,71 79,69 79,67 77,65 76,65 75,64 75,63 76,62 76,51 75,50 75,49 74,48 74,47 73,46 72,46 70,44 69,44 68,43 67,43 66,42 59,42 58,41 58,40 59,39 59,37 60,36 60,34 58,34 57,33" stroke="black" stroke-width="1" /><polygon fill="none" id="2" points="60,64 61,63 64,63 65,64 68,64 69,65 66,68 65,68 64,69 61,69 60,68 59,68 58,67 58,65 59,64" stroke="black" stroke-width="1" /><polygon fill="none" id="3" points="39,54 40,53 41,54 41,55 42,56 42,57 43,58 43,59 45,61 45,62 44,63 44,64 41,67 40,67 39,68 38,68 37,67 37,66 36,65 36,61 37,60 37,58 38,57 38,56 39,55" stroke="black" stroke-width="1" /><polygon fill="none" id="4" points="51,46 52,45 53,46 53,48 52,49 52,51 51,52 51,53 50,54 50,55 49,56 49,57 48,58 46,56 46,55 45,54 45,53 44,52 44,51 43,50 44,49 45,49 46,48 47,48 48,47 49,47 50,46" stroke="black" stroke-width="1" /></svg>