<?xml version="1.0" encoding="utf-8" ?>
<svg baseProfile="full" height="100" version="1.1" width="100" xmlns="http://www.w3.org/2000/svg" xmlns:ev="http://www.w3.org/2001/xml-events" xmlns:xlink="http://www.w3.org/1999/xlink"><defs /><polygon fill="none" id="1" points="60,33 60,40 58,42 56,42 55,43 53,43 52,44 50,44 49,45 48,45 46,47 45,46 45,45 44,44 44,42 43,41 43,39 42,38 42,37 41,37 40,38 38,38 38,41 39,42 39,43 40,44 40,45 41,46 41,47 42,48 42,49 41,50 41,51 37,55 37,56 36,57 36,68 39,71 45,71 46,70 47,70 52,65 54,67 55,67 57,65 57,63 56,63 55,62 55,61 58,58 58,57 59,56 59,55 60,54 60,52 61,51 61,49 62,48 62,46 63,45 69,45 70,46 71,46 72,47 73,47 75,49 76,49 77,50 77,51 78,52 78,55 79,56 78,57 78,61 77,62 76,61 74,61 73,60 64,60 63,61 62,61 60,63 60,69 62,71 63,71 64,72 72,72 73,71 75,71 76,70 77,70 78,69 78,68 79,67 83,71 84,71 87,68 87,67 86,67 84,65 83,65 82,64 82,62 83,61 83,51 82,50 82,49 78,45 77,45 76,44 75,44 74,43 73,43 72,42 65,42 64,41 64,39 65,38 65,34 63,34 62,33" stroke="black" stroke-width="1" /><polygon fill="none" id="2" points="66,63 70,63 71,64 74,64 75,65 72,68 71,68 70,69 66,69 63,66" stroke="black" stroke-width="1" /><polygon fill="none" id="3" points="44,53 45,54 45,55 46,56 46,57 47,58 47,59 49,61 49,62 48,63 48,64 46,66 45,66 43,68 42,68 40,66 40,60 41,59 41,57 42,56 42,55" stroke="black" stroke-width="1" /><polygon fill="none" id="4" points="56,46 57,45 58,46 58,47 57,48 57,49 56,50 56,52 55,53 55,54 54,55 54,56 52,58 50,56 50,55 49,54 49,53 48,52 48,51 47,50 48,49 49,49 50,48 51,48 52,47 53,47 54,46" stroke="black" stroke-width="1" /></svg>