<?xml version="1.0" encoding="utf-8" ?>
<svg baseProfile="full" height="100" version="1.1" width="100" xmlns="http://www.w3.org/2000/svg" xmlns:ev="http://www.w3.org/2001/xml-events" xmlns:xlink="http://www.w3.org/1999/xlink"><defs /><polygon fill="none" id="1" points="41,34 41,42 40,43 39,43 38,44 36,44 35,45 34,45 31,48 30,48 29,47 29,44 28,43 28,40 27,39 26,39 27,40 27,43 28,44 28,46 29,47 29,51 27,53 27,54 26,55 26,57 25,58 25,67 26,68 26,69 27,70 29,70 33,66 33,65 34,64 35,64 36,65 37,64 36,63 36,60 37,59 37,57 38,56 38,54 39,53 39,51 40,50 40,47 41,46 41,45 42,44 47,44 52,49 52,50 53,51 53,62 52,63 50,63 49,62 48,62 47,61 44,61 41,64 41,68 42,69 42,70 43,70 44,71 47,71 48,70 49,70 51,68 51,67 52,66 53,66 56,69 57,68 53,64 53,63 54,62 54,51 53,50 53,49 52,48 52,47 49,44 48,44 47,43 42,43 41,42 41,40 42,39 42,35" stroke="black" stroke-width="1" /><polygon fill="none" id="2" points="44,62 48,62 49,63 50,63 51,64 51,67 49,69 48,69 47,70 43,70 42,69 42,68 41,67 41,65" stroke="black" stroke-width="1" /><polygon fill="none" id="3" points="29,52 30,52 31,53 31,55 32,56 32,57 33,58 33,59 34,60 34,63 33,64 33,65 29,69 27,69 26,68 26,65 25,64 25,63 26,62 26,57 27,56 27,54" stroke="black" stroke-width="1" /><polygon fill="none" id="4" points="37,44 39,44 40,45 40,47 39,48 39,51 38,52 38,54 37,55 37,58 36,59 34,59 33,58 33,57 32,56 32,54 31,53 31,52 30,51 30,50 34,46 35,46" stroke="black" stroke-width="1" /></svg>