<?xml version="1.0" encoding="utf-8" ?>
<svg baseProfile="full" height="100" version="1.1" width="100" xmlns="http://www.w3.org/2000/svg" xmlns:ev="http://www.w3.org/2001/xml-events" xmlns:xlink="http://www.w3.org/1999/xlink"><defs /><polygon fill="none" id="1" points="46,34 46,42 45,43 43,43 42,44 41,44 40,45 39,45 38,46 37,46 35,48 34,48 33,47 33,46 32,45 32,42 31,41 31,38 30,39 29,39 30,40 30,41 31,42 31,45 32,46 32,47 33,48 33,50 31,52 31,53 30,54 30,55 29,56 29,57 28,58 28,67 29,68 29,69 30,70 33,70 39,64 40,64 41,65 42,64 40,62 40,61 41,60 41,59 42,58 42,57 43,56 43,54 44,53 44,51 45,50 45,48 46,47 46,45 47,44 52,44 53,45 54,45 55,46 56,46 58,48 58,49 59,50 59,52 60,53 60,62 59,63 57,63 56,62 54,62 53,61 49,61 46,64 46,68 49,71 53,71 54,70 55,70 59,66 60,66 63,69 64,68 62,66 61,66 60,65 60,62 61,61 61,51 60,50 60,49 55,44 54,44 53,43 48,43 47,42 47,38 48,37 48,35 47,35" stroke="black" stroke-width="1" /><polygon fill="none" id="2" points="49,62 54,62 55,63 56,63 58,65 58,66 55,69 54,69 53,70 49,70 47,68 47,64" stroke="black" stroke-width="1" /><polygon fill="none" id="3" points="31,53 32,52 33,52 35,54 35,56 36,57 36,58 38,60 38,63 37,64 37,65 33,69 31,69 29,67 29,59 30,58 30,55 31,54" stroke="black" stroke-width="1" /><polygon fill="none" id="4" points="41,45 42,44 44,44 45,45 45,47 44,48 44,50 43,51 43,53 42,54 42,56 41,57 41,58 40,59 38,59 37,58 37,56 36,55 36,54 35,53 35,52 34,51 34,50 38,46 39,46 40,45" stroke="black" stroke-width="1" /></svg>