<?xml version="1.0" encoding="utf-8" ?>
<svg baseProfile="full" height="100" version="1.1" width="100" xmlns="http://www.w3.org/2000/svg" xmlns:ev="http://www.w3.org/2001/xml-events" xmlns:xlink="http://www.w3.org/1999/xlink"><defs /><polygon fill="none" id="1" points="51,34 51,42 50,43 48,43 47,44 45,44 44,45 43,45 42,46 41,46 39,48 38,48 36,46 36,44 35,43 35,40 34,39 33,39 33,41 34,42 34,44 35,45 35,46 36,47 36,50 35,51 35,52 33,54 33,55 32,56 32,57 31,58 31,67 32,68 32,69 33,69 34,70 36,70 37,69 38,69 43,64 44,64 45,65 46,64 45,63 45,60 46,59 46,58 47,57 47,56 48,55 48,54 49,53 49,51 50,50 50,48 51,47 51,45 52,44 58,44 59,45 60,45 61,46 62,46 65,49 65,50 66,51 66,55 67,56 67,57 66,58 66,62 65,63 63,63 62,62 61,62 60,61 55,61 54,62 53,62 51,64 51,68 54,71 59,71 60,70 61,70 62,69 63,69 64,68 64,67 65,66 67,66 69,68 69,69 70,69 71,68 69,66 68,66 67,65 67,62 68,61 68,52 67,51 67,50 66,49 66,48 63,45 62,45 61,44 60,44 59,43 53,43 52,42 52,39 53,38 53,35 52,35" stroke="black" stroke-width="1" /><polygon fill="none" id="2" points="54,63 55,62 60,62 61,63 62,63 64,65 64,66 61,69 60,69 59,70 54,70 52,68 52,64 53,63" stroke="black" stroke-width="1" /><polygon fill="none" id="3" points="36,52 37,52 39,54 39,56 40,57 40,58 42,60 42,63 41,64 41,65 37,69 34,69 32,67 32,60 33,59 33,57 34,56 34,54" stroke="black" stroke-width="1" /><polygon fill="none" id="4" points="46,45 47,44 49,44 50,45 50,46 49,47 49,49 48,50 48,52 47,53 47,55 46,56 46,57 44,59 43,59 41,57 41,56 40,55 40,54 39,53 39,52 38,51 38,49 39,48 40,48 41,47 42,47 43,46 44,46 45,45" stroke="black" stroke-width="1" /></svg>