<?xml version="1.0" encoding="utf-8" ?>
<svg baseProfile="full" height="100" version="1.1" width="100" xmlns="http://www.w3.org/2000/svg" xmlns:ev="http://www.w3.org/2001/xml-events" xmlns:xlink="http://www.w3.org/1999/xlink"><defs /><polygon fill="none" id="1" points="56,34 56,41 54,43 53,43 52,44 49,44 48,45 47,45 46,46 45,46 43,48 42,48 40,46 40,44 39,43 39,41 38,40 38,38 37,39 36,39 36,40 37,41 37,43 38,44 38,45 39,46 39,47 40,48 40,50 36,54 36,55 35,56 35,57 34,58 34,67 37,70 40,70 41,69 42,69 47,64 49,64 50,65 51,64 49,62 49,61 51,59 51,58 52,57 52,56 53,55 53,54 54,53 54,51 55,50 55,48 56,47 56,45 57,44 64,44 65,45 66,45 67,46 68,46 72,50 72,51 73,52 73,62 72,63 69,63 68,62 67,62 66,61 60,61 59,62 58,62 56,64 56,68 58,70 59,70 60,71 65,71 66,70 68,70 72,66 73,66 76,69 77,69 78,68 76,66 75,66 74,65 74,62 75,61 75,52 74,51 74,50 73,49 73,48 72,47 71,47 69,45 68,45 67,44 66,44 65,43 58,43 57,42 57,39 58,38 58,36 59,35 57,35" stroke="black" stroke-width="1" /><polygon fill="none" id="2" points="59,63 60,62 65,62 66,63 69,63 70,64 70,66 67,69 66,69 65,70 60,70 59,69 58,69 57,68 57,64 58,63" stroke="black" stroke-width="1" /><polygon fill="none" id="3" points="38,53 39,52 41,52 42,53 42,54 43,55 43,56 44,57 44,58 47,61 47,62 45,64 45,65 42,68 41,68 40,69 37,69 36,68 36,67 35,66 35,60 36,59 36,57 37,56 37,55 38,54" stroke="black" stroke-width="1" /><polygon fill="none" id="4" points="50,45 51,44 54,44 55,45 55,46 54,47 54,49 53,50 53,52 52,53 52,54 51,55 51,56 50,57 50,58 49,59 47,59 45,57 45,56 44,55 44,54 43,53 43,52 42,51 42,49 43,48 44,48 45,47 46,47 47,46 48,46 49,45" stroke="black" stroke-width="1" /></svg>