<?xml version="1.0" encoding="utf-8" ?>
<svg baseProfile="full" height="100" version="1.1" width="100" xmlns="http://www.w3.org/2000/svg" xmlns:ev="http://www.w3.org/2001/xml-events" xmlns:xlink="http://www.w3.org/1999/xlink"><defs /><polygon fill="none" id="1" points="48,42 47,43 43,43 42,44 40,44 39,45 36,45 35,46 34,46 35,47 35,49 37,49 38,48 39,48 40,47 41,47 42,46 44,46 45,45 48,45 49,44 54,44 55,45 56,45 58,47 58,49 59,50 59,55 58,56 58,58 57,59 57,60 52,65 51,65 50,66 49,66 48,67 47,67 46,68 43,68 43,69 45,71 47,71 48,70 49,70 50,69 51,69 52,68 53,68 54,67 55,67 59,63 59,62 60,61 60,60 61,59 61,57 62,56 62,49 61,48 61,46 58,43 57,43 56,42" stroke="black" stroke-width="1" /><polygon fill="none" id="2" points="43,30 42,31 42,33 45,33 46,34 48,34 49,35 51,35 53,37 55,37 56,36 56,34 55,34 54,33 52,33 51,32 50,32 49,31 47,31 46,30" stroke="black" stroke-width="1" /></svg>