<?xml version="1.0" encoding="utf-8" ?>
<svg baseProfile="full" height="100" version="1.1" width="100" xmlns="http://www.w3.org/2000/svg" xmlns:ev="http://www.w3.org/2001/xml-events" xmlns:xlink="http://www.w3.org/1999/xlink"><defs /><polygon fill="none" id="1" points="61,34 61,41 59,43 57,43 56,44 54,44 53,45 51,45 50,46 49,46 47,48 45,48 44,47 44,46 43,45 43,43 42,42 42,40 41,39 39,39 39,40 40,41 40,42 41,43 41,44 42,45 42,46 43,47 43,50 42,51 42,52 38,56 38,57 37,58 37,67 40,70 44,70 45,69 46,69 51,64 53,64 54,65 55,65 56,64 55,64 54,63 54,60 57,57 57,56 58,55 58,54 59,53 59,51 60,50 60,48 61,47 61,45 62,44 70,44 71,45 72,45 73,46 74,46 76,48 77,48 78,49 78,50 79,51 79,54 80,55 80,57 79,58 79,62 78,63 76,63 75,62 73,62 72,61 65,61 64,62 63,62 61,64 61,68 63,70 64,70 65,71 71,71 72,70 74,70 75,69 76,69 77,68 77,67 78,66 80,66 83,69 84,69 85,68 83,66 82,66 80,64 80,63 81,62 81,61 82,60 82,52 81,51 81,50 77,46 76,46 75,45 74,45 73,44 72,44 71,43 64,43 63,42 63,38 64,37 64,35 62,35" stroke="black" stroke-width="1" /><polygon fill="none" id="2" points="65,62 71,62 72,63 75,63 77,65 77,66 76,67 75,67 73,69 72,69 71,70 65,70 62,67 62,65" stroke="black" stroke-width="1" /><polygon fill="none" id="3" points="43,52 45,52 46,53 46,54 47,55 47,56 48,57 48,58 51,61 51,62 49,64 49,65 47,67 46,67 44,69 41,69 39,67 39,59 40,58 40,56 41,55 41,54" stroke="black" stroke-width="1" /><polygon fill="none" id="4" points="55,45 56,44 59,44 60,45 60,46 59,47 59,48 58,49 58,50 57,51 57,53 56,54 56,55 55,56 55,57 53,59 51,59 49,57 49,56 48,55 48,54 47,53 47,52 46,51 46,49 47,48 48,48 49,47 50,47 51,46 52,46 53,45" stroke="black" stroke-width="1" /></svg>