<?xml version="1.0" encoding="utf-8" ?>
<svg baseProfile="full" height="100" version="1.1" width="100" xmlns="http://www.w3.org/2000/svg" xmlns:ev="http://www.w3.org/2001/xml-events" xmlns:xlink="http://www.w3.org/1999/xlink"><defs /><polygon fill="none" id="1" points="39,32 39,40 38,41 37,41 36,42 34,42 33,43 32,43 31,44 30,43 30,42 29,41 29,38 28,37 28,36 26,36 25,37 24,37 24,40 25,41 25,44 26,45 26,47 27,48 27,49 25,51 25,52 24,53 24,55 23,56 23,68 24,69 24,70 25,71 30,71 35,66 37,66 38,65 39,66 39,69 40,70 40,71 41,71 42,72 48,72 49,71 50,71 52,69 53,69 54,70 54,71 56,71 58,69 58,66 55,63 55,49 54,48 54,47 53,46 53,45 50,42 49,42 48,41 44,41 43,40 43,36 44,35 44,33 43,33 42,32" stroke="black" stroke-width="1" /><polygon fill="none" id="2" points="45,63 46,63 47,64 48,64 49,65 47,67 46,67 45,68 44,68 43,67 43,65" stroke="black" stroke-width="1" /><polygon fill="none" id="3" points="29,56 30,57 30,58 31,59 31,60 32,61 31,62 31,63 28,66 27,65 27,58" stroke="black" stroke-width="1" /><polygon fill="none" id="4" points="35,47 36,47 37,48 37,49 36,50 36,52 35,53 35,54 34,55 33,54 33,52 32,51 32,50" stroke="black" stroke-width="1" /><polygon fill="none" id="5" points="42,46 43,45 45,45 50,50 50,51 51,52 51,59 50,60 49,60 48,59 42,59 39,62 38,62 37,61 38,60 38,58 39,57 39,55 40,54 40,52 41,51 41,48 42,47" stroke="black" stroke-width="1" /></svg>