<?xml version="1.0" encoding="utf-8" ?>
<svg baseProfile="full" height="100" version="1.1" width="100" xmlns="http://www.w3.org/2000/svg" xmlns:ev="http://www.w3.org/2001/xml-events" xmlns:xlink="http://www.w3.org/1999/xlink"><defs /><polygon fill="none" id="1" points="44,32 44,40 43,41 41,41 40,42 39,42 38,43 37,43 36,44 34,44 33,43 33,40 32,39 32,36 29,36 28,37 27,37 27,40 28,41 28,42 29,43 29,46 30,47 30,49 29,50 29,51 28,52 28,53 27,54 27,55 26,56 26,68 27,69 27,70 28,71 34,71 39,66 42,66 43,65 44,66 44,69 47,72 54,72 55,71 56,71 59,68 61,70 61,71 63,71 65,69 65,66 63,64 62,64 61,63 62,62 62,49 61,48 61,47 56,42 55,42 54,41 49,41 48,40 48,39 49,38 49,33 48,33 47,32" stroke="black" stroke-width="1" /><polygon fill="none" id="2" points="50,63 52,63 53,64 54,64 55,65 53,67 52,67 51,68 50,68 48,66 48,65" stroke="black" stroke-width="1" /><polygon fill="none" id="3" points="31,56 32,55 33,56 33,57 34,58 34,59 36,61 35,62 35,63 32,66 31,66 30,65 30,60 31,59" stroke="black" stroke-width="1" /><polygon fill="none" id="4" points="40,47 41,46 42,47 42,48 41,49 41,51 40,52 40,54 39,55 37,53 37,52 36,51 36,50 39,47" stroke="black" stroke-width="1" /><polygon fill="none" id="5" points="47,46 48,45 50,45 51,46 52,46 53,47 54,47 56,49 56,50 57,51 57,53 58,54 58,59 57,60 55,60 54,59 47,59 44,62 43,62 42,61 42,60 43,59 43,58 44,57 44,55 45,54 45,52 46,51 46,49 47,48" stroke="black" stroke-width="1" /></svg>