<?xml version="1.0" encoding="utf-8" ?>
<svg baseProfile="full" height="100" version="1.1" width="100" xmlns="http://www.w3.org/2000/svg" xmlns:ev="http://www.w3.org/2001/xml-events" xmlns:xlink="http://www.w3.org/1999/xlink"><defs /><polygon fill="none" id="1" points="49,32 49,40 48,41 46,41 45,42 43,42 42,43 41,43 40,44 39,44 38,45 37,44 37,42 36,41 36,38 35,37 35,36 33,36 32,37 31,37 31,42 32,43 32,45 33,46 33,47 34,48 33,49 33,50 31,52 31,53 30,54 30,55 29,56 29,68 30,69 30,70 31,70 32,71 37,71 38,70 39,70 43,66 44,67 46,67 46,66 47,65 47,62 46,61 47,60 47,59 48,58 48,57 49,56 49,55 50,54 50,52 51,51 51,49 52,48 52,46 53,45 56,45 57,46 58,46 59,47 60,47 63,50 63,51 64,52 64,59 63,60 62,60 61,59 53,59 52,60 51,60 49,62 49,69 52,72 60,72 61,71 62,71 63,70 64,70 66,68 67,69 67,70 68,71 70,71 72,69 72,66 70,64 69,64 68,63 69,62 69,50 68,49 68,48 67,47 67,46 64,43 63,43 62,42 61,42 60,41 54,41 53,40 54,39 54,33 53,33 52,32" stroke="black" stroke-width="1" /><polygon fill="none" id="2" points="55,64 56,63 58,63 59,64 60,64 61,65 59,67 58,67 57,68 55,68 53,66 53,65 54,64" stroke="black" stroke-width="1" /><polygon fill="none" id="3" points="35,55 36,54 37,55 37,57 38,58 38,59 40,61 39,62 39,63 35,67 33,65 33,61 34,60 34,58 35,57" stroke="black" stroke-width="1" /><polygon fill="none" id="4" points="43,48 44,47 45,47 46,48 46,50 45,51 45,53 44,54 44,55 43,56 42,55 42,54 41,53 41,52 40,51 40,50 42,48" stroke="black" stroke-width="1" /><polygon fill="none" id="5" points="45,47 46,46 47,47 46,48" stroke="black" stroke-width="1" /></svg>