<?xml version="1.0" encoding="utf-8" ?>
<svg baseProfile="full" height="100" version="1.1" width="100" xmlns="http://www.w3.org/2000/svg" xmlns:ev="http://www.w3.org/2001/xml-events" xmlns:xlink="http://www.w3.org/1999/xlink"><defs /><polygon fill="none" id="1" points="54,32 54,39 52,41 51,41 50,42 47,42 46,43 45,43 44,44 43,44 42,45 41,44 41,42 40,41 40,39 39,38 39,36 36,36 35,37 34,37 34,41 35,42 35,44 36,45 36,46 37,47 37,49 34,52 34,53 33,54 33,55 32,56 32,68 35,71 41,71 42,70 43,70 47,66 51,66 52,65 52,62 51,61 52,60 52,59 53,58 53,57 54,56 54,55 55,54 55,52 56,51 56,49 57,48 57,46 58,45 62,45 63,46 64,46 65,47 66,47 70,51 70,52 71,53 71,60 70,61 69,60 68,60 67,59 58,59 57,60 56,60 54,62 54,69 56,71 57,71 58,72 66,72 67,71 69,71 72,68 75,71 77,71 79,69 79,66 77,64 76,64 75,63 76,62 76,50 75,49 75,48 74,47 74,46 73,45 72,45 70,43 69,43 68,42 67,42 66,41 59,41 58,40 59,39 59,37 60,36 60,33 58,33 57,32" stroke="black" stroke-width="1" /><polygon fill="none" id="2" points="60,64 61,63 63,63 64,64 66,64 67,65 65,67 64,67 63,68 61,68 60,67 59,67 58,66 58,65 59,64" stroke="black" stroke-width="1" /><polygon fill="none" id="3" points="38,56 39,55 40,55 41,56 41,57 42,58 42,59 44,61 43,62 43,63 40,66 39,66 38,67 37,66 37,65 36,64 36,61 37,60 37,58 38,57" stroke="black" stroke-width="1" /><polygon fill="none" id="4" points="49,47 50,46 51,46 52,47 51,48 51,50 50,51 50,52 49,53 49,54 47,56 46,55 46,54 45,53 45,52 44,51 44,50 46,48 47,48 48,47" stroke="black" stroke-width="1" /></svg>