<?xml version="1.0" encoding="utf-8" ?>
<svg baseProfile="full" height="100" version="1.1" width="100" xmlns="http://www.w3.org/2000/svg" xmlns:ev="http://www.w3.org/2001/xml-events" xmlns:xlink="http://www.w3.org/1999/xlink"><defs /><polygon fill="none" id="1" points="59,32 59,39 57,41 55,41 54,42 52,42 51,43 49,43 48,44 47,44 46,45 44,43 44,41 43,40 43,38 42,37 42,36 40,36 39,37 37,37 37,41 38,42 38,43 39,44 39,45 40,46 40,47 41,48 40,49 40,50 36,54 36,55 35,56 35,68 38,71 45,71 46,70 47,70 51,66 52,66 53,67 55,67 57,65 57,62 56,62 55,61 58,58 58,57 59,56 59,55 60,54 60,52 61,51 61,49 62,48 62,46 63,45 68,45 69,46 70,46 71,47 72,47 74,49 75,49 76,50 76,51 77,52 77,59 76,60 74,60 73,59 63,59 62,60 61,60 59,62 59,69 61,71 62,71 63,72 72,72 73,71 75,71 76,70 77,70 79,68 82,71 84,71 87,68 87,66 86,66 84,64 83,64 82,63 82,62 83,61 83,50 82,49 82,48 78,44 77,44 76,43 75,43 74,42 73,42 72,41 65,41 64,40 64,39 65,38 65,33 63,33 62,32" stroke="black" stroke-width="1" /><polygon fill="none" id="2" points="66,63 69,63 70,64 72,64 73,65 71,67 70,67 69,68 66,68 64,66 64,65" stroke="black" stroke-width="1" /><polygon fill="none" id="3" points="42,55 43,54 45,56 45,57 46,58 46,59 48,61 47,62 47,63 45,65 44,65 42,67 40,65 40,60 41,59 41,57 42,56" stroke="black" stroke-width="1" /><polygon fill="none" id="4" points="53,47 54,46 55,46 56,47 56,48 55,49 55,51 54,52 54,53 53,54 53,55 52,56 51,56 50,55 50,54 49,53 49,52 48,51 48,50 50,48 51,48 52,47" stroke="black" stroke-width="1" /></svg>