<?xml version="1.0" encoding="utf-8" ?>
<svg baseProfile="full" height="100" version="1.1" width="100" xmlns="http://www.w3.org/2000/svg" xmlns:ev="http://www.w3.org/2001/xml-events" xmlns:xlink="http://www.w3.org/1999/xlink"><defs /><polygon fill="none" id="1" points="44,70 46,70" stroke="black" stroke-width="1" /><polygon fill="none" id="2" points="48,69" stroke="black" stroke-width="1" /><polygon fill="none" id="3" points="27,69 28,69" stroke="black" stroke-width="1" /><polygon fill="none" id="4" points="25,65 25,66" stroke="black" stroke-width="1" /><polygon fill="none" id="5" points="51,63 51,65 53,65 55,67 52,64 52,63" stroke="black" stroke-width="1" /><polygon fill="none" id="6" points="44,61 46,61" stroke="black" stroke-width="1" /><polygon fill="none" id="7" points="34,59 34,63 35,63 35,59" stroke="black" stroke-width="1" /><polygon fill="none" id="8" points="25,58 25,61" stroke="black" stroke-width="1" /><polygon fill="none" id="9" points="37,55" stroke="black" stroke-width="1" /><polygon fill="none" id="10" points="26,55" stroke="black" stroke-width="1" /><polygon fill="none" id="11" points="31,54" stroke="black" stroke-width="1" /><polygon fill="none" id="12" points="38,52" stroke="black" stroke-width="1" /><polygon fill="none" id="13" points="53,51 53,61" stroke="black" stroke-width="1" /><polygon fill="none" id="14" points="52,49" stroke="black" stroke-width="1" /><polygon fill="none" id="15" points="39,48 39,49" stroke="black" stroke-width="1" /><polygon fill="none" id="16" points="29,48 29,51 29,49 30,48" stroke="black" stroke-width="1" /><polygon fill="none" id="17" points="34,45" stroke="black" stroke-width="1" /><polygon fill="none" id="18" points="48,44 51,47" stroke="black" stroke-width="1" /><polygon fill="none" id="19" points="28,44 28,45" stroke="black" stroke-width="1" /><polygon fill="none" id="20" points="39,43 40,44 40,45 40,44 41,43 46,43" stroke="black" stroke-width="1" /><polygon fill="none" id="21" points="27,40 27,42" stroke="black" stroke-width="1" /><polygon fill="none" id="22" points="41,35 41,38" stroke="black" stroke-width="1" /></svg>