<?xml version="1.0" encoding="utf-8" ?>
<svg baseProfile="full" height="100" version="1.1" width="100" xmlns="http://www.w3.org/2000/svg" xmlns:ev="http://www.w3.org/2001/xml-events" xmlns:xlink="http://www.w3.org/1999/xlink"><defs /><polygon fill="none" id="1" points="49,70 52,70" stroke="black" stroke-width="1" /><polygon fill="none" id="2" points="54,69" stroke="black" stroke-width="1" /><polygon fill="none" id="3" points="29,68 30,69 32,69 30,69" stroke="black" stroke-width="1" /><polygon fill="none" id="4" points="61,66 62,67" stroke="black" stroke-width="1" /><polygon fill="none" id="5" points="46,64 46,67" stroke="black" stroke-width="1" /><polygon fill="none" id="6" points="57,63 58,64 58,65 59,65 59,63" stroke="black" stroke-width="1" /><polygon fill="none" id="7" points="55,62" stroke="black" stroke-width="1" /><polygon fill="none" id="8" points="49,61 52,61" stroke="black" stroke-width="1" /><polygon fill="none" id="9" points="38,59 38,63 37,64 38,63 40,63 39,62 39,60 40,59" stroke="black" stroke-width="1" /><polygon fill="none" id="10" points="41,57" stroke="black" stroke-width="1" /><polygon fill="none" id="11" points="29,56 29,57 28,58 28,66 28,58 29,57" stroke="black" stroke-width="1" /><polygon fill="none" id="12" points="42,54 42,55" stroke="black" stroke-width="1" /><polygon fill="none" id="13" points="35,54 35,55 36,56 36,57 36,56 35,55" stroke="black" stroke-width="1" /><polygon fill="none" id="14" points="43,51 43,52" stroke="black" stroke-width="1" /><polygon fill="none" id="15" points="58,48 59,49 59,51 60,52 60,60 60,51 59,50 59,49" stroke="black" stroke-width="1" /><polygon fill="none" id="16" points="44,48 44,49" stroke="black" stroke-width="1" /><polygon fill="none" id="17" points="33,48 33,50 32,51 33,51 34,52 33,51 33,49 34,48" stroke="black" stroke-width="1" /><polygon fill="none" id="18" points="32,46" stroke="black" stroke-width="1" /><polygon fill="none" id="19" points="31,42 31,44" stroke="black" stroke-width="1" /><polygon fill="none" id="20" points="30,39 30,40" stroke="black" stroke-width="1" /><polygon fill="none" id="21" points="46,35 46,42 45,43 43,43 44,43 45,44 45,46 45,44 46,43 52,43 53,44 54,44 55,45 54,44 53,44 52,43 47,43 46,42 46,37 47,36 47,35" stroke="black" stroke-width="1" /></svg>