<?xml version="1.0" encoding="utf-8" ?>
<svg baseProfile="full" height="100" version="1.1" width="100" xmlns="http://www.w3.org/2000/svg" xmlns:ev="http://www.w3.org/2001/xml-events" xmlns:xlink="http://www.w3.org/1999/xlink"><defs /><polygon fill="none" id="1" points="54,70 58,70" stroke="black" stroke-width="1" /><polygon fill="none" id="2" points="60,69" stroke="black" stroke-width="1" /><polygon fill="none" id="3" points="34,69 35,69" stroke="black" stroke-width="1" /><polygon fill="none" id="4" points="32,68" stroke="black" stroke-width="1" /><polygon fill="none" id="5" points="63,67 62,68" stroke="black" stroke-width="1" /><polygon fill="none" id="6" points="68,66 69,67 69,68 69,67" stroke="black" stroke-width="1" /><polygon fill="none" id="7" points="51,64 51,67" stroke="black" stroke-width="1" /><polygon fill="none" id="8" points="61,62" stroke="black" stroke-width="1" /><polygon fill="none" id="9" points="53,62" stroke="black" stroke-width="1" /><polygon fill="none" id="10" points="55,61 59,61" stroke="black" stroke-width="1" /><polygon fill="none" id="11" points="46,56" stroke="black" stroke-width="1" /><polygon fill="none" id="12" points="39,54 39,55 40,56 40,57 42,59 42,63 41,64 42,63 44,63 44,59 45,58 44,59 42,59 40,57 40,56 39,55" stroke="black" stroke-width="1" /><polygon fill="none" id="13" points="33,54 33,55 32,56 32,57 31,58 31,66 31,59 32,58 32,56 33,55" stroke="black" stroke-width="1" /><polygon fill="none" id="14" points="36,47 36,50 35,51 37,51 38,52 37,51 37,48" stroke="black" stroke-width="1" /><polygon fill="none" id="15" points="41,46" stroke="black" stroke-width="1" /><polygon fill="none" id="16" points="43,45" stroke="black" stroke-width="1" /><polygon fill="none" id="17" points="45,44" stroke="black" stroke-width="1" /><polygon fill="none" id="18" points="33,39 33,40 34,41 34,43 35,44 35,45 35,44 34,43 34,40" stroke="black" stroke-width="1" /><polygon fill="none" id="19" points="51,35 51,42 50,43 48,43 49,43 50,44 50,46 49,47 49,49 48,50 48,52 47,53 47,54 47,53 48,52 48,50 49,49 49,47 50,46 50,44 51,43 58,43 59,44 60,44 61,45 62,45 65,48 65,49 66,50 66,54 67,55 67,57 66,58 66,62 65,63 63,63 64,64 64,65 66,65 66,61 67,60 67,52 66,51 66,50 65,49 65,48 62,45 61,45 60,44 59,44 58,43 52,43 51,42 51,38 52,37 52,35" stroke="black" stroke-width="1" /></svg>