<?xml version="1.0" encoding="utf-8" ?>
<svg baseProfile="full" height="100" version="1.1" width="100" xmlns="http://www.w3.org/2000/svg" xmlns:ev="http://www.w3.org/2001/xml-events" xmlns:xlink="http://www.w3.org/1999/xlink"><defs /><polygon fill="none" id="1" points="60,70 64,70" stroke="black" stroke-width="1" /><polygon fill="none" id="2" points="58,69" stroke="black" stroke-width="1" /><polygon fill="none" id="3" points="37,69 39,69" stroke="black" stroke-width="1" /><polygon fill="none" id="4" points="41,68" stroke="black" stroke-width="1" /><polygon fill="none" id="5" points="56,64 56,67" stroke="black" stroke-width="1" /><polygon fill="none" id="6" points="58,62" stroke="black" stroke-width="1" /><polygon fill="none" id="7" points="60,61 65,61 66,62 67,62 66,62 65,61" stroke="black" stroke-width="1" /><polygon fill="none" id="8" points="37,53 36,54 36,55 35,56 35,57 34,58 34,66 35,67 34,66 34,59 35,58 35,56 36,55 36,54" stroke="black" stroke-width="1" /><polygon fill="none" id="9" points="45,46" stroke="black" stroke-width="1" /><polygon fill="none" id="10" points="47,45" stroke="black" stroke-width="1" /><polygon fill="none" id="11" points="49,44" stroke="black" stroke-width="1" /><polygon fill="none" id="12" points="56,35 56,41 54,43 53,43 54,43 55,44 55,46 54,47 54,49 53,50 53,52 52,53 52,54 51,55 51,56 50,57 50,58 49,59 46,59 44,57 44,56 43,55 43,54 42,53 42,52 41,51 41,48 39,46 39,44 38,43 38,41 37,40 37,39 36,39 37,40 37,42 38,43 38,44 39,45 39,46 40,47 40,50 39,51 41,51 42,52 42,53 43,54 43,55 44,56 44,57 47,60 47,62 45,64 46,63 49,63 48,62 48,60 50,58 50,57 51,56 51,55 52,54 52,53 53,52 53,50 54,49 54,47 55,46 55,44 56,43 64,43 65,44 66,44 67,45 68,45 72,49 72,50 73,51 73,62 72,63 70,63 70,66 67,69 66,69 67,69 71,65 73,65 76,68 76,67 75,66 74,66 73,65 73,61 74,60 74,52 73,51 73,50 72,49 72,48 71,47 70,47 68,45 67,45 66,44 65,44 64,43 57,43 56,42 56,38 57,37 57,35" stroke="black" stroke-width="1" /></svg>