<?xml version="1.0" encoding="utf-8" ?>
<svg baseProfile="full" height="100" version="1.1" width="100" xmlns="http://www.w3.org/2000/svg" xmlns:ev="http://www.w3.org/2001/xml-events" xmlns:xlink="http://www.w3.org/1999/xlink"><defs /><polygon fill="none" id="1" points="53,42 52,43 48,43 47,44 44,44 43,45 40,45 39,46 37,46 38,47 38,48 39,49 40,49 41,48 43,48 44,47 46,47 47,46 49,46 50,45 53,45 54,44 60,44 61,45 62,45 64,47 64,49 65,50 65,54 64,55 64,58 62,60 62,61 60,63 59,63 57,65 56,65 55,66 54,66 53,67 52,67 51,68 47,68 47,69 49,71 51,71 52,70 54,70 55,69 56,69 57,68 58,68 59,67 60,67 61,66 62,66 65,63 65,62 66,61 66,60 67,59 67,57 68,56 68,48 67,47 67,46 64,43 62,43 61,42" stroke="black" stroke-width="1" /><polygon fill="none" id="2" points="47,30 46,31 46,32 47,33 50,33 51,34 53,34 54,35 56,35 57,36 58,36 59,37 61,37 62,36 62,34 60,34 59,33 58,33 57,32 55,32 54,31 52,31 51,30" stroke="black" stroke-width="1" /></svg>