<?xml version="1.0" encoding="utf-8" ?>
<svg baseProfile="full" height="100" version="1.1" width="100" xmlns="http://www.w3.org/2000/svg" xmlns:ev="http://www.w3.org/2001/xml-events" xmlns:xlink="http://www.w3.org/1999/xlink"><defs /><polygon fill="none" id="1" points="65,70 70,70" stroke="black" stroke-width="1" /><polygon fill="none" id="2" points="75,67 73,69 72,69 73,69 74,68 75,68 76,67" stroke="black" stroke-width="1" /><polygon fill="none" id="3" points="46,67 45,68" stroke="black" stroke-width="1" /><polygon fill="none" id="4" points="63,62 61,64 61,67 63,69 61,67 61,64" stroke="black" stroke-width="1" /><polygon fill="none" id="5" points="65,61 71,61 72,62 74,62 72,62 71,61" stroke="black" stroke-width="1" /><polygon fill="none" id="6" points="40,54 38,56 38,57 37,58 37,66 40,69 43,69 40,69 38,67 38,58 39,57 39,55" stroke="black" stroke-width="1" /><polygon fill="none" id="7" points="49,46" stroke="black" stroke-width="1" /><polygon fill="none" id="8" points="51,45" stroke="black" stroke-width="1" /><polygon fill="none" id="9" points="54,44" stroke="black" stroke-width="1" /><polygon fill="none" id="10" points="61,35 61,41 59,43 57,43 59,43 60,44 60,46 59,47 59,48 58,49 58,50 57,51 57,53 56,54 56,55 55,56 55,57 53,59 50,59 48,57 48,56 47,55 47,54 46,53 46,52 45,51 45,48 44,48 43,47 43,46 42,45 42,43 41,42 41,40 40,39 39,39 40,40 40,41 41,42 41,43 42,44 42,45 43,46 43,50 42,51 45,51 46,52 46,53 47,54 47,55 48,56 48,57 51,60 51,62 49,64 50,63 53,63 54,64 53,63 53,59 56,56 56,55 57,54 57,53 58,52 58,50 59,49 59,47 60,46 60,44 61,43 70,43 71,44 72,44 73,45 74,45 76,47 77,47 78,48 78,49 79,50 79,53 80,54 80,57 79,58 79,62 78,63 76,63 77,64 77,65 80,65 83,68 83,67 82,66 81,66 79,64 79,62 80,61 80,60 81,59 81,52 80,51 80,50 76,46 75,46 74,45 73,45 72,44 71,44 70,43 63,43 62,42 62,37 63,36 63,35" stroke="black" stroke-width="1" /></svg>