<?xml version="1.0" encoding="utf-8" ?>
<svg baseProfile="full" height="100" version="1.1" width="100" xmlns="http://www.w3.org/2000/svg" xmlns:ev="http://www.w3.org/2001/xml-events" xmlns:xlink="http://www.w3.org/1999/xlink"><defs /><polygon fill="none" id="1" points="31,32 31,40 29,42 23,42 23,44 24,45 26,45 27,44 29,44 30,43 31,44 31,52 28,55 28,56 25,59 25,60 23,62 23,63 25,65 25,64 26,63 26,62 28,60 28,59 30,57 31,58 31,72 33,72 33,52 36,49 36,48 39,45 40,45 42,43 43,43 44,42 47,42 48,43 49,43 50,44 50,45 51,46 51,48 52,49 52,60 51,61 50,61 49,60 48,60 47,59 42,59 39,62 39,67 41,69 42,69 43,70 47,70 48,69 49,69 52,66 53,66 55,68 55,69 56,69 56,68 57,67 57,66 55,64 54,64 53,63 53,61 54,60 54,48 53,47 53,45 52,44 52,43 49,40 44,40 43,41 41,41 34,48 33,48 32,47 33,46 33,45 34,44 34,42 33,41 33,33 32,32" stroke="black" stroke-width="1" /><polygon fill="none" id="2" points="43,61 46,61 47,62 48,62 50,64 50,65 48,67 47,67 46,68 43,68 41,66 41,63" stroke="black" stroke-width="1" /></svg>