<?xml version="1.0" encoding="utf-8" ?>
<svg baseProfile="full" height="100" version="1.1" width="100" xmlns="http://www.w3.org/2000/svg" xmlns:ev="http://www.w3.org/2001/xml-events" xmlns:xlink="http://www.w3.org/1999/xlink"><defs /><polygon fill="none" id="1" points="35,32 35,40 34,41 33,41 32,42 26,42 26,44 27,45 30,45 31,44 33,44 34,43 35,44 35,51 33,53 33,54 29,58 29,59 26,62 26,63 28,65 29,64 29,63 31,61 31,60 32,59 32,58 33,57 34,57 35,58 35,72 37,72 38,71 37,70 37,53 38,52 38,51 44,45 45,45 47,43 49,43 50,42 53,42 54,43 55,43 57,45 57,46 58,47 58,51 59,52 59,56 58,57 58,60 57,61 56,61 55,60 54,60 53,59 47,59 44,62 44,67 46,69 47,69 48,70 53,70 54,69 55,69 56,68 57,68 57,67 59,65 62,68 62,69 63,69 63,68 64,67 64,66 62,64 61,64 60,63 60,60 61,59 61,49 60,48 60,46 59,45 59,44 58,43 58,42 57,41 56,41 55,40 49,40 48,41 47,41 46,42 45,42 44,43 43,43 39,47 39,48 38,49 37,48 37,45 39,43 39,42 37,40 37,35 38,34 38,33 37,33 36,32" stroke="black" stroke-width="1" /><polygon fill="none" id="2" points="48,61 52,61 53,62 55,62 57,64 54,67 53,67 52,68 49,68 48,67 47,67 46,66 46,63" stroke="black" stroke-width="1" /></svg>