<?xml version="1.0" encoding="utf-8" ?>
<svg baseProfile="full" height="100" version="1.1" width="100" xmlns="http://www.w3.org/2000/svg" xmlns:ev="http://www.w3.org/2001/xml-events" xmlns:xlink="http://www.w3.org/1999/xlink"><defs /><polygon fill="none" id="1" points="39,32 39,40 38,41 37,41 36,42 29,42 29,44 30,45 33,45 34,44 37,44 38,43 39,44 39,51 34,56 34,57 29,62 29,63 31,65 33,63 33,62 36,59 36,58 37,57 38,57 39,58 39,72 42,72 42,70 41,69 41,53 49,45 50,45 52,43 54,43 55,42 59,42 60,43 61,43 64,46 64,48 65,49 65,60 64,61 62,61 61,60 60,60 59,59 53,59 52,60 51,60 49,62 49,67 51,69 52,69 53,70 59,70 60,69 61,69 62,68 63,68 65,66 67,66 68,67 68,68 69,69 70,69 70,68 72,66 71,66 69,64 68,64 66,62 67,61 67,59 68,58 68,49 67,48 67,46 66,45 66,44 63,41 62,41 61,40 55,40 54,41 52,41 51,42 50,42 49,43 48,43 42,49 41,48 41,46 42,45 42,44 43,43 43,42 41,40 41,36 42,35 42,33 41,33 40,32" stroke="black" stroke-width="1" /><polygon fill="none" id="2" points="53,61 58,61 59,62 61,62 63,64 60,67 59,67 58,68 54,68 51,65 51,63" stroke="black" stroke-width="1" /></svg>