<?xml version="1.0" encoding="utf-8" ?>
<svg baseProfile="full" height="100" version="1.1" width="100" xmlns="http://www.w3.org/2000/svg" xmlns:ev="http://www.w3.org/2001/xml-events" xmlns:xlink="http://www.w3.org/1999/xlink"><defs /><polygon fill="none" id="1" points="43,32 43,40 42,41 41,41 40,42 32,42 32,45 37,45 38,44 41,44 42,43 43,44 43,51 32,62 32,63 34,65 39,60 39,59 41,57 42,57 43,58 43,72 46,72 46,68 45,67 45,53 50,48 51,48 54,45 55,45 56,44 57,44 58,43 60,43 61,42 65,42 66,43 67,43 70,46 70,47 71,48 71,50 72,51 72,57 71,58 71,60 70,61 69,61 68,60 66,60 65,59 58,59 57,60 56,60 54,62 54,63 53,64 54,65 54,67 55,68 56,68 57,69 58,69 59,70 65,70 66,69 68,69 71,66 73,66 76,69 77,69 78,68 78,67 79,66 78,66 76,64 75,64 73,62 74,61 74,59 75,58 75,50 74,49 74,46 72,44 72,43 71,42 70,42 69,41 68,41 67,40 60,40 59,41 57,41 56,42 55,42 54,43 53,43 51,45 50,45 46,49 45,48 45,46 48,43 48,42 47,42 45,40 45,38 46,37 46,33 45,33 44,32" stroke="black" stroke-width="1" /><polygon fill="none" id="2" points="58,62 59,61 64,61 65,62 67,62 69,64 66,67 65,67 64,68 60,68 59,67 58,67 56,65 56,63 57,62" stroke="black" stroke-width="1" /></svg>