<?xml version="1.0" encoding="utf-8" ?>
<svg baseProfile="full" height="100" version="1.1" width="100" xmlns="http://www.w3.org/2000/svg" xmlns:ev="http://www.w3.org/2001/xml-events" xmlns:xlink="http://www.w3.org/1999/xlink"><defs /><polygon fill="none" id="1" points="47,32 47,40 46,41 44,41 43,42 35,42 35,45 40,45 41,44 46,44 47,45 47,46 46,47 46,50 47,51 44,54 43,54 35,62 35,63 37,65 38,65 39,64 39,63 45,57 46,57 47,58 47,61 46,62 46,65 47,66 47,70 46,71 47,72 50,72 50,59 49,58 49,53 51,51 52,51 56,47 57,47 59,45 60,45 61,44 62,44 63,43 65,43 66,42 71,42 72,43 73,43 74,44 75,44 76,45 76,46 77,47 77,48 78,49 78,60 77,61 75,61 74,60 72,60 71,59 63,59 62,60 61,60 59,62 59,63 58,64 58,65 59,66 59,67 60,68 61,68 62,69 63,69 64,70 71,70 72,69 74,69 75,68 76,68 78,66 80,66 83,69 84,69 86,67 86,66 85,66 83,64 81,64 80,63 80,61 81,60 81,59 82,58 82,50 81,49 81,47 80,46 80,45 76,41 74,41 73,40 65,40 64,41 62,41 61,42 60,42 59,43 58,43 57,44 56,44 51,49 50,49 49,48 49,46 52,43 52,42 51,41 50,41 49,40 50,39 50,34 51,33 49,33 48,32" stroke="black" stroke-width="1" /><polygon fill="none" id="2" points="63,62 64,61 70,61 71,62 73,62 74,63 75,63 76,64 74,66 73,66 72,67 71,67 70,68 65,68 64,67 63,67 61,65 61,63 62,62" stroke="black" stroke-width="1" /></svg>