<?xml version="1.0" encoding="utf-8" ?>
<svg baseProfile="full" height="100" version="1.1" width="100" xmlns="http://www.w3.org/2000/svg" xmlns:ev="http://www.w3.org/2001/xml-events" xmlns:xlink="http://www.w3.org/1999/xlink"><defs /><polygon fill="none" id="1" points="31,32 31,40 29,42 23,42 23,45 24,46 27,46 28,45 30,45 31,46 31,52 28,55 28,56 25,59 25,60 23,62 23,64 25,66 26,66 26,65 27,64 27,63 29,61 29,60 30,59 31,60 31,73 34,73 34,53 37,50 37,49 40,46 41,46 43,44 44,44 45,43 47,43 48,44 49,44 50,45 50,46 51,47 51,49 52,50 52,60 51,61 50,60 49,60 48,59 42,59 39,62 39,68 41,70 42,70 43,71 48,71 49,70 50,70 53,67 55,69 55,70 57,70 57,69 58,68 58,66 56,64 55,64 54,63 54,62 55,61 55,48 54,47 54,45 53,44 53,43 50,40 44,40 43,41 41,41 36,46 35,45 35,42 34,41 34,33 33,32" stroke="black" stroke-width="1" /><polygon fill="none" id="2" points="44,62 46,62 47,63 48,63 50,65 48,67 47,67 46,68 44,68 42,66 42,64" stroke="black" stroke-width="1" /><polygon fill="none" id="3" points="34,46 35,45 36,46 35,47" stroke="black" stroke-width="1" /></svg>