<?xml version="1.0" encoding="utf-8" ?>
<svg baseProfile="full" height="100" version="1.1" width="100" xmlns="http://www.w3.org/2000/svg" xmlns:ev="http://www.w3.org/2001/xml-events" xmlns:xlink="http://www.w3.org/1999/xlink"><defs /><polygon fill="none" id="1" points="35,32 35,40 34,41 33,41 32,42 26,42 26,45 27,46 31,46 32,45 34,45 35,46 35,51 33,53 33,54 29,58 29,59 26,62 26,64 28,66 29,66 30,65 30,64 32,62 32,61 33,60 33,59 34,58 35,59 35,73 38,73 39,72 39,71 38,70 38,54 39,53 39,52 45,46 46,46 48,44 50,44 51,43 53,43 54,44 55,44 57,46 57,47 58,48 58,52 59,53 59,56 58,57 58,60 57,61 56,60 55,60 54,59 47,59 44,62 44,68 46,70 47,70 48,71 54,71 55,70 56,70 57,69 58,69 58,68 59,67 60,67 62,69 62,70 64,70 64,69 65,68 65,66 63,64 62,64 61,63 61,61 62,60 62,49 61,48 61,46 60,45 60,44 59,43 59,42 58,41 57,41 56,40 49,40 48,41 47,41 46,42 45,42 44,43 43,43 41,45 40,44 40,42 38,40 38,36 39,35 39,33 38,33 37,32" stroke="black" stroke-width="1" /><polygon fill="none" id="2" points="49,62 52,62 53,63 55,63 56,64 56,65 54,67 53,67 52,68 50,68 49,67 48,67 47,66 47,64" stroke="black" stroke-width="1" /><polygon fill="none" id="3" points="38,46 39,45 40,46 39,47" stroke="black" stroke-width="1" /><polygon fill="none" id="4" points="39,45 40,44 41,45 40,46" stroke="black" stroke-width="1" /></svg>