<?xml version="1.0" encoding="utf-8" ?>
<svg baseProfile="full" height="100" version="1.1" width="100" xmlns="http://www.w3.org/2000/svg" xmlns:ev="http://www.w3.org/2001/xml-events" xmlns:xlink="http://www.w3.org/1999/xlink"><defs /><polygon fill="none" id="1" points="39,32 39,40 38,41 37,41 36,42 29,42 29,45 30,46 34,46 35,45 38,45 39,46 39,51 34,56 34,57 29,62 29,64 31,66 32,66 34,64 34,63 37,60 37,59 38,58 39,59 39,73 43,73 43,70 42,69 42,54 50,46 51,46 53,44 55,44 56,43 59,43 60,44 61,44 64,47 64,49 65,50 65,60 64,61 63,61 62,60 61,60 60,59 53,59 52,60 51,60 49,62 49,68 51,70 52,70 53,71 60,71 61,70 62,70 63,69 64,69 66,67 67,67 68,68 68,69 69,70 71,70 71,69 73,67 73,66 72,66 70,64 69,64 68,63 68,60 69,59 69,49 68,48 68,46 67,45 67,44 64,41 63,41 62,40 55,40 54,41 52,41 51,42 50,42 49,43 48,43 44,47 43,46 43,45 44,44 44,42 42,40 42,37 43,36 43,33 42,33 41,32" stroke="black" stroke-width="1" /><polygon fill="none" id="2" points="54,62 58,62 59,63 61,63 62,64 62,65 60,67 59,67 58,68 55,68 52,65 52,64" stroke="black" stroke-width="1" /><polygon fill="none" id="3" points="42,47 43,46 44,47 43,48" stroke="black" stroke-width="1" /></svg>