<?xml version="1.0" encoding="utf-8" ?>
<svg baseProfile="full" height="100" version="1.1" width="100" xmlns="http://www.w3.org/2000/svg" xmlns:ev="http://www.w3.org/2001/xml-events" xmlns:xlink="http://www.w3.org/1999/xlink"><defs /><polygon fill="none" id="1" points="43,32 43,40 42,41 41,41 40,42 32,42 32,46 38,46 39,45 42,45 43,46 43,51 32,62 32,64 34,66 35,66 40,61 40,60 42,58 43,59 43,73 47,73 47,68 46,67 46,54 51,49 52,49 55,46 56,46 57,45 58,45 59,44 61,44 62,43 65,43 66,44 67,44 70,47 70,48 71,49 71,51 72,52 72,57 71,58 71,60 70,61 69,60 67,60 66,59 58,59 57,60 56,60 54,62 54,63 53,64 53,65 54,66 54,68 55,69 56,69 57,70 58,70 59,71 66,71 67,70 69,70 72,67 73,67 76,70 78,70 79,69 79,68 80,67 80,66 79,66 77,64 76,64 75,63 75,60 76,59 76,50 75,49 75,46 73,44 73,43 72,42 71,42 70,41 69,41 68,40 60,40 59,41 57,41 56,42 55,42 54,43 53,43 51,45 50,45 49,44 49,42 48,42 46,40 46,39 47,38 47,33 46,33 45,32" stroke="black" stroke-width="1" /><polygon fill="none" id="2" points="59,63 60,62 64,62 65,63 67,63 68,64 68,65 66,67 65,67 64,68 61,68 60,67 59,67 57,65 57,64 58,63" stroke="black" stroke-width="1" /><polygon fill="none" id="3" points="46,47 47,46 48,47 47,48" stroke="black" stroke-width="1" /><polygon fill="none" id="4" points="47,46 48,45 49,46 48,47" stroke="black" stroke-width="1" /><polygon fill="none" id="5" points="48,45 49,44 50,45 49,46" stroke="black" stroke-width="1" /></svg>