<?xml version="1.0" encoding="utf-8" ?>
<svg baseProfile="full" height="100" version="1.1" width="100" xmlns="http://www.w3.org/2000/svg" xmlns:ev="http://www.w3.org/2001/xml-events" xmlns:xlink="http://www.w3.org/1999/xlink"><defs /><polygon fill="none" id="1" points="47,32 47,40 46,41 44,41 43,42 35,42 35,46 41,46 42,45 46,45 47,46 46,47 46,52 44,54 43,54 35,62 35,64 37,66 39,66 40,65 40,64 46,58 47,59 47,61 46,62 46,66 47,67 47,70 46,71 46,72 47,73 51,73 51,59 50,58 50,54 52,52 53,52 57,48 58,48 60,46 61,46 62,45 63,45 64,44 66,44 67,43 71,43 72,44 73,44 74,45 75,45 76,46 76,47 77,48 77,49 78,50 78,60 77,61 76,61 75,60 73,60 72,59 63,59 62,60 61,60 59,62 59,63 58,64 58,66 59,67 59,68 60,69 61,69 62,70 63,70 64,71 72,71 73,70 75,70 76,69 77,69 79,67 80,67 83,70 85,70 87,68 87,66 86,66 84,64 82,64 81,63 81,62 82,61 82,60 83,59 83,50 82,49 82,47 81,46 81,45 77,41 75,41 74,40 65,40 64,41 62,41 61,42 60,42 59,43 58,43 57,44 56,44 51,49 50,48 50,47 53,44 53,42 51,40 51,35 52,34 52,33 50,33 49,32" stroke="black" stroke-width="1" /><polygon fill="none" id="2" points="64,63 65,62 70,62 71,63 73,63 75,65 74,66 73,66 72,67 71,67 70,68 66,68 65,67 64,67 62,65 62,64 63,63" stroke="black" stroke-width="1" /></svg>