<?xml version="1.0" encoding="utf-8" ?>
<svg baseProfile="full" height="100" version="1.1" width="100" xmlns="http://www.w3.org/2000/svg" xmlns:ev="http://www.w3.org/2001/xml-events" xmlns:xlink="http://www.w3.org/1999/xlink"><defs /><polygon fill="none" id="1" points="32,33 32,41 30,43 24,43 24,44 25,45 26,45 27,44 29,44 30,43 31,43 32,44 32,53 29,56 29,57 26,60 26,61 24,63 25,64 26,63 26,62 28,60 28,59 30,57 31,57 32,58 32,72 33,72 33,52 36,49 36,48 39,45 40,45 42,43 43,43 44,42 48,42 49,43 50,43 51,44 51,45 52,46 52,48 53,49 53,61 52,62 50,62 49,61 48,61 47,60 43,60 40,63 40,67 42,69 43,69 44,70 47,70 48,69 49,69 52,66 54,66 56,68 56,69 56,68 57,67 55,65 54,65 53,64 53,61 54,60 54,49 53,48 53,46 52,45 52,44 49,41 45,41 44,42 42,42 35,49 33,49 32,48 32,47 33,46 33,45 34,44 34,43 33,42 33,34" stroke="black" stroke-width="1" /><polygon fill="none" id="2" points="43,61 47,61 48,62 49,62 51,64 51,66 49,68 48,68 47,69 43,69 41,67 41,63" stroke="black" stroke-width="1" /></svg>