<?xml version="1.0" encoding="utf-8" ?>
<svg baseProfile="full" height="100" version="1.1" width="100" xmlns="http://www.w3.org/2000/svg" xmlns:ev="http://www.w3.org/2001/xml-events" xmlns:xlink="http://www.w3.org/1999/xlink"><defs /><polygon fill="none" id="1" points="36,33 36,41 35,42 34,42 33,43 27,43 27,44 28,45 30,45 31,44 33,44 34,43 35,43 36,44 36,52 34,54 34,55 30,59 30,60 27,63 28,64 29,64 29,63 31,61 31,60 32,59 32,58 33,57 35,57 36,58 36,72 37,72 37,53 38,52 38,51 44,45 45,45 47,43 49,43 50,42 54,42 55,43 56,43 58,45 58,46 59,47 59,51 60,52 60,57 59,58 59,61 58,62 56,62 55,61 54,61 53,60 48,60 45,63 45,67 47,69 48,69 49,70 53,70 54,69 55,69 56,68 57,68 57,67 59,65 60,65 63,68 63,69 63,68 64,67 62,65 61,65 60,64 60,60 61,59 61,50 60,49 60,47 59,46 59,45 58,44 58,43 57,42 56,42 55,41 50,41 49,42 48,42 47,43 46,43 45,44 44,44 40,48 40,49 39,50 38,50 37,49 37,45 39,43 37,41 37,35 38,34 37,34" stroke="black" stroke-width="1" /><polygon fill="none" id="2" points="48,61 53,61 54,62 56,62 58,64 58,65 55,68 54,68 53,69 49,69 48,68 47,68 46,67 46,63" stroke="black" stroke-width="1" /></svg>