<?xml version="1.0" encoding="utf-8" ?>
<svg baseProfile="full" height="100" version="1.1" width="100" xmlns="http://www.w3.org/2000/svg" xmlns:ev="http://www.w3.org/2001/xml-events" xmlns:xlink="http://www.w3.org/1999/xlink"><defs /><polygon fill="none" id="1" points="40,33 40,41 39,42 38,42 37,43 30,43 30,44 31,45 33,45 34,44 37,44 38,43 39,43 40,44 40,52 35,57 35,58 30,63 31,64 32,64 33,63 33,62 36,59 36,58 37,57 39,57 40,58 40,72 42,72 42,71 41,70 41,53 49,45 50,45 52,43 54,43 55,42 60,42 61,43 62,43 65,46 65,48 66,49 66,61 65,62 62,62 61,61 60,61 59,60 54,60 53,61 52,61 50,63 50,67 52,69 53,69 54,70 59,70 60,69 61,69 62,68 63,68 65,66 68,66 69,67 69,68 70,69 70,68 71,67 69,65 68,65 66,63 66,62 67,61 67,59 68,58 68,50 67,49 67,47 66,46 66,45 63,42 62,42 61,41 56,41 55,42 53,42 52,43 51,43 50,44 49,44 43,50 42,50 41,49 41,46 42,45 42,44 43,43 41,41 41,36 42,35 42,34 41,34" stroke="black" stroke-width="1" /><polygon fill="none" id="2" points="53,61 59,61 60,62 62,62 64,64 64,65 61,68 60,68 59,69 54,69 51,66 51,63" stroke="black" stroke-width="1" /></svg>