<?xml version="1.0" encoding="utf-8" ?>
<svg baseProfile="full" height="100" version="1.1" width="100" xmlns="http://www.w3.org/2000/svg" xmlns:ev="http://www.w3.org/2001/xml-events" xmlns:xlink="http://www.w3.org/1999/xlink"><defs /><polygon fill="none" id="1" points="44,33 44,41 43,42 42,42 41,43 33,43 33,45 37,45 38,44 41,44 42,43 43,43 44,44 44,52 33,63 34,64 35,64 39,60 39,59 41,57 43,57 44,58 44,72 46,72 46,69 45,68 45,53 50,48 51,48 54,45 55,45 56,44 57,44 58,43 60,43 61,42 66,42 67,43 68,43 71,46 71,47 72,48 72,50 73,51 73,58 72,59 72,61 71,62 69,62 68,61 66,61 65,60 59,60 58,61 57,61 55,63 55,67 56,68 57,68 58,69 59,69 60,70 65,70 66,69 68,69 71,66 74,66 77,69 78,68 78,67 76,65 75,65 73,63 73,62 74,61 74,59 75,58 75,51 74,50 74,47 72,45 72,44 71,43 70,43 69,42 68,42 67,41 61,41 60,42 58,42 57,43 56,43 55,44 54,44 52,46 51,46 47,50 46,50 45,49 45,46 48,43 47,43 45,41 45,38 46,37 46,34 45,34" stroke="black" stroke-width="1" /><polygon fill="none" id="2" points="58,62 59,61 65,61 66,62 68,62 70,64 70,65 67,68 66,68 65,69 60,69 59,68 58,68 56,66 56,63 57,62" stroke="black" stroke-width="1" /></svg>