<?xml version="1.0" encoding="utf-8" ?>
<svg baseProfile="full" height="100" version="1.1" width="100" xmlns="http://www.w3.org/2000/svg" xmlns:ev="http://www.w3.org/2001/xml-events" xmlns:xlink="http://www.w3.org/1999/xlink"><defs /><polygon fill="none" id="1" points="38,42 37,43 35,43 34,44 32,44 31,45 29,45 28,46 27,46 27,47 28,48 28,50 30,50 31,49 32,49 33,48 34,48 35,47 36,47 37,46 39,46 40,45 43,45 44,46 45,46 46,47 46,49 47,50 47,56 46,57 46,59 45,60 45,61 39,67 38,67 37,68 34,68 34,70 36,72 38,72 39,71 40,71 41,70 42,70 48,64 48,63 49,62 49,60 50,59 50,47 49,46 49,45 47,43 46,43 45,42" stroke="black" stroke-width="1" /><polygon fill="none" id="2" points="34,30 34,31 33,32 33,33 34,34 36,34 37,35 38,35 39,36 40,36 41,37 42,37 43,38 45,38 46,37 46,34 45,34 44,33 43,33 42,32 41,32 40,31 39,31 38,30" stroke="black" stroke-width="1" /></svg>