<?xml version="1.0" encoding="utf-8" ?>
<svg baseProfile="full" height="100" version="1.1" width="100" xmlns="http://www.w3.org/2000/svg" xmlns:ev="http://www.w3.org/2001/xml-events" xmlns:xlink="http://www.w3.org/1999/xlink"><defs /><polygon fill="none" id="1" points="48,33 48,41 47,42 45,42 44,43 36,43 36,45 40,45 41,44 47,44 48,45 48,47 47,48 47,50 48,51 48,52 45,55 44,55 36,63 38,65 39,64 39,63 45,57 47,57 48,58 48,62 47,63 47,65 48,66 48,72 50,72 50,60 49,59 49,53 51,51 52,51 56,47 57,47 59,45 60,45 61,44 62,44 63,43 65,43 66,42 72,42 73,43 74,43 75,44 76,44 77,45 77,46 78,47 78,48 79,49 79,61 78,62 75,62 74,61 72,61 71,60 64,60 63,61 62,61 60,63 60,64 59,65 60,66 60,67 61,68 62,68 63,69 64,69 65,70 71,70 72,69 74,69 75,68 76,68 78,66 81,66 84,69 86,67 85,67 83,65 81,65 80,64 80,61 81,60 81,59 82,58 82,51 81,50 81,48 80,47 80,46 76,42 74,42 73,41 66,41 65,42 63,42 62,43 61,43 60,44 59,44 58,45 57,45 52,50 50,50 49,49 49,46 52,43 51,42 50,42 49,41 49,40 50,39 50,34 49,34" stroke="black" stroke-width="1" /><polygon fill="none" id="2" points="63,62 64,61 71,61 72,62 74,62 75,63 76,63 77,64 77,65 75,67 74,67 73,68 72,68 71,69 65,69 64,68 63,68 61,66 61,63 62,62" stroke="black" stroke-width="1" /></svg>