<?xml version="1.0" encoding="utf-8" ?>
<svg baseProfile="full" height="100" version="1.1" width="100" xmlns="http://www.w3.org/2000/svg" xmlns:ev="http://www.w3.org/2001/xml-events" xmlns:xlink="http://www.w3.org/1999/xlink"><defs /><polygon fill="none" id="1" points="30,31 30,39 28,41 22,41 22,45 23,46 27,46 28,45 29,45 30,46 30,51 27,54 27,55 24,58 24,59 22,61 22,64 24,66 26,66 26,65 27,64 27,63 29,61 30,62 30,73 34,73 34,53 37,50 37,49 40,46 41,46 43,44 44,44 45,43 46,43 47,44 48,44 49,45 49,46 50,47 50,49 51,50 51,58 50,59 49,59 48,58 41,58 38,61 38,68 40,70 41,70 42,71 48,71 49,70 50,70 52,68 53,68 54,69 54,70 57,70 57,69 58,68 58,65 56,63 55,63 54,62 55,61 55,47 54,46 54,44 53,43 53,42 50,39 43,39 42,40 40,40 36,44 35,43 35,41 34,40 34,32 33,31" stroke="black" stroke-width="1" /><polygon fill="none" id="2" points="44,62 45,62 46,63 47,63 48,64 48,65 47,66 46,66 45,67 44,67 42,65 42,64" stroke="black" stroke-width="1" /></svg>