<?xml version="1.0" encoding="utf-8" ?>
<svg baseProfile="full" height="100" version="1.1" width="100" xmlns="http://www.w3.org/2000/svg" xmlns:ev="http://www.w3.org/2001/xml-events" xmlns:xlink="http://www.w3.org/1999/xlink"><defs /><polygon fill="none" id="1" points="34,31 34,39 33,40 32,40 31,41 25,41 25,45 26,46 31,46 32,45 33,45 34,46 34,50 32,52 32,53 28,57 28,58 25,61 25,64 27,66 29,66 30,65 30,64 32,62 32,61 33,60 34,61 34,73 38,73 39,72 39,70 38,69 38,54 39,53 39,52 45,46 46,46 48,44 50,44 51,43 52,43 53,44 54,44 56,46 56,47 57,48 57,52 58,53 58,55 57,56 57,58 56,59 55,59 54,58 46,58 43,61 43,68 45,70 46,70 47,71 54,71 55,70 56,70 57,69 58,69 58,68 59,67 61,69 61,70 64,70 64,69 65,68 65,65 63,63 62,63 61,62 61,61 62,60 62,48 61,47 61,45 60,44 60,43 59,42 59,41 58,40 57,40 56,39 48,39 47,40 46,40 45,41 44,41 43,42 42,42 41,43 40,42 40,41 38,39 38,36 39,35 39,32 38,32 37,31" stroke="black" stroke-width="1" /><polygon fill="none" id="2" points="49,62 51,62 52,63 54,63 55,64 53,66 52,66 51,67 50,67 49,66 48,66 47,65 47,64" stroke="black" stroke-width="1" /></svg>