<?xml version="1.0" encoding="utf-8" ?>
<svg baseProfile="full" height="100" version="1.1" width="100" xmlns="http://www.w3.org/2000/svg" xmlns:ev="http://www.w3.org/2001/xml-events" xmlns:xlink="http://www.w3.org/1999/xlink"><defs /><polygon fill="none" id="1" points="38,31 38,39 37,40 36,40 35,41 28,41 28,45 29,46 34,46 35,45 37,45 38,46 38,50 33,55 33,56 28,61 28,64 30,66 32,66 34,64 34,63 37,60 38,61 38,73 43,73 43,69 42,68 42,54 50,46 51,46 53,44 55,44 56,43 58,43 59,44 60,44 63,47 63,49 64,50 64,59 63,60 62,59 61,59 60,58 52,58 51,59 50,59 48,61 48,68 50,70 51,70 52,71 60,71 61,70 62,70 63,69 64,69 66,67 67,68 67,69 68,70 71,70 71,69 73,67 73,65 72,65 70,63 69,63 68,62 68,60 69,59 69,48 68,47 68,45 67,44 67,43 64,40 63,40 62,39 54,39 53,40 51,40 50,41 49,41 48,42 47,42 45,44 44,43 44,41 42,39 42,37 43,36 43,32 42,32 41,31" stroke="black" stroke-width="1" /><polygon fill="none" id="2" points="54,62 57,62 58,63 60,63 61,64 59,66 58,66 57,67 55,67 52,64" stroke="black" stroke-width="1" /></svg>