<?xml version="1.0" encoding="utf-8" ?>
<svg baseProfile="full" height="100" version="1.1" width="100" xmlns="http://www.w3.org/2000/svg" xmlns:ev="http://www.w3.org/2001/xml-events" xmlns:xlink="http://www.w3.org/1999/xlink"><defs /><polygon fill="none" id="1" points="42,31 42,39 41,40 40,40 39,41 31,41 31,46 38,46 39,45 41,45 42,46 42,50 31,61 31,64 33,66 35,66 40,61 40,60 41,59 42,60 42,73 47,73 47,67 46,66 46,54 51,49 52,49 55,46 56,46 57,45 58,45 59,44 61,44 62,43 64,43 65,44 66,44 69,47 69,48 70,49 70,51 71,52 71,56 70,57 70,58 69,59 67,59 66,58 57,58 56,59 55,59 53,61 53,62 52,63 52,65 53,66 53,68 54,69 55,69 56,70 57,70 58,71 66,71 67,70 69,70 72,67 75,70 78,70 79,69 79,68 80,67 80,65 79,65 77,63 76,63 75,62 75,60 76,59 76,49 75,48 75,45 73,43 73,42 72,41 71,41 70,40 69,40 68,39 59,39 58,40 56,40 55,41 54,41 53,42 52,42 50,44 49,43 49,41 48,41 46,39 47,38 47,32 46,32 45,31" stroke="black" stroke-width="1" /><polygon fill="none" id="2" points="59,63 60,62 63,62 64,63 66,63 67,64 65,66 64,66 63,67 61,67 60,66 59,66 57,64 58,63" stroke="black" stroke-width="1" /></svg>