<?xml version="1.0" encoding="utf-8" ?>
<svg baseProfile="full" height="100" version="1.1" width="100" xmlns="http://www.w3.org/2000/svg" xmlns:ev="http://www.w3.org/2001/xml-events" xmlns:xlink="http://www.w3.org/1999/xlink"><defs /><polygon fill="none" id="1" points="46,31 46,39 45,40 43,40 42,41 34,41 34,46 41,46 42,45 44,45 45,46 45,51 43,53 42,53 34,61 34,64 36,66 39,66 40,65 40,64 44,60 45,61 45,66 46,67 46,69 45,70 45,72 46,73 51,73 51,58 50,57 50,54 52,52 53,52 57,48 58,48 60,46 61,46 62,45 63,45 64,44 66,44 67,43 70,43 71,44 72,44 73,45 74,45 75,46 75,47 76,48 76,49 77,50 77,59 76,60 75,59 73,59 72,58 62,58 61,59 60,59 58,61 58,62 57,63 57,66 58,67 58,68 59,69 60,69 61,70 62,70 63,71 72,71 73,70 75,70 76,69 77,69 79,67 82,70 85,70 87,68 87,65 86,65 84,63 82,63 81,62 82,61 82,60 83,59 83,49 82,48 82,46 81,45 81,44 77,40 75,40 74,39 64,39 63,40 61,40 60,41 59,41 58,42 57,42 56,43 55,43 54,44 53,43 53,41 51,39 51,35 52,34 52,32 50,32 49,31" stroke="black" stroke-width="1" /><polygon fill="none" id="2" points="64,63 65,62 69,62 70,63 72,63 73,64 71,66 70,66 69,67 66,67 65,66 64,66 62,64 63,63" stroke="black" stroke-width="1" /><polygon fill="none" id="3" points="44,60 45,59 46,60 45,61" stroke="black" stroke-width="1" /></svg>