<?xml version="1.0" encoding="utf-8" ?>
<svg baseProfile="full" height="100" version="1.1" width="100" xmlns="http://www.w3.org/2000/svg" xmlns:ev="http://www.w3.org/2001/xml-events" xmlns:xlink="http://www.w3.org/1999/xlink"><defs /><polygon fill="none" id="1" points="44,69 46,69" stroke="black" stroke-width="1" /><polygon fill="none" id="2" points="48,68" stroke="black" stroke-width="1" /><polygon fill="none" id="3" points="40,63 40,66" stroke="black" stroke-width="1" /><polygon fill="none" id="4" points="50,62 51,63 51,65 54,65 55,66 54,65 53,65 52,64 52,62" stroke="black" stroke-width="1" /><polygon fill="none" id="5" points="25,62" stroke="black" stroke-width="1" /><polygon fill="none" id="6" points="48,61" stroke="black" stroke-width="1" /><polygon fill="none" id="7" points="43,60 46,60" stroke="black" stroke-width="1" /><polygon fill="none" id="8" points="27,59 26,60" stroke="black" stroke-width="1" /><polygon fill="none" id="9" points="53,49 53,59" stroke="black" stroke-width="1" /><polygon fill="none" id="10" points="32,49 32,53 29,56 31,56 32,57 32,71 32,51 34,49" stroke="black" stroke-width="1" /><polygon fill="none" id="11" points="52,46 52,47" stroke="black" stroke-width="1" /><polygon fill="none" id="12" points="51,44" stroke="black" stroke-width="1" /><polygon fill="none" id="13" points="24,43 25,44 26,43 28,43" stroke="black" stroke-width="1" /><polygon fill="none" id="14" points="42,42" stroke="black" stroke-width="1" /><polygon fill="none" id="15" points="45,41 48,41 49,42 48,41" stroke="black" stroke-width="1" /><polygon fill="none" id="16" points="32,34 32,41 31,42 32,43 32,45 32,44 33,43 32,42" stroke="black" stroke-width="1" /></svg>