<?xml version="1.0" encoding="utf-8" ?>
<svg baseProfile="full" height="100" version="1.1" width="100" xmlns="http://www.w3.org/2000/svg" xmlns:ev="http://www.w3.org/2001/xml-events" xmlns:xlink="http://www.w3.org/1999/xlink"><defs /><polygon fill="none" id="1" points="49,69 52,69" stroke="black" stroke-width="1" /><polygon fill="none" id="2" points="54,68" stroke="black" stroke-width="1" /><polygon fill="none" id="3" points="47,68" stroke="black" stroke-width="1" /><polygon fill="none" id="4" points="56,67" stroke="black" stroke-width="1" /><polygon fill="none" id="5" points="61,65 62,66" stroke="black" stroke-width="1" /><polygon fill="none" id="6" points="45,63 45,66" stroke="black" stroke-width="1" /><polygon fill="none" id="7" points="54,61" stroke="black" stroke-width="1" /><polygon fill="none" id="8" points="48,60 52,60" stroke="black" stroke-width="1" /><polygon fill="none" id="9" points="31,58 30,59 30,60 28,62 28,63 28,62 30,60 30,59" stroke="black" stroke-width="1" /><polygon fill="none" id="10" points="59,47 59,50 60,51 60,57 59,58 59,61 58,62 57,62 58,63 58,64 59,64 59,59 60,58 60,50 59,49" stroke="black" stroke-width="1" /><polygon fill="none" id="11" points="58,45" stroke="black" stroke-width="1" /><polygon fill="none" id="12" points="44,44" stroke="black" stroke-width="1" /><polygon fill="none" id="13" points="27,43 28,44 29,44 30,43 32,43" stroke="black" stroke-width="1" /><polygon fill="none" id="14" points="48,42" stroke="black" stroke-width="1" /><polygon fill="none" id="15" points="50,41 54,41 55,42 56,42 57,43 56,42 55,42 54,41" stroke="black" stroke-width="1" /><polygon fill="none" id="16" points="36,34 36,41 35,42 34,42 35,42 36,43 36,52 34,54 34,55 33,56 35,56 36,57 36,71 36,52 37,51 37,50 36,49 36,44 37,43 37,42 36,41" stroke="black" stroke-width="1" /></svg>