<?xml version="1.0" encoding="utf-8" ?>
<svg baseProfile="full" height="100" version="1.1" width="100" xmlns="http://www.w3.org/2000/svg" xmlns:ev="http://www.w3.org/2001/xml-events" xmlns:xlink="http://www.w3.org/1999/xlink"><defs /><polygon fill="none" id="1" points="54,69 58,69" stroke="black" stroke-width="1" /><polygon fill="none" id="2" points="60,68" stroke="black" stroke-width="1" /><polygon fill="none" id="3" points="50,63 50,66 52,68 50,66" stroke="black" stroke-width="1" /><polygon fill="none" id="4" points="63,62 64,63 64,65 62,67 64,65 68,65 69,66 69,67 69,66 68,65 67,65 65,63 65,62" stroke="black" stroke-width="1" /><polygon fill="none" id="5" points="60,61" stroke="black" stroke-width="1" /><polygon fill="none" id="6" points="54,60 58,60" stroke="black" stroke-width="1" /><polygon fill="none" id="7" points="49,44" stroke="black" stroke-width="1" /><polygon fill="none" id="8" points="30,43 31,44 32,44 33,43 36,43" stroke="black" stroke-width="1" /><polygon fill="none" id="9" points="53,42" stroke="black" stroke-width="1" /><polygon fill="none" id="10" points="56,41 60,41 61,42 62,42 65,45 65,47 66,48 66,60 66,58 67,57 67,50 66,49 66,47 65,46 65,45 62,42 61,42 60,41" stroke="black" stroke-width="1" /><polygon fill="none" id="11" points="40,34 40,41 39,42 38,42 39,42 40,43 40,52 35,57 35,58 31,62 31,63 32,62 32,61 35,58 35,57 36,56 39,56 40,57 40,71 41,71 40,70 40,52 42,50 41,50 40,49 40,45 41,44 41,42 40,41 40,35 41,34" stroke="black" stroke-width="1" /></svg>