<?xml version="1.0" encoding="utf-8" ?>
<svg baseProfile="full" height="100" version="1.1" width="100" xmlns="http://www.w3.org/2000/svg" xmlns:ev="http://www.w3.org/2001/xml-events" xmlns:xlink="http://www.w3.org/1999/xlink"><defs /><polygon fill="none" id="1" points="60,69 64,69" stroke="black" stroke-width="1" /><polygon fill="none" id="2" points="58,68" stroke="black" stroke-width="1" /><polygon fill="none" id="3" points="55,63 55,66 56,67 55,66" stroke="black" stroke-width="1" /><polygon fill="none" id="4" points="66,61 67,61" stroke="black" stroke-width="1" /><polygon fill="none" id="5" points="57,61" stroke="black" stroke-width="1" /><polygon fill="none" id="6" points="59,60 64,60" stroke="black" stroke-width="1" /><polygon fill="none" id="7" points="51,46 50,47" stroke="black" stroke-width="1" /><polygon fill="none" id="8" points="54,44" stroke="black" stroke-width="1" /><polygon fill="none" id="9" points="56,43" stroke="black" stroke-width="1" /><polygon fill="none" id="10" points="33,43 33,44 36,44 37,43 40,43" stroke="black" stroke-width="1" /><polygon fill="none" id="11" points="58,42 59,42" stroke="black" stroke-width="1" /><polygon fill="none" id="12" points="61,41 66,41 67,42 68,42 71,45 71,46 72,47 72,49 73,50 73,58 72,59 72,61 71,62 69,62 70,63 70,65 67,68 66,68 67,68 70,65 74,65 76,67 77,67 75,65 74,65 72,63 72,61 73,60 73,58 74,57 74,51 73,50 73,47 71,45 71,44 70,43 69,43 68,42 67,42 66,41" stroke="black" stroke-width="1" /><polygon fill="none" id="13" points="44,34 44,41 43,42 42,42 43,42 44,43 44,52 34,62 34,63 38,59 38,58 40,56 43,56 44,57 44,71 45,71 45,69 44,68 44,52 46,50 45,50 44,49 44,45 46,43 44,41 44,37 45,36 45,34" stroke="black" stroke-width="1" /></svg>