<?xml version="1.0" encoding="utf-8" ?>
<svg baseProfile="full" height="100" version="1.1" width="100" xmlns="http://www.w3.org/2000/svg" xmlns:ev="http://www.w3.org/2001/xml-events" xmlns:xlink="http://www.w3.org/1999/xlink"><defs /><polygon fill="none" id="1" points="43,42 42,43 39,43 38,44 36,44 35,45 32,45 31,46 30,46 30,47 31,48 31,49 32,50 34,50 35,49 36,49 37,48 38,48 39,47 41,47 42,46 44,46 45,45 49,45 52,48 52,49 53,50 53,55 52,56 52,58 51,59 51,60 50,61 50,62 47,65 46,65 44,67 42,67 41,68 39,68 39,71 40,72 43,72 44,71 45,71 46,70 47,70 48,69 49,69 54,64 54,63 55,62 55,61 56,60 56,57 57,56 57,50 56,49 56,46 53,43 52,43 51,42" stroke="black" stroke-width="1" /><polygon fill="none" id="2" points="39,30 38,31 38,34 41,34 42,35 43,35 44,36 45,36 46,37 47,37 48,38 51,38 51,37 52,36 52,35 51,34 50,34 49,33 48,33 47,32 46,32 45,31 43,31 42,30" stroke="black" stroke-width="1" /></svg>