<?xml version="1.0" encoding="utf-8" ?>
<svg baseProfile="full" height="100" version="1.1" width="100" xmlns="http://www.w3.org/2000/svg" xmlns:ev="http://www.w3.org/2001/xml-events" xmlns:xlink="http://www.w3.org/1999/xlink"><defs /><polygon fill="none" id="1" points="65,69 70,69" stroke="black" stroke-width="1" /><polygon fill="none" id="2" points="63,68" stroke="black" stroke-width="1" /><polygon fill="none" id="3" points="60,63 60,66 61,67 60,66" stroke="black" stroke-width="1" /><polygon fill="none" id="4" points="72,61 73,61" stroke="black" stroke-width="1" /><polygon fill="none" id="5" points="62,61" stroke="black" stroke-width="1" /><polygon fill="none" id="6" points="64,60 70,60" stroke="black" stroke-width="1" /><polygon fill="none" id="7" points="57,45 56,46" stroke="black" stroke-width="1" /><polygon fill="none" id="8" points="59,44" stroke="black" stroke-width="1" /><polygon fill="none" id="9" points="61,43" stroke="black" stroke-width="1" /><polygon fill="none" id="10" points="63,42 64,42" stroke="black" stroke-width="1" /><polygon fill="none" id="11" points="66,41 72,41 73,42 74,42 75,43 76,43 77,44 77,45 78,46 78,47 79,48 79,61 78,62 75,62 76,62 77,63 77,65 75,67 74,67 73,68 72,68 73,68 74,67 75,67 77,65 81,65 83,67 84,67 82,65 80,65 79,64 79,60 80,59 80,58 81,57 81,51 80,50 80,48 79,47 79,46 75,42 73,42 72,41" stroke="black" stroke-width="1" /><polygon fill="none" id="12" points="48,34 48,41 47,42 45,42 44,43 36,43 36,44 39,44 40,43 47,43 48,44 48,47 47,48 47,49 48,50 48,52 45,55 44,55 37,62 37,63 38,63 38,62 44,56 47,56 48,57 48,62 47,63 47,64 48,65 48,71 49,71 49,60 48,59 48,52 50,50 51,50 49,50 48,49 48,45 50,43 50,42 49,42 48,41 48,39 49,38 49,34" stroke="black" stroke-width="1" /></svg>