<?xml version="1.0" encoding="utf-8" ?>
<svg baseProfile="full" height="100" version="1.1" width="100" xmlns="http://www.w3.org/2000/svg" xmlns:ev="http://www.w3.org/2001/xml-events" xmlns:xlink="http://www.w3.org/1999/xlink"><defs /><polygon fill="none" id="1" points="37,36 36,37 34,37 33,38 32,38 27,43 27,44 26,45 26,46 25,47 25,49 24,50 24,60 25,61 25,63 26,64 26,65 29,68 32,68 34,66 34,65 36,63 36,62 37,61 37,59 38,58 38,55 39,54 39,52 40,51 40,46 41,45 41,39 42,38 44,38 45,39 46,39 52,45 52,47 53,48 53,56 52,57 52,59 51,60 51,61 47,65 46,65 45,66 44,66 43,67 40,67 40,69 41,70 44,70 45,69 46,69 47,68 48,68 53,63 53,62 54,61 54,59 55,58 55,47 54,46 54,44 53,43 53,42 49,38 48,38 47,37 45,37 44,36" stroke="black" stroke-width="1" /><polygon fill="none" id="2" points="36,39 37,38 38,38 39,39 39,43 38,44 38,50 37,51 37,54 36,55 36,57 35,58 35,60 34,61 34,62 33,63 33,64 31,66 30,66 27,63 27,61 26,60 26,51 27,50 27,48 28,47 28,46 35,39" stroke="black" stroke-width="1" /></svg>