<?xml version="1.0" encoding="utf-8" ?>
<svg baseProfile="full" height="100" version="1.1" width="100" xmlns="http://www.w3.org/2000/svg" xmlns:ev="http://www.w3.org/2001/xml-events" xmlns:xlink="http://www.w3.org/1999/xlink"><defs /><polygon fill="none" id="1" points="46,36 45,37 43,37 42,38 41,38 40,39 39,39 37,41 36,41 34,43 34,44 32,46 32,47 31,48 31,49 30,50 30,60 31,61 31,62 32,63 32,64 36,68 40,68 45,63 45,62 46,61 46,60 47,59 47,58 48,57 48,55 49,54 49,52 50,51 50,47 51,46 51,39 52,38 55,38 56,39 58,39 59,40 60,40 64,44 64,45 65,46 65,47 66,48 66,56 65,57 65,59 59,65 58,65 57,66 55,66 54,67 50,67 50,69 51,70 55,70 56,69 58,69 59,68 60,68 61,67 62,67 67,62 67,61 68,60 68,59 69,58 69,47 68,46 68,45 67,44 67,43 63,39 62,39 61,38 60,38 59,37 57,37 56,36" stroke="black" stroke-width="1" /><polygon fill="none" id="2" points="46,39 47,38 48,38 49,39 49,41 48,42 48,47 47,48 47,51 46,52 46,54 45,55 45,57 44,58 44,59 43,60 43,61 42,62 42,63 39,66 37,66 34,63 34,62 33,61 33,51 34,50 34,48 36,46 36,45 39,42 40,42 42,40 43,40 44,39" stroke="black" stroke-width="1" /></svg>