<?xml version="1.0" encoding="utf-8" ?>
<svg baseProfile="full" height="100" version="1.1" width="100" xmlns="http://www.w3.org/2000/svg" xmlns:ev="http://www.w3.org/2001/xml-events" xmlns:xlink="http://www.w3.org/1999/xlink"><defs /><polygon fill="none" id="1" points="56,36 55,37 51,37 50,38 49,38 48,39 47,39 46,40 45,40 43,42 42,42 40,44 40,45 37,48 37,50 36,51 36,60 37,61 37,62 40,65 40,66 41,66 43,68 48,68 49,67 50,67 54,63 54,62 56,60 56,59 57,58 57,57 58,56 58,55 59,54 59,52 60,51 60,48 61,47 61,43 62,42 62,39 63,38 66,38 67,39 69,39 70,40 72,40 74,42 75,42 77,44 77,45 78,46 78,47 79,48 79,57 78,58 78,59 74,63 73,63 71,65 69,65 68,66 66,66 65,67 60,67 59,68 61,70 66,70 67,69 70,69 71,68 72,68 73,67 74,67 75,66 76,66 80,62 81,62 81,61 82,60 82,59 83,58 83,47 82,46 82,45 77,40 76,40 75,39 74,39 73,38 72,38 71,37 68,37 67,36" stroke="black" stroke-width="1" /><polygon fill="none" id="2" points="55,39 56,38 58,38 59,39 59,41 58,42 58,45 57,46 57,49 56,50 56,52 55,53 55,55 54,56 54,57 53,58 53,59 51,61 51,62 47,66 45,66 44,65 43,65 41,63 41,62 40,61 40,58 39,57 39,55 40,54 40,51 41,50 41,48 47,42 48,42 49,41 50,41 51,40 52,40 53,39" stroke="black" stroke-width="1" /></svg>