<?xml version="1.0" encoding="utf-8" ?>
<svg baseProfile="full" height="100" version="1.1" width="100" xmlns="http://www.w3.org/2000/svg" xmlns:ev="http://www.w3.org/2001/xml-events" xmlns:xlink="http://www.w3.org/1999/xlink"><defs /><polygon fill="none" id="1" points="42,36 41,37 39,37 38,38 37,38 36,39 35,39 30,44 30,45 29,46 29,47 28,48 28,49 27,50 27,60 28,61 28,63 30,65 30,66 31,67 32,67 33,68 36,68 40,64 40,63 41,62 41,61 42,60 42,58 43,57 43,55 44,54 44,52 45,51 45,47 46,46 46,39 47,38 49,38 50,39 52,39 54,41 55,41 57,43 57,44 58,45 58,46 59,47 59,51 60,52 59,53 59,58 58,59 58,60 53,65 52,65 51,66 50,66 49,67 45,67 45,69 46,70 49,70 50,69 52,69 53,68 54,68 56,66 57,66 59,64 59,63 61,61 61,59 62,58 62,47 61,46 61,45 60,44 60,43 55,38 54,38 53,37 51,37 50,36" stroke="black" stroke-width="1" /><polygon fill="none" id="2" points="41,39 42,38 43,38 44,39 44,42 43,43 43,48 42,49 42,52 41,53 41,55 40,56 40,58 39,59 39,61 37,63 37,64 35,66 33,66 31,64 31,63 30,62 30,59 29,58 29,54 30,53 30,50 31,49 31,47 34,44 34,43 35,42 36,42 38,40 39,40 40,39" stroke="black" stroke-width="1" /></svg>