<?xml version="1.0" encoding="utf-8" ?>
<svg baseProfile="full" height="100" version="1.1" width="100" xmlns="http://www.w3.org/2000/svg" xmlns:ev="http://www.w3.org/2001/xml-events" xmlns:xlink="http://www.w3.org/1999/xlink"><defs /><polygon fill="none" id="1" points="51,36 50,37 47,37 46,38 45,38 44,39 43,39 42,40 41,40 35,46 35,47 34,48 34,50 33,51 33,60 34,61 34,62 35,63 35,64 38,67 39,67 40,68 44,68 45,67 46,67 49,64 49,63 51,61 51,60 52,59 52,57 53,56 53,55 54,54 54,52 55,51 55,47 56,46 56,41 57,40 57,39 58,38 60,38 61,39 64,39 65,40 66,40 72,46 72,48 73,49 73,55 72,56 72,58 70,60 70,61 69,62 68,62 65,65 64,65 63,66 61,66 60,67 55,67 54,68 56,70 61,70 62,69 64,69 65,68 66,68 67,67 68,67 69,66 70,66 74,62 74,61 75,60 75,59 76,58 76,47 75,46 75,45 74,44 74,43 72,41 71,41 69,39 68,39 67,38 66,38 65,37 62,37 61,36" stroke="black" stroke-width="1" /><polygon fill="none" id="2" points="50,39 51,38 53,38 54,39 54,41 53,42 53,46 52,47 52,50 51,51 51,53 50,54 50,56 49,57 49,58 48,59 48,60 46,62 46,63 43,66 41,66 37,62 37,61 36,60 36,52 37,51 37,49 40,46 40,45 43,42 44,42 46,40 48,40 49,39" stroke="black" stroke-width="1" /></svg>