<?xml version="1.0" encoding="utf-8" ?>
<svg baseProfile="full" height="100" version="1.1" width="100" xmlns="http://www.w3.org/2000/svg" xmlns:ev="http://www.w3.org/2001/xml-events" xmlns:xlink="http://www.w3.org/1999/xlink"><defs /><polygon fill="none" id="1" points="48,42 47,43 43,43 42,44 40,44 39,45 36,45 35,46 34,46 34,47 35,48 35,50 38,50 39,49 40,49 41,48 42,48 43,47 45,47 46,46 49,46 50,45 54,45 55,46 56,46 58,48 58,50 59,51 59,55 58,56 58,58 57,59 57,60 52,65 51,65 50,66 49,66 48,67 47,67 46,68 43,68 43,70 45,72 48,72 49,71 50,71 51,70 52,70 53,69 54,69 55,68 56,68 60,64 60,63 61,62 61,61 62,60 62,58 63,57 63,49 62,48 62,46 59,43 58,43 57,42" stroke="black" stroke-width="1" /><polygon fill="none" id="2" points="43,30 42,31 42,34 45,34 46,35 48,35 49,36 51,36 53,38 56,38 57,37 57,34 56,34 55,33 53,33 52,32 51,32 50,31 48,31 47,30" stroke="black" stroke-width="1" /></svg>