<?xml version="1.0" encoding="utf-8" ?>
<svg baseProfile="full" height="100" version="1.1" width="100" xmlns="http://www.w3.org/2000/svg" xmlns:ev="http://www.w3.org/2001/xml-events" xmlns:xlink="http://www.w3.org/1999/xlink"><defs /><polygon fill="none" id="1" points="37,36 36,37 34,37 33,38 32,38 27,43 27,44 26,45 26,46 25,47 25,49 24,50 24,61 25,62 25,64 26,65 26,66 29,69 33,69 35,67 35,66 37,64 37,63 38,62 38,60 39,59 39,56 40,55 40,53 41,52 41,47 42,46 42,40 43,39 44,39 45,40 46,40 52,46 52,48 53,49 53,56 52,57 52,59 51,60 51,61 47,65 46,65 45,66 44,66 43,67 40,67 40,70 41,71 45,71 46,70 47,70 48,69 49,69 54,64 54,63 55,62 55,60 56,59 56,47 55,46 55,44 54,43 54,42 50,38 49,38 48,37 46,37 45,36" stroke="black" stroke-width="1" /><polygon fill="none" id="2" points="37,40 38,39 39,40 39,43 38,44 38,50 37,51 37,54 36,55 36,57 35,58 35,60 34,61 34,62 33,63 33,64 31,66 28,63 28,61 27,60 27,52 28,51 28,49 29,48 29,47 36,40" stroke="black" stroke-width="1" /></svg>