<?xml version="1.0" encoding="utf-8" ?>
<svg baseProfile="full" height="100" version="1.1" width="100" xmlns="http://www.w3.org/2000/svg" xmlns:ev="http://www.w3.org/2001/xml-events" xmlns:xlink="http://www.w3.org/1999/xlink"><defs /><polygon fill="none" id="1" points="42,36 41,37 39,37 38,38 37,38 36,39 35,39 30,44 30,45 29,46 29,47 28,48 28,49 27,50 27,61 28,62 28,64 30,66 30,67 31,68 32,68 33,69 37,69 41,65 41,64 42,63 42,62 43,61 43,59 44,58 44,56 45,55 45,53 46,52 46,48 47,47 47,40 48,39 49,39 50,40 52,40 54,42 55,42 57,44 57,45 58,46 58,47 59,48 59,58 58,59 58,60 53,65 52,65 51,66 50,66 49,67 45,67 45,70 46,71 50,71 51,70 53,70 54,69 55,69 57,67 58,67 60,65 60,64 62,62 62,60 63,59 63,47 62,46 62,45 61,44 61,43 56,38 55,38 54,37 52,37 51,36" stroke="black" stroke-width="1" /><polygon fill="none" id="2" points="42,40 43,39 44,40 44,42 43,43 43,48 42,49 42,52 41,53 41,55 40,56 40,58 39,59 39,61 37,63 37,64 35,66 34,66 32,64 32,63 31,62 31,59 30,58 30,55 31,54 31,51 32,50 32,48 35,45 35,44 36,43 37,43 39,41 40,41 41,40" stroke="black" stroke-width="1" /></svg>