<?xml version="1.0" encoding="utf-8" ?>
<svg baseProfile="full" height="100" version="1.1" width="100" xmlns="http://www.w3.org/2000/svg" xmlns:ev="http://www.w3.org/2001/xml-events" xmlns:xlink="http://www.w3.org/1999/xlink"><defs /><polygon fill="none" id="1" points="46,36 45,37 43,37 42,38 41,38 40,39 39,39 37,41 36,41 34,43 34,44 32,46 32,47 31,48 31,49 30,50 30,61 31,62 31,63 32,64 32,65 36,69 41,69 46,64 46,63 47,62 47,61 48,60 48,59 49,58 49,56 50,55 50,53 51,52 51,48 52,47 52,40 53,39 55,39 56,40 58,40 59,41 60,41 64,45 64,46 65,47 65,48 66,49 66,56 65,57 65,59 59,65 58,65 57,66 55,66 54,67 50,67 50,70 51,71 56,71 57,70 59,70 60,69 61,69 62,68 63,68 68,63 68,62 69,61 69,60 70,59 70,47 69,46 69,45 68,44 68,43 64,39 63,39 62,38 61,38 60,37 58,37 57,36" stroke="black" stroke-width="1" /><polygon fill="none" id="2" points="47,40 48,39 49,40 49,41 48,42 48,47 47,48 47,51 46,52 46,54 45,55 45,57 44,58 44,59 43,60 43,61 42,62 42,63 39,66 38,66 35,63 35,62 34,61 34,52 35,51 35,49 37,47 37,46 40,43 41,43 43,41 44,41 45,40" stroke="black" stroke-width="1" /></svg>