<?xml version="1.0" encoding="utf-8" ?>
<svg baseProfile="full" height="100" version="1.1" width="100" xmlns="http://www.w3.org/2000/svg" xmlns:ev="http://www.w3.org/2001/xml-events" xmlns:xlink="http://www.w3.org/1999/xlink"><defs /><polygon fill="none" id="1" points="51,36 50,37 47,37 46,38 45,38 44,39 43,39 42,40 41,40 35,46 35,47 34,48 34,50 33,51 33,61 34,62 34,63 35,64 35,65 38,68 39,68 40,69 45,69 46,68 47,68 50,65 50,64 52,62 52,61 53,60 53,58 54,57 54,56 55,55 55,53 56,52 56,48 57,47 57,42 58,41 58,40 59,39 60,39 61,40 64,40 65,41 66,41 72,47 72,49 73,50 73,55 72,56 72,58 70,60 70,61 69,62 68,62 65,65 64,65 63,66 61,66 60,67 55,67 54,68 54,69 56,71 62,71 63,70 65,70 66,69 67,69 68,68 69,68 70,67 71,67 75,63 75,62 76,61 76,60 77,59 77,47 76,46 76,45 75,44 75,43 73,41 72,41 70,39 69,39 68,38 67,38 66,37 63,37 62,36" stroke="black" stroke-width="1" /><polygon fill="none" id="2" points="51,40 52,39 53,39 54,40 54,41 53,42 53,46 52,47 52,50 51,51 51,53 50,54 50,56 49,57 49,58 48,59 48,60 46,62 46,63 43,66 42,66 38,62 38,61 37,60 37,53 38,52 38,50 41,47 41,46 44,43 45,43 47,41 49,41 50,40" stroke="black" stroke-width="1" /></svg>