<?xml version="1.0" encoding="utf-8" ?>
<svg baseProfile="full" height="100" version="1.1" width="100" xmlns="http://www.w3.org/2000/svg" xmlns:ev="http://www.w3.org/2001/xml-events" xmlns:xlink="http://www.w3.org/1999/xlink"><defs /><polygon fill="none" id="1" points="56,36 55,37 51,37 50,38 49,38 48,39 47,39 46,40 45,40 43,42 42,42 40,44 40,45 37,48 37,50 36,51 36,61 37,62 37,63 40,66 40,67 41,67 43,69 49,69 50,68 51,68 55,64 55,63 57,61 57,60 58,59 58,58 59,57 59,56 60,55 60,53 61,52 61,49 62,48 62,44 63,43 63,40 64,39 66,39 67,40 69,40 70,41 72,41 74,43 75,43 77,45 77,46 78,47 78,48 79,49 79,57 78,58 78,59 74,63 73,63 71,65 69,65 68,66 66,66 65,67 60,67 59,68 59,69 61,71 67,71 68,70 71,70 72,69 73,69 74,68 75,68 76,67 77,67 81,63 82,63 82,62 83,61 83,60 84,59 84,47 83,46 83,45 78,40 77,40 76,39 75,39 74,38 73,38 72,37 69,37 68,36" stroke="black" stroke-width="1" /><polygon fill="none" id="2" points="56,40 57,39 58,39 59,40 59,41 58,42 58,45 57,46 57,49 56,50 56,52 55,53 55,55 54,56 54,57 53,58 53,59 51,61 51,62 47,66 46,66 45,65 44,65 42,63 42,62 41,61 41,58 40,57 40,56 41,55 41,52 42,51 42,49 48,43 49,43 50,42 51,42 52,41 53,41 54,40" stroke="black" stroke-width="1" /></svg>