<?xml version="1.0" encoding="utf-8" ?>
<svg baseProfile="full" height="100" version="1.1" width="100" xmlns="http://www.w3.org/2000/svg" xmlns:ev="http://www.w3.org/2001/xml-events" xmlns:xlink="http://www.w3.org/1999/xlink"><defs /><polygon fill="none" id="1" points="38,37 37,38 35,38 34,39 33,39 28,44 28,45 27,46 27,47 26,48 26,50 25,51 25,60 26,61 26,63 27,64 27,65 30,68 32,68 34,66 34,65 36,63 36,62 37,61 37,59 38,58 38,55 39,54 39,52 40,51 40,46 41,45 41,39 42,38 45,38 46,39 47,39 53,45 53,47 54,48 54,57 53,58 53,60 52,61 52,62 48,66 47,66 46,67 45,67 44,68 41,68 41,69 42,70 44,70 45,69 46,69 47,68 48,68 53,63 53,62 54,61 54,59 55,58 55,48 54,47 54,45 53,44 53,43 49,39 48,39 47,38 45,38 44,37" stroke="black" stroke-width="1" /><polygon fill="none" id="2" points="36,39 37,38 39,38 40,39 40,44 39,45 39,51 38,52 38,55 37,56 37,58 36,59 36,61 35,62 35,63 34,64 34,65 32,67 30,67 27,64 27,62 26,61 26,51 27,50 27,48 28,47 28,46 35,39" stroke="black" stroke-width="1" /></svg>