<?xml version="1.0" encoding="utf-8" ?>
<svg baseProfile="full" height="100" version="1.1" width="100" xmlns="http://www.w3.org/2000/svg" xmlns:ev="http://www.w3.org/2001/xml-events" xmlns:xlink="http://www.w3.org/1999/xlink"><defs /><polygon fill="none" id="1" points="43,37 42,38 40,38 39,39 38,39 37,40 36,40 31,45 31,46 30,47 30,48 29,49 29,50 28,51 28,60 29,61 29,63 31,65 31,66 32,67 33,67 34,68 36,68 40,64 40,63 41,62 41,61 42,60 42,58 43,57 43,55 44,54 44,52 45,51 45,47 46,46 46,39 47,38 50,38 51,39 53,39 55,41 56,41 58,43 58,44 59,45 59,46 60,47 60,51 61,52 61,53 60,54 60,59 59,60 59,61 54,66 53,66 52,67 51,67 50,68 46,68 46,69 47,70 49,70 50,69 52,69 53,68 54,68 56,66 57,66 59,64 59,63 61,61 61,59 62,58 62,48 61,47 61,46 60,45 60,44 55,39 54,39 53,38 51,38 50,37" stroke="black" stroke-width="1" /><polygon fill="none" id="2" points="41,39 42,38 44,38 45,39 45,43 44,44 44,49 43,50 43,53 42,54 42,56 41,57 41,59 40,60 40,62 38,64 38,65 36,67 33,67 31,65 31,64 30,63 30,60 29,59 29,54 30,53 30,50 31,49 31,47 34,44 34,43 35,42 36,42 38,40 39,40 40,39" stroke="black" stroke-width="1" /></svg>