<?xml version="1.0" encoding="utf-8" ?>
<svg baseProfile="full" height="100" version="1.1" width="100" xmlns="http://www.w3.org/2000/svg" xmlns:ev="http://www.w3.org/2001/xml-events" xmlns:xlink="http://www.w3.org/1999/xlink"><defs /><polygon fill="none" id="1" points="47,37 46,38 44,38 43,39 42,39 41,40 40,40 38,42 37,42 35,44 35,45 33,47 33,48 32,49 32,50 31,51 31,60 32,61 32,62 33,63 33,64 37,68 40,68 45,63 45,62 46,61 46,60 47,59 47,58 48,57 48,55 49,54 49,52 50,51 50,47 51,46 51,39 52,38 56,38 57,39 59,39 60,40 61,40 65,44 65,45 66,46 66,47 67,48 67,57 66,58 66,60 60,66 59,66 58,67 56,67 55,68 51,68 51,69 52,70 55,70 56,69 58,69 59,68 60,68 61,67 62,67 67,62 67,61 68,60 68,59 69,58 69,48 68,47 68,46 67,45 67,44 63,40 62,40 61,39 60,39 59,38 57,38 56,37" stroke="black" stroke-width="1" /><polygon fill="none" id="2" points="46,39 47,38 49,38 50,39 50,42 49,43 49,48 48,49 48,52 47,53 47,55 46,56 46,58 45,59 45,60 44,61 44,62 43,63 43,64 40,67 37,67 34,64 34,63 33,62 33,51 34,50 34,48 36,46 36,45 39,42 40,42 42,40 43,40 44,39" stroke="black" stroke-width="1" /></svg>