<?xml version="1.0" encoding="utf-8" ?>
<svg baseProfile="full" height="100" version="1.1" width="100" xmlns="http://www.w3.org/2000/svg" xmlns:ev="http://www.w3.org/2001/xml-events" xmlns:xlink="http://www.w3.org/1999/xlink"><defs /><polygon fill="none" id="1" points="52,37 51,38 48,38 47,39 46,39 45,40 44,40 43,41 42,41 36,47 36,48 35,49 35,51 34,52 34,60 35,61 35,62 36,63 36,64 39,67 40,67 41,68 44,68 45,67 46,67 49,64 49,63 51,61 51,60 52,59 52,57 53,56 53,55 54,54 54,52 55,51 55,47 56,46 56,41 57,40 57,39 58,38 61,38 62,39 65,39 66,40 67,40 73,46 73,48 74,49 74,56 73,57 73,59 71,61 71,62 70,63 69,63 66,66 65,66 64,67 62,67 61,68 56,68 56,69 57,70 61,70 62,69 64,69 65,68 66,68 67,67 68,67 69,66 70,66 74,62 74,61 75,60 75,59 76,58 76,48 75,47 75,46 74,45 74,44 72,42 71,42 69,40 68,40 67,39 66,39 65,38 62,38 61,37" stroke="black" stroke-width="1" /><polygon fill="none" id="2" points="50,39 51,38 54,38 55,39 55,42 54,43 54,47 53,48 53,51 52,52 52,54 51,55 51,57 50,58 50,59 49,60 49,61 47,63 47,64 44,67 41,67 37,63 37,62 36,61 36,52 37,51 37,49 40,46 40,45 43,42 44,42 46,40 48,40 49,39" stroke="black" stroke-width="1" /></svg>