<?xml version="1.0" encoding="utf-8" ?>
<svg baseProfile="full" height="100" version="1.1" width="100" xmlns="http://www.w3.org/2000/svg" xmlns:ev="http://www.w3.org/2001/xml-events" xmlns:xlink="http://www.w3.org/1999/xlink"><defs /><polygon fill="none" id="1" points="53,42 52,43 48,43 47,44 44,44 43,45 40,45 39,46 37,46 37,47 38,48 38,49 39,50 41,50 42,49 44,49 45,48 47,48 48,47 50,47 51,46 54,46 55,45 60,45 61,46 62,46 64,48 64,50 65,51 65,54 64,55 64,58 62,60 62,61 60,63 59,63 57,65 56,65 55,66 54,66 53,67 52,67 51,68 47,68 47,70 49,72 52,72 53,71 55,71 56,70 57,70 58,69 59,69 60,68 61,68 62,67 63,67 66,64 66,63 67,62 67,61 68,60 68,58 69,57 69,48 68,47 68,46 65,43 63,43 62,42" stroke="black" stroke-width="1" /><polygon fill="none" id="2" points="47,30 46,31 46,33 47,34 50,34 51,35 53,35 54,36 56,36 57,37 58,37 59,38 62,38 63,37 63,34 61,34 60,33 59,33 58,32 56,32 55,31 53,31 52,30" stroke="black" stroke-width="1" /></svg>