<?xml version="1.0" encoding="utf-8" ?>
<svg baseProfile="full" height="100" version="1.1" width="100" xmlns="http://www.w3.org/2000/svg" xmlns:ev="http://www.w3.org/2001/xml-events" xmlns:xlink="http://www.w3.org/1999/xlink"><defs /><polygon fill="none" id="1" points="57,37 56,38 52,38 51,39 50,39 49,40 48,40 47,41 46,41 44,43 43,43 41,45 41,46 38,49 38,51 37,52 37,60 38,61 38,62 41,65 41,66 42,66 44,68 48,68 49,67 50,67 54,63 54,62 56,60 56,59 57,58 57,57 58,56 58,55 59,54 59,52 60,51 60,48 61,47 61,43 62,42 62,39 63,38 67,38 68,39 70,39 71,40 73,40 75,42 76,42 78,44 78,45 79,46 79,47 80,48 80,58 79,59 79,60 75,64 74,64 72,66 70,66 69,67 67,67 66,68 61,68 61,69 62,70 66,70 67,69 70,69 71,68 72,68 73,67 74,67 75,66 76,66 80,62 81,62 81,61 82,60 82,59 83,58 83,48 82,47 82,46 77,41 76,41 75,40 74,40 73,39 72,39 71,38 68,38 67,37" stroke="black" stroke-width="1" /><polygon fill="none" id="2" points="55,39 56,38 59,38 60,39 60,42 59,43 59,46 58,47 58,50 57,51 57,53 56,54 56,56 55,57 55,58 54,59 54,60 52,62 52,63 48,67 45,67 44,66 43,66 41,64 41,63 40,62 40,59 39,58 39,55 40,54 40,51 41,50 41,48 47,42 48,42 49,41 50,41 51,40 52,40 53,39" stroke="black" stroke-width="1" /></svg>