<?xml version="1.0" encoding="utf-8" ?>
<svg baseProfile="full" height="100" version="1.1" width="100" xmlns="http://www.w3.org/2000/svg" xmlns:ev="http://www.w3.org/2001/xml-events" xmlns:xlink="http://www.w3.org/1999/xlink"><defs /><polygon fill="none" id="1" points="36,35 35,36 33,36 32,37 31,37 26,42 26,43 25,44 25,45 24,46 24,48 23,49 23,61 24,62 24,64 25,65 25,66 28,69 33,69 35,67 35,66 37,64 37,63 38,62 38,60 39,59 39,56 40,55 40,53 41,52 41,47 42,46 42,40 43,39 44,40 45,40 51,46 51,48 52,49 52,55 51,56 51,58 50,59 50,60 46,64 45,64 44,65 43,65 42,66 39,66 39,70 40,71 45,71 46,70 47,70 48,69 49,69 54,64 54,63 55,62 55,60 56,59 56,46 55,45 55,43 54,42 54,41 50,37 49,37 48,36 46,36 45,35" stroke="black" stroke-width="1" /><polygon fill="none" id="2" points="36,40 37,40 38,41 38,42 37,43 37,49 36,50 36,53 35,54 35,56 34,57 34,59 33,60 33,61 32,62 32,63 31,64 30,64 28,62 28,60 27,59 27,52 28,51 28,49 29,48 29,47" stroke="black" stroke-width="1" /></svg>