<?xml version="1.0" encoding="utf-8" ?>
<svg baseProfile="full" height="100" version="1.1" width="100" xmlns="http://www.w3.org/2000/svg" xmlns:ev="http://www.w3.org/2001/xml-events" xmlns:xlink="http://www.w3.org/1999/xlink"><defs /><polygon fill="none" id="1" points="41,35 40,36 38,36 37,37 36,37 35,38 34,38 29,43 29,44 28,45 28,46 27,47 27,48 26,49 26,61 27,62 27,64 29,66 29,67 30,68 31,68 32,69 37,69 41,65 41,64 42,63 42,62 43,61 43,59 44,58 44,56 45,55 45,53 46,52 46,48 47,47 47,40 48,39 49,40 51,40 53,42 54,42 56,44 56,45 57,46 57,47 58,48 58,57 57,58 57,59 52,64 51,64 50,65 49,65 48,66 44,66 44,70 45,71 50,71 51,70 53,70 54,69 55,69 57,67 58,67 60,65 60,64 62,62 62,60 63,59 63,46 62,45 62,44 61,43 61,42 56,37 55,37 54,36 52,36 51,35" stroke="black" stroke-width="1" /><polygon fill="none" id="2" points="40,41 41,40 42,40 43,41 42,42 42,47 41,48 41,51 40,52 40,54 39,55 39,57 38,58 38,60 36,62 36,63 34,65 32,63 32,62 31,61 31,58 30,57 30,55 31,54 31,51 32,50 32,48 35,45 35,44 36,43 37,43 39,41" stroke="black" stroke-width="1" /></svg>