<?xml version="1.0" encoding="utf-8" ?>
<svg baseProfile="full" height="100" version="1.1" width="100" xmlns="http://www.w3.org/2000/svg" xmlns:ev="http://www.w3.org/2001/xml-events" xmlns:xlink="http://www.w3.org/1999/xlink"><defs /><polygon fill="none" id="1" points="45,35 44,36 42,36 41,37 40,37 39,38 38,38 36,40 35,40 33,42 33,43 31,45 31,46 30,47 30,48 29,49 29,61 30,62 30,63 31,64 31,65 35,69 41,69 46,64 46,63 47,62 47,61 48,60 48,59 49,58 49,56 50,55 50,53 51,52 51,48 52,47 52,40 53,39 54,39 55,40 57,40 58,41 59,41 63,45 63,46 64,47 64,48 65,49 65,55 64,56 64,58 58,64 57,64 56,65 54,65 53,66 49,66 49,70 50,71 56,71 57,70 59,70 60,69 61,69 62,68 63,68 68,63 68,62 69,61 69,60 70,59 70,46 69,45 69,44 68,43 68,42 64,38 63,38 62,37 61,37 60,36 58,36 57,35" stroke="black" stroke-width="1" /><polygon fill="none" id="2" points="44,41 45,40 46,40 47,41 47,46 46,47 46,50 45,51 45,53 44,54 44,56 43,57 43,58 42,59 42,60 41,61 41,62 38,65 35,62 35,61 34,60 34,52 35,51 35,49 37,47 37,46 40,43 41,43 43,41" stroke="black" stroke-width="1" /></svg>