<?xml version="1.0" encoding="utf-8" ?>
<svg baseProfile="full" height="100" version="1.1" width="100" xmlns="http://www.w3.org/2000/svg" xmlns:ev="http://www.w3.org/2001/xml-events" xmlns:xlink="http://www.w3.org/1999/xlink"><defs /><polygon fill="none" id="1" points="50,35 49,36 46,36 45,37 44,37 43,38 42,38 41,39 40,39 34,45 34,46 33,47 33,49 32,50 32,61 33,62 33,63 34,64 34,65 37,68 38,68 39,69 45,69 46,68 47,68 50,65 50,64 52,62 52,61 53,60 53,58 54,57 54,56 55,55 55,53 56,52 56,48 57,47 57,42 58,41 58,40 59,39 60,40 63,40 64,41 65,41 71,47 71,49 72,50 72,54 71,55 71,57 69,59 69,60 68,61 67,61 64,64 63,64 62,65 60,65 59,66 54,66 53,67 53,69 55,71 62,71 63,70 65,70 66,69 67,69 68,68 69,68 70,67 71,67 75,63 75,62 76,61 76,60 77,59 77,46 76,45 76,44 75,43 75,42 73,40 72,40 70,38 69,38 68,37 67,37 66,36 63,36 62,35" stroke="black" stroke-width="1" /><polygon fill="none" id="2" points="49,41 50,40 51,40 52,41 52,45 51,46 51,49 50,50 50,52 49,53 49,55 48,56 48,57 47,58 47,59 45,61 45,62 42,65 38,61 38,60 37,59 37,53 38,52 38,50 41,47 41,46 44,43 45,43 47,41" stroke="black" stroke-width="1" /><polygon fill="none" id="3" points="51,40 52,39 53,40 52,41" stroke="black" stroke-width="1" /></svg>