<?xml version="1.0" encoding="utf-8" ?>
<svg baseProfile="full" height="100" version="1.1" width="100" xmlns="http://www.w3.org/2000/svg" xmlns:ev="http://www.w3.org/2001/xml-events" xmlns:xlink="http://www.w3.org/1999/xlink"><defs /><polygon fill="none" id="1" points="55,35 54,36 50,36 49,37 48,37 47,38 46,38 45,39 44,39 42,41 41,41 39,43 39,44 36,47 36,49 35,50 35,61 36,62 36,63 39,66 39,67 40,67 42,69 49,69 50,68 51,68 55,64 55,63 57,61 57,60 58,59 58,58 59,57 59,56 60,55 60,53 61,52 61,49 62,48 62,44 63,43 63,40 64,39 65,39 66,40 68,40 69,41 71,41 73,43 74,43 76,45 76,46 77,47 77,48 78,49 78,56 77,57 77,58 73,62 72,62 70,64 68,64 67,65 65,65 64,66 59,66 58,67 58,69 60,71 67,71 68,70 71,70 72,69 73,69 74,68 75,68 76,67 77,67 81,63 82,63 82,62 83,61 83,60 84,59 84,46 83,45 83,44 78,39 77,39 76,38 75,38 74,37 73,37 72,36 69,36 68,35" stroke="black" stroke-width="1" /><polygon fill="none" id="2" points="53,41 54,40 56,40 57,41 57,44 56,45 56,48 55,49 55,51 54,52 54,54 53,55 53,56 52,57 52,58 50,60 50,61 46,65 45,64 44,64 42,62 42,61 41,60 41,57 40,56 41,55 41,52 42,51 42,49 48,43 49,43 50,42 51,42 52,41" stroke="black" stroke-width="1" /><polygon fill="none" id="3" points="56,40 57,39 58,40 57,41" stroke="black" stroke-width="1" /></svg>