<?xml version="1.0" encoding="utf-8" ?>
<svg baseProfile="full" height="100" version="1.1" width="100" xmlns="http://www.w3.org/2000/svg" xmlns:ev="http://www.w3.org/2001/xml-events" xmlns:xlink="http://www.w3.org/1999/xlink"><defs /><polygon fill="none" id="1" points="30,67 31,67" stroke="black" stroke-width="1" /><polygon fill="none" id="2" points="35,62" stroke="black" stroke-width="1" /><polygon fill="none" id="3" points="26,62" stroke="black" stroke-width="1" /><polygon fill="none" id="4" points="36,59 36,60" stroke="black" stroke-width="1" /><polygon fill="none" id="5" points="37,56 37,57" stroke="black" stroke-width="1" /><polygon fill="none" id="6" points="38,52 38,53" stroke="black" stroke-width="1" /><polygon fill="none" id="7" points="25,51 25,59" stroke="black" stroke-width="1" /><polygon fill="none" id="8" points="54,48 54,57 53,58 53,60 52,61 52,62 48,66 47,66 46,67 45,67 44,68 41,68 42,69 43,69 44,68 45,68 46,67 47,67 52,62 52,61 53,60 53,58 54,57" stroke="black" stroke-width="1" /><polygon fill="none" id="9" points="26,48 26,49" stroke="black" stroke-width="1" /><polygon fill="none" id="10" points="27,46" stroke="black" stroke-width="1" /><polygon fill="none" id="11" points="53,45 53,46" stroke="black" stroke-width="1" /><polygon fill="none" id="12" points="48,39 52,43" stroke="black" stroke-width="1" /><polygon fill="none" id="13" points="33,39 28,44" stroke="black" stroke-width="1" /><polygon fill="none" id="14" points="46,38" stroke="black" stroke-width="1" /><polygon fill="none" id="15" points="35,38" stroke="black" stroke-width="1" /><polygon fill="none" id="16" points="38,37 39,37 40,38 40,44 39,45 39,50 39,45 40,44 40,38 41,37 43,37" stroke="black" stroke-width="1" /></svg>