<?xml version="1.0" encoding="utf-8" ?>
<svg baseProfile="full" height="100" version="1.1" width="100" xmlns="http://www.w3.org/2000/svg" xmlns:ev="http://www.w3.org/2001/xml-events" xmlns:xlink="http://www.w3.org/1999/xlink"><defs /><polygon fill="none" id="1" points="34,67 35,67" stroke="black" stroke-width="1" /><polygon fill="none" id="2" points="39,63 38,64" stroke="black" stroke-width="1" /><polygon fill="none" id="3" points="30,47 30,48 29,49 29,50 28,51 28,59 29,60 29,62 29,60 28,59 28,53 29,52 29,49 30,48" stroke="black" stroke-width="1" /><polygon fill="none" id="4" points="58,43 59,44 59,45 60,46 60,50 61,51 61,53 60,54 60,59 59,60 59,61 54,66 53,66 52,67 51,67 50,68 46,68 47,69 48,69 49,68 51,68 52,67 53,67 55,65 56,65 58,63 58,62 60,60 60,58 61,57 61,48 60,47 60,46 59,45 59,44" stroke="black" stroke-width="1" /><polygon fill="none" id="5" points="33,43 31,45" stroke="black" stroke-width="1" /><polygon fill="none" id="6" points="36,40 35,41" stroke="black" stroke-width="1" /><polygon fill="none" id="7" points="54,39 55,40" stroke="black" stroke-width="1" /><polygon fill="none" id="8" points="38,39" stroke="black" stroke-width="1" /><polygon fill="none" id="9" points="51,38 52,38" stroke="black" stroke-width="1" /><polygon fill="none" id="10" points="40,38" stroke="black" stroke-width="1" /><polygon fill="none" id="11" points="43,37 44,37 45,38 45,43 44,44 44,49 43,50 43,53 42,54 42,56 41,57 41,59 40,60 40,61 40,60 41,59 41,57 42,56 42,54 43,53 43,51 44,50 44,46 45,45 45,38 46,37 49,37" stroke="black" stroke-width="1" /></svg>