<?xml version="1.0" encoding="utf-8" ?>
<svg baseProfile="full" height="100" version="1.1" width="100" xmlns="http://www.w3.org/2000/svg" xmlns:ev="http://www.w3.org/2001/xml-events" xmlns:xlink="http://www.w3.org/1999/xlink"><defs /><polygon fill="none" id="1" points="37,67 39,67" stroke="black" stroke-width="1" /><polygon fill="none" id="2" points="33,63" stroke="black" stroke-width="1" /><polygon fill="none" id="3" points="37,42 35,44 35,45 33,47 33,48 32,49 32,50 31,51 31,59 32,60 32,61 32,50 33,49 33,47 35,45 35,44" stroke="black" stroke-width="1" /><polygon fill="none" id="4" points="62,40 65,43 65,44 66,45 66,46 67,47 67,57 66,58 66,60 60,66 59,66 58,67 56,67 55,68 51,68 52,69 54,69 55,68 57,68 58,67 59,67 60,66 61,66 66,61 66,60 67,59 67,58 68,57 68,48 67,47 67,46 66,45 66,44" stroke="black" stroke-width="1" /><polygon fill="none" id="5" points="40,40 39,41" stroke="black" stroke-width="1" /><polygon fill="none" id="6" points="60,39" stroke="black" stroke-width="1" /><polygon fill="none" id="7" points="42,39" stroke="black" stroke-width="1" /><polygon fill="none" id="8" points="57,38 58,38" stroke="black" stroke-width="1" /><polygon fill="none" id="9" points="44,38 45,38" stroke="black" stroke-width="1" /><polygon fill="none" id="10" points="47,37 49,37 50,38 50,42 49,43 49,48 48,49 48,52 47,53 47,55 46,56 46,58 45,59 45,60 44,61 44,62 43,63 44,62 44,61 45,60 45,59 46,58 46,57 47,56 47,54 48,53 48,51 49,50 49,46 50,45 50,38 51,37 55,37" stroke="black" stroke-width="1" /></svg>