<?xml version="1.0" encoding="utf-8" ?>
<svg baseProfile="full" height="100" version="1.1" width="100" xmlns="http://www.w3.org/2000/svg" xmlns:ev="http://www.w3.org/2001/xml-events" xmlns:xlink="http://www.w3.org/1999/xlink"><defs /><polygon fill="none" id="1" points="41,67 43,67" stroke="black" stroke-width="1" /><polygon fill="none" id="2" points="68,40 73,45 73,47 74,48 74,56 73,57 73,59 71,61 71,62 70,63 69,63 66,66 65,66 64,67 62,67 61,68 56,68 57,69 60,69 61,68 63,68 64,67 65,67 66,66 67,66 68,65 69,65 73,61 73,60 74,59 74,58 75,57 75,48 74,47 74,46 73,45 73,44 71,42 70,42" stroke="black" stroke-width="1" /><polygon fill="none" id="3" points="44,40 43,41 42,41 36,47 36,48 35,49 35,51 34,52 34,59 35,60 35,61 36,62 36,63 39,66 36,63 36,62 35,61 35,51 36,50 36,48 39,45 39,44 42,41 43,41" stroke="black" stroke-width="1" /><polygon fill="none" id="4" points="66,39" stroke="black" stroke-width="1" /><polygon fill="none" id="5" points="62,38 64,38" stroke="black" stroke-width="1" /><polygon fill="none" id="6" points="48,38 47,39 46,39 47,39 48,38 49,38" stroke="black" stroke-width="1" /><polygon fill="none" id="7" points="52,37 54,37 55,38 55,42 54,43 54,47 53,48 53,51 52,52 52,54 51,55 51,57 50,58 50,59 49,60 49,61 47,63 47,64 45,66 48,63 48,62 50,60 50,59 51,58 51,56 52,55 52,54 53,53 53,51 54,50 54,46 55,45 55,40 56,39 56,38 57,37 60,37" stroke="black" stroke-width="1" /></svg>