<?xml version="1.0" encoding="utf-8" ?>
<svg baseProfile="full" height="100" version="1.1" width="100" xmlns="http://www.w3.org/2000/svg" xmlns:ev="http://www.w3.org/2001/xml-events" xmlns:xlink="http://www.w3.org/1999/xlink"><defs /><polygon fill="none" id="1" points="57,42 56,43 52,43 51,44 48,44 47,45 43,45 42,46 41,46 41,47 42,48 42,50 45,50 46,49 48,49 49,48 51,48 52,47 54,47 55,46 59,46 60,45 65,45 66,46 67,46 70,49 70,50 71,51 71,54 70,55 70,57 69,58 69,59 64,64 63,64 61,66 59,66 58,67 56,67 55,68 51,68 51,70 52,70 54,72 57,72 58,71 60,71 61,70 63,70 64,69 65,69 66,68 67,68 70,65 71,65 72,64 72,63 73,62 73,61 74,60 74,59 75,58 75,55 76,54 76,51 75,50 75,48 74,47 74,46 71,43 69,43 68,42" stroke="black" stroke-width="1" /><polygon fill="none" id="2" points="51,30 51,31 50,32 50,33 51,34 55,34 56,35 58,35 59,36 61,36 62,37 63,37 64,38 67,38 69,36 69,35 68,34 67,34 66,33 64,33 63,32 61,32 60,31 57,31 56,30" stroke="black" stroke-width="1" /></svg>