<?xml version="1.0" encoding="utf-8" ?>
<svg baseProfile="full" height="100" version="1.1" width="100" xmlns="http://www.w3.org/2000/svg" xmlns:ev="http://www.w3.org/2001/xml-events" xmlns:xlink="http://www.w3.org/1999/xlink"><defs /><polygon fill="none" id="1" points="57,33 57,42 56,43 47,43 46,42 44,42 44,45 56,45 57,46 57,58 56,59 55,59 54,58 48,58 47,59 46,59 44,61 44,67 46,69 48,69 49,70 56,70 57,69 58,69 59,68 59,67 60,66 60,64 61,63 62,63 64,65 65,65 68,68 69,68 69,67 70,66 70,65 69,64 68,64 67,63 66,63 65,62 64,62 63,61 61,61 60,60 60,45 61,44 68,44 68,41 64,41 63,42 60,42 59,41 59,40 60,39 60,33" stroke="black" stroke-width="1" /><polygon fill="none" id="2" points="49,60 54,60 55,61 56,61 57,62 57,66 55,68 50,68 49,67 48,67 46,65 46,63" stroke="black" stroke-width="1" /><polygon fill="none" id="3" points="35,33 34,34 34,37 33,38 33,42 32,43 32,49 31,50 31,61 32,62 32,70 33,71 36,71 36,66 37,65 37,63 38,62 38,61 39,60 39,59 40,58 40,57 39,56 38,56 38,57 37,58 37,60 36,61 36,62 35,63 34,62 34,49 35,48 35,43 36,42 36,38 37,37 37,35 38,34 36,34" stroke="black" stroke-width="1" /></svg>