<?xml version="1.0" encoding="utf-8" ?>
<svg baseProfile="full" height="100" version="1.1" width="100" xmlns="http://www.w3.org/2000/svg" xmlns:ev="http://www.w3.org/2001/xml-events" xmlns:xlink="http://www.w3.org/1999/xlink"><defs /><polygon fill="none" id="1" points="62,33 62,35 63,36 63,41 61,43 52,43 51,42 48,42 48,45 62,45 63,46 63,58 62,59 61,59 60,58 53,58 52,59 51,59 48,62 48,66 51,69 53,69 54,70 62,70 63,69 64,69 65,68 65,67 66,66 66,64 67,63 68,63 70,65 71,65 72,66 73,66 75,68 76,68 76,67 77,66 77,65 76,64 75,64 74,63 73,63 72,62 70,62 69,61 67,61 66,60 66,45 67,44 75,44 75,41 71,41 70,42 66,42 65,41 65,40 66,39 66,33" stroke="black" stroke-width="1" /><polygon fill="none" id="2" points="54,60 59,60 60,61 62,61 63,62 63,66 62,67 61,67 60,68 55,68 54,67 53,67 51,65 51,63" stroke="black" stroke-width="1" /><polygon fill="none" id="3" points="38,33 38,34 37,35 37,38 36,39 36,43 35,44 35,50 34,51 34,61 35,62 35,69 36,70 36,71 39,71 40,70 40,65 41,64 41,63 42,62 42,61 43,60 43,59 44,58 44,57 43,56 42,56 42,57 41,58 41,59 40,60 40,61 39,62 38,62 37,61 37,54 38,53 38,47 39,46 39,42 40,41 40,38 41,37 41,35 42,34 40,34 39,33" stroke="black" stroke-width="1" /></svg>