<?xml version="1.0" encoding="utf-8" ?>
<svg baseProfile="full" height="100" version="1.1" width="100" xmlns="http://www.w3.org/2000/svg" xmlns:ev="http://www.w3.org/2001/xml-events" xmlns:xlink="http://www.w3.org/1999/xlink"><defs /><polygon fill="none" id="1" points="45,33 45,38 46,39 46,41 44,43 38,43 37,42 35,42 35,45 45,45 46,46 46,58 45,59 44,59 43,58 39,58 38,59 37,59 36,60 36,61 35,62 35,67 37,69 38,69 39,70 45,70 47,68 47,67 48,66 48,64 49,63 52,66 53,66 54,67 54,68 55,68 55,67 56,66 56,65 55,64 54,64 52,62 51,62 50,61 49,61 48,60 48,47 47,46 49,44 54,44 54,41 52,41 51,42 48,42 47,41 47,39 48,38 48,33" stroke="black" stroke-width="1" /><polygon fill="none" id="2" points="39,60 43,60 44,61 45,61 46,62 46,65 43,68 40,68 39,67 38,67 37,66 37,62" stroke="black" stroke-width="1" /><polygon fill="none" id="3" points="28,33 27,34 27,38 26,39 26,46 25,47 25,65 26,66 26,71 28,71 29,70 28,69 29,68 29,64 30,63 30,61 31,60 31,59 32,58 32,57 31,56 30,56 30,59 29,60 29,61 28,62 27,61 27,49 28,48 28,42 29,41 29,36 30,35 30,34 29,34" stroke="black" stroke-width="1" /></svg>