<?xml version="1.0" encoding="utf-8" ?>
<svg baseProfile="full" height="100" version="1.1" width="100" xmlns="http://www.w3.org/2000/svg" xmlns:ev="http://www.w3.org/2001/xml-events" xmlns:xlink="http://www.w3.org/1999/xlink"><defs /><polygon fill="none" id="1" points="51,33 51,42 50,43 42,43 41,42 39,42 40,43 40,45 50,45 51,46 51,56 52,57 52,58 51,59 50,59 49,58 44,58 43,59 42,59 40,61 40,62 39,63 39,66 42,69 43,69 44,70 50,70 51,69 52,69 53,68 53,67 54,66 54,64 55,63 56,64 57,64 61,68 62,68 62,67 63,66 63,65 62,64 61,64 59,62 58,62 57,61 55,61 54,60 54,47 53,46 55,44 61,44 61,41 58,41 57,42 54,42 53,41 53,39 54,38 54,33" stroke="black" stroke-width="1" /><polygon fill="none" id="2" points="44,60 49,60 50,61 51,61 52,62 52,64 51,65 51,66 49,68 45,68 44,67 43,67 42,66 42,65 41,64 41,63" stroke="black" stroke-width="1" /><polygon fill="none" id="3" points="31,33 31,36 30,37 30,41 29,42 29,48 28,49 28,63 29,64 29,71 32,71 32,66 33,65 33,63 34,62 34,61 35,60 35,59 36,58 36,57 35,56 34,56 34,58 33,59 33,61 32,62 31,62 30,61 30,55 31,54 31,45 32,44 32,39 33,38 33,35 34,34 33,34 32,33" stroke="black" stroke-width="1" /></svg>