<?xml version="1.0" encoding="utf-8" ?>
<svg baseProfile="full" height="100" version="1.1" width="100" xmlns="http://www.w3.org/2000/svg" xmlns:ev="http://www.w3.org/2001/xml-events" xmlns:xlink="http://www.w3.org/1999/xlink"><defs /><polygon fill="none" id="1" points="39,43 38,44 36,44 35,45 33,45 32,46 30,46 29,47 29,49 30,48 31,48 32,47 33,47 34,46 35,46 36,45 38,45 39,44 44,44 45,45 46,45 47,46 47,48 48,49 48,57 47,58 47,60 46,61 46,62 40,68 39,68 38,69 35,69 37,71 38,70 39,70 40,69 41,69 47,63 47,62 48,61 48,59 49,58 49,48 48,47 48,46 46,44 45,44 44,43" stroke="black" stroke-width="1" /><polygon fill="none" id="2" points="35,31 35,33 37,33 38,34 39,34 40,35 41,35 42,36 43,36 44,37 45,36 45,35 44,35 43,34 42,34 41,33 40,33 39,32 38,32 37,31" stroke="black" stroke-width="1" /></svg>