<?xml version="1.0" encoding="utf-8" ?>
<svg baseProfile="full" height="100" version="1.1" width="100" xmlns="http://www.w3.org/2000/svg" xmlns:ev="http://www.w3.org/2001/xml-events" xmlns:xlink="http://www.w3.org/1999/xlink"><defs /><polygon fill="none" id="1" points="68,33 68,40 69,41 67,43 56,43 55,42 53,42 53,45 68,45 69,46 69,47 68,48 68,53 69,54 69,58 68,59 67,59 66,58 58,58 57,59 56,59 55,60 54,60 53,61 53,63 52,64 53,65 53,67 54,68 55,68 56,69 57,69 58,70 68,70 69,69 70,69 72,67 72,64 73,63 74,63 75,64 76,64 77,65 78,65 80,67 81,67 82,68 83,68 83,67 85,65 84,65 83,64 82,64 81,63 79,63 78,62 77,62 76,61 73,61 72,60 72,45 73,44 82,44 82,41 77,41 76,42 72,42 71,41 71,40 72,39 72,33" stroke="black" stroke-width="1" /><polygon fill="none" id="2" points="58,61 59,60 65,60 66,61 68,61 69,62 69,65 66,68 60,68 59,67 58,67 55,64 55,63 57,61" stroke="black" stroke-width="1" /><polygon fill="none" id="3" points="42,33 41,34 41,37 40,38 40,41 39,42 39,44 38,45 38,51 37,52 37,60 38,61 38,67 39,68 39,71 43,71 43,66 45,64 45,63 46,62 46,61 47,60 47,59 49,57 48,57 47,56 46,56 45,57 45,58 44,59 44,60 43,61 43,62 42,63 41,62 41,49 42,48 42,43 43,42 43,40 44,39 44,37 45,36 45,34 43,34" stroke="black" stroke-width="1" /></svg>