<?xml version="1.0" encoding="utf-8" ?>
<svg baseProfile="full" height="100" version="1.1" width="100" xmlns="http://www.w3.org/2000/svg" xmlns:ev="http://www.w3.org/2001/xml-events" xmlns:xlink="http://www.w3.org/1999/xlink"><defs /><polygon fill="none" id="1" points="45,33 45,39 46,40 46,41 44,43 39,43 38,42 35,42 35,46 45,46 46,47 46,58 45,59 44,58 39,58 38,59 37,59 36,60 36,61 35,62 35,68 37,70 38,70 39,71 46,71 48,69 48,68 49,67 49,66 50,65 52,67 53,67 54,68 54,69 56,69 56,68 57,67 57,65 56,64 55,64 53,62 52,62 51,61 50,61 49,60 49,46 50,45 55,45 55,41 52,41 51,42 49,42 48,41 48,40 49,39 49,33" stroke="black" stroke-width="1" /><polygon fill="none" id="2" points="40,61 43,61 44,62 45,62 46,63 46,65 43,68 41,68 40,67 39,67 38,66 38,63" stroke="black" stroke-width="1" /><polygon fill="none" id="3" points="28,33 27,34 27,38 26,39 26,46 25,47 25,66 26,67 26,72 29,72 30,71 30,65 31,64 31,62 32,61 32,60 33,59 33,57 32,56 30,56 30,59 29,60 28,59 28,50 29,49 29,43 30,42 30,37 31,36 31,34 30,34 29,33" stroke="black" stroke-width="1" /></svg>