<?xml version="1.0" encoding="utf-8" ?>
<svg baseProfile="full" height="100" version="1.1" width="100" xmlns="http://www.w3.org/2000/svg" xmlns:ev="http://www.w3.org/2001/xml-events" xmlns:xlink="http://www.w3.org/1999/xlink"><defs /><polygon fill="none" id="1" points="51,33 51,42 50,43 43,43 42,42 39,42 39,43 40,44 40,46 50,46 51,47 51,57 50,58 44,58 43,59 42,59 40,61 40,62 39,63 39,67 42,70 43,70 44,71 51,71 52,70 53,70 54,69 54,68 55,67 55,66 56,65 57,65 61,69 63,69 63,68 64,67 64,65 63,64 62,64 60,62 59,62 58,61 56,61 55,60 55,46 56,45 62,45 62,41 58,41 57,42 55,42 54,41 54,40 55,39 55,33" stroke="black" stroke-width="1" /><polygon fill="none" id="2" points="45,61 49,61 50,62 51,62 52,63 52,64 51,65 51,66 49,68 46,68 45,67 44,67 43,66 43,65 42,64" stroke="black" stroke-width="1" /><polygon fill="none" id="3" points="50,58 51,57 52,58 51,59" stroke="black" stroke-width="1" /><polygon fill="none" id="4" points="31,33 31,36 30,37 30,41 29,42 29,48 28,49 28,64 29,65 29,72 33,72 33,67 34,66 34,64 35,63 35,62 36,61 36,60 37,59 37,57 36,56 34,56 34,58 33,59 33,61 32,62 31,61 31,56 32,55 32,46 33,45 33,40 34,39 34,36 35,35 35,34 34,34 33,33" stroke="black" stroke-width="1" /></svg>