<?xml version="1.0" encoding="utf-8" ?>
<svg baseProfile="full" height="100" version="1.1" width="100" xmlns="http://www.w3.org/2000/svg" xmlns:ev="http://www.w3.org/2001/xml-events" xmlns:xlink="http://www.w3.org/1999/xlink"><defs /><polygon fill="none" id="1" points="57,33 57,42 56,43 48,43 47,42 44,42 44,46 56,46 57,47 57,58 56,59 55,58 48,58 47,59 46,59 44,61 44,68 46,70 48,70 49,71 57,71 58,70 59,70 60,69 60,68 61,67 61,65 62,64 64,66 65,66 68,69 70,69 70,68 71,67 71,65 70,64 69,64 68,63 67,63 66,62 65,62 64,61 62,61 61,60 61,46 62,45 69,45 69,41 64,41 63,42 61,42 60,41 61,40 61,33" stroke="black" stroke-width="1" /><polygon fill="none" id="2" points="50,61 54,61 55,62 56,62 57,63 57,66 55,68 51,68 50,67 49,67 47,65 47,64" stroke="black" stroke-width="1" /><polygon fill="none" id="3" points="35,33 34,34 34,37 33,38 33,42 32,43 32,49 31,50 31,62 32,63 32,71 33,72 37,72 37,67 38,66 38,64 39,63 39,62 40,61 40,60 41,59 41,57 40,56 38,56 38,57 37,58 37,60 36,61 35,60 35,50 36,49 36,44 37,43 37,39 38,38 38,36 39,35 39,34 37,34 36,33" stroke="black" stroke-width="1" /></svg>