<?xml version="1.0" encoding="utf-8" ?>
<svg baseProfile="full" height="100" version="1.1" width="100" xmlns="http://www.w3.org/2000/svg" xmlns:ev="http://www.w3.org/2001/xml-events" xmlns:xlink="http://www.w3.org/1999/xlink"><defs /><polygon fill="none" id="1" points="62,33 62,36 63,37 63,41 61,43 53,43 52,42 48,42 48,46 62,46 63,47 63,58 62,59 61,58 53,58 52,59 51,59 48,62 48,67 51,70 53,70 54,71 63,71 64,70 65,70 66,69 66,68 67,67 67,65 68,64 70,66 71,66 72,67 73,67 75,69 77,69 77,68 78,67 78,65 77,64 76,64 75,63 74,63 73,62 71,62 70,61 68,61 67,60 67,46 68,45 76,45 76,41 71,41 70,42 67,42 66,41 67,40 67,33" stroke="black" stroke-width="1" /><polygon fill="none" id="2" points="55,61 59,61 60,62 62,62 63,63 63,66 62,67 61,67 60,68 56,68 55,67 54,67 52,65 52,64" stroke="black" stroke-width="1" /><polygon fill="none" id="3" points="38,33 38,34 37,35 37,38 36,39 36,43 35,44 35,50 34,51 34,62 35,63 35,70 36,71 36,72 40,72 41,71 41,66 42,65 42,64 43,63 43,62 44,61 44,60 45,59 45,57 44,56 42,56 42,57 41,58 41,59 40,60 40,61 39,62 38,61 38,55 39,54 39,48 40,47 40,43 41,42 41,39 42,38 42,36 43,35 43,34 41,34 40,33" stroke="black" stroke-width="1" /></svg>