<?xml version="1.0" encoding="utf-8" ?>
<svg baseProfile="full" height="100" version="1.1" width="100" xmlns="http://www.w3.org/2000/svg" xmlns:ev="http://www.w3.org/2001/xml-events" xmlns:xlink="http://www.w3.org/1999/xlink"><defs /><polygon fill="none" id="1" points="68,33 68,42 67,43 57,43 56,42 53,42 53,46 68,46 69,47 68,48 68,54 69,55 69,58 68,59 67,58 58,58 57,59 56,59 55,60 54,60 53,61 53,63 52,64 52,65 53,66 53,68 54,69 55,69 56,70 57,70 58,71 69,71 70,70 71,70 73,68 73,65 74,64 75,65 76,65 77,66 78,66 80,68 81,68 82,69 84,69 84,68 86,66 86,65 85,65 84,64 83,64 82,63 80,63 79,62 78,62 77,61 74,61 73,60 73,46 74,45 83,45 83,41 77,41 76,42 73,42 72,41 73,40 73,33" stroke="black" stroke-width="1" /><polygon fill="none" id="2" points="59,62 60,61 65,61 66,62 68,62 69,63 69,65 66,68 61,68 60,67 59,67 56,64 58,62" stroke="black" stroke-width="1" /><polygon fill="none" id="3" points="42,33 41,34 41,37 40,38 40,41 39,42 39,44 38,45 38,51 37,52 37,61 38,62 38,68 39,69 39,72 44,72 44,67 46,65 46,64 47,63 47,62 48,61 48,60 50,58 50,57 49,57 48,56 46,56 45,57 45,58 44,59 44,60 43,61 42,60 42,50 43,49 43,44 44,43 44,41 45,40 45,38 46,37 46,34 44,34 43,33" stroke="black" stroke-width="1" /></svg>