<?xml version="1.0" encoding="utf-8" ?>
<svg baseProfile="full" height="100" version="1.1" width="100" xmlns="http://www.w3.org/2000/svg" xmlns:ev="http://www.w3.org/2001/xml-events" xmlns:xlink="http://www.w3.org/1999/xlink"><defs /><polygon fill="none" id="1" points="28,35 28,39 27,40 27,47 26,48 26,65 27,66 27,71 28,71 28,69 29,68 29,64 30,63 30,61 31,60 31,59 32,58 31,57 31,60 30,61 30,62 29,63 28,63 27,62 27,49 28,48 28,42 29,41 29,36 30,35" stroke="black" stroke-width="1" /><polygon fill="none" id="2" points="46,34 46,38 47,39 47,42 45,44 38,44 37,43 36,43 36,45 46,45 47,46 47,59 46,60 44,60 43,59 40,59 39,60 38,60 37,61 37,62 36,63 36,67 38,69 39,69 40,70 45,70 47,68 47,67 48,66 48,64 49,63 50,63 53,66 54,66 55,67 55,68 55,67 56,66 55,65 54,65 52,63 51,63 50,62 49,62 48,61 48,48 47,47 47,46 49,44 54,44 54,42 53,42 52,43 48,43 47,42 47,39 48,38 48,34" stroke="black" stroke-width="1" /><polygon fill="none" id="3" points="39,60 44,60 45,61 46,61 47,62 47,66 44,69 40,69 39,68 38,68 37,67 37,62" stroke="black" stroke-width="1" /></svg>