<?xml version="1.0" encoding="utf-8" ?>
<svg baseProfile="full" height="100" version="1.1" width="100" xmlns="http://www.w3.org/2000/svg" xmlns:ev="http://www.w3.org/2001/xml-events" xmlns:xlink="http://www.w3.org/1999/xlink"><defs /><polygon fill="none" id="1" points="52,34 52,43 51,44 42,44 41,43 41,45 51,45 52,46 52,56 53,57 53,59 52,60 50,60 49,59 45,59 44,60 43,60 41,62 41,63 40,64 40,66 43,69 44,69 45,70 50,70 51,69 52,69 53,68 53,67 54,66 54,64 55,63 56,63 57,64 58,64 62,68 62,67 63,66 62,65 61,65 59,63 58,63 57,62 55,62 54,61 54,48 53,47 53,46 55,44 61,44 61,42 59,42 58,43 54,43 53,42 53,39 54,38 54,34" stroke="black" stroke-width="1" /><polygon fill="none" id="2" points="44,60 50,60 51,61 52,61 53,62 53,65 52,66 52,67 50,69 45,69 44,68 43,68 42,67 42,66 41,65 41,63" stroke="black" stroke-width="1" /><polygon fill="none" id="3" points="32,34 32,37 31,38 31,42 30,43 30,49 29,50 29,63 30,64 30,71 32,71 32,66 33,65 33,63 34,62 34,61 35,60 35,59 36,58 35,57 35,59 34,60 34,62 33,63 31,63 30,62 30,55 31,54 31,45 32,44 32,39 33,38 33,35" stroke="black" stroke-width="1" /></svg>