<?xml version="1.0" encoding="utf-8" ?>
<svg baseProfile="full" height="100" version="1.1" width="100" xmlns="http://www.w3.org/2000/svg" xmlns:ev="http://www.w3.org/2001/xml-events" xmlns:xlink="http://www.w3.org/1999/xlink"><defs /><polygon fill="none" id="1" points="35,35 35,38 34,39 34,43 33,44 33,50 32,51 32,61 33,62 33,70 34,71 36,71 36,66 37,65 37,63 38,62 38,61 39,60 39,59 40,58 39,57 39,58 38,59 38,61 37,62 37,63 36,64 35,64 34,63 34,49 35,48 35,43 36,42 36,38 37,37 37,35" stroke="black" stroke-width="1" /><polygon fill="none" id="2" points="58,34 58,43 57,44 47,44 46,43 45,43 45,45 57,45 58,46 58,59 57,60 55,60 54,59 49,59 48,60 47,60 45,62 45,67 47,69 49,69 50,70 56,70 57,69 58,69 59,68 59,67 60,66 60,64 61,63 63,63 65,65 66,65 69,68 69,67 70,66 69,65 68,65 67,64 66,64 65,63 64,63 63,62 61,62 60,61 60,45 61,44 68,44 68,42 65,42 64,43 60,43 59,42 59,40 60,39 60,34" stroke="black" stroke-width="1" /><polygon fill="none" id="3" points="49,60 55,60 56,61 57,61 58,62 58,67 56,69 50,69 49,68 48,68 46,66 46,63" stroke="black" stroke-width="1" /></svg>