<?xml version="1.0" encoding="utf-8" ?>
<svg baseProfile="full" height="100" version="1.1" width="100" xmlns="http://www.w3.org/2000/svg" xmlns:ev="http://www.w3.org/2001/xml-events" xmlns:xlink="http://www.w3.org/1999/xlink"><defs /><polygon fill="none" id="1" points="63,34 63,35 64,36 64,42 62,44 52,44 51,43 49,43 49,45 63,45 64,46 64,59 63,60 61,60 60,59 54,59 53,60 52,60 49,63 49,66 52,69 54,69 55,70 62,70 63,69 64,69 65,68 65,67 66,66 66,64 67,63 69,63 71,65 72,65 73,66 74,66 76,68 76,67 77,66 76,65 75,65 74,64 73,64 72,63 70,63 69,62 67,62 66,61 66,45 67,44 75,44 75,42 72,42 71,43 66,43 65,42 65,40 66,39 66,34" stroke="black" stroke-width="1" /><polygon fill="none" id="2" points="54,60 60,60 61,61 63,61 64,62 64,67 63,68 62,68 61,69 55,69 54,68 53,68 51,66 51,63" stroke="black" stroke-width="1" /><polygon fill="none" id="3" points="39,34 39,35 38,36 38,39 37,40 37,44 36,45 36,51 35,52 35,61 36,62 36,69 37,70 37,71 39,71 40,70 40,65 41,64 41,63 42,62 42,61 43,60 43,59 44,58 43,57 43,58 42,59 42,60 41,61 41,62 40,63 38,63 37,62 37,54 38,53 38,47 39,46 39,42 40,41 40,38 41,37 41,35 40,35" stroke="black" stroke-width="1" /></svg>