<?xml version="1.0" encoding="utf-8" ?>
<svg baseProfile="full" height="100" version="1.1" width="100" xmlns="http://www.w3.org/2000/svg" xmlns:ev="http://www.w3.org/2001/xml-events" xmlns:xlink="http://www.w3.org/1999/xlink"><defs /><polygon fill="none" id="1" points="44,43 43,44 40,44 39,45 37,45 36,46 33,46 32,47 32,48 33,49 34,48 35,48 36,47 37,47 38,46 40,46 41,45 43,45 44,44 50,44 53,47 53,48 54,49 54,56 53,57 53,59 52,60 52,61 51,62 51,63 48,66 47,66 45,68 43,68 42,69 40,69 40,70 41,71 42,71 43,70 44,70 45,69 46,69 47,68 48,68 53,63 53,62 54,61 54,60 55,59 55,56 56,55 56,51 55,50 55,47 52,44 51,44 50,43" stroke="black" stroke-width="1" /><polygon fill="none" id="2" points="40,31 39,32 39,33 42,33 43,34 44,34 45,35 46,35 47,36 48,36 49,37 50,37 50,35 49,35 48,34 47,34 46,33 45,33 44,32 42,32 41,31" stroke="black" stroke-width="1" /></svg>