<?xml version="1.0" encoding="utf-8" ?>
<svg baseProfile="full" height="100" version="1.1" width="100" xmlns="http://www.w3.org/2000/svg" xmlns:ev="http://www.w3.org/2001/xml-events" xmlns:xlink="http://www.w3.org/1999/xlink"><defs /><polygon fill="none" id="1" points="42,35 42,38 41,39 41,42 40,43 40,45 39,46 39,52 38,53 38,60 39,61 39,67 40,68 40,71 43,71 43,66 45,64 45,63 46,62 46,61 47,60 47,59 48,58 47,57 46,58 46,59 45,60 45,61 44,62 44,63 43,64 42,64 41,63 41,49 42,48 42,43 43,42 43,40 44,39 44,37 45,36 45,35" stroke="black" stroke-width="1" /><polygon fill="none" id="2" points="69,34 69,40 70,41 70,42 68,44 56,44 55,43 54,43 54,45 69,45 70,46 70,48 69,49 69,53 70,54 70,59 69,60 67,60 66,59 59,59 58,60 57,60 56,61 55,61 54,62 54,67 55,68 56,68 57,69 58,69 59,70 68,70 69,69 70,69 72,67 72,64 73,63 75,63 76,64 77,64 78,65 79,65 81,67 82,67 83,68 83,67 84,66 83,65 82,65 81,64 79,64 78,63 77,63 76,62 73,62 72,61 72,45 73,44 82,44 82,42 78,42 77,43 72,43 71,42 71,40 72,39 72,34" stroke="black" stroke-width="1" /><polygon fill="none" id="3" points="58,61 59,60 66,60 67,61 69,61 70,62 70,66 67,69 60,69 59,68 58,68 55,65 55,63 57,61" stroke="black" stroke-width="1" /></svg>