<?xml version="1.0" encoding="utf-8" ?>
<svg baseProfile="full" height="100" version="1.1" width="100" xmlns="http://www.w3.org/2000/svg" xmlns:ev="http://www.w3.org/2001/xml-events" xmlns:xlink="http://www.w3.org/1999/xlink"><defs /><polygon fill="none" id="1" points="44,32 44,39 45,40 43,42 39,42 38,41 34,41 34,46 44,46 45,47 45,56 44,57 38,57 37,58 36,58 35,59 35,60 34,61 34,68 36,70 37,70 38,71 46,71 48,69 48,68 50,66 51,67 52,67 53,68 53,69 56,69 56,68 57,67 57,64 56,63 55,63 53,61 52,61 51,60 50,60 49,59 49,46 50,45 55,45 55,40 51,40 50,41 49,41 48,40 49,39 49,32" stroke="black" stroke-width="1" /><polygon fill="none" id="2" points="40,61 42,61 43,62 44,62 45,63 45,64 42,67 41,67 40,66 39,66 38,65 38,63" stroke="black" stroke-width="1" /><polygon fill="none" id="3" points="27,32 26,33 26,37 25,38 25,45 24,46 24,66 25,67 25,72 29,72 30,71 30,65 31,64 31,62 32,61 32,60 33,59 33,56 32,55 29,55 28,54 28,50 29,49 29,43 30,42 30,37 31,36 31,33 30,33 29,32" stroke="black" stroke-width="1" /></svg>