<?xml version="1.0" encoding="utf-8" ?>
<svg baseProfile="full" height="100" version="1.1" width="100" xmlns="http://www.w3.org/2000/svg" xmlns:ev="http://www.w3.org/2001/xml-events" xmlns:xlink="http://www.w3.org/1999/xlink"><defs /><polygon fill="none" id="1" points="50,32 50,41 49,42 43,42 42,41 38,41 38,43 39,44 39,46 49,46 50,47 50,56 49,57 43,57 42,58 41,58 39,60 39,61 38,62 38,67 41,70 42,70 43,71 51,71 52,70 53,70 54,69 54,68 55,67 55,66 56,65 60,69 63,69 63,68 64,67 64,64 63,63 62,63 60,61 59,61 58,60 56,60 55,59 55,46 56,45 62,45 62,40 57,40 56,41 55,41 54,40 55,39 55,32" stroke="black" stroke-width="1" /><polygon fill="none" id="2" points="45,61 48,61 49,62 50,62 51,63 50,64 50,65 48,67 46,67 45,66 44,66 43,65 43,63" stroke="black" stroke-width="1" /><polygon fill="none" id="3" points="30,32 30,35 29,36 29,40 28,41 28,47 27,48 27,64 28,65 28,72 33,72 33,67 34,66 34,64 35,63 35,62 36,61 36,60 37,59 37,56 36,55 33,55 32,54 32,46 33,45 33,40 34,39 34,36 35,35 35,33 34,33 33,32" stroke="black" stroke-width="1" /><polygon fill="none" id="4" points="31,56 32,55 33,56 33,57 32,58 31,57" stroke="black" stroke-width="1" /></svg>