<?xml version="1.0" encoding="utf-8" ?>
<svg baseProfile="full" height="100" version="1.1" width="100" xmlns="http://www.w3.org/2000/svg" xmlns:ev="http://www.w3.org/2001/xml-events" xmlns:xlink="http://www.w3.org/1999/xlink"><defs /><polygon fill="none" id="1" points="56,32 56,41 55,42 48,42 47,41 43,41 43,46 55,46 56,47 56,56 55,57 47,57 46,58 45,58 43,60 43,68 45,70 47,70 48,71 57,71 58,70 59,70 60,69 60,68 61,67 61,66 62,65 63,66 64,66 67,69 70,69 70,68 71,67 71,64 70,63 69,63 68,62 67,62 66,61 65,61 64,60 62,60 61,59 61,46 62,45 69,45 69,40 63,40 62,41 61,40 61,32" stroke="black" stroke-width="1" /><polygon fill="none" id="2" points="50,61 53,61 54,62 55,62 56,63 56,65 54,67 51,67 50,66 49,66 47,64" stroke="black" stroke-width="1" /><polygon fill="none" id="3" points="34,32 33,33 33,36 32,37 32,41 31,42 31,48 30,49 30,62 31,63 31,71 32,72 37,72 37,67 38,66 38,64 39,63 39,62 40,61 40,60 41,59 41,56 40,55 37,55 37,56 36,57 35,56 35,50 36,49 36,44 37,43 37,39 38,38 38,36 39,35 39,33 37,33 36,32" stroke="black" stroke-width="1" /></svg>