<?xml version="1.0" encoding="utf-8" ?>
<svg baseProfile="full" height="100" version="1.1" width="100" xmlns="http://www.w3.org/2000/svg" xmlns:ev="http://www.w3.org/2001/xml-events" xmlns:xlink="http://www.w3.org/1999/xlink"><defs /><polygon fill="none" id="1" points="61,32 61,36 62,37 62,40 60,42 53,42 52,41 47,41 47,46 61,46 62,47 62,56 61,57 52,57 51,58 50,58 47,61 47,67 50,70 52,70 53,71 63,71 64,70 65,70 66,69 66,68 67,67 67,66 68,65 69,66 70,66 71,67 72,67 74,69 77,69 77,68 78,67 78,64 77,63 76,63 75,62 74,62 73,61 71,61 70,60 68,60 67,59 67,46 68,45 76,45 76,40 70,40 69,41 68,41 67,40 67,32" stroke="black" stroke-width="1" /><polygon fill="none" id="2" points="55,61 58,61 59,62 61,62 62,63 62,65 61,66 60,66 59,67 56,67 55,66 54,66 52,64" stroke="black" stroke-width="1" /><polygon fill="none" id="3" points="37,32 37,33 36,34 36,37 35,38 35,42 34,43 34,49 33,50 33,62 34,63 34,70 35,71 35,72 40,72 41,71 41,66 42,65 42,64 43,63 43,62 44,61 44,60 45,59 45,56 44,55 41,55 41,56 40,57 40,58 39,59 38,58 38,55 39,54 39,48 40,47 40,43 41,42 41,39 42,38 42,36 43,35 43,33 41,33 40,32" stroke="black" stroke-width="1" /></svg>