<?xml version="1.0" encoding="utf-8" ?>
<svg baseProfile="full" height="100" version="1.1" width="100" xmlns="http://www.w3.org/2000/svg" xmlns:ev="http://www.w3.org/2001/xml-events" xmlns:xlink="http://www.w3.org/1999/xlink"><defs /><polygon fill="none" id="1" points="67,32 67,41 66,42 57,42 56,41 52,41 52,46 66,46 67,47 67,54 68,55 68,56 67,57 57,57 56,58 55,58 54,59 53,59 52,60 52,62 51,63 51,65 52,66 52,68 53,69 54,69 55,70 56,70 57,71 69,71 70,70 71,70 73,68 73,66 74,65 75,65 76,66 77,66 79,68 80,68 81,69 84,69 84,68 86,66 86,64 85,64 84,63 83,63 82,62 80,62 79,61 78,61 77,60 74,60 73,59 73,46 74,45 83,45 83,40 76,40 75,41 74,41 73,40 73,32" stroke="black" stroke-width="1" /><polygon fill="none" id="2" points="59,62 60,61 64,61 65,62 67,62 68,63 68,64 65,67 61,67 60,66 59,66 57,64 57,63 58,62" stroke="black" stroke-width="1" /><polygon fill="none" id="3" points="41,32 40,33 40,36 39,37 39,40 38,41 38,43 37,44 37,50 36,51 36,61 37,62 37,68 38,69 38,72 44,72 44,67 46,65 46,64 47,63 47,62 48,61 48,60 50,58 50,56 49,56 48,55 45,55 44,56 44,57 43,58 42,57 42,50 43,49 43,44 44,43 44,41 45,40 45,38 46,37 46,33 44,33 43,32" stroke="black" stroke-width="1" /></svg>