<?xml version="1.0" encoding="utf-8" ?>
<svg baseProfile="full" height="100" version="1.1" width="100" xmlns="http://www.w3.org/2000/svg" xmlns:ev="http://www.w3.org/2001/xml-events" xmlns:xlink="http://www.w3.org/1999/xlink"><defs /><polygon fill="none" id="1" points="38,68" stroke="black" stroke-width="1" /><polygon fill="none" id="2" points="46,67 44,69 40,69 44,69" stroke="black" stroke-width="1" /><polygon fill="none" id="3" points="51,63 53,65 54,65 53,65" stroke="black" stroke-width="1" /><polygon fill="none" id="4" points="36,63 36,66" stroke="black" stroke-width="1" /><polygon fill="none" id="5" points="40,59 42,59" stroke="black" stroke-width="1" /><polygon fill="none" id="6" points="47,48 47,59 46,60 45,60 46,60 47,61 47,65 47,63 48,62 49,62 48,62 47,61" stroke="black" stroke-width="1" /><polygon fill="none" id="7" points="53,42 52,43 46,43 45,44 37,44 36,43 36,44 47,44 48,43 53,43" stroke="black" stroke-width="1" /><polygon fill="none" id="8" points="28,35 28,39 27,40 27,47 26,48 26,64 27,65 27,70 27,68 28,67 28,63 27,63 26,62 26,48 27,47 27,41 28,40" stroke="black" stroke-width="1" /><polygon fill="none" id="9" points="46,34 46,37 47,37 47,34" stroke="black" stroke-width="1" /></svg>