<?xml version="1.0" encoding="utf-8" ?>
<svg baseProfile="full" height="100" version="1.1" width="100" xmlns="http://www.w3.org/2000/svg" xmlns:ev="http://www.w3.org/2001/xml-events" xmlns:xlink="http://www.w3.org/1999/xlink"><defs /><polygon fill="none" id="1" points="45,69 49,69" stroke="black" stroke-width="1" /><polygon fill="none" id="2" points="43,68" stroke="black" stroke-width="1" /><polygon fill="none" id="3" points="40,64 40,65 41,66 40,65" stroke="black" stroke-width="1" /><polygon fill="none" id="4" points="45,59 48,59" stroke="black" stroke-width="1" /><polygon fill="none" id="5" points="32,35 32,37 31,38 31,42 30,43 30,49 29,50 29,62 30,63 30,70 31,70 31,65 32,64 32,63 30,63 29,62 29,54 30,53 30,44 31,43 31,38 32,37" stroke="black" stroke-width="1" /><polygon fill="none" id="6" points="52,34 52,43 51,44 41,44 51,44 52,45 52,55 53,56 53,59 52,60 51,60 52,60 53,61 53,65 52,66 52,67 51,68 52,67 52,66 53,65 53,63 54,62 56,62 57,63 58,63 61,66 61,65 60,65 58,63 57,63 56,62 54,62 53,61 53,48 52,47 52,45 54,43 60,43 60,42 59,42 58,43 53,43 52,42 52,38 53,37 53,34" stroke="black" stroke-width="1" /></svg>