<?xml version="1.0" encoding="utf-8" ?>
<svg baseProfile="full" height="100" version="1.1" width="100" xmlns="http://www.w3.org/2000/svg" xmlns:ev="http://www.w3.org/2001/xml-events" xmlns:xlink="http://www.w3.org/1999/xlink"><defs /><polygon fill="none" id="1" points="50,69 55,69" stroke="black" stroke-width="1" /><polygon fill="none" id="2" points="64,63 65,64 66,64 68,66 68,65 67,65 66,64 65,64" stroke="black" stroke-width="1" /><polygon fill="none" id="3" points="47,60 45,62 45,66 47,68 48,68 47,68 45,66 45,62" stroke="black" stroke-width="1" /><polygon fill="none" id="4" points="49,59 53,59" stroke="black" stroke-width="1" /><polygon fill="none" id="5" points="38,59" stroke="black" stroke-width="1" /><polygon fill="none" id="6" points="35,35 35,38 34,39 34,43 33,44 33,50 32,51 32,60 33,61 33,69 34,70 35,70 35,65 36,64 34,64 33,63 33,48 34,47 34,42 35,41 35,37 36,36 36,35" stroke="black" stroke-width="1" /><polygon fill="none" id="7" points="58,34 58,43 57,44 46,44 45,43 45,44 57,44 58,45 58,59 57,60 56,60 57,60 58,61 58,67 57,68 58,67 58,66 59,65 59,63 60,62 62,62 60,62 59,61 59,44 60,43 67,43 67,42 65,42 64,43 59,43 58,42 58,39 59,38 59,34" stroke="black" stroke-width="1" /></svg>