<?xml version="1.0" encoding="utf-8" ?>
<svg baseProfile="full" height="100" version="1.1" width="100" xmlns="http://www.w3.org/2000/svg" xmlns:ev="http://www.w3.org/2001/xml-events" xmlns:xlink="http://www.w3.org/1999/xlink"><defs /><polygon fill="none" id="1" points="70,63 71,64 72,64 73,65 74,65 75,66 75,65 74,65 73,64 72,64 71,63" stroke="black" stroke-width="1" /><polygon fill="none" id="2" points="41,61" stroke="black" stroke-width="1" /><polygon fill="none" id="3" points="52,60 49,63 49,65 52,68 53,68 52,68 50,66 50,62" stroke="black" stroke-width="1" /><polygon fill="none" id="4" points="54,59 59,59" stroke="black" stroke-width="1" /><polygon fill="none" id="5" points="42,59" stroke="black" stroke-width="1" /><polygon fill="none" id="6" points="39,35 38,36 38,39 37,40 37,44 36,45 36,51 35,52 35,60 36,61 36,68 37,69 37,70 38,70 39,69 39,64 40,63 37,63 36,62 36,53 37,52 37,46 38,45 38,41 39,40 39,37 40,36 40,35" stroke="black" stroke-width="1" /><polygon fill="none" id="7" points="63,34 64,35 64,42 62,44 51,44 50,43 49,43 49,44 63,44 64,45 64,59 63,60 61,60 63,60 64,61 64,67 63,68 62,68 61,69 55,69 61,69 62,68 63,68 64,67 64,66 65,65 65,63 66,62 68,62 66,62 65,61 65,44 66,43 74,43 74,42 72,42 71,43 65,43 64,42 64,39 65,38 65,34" stroke="black" stroke-width="1" /></svg>