<?xml version="1.0" encoding="utf-8" ?>
<svg baseProfile="full" height="100" version="1.1" width="100" xmlns="http://www.w3.org/2000/svg" xmlns:ev="http://www.w3.org/2001/xml-events" xmlns:xlink="http://www.w3.org/1999/xlink"><defs /><polygon fill="none" id="1" points="49,43 48,44 44,44 43,45 41,45 40,46 37,46 36,47 36,49 37,49 38,48 39,48 40,47 41,47 42,46 44,46 45,45 48,45 49,44 55,44 56,45 57,45 59,47 59,49 60,50 60,56 59,57 59,59 58,60 58,61 53,66 52,66 51,67 50,67 49,68 48,68 47,69 44,69 46,71 47,71 48,70 49,70 50,69 51,69 52,68 53,68 54,67 55,67 59,63 59,62 60,61 60,60 61,59 61,57 62,56 62,50 61,49 61,47 58,44 57,44 56,43" stroke="black" stroke-width="1" /><polygon fill="none" id="2" points="44,31 43,32 43,33 46,33 47,34 49,34 50,35 52,35 54,37 55,37 56,36 56,35 55,35 54,34 52,34 51,33 50,33 49,32 47,32 46,31" stroke="black" stroke-width="1" /></svg>