<?xml version="1.0" encoding="utf-8" ?>
<svg baseProfile="full" height="100" version="1.1" width="100" xmlns="http://www.w3.org/2000/svg" xmlns:ev="http://www.w3.org/2001/xml-events" xmlns:xlink="http://www.w3.org/1999/xlink"><defs /><polygon fill="none" id="1" points="57,60" stroke="black" stroke-width="1" /><polygon fill="none" id="2" points="59,59 65,59" stroke="black" stroke-width="1" /><polygon fill="none" id="3" points="42,35 42,38 41,39 41,42 40,43 40,45 39,46 39,52 38,53 38,59 39,60 39,66 40,67 40,70 42,70 42,65 44,63 44,62 45,61 45,60 46,59 46,58 46,59 45,60 45,61 44,62 44,63 43,64 41,64 40,63 40,48 41,47 41,42 42,41 42,39 43,38 43,36 44,35" stroke="black" stroke-width="1" /><polygon fill="none" id="4" points="69,34 69,39 70,40 70,42 68,44 55,44 54,43 54,44 69,44 70,45 70,48 69,49 69,52 70,53 70,59 69,60 67,60 69,60 70,61 70,66 67,69 59,69 58,68 57,68 54,65 54,62 55,61 54,62 54,66 55,67 56,67 57,68 58,68 59,69 67,69 68,68 69,68 71,66 71,63 72,62 75,62 76,63 77,63 78,64 79,64 81,66 82,66 82,65 81,65 80,64 78,64 77,63 76,63 75,62 72,62 71,61 71,44 72,43 81,43 81,42 78,42 77,43 71,43 70,42 70,39 71,38 71,34" stroke="black" stroke-width="1" /></svg>