<?xml version="1.0" encoding="utf-8" ?>
<svg baseProfile="full" height="100" version="1.1" width="100" xmlns="http://www.w3.org/2000/svg" xmlns:ev="http://www.w3.org/2001/xml-events" xmlns:xlink="http://www.w3.org/1999/xlink"><defs /><polygon fill="none" id="1" points="36,36 35,37 34,37 33,38 32,38 31,39 29,39 28,40 25,40 24,41 23,41 24,42 24,43 25,44 26,43 27,43 28,42 29,42 30,41 31,41 32,40 33,40 34,41 32,43 32,44 30,46 30,47 29,48 29,49 28,50 28,52 27,53 27,63 28,64 28,66 32,70 33,70 34,71 40,71 41,70 42,70 46,66 46,64 47,63 47,61 48,60 48,47 47,46 47,44 48,43 49,44 49,45 50,46 50,47 51,48 51,50 52,51 52,52 53,53 53,54 54,55 54,56 55,56 55,55 56,54 56,52 53,49 53,48 52,47 52,46 50,44 50,43 49,42 49,41 48,40 48,38 47,37 45,37 45,40 46,41 46,59 45,60 45,63 43,65 43,66 41,68 40,68 39,69 35,69 34,68 33,68 31,66 31,65 30,64 30,63 29,62 29,54 30,53 30,51 31,50 31,49 32,48 32,47 33,46 33,45 35,43 35,42 38,39 38,38 37,37 37,36" stroke="black" stroke-width="1" /></svg>