<?xml version="1.0" encoding="utf-8" ?>
<svg baseProfile="full" height="100" version="1.1" width="100" xmlns="http://www.w3.org/2000/svg" xmlns:ev="http://www.w3.org/2001/xml-events" xmlns:xlink="http://www.w3.org/1999/xlink"><defs /><polygon fill="none" id="1" points="40,36 39,37 38,37 37,38 36,38 35,39 33,39 32,40 28,40 27,41 26,41 27,42 27,43 28,44 29,43 31,43 32,42 33,42 34,41 35,41 36,40 37,40 38,41 36,43 36,44 33,47 33,48 32,49 32,51 31,52 31,54 30,55 30,61 31,62 31,65 33,67 33,68 34,68 36,70 37,70 38,71 45,71 46,70 47,70 48,69 49,69 51,67 51,66 52,65 52,64 53,63 53,61 54,60 54,47 53,46 53,44 54,43 55,44 55,45 56,46 56,47 57,48 57,49 58,50 58,51 59,52 59,53 61,55 61,56 64,53 60,49 60,48 58,46 58,45 56,43 56,42 55,41 55,40 54,39 54,38 53,37 51,37 50,38 51,39 51,42 52,43 52,57 51,58 51,61 50,62 50,64 46,68 45,68 44,69 39,69 38,68 37,68 34,65 34,64 33,63 33,54 34,53 34,51 35,50 35,49 36,48 36,47 38,45 38,44 43,39 43,38 42,37 42,36" stroke="black" stroke-width="1" /></svg>