<?xml version="1.0" encoding="utf-8" ?>
<svg baseProfile="full" height="100" version="1.1" width="100" xmlns="http://www.w3.org/2000/svg" xmlns:ev="http://www.w3.org/2001/xml-events" xmlns:xlink="http://www.w3.org/1999/xlink"><defs /><polygon fill="none" id="1" points="45,36 44,37 43,37 42,38 40,38 39,39 36,39 35,40 32,40 31,41 29,41 30,42 30,43 31,44 32,43 34,43 35,42 37,42 38,41 39,41 40,40 41,40 42,41 40,43 40,44 37,47 37,48 36,49 36,50 35,51 35,52 34,53 34,57 33,58 34,59 34,63 35,64 35,65 36,66 36,67 38,69 39,69 40,70 42,70 43,71 50,71 51,70 53,70 58,65 58,64 59,63 59,61 60,60 60,47 59,46 59,44 60,43 62,45 62,46 63,47 63,48 64,49 64,50 66,52 66,53 68,55 68,56 71,53 66,48 66,47 63,44 63,43 61,41 61,40 60,39 60,38 59,37 57,37 56,38 56,39 57,40 57,43 58,44 58,56 57,57 57,61 56,62 56,63 51,68 50,68 49,69 44,69 43,68 42,68 41,67 40,67 38,65 38,64 37,63 37,60 36,59 36,58 37,57 37,53 38,52 38,51 39,50 39,49 40,48 40,47 43,44 43,43 47,39 48,39 48,38 46,36" stroke="black" stroke-width="1" /></svg>