<?xml version="1.0" encoding="utf-8" ?>
<svg baseProfile="full" height="100" version="1.1" width="100" xmlns="http://www.w3.org/2000/svg" xmlns:ev="http://www.w3.org/2001/xml-events" xmlns:xlink="http://www.w3.org/1999/xlink"><defs /><polygon fill="none" id="1" points="50,36 49,37 47,37 46,38 44,38 43,39 40,39 39,40 35,40 34,41 32,41 33,42 33,43 34,44 35,43 38,43 39,42 41,42 42,41 43,41 44,40 46,40 47,41 45,43 44,43 44,44 40,48 40,49 39,50 39,51 38,52 38,53 37,54 37,63 38,64 38,65 42,69 43,69 44,70 46,70 47,71 55,71 56,70 58,70 59,69 60,69 64,65 64,64 65,63 65,61 66,60 66,46 65,45 65,44 66,43 68,45 68,46 69,47 69,48 71,50 71,51 74,54 74,55 75,56 78,53 71,46 71,45 67,41 67,40 66,39 66,38 65,37 62,37 62,39 63,40 63,45 64,46 64,55 63,56 63,60 62,61 62,62 61,63 61,64 58,67 57,67 56,68 55,68 54,69 48,69 47,68 46,68 45,67 44,67 42,65 42,64 41,63 41,61 40,60 40,57 41,56 41,53 42,52 42,51 43,50 43,49 44,48 44,47 52,39 53,39 53,38 51,36" stroke="black" stroke-width="1" /></svg>