<?xml version="1.0" encoding="utf-8" ?>
<svg baseProfile="full" height="100" version="1.1" width="100" xmlns="http://www.w3.org/2000/svg" xmlns:ev="http://www.w3.org/2001/xml-events" xmlns:xlink="http://www.w3.org/1999/xlink"><defs /><polygon fill="none" id="1" points="54,36 53,37 51,37 50,38 48,38 47,39 43,39 42,40 38,40 37,41 35,41 36,42 36,43 37,44 38,43 41,43 42,42 45,42 46,41 47,41 48,40 50,40 51,41 43,49 43,50 42,51 42,52 41,53 41,56 40,57 40,60 41,61 41,64 46,69 47,69 48,70 50,70 51,71 60,71 61,70 63,70 64,69 65,69 66,68 67,68 70,65 70,64 71,63 71,61 72,60 72,54 73,53 72,52 72,46 71,45 71,44 72,43 75,46 75,47 77,49 77,50 79,52 79,53 82,56 85,53 75,43 75,42 72,39 72,38 71,37 68,37 67,38 68,39 68,41 69,42 69,49 70,50 70,53 69,54 69,58 68,59 68,61 67,62 67,63 63,67 62,67 61,68 60,68 59,69 52,69 51,68 50,68 49,67 48,67 46,65 46,64 45,63 45,62 44,61 44,56 45,55 45,53 46,52 46,51 47,50 47,49 49,47 49,46 50,45 51,45 51,44 55,40 56,40 57,39 58,39 58,38 56,36" stroke="black" stroke-width="1" /></svg>