<?xml version="1.0" encoding="utf-8" ?>
<svg baseProfile="full" height="100" version="1.1" width="100" xmlns="http://www.w3.org/2000/svg" xmlns:ev="http://www.w3.org/2001/xml-events" xmlns:xlink="http://www.w3.org/1999/xlink"><defs /><polygon fill="none" id="1" points="54,43 53,44 49,44 48,45 45,45 44,46 41,46 40,47 39,47 39,48 40,49 41,48 43,48 44,47 46,47 47,46 49,46 50,45 53,45 54,44 61,44 62,45 63,45 65,47 65,49 66,50 66,55 65,56 65,59 63,61 63,62 61,64 60,64 58,66 57,66 56,67 55,67 54,68 53,68 52,69 48,69 50,71 51,71 52,70 54,70 55,69 56,69 57,68 58,68 59,67 60,67 61,66 62,66 65,63 65,62 66,61 66,60 67,59 67,57 68,56 68,49 67,48 67,47 64,44 62,44 61,43" stroke="black" stroke-width="1" /><polygon fill="none" id="2" points="48,31 47,32 48,33 51,33 52,34 54,34 55,35 57,35 58,36 59,36 60,37 61,37 62,36 62,35 60,35 59,34 58,34 57,33 55,33 54,32 52,32 51,31" stroke="black" stroke-width="1" /></svg>