<?xml version="1.0" encoding="utf-8" ?>
<svg baseProfile="full" height="100" version="1.1" width="100" xmlns="http://www.w3.org/2000/svg" xmlns:ev="http://www.w3.org/2001/xml-events" xmlns:xlink="http://www.w3.org/1999/xlink"><defs /><polygon fill="none" id="1" points="36,36 35,37 34,37 33,38 32,38 31,39 29,39 28,40 25,40 24,41 23,41 23,42 24,43 24,44 25,45 26,45 27,44 28,44 29,43 30,43 31,42 32,43 32,44 30,46 30,47 29,48 29,49 28,50 28,52 27,53 27,64 28,65 28,67 32,71 33,71 34,72 41,72 42,71 43,71 47,67 47,65 48,64 48,62 49,61 49,49 50,48 51,49 51,51 52,52 52,53 53,54 53,55 54,56 54,57 56,57 56,56 57,55 57,52 54,49 54,48 53,47 53,46 51,44 51,43 50,42 50,41 49,40 49,38 48,37 45,37 45,41 46,42 46,59 45,60 45,63 43,65 43,66 41,68 40,68 39,69 36,69 35,68 34,68 32,66 32,65 31,64 31,63 30,62 30,55 31,54 31,52 32,51 32,50 33,49 33,48 34,47 34,46 36,44 36,43 39,40 39,38 38,37 38,36" stroke="black" stroke-width="1" /></svg>