<?xml version="1.0" encoding="utf-8" ?>
<svg baseProfile="full" height="100" version="1.1" width="100" xmlns="http://www.w3.org/2000/svg" xmlns:ev="http://www.w3.org/2001/xml-events" xmlns:xlink="http://www.w3.org/1999/xlink"><defs /><polygon fill="none" id="1" points="40,36 39,37 38,37 37,38 36,38 35,39 33,39 32,40 28,40 27,41 26,41 26,42 27,43 27,44 28,45 29,45 30,44 32,44 33,43 34,43 35,42 36,43 36,44 33,47 33,48 32,49 32,51 31,52 31,54 30,55 30,62 31,63 31,66 33,68 33,69 34,69 36,71 37,71 38,72 46,72 47,71 48,71 49,70 50,70 52,68 52,67 53,66 53,65 54,64 54,62 55,61 55,49 56,48 57,49 57,50 58,51 58,52 59,53 59,54 61,56 61,57 62,57 65,54 65,53 61,49 61,48 59,46 59,45 57,43 57,42 56,41 56,40 55,39 55,38 54,37 51,37 50,38 50,39 51,40 51,43 52,44 52,57 51,58 51,61 50,62 50,64 46,68 45,68 44,69 40,69 39,68 38,68 35,65 35,64 34,63 34,55 35,54 35,52 36,51 36,50 37,49 37,48 39,46 39,45 44,40 44,38 43,37 43,36" stroke="black" stroke-width="1" /></svg>