<?xml version="1.0" encoding="utf-8" ?>
<svg baseProfile="full" height="100" version="1.1" width="100" xmlns="http://www.w3.org/2000/svg" xmlns:ev="http://www.w3.org/2001/xml-events" xmlns:xlink="http://www.w3.org/1999/xlink"><defs /><polygon fill="none" id="1" points="45,36 44,37 43,37 42,38 40,38 39,39 36,39 35,40 32,40 31,41 29,41 29,42 30,43 30,44 31,45 32,45 33,44 35,44 36,43 38,43 39,42 40,43 40,44 37,47 37,48 36,49 36,50 35,51 35,52 34,53 34,57 33,58 33,59 34,60 34,64 35,65 35,66 36,67 36,68 38,70 39,70 40,71 42,71 43,72 51,72 52,71 54,71 59,66 59,65 60,64 60,62 61,61 61,48 62,47 63,48 63,49 64,50 64,51 66,53 66,54 68,56 68,57 69,57 72,54 72,53 67,48 67,47 64,44 64,43 62,41 62,40 61,39 61,38 60,37 57,37 56,38 56,40 57,41 57,44 58,45 58,56 57,57 57,61 56,62 56,63 51,68 50,68 49,69 45,69 44,68 43,68 42,67 41,67 39,65 39,64 38,63 38,60 37,59 38,58 38,54 39,53 39,52 40,51 40,50 41,49 41,48 44,45 44,44 48,40 49,40 49,38 47,36" stroke="black" stroke-width="1" /><polygon fill="none" id="2" points="60,46 61,45 62,46 61,47" stroke="black" stroke-width="1" /></svg>