<?xml version="1.0" encoding="utf-8" ?>
<svg baseProfile="full" height="100" version="1.1" width="100" xmlns="http://www.w3.org/2000/svg" xmlns:ev="http://www.w3.org/2001/xml-events" xmlns:xlink="http://www.w3.org/1999/xlink"><defs /><polygon fill="none" id="1" points="50,36 49,37 47,37 46,38 44,38 43,39 40,39 39,40 35,40 34,41 32,41 32,42 33,43 33,44 34,45 35,45 36,44 39,44 40,43 42,43 43,42 44,43 44,44 40,48 40,49 39,50 39,51 38,52 38,53 37,54 37,64 38,65 38,66 42,70 43,70 44,71 46,71 47,72 56,72 57,71 59,71 60,70 61,70 65,66 65,65 66,64 66,62 67,61 67,48 68,47 69,48 69,49 71,51 71,52 74,55 74,56 75,57 76,57 79,54 79,53 72,46 72,45 68,41 68,40 67,39 67,38 66,37 62,37 62,40 63,41 63,46 64,47 64,55 63,56 63,60 62,61 62,62 61,63 61,64 58,67 57,67 56,68 55,68 54,69 49,69 48,68 47,68 46,67 45,67 43,65 43,64 42,63 42,61 41,60 41,58 42,57 42,54 43,53 43,52 44,51 44,50 45,49 45,48 53,40 54,40 54,38 52,36" stroke="black" stroke-width="1" /><polygon fill="none" id="2" points="44,42 45,41 46,42 45,43" stroke="black" stroke-width="1" /></svg>