<?xml version="1.0" encoding="utf-8" ?>
<svg baseProfile="full" height="100" version="1.1" width="100" xmlns="http://www.w3.org/2000/svg" xmlns:ev="http://www.w3.org/2001/xml-events" xmlns:xlink="http://www.w3.org/1999/xlink"><defs /><polygon fill="none" id="1" points="54,36 53,37 51,37 50,38 48,38 47,39 43,39 42,40 38,40 37,41 35,41 35,42 36,43 36,44 37,45 38,45 39,44 42,44 43,43 46,43 47,42 48,42 49,43 43,49 43,50 42,51 42,52 41,53 41,56 40,57 40,61 41,62 41,65 46,70 47,70 48,71 50,71 51,72 61,72 62,71 64,71 65,70 66,70 67,69 68,69 71,66 71,65 72,64 72,62 73,61 73,55 74,54 74,53 73,52 73,47 74,46 75,47 75,48 77,50 77,51 79,53 79,54 82,57 83,57 86,54 86,53 76,43 76,42 73,39 73,38 72,37 68,37 67,38 67,39 68,40 68,42 69,43 69,50 70,51 70,53 69,54 69,58 68,59 68,61 67,62 67,63 63,67 62,67 61,68 60,68 59,69 53,69 52,68 51,68 50,67 49,67 47,65 47,64 46,63 46,62 45,61 45,57 46,56 46,54 47,53 47,52 48,51 48,50 50,48 50,47 51,46 52,46 52,45 56,41 57,41 58,40 59,40 59,38 57,36" stroke="black" stroke-width="1" /><polygon fill="none" id="2" points="48,42 49,41 50,42 49,43" stroke="black" stroke-width="1" /></svg>