<?xml version="1.0" encoding="utf-8" ?>
<svg baseProfile="full" height="100" version="1.1" width="100" xmlns="http://www.w3.org/2000/svg" xmlns:ev="http://www.w3.org/2001/xml-events" xmlns:xlink="http://www.w3.org/1999/xlink"><defs /><polygon fill="none" id="1" points="37,37 36,38 35,38 34,39 33,39 32,40 30,40 29,41 26,41 25,42 25,43 27,43 28,42 29,42 30,41 31,41 32,40 34,40 35,41 35,42 33,44 33,45 31,47 31,48 30,49 30,50 29,51 29,53 28,54 28,63 29,64 29,66 33,70 34,70 35,71 40,71 41,70 42,70 46,66 46,64 47,63 47,61 48,60 48,48 47,47 47,44 48,43 49,43 50,44 50,45 51,46 51,47 52,48 52,50 53,51 53,52 54,53 54,54 55,55 55,56 55,55 56,54 56,53 53,50 53,49 52,48 52,47 50,45 50,44 49,43 49,42 48,41 48,39 47,38 46,38 46,40 47,41 47,60 46,61 46,64 44,66 44,67 42,69 41,69 40,70 35,70 34,69 33,69 31,67 31,66 30,65 30,64 29,63 29,54 30,53 30,51 31,50 31,49 32,48 32,47 33,46 33,45 35,43 35,42 38,39 37,38" stroke="black" stroke-width="1" /></svg>