<?xml version="1.0" encoding="utf-8" ?>
<svg baseProfile="full" height="100" version="1.1" width="100" xmlns="http://www.w3.org/2000/svg" xmlns:ev="http://www.w3.org/2001/xml-events" xmlns:xlink="http://www.w3.org/1999/xlink"><defs /><polygon fill="none" id="1" points="41,37 40,38 39,38 38,39 37,39 36,40 34,40 33,41 29,41 28,42 28,43 31,43 32,42 33,42 34,41 35,41 36,40 38,40 39,41 39,42 37,44 37,45 34,48 34,49 33,50 33,52 32,53 32,55 31,56 31,61 32,62 32,65 34,67 34,68 35,68 37,70 38,70 39,71 45,71 46,70 47,70 48,69 49,69 51,67 51,66 52,65 52,64 53,63 53,61 54,60 54,48 53,47 53,44 54,43 55,43 56,44 56,45 57,46 57,47 58,48 58,49 59,50 59,51 60,52 60,53 62,55 63,54 63,53 60,50 60,49 58,47 58,46 56,44 56,43 55,42 55,41 54,40 54,39 53,38 52,38 52,42 53,43 53,58 52,59 52,62 51,63 51,65 47,69 46,69 45,70 39,70 38,69 37,69 34,66 34,65 33,64 33,54 34,53 34,51 35,50 35,49 36,48 36,47 38,45 38,44 43,39 42,38 42,37" stroke="black" stroke-width="1" /></svg>