<?xml version="1.0" encoding="utf-8" ?>
<svg baseProfile="full" height="100" version="1.1" width="100" xmlns="http://www.w3.org/2000/svg" xmlns:ev="http://www.w3.org/2001/xml-events" xmlns:xlink="http://www.w3.org/1999/xlink"><defs /><polygon fill="none" id="1" points="46,37 45,38 44,38 43,39 41,39 40,40 37,40 36,41 33,41 32,42 31,42 31,43 34,43 35,42 37,42 38,41 39,41 40,40 42,40 43,41 43,42 41,44 41,45 38,48 38,49 37,50 37,51 36,52 36,53 35,54 35,63 36,64 36,65 37,66 37,67 39,69 40,69 41,70 43,70 44,71 50,71 51,70 53,70 58,65 58,64 59,63 59,61 60,60 60,48 59,47 59,44 60,43 61,43 63,45 63,46 64,47 64,48 65,49 65,50 67,52 67,53 69,55 70,54 70,53 66,49 66,48 63,45 63,44 61,42 61,41 60,40 60,39 59,38 58,38 57,39 58,40 58,43 59,44 59,57 58,58 58,62 57,63 57,64 52,69 51,69 50,70 44,70 43,69 42,69 41,68 40,68 38,66 38,65 37,64 37,61 36,60 36,58 37,57 37,53 38,52 38,51 39,50 39,49 40,48 40,47 43,44 43,43 47,39 48,39" stroke="black" stroke-width="1" /></svg>