<?xml version="1.0" encoding="utf-8" ?>
<svg baseProfile="full" height="100" version="1.1" width="100" xmlns="http://www.w3.org/2000/svg" xmlns:ev="http://www.w3.org/2001/xml-events" xmlns:xlink="http://www.w3.org/1999/xlink"><defs /><polygon fill="none" id="1" points="51,37 50,38 48,38 47,39 45,39 44,40 41,40 40,41 36,41 35,42 34,42 34,43 38,43 39,42 41,42 42,41 43,41 44,40 47,40 48,41 48,42 46,44 45,44 45,45 41,49 41,50 40,51 40,52 39,53 39,54 38,55 38,63 39,64 39,65 43,69 44,69 45,70 47,70 48,71 55,71 56,70 58,70 59,69 60,69 64,65 64,64 65,63 65,61 66,60 66,47 65,46 65,44 66,43 67,43 69,45 69,46 70,47 70,48 72,50 72,51 75,54 75,55 76,55 77,54 77,53 71,47 71,46 67,42 67,41 66,40 66,39 65,38 63,38 63,39 64,40 64,45 65,46 65,56 64,57 64,61 63,62 63,63 62,64 62,65 59,68 58,68 57,69 56,69 55,70 48,70 47,69 46,69 45,68 44,68 42,66 42,65 41,64 41,62 40,61 40,57 41,56 41,53 42,52 42,51 43,50 43,49 44,48 44,47 52,39 53,39" stroke="black" stroke-width="1" /></svg>