<?xml version="1.0" encoding="utf-8" ?>
<svg baseProfile="full" height="100" version="1.1" width="100" xmlns="http://www.w3.org/2000/svg" xmlns:ev="http://www.w3.org/2001/xml-events" xmlns:xlink="http://www.w3.org/1999/xlink"><defs /><polygon fill="none" id="1" points="58,43 57,44 53,44 52,45 49,45 48,46 44,46 43,47 43,49 44,49 45,48 47,48 48,47 50,47 51,46 53,46 54,45 58,45 59,44 66,44 67,45 68,45 71,48 71,49 72,50 72,55 71,56 71,58 70,59 70,60 65,65 64,65 62,67 60,67 59,68 57,68 56,69 52,69 53,69 55,71 56,71 57,70 59,70 60,69 62,69 63,68 64,68 65,67 66,67 69,64 70,64 71,63 71,62 72,61 72,60 73,59 73,58 74,57 74,54 75,53 75,52 74,51 74,49 73,48 73,47 70,44 68,44 67,43" stroke="black" stroke-width="1" /><polygon fill="none" id="2" points="52,31 52,33 56,33 57,34 59,34 60,35 62,35 63,36 64,36 65,37 66,37 67,36 67,35 66,35 65,34 63,34 62,33 60,33 59,32 56,32 55,31" stroke="black" stroke-width="1" /></svg>