<?xml version="1.0" encoding="utf-8" ?>
<svg baseProfile="full" height="100" version="1.1" width="100" xmlns="http://www.w3.org/2000/svg" xmlns:ev="http://www.w3.org/2001/xml-events" xmlns:xlink="http://www.w3.org/1999/xlink"><defs /><polygon fill="none" id="1" points="55,37 54,38 52,38 51,39 49,39 48,40 44,40 43,41 39,41 38,42 37,42 37,43 41,43 42,42 45,42 46,41 47,41 48,40 51,40 52,41 52,42 44,50 44,51 43,52 43,53 42,54 42,57 41,58 41,60 42,61 42,64 47,69 48,69 49,70 51,70 52,71 60,71 61,70 63,70 64,69 65,69 66,68 67,68 70,65 70,64 71,63 71,61 72,60 72,47 71,46 71,44 72,43 73,43 76,46 76,47 78,49 78,50 80,52 80,53 82,55 83,55 84,54 84,53 75,44 75,43 72,40 72,39 71,38 69,38 69,41 70,42 70,49 71,50 71,54 70,55 70,59 69,60 69,62 68,63 68,64 64,68 63,68 62,69 61,69 60,70 52,70 51,69 50,69 49,68 48,68 46,66 46,65 45,64 45,63 44,62 44,56 45,55 45,53 46,52 46,51 47,50 47,49 49,47 49,46 50,45 51,45 51,44 55,40 56,40 57,39 58,39 56,37" stroke="black" stroke-width="1" /></svg>