<?xml version="1.0" encoding="utf-8" ?>
<svg baseProfile="full" height="100" version="1.1" width="100" xmlns="http://www.w3.org/2000/svg" xmlns:ev="http://www.w3.org/2001/xml-events" xmlns:xlink="http://www.w3.org/1999/xlink"><defs /><polygon fill="none" id="1" points="35,35 34,36 33,36 32,37 31,37 30,38 28,38 27,39 24,39 23,40 22,40 22,42 23,43 23,44 24,45 26,45 27,44 28,44 29,45 29,46 28,47 28,48 27,49 27,51 26,52 26,64 27,65 27,67 31,71 32,71 33,72 41,72 42,71 43,71 47,67 47,65 48,64 48,62 49,61 49,52 50,51 51,52 51,53 52,54 52,55 53,56 53,57 56,57 56,56 57,55 57,51 54,48 54,47 53,46 53,45 51,43 51,42 50,41 50,40 49,39 49,37 48,36 44,36 44,41 45,42 45,58 44,59 44,62 42,64 42,65 40,67 39,67 38,68 36,68 35,67 34,67 32,65 32,64 31,63 31,62 30,61 30,55 31,54 31,52 32,51 32,50 33,49 33,48 34,47 34,46 36,44 36,43 39,40 39,37 38,36 38,35" stroke="black" stroke-width="1" /><polygon fill="none" id="2" points="28,44 29,43 30,44 29,45" stroke="black" stroke-width="1" /></svg>