<?xml version="1.0" encoding="utf-8" ?>
<svg baseProfile="full" height="100" version="1.1" width="100" xmlns="http://www.w3.org/2000/svg" xmlns:ev="http://www.w3.org/2001/xml-events" xmlns:xlink="http://www.w3.org/1999/xlink"><defs /><polygon fill="none" id="1" points="39,35 38,36 37,36 36,37 35,37 34,38 32,38 31,39 27,39 26,40 25,40 25,42 26,43 26,44 27,45 29,45 30,44 32,44 33,45 32,46 32,47 31,48 31,50 30,51 30,53 29,54 29,62 30,63 30,66 32,68 32,69 33,69 35,71 36,71 37,72 46,72 47,71 48,71 49,70 50,70 52,68 52,67 53,66 53,65 54,64 54,62 55,61 55,51 56,50 57,51 57,52 58,53 58,54 60,56 60,57 62,57 65,54 65,52 61,48 61,47 59,45 59,44 57,42 57,41 56,40 56,39 55,38 55,37 54,36 50,36 49,37 49,39 50,40 50,43 51,44 51,56 50,57 50,60 49,61 49,63 45,67 44,67 43,68 40,68 39,67 38,67 35,64 35,63 34,62 34,55 35,54 35,52 36,51 36,50 37,49 37,48 39,46 39,45 44,40 44,37 43,36 43,35" stroke="black" stroke-width="1" /><polygon fill="none" id="2" points="32,44 33,43 34,44 33,45" stroke="black" stroke-width="1" /></svg>