<?xml version="1.0" encoding="utf-8" ?>
<svg baseProfile="full" height="100" version="1.1" width="100" xmlns="http://www.w3.org/2000/svg" xmlns:ev="http://www.w3.org/2001/xml-events" xmlns:xlink="http://www.w3.org/1999/xlink"><defs /><polygon fill="none" id="1" points="44,35 43,36 42,36 41,37 39,37 38,38 35,38 34,39 31,39 30,40 28,40 28,42 29,43 29,44 30,45 32,45 33,44 35,44 36,43 37,43 38,44 36,46 36,47 35,48 35,49 34,50 34,51 33,52 33,56 32,57 32,59 33,60 33,64 34,65 34,66 35,67 35,68 37,70 38,70 39,71 41,71 42,72 51,72 52,71 54,71 59,66 59,65 60,64 60,62 61,61 61,50 62,49 63,50 63,51 65,53 65,54 67,56 67,57 69,57 72,54 72,52 67,47 67,46 64,43 64,42 62,40 62,39 61,38 61,37 60,36 56,36 55,37 55,40 56,41 56,44 57,45 57,55 56,56 56,60 55,61 55,62 50,67 49,67 48,68 45,68 44,67 43,67 42,66 41,66 39,64 39,63 38,62 38,54 39,53 39,52 40,51 40,50 41,49 41,48 44,45 44,44 48,40 49,40 49,37 47,35" stroke="black" stroke-width="1" /></svg>