<?xml version="1.0" encoding="utf-8" ?>
<svg baseProfile="full" height="100" version="1.1" width="100" xmlns="http://www.w3.org/2000/svg" xmlns:ev="http://www.w3.org/2001/xml-events" xmlns:xlink="http://www.w3.org/1999/xlink"><defs /><polygon fill="none" id="1" points="49,35 48,36 46,36 45,37 43,37 42,38 39,38 38,39 34,39 33,40 31,40 31,42 32,43 32,44 33,45 35,45 36,44 39,44 40,43 41,43 42,44 39,47 39,48 38,49 38,50 37,51 37,52 36,53 36,64 37,65 37,66 41,70 42,70 43,71 45,71 46,72 56,72 57,71 59,71 60,70 61,70 65,66 65,65 66,64 66,62 67,61 67,50 68,49 70,51 70,52 73,55 73,56 74,57 76,57 79,54 79,52 72,45 72,44 68,40 68,39 67,38 67,37 66,36 61,36 61,40 62,41 62,46 63,47 63,54 62,55 62,59 61,60 61,61 60,62 60,63 57,66 56,66 55,67 54,67 53,68 49,68 48,67 47,67 46,66 45,66 43,64 43,63 42,62 42,60 41,59 41,58 42,57 42,54 43,53 43,52 44,51 44,50 45,49 45,48 53,40 54,40 54,37 52,35" stroke="black" stroke-width="1" /></svg>