<?xml version="1.0" encoding="utf-8" ?>
<svg baseProfile="full" height="100" version="1.1" width="100" xmlns="http://www.w3.org/2000/svg" xmlns:ev="http://www.w3.org/2001/xml-events" xmlns:xlink="http://www.w3.org/1999/xlink"><defs /><polygon fill="none" id="1" points="53,35 52,36 50,36 49,37 47,37 46,38 42,38 41,39 37,39 36,40 34,40 34,42 35,43 35,44 36,45 38,45 39,44 42,44 43,43 45,43 46,44 42,48 42,49 41,50 41,51 40,52 40,55 39,56 39,61 40,62 40,65 45,70 46,70 47,71 49,71 50,72 61,72 62,71 64,71 65,70 66,70 67,69 68,69 71,66 71,65 72,64 72,62 73,61 73,55 74,54 74,52 73,51 73,49 74,48 76,50 76,51 78,53 78,54 81,57 83,57 86,54 86,52 76,42 76,41 73,38 73,37 72,36 67,36 66,37 66,39 67,40 67,42 68,43 68,50 69,51 69,52 68,53 68,57 67,58 67,60 66,61 66,62 62,66 61,66 60,67 59,67 58,68 53,68 52,67 51,67 50,66 49,66 47,64 47,63 46,62 46,61 45,60 45,57 46,56 46,54 47,53 47,52 48,51 48,50 50,48 50,47 51,46 52,46 52,45 56,41 57,41 58,40 59,40 59,37 57,35" stroke="black" stroke-width="1" /></svg>