<?xml version="1.0" encoding="utf-8" ?>
<svg baseProfile="full" height="100" version="1.1" width="100" xmlns="http://www.w3.org/2000/svg" xmlns:ev="http://www.w3.org/2001/xml-events" xmlns:xlink="http://www.w3.org/1999/xlink"><defs /><polygon fill="none" id="1" points="35,70 39,70" stroke="black" stroke-width="1" /><polygon fill="none" id="2" points="41,69" stroke="black" stroke-width="1" /><polygon fill="none" id="3" points="33,69" stroke="black" stroke-width="1" /><polygon fill="none" id="4" points="45,65 44,66" stroke="black" stroke-width="1" /><polygon fill="none" id="5" points="29,64 29,65 30,66 29,65" stroke="black" stroke-width="1" /><polygon fill="none" id="6" points="46,61 46,62" stroke="black" stroke-width="1" /><polygon fill="none" id="7" points="28,54 28,62" stroke="black" stroke-width="1" /><polygon fill="none" id="8" points="53,51 54,52 54,53 55,53" stroke="black" stroke-width="1" /><polygon fill="none" id="9" points="29,51 29,52" stroke="black" stroke-width="1" /><polygon fill="none" id="10" points="52,49" stroke="black" stroke-width="1" /><polygon fill="none" id="11" points="30,49" stroke="black" stroke-width="1" /><polygon fill="none" id="12" points="47,48 47,59" stroke="black" stroke-width="1" /><polygon fill="none" id="13" points="31,47" stroke="black" stroke-width="1" /><polygon fill="none" id="14" points="26,41 25,42 26,42 27,41 28,41" stroke="black" stroke-width="1" /><polygon fill="none" id="15" points="30,40" stroke="black" stroke-width="1" /><polygon fill="none" id="16" points="46,38 46,39 47,40 47,42 48,42 47,41 47,39" stroke="black" stroke-width="1" /><polygon fill="none" id="17" points="35,38 34,39 33,39 34,39 35,40 36,39 36,38" stroke="black" stroke-width="1" /></svg>