<?xml version="1.0" encoding="utf-8" ?>
<svg baseProfile="full" height="100" version="1.1" width="100" xmlns="http://www.w3.org/2000/svg" xmlns:ev="http://www.w3.org/2001/xml-events" xmlns:xlink="http://www.w3.org/1999/xlink"><defs /><polygon fill="none" id="1" points="39,70 44,70" stroke="black" stroke-width="1" /><polygon fill="none" id="2" points="46,69" stroke="black" stroke-width="1" /><polygon fill="none" id="3" points="37,69" stroke="black" stroke-width="1" /><polygon fill="none" id="4" points="34,67" stroke="black" stroke-width="1" /><polygon fill="none" id="5" points="50,66 48,68" stroke="black" stroke-width="1" /><polygon fill="none" id="6" points="58,48 59,49 59,50 60,51 60,52 61,53 62,53 59,50 59,49" stroke="black" stroke-width="1" /><polygon fill="none" id="7" points="53,48 53,58 52,59 52,62 51,63 51,64 51,63 52,62 52,60 53,59" stroke="black" stroke-width="1" /><polygon fill="none" id="8" points="35,47 34,48 34,49 33,50 33,52 32,53 32,55 31,56 31,60 32,61 32,64 33,65 32,64 32,53 33,52 33,50 34,49 34,48" stroke="black" stroke-width="1" /><polygon fill="none" id="9" points="57,46" stroke="black" stroke-width="1" /><polygon fill="none" id="10" points="37,44" stroke="black" stroke-width="1" /><polygon fill="none" id="11" points="29,41 28,42 30,42 31,41 32,41" stroke="black" stroke-width="1" /><polygon fill="none" id="12" points="34,40" stroke="black" stroke-width="1" /><polygon fill="none" id="13" points="52,38 52,41 53,42 54,42 54,41 53,40 53,39" stroke="black" stroke-width="1" /><polygon fill="none" id="14" points="41,37 40,38 39,38 38,39 37,39 38,39 39,40 39,41 41,39" stroke="black" stroke-width="1" /></svg>