<?xml version="1.0" encoding="utf-8" ?>
<svg baseProfile="full" height="100" version="1.1" width="100" xmlns="http://www.w3.org/2000/svg" xmlns:ev="http://www.w3.org/2001/xml-events" xmlns:xlink="http://www.w3.org/1999/xlink"><defs /><polygon fill="none" id="1" points="44,70 49,70" stroke="black" stroke-width="1" /><polygon fill="none" id="2" points="59,48 59,57 58,58 58,62 57,63 57,64 52,69 51,69 52,69 57,64 57,63 58,62 58,60 59,59" stroke="black" stroke-width="1" /><polygon fill="none" id="3" points="64,47 65,48 65,49 67,51 67,52 68,53 69,53 65,49 65,48" stroke="black" stroke-width="1" /><polygon fill="none" id="4" points="39,47 38,48 38,49 37,50 37,51 36,52 36,53 35,54 35,62 36,63 36,64 37,65 37,66 39,68 40,68 41,69 42,69 41,69 40,68 39,68 37,66 37,65 36,64 36,61 35,60 35,57 36,56 36,52 37,51 37,50 38,49 38,48" stroke="black" stroke-width="1" /><polygon fill="none" id="5" points="42,43 41,44" stroke="black" stroke-width="1" /><polygon fill="none" id="6" points="37,40 36,41 33,41 32,42 31,42 33,42 34,41 36,41 37,40 38,40" stroke="black" stroke-width="1" /><polygon fill="none" id="7" points="58,38 58,42 60,42 60,41 59,40 59,39" stroke="black" stroke-width="1" /><polygon fill="none" id="8" points="44,38 43,39 41,39 42,39 43,40 43,41 46,38" stroke="black" stroke-width="1" /></svg>