<?xml version="1.0" encoding="utf-8" ?>
<svg baseProfile="full" height="100" version="1.1" width="100" xmlns="http://www.w3.org/2000/svg" xmlns:ev="http://www.w3.org/2001/xml-events" xmlns:xlink="http://www.w3.org/1999/xlink"><defs /><polygon fill="none" id="1" points="48,70 54,70" stroke="black" stroke-width="1" /><polygon fill="none" id="2" points="65,47 65,56 64,57 64,61 63,62 63,63 62,64 62,65 59,68 58,68 57,69 56,69 57,69 58,68 59,68 63,64 63,63 64,62 64,60 65,59" stroke="black" stroke-width="1" /><polygon fill="none" id="3" points="43,47 41,49 41,50 40,51 40,52 39,53 39,54 38,55 38,62 39,63 39,64 43,68 44,68 45,69 46,69 45,69 44,68 43,68 41,66 41,65 40,64 40,62 39,61 39,56 40,55 40,52 41,51 41,50 42,49 42,48" stroke="black" stroke-width="1" /><polygon fill="none" id="4" points="69,45 70,46 70,47 72,49 72,50 75,53 75,54 76,53 70,47 70,46" stroke="black" stroke-width="1" /><polygon fill="none" id="5" points="45,44" stroke="black" stroke-width="1" /><polygon fill="none" id="6" points="41,40 40,41 36,41 35,42 34,42 37,42 38,41 40,41 41,40 42,40" stroke="black" stroke-width="1" /><polygon fill="none" id="7" points="63,38 64,39 64,44 64,43 65,42 66,42 66,41 65,40 65,39 64,38" stroke="black" stroke-width="1" /><polygon fill="none" id="8" points="48,38 47,39 45,39 47,39 48,40 48,41 51,38" stroke="black" stroke-width="1" /></svg>