<?xml version="1.0" encoding="utf-8" ?>
<svg baseProfile="full" height="100" version="1.1" width="100" xmlns="http://www.w3.org/2000/svg" xmlns:ev="http://www.w3.org/2001/xml-events" xmlns:xlink="http://www.w3.org/1999/xlink"><defs /><polygon fill="none" id="1" points="37,41 36,42 34,42 33,43 31,43 30,44 28,44 27,45 26,45 26,47 27,48 27,50 30,50 31,49 32,49 33,48 34,48 35,47 36,47 37,46 39,46 40,45 42,45 43,46 44,46 45,47 45,49 46,50 46,55 45,56 45,58 44,59 44,60 38,66 37,66 36,67 33,67 33,70 35,72 38,72 39,71 40,71 41,70 42,70 48,64 48,63 49,62 49,60 50,59 50,46 49,45 49,44 47,42 46,42 45,41" stroke="black" stroke-width="1" /><polygon fill="none" id="2" points="33,29 33,30 32,31 32,33 33,34 35,34 36,35 37,35 38,36 39,36 40,37 41,37 42,38 45,38 46,37 46,33 45,33 44,32 43,32 42,31 41,31 40,30 39,30 38,29" stroke="black" stroke-width="1" /></svg>