<?xml version="1.0" encoding="utf-8" ?>
<svg baseProfile="full" height="100" version="1.1" width="100" xmlns="http://www.w3.org/2000/svg" xmlns:ev="http://www.w3.org/2001/xml-events" xmlns:xlink="http://www.w3.org/1999/xlink"><defs /><polygon fill="none" id="1" points="52,70 59,70" stroke="black" stroke-width="1" /><polygon fill="none" id="2" points="76,46 78,48 78,49 80,51 80,52 82,54 83,53" stroke="black" stroke-width="1" /><polygon fill="none" id="3" points="48,46 44,50 44,51 43,52 43,53 42,54 42,57 41,58 41,59 42,60 42,63 47,68 48,68 49,69 50,69 49,69 48,68 47,68 45,66 45,65 44,64 44,63 43,62 43,55 44,54 44,52 45,51 45,50 46,49 46,48" stroke="black" stroke-width="1" /><polygon fill="none" id="4" points="50,44" stroke="black" stroke-width="1" /><polygon fill="none" id="5" points="44,40 43,41 39,41 38,42 37,42 40,42 41,41 44,41 45,40 46,40" stroke="black" stroke-width="1" /><polygon fill="none" id="6" points="69,38 69,40 70,41 70,48 71,49 71,54 70,55 70,59 69,60 69,62 68,63 68,64 64,68 63,68 62,69 61,69 62,69 63,68 64,68 65,67 66,67 69,64 69,63 70,62 70,60 71,59 71,47 70,46 70,43 71,42 73,42 74,43 71,40 71,39 70,38" stroke="black" stroke-width="1" /><polygon fill="none" id="7" points="55,37 54,38 52,38 51,39 49,39 51,39 52,40 52,41 54,39 55,39 56,38" stroke="black" stroke-width="1" /></svg>