<?xml version="1.0" encoding="utf-8" ?>
<svg baseProfile="full" height="100" version="1.1" width="100" xmlns="http://www.w3.org/2000/svg" xmlns:ev="http://www.w3.org/2001/xml-events" xmlns:xlink="http://www.w3.org/1999/xlink"><defs /><polygon fill="none" id="1" points="28,52 28,53 27,54 27,56 26,57 26,58 25,59 25,60 24,61 24,62 23,63 23,64 22,65 22,66 24,68 24,67 25,66 25,65 26,64 26,63 27,62 27,61 28,60 28,59 29,58 29,56 30,55 30,53 29,52" stroke="black" stroke-width="1" /><polygon fill="none" id="2" points="48,50 48,51 47,52 48,53 48,54 50,56 50,57 51,58 51,59 52,60 52,61 53,62 53,63 54,64 54,66 56,64 56,62 55,61 55,60 54,59 54,58 53,57 53,56 52,55 52,54 50,52 50,51 49,50" stroke="black" stroke-width="1" /><polygon fill="none" id="3" points="36,46 36,48 37,49 37,54 39,56 39,57 42,60 42,62 43,63 43,66 40,69 37,69 32,64 31,65 31,67 33,69 34,69 36,71 41,71 42,70 43,70 44,69 44,68 45,67 45,61 44,60 44,59 43,58 43,57 40,54 40,53 39,52 39,46" stroke="black" stroke-width="1" /><polygon fill="none" id="4" points="35,33 34,34 34,35 35,36 36,36 37,37 38,37 40,39 41,39 44,42 44,41 45,40 45,39 43,37 42,37 40,35 39,35 38,34 37,34 36,33" stroke="black" stroke-width="1" /></svg>