<?xml version="1.0" encoding="utf-8" ?>
<svg baseProfile="full" height="100" version="1.1" width="100" xmlns="http://www.w3.org/2000/svg" xmlns:ev="http://www.w3.org/2001/xml-events" xmlns:xlink="http://www.w3.org/1999/xlink"><defs /><polygon fill="none" id="1" points="42,52 41,53 41,55 40,56 40,57 37,60 37,61 33,65 33,66 34,66 36,68 39,65 39,64 41,62 41,61 42,60 42,59 44,57 44,56 46,54 46,53 44,53 43,52" stroke="black" stroke-width="1" /><polygon fill="none" id="2" points="73,50 72,51 71,51 71,52 77,58 77,59 79,61 79,62 80,63 80,64 82,66 84,64 85,64 85,63 83,61 83,60 81,58 81,57 74,50" stroke="black" stroke-width="1" /><polygon fill="none" id="3" points="54,46 55,47 55,52 56,53 56,54 64,62 64,63 65,64 65,65 64,66 64,67 63,68 62,68 61,69 56,69 55,68 54,68 53,67 52,67 49,64 48,64 46,66 48,68 49,68 50,69 51,69 52,70 54,70 55,71 62,71 63,70 65,70 67,68 67,67 68,66 68,62 67,61 67,60 59,52 59,51 58,50 58,47 59,46" stroke="black" stroke-width="1" /><polygon fill="none" id="4" points="53,33 52,34 51,34 51,35 52,35 53,36 55,36 56,37 57,37 58,38 60,38 61,39 62,39 63,40 64,40 66,42 69,39 68,39 67,38 66,38 65,37 64,37 63,36 61,36 60,35 59,35 58,34 56,34 55,33" stroke="black" stroke-width="1" /></svg>