<?xml version="1.0" encoding="utf-8" ?>
<svg baseProfile="full" height="100" version="1.1" width="100" xmlns="http://www.w3.org/2000/svg" xmlns:ev="http://www.w3.org/2001/xml-events" xmlns:xlink="http://www.w3.org/1999/xlink"><defs /><polygon fill="none" id="1" points="31,52 31,54 30,55 30,57 29,58 29,59 28,60 28,61 25,64 25,66 27,68 27,67 29,65 29,64 30,63 30,62 31,61 31,60 32,59 32,58 33,57 33,55 34,54 34,53 33,53 32,52" stroke="black" stroke-width="1" /><polygon fill="none" id="2" points="55,50 54,51 53,51 53,52 55,54 55,55 57,57 57,58 58,59 58,60 59,61 59,62 60,63 60,64 61,65 61,66 63,64 64,64 64,63 62,61 62,60 61,59 61,58 59,56 59,55 57,53 57,52" stroke="black" stroke-width="1" /><polygon fill="none" id="3" points="41,46 41,52 42,53 42,54 43,55 43,56 47,60 47,61 48,62 48,67 46,69 42,69 41,68 40,68 37,65 37,64 36,64 35,65 35,67 37,69 38,69 39,70 40,70 41,71 47,71 50,68 50,67 51,66 51,63 50,62 50,60 49,59 49,58 45,54 45,53 44,52 44,50 43,49 43,47 44,46" stroke="black" stroke-width="1" /><polygon fill="none" id="4" points="39,33 39,34 38,35 39,35 40,36 41,36 42,37 43,37 45,39 46,39 48,41 50,41 50,40 51,39 50,38 49,38 47,36 46,36 45,35 44,35 43,34 42,34 41,33" stroke="black" stroke-width="1" /></svg>