<?xml version="1.0" encoding="utf-8" ?>
<svg baseProfile="full" height="100" version="1.1" width="100" xmlns="http://www.w3.org/2000/svg" xmlns:ev="http://www.w3.org/2001/xml-events" xmlns:xlink="http://www.w3.org/1999/xlink"><defs /><polygon fill="none" id="1" points="42,41 41,42 38,42 37,43 35,43 34,44 31,44 30,45 29,45 29,47 30,48 30,49 31,50 34,50 35,49 36,49 37,48 38,48 39,47 41,47 42,46 44,46 45,45 48,45 51,48 51,49 52,50 52,54 51,55 51,57 50,58 50,59 49,60 49,61 46,64 45,64 43,66 41,66 40,67 38,67 38,71 39,72 43,72 44,71 45,71 46,70 47,70 48,69 49,69 54,64 54,63 55,62 55,61 56,60 56,57 57,56 57,49 56,48 56,45 53,42 52,42 51,41" stroke="black" stroke-width="1" /><polygon fill="none" id="2" points="38,29 37,30 37,34 40,34 41,35 42,35 43,36 44,36 45,37 46,37 47,38 51,38 51,37 52,36 52,34 51,33 50,33 49,32 48,32 47,31 46,31 45,30 43,30 42,29" stroke="black" stroke-width="1" /></svg>