<?xml version="1.0" encoding="utf-8" ?>
<svg baseProfile="full" height="100" version="1.1" width="100" xmlns="http://www.w3.org/2000/svg" xmlns:ev="http://www.w3.org/2001/xml-events" xmlns:xlink="http://www.w3.org/1999/xlink"><defs /><polygon fill="none" id="1" points="28,52 28,53 27,54 27,56 26,57 26,58 25,59 25,60 24,61 24,62 23,63 23,64 22,65 22,67 24,69 25,69 25,68 26,67 26,66 27,65 27,64 28,63 28,62 29,61 29,60 30,59 30,57 31,56 31,53 30,52" stroke="black" stroke-width="1" /><polygon fill="none" id="2" points="48,50 48,51 47,52 47,53 48,54 48,55 50,57 50,58 51,59 51,60 52,61 52,62 53,63 53,64 54,65 54,67 55,67 57,65 57,62 56,61 56,60 55,59 55,58 54,57 54,56 53,55 53,54 51,52 51,51 50,50" stroke="black" stroke-width="1" /><polygon fill="none" id="3" points="36,46 36,49 37,50 37,55 39,57 39,58 42,61 42,63 43,64 43,66 40,69 38,69 33,64 32,64 31,65 31,68 33,70 34,70 36,72 42,72 43,71 44,71 45,70 45,69 46,68 46,61 45,60 45,59 44,58 44,57 41,54 41,53 40,52 40,46" stroke="black" stroke-width="1" /><polygon fill="none" id="4" points="35,33 34,34 34,36 35,37 36,37 37,38 38,38 40,40 41,40 44,43 45,43 45,42 46,41 46,39 44,37 43,37 41,35 40,35 39,34 38,34 37,33" stroke="black" stroke-width="1" /></svg>