<?xml version="1.0" encoding="utf-8" ?>
<svg baseProfile="full" height="100" version="1.1" width="100" xmlns="http://www.w3.org/2000/svg" xmlns:ev="http://www.w3.org/2001/xml-events" xmlns:xlink="http://www.w3.org/1999/xlink"><defs /><polygon fill="none" id="1" points="32,53 32,55 31,56 31,58 30,59 30,60 29,61 29,62 26,65 26,66 27,67 29,65 29,64 30,63 30,62 31,61 31,60 32,59 32,58 33,57 33,55 34,54 33,54" stroke="black" stroke-width="1" /><polygon fill="none" id="2" points="54,52 56,54 56,55 58,57 58,58 59,59 59,60 60,61 60,62 61,63 61,64 62,65 63,64 64,64 62,62 62,61 61,60 61,59 59,57 59,56 57,54 57,53 56,52" stroke="black" stroke-width="1" /><polygon fill="none" id="3" points="42,47 42,52 43,53 43,54 44,55 44,56 48,60 48,61 49,62 49,68 47,70 42,70 41,69 40,69 37,66 37,65 36,66 36,67 38,69 39,69 40,70 41,70 42,71 47,71 50,68 50,67 51,66 51,64 50,63 50,61 49,60 49,59 45,55 45,54 44,53 44,51 43,50 43,47" stroke="black" stroke-width="1" /><polygon fill="none" id="4" points="40,34 40,35 41,36 42,36 43,37 44,37 46,39 47,39 49,41 50,41 50,39 49,39 47,37 46,37 45,36 44,36 43,35 42,35 41,34" stroke="black" stroke-width="1" /></svg>