<?xml version="1.0" encoding="utf-8" ?>
<svg baseProfile="full" height="100" version="1.1" width="100" xmlns="http://www.w3.org/2000/svg" xmlns:ev="http://www.w3.org/2001/xml-events" xmlns:xlink="http://www.w3.org/1999/xlink"><defs /><polygon fill="none" id="1" points="39,53 39,54 38,55 38,57 36,59 36,60 35,61 35,62 31,66 32,66 33,67 34,67 34,66 36,64 36,63 39,60 39,59 40,58 40,57 41,56 41,55 42,54 41,54 40,53" stroke="black" stroke-width="1" /><polygon fill="none" id="2" points="68,51 67,52 66,52 69,55 69,56 72,59 72,60 74,62 74,63 75,64 75,65 76,65 77,64 78,64 76,62 76,61 74,59 74,58 68,52" stroke="black" stroke-width="1" /><polygon fill="none" id="3" points="51,47 51,50 52,51 52,53 53,54 53,55 59,61 59,62 60,63 60,67 57,70 51,70 50,69 49,69 47,67 46,67 45,66 45,65 44,66 44,67 45,68 46,68 47,69 48,69 49,70 50,70 51,71 57,71 58,70 59,70 60,69 61,69 61,68 62,67 62,62 61,61 61,60 54,53 54,52 53,51 53,47" stroke="black" stroke-width="1" /><polygon fill="none" id="4" points="49,34 48,35 49,35 50,36 51,36 52,37 54,37 55,38 56,38 57,39 58,39 60,41 61,41 62,40 61,39 60,39 59,38 58,38 57,37 56,37 55,36 54,36 53,35 51,35 50,34" stroke="black" stroke-width="1" /></svg>