<?xml version="1.0" encoding="utf-8" ?>
<svg baseProfile="full" height="100" version="1.1" width="100" xmlns="http://www.w3.org/2000/svg" xmlns:ev="http://www.w3.org/2001/xml-events" xmlns:xlink="http://www.w3.org/1999/xlink"><defs /><polygon fill="none" id="1" points="47,41 46,42 42,42 41,43 39,43 38,44 35,44 34,45 33,45 33,47 34,48 34,50 38,50 39,49 40,49 41,48 42,48 43,47 45,47 46,46 49,46 50,45 53,45 54,46 55,46 57,48 57,50 58,51 58,54 57,55 57,57 56,58 56,59 51,64 50,64 49,65 48,65 47,66 46,66 45,67 42,67 42,70 44,72 48,72 49,71 50,71 51,70 52,70 53,69 54,69 55,68 56,68 60,64 60,63 61,62 61,61 62,60 62,58 63,57 63,48 62,47 62,45 59,42 58,42 57,41" stroke="black" stroke-width="1" /><polygon fill="none" id="2" points="42,29 41,30 41,34 44,34 45,35 47,35 48,36 50,36 52,38 56,38 57,37 57,33 56,33 55,32 53,32 52,31 51,31 50,30 48,30 47,29" stroke="black" stroke-width="1" /></svg>