<?xml version="1.0" encoding="utf-8" ?>
<svg baseProfile="full" height="100" version="1.1" width="100" xmlns="http://www.w3.org/2000/svg" xmlns:ev="http://www.w3.org/2001/xml-events" xmlns:xlink="http://www.w3.org/1999/xlink"><defs /><polygon fill="none" id="1" points="43,53 42,54 42,56 41,57 41,58 38,61 38,62 34,66 35,66 36,67 37,67 39,65 39,64 41,62 41,61 42,60 42,59 44,57 44,56 46,54 44,54" stroke="black" stroke-width="1" /><polygon fill="none" id="2" points="74,51 73,52 72,52 78,58 78,59 80,61 80,62 81,63 81,64 82,65 83,65 84,64 85,64 83,62 83,61 81,59 81,58" stroke="black" stroke-width="1" /><polygon fill="none" id="3" points="56,47 56,52 57,53 57,54 65,62 65,63 66,64 66,66 65,67 65,68 64,69 63,69 62,70 56,70 55,69 54,69 53,68 52,68 49,65 48,66 48,67 49,68 50,68 51,69 52,69 53,70 55,70 56,71 62,71 63,70 65,70 67,68 67,67 68,66 68,63 67,62 67,61 59,53 59,52 58,51 58,47" stroke="black" stroke-width="1" /><polygon fill="none" id="4" points="54,34 53,35 52,35 53,35 54,36 56,36 57,37 58,37 59,38 61,38 62,39 63,39 64,40 65,40 66,41 67,41 68,40 67,39 66,39 65,38 64,38 63,37 61,37 60,36 59,36 58,35 56,35 55,34" stroke="black" stroke-width="1" /></svg>