<?xml version="1.0" encoding="utf-8" ?>
<svg baseProfile="full" height="100" version="1.1" width="100" xmlns="http://www.w3.org/2000/svg" xmlns:ev="http://www.w3.org/2001/xml-events" xmlns:xlink="http://www.w3.org/1999/xlink"><defs /><polygon fill="none" id="1" points="27,51 27,52 26,53 26,55 25,56 25,57 24,58 24,59 23,60 23,61 22,62 22,63 21,64 21,67 23,69 25,69 25,68 26,67 26,66 27,65 27,64 28,63 28,62 29,61 29,60 30,59 30,57 31,56 31,52 30,51" stroke="black" stroke-width="1" /><polygon fill="none" id="2" points="47,49 47,50 46,51 46,53 47,54 47,55 49,57 49,58 50,59 50,60 51,61 51,62 52,63 52,64 53,65 53,67 55,67 57,65 57,61 56,60 56,59 55,58 55,57 54,56 54,55 53,54 53,53 51,51 51,50 50,49" stroke="black" stroke-width="1" /><polygon fill="none" id="3" points="35,45 35,49 36,50 36,55 38,57 38,58 41,61 41,63 42,64 42,65 39,68 38,68 33,63 31,63 30,64 30,68 32,70 33,70 35,72 42,72 43,71 44,71 45,70 45,69 46,68 46,60 45,59 45,58 44,57 44,56 41,53 41,52 40,51 40,45" stroke="black" stroke-width="1" /><polygon fill="none" id="4" points="34,32 33,33 33,36 34,37 35,37 36,38 37,38 39,40 40,40 43,43 45,43 45,42 46,41 46,38 44,36 43,36 41,34 40,34 39,33 38,33 37,32" stroke="black" stroke-width="1" /></svg>