<?xml version="1.0" encoding="utf-8" ?>
<svg baseProfile="full" height="100" version="1.1" width="100" xmlns="http://www.w3.org/2000/svg" xmlns:ev="http://www.w3.org/2001/xml-events" xmlns:xlink="http://www.w3.org/1999/xlink"><defs /><polygon fill="none" id="1" points="52,41 51,42 47,42 46,43 43,43 42,44 39,44 38,45 36,45 36,47 37,48 37,49 38,50 41,50 42,49 44,49 45,48 47,48 48,47 50,47 51,46 54,46 55,45 59,45 60,46 61,46 63,48 63,50 64,51 64,53 63,54 63,57 61,59 61,60 59,62 58,62 56,64 55,64 54,65 53,65 52,66 51,66 50,67 46,67 46,70 48,72 52,72 53,71 55,71 56,70 57,70 58,69 59,69 60,68 61,68 62,67 63,67 66,64 66,63 67,62 67,61 68,60 68,58 69,57 69,47 68,46 68,45 65,42 63,42 62,41" stroke="black" stroke-width="1" /><polygon fill="none" id="2" points="46,29 45,30 45,33 46,34 49,34 50,35 52,35 53,36 55,36 56,37 57,37 58,38 62,38 63,37 63,33 61,33 60,32 59,32 58,31 56,31 55,30 53,30 52,29" stroke="black" stroke-width="1" /></svg>