<?xml version="1.0" encoding="utf-8" ?>
<svg baseProfile="full" height="100" version="1.1" width="100" xmlns="http://www.w3.org/2000/svg" xmlns:ev="http://www.w3.org/2001/xml-events" xmlns:xlink="http://www.w3.org/1999/xlink"><defs /><polygon fill="none" id="1" points="43,42 31,54 30,54 28,56 30,58 30,59 32,57 33,57 44,46 45,46 47,48 48,48 54,54 55,54 58,57 59,57 62,60 63,60 64,61 65,61 68,64 71,61 70,60 69,60 68,59 67,59 65,57 64,57 63,56 62,56 59,53 58,53 54,49 53,49 46,42" stroke="black" stroke-width="1" /></svg>