<?xml version="1.0" encoding="utf-8" ?>
<svg baseProfile="full" height="100" version="1.1" width="100" xmlns="http://www.w3.org/2000/svg" xmlns:ev="http://www.w3.org/2001/xml-events" xmlns:xlink="http://www.w3.org/1999/xlink"><defs /><polygon fill="none" id="1" points="48,42 47,43 46,43 38,51 37,51 34,54 33,54 31,56 33,58 33,59 34,58 35,58 39,54 40,54 48,46 50,46 53,49 54,49 58,53 59,53 61,55 62,55 65,58 66,58 67,59 68,59 70,61 71,61 72,62 73,62 75,64 78,61 78,60 76,60 75,59 74,59 73,58 72,58 71,57 70,57 68,55 67,55 65,53 64,53 62,51 61,51 57,47 56,47 51,42" stroke="black" stroke-width="1" /></svg>