<?xml version="1.0" encoding="utf-8" ?>
<svg baseProfile="full" height="100" version="1.1" width="100" xmlns="http://www.w3.org/2000/svg" xmlns:ev="http://www.w3.org/2001/xml-events" xmlns:xlink="http://www.w3.org/1999/xlink"><defs /><polygon fill="none" id="1" points="56,41 55,42 51,42 50,43 47,43 46,44 42,44 41,45 40,45 40,47 41,48 41,50 45,50 46,49 48,49 49,48 51,48 52,47 54,47 55,46 59,46 60,45 64,45 65,46 66,46 69,49 69,50 70,51 70,53 69,54 69,56 68,57 68,58 63,63 62,63 60,65 58,65 57,66 55,66 54,67 50,67 50,70 51,70 53,72 57,72 58,71 60,71 61,70 63,70 64,69 65,69 66,68 67,68 70,65 71,65 72,64 72,63 73,62 73,61 74,60 74,59 75,58 75,55 76,54 76,50 75,49 75,47 74,46 74,45 71,42 69,42 68,41" stroke="black" stroke-width="1" /><polygon fill="none" id="2" points="50,29 50,30 49,31 49,33 50,34 54,34 55,35 57,35 58,36 60,36 61,37 62,37 63,38 67,38 69,36 69,34 68,33 67,33 66,32 64,32 63,31 61,31 60,30 57,30 56,29" stroke="black" stroke-width="1" /></svg>