<?xml version="1.0" encoding="utf-8" ?>
<svg baseProfile="full" height="100" version="1.1" width="100" xmlns="http://www.w3.org/2000/svg" xmlns:ev="http://www.w3.org/2001/xml-events" xmlns:xlink="http://www.w3.org/1999/xlink"><defs /><polygon fill="none" id="1" points="52,42 50,44 49,44 43,50 42,50 39,53 38,53 37,54 36,54 34,56 36,58 36,59 37,58 38,58 40,56 41,56 45,52 46,52 51,47 52,47 53,46 55,46 58,49 59,49 62,52 63,52 65,54 66,54 68,56 69,56 71,58 72,58 73,59 74,59 75,60 76,60 77,61 78,61 79,62 80,62 81,63 83,63 85,61 85,60 83,60 82,59 81,59 80,58 79,58 78,57 77,57 76,56 75,56 74,55 73,55 71,53 70,53 69,52 68,52 65,49 64,49 62,47 61,47 57,43 56,43 55,42" stroke="black" stroke-width="1" /></svg>