<?xml version="1.0" encoding="utf-8" ?>
<svg baseProfile="full" height="100" version="1.1" width="100" xmlns="http://www.w3.org/2000/svg" xmlns:ev="http://www.w3.org/2001/xml-events" xmlns:xlink="http://www.w3.org/1999/xlink"><defs /><polygon fill="none" id="1" points="43,42 31,54 30,54 28,56 28,57 30,59 30,60 31,60 33,58 34,58 45,47 47,49 48,49 54,55 55,55 58,58 59,58 62,61 63,61 64,62 65,62 68,65 69,65 72,62 72,61 71,60 70,60 69,59 68,59 66,57 65,57 64,56 63,56 60,53 59,53 55,49 54,49 47,42" stroke="black" stroke-width="1" /></svg>