<?xml version="1.0" encoding="utf-8" ?>
<svg baseProfile="full" height="100" version="1.1" width="100" xmlns="http://www.w3.org/2000/svg" xmlns:ev="http://www.w3.org/2001/xml-events" xmlns:xlink="http://www.w3.org/1999/xlink"><defs /><polygon fill="none" id="1" points="48,42 47,43 46,43 38,51 37,51 34,54 33,54 31,56 31,57 33,59 33,60 34,60 35,59 36,59 40,55 41,55 49,47 50,47 53,50 54,50 58,54 59,54 61,56 62,56 65,59 66,59 67,60 68,60 70,62 71,62 72,63 73,63 75,65 76,65 79,62 79,60 77,60 76,59 75,59 74,58 73,58 72,57 71,57 69,55 68,55 66,53 65,53 63,51 62,51 58,47 57,47 52,42" stroke="black" stroke-width="1" /></svg>