<?xml version="1.0" encoding="utf-8" ?>
<svg baseProfile="full" height="100" version="1.1" width="100" xmlns="http://www.w3.org/2000/svg" xmlns:ev="http://www.w3.org/2001/xml-events" xmlns:xlink="http://www.w3.org/1999/xlink"><defs /><polygon fill="none" id="1" points="52,42 50,44 49,44 43,50 42,50 39,53 38,53 37,54 36,54 34,56 34,57 36,59 36,60 37,60 38,59 39,59 41,57 42,57 46,53 47,53 52,48 53,48 54,47 55,47 58,50 59,50 62,53 63,53 65,55 66,55 68,57 69,57 71,59 72,59 73,60 74,60 75,61 76,61 77,62 78,62 79,63 80,63 81,64 84,64 86,62 86,60 84,60 83,59 82,59 81,58 80,58 79,57 78,57 77,56 76,56 75,55 74,55 72,53 71,53 70,52 69,52 66,49 65,49 63,47 62,47 58,43 57,43 56,42" stroke="black" stroke-width="1" /></svg>