<?xml version="1.0" encoding="utf-8" ?>
<svg baseProfile="full" height="100" version="1.1" width="100" xmlns="http://www.w3.org/2000/svg" xmlns:ev="http://www.w3.org/2001/xml-events" xmlns:xlink="http://www.w3.org/1999/xlink"><defs /><polygon fill="none" id="1" points="44,43 32,55 31,55 30,56 30,57 31,58 32,57 33,57 44,46 46,46 48,48 49,48 55,54 56,54 59,57 60,57 63,60 64,60 65,61 66,61 68,63 69,63 70,62 70,61 69,61 68,60 67,60 65,58 64,58 63,57 62,57 59,54 58,54 54,50 53,50 46,43" stroke="black" stroke-width="1" /></svg>