<?xml version="1.0" encoding="utf-8" ?>
<svg baseProfile="full" height="100" version="1.1" width="100" xmlns="http://www.w3.org/2000/svg" xmlns:ev="http://www.w3.org/2001/xml-events" xmlns:xlink="http://www.w3.org/1999/xlink"><defs /><polygon fill="none" id="1" points="49,43 48,44 47,44 39,52 38,52 35,55 34,55 33,56 33,57 34,58 35,58 39,54 40,54 48,46 51,46 54,49 55,49 59,53 60,53 62,55 63,55 66,58 67,58 68,59 69,59 71,61 72,61 73,62 74,62 75,63 76,63 78,61 76,61 75,60 74,60 73,59 72,59 71,58 70,58 68,56 67,56 65,54 64,54 62,52 61,52 57,48 56,48 51,43" stroke="black" stroke-width="1" /></svg>