<?xml version="1.0" encoding="utf-8" ?>
<svg baseProfile="full" height="100" version="1.1" width="100" xmlns="http://www.w3.org/2000/svg" xmlns:ev="http://www.w3.org/2001/xml-events" xmlns:xlink="http://www.w3.org/1999/xlink"><defs /><polygon fill="none" id="1" points="47,46 47,47 48,48 48,57 47,58 47,60 46,61 46,62 40,68 39,68 38,69 36,69 38,69 39,68 40,68 46,62 46,61 47,60 47,58 48,57 48,48 47,47" stroke="black" stroke-width="1" /><polygon fill="none" id="2" points="33,45 32,46 30,46 29,47 30,47 31,46 32,46 33,45 34,45" stroke="black" stroke-width="1" /><polygon fill="none" id="3" points="45,44" stroke="black" stroke-width="1" /><polygon fill="none" id="4" points="36,44 37,44" stroke="black" stroke-width="1" /><polygon fill="none" id="5" points="39,43 43,43" stroke="black" stroke-width="1" /><polygon fill="none" id="6" points="35,31 35,32 37,32 38,33 39,33 40,34 41,34 42,35 44,35 43,35 42,34 41,34 40,33 39,33 38,32 37,32 36,31" stroke="black" stroke-width="1" /></svg>