<?xml version="1.0" encoding="utf-8" ?>
<svg baseProfile="full" height="100" version="1.1" width="100" xmlns="http://www.w3.org/2000/svg" xmlns:ev="http://www.w3.org/2001/xml-events" xmlns:xlink="http://www.w3.org/1999/xlink"><defs /><polygon fill="none" id="1" points="53,43 51,45 50,45 44,51 43,51 40,54 39,54 38,55 37,55 36,56 36,57 37,58 38,58 40,56 41,56 45,52 46,52 51,47 52,47 53,46 56,46 59,49 60,49 63,52 64,52 66,54 67,54 69,56 70,56 72,58 73,58 74,59 75,59 76,60 77,60 78,61 79,61 80,62 81,62 82,63 83,63 85,61 83,61 82,60 81,60 80,59 79,59 78,58 77,58 76,57 75,57 74,56 73,56 71,54 70,54 69,53 68,53 65,50 64,50 62,48 61,48 57,44 56,44 55,43" stroke="black" stroke-width="1" /></svg>