<?xml version="1.0" encoding="utf-8" ?>
<svg baseProfile="full" height="100" version="1.1" width="100" xmlns="http://www.w3.org/2000/svg" xmlns:ev="http://www.w3.org/2001/xml-events" xmlns:xlink="http://www.w3.org/1999/xlink"><defs /><polygon fill="none" id="1" points="42,41 30,53 29,53 27,55 27,57 29,59 29,60 31,60 33,58 34,58 44,48 45,48 46,49 47,49 53,55 54,55 57,58 58,58 61,61 62,61 63,62 64,62 67,65 69,65 72,62 72,60 71,59 70,59 69,58 68,58 66,56 65,56 64,55 63,55 60,52 59,52 55,48 54,48 47,41" stroke="black" stroke-width="1" /></svg>