<?xml version="1.0" encoding="utf-8" ?>
<svg baseProfile="full" height="100" version="1.1" width="100" xmlns="http://www.w3.org/2000/svg" xmlns:ev="http://www.w3.org/2001/xml-events" xmlns:xlink="http://www.w3.org/1999/xlink"><defs /><polygon fill="none" id="1" points="47,41 46,42 45,42 37,50 36,50 33,53 32,53 30,55 30,57 32,59 32,60 34,60 35,59 36,59 40,55 41,55 49,47 52,50 53,50 57,54 58,54 60,56 61,56 64,59 65,59 66,60 67,60 69,62 70,62 71,63 72,63 74,65 76,65 79,62 79,59 77,59 76,58 75,58 74,57 73,57 72,56 71,56 69,54 68,54 66,52 65,52 63,50 62,50 58,46 57,46 52,41" stroke="black" stroke-width="1" /></svg>