<?xml version="1.0" encoding="utf-8" ?>
<svg baseProfile="full" height="100" version="1.1" width="100" xmlns="http://www.w3.org/2000/svg" xmlns:ev="http://www.w3.org/2001/xml-events" xmlns:xlink="http://www.w3.org/1999/xlink"><defs /><polygon fill="none" id="1" points="51,41 49,43 48,43 42,49 41,49 38,52 37,52 36,53 35,53 33,55 33,57 35,59 35,60 37,60 38,59 39,59 41,57 42,57 46,53 47,53 52,48 53,48 54,47 57,50 58,50 61,53 62,53 64,55 65,55 67,57 68,57 70,59 71,59 72,60 73,60 74,61 75,61 76,62 77,62 78,63 79,63 80,64 84,64 86,62 86,59 84,59 83,58 82,58 81,57 80,57 79,56 78,56 77,55 76,55 75,54 74,54 72,52 71,52 70,51 69,51 66,48 65,48 63,46 62,46 58,42 57,42 56,41" stroke="black" stroke-width="1" /></svg>