<?xml version="1.0" encoding="utf-8" ?>
<svg baseProfile="full" height="100" version="1.1" width="100" xmlns="http://www.w3.org/2000/svg" xmlns:ev="http://www.w3.org/2001/xml-events" xmlns:xlink="http://www.w3.org/1999/xlink"><defs /><polygon fill="none" id="1" points="49,43 48,44 47,44 39,52 38,52 35,55 34,55 33,56 34,57 38,53 39,53 47,45 51,45 54,48 55,48 59,52 60,52 62,54 63,54 66,57 67,57 68,58 69,58 71,60 72,60 73,61 74,61 75,62 76,61 75,61 74,60 73,60 72,59 71,59 70,58 69,58 67,56 66,56 64,54 63,54 61,52 60,52 56,48 55,48 50,43" stroke="black" stroke-width="1" /></svg>