<?xml version="1.0" encoding="utf-8" ?>
<svg baseProfile="full" height="100" version="1.1" width="100" xmlns="http://www.w3.org/2000/svg" xmlns:ev="http://www.w3.org/2001/xml-events" xmlns:xlink="http://www.w3.org/1999/xlink"><defs /><polygon fill="none" id="1" points="51,44 53,46 53,47 54,48 54,56 53,57 53,59 52,60 52,61 51,62 51,63 48,66 47,66 45,68 43,68 42,69 40,69 41,70 42,69 43,69 44,68 45,68 46,67 47,67 52,62 52,61 53,60 53,59 54,58 54,55 55,54 55,51 54,50 54,47" stroke="black" stroke-width="1" /><polygon fill="none" id="2" points="40,44 39,45 37,45 36,46 33,46 32,47 34,47 35,46 36,46 37,45 39,45 40,44 42,44" stroke="black" stroke-width="1" /><polygon fill="none" id="3" points="44,43 49,43" stroke="black" stroke-width="1" /><polygon fill="none" id="4" points="40,31 39,32 42,32 43,33 44,33 45,34 46,34 47,35 48,35 49,36 49,35 48,35 47,34 46,34 45,33 44,33 43,32 41,32" stroke="black" stroke-width="1" /></svg>