<?xml version="1.0" encoding="utf-8" ?>
<svg baseProfile="full" height="100" version="1.1" width="100" xmlns="http://www.w3.org/2000/svg" xmlns:ev="http://www.w3.org/2001/xml-events" xmlns:xlink="http://www.w3.org/1999/xlink"><defs /><polygon fill="none" id="1" points="53,43 51,45 50,45 44,51 43,51 40,54 39,54 38,55 37,55 36,56 37,57 39,55 40,55 44,51 45,51 50,46 51,46 52,45 56,45 59,48 60,48 63,51 64,51 66,53 67,53 69,55 70,55 72,57 73,57 74,58 75,58 76,59 77,59 78,60 79,60 80,61 81,61 82,62 83,61 82,61 81,60 80,60 79,59 78,59 77,58 76,58 75,57 74,57 73,56 72,56 70,54 69,54 68,53 67,53 64,50 63,50 61,48 60,48 56,44 55,44 54,43" stroke="black" stroke-width="1" /></svg>