<?xml version="1.0" encoding="utf-8" ?>
<svg baseProfile="full" height="100" version="1.1" width="100" xmlns="http://www.w3.org/2000/svg" xmlns:ev="http://www.w3.org/2001/xml-events" xmlns:xlink="http://www.w3.org/1999/xlink"><defs /><polygon fill="none" id="1" points="66,34 65,35 60,35 59,36 45,36 44,35 44,38 56,38 57,39 56,40 56,42 57,43 57,45 55,47 46,47 45,46 43,46 43,48 44,49 56,49 57,50 57,59 56,60 55,59 48,59 47,60 46,60 43,63 43,66 46,69 47,69 48,70 56,70 57,69 58,69 59,68 59,66 60,65 60,64 61,63 63,65 64,65 66,67 67,67 68,68 69,67 69,66 70,65 69,65 68,64 67,64 66,63 65,63 64,62 63,62 62,61 61,61 59,59 59,49 60,48 67,48 68,47 68,45 64,45 63,46 60,46 59,45 59,39 60,38 61,38 62,37 67,37 67,35" stroke="black" stroke-width="1" /><polygon fill="none" id="2" points="48,62 49,61 55,61 57,63 57,66 56,67 55,67 54,68 49,68 48,67 47,67 46,66 46,63 47,62" stroke="black" stroke-width="1" /><polygon fill="none" id="3" points="34,33 34,34 33,35 33,40 32,41 32,47 31,48 31,64 32,65 32,71 36,71 36,65 37,64 37,62 38,61 38,60 39,59 39,58 40,57 39,57 38,56 37,57 37,58 36,59 36,61 34,63 33,62 33,59 34,58 34,47 35,46 35,41 36,40 36,36 37,35 37,33" stroke="black" stroke-width="1" /></svg>