<?xml version="1.0" encoding="utf-8" ?>
<svg baseProfile="full" height="100" version="1.1" width="100" xmlns="http://www.w3.org/2000/svg" xmlns:ev="http://www.w3.org/2001/xml-events" xmlns:xlink="http://www.w3.org/1999/xlink"><defs /><polygon fill="none" id="1" points="79,34 78,35 72,35 71,36 54,36 53,35 53,38 67,38 68,39 68,45 66,47 56,47 55,46 51,46 52,47 52,49 67,49 68,50 68,57 69,58 67,60 66,59 58,59 57,60 55,60 52,63 52,66 53,67 53,68 54,68 55,69 57,69 58,70 68,70 69,69 70,69 71,68 71,67 72,66 72,64 73,63 74,64 75,64 76,65 77,65 78,66 79,66 81,68 82,68 83,67 83,66 84,65 83,65 82,64 81,64 80,63 78,63 77,62 75,62 74,61 73,61 71,59 71,49 72,48 81,48 82,47 82,45 77,45 76,46 72,46 71,45 71,39 72,38 74,38 75,37 80,37 80,34" stroke="black" stroke-width="1" /><polygon fill="none" id="2" points="57,62 58,61 66,61 67,62 68,62 69,63 69,65 66,68 59,68 58,67 57,67 55,65 55,63 56,62" stroke="black" stroke-width="1" /><polygon fill="none" id="3" points="41,33 40,34 40,38 39,39 39,42 38,43 38,48 37,49 37,63 38,64 38,69 39,70 39,71 43,71 43,66 44,65 44,64 45,63 45,62 46,61 46,60 47,59 47,58 48,57 47,57 46,56 45,56 44,57 44,59 43,60 43,61 41,63 40,62 40,57 41,56 41,47 42,46 42,41 43,40 43,37 44,36 44,35 45,34 44,33" stroke="black" stroke-width="1" /></svg>