<?xml version="1.0" encoding="utf-8" ?>
<svg baseProfile="full" height="100" version="1.1" width="100" xmlns="http://www.w3.org/2000/svg" xmlns:ev="http://www.w3.org/2001/xml-events" xmlns:xlink="http://www.w3.org/1999/xlink"><defs /><polygon fill="none" id="1" points="52,34 51,35 48,35 47,36 36,36 35,35 35,38 44,38 45,39 45,46 44,47 37,47 36,46 34,46 34,48 35,49 45,49 46,50 46,51 45,52 45,55 46,56 46,58 45,59 38,59 35,62 35,63 34,64 34,65 35,66 35,67 38,70 45,70 47,68 47,65 48,64 50,64 54,68 55,67 55,66 56,65 55,65 53,63 52,63 51,62 50,62 49,61 48,61 47,60 47,49 48,48 54,48 54,45 51,45 50,46 48,46 47,45 47,39 48,38 49,38 50,37 53,37 53,34" stroke="black" stroke-width="1" /><polygon fill="none" id="2" points="39,61 43,61 44,62 45,62 46,63 46,65 43,68 39,68 36,65 36,64" stroke="black" stroke-width="1" /><polygon fill="none" id="3" points="27,33 27,36 26,37 26,44 25,45 25,66 26,67 26,71 28,71 29,70 28,69 28,68 29,67 29,63 30,62 30,60 31,59 31,56 30,56 30,58 29,59 29,61 28,62 27,61 27,47 28,46 28,40 29,39 29,35 30,34 29,33" stroke="black" stroke-width="1" /></svg>