<?xml version="1.0" encoding="utf-8" ?>
<svg baseProfile="full" height="100" version="1.1" width="100" xmlns="http://www.w3.org/2000/svg" xmlns:ev="http://www.w3.org/2001/xml-events" xmlns:xlink="http://www.w3.org/1999/xlink"><defs /><polygon fill="none" id="1" points="59,34 58,35 54,35 53,36 41,36 40,35 39,36 39,38 50,38 51,39 51,45 49,47 42,47 41,46 39,46 39,49 50,49 51,50 51,59 50,60 49,59 43,59 42,60 41,60 39,62 39,67 41,69 42,69 43,70 50,70 51,69 52,69 53,68 53,65 54,64 56,64 57,65 58,65 61,68 62,67 62,66 63,65 62,65 60,63 59,63 58,62 57,62 56,61 54,61 53,60 53,49 54,48 60,48 61,47 61,45 58,45 57,46 54,46 53,45 53,39 54,38 55,38 56,37 60,37 60,34" stroke="black" stroke-width="1" /><polygon fill="none" id="2" points="43,62 44,61 49,61 50,62 51,62 52,63 51,64 51,66 49,68 44,68 41,65 41,63 42,62" stroke="black" stroke-width="1" /><polygon fill="none" id="3" points="30,33 30,39 29,40 29,46 28,47 28,65 29,66 29,71 32,71 32,66 33,65 33,63 34,62 34,60 35,59 35,58 36,57 35,57 34,56 33,57 33,60 31,62 30,61 30,52 31,51 31,43 32,42 32,37 33,36 33,33" stroke="black" stroke-width="1" /></svg>