<?xml version="1.0" encoding="utf-8" ?>
<svg baseProfile="full" height="100" version="1.1" width="100" xmlns="http://www.w3.org/2000/svg" xmlns:ev="http://www.w3.org/2001/xml-events" xmlns:xlink="http://www.w3.org/1999/xlink"><defs /><polygon fill="none" id="1" points="72,34 71,35 66,35 65,36 50,36 49,35 48,36 48,38 61,38 62,39 62,44 63,45 61,47 51,47 50,46 47,46 47,48 48,49 62,49 63,50 63,59 62,60 61,60 60,59 53,59 52,60 51,60 50,61 49,61 48,62 48,63 47,64 47,65 48,66 48,67 50,69 52,69 53,70 62,70 63,69 64,69 65,68 65,66 66,65 66,64 67,63 68,64 69,64 70,65 71,65 73,67 74,67 75,68 76,67 76,66 77,65 76,65 75,64 74,64 73,63 72,63 71,62 69,62 68,61 67,61 65,59 65,49 66,48 74,48 75,47 75,45 71,45 70,46 66,46 65,45 65,39 66,38 68,38 69,37 74,37 74,36 73,35 73,34" stroke="black" stroke-width="1" /><polygon fill="none" id="2" points="53,62 54,61 60,61 61,62 62,62 63,63 63,65 60,68 54,68 53,67 52,67 51,66 51,65 50,64 52,62" stroke="black" stroke-width="1" /><polygon fill="none" id="3" points="37,33 37,36 36,37 36,41 35,42 35,47 34,48 34,64 35,65 35,70 36,71 39,71 40,70 39,69 39,68 40,67 40,65 41,64 41,62 42,61 42,60 43,59 43,58 44,57 43,57 42,56 41,56 41,58 40,59 40,61 38,63 37,62 37,51 38,50 38,45 39,44 39,40 40,39 40,36 41,35 41,34 40,33" stroke="black" stroke-width="1" /></svg>