<?xml version="1.0" encoding="utf-8" ?>
<svg baseProfile="full" height="100" version="1.1" width="100" xmlns="http://www.w3.org/2000/svg" xmlns:ev="http://www.w3.org/2001/xml-events" xmlns:xlink="http://www.w3.org/1999/xlink"><defs /><polygon fill="none" id="1" points="44,44 43,45 41,45 40,46 37,46 36,47 36,48 37,47 38,47 39,46 40,46 41,45 43,45 44,44 47,44" stroke="black" stroke-width="1" /><polygon fill="none" id="2" points="49,43 55,43 56,44 57,44 59,46 59,48 60,49 60,56 59,57 59,59 58,60 58,61 53,66 52,66 51,67 50,67 49,68 48,68 47,69 45,69 46,70 47,69 48,69 49,68 50,68 51,67 52,67 53,66 54,66 58,62 58,61 59,60 59,59 60,58 60,56 61,55 61,50 60,49 60,47 57,44 56,44 55,43" stroke="black" stroke-width="1" /><polygon fill="none" id="3" points="44,31 43,32 46,32 47,33 49,33 50,34 52,34 54,36 55,35 54,35 53,34 51,34 50,33 49,33 48,32 46,32 45,31" stroke="black" stroke-width="1" /></svg>