<?xml version="1.0" encoding="utf-8" ?>
<svg baseProfile="full" height="100" version="1.1" width="100" xmlns="http://www.w3.org/2000/svg" xmlns:ev="http://www.w3.org/2001/xml-events" xmlns:xlink="http://www.w3.org/1999/xlink"><defs /><polygon fill="none" id="1" points="52,34 51,35 48,35 47,36 37,36 36,35 35,35 35,39 44,39 45,40 45,46 44,47 38,47 37,46 34,46 34,49 35,50 45,50 46,51 45,52 45,56 46,57 46,58 45,59 38,59 35,62 35,63 34,64 34,66 35,67 35,68 38,71 46,71 48,69 48,66 49,65 50,65 54,69 55,69 56,68 56,67 57,66 57,65 56,65 54,63 53,63 52,62 51,62 50,61 49,61 48,60 48,50 49,49 55,49 55,45 51,45 50,46 49,46 48,45 48,40 49,39 50,39 51,38 54,38 54,34" stroke="black" stroke-width="1" /><polygon fill="none" id="2" points="40,62 43,62 44,63 45,63 46,64 46,65 43,68 40,68 37,65" stroke="black" stroke-width="1" /><polygon fill="none" id="3" points="27,33 27,36 26,37 26,44 25,45 25,67 26,68 26,72 29,72 30,71 30,70 29,69 30,68 30,64 31,63 31,61 32,60 32,56 30,56 30,58 29,59 28,58 28,48 29,47 29,41 30,40 30,36 31,35 31,34 30,33" stroke="black" stroke-width="1" /></svg>