<?xml version="1.0" encoding="utf-8" ?>
<svg baseProfile="full" height="100" version="1.1" width="100" xmlns="http://www.w3.org/2000/svg" xmlns:ev="http://www.w3.org/2001/xml-events" xmlns:xlink="http://www.w3.org/1999/xlink"><defs /><polygon fill="none" id="1" points="59,34 58,35 54,35 53,36 42,36 41,35 40,35 39,36 39,39 50,39 51,40 51,45 49,47 43,47 42,46 39,46 39,50 50,50 51,51 51,58 50,59 43,59 42,60 41,60 39,62 39,68 41,70 42,70 43,71 51,71 52,70 53,70 54,69 54,66 55,65 56,65 57,66 58,66 61,69 62,69 63,68 63,67 64,66 64,65 63,65 61,63 60,63 59,62 58,62 57,61 55,61 54,60 54,50 55,49 61,49 62,48 62,45 58,45 57,46 55,46 54,45 54,40 55,39 56,39 57,38 61,38 61,34" stroke="black" stroke-width="1" /><polygon fill="none" id="2" points="44,63 45,62 49,62 51,64 51,66 49,68 45,68 42,65 42,64 43,63" stroke="black" stroke-width="1" /><polygon fill="none" id="3" points="30,33 30,39 29,40 29,46 28,47 28,66 29,67 29,72 33,72 33,67 34,66 34,64 35,63 35,61 36,60 36,59 37,58 37,57 36,57 35,56 34,56 33,57 33,60 32,61 31,60 31,53 32,52 32,44 33,43 33,38 34,37 34,33" stroke="black" stroke-width="1" /></svg>