<?xml version="1.0" encoding="utf-8" ?>
<svg baseProfile="full" height="100" version="1.1" width="100" xmlns="http://www.w3.org/2000/svg" xmlns:ev="http://www.w3.org/2001/xml-events" xmlns:xlink="http://www.w3.org/1999/xlink"><defs /><polygon fill="none" id="1" points="66,34 65,35 60,35 59,36 46,36 45,35 44,35 44,39 55,39 56,40 56,43 57,44 57,45 55,47 47,47 46,46 43,46 43,49 44,50 56,50 57,51 57,58 56,59 48,59 47,60 46,60 43,63 43,67 46,70 47,70 48,71 57,71 58,70 59,70 60,69 60,67 62,65 63,66 64,66 66,68 67,68 68,69 69,69 70,68 70,67 71,66 71,65 70,65 69,64 68,64 67,63 66,63 65,62 64,62 63,61 62,61 60,59 60,50 61,49 68,49 69,48 69,45 64,45 63,46 61,46 60,45 60,40 61,39 62,39 63,38 68,38 68,35 67,34" stroke="black" stroke-width="1" /><polygon fill="none" id="2" points="49,63 50,62 55,62 57,64 57,66 56,67 55,67 54,68 50,68 49,67 48,67 47,66 47,64 48,63" stroke="black" stroke-width="1" /><polygon fill="none" id="3" points="34,33 34,34 33,35 33,40 32,41 32,47 31,48 31,65 32,66 32,72 37,72 37,66 38,65 38,63 39,62 39,61 40,60 40,59 41,58 41,57 40,57 39,56 38,56 37,57 37,58 36,59 35,58 35,48 36,47 36,42 37,41 37,37 38,36 38,33" stroke="black" stroke-width="1" /><polygon fill="none" id="4" points="34,60 35,59 36,60 36,61 35,62 34,61" stroke="black" stroke-width="1" /></svg>