<?xml version="1.0" encoding="utf-8" ?>
<svg baseProfile="full" height="100" version="1.1" width="100" xmlns="http://www.w3.org/2000/svg" xmlns:ev="http://www.w3.org/2001/xml-events" xmlns:xlink="http://www.w3.org/1999/xlink"><defs /><polygon fill="none" id="1" points="72,34 71,35 66,35 65,36 51,36 50,35 49,35 48,36 48,39 61,39 62,40 62,46 61,47 52,47 51,46 47,46 47,49 48,50 62,50 63,51 63,59 62,60 61,59 53,59 52,60 51,60 50,61 49,61 48,62 48,63 47,64 47,66 48,67 48,68 50,70 52,70 53,71 63,71 64,70 65,70 66,69 66,67 68,65 69,65 70,66 71,66 73,68 74,68 75,69 76,69 77,68 77,67 78,66 78,65 77,65 76,64 75,64 74,63 73,63 72,62 70,62 69,61 68,61 66,59 66,50 67,49 75,49 76,48 76,45 71,45 70,46 67,46 66,45 66,40 67,39 69,39 70,38 75,38 75,36 74,35 74,34" stroke="black" stroke-width="1" /><polygon fill="none" id="2" points="54,63 55,62 60,62 61,63 62,63 63,64 63,65 60,68 55,68 54,67 53,67 52,66 52,64 53,63" stroke="black" stroke-width="1" /><polygon fill="none" id="3" points="37,33 37,36 36,37 36,41 35,42 35,47 34,48 34,65 35,66 35,71 36,72 40,72 41,71 41,70 40,69 41,68 41,66 42,65 42,63 43,62 43,61 44,60 44,59 45,58 45,57 44,57 43,56 41,56 41,58 40,59 40,61 39,62 38,61 38,52 39,51 39,46 40,45 40,41 41,40 41,37 42,36 42,34 41,33" stroke="black" stroke-width="1" /></svg>