<?xml version="1.0" encoding="utf-8" ?>
<svg baseProfile="full" height="100" version="1.1" width="100" xmlns="http://www.w3.org/2000/svg" xmlns:ev="http://www.w3.org/2001/xml-events" xmlns:xlink="http://www.w3.org/1999/xlink"><defs /><polygon fill="none" id="1" points="79,34 78,35 72,35 71,36 55,36 54,35 53,35 53,39 67,39 68,40 68,45 66,47 57,47 56,46 51,46 51,47 52,48 52,50 67,50 68,51 68,58 67,59 58,59 57,60 55,60 52,63 52,67 53,68 53,69 54,69 55,70 57,70 58,71 69,71 70,70 71,70 72,69 72,68 73,67 73,66 74,65 75,65 76,66 77,66 78,67 79,67 81,69 83,69 84,68 84,67 85,66 85,65 84,65 83,64 82,64 81,63 79,63 78,62 76,62 75,61 74,61 72,59 72,50 73,49 82,49 83,48 83,45 77,45 76,46 73,46 72,45 72,40 73,39 75,39 76,38 81,38 81,34" stroke="black" stroke-width="1" /><polygon fill="none" id="2" points="58,63 59,62 66,62 67,63 68,63 69,64 69,65 66,68 60,68 59,67 58,67 56,65 56,64 57,63" stroke="black" stroke-width="1" /><polygon fill="none" id="3" points="41,33 40,34 40,38 39,39 39,42 38,43 38,48 37,49 37,64 38,65 38,70 39,71 39,72 44,72 44,67 45,66 45,65 46,64 46,63 47,62 47,61 48,60 48,59 49,58 49,57 48,57 47,56 45,56 44,57 44,59 43,60 43,61 42,62 41,61 41,58 42,57 42,48 43,47 43,42 44,41 44,38 45,37 45,36 46,35 46,34 45,33" stroke="black" stroke-width="1" /></svg>