<?xml version="1.0" encoding="utf-8" ?>
<svg baseProfile="full" height="100" version="1.1" width="100" xmlns="http://www.w3.org/2000/svg" xmlns:ev="http://www.w3.org/2001/xml-events" xmlns:xlink="http://www.w3.org/1999/xlink"><defs /><polygon fill="none" id="1" points="53,35 52,36 49,36 48,37 36,37 36,38 45,38 46,39 46,47 45,48 37,48 36,47 35,47 35,48 36,49 46,49 47,50 47,52 46,53 46,55 47,56 47,59 46,60 39,60 36,63 36,64 35,65 36,66 36,67 39,70 45,70 47,68 47,65 48,64 51,64 54,67 55,67 55,66 53,64 52,64 51,63 50,63 49,62 48,62 47,61 47,49 48,48 54,48 54,46 52,46 51,47 48,47 47,46 47,39 48,38 49,38 50,37 53,37" stroke="black" stroke-width="1" /><polygon fill="none" id="2" points="39,61 44,61 45,62 46,62 47,63 47,66 44,69 39,69 36,66 36,64" stroke="black" stroke-width="1" /><polygon fill="none" id="3" points="28,34 28,37 27,38 27,45 26,46 26,66 27,67 27,71 28,71 28,68 29,67 29,63 30,62 30,60 31,59 31,57 31,59 30,60 30,62 29,63 28,63 27,62 27,47 28,46 28,40 29,39 29,34" stroke="black" stroke-width="1" /></svg>