<?xml version="1.0" encoding="utf-8" ?>
<svg baseProfile="full" height="100" version="1.1" width="100" xmlns="http://www.w3.org/2000/svg" xmlns:ev="http://www.w3.org/2001/xml-events" xmlns:xlink="http://www.w3.org/1999/xlink"><defs /><polygon fill="none" id="1" points="60,35 59,36 55,36 54,37 40,37 40,38 51,38 52,39 52,46 50,48 42,48 41,47 40,47 40,49 51,49 52,50 52,60 51,61 50,61 49,60 44,60 43,61 42,61 40,63 40,67 42,69 43,69 44,70 50,70 51,69 52,69 53,68 53,65 54,64 57,64 58,65 59,65 61,67 62,67 62,66 60,64 59,64 58,63 57,63 56,62 54,62 53,61 53,49 54,48 60,48 61,47 61,46 59,46 58,47 54,47 53,46 53,39 54,38 55,38 56,37 60,37" stroke="black" stroke-width="1" /><polygon fill="none" id="2" points="43,62 44,61 50,61 51,62 52,62 53,63 53,64 52,65 52,67 50,69 44,69 41,66 41,63 42,62" stroke="black" stroke-width="1" /><polygon fill="none" id="3" points="31,34 31,40 30,41 30,47 29,48 29,65 30,66 30,71 32,71 32,66 33,65 33,63 34,62 34,60 35,59 35,58 34,58 34,61 32,63 31,63 30,62 30,52 31,51 31,43 32,42 32,37 33,36 33,34" stroke="black" stroke-width="1" /></svg>