<?xml version="1.0" encoding="utf-8" ?>
<svg baseProfile="full" height="100" version="1.1" width="100" xmlns="http://www.w3.org/2000/svg" xmlns:ev="http://www.w3.org/2001/xml-events" xmlns:xlink="http://www.w3.org/1999/xlink"><defs /><polygon fill="none" id="1" points="61,36 60,37 45,37 45,38 57,38 58,39 58,40 57,41 57,42 58,43 58,46 56,48 46,48 45,47 44,47 44,48 45,49 57,49 58,50 58,60 57,61 56,61 55,60 49,60 48,61 47,61 44,64 44,66 47,69 48,69 49,70 56,70 57,69 58,69 59,68 59,66 60,65 60,64 61,63 62,63 64,65 65,65 67,67 69,67 69,66 68,65 67,65 66,64 65,64 64,63 63,63 62,62 61,62 59,60 59,49 60,48 67,48 68,47 68,46 65,46 64,47 60,47 59,46 59,39 60,38 61,38 62,37 67,37 67,36" stroke="black" stroke-width="1" /><polygon fill="none" id="2" points="48,62 49,61 56,61 58,63 58,67 57,68 56,68 55,69 49,69 48,68 47,68 46,67 46,63 47,62" stroke="black" stroke-width="1" /><polygon fill="none" id="3" points="35,34 35,35 34,36 34,41 33,42 33,48 32,49 32,64 33,65 33,71 36,71 36,65 37,64 37,62 38,61 38,60 39,59 39,58 38,58 38,59 37,60 37,62 35,64 34,64 33,63 33,59 34,58 34,47 35,46 35,41 36,40 36,36 37,35 37,34" stroke="black" stroke-width="1" /></svg>