<?xml version="1.0" encoding="utf-8" ?>
<svg baseProfile="full" height="100" version="1.1" width="100" xmlns="http://www.w3.org/2000/svg" xmlns:ev="http://www.w3.org/2001/xml-events" xmlns:xlink="http://www.w3.org/1999/xlink"><defs /><polygon fill="none" id="1" points="73,35 72,36 67,36 66,37 49,37 49,38 62,38 63,39 63,44 64,45 64,46 62,48 51,48 50,47 48,47 48,48 49,49 63,49 64,50 64,60 63,61 61,61 60,60 54,60 53,61 52,61 51,62 50,62 49,63 49,64 48,65 49,66 49,67 51,69 53,69 54,70 62,70 63,69 64,69 65,68 65,66 66,65 66,64 67,63 68,63 69,64 70,64 71,65 72,65 74,67 76,67 76,66 75,65 74,65 73,64 72,64 71,63 69,63 68,62 67,62 65,60 65,49 66,48 74,48 75,47 75,46 72,46 71,47 66,47 65,46 65,39 66,38 68,38 69,37 74,37 73,36" stroke="black" stroke-width="1" /><polygon fill="none" id="2" points="53,62 54,61 61,61 62,62 63,62 64,63 64,66 61,69 54,69 53,68 52,68 51,67 51,66 50,65 50,64 52,62" stroke="black" stroke-width="1" /><polygon fill="none" id="3" points="38,34 38,37 37,38 37,42 36,43 36,48 35,49 35,64 36,65 36,70 37,71 39,71 39,68 40,67 40,65 41,64 41,62 42,61 42,60 43,59 43,58 42,57 42,59 41,60 41,62 39,64 38,64 37,63 37,51 38,50 38,45 39,44 39,40 40,39 40,36 41,35 40,34" stroke="black" stroke-width="1" /></svg>