<?xml version="1.0" encoding="utf-8" ?>
<svg baseProfile="full" height="100" version="1.1" width="100" xmlns="http://www.w3.org/2000/svg" xmlns:ev="http://www.w3.org/2001/xml-events" xmlns:xlink="http://www.w3.org/1999/xlink"><defs /><polygon fill="none" id="1" points="62,44 63,44 65,46 65,48 66,49 66,55 65,56 65,59 63,61 63,62 61,64 60,64 58,66 57,66 56,67 55,67 54,68 53,68 52,69 49,69 50,70 51,69 53,69 54,68 55,68 56,67 57,67 58,66 59,66 60,65 61,65 64,62 64,61 65,60 65,59 66,58 66,56 67,55 67,49 66,48 66,47 63,44" stroke="black" stroke-width="1" /><polygon fill="none" id="2" points="49,44 48,45 45,45 44,46 41,46 40,47 39,47 42,47 43,46 45,46 46,45 48,45 49,44 52,44" stroke="black" stroke-width="1" /><polygon fill="none" id="3" points="54,43 60,43" stroke="black" stroke-width="1" /><polygon fill="none" id="4" points="48,31 48,32 51,32 52,33 54,33 55,34 57,34 58,35 59,35 60,36 61,35 59,35 58,34 57,34 56,33 54,33 53,32 51,32 50,31" stroke="black" stroke-width="1" /></svg>