<?xml version="1.0" encoding="utf-8" ?>
<svg baseProfile="full" height="100" version="1.1" width="100" xmlns="http://www.w3.org/2000/svg" xmlns:ev="http://www.w3.org/2001/xml-events" xmlns:xlink="http://www.w3.org/1999/xlink"><defs /><polygon fill="none" id="1" points="80,35 79,36 73,36 72,37 54,37 54,38 68,38 69,39 69,46 67,48 56,48 55,47 53,47 53,49 68,49 69,50 69,57 70,58 70,59 68,61 67,61 66,60 59,60 58,61 56,61 53,64 53,66 54,67 54,68 55,68 56,69 58,69 59,70 68,70 69,69 70,69 71,68 71,67 72,66 72,64 73,63 74,63 75,64 76,64 77,65 78,65 79,66 80,66 82,68 83,67 83,66 82,65 81,65 80,64 78,64 77,63 75,63 74,62 73,62 71,60 71,49 72,48 81,48 82,47 82,46 78,46 77,47 72,47 71,46 71,39 72,38 74,38 75,37 80,37" stroke="black" stroke-width="1" /><polygon fill="none" id="2" points="57,62 58,61 67,61 68,62 69,62 70,63 70,66 67,69 59,69 58,68 57,68 55,66 55,63 56,62" stroke="black" stroke-width="1" /><polygon fill="none" id="3" points="42,34 41,35 41,39 40,40 40,43 39,44 39,49 38,50 38,63 39,64 39,69 40,70 40,71 43,71 43,66 44,65 44,64 45,63 45,62 46,61 46,60 47,59 47,58 46,57 45,58 45,60 44,61 44,62 42,64 41,64 40,63 40,57 41,56 41,47 42,46 42,41 43,40 43,37 44,36 44,34" stroke="black" stroke-width="1" /></svg>