<?xml version="1.0" encoding="utf-8" ?>
<svg baseProfile="full" height="100" version="1.1" width="100" xmlns="http://www.w3.org/2000/svg" xmlns:ev="http://www.w3.org/2001/xml-events" xmlns:xlink="http://www.w3.org/1999/xlink"><defs /><polygon fill="none" id="1" points="51,33 50,34 47,34 46,35 37,35 36,34 34,34 34,39 43,39 44,40 44,45 43,46 38,46 37,45 33,45 33,49 34,50 43,50 44,51 44,56 45,57 44,58 37,58 34,61 34,62 33,63 33,66 34,67 34,68 37,71 46,71 48,69 48,66 49,65 53,69 55,69 56,68 56,67 57,66 57,64 56,64 54,62 53,62 52,61 51,61 50,60 49,60 48,59 48,50 49,49 55,49 55,44 50,44 49,45 48,44 48,40 49,39 50,39 51,38 54,38 54,33" stroke="black" stroke-width="1" /><polygon fill="none" id="2" points="40,62 42,62 43,63 44,63 45,64 42,67 40,67 38,65 38,64" stroke="black" stroke-width="1" /><polygon fill="none" id="3" points="26,32 26,35 25,36 25,43 24,44 24,67 25,68 25,72 29,72 30,71 30,64 31,63 31,61 32,60 32,55 29,55 28,54 28,48 29,47 29,41 30,40 30,36 31,35 31,33 30,32" stroke="black" stroke-width="1" /></svg>