<?xml version="1.0" encoding="utf-8" ?>
<svg baseProfile="full" height="100" version="1.1" width="100" xmlns="http://www.w3.org/2000/svg" xmlns:ev="http://www.w3.org/2001/xml-events" xmlns:xlink="http://www.w3.org/1999/xlink"><defs /><polygon fill="none" id="1" points="58,33 57,34 53,34 52,35 42,35 41,34 39,34 38,35 38,39 49,39 50,40 50,44 48,46 43,46 42,45 38,45 38,50 49,50 50,51 50,57 49,58 42,58 41,59 40,59 38,61 38,68 40,70 41,70 42,71 51,71 52,70 53,70 54,69 54,66 55,65 56,66 57,66 60,69 62,69 63,68 63,67 64,66 64,64 63,64 61,62 60,62 59,61 58,61 57,60 55,60 54,59 54,50 55,49 61,49 62,48 62,44 57,44 56,45 55,45 54,44 54,40 55,39 56,39 57,38 61,38 61,33" stroke="black" stroke-width="1" /><polygon fill="none" id="2" points="44,63 45,62 48,62 50,64 50,65 48,67 45,67 42,64 43,63" stroke="black" stroke-width="1" /><polygon fill="none" id="3" points="29,32 29,38 28,39 28,45 27,46 27,66 28,67 28,72 33,72 33,67 34,66 34,64 35,63 35,61 36,60 36,59 37,58 37,56 36,56 35,55 33,55 32,56 31,55 31,53 32,52 32,44 33,43 33,38 34,37 34,32" stroke="black" stroke-width="1" /></svg>