<?xml version="1.0" encoding="utf-8" ?>
<svg baseProfile="full" height="100" version="1.1" width="100" xmlns="http://www.w3.org/2000/svg" xmlns:ev="http://www.w3.org/2001/xml-events" xmlns:xlink="http://www.w3.org/1999/xlink"><defs /><polygon fill="none" id="1" points="65,33 64,34 59,34 58,35 46,35 45,34 43,34 43,39 54,39 55,40 55,43 56,44 54,46 47,46 46,45 42,45 42,49 43,50 55,50 56,51 56,57 55,58 47,58 46,59 45,59 42,62 42,67 45,70 46,70 47,71 57,71 58,70 59,70 60,69 60,67 61,66 63,66 65,68 66,68 67,69 69,69 70,68 70,67 71,66 71,64 70,64 69,63 68,63 67,62 66,62 65,61 64,61 63,60 62,60 60,58 60,50 61,49 68,49 69,48 69,44 63,44 62,45 61,45 60,44 60,40 61,39 62,39 63,38 68,38 68,34 67,33" stroke="black" stroke-width="1" /><polygon fill="none" id="2" points="49,63 50,62 54,62 56,64 56,65 55,66 54,66 53,67 50,67 49,66 48,66 47,65 47,64 48,63" stroke="black" stroke-width="1" /><polygon fill="none" id="3" points="33,32 33,33 32,34 32,39 31,40 31,46 30,47 30,65 31,66 31,72 37,72 37,66 38,65 38,63 39,62 39,61 40,60 40,59 41,58 41,56 40,56 39,55 37,55 36,56 35,55 35,48 36,47 36,42 37,41 37,37 38,36 38,32" stroke="black" stroke-width="1" /></svg>