<?xml version="1.0" encoding="utf-8" ?>
<svg baseProfile="full" height="100" version="1.1" width="100" xmlns="http://www.w3.org/2000/svg" xmlns:ev="http://www.w3.org/2001/xml-events" xmlns:xlink="http://www.w3.org/1999/xlink"><defs /><polygon fill="none" id="1" points="71,33 70,34 65,34 64,35 51,35 50,34 48,34 47,35 47,39 60,39 61,40 61,45 60,46 52,46 51,45 46,45 46,49 47,50 61,50 62,51 62,57 61,58 52,58 51,59 50,59 49,60 48,60 47,61 47,62 46,63 46,66 47,67 47,68 49,70 51,70 52,71 63,71 64,70 65,70 66,69 66,67 68,65 69,66 70,66 72,68 73,68 74,69 76,69 77,68 77,67 78,66 78,64 77,64 76,63 75,63 74,62 73,62 72,61 70,61 69,60 68,60 66,58 66,50 67,49 75,49 76,48 76,44 70,44 69,45 67,45 66,44 66,40 67,39 69,39 70,38 75,38 75,35 74,34 74,33" stroke="black" stroke-width="1" /><polygon fill="none" id="2" points="54,63 55,62 59,62 60,63 61,63 62,64 59,67 55,67 54,66 53,66 52,65 52,64 53,63" stroke="black" stroke-width="1" /><polygon fill="none" id="3" points="36,32 36,35 35,36 35,40 34,41 34,46 33,47 33,65 34,66 34,71 35,72 40,72 41,71 41,66 42,65 42,63 43,62 43,61 44,60 44,59 45,58 45,56 44,56 43,55 40,55 40,57 39,58 38,57 38,52 39,51 39,46 40,45 40,41 41,40 41,37 42,36 42,33 41,32" stroke="black" stroke-width="1" /></svg>