<?xml version="1.0" encoding="utf-8" ?>
<svg baseProfile="full" height="100" version="1.1" width="100" xmlns="http://www.w3.org/2000/svg" xmlns:ev="http://www.w3.org/2001/xml-events" xmlns:xlink="http://www.w3.org/1999/xlink"><defs /><polygon fill="none" id="1" points="78,33 77,34 71,34 70,35 55,35 54,34 52,34 52,39 66,39 67,40 67,44 65,46 57,46 56,45 50,45 50,47 51,48 51,50 66,50 67,51 67,57 66,58 57,58 56,59 54,59 51,62 51,67 52,68 52,69 53,69 54,70 56,70 57,71 69,71 70,70 71,70 72,69 72,68 73,67 73,66 74,65 75,66 76,66 77,67 78,67 80,69 83,69 84,68 84,67 85,66 85,64 84,64 83,63 82,63 81,62 79,62 78,61 76,61 75,60 74,60 72,58 72,50 73,49 82,49 83,48 83,44 76,44 75,45 73,45 72,44 72,40 73,39 75,39 76,38 81,38 81,33" stroke="black" stroke-width="1" /><polygon fill="none" id="2" points="58,63 59,62 65,62 66,63 67,63 68,64 65,67 60,67 59,66 58,66 56,64 57,63" stroke="black" stroke-width="1" /><polygon fill="none" id="3" points="40,32 39,33 39,37 38,38 38,41 37,42 37,47 36,48 36,64 37,65 37,70 38,71 38,72 44,72 44,67 45,66 45,65 46,64 46,63 47,62 47,61 48,60 48,59 49,58 49,56 48,56 47,55 44,55 43,56 42,55 42,48 43,47 43,42 44,41 44,38 45,37 45,36 46,35 46,33 45,32" stroke="black" stroke-width="1" /><polygon fill="none" id="4" points="41,58 42,57 43,58 42,59" stroke="black" stroke-width="1" /></svg>