<?xml version="1.0" encoding="utf-8" ?>
<svg baseProfile="full" height="100" version="1.1" width="100" xmlns="http://www.w3.org/2000/svg" xmlns:ev="http://www.w3.org/2001/xml-events" xmlns:xlink="http://www.w3.org/1999/xlink"><defs /><polygon fill="none" id="1" points="46,67 44,69 39,69 44,69" stroke="black" stroke-width="1" /><polygon fill="none" id="2" points="52,64 54,66" stroke="black" stroke-width="1" /><polygon fill="none" id="3" points="39,60 44,60 45,61 46,61 47,62 47,63 50,63 49,63 48,62 47,62 46,61 46,60" stroke="black" stroke-width="1" /><polygon fill="none" id="4" points="46,53 46,54" stroke="black" stroke-width="1" /><polygon fill="none" id="5" points="49,36 48,37 36,37 45,37 46,38 46,47 45,48 36,48 35,47 36,48 46,48 47,47 53,47 53,46 52,46 51,47 47,47 46,46 46,38 47,37 48,37 49,36 52,36" stroke="black" stroke-width="1" /><polygon fill="none" id="6" points="28,34 28,37 27,38 27,45 26,46 26,65 27,66 27,70 27,67 28,66 28,63 27,63 26,62 26,46 27,45 27,39 28,38" stroke="black" stroke-width="1" /></svg>