<?xml version="1.0" encoding="utf-8" ?>
<svg baseProfile="full" height="100" version="1.1" width="100" xmlns="http://www.w3.org/2000/svg" xmlns:ev="http://www.w3.org/2001/xml-events" xmlns:xlink="http://www.w3.org/1999/xlink"><defs /><polygon fill="none" id="1" points="44,69 49,69" stroke="black" stroke-width="1" /><polygon fill="none" id="2" points="52,65 52,67 51,68 52,67" stroke="black" stroke-width="1" /><polygon fill="none" id="3" points="40,63 40,66 42,68 40,66" stroke="black" stroke-width="1" /><polygon fill="none" id="4" points="42,61" stroke="black" stroke-width="1" /><polygon fill="none" id="5" points="44,60 48,60" stroke="black" stroke-width="1" /><polygon fill="none" id="6" points="34,58" stroke="black" stroke-width="1" /><polygon fill="none" id="7" points="55,36 54,37 40,37 51,37 52,38 52,46 50,48 41,48 40,47 40,48 51,48 52,49 52,60 51,61 52,61 53,62 53,63 57,63 58,64 59,64 61,66 59,64 58,64 57,63 56,63 55,62 53,62 52,61 52,48 53,47 59,47 60,46 59,46 58,47 53,47 52,46 52,38 53,37 54,37 55,36 59,36" stroke="black" stroke-width="1" /><polygon fill="none" id="8" points="31,34 31,40 30,41 30,47 29,48 29,64 30,65 30,70 31,70 31,65 32,64 32,63 30,63 29,62 29,51 30,50 30,42 31,41 31,36 32,35 32,34" stroke="black" stroke-width="1" /></svg>