<?xml version="1.0" encoding="utf-8" ?>
<svg baseProfile="full" height="100" version="1.1" width="100" xmlns="http://www.w3.org/2000/svg" xmlns:ev="http://www.w3.org/2001/xml-events" xmlns:xlink="http://www.w3.org/1999/xlink"><defs /><polygon fill="none" id="1" points="47,68" stroke="black" stroke-width="1" /><polygon fill="none" id="2" points="63,63 64,64 65,64 67,66 68,66 67,65 66,65 65,64 64,64" stroke="black" stroke-width="1" /><polygon fill="none" id="3" points="45,63 44,64 44,65 45,66" stroke="black" stroke-width="1" /><polygon fill="none" id="4" points="47,61" stroke="black" stroke-width="1" /><polygon fill="none" id="5" points="49,60 54,60" stroke="black" stroke-width="1" /><polygon fill="none" id="6" points="37,60" stroke="black" stroke-width="1" /><polygon fill="none" id="7" points="38,58" stroke="black" stroke-width="1" /><polygon fill="none" id="8" points="61,36 60,37 45,37 57,37 58,38 58,40 57,41 58,42 58,46 56,48 45,48 44,47 45,48 57,48 58,49 58,60 57,61 58,62 58,67 57,68 56,68 55,69 49,69 55,69 56,68 57,68 58,67 58,65 59,64 59,63 60,62 61,62 60,62 58,60 58,48 59,47 66,47 67,46 65,46 64,47 59,47 58,46 58,38 59,37 60,37 61,36 66,36" stroke="black" stroke-width="1" /><polygon fill="none" id="9" points="35,34 35,35 34,36 34,41 33,42 33,48 32,49 32,63 33,64 33,70 35,70 35,64 36,63 35,64 33,64 32,63 32,58 33,57 33,46 34,45 34,40 35,39 35,35 36,34" stroke="black" stroke-width="1" /></svg>