<?xml version="1.0" encoding="utf-8" ?>
<svg baseProfile="full" height="100" version="1.1" width="100" xmlns="http://www.w3.org/2000/svg" xmlns:ev="http://www.w3.org/2001/xml-events" xmlns:xlink="http://www.w3.org/1999/xlink"><defs /><polygon fill="none" id="1" points="69,63 70,63 71,64 72,64 74,66 75,66 74,65 73,65 72,64 71,64 70,63" stroke="black" stroke-width="1" /><polygon fill="none" id="2" points="50,62 49,63 49,66 51,68 52,68 51,68 50,67 50,66 49,65 49,63" stroke="black" stroke-width="1" /><polygon fill="none" id="3" points="52,61" stroke="black" stroke-width="1" /><polygon fill="none" id="4" points="54,60 59,60" stroke="black" stroke-width="1" /><polygon fill="none" id="5" points="41,60" stroke="black" stroke-width="1" /><polygon fill="none" id="6" points="42,58" stroke="black" stroke-width="1" /><polygon fill="none" id="7" points="67,36 66,37 49,37 62,37 63,38 63,43 64,44 64,46 62,48 50,48 49,47 48,47 49,48 63,48 64,49 64,60 63,61 62,61 63,61 64,62 64,66 61,69 54,69 61,69 62,68 63,68 64,67 64,65 65,64 65,63 66,62 67,62 66,62 64,60 64,48 65,47 73,47 74,46 72,46 71,47 65,47 64,46 64,38 65,37 67,37 68,36 72,36" stroke="black" stroke-width="1" /><polygon fill="none" id="8" points="38,34 38,37 37,38 37,42 36,43 36,48 35,49 35,63 36,64 36,69 37,70 38,70 38,67 39,66 39,64 40,63 39,64 37,64 36,63 36,50 37,49 37,44 38,43 38,39 39,38 39,34" stroke="black" stroke-width="1" /></svg>