<?xml version="1.0" encoding="utf-8" ?>
<svg baseProfile="full" height="100" version="1.1" width="100" xmlns="http://www.w3.org/2000/svg" xmlns:ev="http://www.w3.org/2001/xml-events" xmlns:xlink="http://www.w3.org/1999/xlink"><defs /><polygon fill="none" id="1" points="58,43 57,44 53,44 52,45 49,45 48,46 44,46 43,47 43,48 44,47 46,47 47,46 49,46 50,45 52,45 53,44 57,44 58,43 66,43 67,44 68,44 71,47 71,48 72,49 72,55 71,56 71,58 70,59 70,60 65,65 64,65 62,67 60,67 59,68 57,68 56,69 54,69 55,70 56,69 58,69 59,68 61,68 62,67 63,67 64,66 65,66 68,63 69,63 70,62 70,61 71,60 71,59 72,58 72,57 73,56 73,53 74,52 73,51 73,49 72,48 72,47 69,44 67,44 66,43" stroke="black" stroke-width="1" /><polygon fill="none" id="2" points="52,31 52,32 56,32 57,33 59,33 60,34 62,34 63,35 64,35 65,36 66,35 65,35 64,34 62,34 61,33 59,33 58,32 55,32 54,31" stroke="black" stroke-width="1" /></svg>