<?xml version="1.0" encoding="utf-8" ?>
<svg baseProfile="full" height="100" version="1.1" width="100" xmlns="http://www.w3.org/2000/svg" xmlns:ev="http://www.w3.org/2001/xml-events" xmlns:xlink="http://www.w3.org/1999/xlink"><defs /><polygon fill="none" id="1" points="44,32 44,39 43,40 33,40 32,39 30,39 30,42 43,42 44,43 44,48 43,49 32,49 32,51 43,51 44,52 44,55 45,56 45,58 44,59 36,59 35,60 34,60 33,61 32,61 31,62 31,64 30,65 31,66 31,68 33,70 35,70 36,71 43,71 44,70 45,70 47,68 47,65 48,64 49,64 50,65 51,65 52,66 53,66 55,68 56,68 58,70 59,69 59,68 60,67 59,66 58,66 57,65 56,65 54,63 53,63 52,62 51,62 50,61 48,61 47,60 47,52 48,51 52,51 53,50 57,50 57,47 56,47 55,48 49,48 48,49 46,47 47,46 47,44 46,43 48,41 57,41 58,40 59,40 59,38 54,38 53,39 47,39 46,38 46,36 47,35 47,32" stroke="black" stroke-width="1" /><polygon fill="none" id="2" points="36,61 42,61 43,62 44,62 45,63 45,66 42,69 37,69 36,68 35,68 33,66 33,64" stroke="black" stroke-width="1" /></svg>