<?xml version="1.0" encoding="utf-8" ?>
<svg baseProfile="full" height="100" version="1.1" width="100" xmlns="http://www.w3.org/2000/svg" xmlns:ev="http://www.w3.org/2001/xml-events" xmlns:xlink="http://www.w3.org/1999/xlink"><defs /><polygon fill="none" id="1" points="49,32 49,39 48,40 37,40 36,39 33,39 33,42 48,42 49,43 49,48 48,49 37,49 36,48 36,51 48,51 49,52 49,55 50,56 50,58 49,59 40,59 39,60 37,60 34,63 34,67 37,70 39,70 40,71 48,71 49,70 50,70 52,68 52,64 53,63 54,64 55,64 56,65 57,65 58,66 59,66 60,67 61,67 64,70 65,70 65,69 67,67 66,67 64,65 63,65 62,64 61,64 60,63 59,63 58,62 56,62 55,61 53,61 52,60 52,52 53,51 57,51 58,50 64,50 64,47 62,47 61,48 55,48 54,49 53,49 52,48 52,42 53,41 63,41 64,40 66,40 66,38 65,37 64,38 59,38 58,39 53,39 52,38 52,32" stroke="black" stroke-width="1" /><polygon fill="none" id="2" points="39,62 40,61 47,61 48,62 49,62 50,63 50,66 47,69 41,69 40,68 39,68 36,65 37,64 37,63 38,62" stroke="black" stroke-width="1" /></svg>