<?xml version="1.0" encoding="utf-8" ?>
<svg baseProfile="full" height="100" version="1.1" width="100" xmlns="http://www.w3.org/2000/svg" xmlns:ev="http://www.w3.org/2001/xml-events" xmlns:xlink="http://www.w3.org/1999/xlink"><defs /><polygon fill="none" id="1" points="39,32 39,39 38,40 30,40 29,39 26,39 26,41 27,42 38,42 39,43 39,48 38,49 30,49 29,48 29,51 39,51 40,52 40,58 39,59 32,59 31,60 30,60 27,63 27,67 28,68 28,69 29,69 30,70 31,70 32,71 38,71 39,70 40,70 41,69 41,68 42,67 42,66 41,65 42,64 44,64 46,66 47,66 50,69 51,69 52,70 52,69 53,68 53,67 51,65 50,65 48,63 47,63 46,62 45,62 44,61 43,61 42,60 42,55 41,54 41,52 42,51 46,51 47,50 51,50 51,47 49,47 48,48 44,48 43,49 42,49 41,48 41,42 42,41 50,41 51,40 53,40 53,39 52,38 52,37 51,38 48,38 47,39 42,39 41,38 41,32" stroke="black" stroke-width="1" /><polygon fill="none" id="2" points="32,61 37,61 38,62 39,62 40,63 40,66 37,69 33,69 32,68 31,68 29,66 29,64" stroke="black" stroke-width="1" /></svg>