<?xml version="1.0" encoding="utf-8" ?>
<svg baseProfile="full" height="100" version="1.1" width="100" xmlns="http://www.w3.org/2000/svg" xmlns:ev="http://www.w3.org/2001/xml-events" xmlns:xlink="http://www.w3.org/1999/xlink"><defs /><polygon fill="none" id="1" points="53,32 54,33 54,39 53,40 41,40 40,39 36,39 36,41 37,42 53,42 54,43 54,48 53,49 39,49 39,51 53,51 54,52 54,55 55,56 55,58 54,59 44,59 43,60 41,60 40,61 39,61 38,62 38,63 37,64 37,67 39,69 40,69 41,70 43,70 44,71 53,71 54,70 55,70 57,68 57,65 58,64 61,64 62,65 63,65 64,66 65,66 66,67 67,67 69,69 70,69 71,70 72,70 72,69 74,67 73,67 72,66 71,66 70,65 69,65 68,64 67,64 66,63 64,63 63,62 62,62 61,61 59,61 57,59 57,52 58,51 63,51 64,50 70,50 70,47 68,47 67,48 60,48 59,49 58,49 57,48 57,42 58,41 69,41 70,40 73,40 73,39 72,38 65,38 64,39 58,39 57,38 57,32" stroke="black" stroke-width="1" /><polygon fill="none" id="2" points="44,62 45,61 52,61 53,62 54,62 55,63 55,66 53,68 52,68 51,69 45,69 44,68 42,68 41,67 41,66 40,65 40,64 42,62" stroke="black" stroke-width="1" /></svg>