<?xml version="1.0" encoding="utf-8" ?>
<svg baseProfile="full" height="100" version="1.1" width="100" xmlns="http://www.w3.org/2000/svg" xmlns:ev="http://www.w3.org/2001/xml-events" xmlns:xlink="http://www.w3.org/1999/xlink"><defs /><polygon fill="none" id="1" points="58,32 58,33 59,34 59,38 57,40 44,40 43,39 40,39 40,42 58,42 59,43 59,48 58,49 43,49 43,51 58,51 59,52 59,55 60,56 60,58 59,59 48,59 47,60 45,60 44,61 43,61 41,63 41,67 43,69 44,69 45,70 47,70 48,71 58,71 59,70 60,70 61,69 62,69 63,68 63,64 64,63 65,64 66,64 67,65 68,65 69,66 71,66 72,67 73,67 74,68 75,68 76,69 77,69 78,70 81,67 79,67 78,66 77,66 76,65 75,65 74,64 73,64 72,63 70,63 69,62 67,62 66,61 64,61 63,60 63,53 62,52 63,51 69,51 70,50 77,50 77,47 74,47 73,48 66,48 65,49 63,49 62,48 62,42 63,41 76,41 77,40 79,40 79,38 71,38 70,39 63,39 62,38 62,34 63,33 63,32" stroke="black" stroke-width="1" /><polygon fill="none" id="2" points="48,62 49,61 56,61 57,62 59,62 60,63 60,66 58,68 57,68 56,69 49,69 48,68 46,68 44,66 44,64 46,62" stroke="black" stroke-width="1" /></svg>