<?xml version="1.0" encoding="utf-8" ?>
<svg baseProfile="full" height="100" version="1.1" width="100" xmlns="http://www.w3.org/2000/svg" xmlns:ev="http://www.w3.org/2001/xml-events" xmlns:xlink="http://www.w3.org/1999/xlink"><defs /><polygon fill="none" id="1" points="39,32 39,39 38,40 31,40 30,39 26,39 26,42 27,43 38,43 39,44 39,48 38,49 31,49 30,48 29,48 29,52 39,52 40,53 40,58 39,59 32,59 31,60 30,60 27,63 27,68 28,69 28,70 29,70 30,71 31,71 32,72 39,72 40,71 41,71 42,70 42,69 43,68 43,66 44,65 46,67 47,67 50,70 51,70 52,71 53,71 53,70 54,69 54,67 52,65 51,65 49,63 48,63 47,62 46,62 45,61 44,61 43,60 43,55 42,54 42,53 43,52 47,52 48,51 52,51 52,47 49,47 48,48 44,48 43,49 42,48 42,43 43,42 51,42 52,41 54,41 54,39 53,38 53,37 52,37 51,38 48,38 47,39 43,39 42,38 42,32" stroke="black" stroke-width="1" /><polygon fill="none" id="2" points="33,62 37,62 38,63 39,63 40,64 40,66 37,69 34,69 33,68 32,68 30,66 30,65" stroke="black" stroke-width="1" /></svg>