<?xml version="1.0" encoding="utf-8" ?>
<svg baseProfile="full" height="100" version="1.1" width="100" xmlns="http://www.w3.org/2000/svg" xmlns:ev="http://www.w3.org/2001/xml-events" xmlns:xlink="http://www.w3.org/1999/xlink"><defs /><polygon fill="none" id="1" points="44,32 44,39 43,40 34,40 33,39 30,39 30,43 43,43 44,44 44,48 43,49 32,49 32,52 43,52 44,53 44,56 45,57 45,58 44,59 36,59 35,60 34,60 33,61 32,61 31,62 31,64 30,65 30,66 31,67 31,69 33,71 35,71 36,72 44,72 45,71 46,71 48,69 48,66 49,65 50,66 51,66 52,67 53,67 55,69 56,69 58,71 59,71 60,70 60,69 61,68 61,67 60,66 59,66 58,65 57,65 55,63 54,63 53,62 52,62 51,61 49,61 48,60 48,53 49,52 53,52 54,51 58,51 58,47 56,47 55,48 49,48 48,47 48,43 49,42 58,42 59,41 60,41 60,38 54,38 53,39 48,39 47,38 47,37 48,36 48,32" stroke="black" stroke-width="1" /><polygon fill="none" id="2" points="37,62 42,62 43,63 44,63 45,64 45,66 42,69 38,69 37,68 36,68 34,66 34,65" stroke="black" stroke-width="1" /></svg>