<?xml version="1.0" encoding="utf-8" ?>
<svg baseProfile="full" height="100" version="1.1" width="100" xmlns="http://www.w3.org/2000/svg" xmlns:ev="http://www.w3.org/2001/xml-events" xmlns:xlink="http://www.w3.org/1999/xlink"><defs /><polygon fill="none" id="1" points="49,32 49,39 48,40 38,40 37,39 33,39 33,43 48,43 49,44 49,48 48,49 38,49 37,48 36,48 36,52 48,52 49,53 49,56 50,57 50,58 49,59 40,59 39,60 37,60 34,63 34,68 37,71 39,71 40,72 49,72 50,71 51,71 53,69 53,66 54,65 55,65 56,66 57,66 58,67 59,67 60,68 61,68 64,71 66,71 66,70 68,68 68,67 67,67 65,65 64,65 63,64 62,64 61,63 60,63 59,62 57,62 56,61 54,61 53,60 53,53 54,52 58,52 59,51 65,51 65,47 62,47 61,48 55,48 54,49 53,48 53,43 54,42 64,42 65,41 67,41 67,38 66,37 65,37 64,38 59,38 58,39 54,39 53,38 53,32" stroke="black" stroke-width="1" /><polygon fill="none" id="2" points="40,63 41,62 47,62 48,63 49,63 50,64 50,66 47,69 42,69 41,68 40,68 38,66 38,64 39,63" stroke="black" stroke-width="1" /></svg>