<?xml version="1.0" encoding="utf-8" ?>
<svg baseProfile="full" height="100" version="1.1" width="100" xmlns="http://www.w3.org/2000/svg" xmlns:ev="http://www.w3.org/2001/xml-events" xmlns:xlink="http://www.w3.org/1999/xlink"><defs /><polygon fill="none" id="1" points="53,32 53,33 54,34 54,39 53,40 42,40 41,39 36,39 36,42 37,43 53,43 54,44 54,48 53,49 39,49 39,52 53,52 54,53 54,56 55,57 55,58 54,59 44,59 43,60 41,60 40,61 39,61 38,62 38,63 37,64 37,68 39,70 40,70 41,71 43,71 44,72 54,72 55,71 56,71 58,69 58,66 59,65 61,65 62,66 63,66 64,67 65,67 66,68 67,68 69,70 70,70 71,71 73,71 73,70 75,68 75,67 74,67 73,66 72,66 71,65 70,65 69,64 68,64 67,63 65,63 64,62 63,62 62,61 60,61 58,59 58,53 59,52 64,52 65,51 71,51 71,47 68,47 67,48 60,48 59,49 58,48 58,43 59,42 70,42 71,41 74,41 74,39 73,38 65,38 64,39 59,39 58,38 58,32" stroke="black" stroke-width="1" /><polygon fill="none" id="2" points="45,63 46,62 52,62 53,63 54,63 55,64 55,66 53,68 52,68 51,69 46,69 45,68 43,68 42,67 42,66 41,65 43,63" stroke="black" stroke-width="1" /></svg>