<?xml version="1.0" encoding="utf-8" ?>
<svg baseProfile="full" height="100" version="1.1" width="100" xmlns="http://www.w3.org/2000/svg" xmlns:ev="http://www.w3.org/2001/xml-events" xmlns:xlink="http://www.w3.org/1999/xlink"><defs /><polygon fill="none" id="1" points="58,32 58,34 59,35 59,38 57,40 45,40 44,39 40,39 40,43 58,43 59,44 59,48 58,49 43,49 43,52 58,52 59,53 59,56 60,57 60,58 59,59 48,59 47,60 45,60 44,61 43,61 41,63 41,68 43,70 44,70 45,71 47,71 48,72 59,72 60,71 61,71 62,70 63,70 64,69 64,66 65,65 66,65 67,66 68,66 69,67 71,67 72,68 73,68 74,69 75,69 76,70 77,70 78,71 79,71 82,68 82,67 80,67 79,66 78,66 77,65 76,65 75,64 74,64 73,63 71,63 70,62 68,62 67,61 65,61 64,60 64,53 65,52 70,52 71,51 78,51 78,47 74,47 73,48 66,48 65,49 64,49 63,48 63,43 64,42 77,42 78,41 80,41 80,38 71,38 70,39 64,39 63,38 63,35 64,34 64,32" stroke="black" stroke-width="1" /><polygon fill="none" id="2" points="49,63 50,62 56,62 57,63 59,63 60,64 60,66 58,68 57,68 56,69 50,69 49,68 47,68 45,66 45,65 47,63" stroke="black" stroke-width="1" /></svg>