<?xml version="1.0" encoding="utf-8" ?>
<svg baseProfile="full" height="100" version="1.1" width="100" xmlns="http://www.w3.org/2000/svg" xmlns:ev="http://www.w3.org/2001/xml-events" xmlns:xlink="http://www.w3.org/1999/xlink"><defs /><polygon fill="none" id="1" points="40,33 40,40 39,41 30,41 29,40 27,40 27,41 28,42 39,42 40,43 40,49 39,50 30,50 30,51 40,51 41,52 41,59 40,60 33,60 32,61 31,61 28,64 28,67 29,68 29,69 30,69 31,70 32,70 33,71 38,71 39,70 40,70 41,69 41,68 42,67 41,66 41,65 42,64 45,64 47,66 48,66 51,69 52,69 53,68 51,66 50,66 48,64 47,64 46,63 45,63 44,62 43,62 42,61 42,56 41,55 41,52 42,51 46,51 47,50 51,50 51,48 50,48 49,49 45,49 44,50 42,50 41,49 41,42 42,41 50,41 51,40 53,40 52,39 49,39 48,40 42,40 41,39 41,33" stroke="black" stroke-width="1" /><polygon fill="none" id="2" points="32,61 38,61 39,62 40,62 41,63 41,67 38,70 33,70 32,69 31,69 29,67 29,64" stroke="black" stroke-width="1" /></svg>