<?xml version="1.0" encoding="utf-8" ?>
<svg baseProfile="full" height="100" version="1.1" width="100" xmlns="http://www.w3.org/2000/svg" xmlns:ev="http://www.w3.org/2001/xml-events" xmlns:xlink="http://www.w3.org/1999/xlink"><defs /><polygon fill="none" id="1" points="45,33 45,40 44,41 33,41 32,40 31,40 31,42 44,42 45,43 45,49 44,50 33,50 33,51 44,51 45,52 45,55 46,56 46,59 45,60 37,60 36,61 35,61 34,62 33,62 32,63 32,68 34,70 36,70 37,71 43,71 44,70 45,70 47,68 47,65 48,64 50,64 51,65 52,65 53,66 54,66 56,68 57,68 58,69 59,69 59,67 58,67 57,66 56,66 54,64 53,64 52,63 51,63 50,62 48,62 47,61 47,52 48,51 52,51 53,50 57,50 57,48 56,49 50,49 49,50 48,50 46,48 46,47 47,46 47,45 46,44 46,43 48,41 57,41 58,40 59,40 59,39 55,39 54,40 47,40 46,39 46,36 47,35 47,33" stroke="black" stroke-width="1" /><polygon fill="none" id="2" points="36,61 43,61 44,62 45,62 46,63 46,67 43,70 37,70 36,69 35,69 33,67 33,64" stroke="black" stroke-width="1" /></svg>