<?xml version="1.0" encoding="utf-8" ?>
<svg baseProfile="full" height="100" version="1.1" width="100" xmlns="http://www.w3.org/2000/svg" xmlns:ev="http://www.w3.org/2001/xml-events" xmlns:xlink="http://www.w3.org/1999/xlink"><defs /><polygon fill="none" id="1" points="50,33 50,40 49,41 37,41 36,40 34,40 34,42 49,42 50,43 50,49 49,50 37,50 37,51 49,51 50,52 50,55 51,56 51,59 50,60 41,60 40,61 38,61 35,64 35,67 38,70 40,70 41,71 48,71 49,70 50,70 52,68 52,64 53,63 54,63 55,64 56,64 57,65 58,65 59,66 60,66 61,67 62,67 65,70 65,69 66,68 64,66 63,66 62,65 61,65 60,64 59,64 58,63 56,63 55,62 53,62 52,61 52,52 53,51 57,51 58,50 64,50 64,48 63,48 62,49 56,49 55,50 53,50 52,49 52,42 53,41 63,41 64,40 66,40 66,39 60,39 59,40 53,40 52,39 52,33" stroke="black" stroke-width="1" /><polygon fill="none" id="2" points="39,62 40,61 48,61 49,62 50,62 51,63 51,67 48,70 41,70 40,69 39,69 36,66 36,65 37,64 37,63 38,62" stroke="black" stroke-width="1" /></svg>