<?xml version="1.0" encoding="utf-8" ?>
<svg baseProfile="full" height="100" version="1.1" width="100" xmlns="http://www.w3.org/2000/svg" xmlns:ev="http://www.w3.org/2001/xml-events" xmlns:xlink="http://www.w3.org/1999/xlink"><defs /><polygon fill="none" id="1" points="55,33 55,40 54,41 41,41 40,40 37,40 37,41 38,42 54,42 55,43 55,49 54,50 40,50 40,51 54,51 55,52 55,55 56,56 56,59 55,60 45,60 44,61 42,61 41,62 40,62 39,63 39,64 38,65 38,67 40,69 41,69 42,70 44,70 45,71 53,71 54,70 55,70 57,68 57,65 58,64 62,64 63,65 64,65 65,66 66,66 67,67 68,67 70,69 71,69 72,70 72,69 73,68 72,67 71,67 70,66 69,66 68,65 67,65 66,64 64,64 63,63 62,63 61,62 59,62 57,60 57,52 58,51 63,51 64,50 70,50 70,48 69,48 68,49 61,49 60,50 58,50 57,49 57,42 58,41 69,41 70,40 73,40 72,39 66,39 65,40 58,40 57,39 57,33" stroke="black" stroke-width="1" /><polygon fill="none" id="2" points="44,62 45,61 53,61 54,62 55,62 56,63 56,67 54,69 53,69 52,70 45,70 44,69 42,69 41,68 41,67 40,66 40,64 42,62" stroke="black" stroke-width="1" /></svg>