<?xml version="1.0" encoding="utf-8" ?>
<svg baseProfile="full" height="100" version="1.1" width="100" xmlns="http://www.w3.org/2000/svg" xmlns:ev="http://www.w3.org/2001/xml-events" xmlns:xlink="http://www.w3.org/1999/xlink"><defs /><polygon fill="none" id="1" points="47,43 46,44 40,44 39,45 31,45 31,46 32,47 32,48 37,48 38,47 42,47 43,46 46,46 47,47 46,48 46,49 41,54 41,55 34,62 34,63 28,69 28,70 30,72 31,71 31,70 41,60 42,60 43,59 45,59 47,61 47,68 48,69 48,70 49,70 50,71 61,71 61,68 58,68 57,69 51,69 49,67 49,59 47,57 44,57 43,58 42,57 42,56 49,49 49,48 51,46 51,44 50,43" stroke="black" stroke-width="1" /><polygon fill="none" id="2" points="38,32 37,33 37,34 38,34 39,35 41,35 42,36 44,36 45,37 46,37 48,39 49,39 49,38 50,37 50,36 49,36 48,35 47,35 46,34 45,34 44,33 42,33 41,32" stroke="black" stroke-width="1" /></svg>