<?xml version="1.0" encoding="utf-8" ?>
<svg baseProfile="full" height="100" version="1.1" width="100" xmlns="http://www.w3.org/2000/svg" xmlns:ev="http://www.w3.org/2001/xml-events" xmlns:xlink="http://www.w3.org/1999/xlink"><defs /><polygon fill="none" id="1" points="59,33 60,34 60,39 58,41 44,41 43,40 41,40 41,42 59,42 60,43 60,49 59,50 44,50 44,51 59,51 60,52 60,55 61,56 61,59 60,60 49,60 48,61 46,61 45,62 44,62 42,64 42,67 44,69 45,69 46,70 48,70 49,71 58,71 59,70 60,70 61,69 62,69 63,68 63,64 64,63 65,63 66,64 67,64 68,65 69,65 70,66 72,66 73,67 74,67 75,68 76,68 77,69 79,69 80,68 79,68 78,67 77,67 76,66 75,66 74,65 73,65 72,64 70,64 69,63 67,63 66,62 64,62 63,61 63,54 62,53 62,52 63,51 69,51 70,50 77,50 77,48 75,48 74,49 67,49 66,50 63,50 62,49 62,42 63,41 76,41 77,40 79,40 79,39 72,39 71,40 63,40 62,39 62,34 63,33" stroke="black" stroke-width="1" /><polygon fill="none" id="2" points="48,62 49,61 57,61 58,62 60,62 61,63 61,67 59,69 58,69 57,70 49,70 48,69 46,69 44,67 44,64 46,62" stroke="black" stroke-width="1" /></svg>