<?xml version="1.0" encoding="utf-8" ?>
<svg baseProfile="full" height="100" version="1.1" width="100" xmlns="http://www.w3.org/2000/svg" xmlns:ev="http://www.w3.org/2001/xml-events" xmlns:xlink="http://www.w3.org/1999/xlink"><defs /><polygon fill="none" id="1" points="38,31 38,38 37,39 31,39 30,38 25,38 25,42 26,43 37,43 38,44 38,47 37,48 31,48 30,47 28,47 28,52 38,52 39,53 39,57 38,58 31,58 30,59 29,59 26,62 26,68 27,69 27,70 28,70 29,71 30,71 31,72 39,72 40,71 41,71 42,70 42,69 43,68 43,67 44,66 45,67 46,67 49,70 50,70 51,71 53,71 53,70 54,69 54,66 52,64 51,64 49,62 48,62 47,61 46,61 45,60 44,60 43,59 43,54 42,53 43,52 47,52 48,51 52,51 52,46 48,46 47,47 43,47 42,46 42,43 43,42 51,42 52,41 54,41 54,38 53,37 53,36 51,36 50,37 47,37 46,38 43,38 42,37 42,31" stroke="black" stroke-width="1" /><polygon fill="none" id="2" points="33,62 36,62 37,63 38,63 39,64 39,65 36,68 34,68 33,67 32,67 30,65" stroke="black" stroke-width="1" /></svg>