<?xml version="1.0" encoding="utf-8" ?>
<svg baseProfile="full" height="100" version="1.1" width="100" xmlns="http://www.w3.org/2000/svg" xmlns:ev="http://www.w3.org/2001/xml-events" xmlns:xlink="http://www.w3.org/1999/xlink"><defs /><polygon fill="none" id="1" points="43,31 43,38 42,39 34,39 33,38 29,38 29,43 42,43 43,44 43,47 42,48 31,48 31,52 42,52 43,53 43,56 44,57 43,58 35,58 34,59 33,59 32,60 31,60 30,61 30,63 29,64 29,66 30,67 30,69 32,71 34,71 35,72 44,72 45,71 46,71 48,69 48,67 49,66 50,66 51,67 52,67 54,69 55,69 57,71 59,71 60,70 60,69 61,68 61,66 60,65 59,65 58,64 57,64 55,62 54,62 53,61 52,61 51,60 49,60 48,59 48,53 49,52 53,52 54,51 58,51 58,46 55,46 54,47 49,47 48,46 48,43 49,42 58,42 59,41 60,41 60,37 53,37 52,38 48,38 47,37 48,36 48,31" stroke="black" stroke-width="1" /><polygon fill="none" id="2" points="37,62 41,62 42,63 43,63 44,64 44,65 41,68 38,68 37,67 36,67 34,65" stroke="black" stroke-width="1" /></svg>