<?xml version="1.0" encoding="utf-8" ?>
<svg baseProfile="full" height="100" version="1.1" width="100" xmlns="http://www.w3.org/2000/svg" xmlns:ev="http://www.w3.org/2001/xml-events" xmlns:xlink="http://www.w3.org/1999/xlink"><defs /><polygon fill="none" id="1" points="48,31 48,38 47,39 38,39 37,38 32,38 32,43 47,43 48,44 48,47 47,48 38,48 37,47 35,47 35,52 47,52 48,53 48,56 49,57 48,58 39,58 38,59 36,59 33,62 33,68 36,71 38,71 39,72 49,72 50,71 51,71 53,69 53,66 54,65 55,66 56,66 57,67 58,67 59,68 60,68 63,71 66,71 66,70 68,68 68,66 67,66 65,64 64,64 63,63 62,63 61,62 60,62 59,61 57,61 56,60 54,60 53,59 53,53 54,52 58,52 59,51 65,51 65,46 61,46 60,47 54,47 53,46 53,43 54,42 64,42 65,41 67,41 67,37 66,36 64,36 63,37 58,37 57,38 54,38 53,37 53,31" stroke="black" stroke-width="1" /><polygon fill="none" id="2" points="40,63 41,62 46,62 47,63 48,63 49,64 49,65 46,68 42,68 41,67 40,67 38,65 38,64 39,63" stroke="black" stroke-width="1" /></svg>