<?xml version="1.0" encoding="utf-8" ?>
<svg baseProfile="full" height="100" version="1.1" width="100" xmlns="http://www.w3.org/2000/svg" xmlns:ev="http://www.w3.org/2001/xml-events" xmlns:xlink="http://www.w3.org/1999/xlink"><defs /><polygon fill="none" id="1" points="52,31 52,33 53,34 53,38 52,39 42,39 41,38 35,38 35,42 36,43 52,43 53,44 53,47 52,48 38,48 38,52 52,52 53,53 53,56 54,57 53,58 43,58 42,59 40,59 39,60 38,60 37,61 37,62 36,63 36,68 38,70 39,70 40,71 42,71 43,72 54,72 55,71 56,71 58,69 58,66 59,65 60,65 61,66 62,66 63,67 64,67 65,68 66,68 68,70 69,70 70,71 73,71 73,70 75,68 75,66 74,66 73,65 72,65 71,64 70,64 69,63 68,63 67,62 65,62 64,61 63,61 62,60 60,60 58,58 58,53 59,52 64,52 65,51 71,51 71,46 67,46 66,47 59,47 58,46 58,43 59,42 70,42 71,41 74,41 74,38 73,37 64,37 63,38 59,38 58,37 58,31" stroke="black" stroke-width="1" /><polygon fill="none" id="2" points="45,63 46,62 51,62 52,63 53,63 54,64 54,65 52,67 51,67 50,68 46,68 45,67 43,67 42,66 42,64 43,63" stroke="black" stroke-width="1" /></svg>