<?xml version="1.0" encoding="utf-8" ?>
<svg baseProfile="full" height="100" version="1.1" width="100" xmlns="http://www.w3.org/2000/svg" xmlns:ev="http://www.w3.org/2001/xml-events" xmlns:xlink="http://www.w3.org/1999/xlink"><defs /><polygon fill="none" id="1" points="57,31 57,34 58,35 58,37 56,39 45,39 44,38 39,38 39,43 57,43 58,44 58,47 57,48 42,48 42,52 57,52 58,53 58,56 59,57 58,58 47,58 46,59 44,59 43,60 42,60 40,62 40,68 42,70 43,70 44,71 46,71 47,72 59,72 60,71 61,71 62,70 63,70 64,69 64,66 65,65 66,66 67,66 68,67 70,67 71,68 72,68 73,69 74,69 75,70 76,70 77,71 79,71 82,68 82,66 80,66 79,65 78,65 77,64 76,64 75,63 74,63 73,62 71,62 70,61 68,61 67,60 65,60 64,59 64,53 65,52 70,52 71,51 78,51 78,46 73,46 72,47 65,47 64,48 63,47 63,43 64,42 77,42 78,41 80,41 80,37 70,37 69,38 64,38 63,37 63,35 64,34 64,31" stroke="black" stroke-width="1" /><polygon fill="none" id="2" points="49,63 50,62 55,62 56,63 58,63 59,64 59,65 57,67 56,67 55,68 50,68 49,67 47,67 45,65 47,63" stroke="black" stroke-width="1" /></svg>