<?xml version="1.0" encoding="utf-8" ?>
<svg baseProfile="full" height="100" version="1.1" width="100" xmlns="http://www.w3.org/2000/svg" xmlns:ev="http://www.w3.org/2001/xml-events" xmlns:xlink="http://www.w3.org/1999/xlink"><defs /><polygon fill="none" id="1" points="33,70 37,70" stroke="black" stroke-width="1" /><polygon fill="none" id="2" points="31,69" stroke="black" stroke-width="1" /><polygon fill="none" id="3" points="40,68 39,69" stroke="black" stroke-width="1" /><polygon fill="none" id="4" points="29,68" stroke="black" stroke-width="1" /><polygon fill="none" id="5" points="28,64 28,66" stroke="black" stroke-width="1" /><polygon fill="none" id="6" points="41,56 41,59 40,60 33,60 38,60 39,61 40,61 41,62 41,63 45,63 47,65 48,65 51,68 51,67 50,66 49,66 47,64 46,64 45,63 44,63 43,62 42,62 41,61" stroke="black" stroke-width="1" /><polygon fill="none" id="7" points="40,33 40,40 39,41 29,41 28,40 27,40 28,41 39,41 40,42 40,49 39,50 30,50 45,50 46,49 50,49 50,48 49,49 45,49 44,50 41,50 40,49 40,41 41,40 49,40 50,39 51,39 49,39 48,40 41,40 40,39" stroke="black" stroke-width="1" /></svg>