<?xml version="1.0" encoding="utf-8" ?>
<svg baseProfile="full" height="100" version="1.1" width="100" xmlns="http://www.w3.org/2000/svg" xmlns:ev="http://www.w3.org/2001/xml-events" xmlns:xlink="http://www.w3.org/1999/xlink"><defs /><polygon fill="none" id="1" points="37,70 42,70" stroke="black" stroke-width="1" /><polygon fill="none" id="2" points="33,62 32,63 32,67 34,69 35,69 34,69 32,67 32,63" stroke="black" stroke-width="1" /><polygon fill="none" id="3" points="45,33 45,40 44,41 32,41 31,40 31,41 44,41 45,42 45,49 44,50 33,50 44,50 45,51 45,54 46,55 46,59 45,60 37,60 43,60 44,61 45,61 46,62 46,67 44,69 46,67 46,64 47,63 50,63 51,64 52,64 53,65 54,65 56,67 57,67 58,68 58,67 57,67 56,66 55,66 53,64 52,64 51,63 50,63 49,62 47,62 46,61 46,51 47,50 51,50 52,49 56,49 50,49 49,50 47,50 45,48 45,46 46,45 45,44 45,42 47,40 56,40 57,39 58,39 55,39 54,40 46,40 45,39 45,35 46,34 46,33" stroke="black" stroke-width="1" /></svg>