<?xml version="1.0" encoding="utf-8" ?>
<svg baseProfile="full" height="100" version="1.1" width="100" xmlns="http://www.w3.org/2000/svg" xmlns:ev="http://www.w3.org/2001/xml-events" xmlns:xlink="http://www.w3.org/1999/xlink"><defs /><polygon fill="none" id="1" points="41,70 47,70" stroke="black" stroke-width="1" /><polygon fill="none" id="2" points="36,63 35,64 35,66 38,69 39,69 38,69 35,66 35,64" stroke="black" stroke-width="1" /><polygon fill="none" id="3" points="38,61" stroke="black" stroke-width="1" /><polygon fill="none" id="4" points="50,33 50,40 49,41 36,41 35,40 34,40 34,41 49,41 50,42 50,49 49,50 37,50 49,50 50,51 50,54 51,55 51,59 50,60 41,60 48,60 49,61 50,61 51,62 51,67 49,69 51,67 51,63 52,62 54,62 55,63 56,63 57,64 58,64 59,65 60,65 61,66 62,66 64,68 64,67 63,66 62,66 61,65 60,65 59,64 58,64 57,63 55,63 54,62 52,62 51,61 51,51 52,50 56,50 57,49 63,49 63,48 62,49 56,49 55,50 52,50 51,49 51,41 52,40 62,40 63,39 65,39 60,39 59,40 52,40 51,39 51,33" stroke="black" stroke-width="1" /></svg>