<?xml version="1.0" encoding="utf-8" ?>
<svg baseProfile="full" height="100" version="1.1" width="100" xmlns="http://www.w3.org/2000/svg" xmlns:ev="http://www.w3.org/2001/xml-events" xmlns:xlink="http://www.w3.org/1999/xlink"><defs /><polygon fill="none" id="1" points="42,69 43,69" stroke="black" stroke-width="1" /><polygon fill="none" id="2" points="40,62 39,63 39,64 38,65 38,66 40,68 40,67 39,66 39,63" stroke="black" stroke-width="1" /><polygon fill="none" id="3" points="42,61 43,61" stroke="black" stroke-width="1" /><polygon fill="none" id="4" points="55,33 55,40 54,41 40,41 39,40 37,40 38,41 54,41 55,42 55,49 54,50 40,50 54,50 55,51 55,54 56,55 56,59 55,60 45,60 53,60 54,61 55,61 56,62 56,67 54,69 53,69 52,70 45,70 52,70 53,69 54,69 56,67 56,64 57,63 62,63 63,64 64,64 65,65 66,65 67,66 68,66 70,68 71,68 71,67 70,67 69,66 68,66 67,65 66,65 65,64 63,64 62,63 61,63 60,62 58,62 56,60 56,51 57,50 62,50 63,49 69,49 69,48 68,49 61,49 60,50 57,50 56,49 56,41 57,40 68,40 69,39 71,39 66,39 65,40 57,40 56,39 56,33" stroke="black" stroke-width="1" /></svg>