<?xml version="1.0" encoding="utf-8" ?>
<svg baseProfile="full" height="100" version="1.1" width="100" xmlns="http://www.w3.org/2000/svg" xmlns:ev="http://www.w3.org/2001/xml-events" xmlns:xlink="http://www.w3.org/1999/xlink"><defs /><polygon fill="none" id="1" points="53,43 52,44 44,44 43,45 35,45 35,48 41,48 42,47 47,47 48,46 51,46 52,45 53,46 53,47 31,69 31,70 33,72 45,60 46,60 47,59 50,59 52,61 52,68 54,70 55,70 56,71 68,71 68,68 65,68 64,69 57,69 55,67 55,60 54,59 54,58 53,57 49,57 48,58 47,57 47,56 57,46 57,45 55,43" stroke="black" stroke-width="1" /><polygon fill="none" id="2" points="42,32 41,33 41,34 42,34 43,35 46,35 47,36 49,36 50,37 51,37 52,38 53,38 54,39 55,38 55,37 56,36 55,36 54,35 52,35 51,34 50,34 49,33 46,33 45,32" stroke="black" stroke-width="1" /></svg>