<?xml version="1.0" encoding="utf-8" ?>
<svg baseProfile="full" height="100" version="1.1" width="100" xmlns="http://www.w3.org/2000/svg" xmlns:ev="http://www.w3.org/2001/xml-events" xmlns:xlink="http://www.w3.org/1999/xlink"><defs /><polygon fill="none" id="1" points="46,69 47,69" stroke="black" stroke-width="1" /><polygon fill="none" id="2" points="44,62 42,64 42,66 44,68 43,67 43,63" stroke="black" stroke-width="1" /><polygon fill="none" id="3" points="46,61 47,61" stroke="black" stroke-width="1" /><polygon fill="none" id="4" points="60,33 60,39 58,41 43,41 42,40 41,40 41,41 59,41 60,42 60,49 59,50 44,50 59,50 60,51 60,54 61,55 61,59 60,60 49,60 57,60 58,61 60,61 61,62 61,67 59,69 58,69 57,70 49,70 57,70 58,69 59,69 60,68 61,68 62,67 62,63 63,62 65,62 66,63 67,63 68,64 69,64 70,65 72,65 73,66 74,66 75,67 76,67 77,68 78,68 77,67 76,67 75,66 74,66 73,65 72,65 71,64 69,64 68,63 66,63 65,62 63,62 62,61 62,54 61,53 61,51 62,50 68,50 69,49 76,49 76,48 75,48 74,49 67,49 66,50 62,50 61,49 61,41 62,40 75,40 76,39 78,39 72,39 71,40 62,40 61,39 61,33" stroke="black" stroke-width="1" /></svg>