<?xml version="1.0" encoding="utf-8" ?>
<svg baseProfile="full" height="100" version="1.1" width="100" xmlns="http://www.w3.org/2000/svg" xmlns:ev="http://www.w3.org/2001/xml-events" xmlns:xlink="http://www.w3.org/1999/xlink"><defs /><polygon fill="none" id="1" points="36,35 35,36 28,36 28,38 29,39 33,39 34,38 37,38 38,37 39,38 39,41 38,42 38,46 37,47 37,49 36,50 33,50 32,51 30,51 29,52 28,52 25,55 25,56 24,57 24,60 23,61 23,62 24,63 24,65 25,66 25,67 26,68 29,68 33,64 33,63 34,62 34,61 35,60 35,59 36,58 36,56 37,55 37,53 38,52 39,52 40,53 42,53 43,54 45,54 46,55 47,55 48,56 48,57 47,58 47,60 46,61 46,62 45,63 45,64 39,70 41,72 46,67 46,66 48,64 48,62 49,61 49,59 50,58 51,58 55,62 56,61 56,60 57,59 55,57 54,57 52,55 51,55 50,54 50,53 51,52 51,44 49,44 49,52 48,53 47,53 46,52 45,52 44,51 42,51 41,50 40,50 39,49 39,47 40,46 40,44 41,43 41,39 42,38 42,36 41,35" stroke="black" stroke-width="1" /><polygon fill="none" id="2" points="32,53 33,52 34,52 35,53 35,55 34,56 34,57 33,58 33,59 32,60 32,61 31,62 31,63 28,66 27,66 26,65 26,63 25,62 26,61 26,58 31,53" stroke="black" stroke-width="1" /></svg>