<?xml version="1.0" encoding="utf-8" ?>
<svg baseProfile="full" height="100" version="1.1" width="100" xmlns="http://www.w3.org/2000/svg" xmlns:ev="http://www.w3.org/2001/xml-events" xmlns:xlink="http://www.w3.org/1999/xlink"><defs /><polygon fill="none" id="1" points="41,35 40,36 31,36 31,37 32,38 32,39 37,39 38,38 42,38 43,37 44,38 44,41 43,42 43,44 42,45 42,48 40,50 37,50 36,51 34,51 33,52 32,52 27,57 27,59 26,60 26,62 27,63 27,65 30,68 33,68 37,64 37,63 39,61 39,60 40,59 40,57 41,56 41,55 42,54 42,53 43,52 44,52 45,53 48,53 49,54 51,54 52,55 53,55 54,56 54,57 53,58 53,60 52,61 52,62 50,64 50,65 47,68 46,68 44,70 46,72 47,72 52,67 52,66 54,64 54,63 55,62 55,59 56,58 58,58 62,62 63,61 63,60 64,59 62,57 61,57 60,56 59,56 57,54 57,50 58,49 58,44 55,44 55,52 54,53 53,53 52,52 51,52 50,51 48,51 47,50 44,50 43,49 44,48 44,47 45,46 45,44 46,43 46,40 47,39 47,36 46,35" stroke="black" stroke-width="1" /><polygon fill="none" id="2" points="36,53 37,52 39,52 40,53 40,54 39,55 39,56 37,58 37,59 36,60 36,61 34,63 34,64 32,66 31,66 29,64 29,59 30,58 30,57 33,54 34,54 35,53" stroke="black" stroke-width="1" /></svg>