<?xml version="1.0" encoding="utf-8" ?>
<svg baseProfile="full" height="100" version="1.1" width="100" xmlns="http://www.w3.org/2000/svg" xmlns:ev="http://www.w3.org/2001/xml-events" xmlns:xlink="http://www.w3.org/1999/xlink"><defs /><polygon fill="none" id="1" points="46,35 45,36 35,36 35,37 36,38 36,39 42,39 43,38 47,38 48,37 49,38 49,40 48,41 48,44 47,45 47,47 46,48 46,49 45,50 41,50 40,51 38,51 37,52 36,52 35,53 34,53 30,57 30,59 29,60 29,62 30,63 30,65 33,68 36,68 37,67 38,67 42,63 42,62 43,61 43,60 45,58 45,57 46,56 46,54 48,52 49,52 50,53 53,53 54,54 56,54 57,55 59,55 60,56 60,57 59,58 59,59 58,60 58,61 57,62 57,63 51,69 50,69 49,70 51,72 52,72 55,69 56,69 57,68 57,67 60,64 60,63 61,62 61,60 62,59 62,58 63,57 65,59 66,59 69,62 70,61 70,60 71,59 69,57 68,57 67,56 66,56 65,55 64,55 63,54 63,53 64,52 64,44 61,44 61,52 60,53 59,53 58,52 57,52 56,51 53,51 52,50 49,50 48,49 49,48 49,47 50,46 50,44 51,43 51,41 52,40 52,38 53,37 53,36 52,36 51,35" stroke="black" stroke-width="1" /><polygon fill="none" id="2" points="41,53 42,52 43,52 44,53 44,54 43,55 43,56 42,57 42,58 40,60 40,61 38,63 38,64 36,66 34,66 33,65 33,64 32,63 32,60 33,59 33,58 37,54 38,54 39,53" stroke="black" stroke-width="1" /></svg>