<?xml version="1.0" encoding="utf-8" ?>
<svg baseProfile="full" height="100" version="1.1" width="100" xmlns="http://www.w3.org/2000/svg" xmlns:ev="http://www.w3.org/2001/xml-events" xmlns:xlink="http://www.w3.org/1999/xlink"><defs /><polygon fill="none" id="1" points="55,35 54,36 42,36 42,37 43,38 43,39 50,39 51,38 56,38 57,37 58,37 59,38 59,40 58,41 58,43 57,44 57,45 56,46 56,47 55,48 55,49 54,50 49,50 48,51 45,51 44,52 43,52 42,53 41,53 40,54 39,54 36,57 36,59 35,60 35,62 36,63 36,65 38,67 39,67 40,68 44,68 45,67 46,67 52,61 52,60 54,58 54,57 55,56 55,55 58,52 59,52 60,53 64,53 65,54 68,54 69,55 71,55 72,56 72,57 71,58 71,59 70,60 70,61 63,68 62,68 61,69 60,69 59,70 60,71 61,71 62,72 63,71 64,71 66,69 67,69 72,64 72,63 73,62 73,61 74,60 74,59 76,57 78,59 79,59 80,60 81,60 83,62 84,61 84,60 85,59 86,59 85,58 83,58 82,57 81,57 80,56 79,56 78,55 77,55 76,54 76,52 77,51 77,44 73,44 73,45 74,46 74,47 73,48 73,52 72,53 71,53 70,52 68,52 67,51 63,51 62,50 59,50 58,49 59,48 59,47 60,46 60,45 61,44 61,42 62,41 62,40 63,39 63,37 64,36 63,36 62,35" stroke="black" stroke-width="1" /><polygon fill="none" id="2" points="49,53 50,52 52,52 53,53 53,54 51,56 51,57 48,60 48,61 43,66 41,66 39,64 39,59 43,55 44,55 45,54 46,54 47,53" stroke="black" stroke-width="1" /></svg>