<?xml version="1.0" encoding="utf-8" ?>
<svg baseProfile="full" height="100" version="1.1" width="100" xmlns="http://www.w3.org/2000/svg" xmlns:ev="http://www.w3.org/2001/xml-events" xmlns:xlink="http://www.w3.org/1999/xlink"><defs /><polygon fill="none" id="1" points="50,35 49,36 38,36 38,37 39,38 39,39 46,39 47,38 52,38 53,37 54,38 54,40 53,41 53,43 52,44 52,46 51,47 51,49 50,50 45,50 44,51 42,51 41,52 39,52 38,53 37,53 33,57 33,59 32,60 32,62 33,63 33,65 36,68 40,68 41,67 42,67 46,63 46,62 49,59 49,58 50,57 50,56 51,55 51,54 53,52 54,52 55,53 59,53 60,54 62,54 63,55 65,55 66,56 66,57 65,58 65,59 64,60 64,61 63,62 63,63 60,66 59,66 56,69 55,69 54,70 56,72 57,72 58,71 59,71 66,64 66,63 67,62 67,61 68,60 68,58 69,57 70,58 71,58 73,60 74,60 76,62 77,61 77,60 78,59 77,58 76,58 74,56 72,56 71,55 70,55 69,54 69,53 70,52 70,50 71,49 71,44 67,44 67,52 66,53 65,53 64,52 62,52 61,51 58,51 57,50 54,50 53,49 54,48 54,47 55,46 55,44 56,43 56,41 57,40 57,38 58,37 58,36 57,35" stroke="black" stroke-width="1" /><polygon fill="none" id="2" points="45,53 46,52 48,52 49,53 48,54 48,55 46,57 46,58 44,60 44,61 39,66 38,66 35,63 35,60 36,59 36,58 38,56 39,56 41,54 42,54 43,53" stroke="black" stroke-width="1" /></svg>