<?xml version="1.0" encoding="utf-8" ?>
<svg baseProfile="full" height="100" version="1.1" width="100" xmlns="http://www.w3.org/2000/svg" xmlns:ev="http://www.w3.org/2001/xml-events" xmlns:xlink="http://www.w3.org/1999/xlink"><defs /><polygon fill="none" id="1" points="58,43 57,44 49,44 48,45 38,45 38,46 39,47 39,48 45,48 46,47 52,47 53,46 57,46 58,47 49,56 48,56 36,68 35,68 34,69 34,70 36,72 37,72 48,61 49,61 50,60 51,60 52,59 55,59 57,61 57,68 59,70 60,70 61,71 75,71 75,68 71,68 70,69 62,69 60,67 60,59 58,57 54,57 53,58 52,57 52,56 59,49 60,49 63,46 63,45 61,43" stroke="black" stroke-width="1" /><polygon fill="none" id="2" points="46,32 45,33 45,34 47,34 48,35 50,35 51,36 53,36 54,37 56,37 57,38 58,38 59,39 60,39 61,38 61,37 62,36 60,36 59,35 58,35 57,34 54,34 53,33 51,33 50,32" stroke="black" stroke-width="1" /></svg>