<?xml version="1.0" encoding="utf-8" ?>
<svg baseProfile="full" height="100" version="1.1" width="100" xmlns="http://www.w3.org/2000/svg" xmlns:ev="http://www.w3.org/2001/xml-events" xmlns:xlink="http://www.w3.org/1999/xlink"><defs /><polygon fill="none" id="1" points="41,35 40,36 31,36 31,38 32,39 32,40 38,40 39,39 43,39 44,40 44,41 43,42 43,44 42,45 42,48 40,50 37,50 36,51 34,51 33,52 32,52 27,57 27,59 26,60 26,63 27,64 27,66 30,69 34,69 38,65 38,64 40,62 40,61 41,60 41,58 42,57 42,56 43,55 43,54 44,53 45,54 48,54 49,55 51,55 52,56 53,56 54,57 53,58 53,60 52,61 52,62 50,64 50,65 47,68 46,68 44,70 44,71 46,73 48,73 53,68 53,67 55,65 55,64 56,63 56,60 57,59 58,59 62,63 63,63 64,62 64,61 65,60 65,59 63,57 62,57 61,56 60,56 58,54 58,51 59,50 59,44 55,44 55,52 54,53 53,52 52,52 51,51 49,51 48,50 46,50 45,49 45,48 46,47 46,45 47,44 47,41 48,40 48,36 47,35" stroke="black" stroke-width="1" /><polygon fill="none" id="2" points="37,54 38,53 39,53 40,54 39,55 39,56 37,58 37,59 36,60 36,61 34,63 34,64 32,66 30,64 30,60 31,59 31,58 34,55 35,55 36,54" stroke="black" stroke-width="1" /></svg>