<?xml version="1.0" encoding="utf-8" ?>
<svg baseProfile="full" height="100" version="1.1" width="100" xmlns="http://www.w3.org/2000/svg" xmlns:ev="http://www.w3.org/2001/xml-events" xmlns:xlink="http://www.w3.org/1999/xlink"><defs /><polygon fill="none" id="1" points="46,35 45,36 35,36 35,38 36,39 36,40 43,40 44,39 48,39 49,40 48,41 48,44 47,45 47,47 46,48 46,49 45,50 41,50 40,51 38,51 37,52 36,52 35,53 34,53 30,57 30,59 29,60 29,63 30,64 30,66 33,69 37,69 38,68 39,68 43,64 43,63 44,62 44,61 46,59 46,58 47,57 47,55 49,53 50,54 53,54 54,55 56,55 57,56 59,56 60,57 59,58 59,59 58,60 58,61 57,62 57,63 51,69 50,69 49,70 49,71 51,73 53,73 56,70 57,70 58,69 58,68 61,65 61,64 62,63 62,61 64,59 65,60 66,60 69,63 70,63 71,62 71,61 72,60 72,59 70,57 69,57 68,56 67,56 66,55 65,55 64,54 65,53 65,44 61,44 61,52 60,53 59,52 58,52 57,51 54,51 53,50 51,50 50,49 50,48 51,47 51,45 52,44 52,42 53,41 53,39 54,38 54,36 53,36 52,35" stroke="black" stroke-width="1" /><polygon fill="none" id="2" points="39,55 40,54 42,54 43,55 43,56 42,57 42,58 40,60 40,61 38,63 38,64 36,66 35,66 34,65 34,64 33,63 33,61 34,60 34,59 38,55" stroke="black" stroke-width="1" /><polygon fill="none" id="3" points="42,54 43,53 44,54 43,55" stroke="black" stroke-width="1" /></svg>