<?xml version="1.0" encoding="utf-8" ?>
<svg baseProfile="full" height="100" version="1.1" width="100" xmlns="http://www.w3.org/2000/svg" xmlns:ev="http://www.w3.org/2001/xml-events" xmlns:xlink="http://www.w3.org/1999/xlink"><defs /><polygon fill="none" id="1" points="50,35 49,36 38,36 38,38 39,39 39,40 47,40 48,39 53,39 54,40 53,41 53,43 52,44 52,46 51,47 51,49 50,50 45,50 44,51 42,51 41,52 39,52 38,53 37,53 33,57 33,59 32,60 32,63 33,64 33,66 36,69 41,69 42,68 43,68 47,64 47,63 50,60 50,59 51,58 51,57 52,56 52,55 54,53 55,54 59,54 60,55 62,55 63,56 65,56 66,57 65,58 65,59 64,60 64,61 63,62 63,63 60,66 59,66 56,69 55,69 54,70 54,71 56,73 58,73 59,72 60,72 67,65 67,64 68,63 68,62 69,61 69,60 70,59 71,59 73,61 74,61 76,63 77,63 78,62 78,61 79,60 79,59 78,58 77,58 75,56 73,56 72,55 71,55 70,54 71,53 71,51 72,50 72,44 67,44 67,52 66,53 65,52 63,52 62,51 59,51 58,50 56,50 55,49 55,48 56,47 56,45 57,44 57,42 58,41 58,39 59,38 59,36 58,35" stroke="black" stroke-width="1" /><polygon fill="none" id="2" points="46,54 47,53 48,54 48,55 46,57 46,58 44,60 44,61 39,66 36,63 36,61 37,60 37,59 39,57 40,57 42,55 43,55 44,54" stroke="black" stroke-width="1" /></svg>