<?xml version="1.0" encoding="utf-8" ?>
<svg baseProfile="full" height="100" version="1.1" width="100" xmlns="http://www.w3.org/2000/svg" xmlns:ev="http://www.w3.org/2001/xml-events" xmlns:xlink="http://www.w3.org/1999/xlink"><defs /><polygon fill="none" id="1" points="55,35 54,36 42,36 42,38 43,39 43,40 51,40 52,39 57,39 58,38 59,39 59,40 58,41 58,43 57,44 57,45 56,46 56,47 55,48 55,49 54,50 49,50 48,51 45,51 44,52 43,52 42,53 41,53 40,54 39,54 36,57 36,59 35,60 35,63 36,64 36,66 38,68 39,68 40,69 45,69 46,68 47,68 53,62 53,61 55,59 55,58 56,57 56,56 59,53 60,54 64,54 65,55 68,55 69,56 71,56 72,57 71,58 71,59 70,60 70,61 63,68 62,68 61,69 60,69 59,70 59,71 60,72 61,72 62,73 63,73 64,72 65,72 67,70 68,70 73,65 73,64 74,63 74,62 75,61 75,60 76,59 77,59 78,60 79,60 80,61 81,61 83,63 84,63 85,62 85,61 86,60 87,60 87,59 86,58 84,58 83,57 82,57 81,56 80,56 79,55 78,55 77,54 77,53 78,52 78,44 73,44 73,46 74,47 73,48 73,52 72,53 71,52 69,52 68,51 64,51 63,50 61,50 60,49 60,48 61,47 61,46 62,45 62,43 63,42 63,41 64,40 64,38 65,37 65,36 64,36 63,35" stroke="black" stroke-width="1" /><polygon fill="none" id="2" points="50,54 51,53 52,53 53,54 51,56 51,57 48,60 48,61 43,66 42,66 40,64 40,60 44,56 45,56 46,55 47,55 48,54" stroke="black" stroke-width="1" /></svg>