<?xml version="1.0" encoding="utf-8" ?>
<svg baseProfile="full" height="100" version="1.1" width="100" xmlns="http://www.w3.org/2000/svg" xmlns:ev="http://www.w3.org/2001/xml-events" xmlns:xlink="http://www.w3.org/1999/xlink"><defs /><polygon fill="none" id="1" points="37,36 36,37 29,37 29,38 30,39 33,39 34,38 37,38 38,37 39,37 40,38 40,42 39,43 39,47 38,48 38,50 37,51 34,51 33,52 31,52 30,53 29,53 26,56 26,57 25,58 25,61 24,62 25,63 25,65 26,66 26,67 27,68 29,68 33,64 33,63 34,62 34,61 35,60 35,59 36,58 36,56 37,55 37,53 38,52 40,52 41,53 43,53 44,54 46,54 47,55 48,55 49,56 49,58 48,59 48,61 47,62 47,63 46,64 46,65 41,70 41,71 42,71 46,67 46,66 48,64 48,62 49,61 49,59 50,58 52,58 55,61 56,61 56,59 55,58 54,58 52,56 51,56 50,55 50,53 51,52 51,45 50,45 50,53 49,54 47,54 46,53 45,53 44,52 42,52 41,51 40,51 39,50 39,47 40,46 40,44 41,43 41,39 42,38 42,37 41,36" stroke="black" stroke-width="1" /><polygon fill="none" id="2" points="32,53 33,52 35,52 36,53 36,56 35,57 35,58 34,59 34,60 33,61 33,62 32,63 32,64 29,67 27,67 26,66 26,64 25,63 25,62 26,61 26,58 31,53" stroke="black" stroke-width="1" /></svg>