<?xml version="1.0" encoding="utf-8" ?>
<svg baseProfile="full" height="100" version="1.1" width="100" xmlns="http://www.w3.org/2000/svg" xmlns:ev="http://www.w3.org/2001/xml-events" xmlns:xlink="http://www.w3.org/1999/xlink"><defs /><polygon fill="none" id="1" points="42,36 41,37 32,37 33,38 33,39 37,39 38,38 42,38 43,37 44,37 45,38 45,42 44,43 44,45 43,46 43,49 41,51 38,51 37,52 35,52 34,53 33,53 28,58 28,60 27,61 27,62 28,63 28,65 31,68 33,68 37,64 37,63 39,61 39,60 40,59 40,57 41,56 41,55 42,54 42,53 43,52 45,52 46,53 49,53 50,54 52,54 53,55 54,55 55,56 55,58 54,59 54,61 53,62 53,63 51,65 51,66 48,69 47,69 46,70 46,71 47,72 52,67 52,66 54,64 54,63 55,62 55,59 56,58 59,58 62,61 63,61 63,59 62,58 61,58 60,57 59,57 57,55 57,50 58,49 58,45 56,45 56,53 55,54 53,54 52,53 51,53 50,52 48,52 47,51 44,51 43,50 43,49 44,48 44,47 45,46 45,44 46,43 46,40 47,39 47,37 46,36" stroke="black" stroke-width="1" /><polygon fill="none" id="2" points="36,53 37,52 40,52 41,53 41,55 40,56 40,57 38,59 38,60 37,61 37,62 35,64 35,65 33,67 31,67 29,65 29,59 30,58 30,57 33,54 34,54 35,53" stroke="black" stroke-width="1" /></svg>