<?xml version="1.0" encoding="utf-8" ?>
<svg baseProfile="full" height="100" version="1.1" width="100" xmlns="http://www.w3.org/2000/svg" xmlns:ev="http://www.w3.org/2001/xml-events" xmlns:xlink="http://www.w3.org/1999/xlink"><defs /><polygon fill="none" id="1" points="47,36 46,37 36,37 37,38 37,39 42,39 43,38 47,38 48,37 49,37 50,38 50,41 49,42 49,45 48,46 48,48 47,49 47,50 46,51 42,51 41,52 39,52 38,53 37,53 36,54 35,54 31,58 31,60 30,61 30,62 31,63 31,65 34,68 36,68 37,67 38,67 42,63 42,62 43,61 43,60 45,58 45,57 46,56 46,54 48,52 50,52 51,53 54,53 55,54 57,54 58,55 60,55 61,56 61,58 60,59 60,60 59,61 59,62 58,63 58,64 52,70 51,70 51,71 52,72 55,69 56,69 57,68 57,67 60,64 60,63 61,62 61,60 62,59 62,58 63,57 64,57 66,59 67,59 69,61 70,61 70,59 69,58 68,58 67,57 66,57 65,56 64,56 63,55 63,53 64,52 64,45 62,45 62,53 61,54 59,54 58,53 57,53 56,52 53,52 52,51 49,51 48,50 48,49 49,48 49,47 50,46 50,44 51,43 51,41 52,40 52,38 53,37 52,37 51,36" stroke="black" stroke-width="1" /><polygon fill="none" id="2" points="41,53 42,52 44,52 45,53 45,55 44,56 44,57 43,58 43,59 41,61 41,62 39,64 39,65 37,67 34,67 33,66 33,65 32,64 32,60 33,59 33,58 37,54 38,54 39,53" stroke="black" stroke-width="1" /></svg>