<?xml version="1.0" encoding="utf-8" ?>
<svg baseProfile="full" height="100" version="1.1" width="100" xmlns="http://www.w3.org/2000/svg" xmlns:ev="http://www.w3.org/2001/xml-events" xmlns:xlink="http://www.w3.org/1999/xlink"><defs /><polygon fill="none" id="1" points="63,43 62,44 53,44 52,45 42,45 42,48 49,48 50,47 57,47 58,46 62,46 63,47 58,52 57,52 50,59 49,59 42,66 41,66 38,69 37,69 37,70 39,72 40,72 45,67 46,67 51,62 52,62 53,61 54,61 55,60 56,60 57,59 60,59 62,61 62,67 63,68 63,69 64,69 65,70 66,70 67,71 82,71 82,69 81,68 78,68 77,69 68,69 66,67 66,60 65,59 65,58 64,58 63,57 59,57 58,58 57,58 56,57 61,52 62,52 67,47 68,47 69,46 69,45 67,43" stroke="black" stroke-width="1" /><polygon fill="none" id="2" points="50,32 49,33 49,34 51,34 52,35 55,35 56,36 58,36 59,37 61,37 62,38 63,38 64,39 65,39 67,37 67,36 66,36 65,35 63,35 62,34 59,34 58,33 56,33 55,32" stroke="black" stroke-width="1" /></svg>