<?xml version="1.0" encoding="utf-8" ?>
<svg baseProfile="full" height="100" version="1.1" width="100" xmlns="http://www.w3.org/2000/svg" xmlns:ev="http://www.w3.org/2001/xml-events" xmlns:xlink="http://www.w3.org/1999/xlink"><defs /><polygon fill="none" id="1" points="56,36 55,37 43,37 44,38 44,39 50,39 51,38 56,38 57,37 59,37 60,38 60,41 59,42 59,44 58,45 58,46 57,47 57,48 56,49 56,50 55,51 50,51 49,52 46,52 45,53 44,53 43,54 42,54 41,55 40,55 37,58 37,60 36,61 36,62 37,63 37,65 39,67 40,67 41,68 44,68 45,67 46,67 52,61 52,60 54,58 54,57 55,56 55,55 58,52 60,52 61,53 65,53 66,54 69,54 70,55 72,55 73,56 73,58 72,59 72,60 71,61 71,62 64,69 63,69 62,70 61,70 61,71 64,71 66,69 67,69 72,64 72,63 73,62 73,61 74,60 74,59 76,57 77,57 79,59 80,59 81,60 82,60 83,61 84,61 84,60 85,59 83,59 82,58 81,58 80,57 79,57 78,56 77,56 76,55 76,52 77,51 77,45 74,45 75,46 75,48 74,49 74,53 73,54 71,54 70,53 68,53 67,52 63,52 62,51 59,51 58,50 58,49 59,48 59,47 60,46 60,45 61,44 61,42 62,41 62,40 63,39 63,37 62,36" stroke="black" stroke-width="1" /><polygon fill="none" id="2" points="49,53 50,52 53,52 54,53 54,55 52,57 52,58 49,61 49,62 44,67 41,67 39,65 39,59 43,55 44,55 45,54 46,54 47,53" stroke="black" stroke-width="1" /></svg>