<?xml version="1.0" encoding="utf-8" ?>
<svg baseProfile="full" height="100" version="1.1" width="100" xmlns="http://www.w3.org/2000/svg" xmlns:ev="http://www.w3.org/2001/xml-events" xmlns:xlink="http://www.w3.org/1999/xlink"><defs /><polygon fill="none" id="1" points="35,34 34,35 27,35 27,39 28,40 34,40 35,39 37,39 38,40 37,41 37,45 36,46 36,48 35,49 32,49 31,50 29,50 28,51 27,51 24,54 24,55 23,56 23,59 22,60 22,63 23,64 23,66 24,67 24,68 25,69 30,69 34,65 34,64 35,63 35,62 36,61 36,60 37,59 37,57 38,56 38,55 39,54 41,54 42,55 44,55 46,57 46,59 45,60 45,61 44,62 44,63 38,69 38,71 40,73 42,73 47,68 47,67 49,65 49,63 50,62 50,61 51,60 54,63 56,63 57,62 57,61 58,60 58,58 56,56 55,56 52,53 52,43 48,43 48,50 47,51 46,51 45,50 43,50 42,49 41,49 40,48 41,47 41,45 42,44 42,40 43,39 43,35 42,34" stroke="black" stroke-width="1" /><polygon fill="none" id="2" points="32,54 33,55 33,56 32,57 32,58 31,59 31,60 30,61 30,62 28,64 27,63 27,59" stroke="black" stroke-width="1" /></svg>