<?xml version="1.0" encoding="utf-8" ?>
<svg baseProfile="full" height="100" version="1.1" width="100" xmlns="http://www.w3.org/2000/svg" xmlns:ev="http://www.w3.org/2001/xml-events" xmlns:xlink="http://www.w3.org/1999/xlink"><defs /><polygon fill="none" id="1" points="40,34 39,35 30,35 30,38 31,39 31,40 38,40 39,39 42,39 43,40 42,41 42,43 41,44 41,47 39,49 36,49 35,50 33,50 32,51 31,51 26,56 26,58 25,59 25,63 26,64 26,66 29,69 34,69 38,65 38,64 40,62 40,61 41,60 41,58 42,57 42,56 44,54 47,54 48,55 50,55 52,57 52,59 51,60 51,61 49,63 49,64 46,67 45,67 43,69 43,71 45,73 48,73 53,68 53,67 55,65 55,64 56,63 56,60 57,59 61,63 63,63 64,62 64,61 65,60 65,58 63,56 62,56 61,55 60,55 58,53 58,51 59,50 59,43 54,43 54,50 53,51 52,51 51,50 49,50 48,49 46,49 45,48 46,47 46,45 47,44 47,41 48,40 48,35 47,34" stroke="black" stroke-width="1" /><polygon fill="none" id="2" points="35,55 36,54 37,54 38,55 36,57 36,58 35,59 35,60 33,62 33,63 32,64 31,64 30,63 30,60 31,59 31,58 34,55" stroke="black" stroke-width="1" /></svg>