<?xml version="1.0" encoding="utf-8" ?>
<svg baseProfile="full" height="100" version="1.1" width="100" xmlns="http://www.w3.org/2000/svg" xmlns:ev="http://www.w3.org/2001/xml-events" xmlns:xlink="http://www.w3.org/1999/xlink"><defs /><polygon fill="none" id="1" points="45,34 44,35 34,35 34,38 35,39 35,40 43,40 44,39 46,39 47,40 47,43 46,44 46,46 45,47 45,48 44,49 40,49 39,50 37,50 36,51 35,51 34,52 33,52 29,56 29,58 28,59 28,63 29,64 29,66 32,69 37,69 38,68 39,68 43,64 43,63 44,62 44,61 46,59 46,58 47,57 47,55 48,54 52,54 53,55 55,55 56,56 57,56 58,57 58,58 57,59 57,60 56,61 56,62 50,68 49,68 48,69 48,71 50,73 53,73 56,70 57,70 58,69 58,68 61,65 61,64 62,63 62,61 63,60 65,60 68,63 70,63 71,62 71,61 72,60 72,58 70,56 69,56 68,55 67,55 65,53 65,43 60,43 60,50 59,51 58,51 57,50 54,50 53,49 51,49 50,48 51,47 51,45 52,44 52,42 53,41 53,39 54,38 54,35 53,35 52,34" stroke="black" stroke-width="1" /><polygon fill="none" id="2" points="39,55 40,54 41,54 42,55 41,56 41,57 39,59 39,60 37,62 37,63 35,65 34,64 34,63 33,62 33,61 34,60 34,59 38,55" stroke="black" stroke-width="1" /></svg>