<?xml version="1.0" encoding="utf-8" ?>
<svg baseProfile="full" height="100" version="1.1" width="100" xmlns="http://www.w3.org/2000/svg" xmlns:ev="http://www.w3.org/2001/xml-events" xmlns:xlink="http://www.w3.org/1999/xlink"><defs /><polygon fill="none" id="1" points="49,34 48,35 37,35 37,38 38,39 38,40 47,40 48,39 51,39 52,40 52,42 51,43 51,45 50,46 50,48 49,49 44,49 43,50 41,50 40,51 38,51 37,52 36,52 32,56 32,58 31,59 31,63 32,64 32,66 35,69 41,69 42,68 43,68 47,64 47,63 50,60 50,59 51,58 51,57 52,56 52,55 53,54 58,54 59,55 61,55 62,56 63,56 64,57 64,58 63,59 63,60 62,61 62,62 59,65 58,65 55,68 54,68 53,69 53,71 55,73 58,73 59,72 60,72 67,65 67,64 68,63 68,62 69,61 69,60 70,59 72,61 73,61 75,63 77,63 78,62 78,61 79,60 79,58 78,57 77,57 75,55 73,55 71,53 71,51 72,50 72,43 66,43 66,50 65,51 63,51 62,50 59,50 58,49 56,49 55,48 56,47 56,45 57,44 57,42 58,41 58,39 59,38 59,35 58,34" stroke="black" stroke-width="1" /><polygon fill="none" id="2" points="43,55 44,54 45,54 46,55 45,56 45,57 43,59 43,60 39,64 38,64 36,62 36,61 37,60 37,59 39,57 40,57 42,55" stroke="black" stroke-width="1" /></svg>