<?xml version="1.0" encoding="utf-8" ?>
<svg baseProfile="full" height="100" version="1.1" width="100" xmlns="http://www.w3.org/2000/svg" xmlns:ev="http://www.w3.org/2001/xml-events" xmlns:xlink="http://www.w3.org/1999/xlink"><defs /><polygon fill="none" id="1" points="54,34 53,35 41,35 41,38 42,39 42,40 51,40 52,39 56,39 57,40 57,42 56,43 56,44 55,45 55,46 54,47 54,48 53,49 48,49 47,50 44,50 43,51 42,51 41,52 40,52 39,53 38,53 35,56 35,58 34,59 34,63 35,64 35,66 37,68 38,68 39,69 45,69 46,68 47,68 53,62 53,61 55,59 55,58 56,57 56,56 58,54 63,54 64,55 67,55 68,56 69,56 70,57 70,58 69,59 69,60 62,67 61,67 60,68 59,68 58,69 58,71 59,72 60,72 61,73 63,73 64,72 65,72 67,70 68,70 73,65 73,64 74,63 74,62 75,61 75,60 76,59 77,60 78,60 79,61 80,61 82,63 84,63 85,62 85,61 86,60 87,60 87,58 86,57 84,57 83,56 82,56 81,55 80,55 79,54 78,54 77,53 78,52 78,43 72,43 72,50 71,51 69,51 68,50 64,50 63,49 61,49 60,48 61,47 61,46 62,45 62,43 63,42 63,41 64,40 64,38 65,37 65,35 64,35 63,34" stroke="black" stroke-width="1" /><polygon fill="none" id="2" points="47,55 48,54 49,54 50,55 50,56 47,59 47,60 42,65 40,63 40,60 44,56 45,56 46,55" stroke="black" stroke-width="1" /></svg>