<?xml version="1.0" encoding="utf-8" ?>
<svg baseProfile="full" height="100" version="1.1" width="100" xmlns="http://www.w3.org/2000/svg" xmlns:ev="http://www.w3.org/2001/xml-events" xmlns:xlink="http://www.w3.org/1999/xlink"><defs /><polygon fill="none" id="1" points="27,67 28,67" stroke="black" stroke-width="1" /><polygon fill="none" id="2" points="45,66 41,70" stroke="black" stroke-width="1" /><polygon fill="none" id="3" points="25,64" stroke="black" stroke-width="1" /><polygon fill="none" id="4" points="32,63" stroke="black" stroke-width="1" /><polygon fill="none" id="5" points="47,62 47,63 46,64 47,63" stroke="black" stroke-width="1" /><polygon fill="none" id="6" points="33,61" stroke="black" stroke-width="1" /><polygon fill="none" id="7" points="48,59 48,60" stroke="black" stroke-width="1" /><polygon fill="none" id="8" points="34,59" stroke="black" stroke-width="1" /><polygon fill="none" id="9" points="25,58 25,60" stroke="black" stroke-width="1" /><polygon fill="none" id="10" points="35,57" stroke="black" stroke-width="1" /><polygon fill="none" id="11" points="47,54 48,54 49,55 49,57 52,57 55,60 55,59 54,58 53,58 51,56 50,56 49,55 49,54" stroke="black" stroke-width="1" /><polygon fill="none" id="12" points="29,53 26,56" stroke="black" stroke-width="1" /><polygon fill="none" id="13" points="31,52" stroke="black" stroke-width="1" /><polygon fill="none" id="14" points="38,48 38,50 37,51 34,51 35,51 36,52 36,54 36,52 37,51 40,51 41,52 43,52 44,53 45,53 44,53 43,52 41,52 40,51 39,51 38,50" stroke="black" stroke-width="1" /><polygon fill="none" id="15" points="50,45 50,51" stroke="black" stroke-width="1" /><polygon fill="none" id="16" points="37,36 36,37 29,37 30,38 32,38 33,37 36,37 37,36 39,36 40,37 40,42 39,43 39,45 39,43 40,42 40,38 41,37 40,36" stroke="black" stroke-width="1" /></svg>