<?xml version="1.0" encoding="utf-8" ?>
<svg baseProfile="full" height="100" version="1.1" width="100" xmlns="http://www.w3.org/2000/svg" xmlns:ev="http://www.w3.org/2001/xml-events" xmlns:xlink="http://www.w3.org/1999/xlink"><defs /><polygon fill="none" id="1" points="31,67 32,67" stroke="black" stroke-width="1" /><polygon fill="none" id="2" points="36,63 35,64" stroke="black" stroke-width="1" /><polygon fill="none" id="3" points="54,59 54,61 53,62 53,63 51,65 51,66 48,69 47,69 46,70 47,70 51,66 51,65 53,63 53,62 54,61" stroke="black" stroke-width="1" /><polygon fill="none" id="4" points="39,58 38,59 38,60 37,61 38,60 38,59" stroke="black" stroke-width="1" /><polygon fill="none" id="5" points="29,57 28,58 28,60 27,61 28,62 28,64 28,58" stroke="black" stroke-width="1" /><polygon fill="none" id="6" points="33,53" stroke="black" stroke-width="1" /><polygon fill="none" id="7" points="35,52" stroke="black" stroke-width="1" /><polygon fill="none" id="8" points="42,50 41,51 38,51 40,51 41,52 41,53 41,52 42,51 45,51 46,52 49,52 50,53 51,53 50,53 49,52 47,52 46,51 43,51" stroke="black" stroke-width="1" /><polygon fill="none" id="9" points="56,45 56,53 55,54 53,54 54,54 55,55 55,57 59,57 62,60 62,59 61,58 60,58 59,57 58,57 56,55 56,49 57,48 57,45" stroke="black" stroke-width="1" /><polygon fill="none" id="10" points="42,36 41,37 33,37 33,38 36,38 37,37 41,37 42,36 44,36 45,37 45,42 44,43 44,45 43,46 43,47 43,46 44,45 44,43 45,42 45,39 46,38 46,37 45,36" stroke="black" stroke-width="1" /></svg>