<?xml version="1.0" encoding="utf-8" ?>
<svg baseProfile="full" height="100" version="1.1" width="100" xmlns="http://www.w3.org/2000/svg" xmlns:ev="http://www.w3.org/2001/xml-events" xmlns:xlink="http://www.w3.org/1999/xlink"><defs /><polygon fill="none" id="1" points="34,67 35,67" stroke="black" stroke-width="1" /><polygon fill="none" id="2" points="42,60 41,61 41,62 39,64 41,62 41,61" stroke="black" stroke-width="1" /><polygon fill="none" id="3" points="35,54 31,58 31,60 30,61 31,62 31,64 32,65 31,64 31,59 32,58 32,57" stroke="black" stroke-width="1" /><polygon fill="none" id="4" points="37,53" stroke="black" stroke-width="1" /><polygon fill="none" id="5" points="39,52 40,52" stroke="black" stroke-width="1" /><polygon fill="none" id="6" points="62,45 62,53 61,54 58,54 57,53 56,53 55,52 52,52 51,51 48,51 47,50 47,49 47,50 46,51 42,51 44,51 45,52 45,55 44,56 44,57 43,58 44,57 44,56 45,55 45,53 47,51 50,51 51,52 54,52 55,53 57,53 58,54 60,54 61,55 61,58 60,59 60,60 59,61 59,62 58,63 58,64 52,70 51,70 52,70 54,68 55,68 56,67 56,66 59,63 59,62 60,61 60,59 61,58 61,57 62,56 64,56 66,58 67,58 69,60 69,59 68,58 67,58 66,57 65,57 64,56 63,56 62,55 62,52 63,51 63,45" stroke="black" stroke-width="1" /><polygon fill="none" id="7" points="47,36 46,37 37,37 37,38 41,38 42,37 46,37 47,36 49,36 50,37 50,41 49,42 49,45 48,46 48,47 48,46 49,45 49,43 50,42 50,40 51,39 51,37 50,36" stroke="black" stroke-width="1" /></svg>