<?xml version="1.0" encoding="utf-8" ?>
<svg baseProfile="full" height="100" version="1.1" width="100" xmlns="http://www.w3.org/2000/svg" xmlns:ev="http://www.w3.org/2001/xml-events" xmlns:xlink="http://www.w3.org/1999/xlink"><defs /><polygon fill="none" id="1" points="40,53 39,54 38,54 34,58 34,60 33,61 34,62 34,64 37,67 39,67 37,67 34,64 34,59 35,58 35,57 37,55 38,55 40,53 41,53" stroke="black" stroke-width="1" /><polygon fill="none" id="2" points="43,52 44,52" stroke="black" stroke-width="1" /><polygon fill="none" id="3" points="51,36 50,37 40,37 40,38 45,38 46,37 51,37 52,36 54,36 55,37 55,41 54,42 54,44 53,45 53,47 52,48 52,50 51,51 46,51 49,51 50,52 50,54 49,55 49,56 47,58 47,59 45,61 45,62 41,66 45,62 45,61 48,58 48,57 49,56 49,55 50,54 50,53 52,51 55,51 56,52 60,52 61,53 63,53 64,54 66,54 67,55 67,58 66,59 66,60 65,61 65,62 64,63 64,64 61,67 60,67 57,70 56,70 58,70 65,63 65,62 66,61 66,60 67,59 67,57 68,56 70,56 71,57 72,57 74,59 75,59 76,60 76,59 75,59 73,57 71,57 70,56 69,56 68,55 68,52 69,51 69,49 70,48 70,45 68,45 68,53 67,54 64,54 63,53 61,53 60,52 57,52 56,51 53,51 52,50 52,48 53,47 53,46 54,45 54,43 55,42 55,40 56,39 56,36" stroke="black" stroke-width="1" /></svg>