<?xml version="1.0" encoding="utf-8" ?>
<svg baseProfile="full" height="100" version="1.1" width="100" xmlns="http://www.w3.org/2000/svg" xmlns:ev="http://www.w3.org/2001/xml-events" xmlns:xlink="http://www.w3.org/1999/xlink"><defs /><polygon fill="none" id="1" points="42,43 41,44 35,44 34,45 28,45 28,48 33,48 34,47 37,47 38,46 41,46 42,47 40,49 40,50 37,53 37,54 35,56 35,57 31,61 31,62 28,65 28,66 25,69 25,71 26,72 27,72 27,71 29,69 29,68 32,65 32,64 36,60 37,60 38,59 40,59 41,60 41,61 42,62 42,69 43,70 44,70 45,71 54,71 54,68 52,68 51,69 45,69 44,68 44,61 43,60 43,58 42,57 39,57 38,56 38,55 42,51 42,50 46,46 46,45 44,43" stroke="black" stroke-width="1" /><polygon fill="none" id="2" points="37,57 38,56 39,57 38,58" stroke="black" stroke-width="1" /><polygon fill="none" id="3" points="33,32 33,34 34,34 35,35 36,35 37,36 39,36 41,38 42,38 43,39 44,38 44,37 45,36 44,36 43,35 42,35 41,34 40,34 39,33 37,33 36,32" stroke="black" stroke-width="1" /></svg>