<?xml version="1.0" encoding="utf-8" ?>
<svg baseProfile="full" height="100" version="1.1" width="100" xmlns="http://www.w3.org/2000/svg" xmlns:ev="http://www.w3.org/2001/xml-events" xmlns:xlink="http://www.w3.org/1999/xlink"><defs /><polygon fill="none" id="1" points="41,67 43,67" stroke="black" stroke-width="1" /><polygon fill="none" id="2" points="46,52 45,53 44,53 43,54 42,54 41,55 40,55 37,58 37,60 36,61 37,62 37,64 39,66 38,65 38,58 42,54 43,54 44,53 45,53 46,52 48,52" stroke="black" stroke-width="1" /><polygon fill="none" id="3" points="56,36 55,37 44,37 44,38 49,38 50,37 55,37 56,36 59,36 60,37 60,41 59,42 59,44 58,45 58,46 57,47 57,48 56,49 56,50 55,51 50,51 53,51 54,52 54,55 52,57 52,58 49,61 49,62 45,66 51,60 51,59 53,57 53,56 54,55 54,54 57,51 60,51 61,52 65,52 66,53 69,53 70,54 72,54 73,55 73,58 72,59 72,60 71,61 71,62 64,69 63,69 62,70 61,70 63,70 65,68 66,68 71,63 71,62 72,61 72,60 73,59 73,58 75,56 77,56 79,58 80,58 81,59 82,59 83,60 83,59 82,59 81,58 80,58 79,57 78,57 77,56 76,56 75,55 75,51 76,50 76,45 75,45 75,48 74,49 74,53 73,54 70,54 69,53 67,53 66,52 62,52 61,51 58,51 57,50 57,48 58,47 58,46 59,45 59,44 60,43 60,41 61,40 61,39 62,38 62,37 61,36" stroke="black" stroke-width="1" /></svg>