<?xml version="1.0" encoding="utf-8" ?>
<svg baseProfile="full" height="100" version="1.1" width="100" xmlns="http://www.w3.org/2000/svg" xmlns:ev="http://www.w3.org/2001/xml-events" xmlns:xlink="http://www.w3.org/1999/xlink"><defs /><polygon fill="none" id="1" points="48,39 47,40 47,41 52,46 52,47 54,49 54,50 55,51 56,50 56,49 57,48 54,45 54,44 50,40 50,39" stroke="black" stroke-width="1" /><polygon fill="none" id="2" points="32,32 31,33 31,37 32,38 32,39 31,40 23,40 23,42 30,42 31,43 31,48 30,49 28,49 27,50 26,50 25,51 25,52 24,53 24,61 26,63 29,63 30,64 30,69 31,70 32,70 33,71 45,71 46,70 48,70 50,68 50,67 51,66 51,59 50,58 50,55 47,55 47,56 48,57 48,60 49,61 49,64 48,65 48,66 46,68 44,68 43,69 34,69 32,67 32,61 33,60 33,59 34,58 34,53 33,52 33,43 34,42 38,42 39,41 41,41 41,38 40,38 39,39 36,39 35,40 33,38 33,37 34,36 34,32" stroke="black" stroke-width="1" /><polygon fill="none" id="3" points="29,50 30,50 31,51 31,52 32,53 32,57 31,58 31,59 29,61 27,61 26,60 26,53" stroke="black" stroke-width="1" /></svg>