<?xml version="1.0" encoding="utf-8" ?>
<svg baseProfile="full" height="100" version="1.1" width="100" xmlns="http://www.w3.org/2000/svg" xmlns:ev="http://www.w3.org/2001/xml-events" xmlns:xlink="http://www.w3.org/1999/xlink"><defs /><polygon fill="none" id="1" points="55,39 54,40 53,40 53,41 60,48 60,49 62,51 64,49 64,48 60,44 60,43 56,39" stroke="black" stroke-width="1" /><polygon fill="none" id="2" points="36,32 35,33 35,39 34,40 26,40 26,42 34,42 35,43 35,48 34,49 31,49 27,53 27,60 28,61 28,62 29,62 30,63 33,63 34,64 33,65 33,68 35,70 36,70 37,71 51,71 52,70 54,70 57,67 57,56 56,55 53,55 53,56 54,57 54,59 55,60 55,64 54,65 54,66 52,68 50,68 49,69 39,69 38,68 37,68 36,67 36,62 37,61 37,60 38,59 38,52 37,51 38,50 38,43 39,42 42,42 43,41 47,41 47,39 46,38 45,38 44,39 40,39 39,40 38,39 38,32" stroke="black" stroke-width="1" /><polygon fill="none" id="3" points="32,50 34,50 35,51 35,52 36,53 36,57 35,58 35,59 33,61 31,61 29,59 29,54 30,53 30,52" stroke="black" stroke-width="1" /></svg>