<?xml version="1.0" encoding="utf-8" ?>
<svg baseProfile="full" height="100" version="1.1" width="100" xmlns="http://www.w3.org/2000/svg" xmlns:ev="http://www.w3.org/2001/xml-events" xmlns:xlink="http://www.w3.org/1999/xlink"><defs /><polygon fill="none" id="1" points="61,39 60,40 59,40 59,41 60,42 61,42 66,47 66,48 69,51 71,49 71,48 62,39" stroke="black" stroke-width="1" /><polygon fill="none" id="2" points="40,32 39,33 39,39 38,40 29,40 29,42 38,42 39,43 39,48 38,49 34,49 30,53 30,60 31,61 31,62 32,62 33,63 36,63 37,64 37,68 39,70 40,70 41,71 56,71 57,70 60,70 61,69 62,69 63,68 63,66 64,65 64,60 63,59 63,55 59,55 59,56 60,57 60,59 61,60 61,65 58,68 55,68 54,69 43,69 42,68 41,68 40,67 40,62 41,61 41,60 42,59 42,56 43,55 42,54 42,43 43,42 47,42 48,41 52,41 52,38 50,38 49,39 45,39 44,40 43,40 42,39 42,32" stroke="black" stroke-width="1" /><polygon fill="none" id="3" points="36,50 38,50 39,51 39,52 40,53 40,57 39,58 39,59 37,61 34,61 33,60 33,59 32,58 32,55 33,54 33,53" stroke="black" stroke-width="1" /></svg>