<?xml version="1.0" encoding="utf-8" ?>
<svg baseProfile="full" height="100" version="1.1" width="100" xmlns="http://www.w3.org/2000/svg" xmlns:ev="http://www.w3.org/2001/xml-events" xmlns:xlink="http://www.w3.org/1999/xlink"><defs /><polygon fill="none" id="1" points="67,39 66,40 65,40 65,41 66,42 67,42 76,51 78,49 78,48 71,41 70,41 68,39" stroke="black" stroke-width="1" /><polygon fill="none" id="2" points="44,32 43,33 43,39 42,40 32,40 32,42 42,42 43,43 43,48 42,49 38,49 37,50 36,50 34,52 34,53 33,54 33,60 34,61 34,62 35,62 36,63 40,63 41,64 41,68 43,70 45,70 46,71 62,71 63,70 66,70 67,69 68,69 69,68 69,67 70,66 70,58 69,57 69,55 65,55 65,56 66,57 66,59 67,60 67,65 64,68 61,68 60,69 47,69 46,68 45,68 44,67 44,62 45,61 45,60 46,59 46,58 47,57 47,54 46,53 46,43 47,42 52,42 53,41 57,41 57,38 55,38 54,39 49,39 48,40 47,40 46,39 46,35 47,34 47,33 46,32" stroke="black" stroke-width="1" /><polygon fill="none" id="3" points="39,50 42,50 43,51 43,52 44,53 44,57 43,58 43,59 41,61 38,61 35,58 35,55 36,54 36,53" stroke="black" stroke-width="1" /></svg>