<?xml version="1.0" encoding="utf-8" ?>
<svg baseProfile="full" height="100" version="1.1" width="100" xmlns="http://www.w3.org/2000/svg" xmlns:ev="http://www.w3.org/2001/xml-events" xmlns:xlink="http://www.w3.org/1999/xlink"><defs /><polygon fill="none" id="1" points="73,39 72,40 71,40 71,41 72,42 73,42 75,44 76,44 83,51 86,48 85,48 80,43 79,43 75,39" stroke="black" stroke-width="1" /><polygon fill="none" id="2" points="48,32 47,33 47,39 46,40 35,40 35,42 46,42 47,43 47,48 46,49 41,49 40,50 39,50 37,52 37,53 36,54 36,60 39,63 44,63 45,64 45,65 44,66 44,68 45,69 46,69 47,70 49,70 50,71 68,71 69,70 72,70 73,69 74,69 76,67 76,66 77,65 77,60 76,59 76,56 75,55 71,55 71,56 72,57 72,59 73,60 73,65 70,68 67,68 66,69 52,69 51,68 49,68 48,67 48,62 49,61 49,60 51,58 51,52 50,51 50,43 51,42 57,42 58,41 63,41 63,39 62,38 60,38 59,39 53,39 52,40 50,38 51,37 51,32" stroke="black" stroke-width="1" /><polygon fill="none" id="3" points="43,50 46,50 47,51 47,52 48,53 48,57 47,58 47,59 46,60 45,60 44,61 41,61 39,59 39,54" stroke="black" stroke-width="1" /></svg>