<?xml version="1.0" encoding="utf-8" ?>
<svg baseProfile="full" height="100" version="1.1" width="100" xmlns="http://www.w3.org/2000/svg" xmlns:ev="http://www.w3.org/2001/xml-events" xmlns:xlink="http://www.w3.org/1999/xlink"><defs /><polygon fill="none" id="1" points="48,39 47,40 47,42 52,47 52,48 54,50 54,51 55,52 56,52 57,51 57,50 58,49 58,48 55,45 55,44 51,40 51,39" stroke="black" stroke-width="1" /><polygon fill="none" id="2" points="32,32 31,33 31,38 32,39 31,40 23,40 23,43 30,43 31,44 31,48 30,49 28,49 27,50 26,50 25,51 25,52 24,53 24,62 26,64 29,64 30,65 30,70 31,71 32,71 33,72 46,72 47,71 49,71 51,69 51,68 52,67 52,59 51,58 51,55 47,55 47,57 48,58 48,61 49,62 49,64 48,65 48,66 46,68 44,68 43,69 35,69 33,67 33,62 34,61 34,60 35,59 35,53 34,52 34,44 35,43 39,43 40,42 42,42 42,38 40,38 39,39 35,39 34,38 35,37 35,32" stroke="black" stroke-width="1" /><polygon fill="none" id="3" points="30,51 31,52 31,53 32,54 32,57 31,58 31,59 29,61 28,61 27,60 27,54" stroke="black" stroke-width="1" /></svg>