<?xml version="1.0" encoding="utf-8" ?>
<svg baseProfile="full" height="100" version="1.1" width="100" xmlns="http://www.w3.org/2000/svg" xmlns:ev="http://www.w3.org/2001/xml-events" xmlns:xlink="http://www.w3.org/1999/xlink"><defs /><polygon fill="none" id="1" points="55,39 54,40 53,40 53,42 60,49 60,50 62,52 63,52 65,50 65,48 61,44 61,43 57,39" stroke="black" stroke-width="1" /><polygon fill="none" id="2" points="36,32 35,33 35,39 34,40 26,40 26,43 34,43 35,44 35,48 34,49 31,49 27,53 27,61 28,62 28,63 29,63 30,64 32,64 33,65 33,69 35,71 36,71 37,72 52,72 53,71 55,71 58,68 58,56 57,55 53,55 53,57 54,58 54,60 55,61 55,64 54,65 54,66 52,68 50,68 49,69 40,69 39,68 38,68 37,67 37,63 38,62 38,61 39,60 39,44 40,43 43,43 44,42 48,42 48,39 47,38 45,38 44,39 40,39 39,38 39,32" stroke="black" stroke-width="1" /><polygon fill="none" id="3" points="33,51 34,51 35,52 35,53 36,54 36,57 35,58 35,59 33,61 32,61 30,59 30,55 31,54 31,53" stroke="black" stroke-width="1" /></svg>