<?xml version="1.0" encoding="utf-8" ?>
<svg baseProfile="full" height="100" version="1.1" width="100" xmlns="http://www.w3.org/2000/svg" xmlns:ev="http://www.w3.org/2001/xml-events" xmlns:xlink="http://www.w3.org/1999/xlink"><defs /><polygon fill="none" id="1" points="67,39 66,40 65,40 65,42 66,43 67,43 76,52 77,52 79,50 79,48 72,41 71,41 69,39" stroke="black" stroke-width="1" /><polygon fill="none" id="2" points="44,32 43,33 43,39 42,40 32,40 32,43 42,43 43,44 43,48 42,49 38,49 37,50 36,50 34,52 34,53 33,54 33,61 34,62 34,63 35,63 36,64 40,64 41,65 41,69 43,71 45,71 46,72 63,72 64,71 67,71 68,70 69,70 70,69 70,68 71,67 71,58 70,57 70,55 65,55 65,57 66,58 66,60 67,61 67,65 64,68 61,68 60,69 48,69 47,68 46,68 45,67 45,63 46,62 46,61 47,60 47,59 48,58 48,54 47,53 47,44 48,43 53,43 54,42 58,42 58,38 55,38 54,39 49,39 48,40 47,39 47,36 48,35 48,33 47,32" stroke="black" stroke-width="1" /><polygon fill="none" id="3" points="40,51 42,51 43,52 43,53 44,54 44,57 43,58 43,59 41,61 39,61 36,58 36,56 37,55 37,54" stroke="black" stroke-width="1" /></svg>