<?xml version="1.0" encoding="utf-8" ?>
<svg baseProfile="full" height="100" version="1.1" width="100" xmlns="http://www.w3.org/2000/svg" xmlns:ev="http://www.w3.org/2001/xml-events" xmlns:xlink="http://www.w3.org/1999/xlink"><defs /><polygon fill="none" id="1" points="73,39 72,40 71,40 71,42 72,43 73,43 75,45 76,45 83,52 84,52 87,49 87,48 86,48 81,43 80,43 76,39" stroke="black" stroke-width="1" /><polygon fill="none" id="2" points="48,32 47,33 47,39 46,40 35,40 35,43 46,43 47,44 47,48 46,49 41,49 40,50 39,50 37,52 37,53 36,54 36,61 39,64 44,64 45,65 44,66 44,69 45,70 46,70 47,71 49,71 50,72 69,72 70,71 73,71 74,70 75,70 77,68 77,67 78,66 78,60 77,59 77,56 76,55 71,55 71,57 72,58 72,60 73,61 73,65 70,68 67,68 66,69 53,69 52,68 50,68 49,67 49,63 50,62 50,61 52,59 52,52 51,51 51,44 52,43 58,43 59,42 64,42 64,39 63,38 60,38 59,39 53,39 52,38 52,32" stroke="black" stroke-width="1" /><polygon fill="none" id="3" points="44,51 46,51 47,52 47,53 48,54 48,57 47,58 47,59 46,60 45,60 44,61 42,61 40,59 40,55" stroke="black" stroke-width="1" /></svg>