<?xml version="1.0" encoding="utf-8" ?>
<svg baseProfile="full" height="100" version="1.1" width="100" xmlns="http://www.w3.org/2000/svg" xmlns:ev="http://www.w3.org/2001/xml-events" xmlns:xlink="http://www.w3.org/1999/xlink"><defs /><polygon fill="none" id="1" points="49,40 48,41 53,46 53,47 55,49 55,50 56,50 56,48 54,46 54,45 50,41 50,40" stroke="black" stroke-width="1" /><polygon fill="none" id="2" points="33,33 32,34 32,37 33,38 33,40 32,41 24,41 24,42 31,42 32,43 32,49 31,50 29,50 28,51 27,51 26,52 26,53 25,54 25,61 27,63 30,63 31,64 31,69 32,70 33,70 34,71 45,71 46,70 48,70 50,68 50,67 51,66 51,60 50,59 50,56 48,56 49,57 49,60 50,61 50,65 49,66 49,67 47,69 45,69 44,70 34,70 32,68 32,61 33,60 33,59 34,58 34,54 33,53 33,43 34,42 38,42 39,41 41,41 41,39 40,40 37,40 36,41 35,41 33,39 33,37 34,36 34,33" stroke="black" stroke-width="1" /><polygon fill="none" id="3" points="29,50 31,50 32,51 32,52 33,53 33,58 32,59 32,60 30,62 27,62 26,61 26,53" stroke="black" stroke-width="1" /></svg>