<?xml version="1.0" encoding="utf-8" ?>
<svg baseProfile="full" height="100" version="1.1" width="100" xmlns="http://www.w3.org/2000/svg" xmlns:ev="http://www.w3.org/2001/xml-events" xmlns:xlink="http://www.w3.org/1999/xlink"><defs /><polygon fill="none" id="1" points="56,40 55,41 54,41 61,48 61,49 62,50 63,50 64,49 60,45 60,44" stroke="black" stroke-width="1" /><polygon fill="none" id="2" points="37,33 36,34 36,40 35,41 27,41 27,42 35,42 36,43 36,49 35,50 32,50 28,54 28,60 29,61 29,62 30,62 31,63 34,63 35,64 35,65 34,66 34,68 36,70 37,70 38,71 51,71 52,70 54,70 57,67 57,57 56,56 54,56 55,57 55,59 56,60 56,65 55,66 55,67 53,69 51,69 50,70 39,70 38,69 37,69 36,68 36,62 37,61 37,60 38,59 38,53 37,52 37,51 38,50 38,43 39,42 42,42 43,41 47,41 47,40 46,39 45,40 41,40 40,41 39,41 38,40 38,33" stroke="black" stroke-width="1" /><polygon fill="none" id="3" points="32,50 35,50 36,51 36,52 37,53 37,58 36,59 36,60 34,62 31,62 29,60 29,54 30,53 30,52" stroke="black" stroke-width="1" /></svg>