<?xml version="1.0" encoding="utf-8" ?>
<svg baseProfile="full" height="100" version="1.1" width="100" xmlns="http://www.w3.org/2000/svg" xmlns:ev="http://www.w3.org/2001/xml-events" xmlns:xlink="http://www.w3.org/1999/xlink"><defs /><polygon fill="none" id="1" points="62,40 61,41 60,41 61,42 62,42 67,47 67,48 69,50 70,50 71,49" stroke="black" stroke-width="1" /><polygon fill="none" id="2" points="41,33 40,34 40,40 39,41 30,41 30,42 39,42 40,43 40,49 39,50 35,50 31,54 31,60 32,61 32,62 33,62 34,63 37,63 38,64 38,68 40,70 41,70 42,71 56,71 57,70 60,70 61,69 62,69 63,68 63,66 64,65 64,61 63,60 63,56 60,56 61,57 61,59 62,60 62,66 59,69 56,69 55,70 43,70 42,69 41,69 40,68 40,62 41,61 41,60 42,59 42,43 43,42 47,42 48,41 52,41 52,39 51,39 50,40 46,40 45,41 43,41 42,40 42,33" stroke="black" stroke-width="1" /><polygon fill="none" id="3" points="36,50 39,50 40,51 40,52 41,53 41,58 40,59 40,60 38,62 34,62 33,61 33,60 32,59 32,55 33,54 33,53" stroke="black" stroke-width="1" /></svg>