<?xml version="1.0" encoding="utf-8" ?>
<svg baseProfile="full" height="100" version="1.1" width="100" xmlns="http://www.w3.org/2000/svg" xmlns:ev="http://www.w3.org/2001/xml-events" xmlns:xlink="http://www.w3.org/1999/xlink"><defs /><polygon fill="none" id="1" points="74,40 73,41 72,41 73,42 74,42 76,44 77,44 83,50 84,50 85,49 80,44 79,44 75,40" stroke="black" stroke-width="1" /><polygon fill="none" id="2" points="49,33 48,34 48,40 47,41 36,41 36,42 47,42 48,43 48,49 47,50 42,50 41,51 40,51 38,53 38,54 37,55 37,60 40,63 45,63 46,64 46,66 45,67 45,68 46,69 47,69 48,70 50,70 51,71 68,71 69,70 72,70 73,69 74,69 76,67 76,66 77,65 77,61 76,60 76,57 75,56 72,56 73,57 73,59 74,60 74,66 71,69 68,69 67,70 52,70 51,69 49,69 48,68 48,62 49,61 49,60 51,58 51,53 50,52 50,43 51,42 57,42 58,41 63,41 63,40 62,39 61,39 60,40 54,40 53,41 52,41 50,39 50,38 51,37 51,33" stroke="black" stroke-width="1" /><polygon fill="none" id="3" points="43,50 47,50 48,51 48,52 49,53 49,58 48,59 48,60 47,61 46,61 45,62 41,62 39,60 39,54" stroke="black" stroke-width="1" /></svg>