<?xml version="1.0" encoding="utf-8" ?>
<svg baseProfile="full" height="100" version="1.1" width="100" xmlns="http://www.w3.org/2000/svg" xmlns:ev="http://www.w3.org/2001/xml-events" xmlns:xlink="http://www.w3.org/1999/xlink"><defs /><polygon fill="none" id="1" points="47,38 46,39 46,42 51,47 51,48 53,50 53,51 54,52 56,52 57,51 57,50 58,49 58,47 55,44 55,43 51,39 51,38" stroke="black" stroke-width="1" /><polygon fill="none" id="2" points="31,31 30,32 30,38 29,39 22,39 22,43 29,43 30,44 30,47 29,48 27,48 26,49 25,49 24,50 24,51 23,52 23,62 25,64 28,64 29,65 29,70 30,71 31,71 32,72 46,72 47,71 49,71 51,69 51,68 52,67 52,58 51,57 51,54 46,54 46,57 47,58 47,61 48,62 48,63 47,64 47,65 45,67 43,67 42,68 35,68 33,66 33,62 34,61 34,60 35,59 35,52 34,51 34,44 35,43 39,43 40,42 42,42 42,37 39,37 38,38 36,38 35,37 35,31" stroke="black" stroke-width="1" /><polygon fill="none" id="3" points="29,52 31,54 31,56 30,57 30,58 28,60 27,59 27,54" stroke="black" stroke-width="1" /></svg>