<?xml version="1.0" encoding="utf-8" ?>
<svg baseProfile="full" height="100" version="1.1" width="100" xmlns="http://www.w3.org/2000/svg" xmlns:ev="http://www.w3.org/2001/xml-events" xmlns:xlink="http://www.w3.org/1999/xlink"><defs /><polygon fill="none" id="1" points="60,38 59,39 58,39 58,42 59,43 60,43 65,48 65,49 68,52 70,52 72,50 72,47 63,38" stroke="black" stroke-width="1" /><polygon fill="none" id="2" points="39,31 38,32 38,38 37,39 28,39 28,43 37,43 38,44 38,47 37,48 33,48 29,52 29,61 30,62 30,63 31,63 32,64 35,64 36,65 36,69 38,71 39,71 40,72 57,72 58,71 61,71 62,70 63,70 64,69 64,67 65,66 65,59 64,58 64,54 58,54 58,57 59,58 59,60 60,61 60,64 57,67 54,67 53,68 44,68 43,67 42,67 41,66 41,63 42,62 42,61 43,60 43,57 44,56 44,54 43,53 43,44 44,43 48,43 49,42 53,42 53,37 49,37 48,38 44,38 43,37 43,31" stroke="black" stroke-width="1" /><polygon fill="none" id="3" points="37,51 38,52 38,53 39,54 39,56 38,57 38,58 36,60 35,60 34,59 34,58 33,57 33,56 34,55 34,54" stroke="black" stroke-width="1" /></svg>