<?xml version="1.0" encoding="utf-8" ?>
<svg baseProfile="full" height="100" version="1.1" width="100" xmlns="http://www.w3.org/2000/svg" xmlns:ev="http://www.w3.org/2001/xml-events" xmlns:xlink="http://www.w3.org/1999/xlink"><defs /><polygon fill="none" id="1" points="66,38 65,39 64,39 64,42 65,43 66,43 75,52 77,52 79,50 79,47 72,40 71,40 69,38" stroke="black" stroke-width="1" /><polygon fill="none" id="2" points="43,31 42,32 42,38 41,39 31,39 31,43 41,43 42,44 42,47 41,48 37,48 36,49 35,49 33,51 33,52 32,53 32,61 33,62 33,63 34,63 35,64 39,64 40,65 40,69 42,71 44,71 45,72 63,72 64,71 67,71 68,70 69,70 70,69 70,68 71,67 71,57 70,56 70,54 64,54 64,57 65,58 65,60 66,61 66,64 63,67 60,67 59,68 48,68 47,67 46,67 45,66 45,63 46,62 46,61 47,60 47,59 48,58 48,53 47,52 47,44 48,43 53,43 54,42 58,42 58,37 54,37 53,38 48,38 47,37 47,36 48,35 48,32 47,31" stroke="black" stroke-width="1" /><polygon fill="none" id="3" points="40,51 41,51 42,52 42,53 43,54 43,56 42,57 42,58 40,60 39,60 36,57 36,56 37,55 37,54" stroke="black" stroke-width="1" /></svg>