<?xml version="1.0" encoding="utf-8" ?>
<svg baseProfile="full" height="100" version="1.1" width="100" xmlns="http://www.w3.org/2000/svg" xmlns:ev="http://www.w3.org/2001/xml-events" xmlns:xlink="http://www.w3.org/1999/xlink"><defs /><polygon fill="none" id="1" points="72,38 71,39 70,39 70,42 71,43 72,43 74,45 75,45 82,52 84,52 87,49 87,47 86,47 81,42 80,42 76,38" stroke="black" stroke-width="1" /><polygon fill="none" id="2" points="47,31 46,32 46,38 45,39 34,39 34,43 45,43 46,44 46,47 45,48 40,48 39,49 38,49 36,51 36,52 35,53 35,61 38,64 42,64 43,65 43,69 44,70 45,70 46,71 48,71 49,72 69,72 70,71 73,71 74,70 75,70 77,68 77,67 78,66 78,59 77,58 77,55 76,54 70,54 70,57 71,58 71,60 72,61 72,64 69,67 66,67 65,68 53,68 52,67 50,67 49,66 49,63 50,62 50,61 52,59 52,51 51,50 51,44 52,43 58,43 59,42 64,42 64,38 63,37 59,37 58,38 53,38 52,37 52,31" stroke="black" stroke-width="1" /><polygon fill="none" id="3" points="44,51 45,51 46,52 46,53 47,54 47,56 46,57 46,58 45,59 44,59 43,60 42,60 40,58 40,55" stroke="black" stroke-width="1" /></svg>