<?xml version="1.0" encoding="utf-8" ?>
<svg baseProfile="full" height="100" version="1.1" width="100" xmlns="http://www.w3.org/2000/svg" xmlns:ev="http://www.w3.org/2001/xml-events" xmlns:xlink="http://www.w3.org/1999/xlink"><defs /><polygon fill="none" id="1" points="31,61 30,62 27,62 30,62 31,63 31,68 32,69 31,68" stroke="black" stroke-width="1" /><polygon fill="none" id="2" points="32,59" stroke="black" stroke-width="1" /><polygon fill="none" id="3" points="49,56 49,59 50,60 50,65 49,66 49,67 47,69 45,69 44,70 34,70 44,70 45,69 47,69 49,67 49,66 50,65 50,60 49,59" stroke="black" stroke-width="1" /><polygon fill="none" id="4" points="33,54 33,57" stroke="black" stroke-width="1" /><polygon fill="none" id="5" points="25,54 25,60" stroke="black" stroke-width="1" /><polygon fill="none" id="6" points="49,40 49,41 53,45 53,46 55,48 55,49 55,48 53,46 53,45 49,41" stroke="black" stroke-width="1" /><polygon fill="none" id="7" points="33,40 32,41 24,41 31,41 32,42 32,51 32,42 33,41 37,41 38,40 40,40 37,40 36,41 34,41" stroke="black" stroke-width="1" /><polygon fill="none" id="8" points="33,33 32,34 32,36 33,35" stroke="black" stroke-width="1" /></svg>