<?xml version="1.0" encoding="utf-8" ?>
<svg baseProfile="full" height="100" version="1.1" width="100" xmlns="http://www.w3.org/2000/svg" xmlns:ev="http://www.w3.org/2001/xml-events" xmlns:xlink="http://www.w3.org/1999/xlink"><defs /><polygon fill="none" id="1" points="29,61" stroke="black" stroke-width="1" /><polygon fill="none" id="2" points="28,54 28,59" stroke="black" stroke-width="1" /><polygon fill="none" id="3" points="37,53 37,58 36,59 36,60 34,62 31,62 34,62 35,63 35,65 34,66 34,67 36,69 37,69 38,70 50,70 51,69 53,69 56,66 56,57 55,56 55,58 56,59 56,65 55,66 55,67 53,69 51,69 50,70 38,70 37,69 36,69 35,68 35,61 36,60 36,59 37,58" stroke="black" stroke-width="1" /><polygon fill="none" id="4" points="55,41 61,47 61,48 62,49 62,48 59,45 59,44 56,41" stroke="black" stroke-width="1" /><polygon fill="none" id="5" points="37,33 36,34 36,40 35,41 27,41 35,41 36,42 36,51 36,50 37,49 37,42 38,41 41,41 42,40 46,40 41,40 40,41 38,41 37,40" stroke="black" stroke-width="1" /></svg>