<?xml version="1.0" encoding="utf-8" ?>
<svg baseProfile="full" height="100" version="1.1" width="100" xmlns="http://www.w3.org/2000/svg" xmlns:ev="http://www.w3.org/2001/xml-events" xmlns:xlink="http://www.w3.org/1999/xlink"><defs /><polygon fill="none" id="1" points="32,53 31,54 31,59 32,60 32,61 32,60 31,59 31,54" stroke="black" stroke-width="1" /><polygon fill="none" id="2" points="61,41 62,41 67,46 67,47 69,49 69,48 62,41" stroke="black" stroke-width="1" /><polygon fill="none" id="3" points="41,33 40,34 40,40 39,41 30,41 39,41 40,42 40,51 41,52 41,58 40,59 40,60 38,62 34,62 37,62 38,63 38,67 40,69 41,69 42,70 55,70 56,69 59,69 60,68 61,68 62,67 62,65 63,64 63,61 62,60 62,56 61,56 61,58 62,59 62,66 59,69 56,69 55,70 42,70 41,69 40,69 39,68 39,61 40,60 40,59 41,58 41,42 42,41 46,41 47,40 51,40 51,39 50,40 46,40 45,41 42,41 41,40" stroke="black" stroke-width="1" /></svg>