<?xml version="1.0" encoding="utf-8" ?>
<svg baseProfile="full" height="100" version="1.1" width="100" xmlns="http://www.w3.org/2000/svg" xmlns:ev="http://www.w3.org/2001/xml-events" xmlns:xlink="http://www.w3.org/1999/xlink"><defs /><polygon fill="none" id="1" points="67,56 67,58 68,59 68,66 65,69 62,69 61,70 47,70 61,70 62,69 65,69 66,68 67,68 68,67 68,66 69,65 69,59 68,58 68,56" stroke="black" stroke-width="1" /><polygon fill="none" id="2" points="35,53" stroke="black" stroke-width="1" /><polygon fill="none" id="3" points="67,41 68,41 76,49 76,48 70,42 69,42 68,41" stroke="black" stroke-width="1" /><polygon fill="none" id="4" points="45,33 44,34 44,40 43,41 33,41 43,41 44,42 44,51 45,52 45,58 44,59 44,60 42,62 37,62 34,59 34,55 34,59 35,60 35,61 36,61 37,62 41,62 42,63 42,67 44,69 45,69 44,69 43,68 43,61 44,60 44,59 45,58 45,57 46,56 46,55 45,54 45,42 46,41 51,41 52,40 56,40 56,39 55,40 50,40 49,41 46,41 45,40" stroke="black" stroke-width="1" /></svg>