<?xml version="1.0" encoding="utf-8" ?>
<svg baseProfile="full" height="100" version="1.1" width="100" xmlns="http://www.w3.org/2000/svg" xmlns:ev="http://www.w3.org/2001/xml-events" xmlns:xlink="http://www.w3.org/1999/xlink"><defs /><polygon fill="none" id="1" points="74,40 73,41 74,41 76,43 77,43 83,49 83,48 79,44 78,44" stroke="black" stroke-width="1" /><polygon fill="none" id="2" points="49,33 48,34 48,40 47,41 36,41 47,41 48,42 48,51 49,52 49,58 48,59 48,60 47,61 46,61 45,62 40,62 38,60 38,53 40,51 38,53 38,54 37,55 37,59 40,62 45,62 46,63 46,66 45,67 46,68 47,68 48,69 50,69 51,70 67,70 68,69 71,69 72,68 73,68 75,66 75,65 76,64 76,61 75,60 75,57 74,56 73,56 73,58 74,59 74,66 71,69 68,69 67,70 51,70 50,69 48,69 47,68 47,61 48,60 48,59 50,57 50,53 49,52 49,42 50,41 56,41 57,40 62,40 61,39 60,40 54,40 53,41 51,41 49,39 49,37 50,36 50,33" stroke="black" stroke-width="1" /></svg>