<?xml version="1.0" encoding="utf-8" ?>
<svg baseProfile="full" height="100" version="1.1" width="100" xmlns="http://www.w3.org/2000/svg" xmlns:ev="http://www.w3.org/2001/xml-events" xmlns:xlink="http://www.w3.org/1999/xlink"><defs /><polygon fill="none" id="1" points="41,33 41,40 40,41 39,41 38,42 36,42 35,43 34,43 33,44 31,44 30,43 30,38 29,37 29,36 28,36 27,37 27,39 28,40 28,43 29,44 29,47 26,50 26,51 25,52 25,54 24,55 24,57 23,58 23,63 24,64 24,66 25,67 25,68 26,69 29,69 30,68 31,68 33,66 33,65 35,63 36,64 36,65 37,65 38,64 38,62 36,60 37,59 37,58 38,57 38,55 39,54 39,53 40,52 40,50 41,49 41,46 42,45 42,44 43,43 44,43 45,44 47,44 52,49 52,52 53,53 53,58 52,59 52,61 50,63 50,64 49,65 48,65 46,67 45,67 44,68 40,68 39,69 41,71 41,72 42,71 44,71 45,70 46,70 47,69 48,69 50,67 51,67 52,66 52,65 54,63 54,61 55,60 55,51 54,50 54,48 53,47 53,46 50,43 49,43 48,42 46,42 45,41 44,41 43,40 43,37 44,36 44,33" stroke="black" stroke-width="1" /><polygon fill="none" id="2" points="28,51 29,50 30,50 31,51 31,53 32,54 32,56 33,57 33,58 34,59 34,60 33,61 33,62 31,64 31,65 29,67 27,67 26,66 26,65 25,64 25,59 26,58 26,55 27,54 27,53 28,52" stroke="black" stroke-width="1" /><polygon fill="none" id="3" points="38,44 39,43 40,44 40,46 39,47 39,48 38,49 38,52 37,53 37,55 35,57 34,56 34,54 33,53 33,51 32,50 32,47 34,45 35,45 36,44" stroke="black" stroke-width="1" /></svg>