<?xml version="1.0" encoding="utf-8" ?>
<svg baseProfile="full" height="100" version="1.1" width="100" xmlns="http://www.w3.org/2000/svg" xmlns:ev="http://www.w3.org/2001/xml-events" xmlns:xlink="http://www.w3.org/1999/xlink"><defs /><polygon fill="none" id="1" points="52,33 52,37 51,38 51,40 50,41 48,41 47,42 44,42 43,43 42,43 41,44 39,44 38,43 38,40 37,39 37,36 36,36 35,37 34,37 34,39 35,40 35,42 36,43 36,45 37,46 32,51 32,52 31,53 31,54 30,55 30,57 29,58 29,63 30,64 30,66 33,69 37,69 38,68 39,68 42,65 42,64 43,63 44,63 46,65 47,65 48,64 48,63 46,61 46,59 47,58 47,57 48,56 48,55 49,54 49,53 50,52 50,51 51,50 51,48 52,47 52,45 54,43 55,43 56,44 58,44 59,45 60,45 61,46 62,46 64,48 64,49 65,50 65,51 66,52 66,59 65,60 65,61 61,65 60,65 59,66 58,66 57,67 56,67 55,68 50,68 49,69 51,71 55,71 56,70 58,70 59,69 60,69 61,68 62,68 64,66 65,66 67,64 67,63 68,62 68,61 69,60 69,51 68,50 68,49 67,48 67,47 64,44 63,44 62,43 61,43 60,42 58,42 57,41 55,41 54,40 54,37 55,36 55,33" stroke="black" stroke-width="1" /><polygon fill="none" id="2" points="36,50 37,49 38,50 38,51 39,52 39,53 40,54 40,56 42,58 42,61 36,67 34,67 32,65 32,57 33,56 33,55 34,54 34,53 36,51" stroke="black" stroke-width="1" /><polygon fill="none" id="3" points="47,44 48,43 49,43 50,44 50,45 49,46 49,48 48,49 48,50 47,51 47,52 46,53 46,55 44,57 43,56 43,55 42,54 42,52 41,51 41,50 40,49 40,47 41,46 42,46 43,45 44,45 45,44" stroke="black" stroke-width="1" /></svg>