<?xml version="1.0" encoding="utf-8" ?>
<svg baseProfile="full" height="100" version="1.1" width="100" xmlns="http://www.w3.org/2000/svg" xmlns:ev="http://www.w3.org/2001/xml-events" xmlns:xlink="http://www.w3.org/1999/xlink"><defs /><polygon fill="none" id="1" points="47,33 47,36 46,37 46,40 45,41 44,41 43,42 40,42 39,43 38,43 37,44 35,44 34,43 34,40 33,39 33,36 32,36 31,37 30,37 31,38 31,41 32,42 32,44 33,45 33,46 31,48 31,49 29,51 29,52 28,53 28,54 27,55 27,57 26,58 26,63 27,64 27,66 30,69 33,69 34,68 35,68 37,66 37,65 39,63 40,63 41,64 41,65 42,65 43,64 43,63 41,61 41,59 42,58 42,57 43,56 43,55 44,54 44,53 45,52 45,51 46,50 46,48 47,47 47,44 48,43 50,43 51,44 52,44 53,45 54,45 58,49 58,50 59,51 59,60 58,61 58,62 55,65 54,65 52,67 50,67 49,68 45,68 44,69 46,71 46,72 47,71 49,71 50,70 52,70 53,69 54,69 55,68 56,68 60,64 60,63 61,62 61,61 62,60 62,51 61,50 61,48 56,43 55,43 54,42 52,42 51,41 49,41 48,40 48,39 49,38 49,35 50,34 50,33" stroke="black" stroke-width="1" /><polygon fill="none" id="2" points="32,50 33,49 35,51 35,53 36,54 36,56 37,57 37,58 38,59 38,61 35,64 35,65 34,66 33,66 32,67 31,67 29,65 29,56 30,55 30,54 31,53 31,52 32,51" stroke="black" stroke-width="1" /><polygon fill="none" id="3" points="42,44 43,43 44,43 45,44 45,45 44,46 44,48 43,49 43,50 42,51 42,53 41,54 41,55 40,56 39,56 38,55 38,53 37,52 37,50 36,49 36,47 37,46 38,46 39,45 40,45 41,44" stroke="black" stroke-width="1" /></svg>