<?xml version="1.0" encoding="utf-8" ?>
<svg baseProfile="full" height="100" version="1.1" width="100" xmlns="http://www.w3.org/2000/svg" xmlns:ev="http://www.w3.org/2001/xml-events" xmlns:xlink="http://www.w3.org/1999/xlink"><defs /><polygon fill="none" id="1" points="57,33 57,37 56,38 56,40 55,41 53,41 52,42 49,42 48,43 46,43 45,44 43,44 42,43 42,41 41,40 41,36 39,36 38,37 37,37 37,38 38,39 38,41 39,42 39,43 40,44 40,47 39,48 38,48 36,50 36,51 34,53 34,54 33,55 33,57 32,58 32,63 33,64 33,66 36,69 41,69 43,67 44,67 48,63 49,63 50,64 50,65 51,65 52,64 53,64 53,63 50,60 51,59 51,58 53,56 53,55 54,54 54,53 55,52 55,51 56,50 56,49 57,48 57,45 59,43 61,43 62,44 64,44 65,45 66,45 67,46 68,46 72,50 72,52 73,53 73,58 72,59 72,60 67,65 66,65 65,66 64,66 63,67 61,67 60,68 55,68 54,69 56,71 60,71 61,70 64,70 65,69 66,69 67,68 68,68 69,67 70,67 72,65 73,65 73,64 75,62 75,61 76,60 76,51 75,50 75,49 74,48 74,47 72,45 71,45 69,43 67,43 66,42 64,42 63,41 60,41 59,40 59,39 60,38 60,36 61,35 61,33" stroke="black" stroke-width="1" /><polygon fill="none" id="2" points="41,49 42,50 42,51 43,52 43,53 44,54 44,56 46,58 46,59 47,60 40,67 37,67 36,66 36,65 35,64 35,58 36,57 36,55 38,53 38,52" stroke="black" stroke-width="1" /><polygon fill="none" id="3" points="52,44 53,43 54,43 55,44 55,45 54,46 54,48 53,49 53,50 52,51 52,52 51,53 51,54 50,55 50,56 49,57 48,57 47,56 47,54 46,53 46,52 45,51 45,50 44,49 44,47 45,46 46,46 47,45 49,45 50,44" stroke="black" stroke-width="1" /></svg>